<svg xmlns="http://www.w3.org/2000/svg" width="684" height="504" viewBox="0 0 684 504">
    <g fill-opacity=".198">
        <path d="m294.005 228.049-94.986 16.267c-4.698.805-8.507-2.829-8.507-8.115V69.484c0-5.287 3.809-10.225 8.507-11.029l94.986-16.267c4.698-.805 8.507 2.829 8.507 8.115V217.02c0 5.287-3.809 10.224-8.507 11.029M41.533 226.277l123.853 16.732c6.125.827 11.091-2.787 11.091-8.074V68.218c0-5.286-4.966-10.243-11.091-11.07L41.533 40.415c-6.125-.827-11.091 2.788-11.091 8.074v166.717c0 5.287 4.966 10.243 11.091 11.071M586.075 228.049l-94.987 16.267c-4.698.805-8.506-2.829-8.506-8.115V69.484c0-5.287 3.808-10.225 8.506-11.029l94.987-16.267c4.697-.805 8.506 2.829 8.506 8.115V217.02c0 5.287-3.809 10.224-8.506 11.029M333.603 226.277l123.852 16.732c6.125.827 11.091-2.787 11.091-8.074V68.218c0-5.286-4.966-10.243-11.091-11.07L333.603 40.415c-6.126-.827-11.092 2.788-11.092 8.074v166.717c0 5.287 4.966 10.243 11.092 11.071M492.04 468.428l-94.987 16.267c-4.698.805-8.506-2.828-8.506-8.115V309.863c0-5.286 3.808-10.224 8.506-11.029l94.987-16.267c4.698-.804 8.506 2.829 8.506 8.116v166.716c0 5.287-3.808 10.225-8.506 11.029M199.971 468.428l-94.987 16.267c-4.698.805-8.506-2.828-8.506-8.115V309.863c0-5.286 3.808-10.224 8.506-11.029l94.987-16.267c4.697-.804 8.506 2.829 8.506 8.116v166.716c0 5.287-3.809 10.225-8.506 11.029M239.568 466.656l123.852 16.732c6.126.828 11.091-2.787 11.091-8.074V308.598c0-5.287-4.965-10.243-11.091-11.071l-123.852-16.732c-6.126-.828-11.091 2.787-11.091 8.074v166.716c0 5.287 4.965 10.244 11.091 11.071M531.637 466.656l123.853 16.732c6.125.828 11.091-2.787 11.091-8.074V308.598c0-5.287-4.966-10.243-11.091-11.071l-123.853-16.732c-6.125-.828-11.091 2.787-11.091 8.074v166.716c0 5.287 4.966 10.244 11.091 11.071"/>
    </g>
    <path fill="#c9c9c9" d="M292.939 36.485 186.049 7.624c-5.287-1.427-9.572 1.701-9.572 6.988v166.717c0 5.286 4.285 10.729 9.572 12.157l106.89 28.86c5.287 1.427 9.573-1.701 9.573-6.988V48.641c0-5.286-4.286-10.729-9.573-12.156M585.009 36.485 478.118 7.624c-5.286-1.427-9.572 1.701-9.572 6.988v166.717c0 5.286 4.286 10.729 9.572 12.157l106.891 28.86c5.286 1.427 9.572-1.701 9.572-6.988V48.641c0-5.286-4.286-10.729-9.572-12.156M198.905 277.956l-106.891-28.86c-5.286-1.427-9.572 1.701-9.572 6.988v166.717c0 5.286 4.286 10.729 9.572 12.156l106.891 28.861c5.286 1.427 9.572-1.702 9.572-6.988V290.113c0-5.287-4.286-10.729-9.572-12.157M490.974 277.956l-106.89-28.86c-5.287-1.427-9.573 1.701-9.573 6.988v166.717c0 5.286 4.286 10.729 9.573 12.156l106.89 28.861c5.286 1.427 9.572-1.702 9.572-6.988V290.113c0-5.287-4.286-10.729-9.572-12.157"/>
    <path fill="#fff" d="M40.014 36.485 146.905 7.624c5.286-1.427 9.572 1.701 9.572 6.988v166.717c0 5.286-4.286 10.729-9.572 12.157l-106.891 28.86c-5.286 1.427-9.572-1.701-9.572-6.988V48.641c0-5.286 4.286-10.729 9.572-12.156M332.084 36.485l106.89-28.861c5.287-1.427 9.572 1.701 9.572 6.988v166.717c0 5.286-4.285 10.729-9.572 12.157l-106.89 28.86c-5.287 1.427-9.573-1.701-9.573-6.988V48.641c0-5.286 4.286-10.729 9.573-12.156M530.118 277.956l106.891-28.86c5.286-1.427 9.572 1.701 9.572 6.988v166.717c0 5.286-4.286 10.729-9.572 12.156l-106.891 28.861c-5.286 1.427-9.572-1.702-9.572-6.988V290.113c0-5.287 4.286-10.729 9.572-12.157M238.049 277.956l106.89-28.86c5.287-1.427 9.572 1.701 9.572 6.988V422.8c0 5.287-4.285 10.73-9.572 12.157l-106.89 28.861c-5.287 1.427-9.572-1.702-9.572-6.988V290.113c0-5.287 4.285-10.729 9.572-12.157"/>
    <path d="M491.816 166.137V52.375q0-3.053-.79-4.841-.789-1.787-2.82-3.316v-3.152l42.922 11.5q14.1 3.778 21.657 11.418 10.829 11.077 16.018 31.28 4.118 15.877 4.118 35.675 0 34.769-12.239 49.711-5.133 6.307-12.014 7.763t-17.54-1.4l-42.922-11.501v-3.152q2.031-.441 2.82-1.805.79-1.365.79-4.418m16.808-7.316 21.093 5.652q10.096 2.705 15.172-.761 10.886-7.425 10.886-37.368 0-21.669-5.866-34.764-3.271-7.279-7.896-11.227t-12.296-6.003l-21.093-5.652zM127.047 394.305l47.32 12.68q1.749.468 2.651-.68t1.466-4.571l1.805.483v35.048l-1.805-.483q-.564-3.726-1.466-5.358t-2.651-2.1l-67.737-18.15v-3.177q2.03-.449 2.82-1.826.789-1.377.789-4.455V287.041q0-3.078-.789-4.878-.79-1.801-2.82-3.337v-3.178l24.026 6.438v3.178q-2.03.349-2.82 1.776-.789 1.426-.789 4.504zM410.135 324.851v82.407q0 3.078.79 4.878t2.82 3.337v3.178l-22.617-6.061v-3.177q2.031-.449 2.82-1.826.79-1.377.79-4.454V288.358q0-2.979-.79-4.779-.789-1.8-2.82-3.337v-3.177l26.17 7.012v3.177q-2.425.443-2.425 3.918 0 2.383 1.579 5.685l42.47 89.121v-80.422q0-2.979-.789-4.779-.79-1.8-2.821-3.337v-3.177l22.617 6.06v3.177q-2.03.449-2.82 1.826-.789 1.377-.789 4.356v114.774q0 3.078.789 4.878.79 1.801 2.82 3.337v3.178l-24.252-6.499v-3.177q2.369-.259 2.369-3.635 0-1.985-2.764-7.69zM253.456 147.849l-34.969-9.37L213.298 156q-1.071 3.652-1.071 5.918 0 4.334 3.778 7.021v3.151l-25.493-6.83v-3.152q2.256-.184 3.441-1.836 1.184-1.653 2.707-6.958l28.313-95.735q1.354-4.562 1.354-7.517 0-4.531-3.271-7.377v-3.152l27.298 7.315v3.151q-3.328.783-3.328 4.92 0 2.856 1.072 6.788l29.328 111.476q1.861 7.098 3.271 9.889t3.779 4.213v3.152l-28.313-7.586v-3.152q3.722-.086 3.722-5.11 0-2.068-1.128-6.409zm-4.851-19.719-12.464-51.208-12.634 44.483z"/>
    <g fill="#a60707">
        <path d="m85.195 121.854-11.563 19.547v36.049q0 3.054.818 4.46t2.792 1.763v3.152l-24.027 6.438v-3.152q2.031-1.529 2.82-3.316.79-1.788.79-4.841V68.093q0-2.955-.79-4.319-.789-1.364-2.82-1.805v-3.152l24.027-6.438v3.152q-2.03 1.43-2.82 3.267t-.79 4.792v47.08l31.698-53.702q2.199-3.742 2.199-5.613 0-2.856-3.271-3.063V45.14l31.472-8.433v3.152q-1.974 1.218-2.82 2.332t-4.907 8.012l-4.343 7.467-26.17 43.751 29.667 54.399q4.117 7.564 5.95 9.585 1.833 2.02 4.597 2.068v3.151l-30.062 8.055v-3.151q2.989-1.885 2.989-4.544 0-1.379-2.707-6.563zM368.112 129.34v44.618q0 2.955.817 4.361.818 1.406 2.792 1.764v3.152l-24.026 6.438v-3.152q2.03-1.529 2.82-3.317.789-1.787.789-4.742V64.601q0-3.053-.789-4.417-.79-1.365-2.82-1.806v-3.152l48.166-12.906q8.798-2.357 13.959-1.967t8.996 3.795q4.456 3.927 6.655 12.104 2.087 7.912 2.087 17.564 0 32.898-20.925 44.119l14.947 33.128q3.948 8.693 5.781 11.009t4.484 1.901v3.152l-27.862 7.465v-3.151q2.876-1.559 2.876-4.317 0-1.773-2.651-7.859l-15.566-35.424zm0-22.161 25.944-6.952q5.753-1.542 8.122-2.767 2.369-1.226 4.343-3.626 4.286-5.187 4.286-15.726t-4.286-13.429q-2.031-1.426-4.315-1.356-2.284.071-8.15 1.642l-25.944 6.952zM309.757 380.82l-34.968 9.369-5.189 20.454q-1.072 4.258-1.072 6.542 0 4.368 3.779 5.044v3.177l-25.493 6.831v-3.177q2.256-1.399 3.44-3.702t2.707-8.47l28.314-111.738q1.353-5.327 1.353-8.305 0-4.567-3.271-5.677v-3.177l27.298-7.314v3.177q-3.328 2.58-3.328 6.75 0 2.879 1.072 6.265l29.328 96.591q1.862 6.153 3.272 8.208 1.41 2.054 3.779 2.214v3.177l-28.314 7.587v-3.177q3.723-2.09 3.723-7.154 0-2.085-1.128-5.853zm-4.85-17.267-12.465-44.913-12.634 51.638zM547.816 419.54V304.865q0-3.078-.79-4.455-.789-1.377-2.82-1.826v-3.177l42.921-11.5q14.101-3.779 21.658-.144 10.829 5.339 16.018 22.912 4.117 13.79 4.117 33.746 0 35.048-12.238 56.696-5.133 9.119-12.014 14.289t-17.541 8.026l-42.921 11.501v-3.177q2.031-1.537 2.82-3.337.79-1.801.79-4.879m16.808-16.417 21.093-5.652q10.096-2.706 15.172-8.931 10.886-13.342 10.886-43.524 0-21.843-5.866-31.888-3.271-5.577-7.896-7.068-4.625-1.492-12.296.564l-21.093 5.652z"/>
    </g>
</svg>
