<svg xmlns="http://www.w3.org/2000/svg" xml:space="preserve" width="178.6" height="249.4" viewBox="0 0 178.6 249.4">
    <path fill="#fbfbf6" stroke="#7f7f7f" stroke-width=".4" d="M268.9 370.2h161.5c4.7 0 8.5 3.8 8.5 8.5v232.4c0 4.7-3.8 8.5-8.5 8.5H268.9c-4.7 0-8.5-3.8-8.5-8.5V378.7c-.1-4.7 3.8-8.5 8.5-8.5z" transform="matrix(.99553 0 0 .9968 -258.772 -368.593)"/>
    <path fill="#d40000" d="M14.076 56.165c-1.692-2.89-3.484-5.582-5.774-7.974 2.29-2.393 4.082-5.084 5.774-7.975 1.692 2.891 3.484 5.582 5.774 7.975-2.19 2.392-3.982 5.183-5.774 7.974M130.554 64.738c-4.082-6.878-8.462-13.457-13.938-19.139 5.476-5.682 9.756-12.26 13.938-19.139 4.081 6.878 8.462 13.457 13.937 19.139-5.475 5.682-9.856 12.36-13.937 19.139M164.501 209.174c-1.692-2.89-3.484-5.582-5.774-7.974 2.29-2.392 4.082-5.084 5.774-7.974 1.693 2.89 3.485 5.582 5.774 7.974-2.29 2.392-4.081 5.183-5.774 7.974M48.024 64.738c-4.082-6.878-8.462-13.457-13.938-19.139 5.476-5.682 9.757-12.26 13.938-19.139 4.081 6.878 8.462 13.457 13.937 19.139-5.376 5.682-9.756 12.36-13.937 19.139M130.554 117.469c-4.082-6.878-8.462-13.457-13.938-19.14 5.476-5.68 9.756-12.26 13.938-19.138 4.081 6.878 8.462 13.457 13.937 19.139-5.475 5.682-9.856 12.36-13.937 19.139M48.024 117.469c-4.082-6.878-8.462-13.457-13.938-19.14 5.476-5.68 9.757-12.26 13.938-19.138 4.081 6.878 8.462 13.457 13.937 19.139-5.376 5.682-9.756 12.36-13.937 19.139M89.338 91.153c-4.081-6.878-8.462-13.457-13.937-19.139 5.475-5.682 9.756-12.26 13.937-19.138 4.082 6.878 8.462 13.456 13.938 19.138-5.476 5.682-9.856 12.261-13.938 19.139M48.024 223.03c-4.082-6.878-8.462-13.457-13.938-19.139 5.476-5.681 9.757-12.26 13.938-19.138 4.081 6.878 8.462 13.457 13.937 19.138-5.376 5.582-9.756 12.261-13.937 19.139M130.554 223.03c-4.082-6.878-8.462-13.457-13.938-19.139 5.476-5.681 9.756-12.26 13.938-19.138 4.081 6.878 8.462 13.457 13.937 19.138-5.475 5.582-9.856 12.261-13.937 19.139M130.554 170.2c-4.082-6.879-8.462-13.457-13.938-19.14 5.476-5.681 9.756-12.26 13.938-19.138 4.081 6.878 8.462 13.457 13.937 19.139-5.475 5.682-9.856 12.36-13.937 19.138M48.024 170.2c-4.082-6.879-8.462-13.457-13.938-19.14 5.476-5.681 9.757-12.26 13.938-19.138 4.081 6.878 8.462 13.457 13.937 19.139-5.376 5.682-9.756 12.36-13.937 19.138M89.338 196.615c-4.081-6.878-8.462-13.457-13.937-19.139 5.475-5.682 9.756-12.26 13.937-19.139 4.082 6.878 8.462 13.457 13.938 19.14-5.476 5.68-9.856 12.26-13.938 19.138"/>
    <g fill="#d40000">
        <path d="M6.087 37.787V11.472h2.589v26.315zM16.242 11.472c-2.49 0-4.38 2.293-4.38 4.984v16.248c0 2.79 1.99 4.984 4.38 4.984h1.393c2.49 0 4.38-2.193 4.38-4.984V16.456c0-2.79-1.99-4.984-4.38-4.984zm.697 2.492c1.493 0 2.588 1.097 2.588 2.492v16.447c0 1.396-1.195 2.492-2.588 2.492-1.494 0-2.589-1.096-2.589-2.492V16.456c0-1.395 1.195-2.492 2.589-2.492"/>
    </g>
    <g fill="#d40000">
        <path d="M172.439 211.726v26.315h-2.589v-26.315zM162.384 238.04c2.489 0 4.38-2.292 4.38-4.983v-16.248c0-2.79-1.991-4.984-4.38-4.984h-1.394c-2.489 0-4.38 2.193-4.38 4.984v16.248c0 2.79 1.99 4.984 4.38 4.984zm-.797-2.491c-1.493 0-2.588-1.097-2.588-2.492V216.61c0-1.396 1.195-2.492 2.588-2.492s2.589 1.096 2.589 2.492v16.447c.1 1.395-1.095 2.492-2.589 2.492"/>
    </g>
</svg>
