<svg xmlns="http://www.w3.org/2000/svg" xml:space="preserve" width="178.6" height="249.4" viewBox="0 0 178.6 249.4">
    <path fill="#fbfbf6" stroke="#7f7f7f" stroke-width=".4" d="M268.9 370.2h161.5c4.7 0 8.5 3.8 8.5 8.5v232.4c0 4.7-3.8 8.5-8.5 8.5H268.9c-4.7 0-8.5-3.8-8.5-8.5V378.7c-.1-4.7 3.8-8.5 8.5-8.5z" transform="matrix(.99554 0 0 .9968 -258.773 -368.593)"/>
    <path fill="#d40000" d="M48.083 117.523s-3.683-6.08-8.76-13.257c-3.385-4.785-6.073-9.968-6.272-14.454-.299-5.084 2.39-10.267 7.367-10.466 4.878-.2 6.869 3.987 7.665 7.376.797-3.489 2.788-7.675 7.666-7.376 4.878.2 7.566 5.382 7.367 10.466-.299 4.486-2.887 9.67-6.272 14.454-5.077 7.077-8.76 13.257-8.76 13.257M14.136 56.22s-1.792-2.592-4.182-5.582c-1.593-1.994-2.887-4.187-2.986-6.08-.1-2.094 1.194-4.287 3.484-4.387s3.285 1.595 3.684 3.09c.398-1.395 1.294-3.19 3.683-3.09 2.29.1 3.584 2.293 3.484 4.386-.1 1.894-1.393 3.988-2.986 6.08-2.39 2.991-4.181 5.583-4.181 5.583M164.462 193.28s-1.792 2.592-4.181 5.582c-1.593 1.994-2.888 4.187-2.987 6.08-.1 2.094 1.195 4.287 3.484 4.387 2.29.1 3.286-1.595 3.684-3.09.398 1.395 1.294 3.19 3.683 3.09 2.29-.1 3.584-2.293 3.485-4.386-.1-1.894-1.394-3.988-2.987-6.08-2.39-3.09-4.181-5.583-4.181-5.583M89.299 98.783s-3.684-6.08-8.761-13.257c-3.385-4.785-6.073-9.968-6.272-14.454-.299-5.083 2.39-10.267 7.367-10.466 4.878-.2 6.87 3.987 7.666 7.376.796-3.489 2.787-7.675 7.665-7.376 4.878.2 7.566 5.383 7.367 10.466-.199 4.486-2.887 9.67-6.272 14.454-5.077 7.077-8.76 13.257-8.76 13.257M48.083 64.792s-3.683-6.08-8.76-13.257c-3.385-4.785-6.073-9.968-6.272-14.454-.299-5.083 2.39-10.267 7.367-10.466 4.878-.2 6.869 3.987 7.665 7.376.797-3.489 2.788-7.675 7.666-7.376 4.878.2 7.566 5.383 7.367 10.466-.299 4.486-2.887 9.67-6.272 14.454-5.077 7.077-8.76 13.257-8.76 13.257M130.514 117.523s-3.684-6.08-8.76-13.257c-3.386-4.785-6.074-9.968-6.273-14.454-.298-5.084 2.39-10.267 7.367-10.466 4.878-.2 6.87 3.987 7.666 7.376.796-3.489 2.787-7.675 7.666-7.376 4.878.2 7.566 5.382 7.367 10.466-.3 4.486-2.887 9.67-6.272 14.454-5.078 7.077-8.761 13.257-8.761 13.257M130.514 64.792s-3.684-6.08-8.76-13.257c-3.386-4.785-6.074-9.968-6.273-14.454-.298-5.083 2.39-10.267 7.367-10.466 4.878-.2 6.87 3.987 7.666 7.376.796-3.489 2.787-7.675 7.666-7.376 4.878.2 7.566 5.383 7.367 10.466-.3 4.486-2.887 9.67-6.272 14.454-5.078 7.077-8.761 13.257-8.761 13.257M89.299 150.717s-3.684 6.08-8.761 13.257c-3.385 4.785-6.073 9.968-6.272 14.454-.299 5.083 2.39 10.267 7.367 10.466 4.878.2 6.87-3.987 7.666-7.376.796 3.489 2.787 7.675 7.665 7.376 4.878-.2 7.566-5.383 7.367-10.466-.199-4.486-2.887-9.67-6.272-14.454-5.077-7.177-8.76-13.257-8.76-13.257M130.514 131.977s-3.684 6.08-8.76 13.257c-3.386 4.785-6.074 9.968-6.273 14.454-.298 5.084 2.39 10.267 7.367 10.466 4.878.2 6.87-3.987 7.666-7.376.796 3.489 2.787 7.675 7.666 7.376 4.878-.2 7.566-5.382 7.367-10.466-.3-4.486-2.887-9.67-6.272-14.454-5.078-7.177-8.761-13.257-8.761-13.257M48.083 131.977s-3.683 6.08-8.76 13.257c-3.385 4.785-6.073 9.968-6.272 14.454-.299 5.084 2.39 10.267 7.367 10.466 4.878.2 6.869-3.987 7.665-7.376.797 3.489 2.788 7.675 7.666 7.376 4.878-.2 7.566-5.382 7.367-10.466-.299-4.486-2.887-9.67-6.272-14.454-5.077-7.177-8.76-13.257-8.76-13.257M130.514 184.708s-3.684 6.08-8.76 13.257c-3.386 4.785-6.074 9.968-6.273 14.454-.298 5.083 2.39 10.267 7.367 10.466 4.878.2 6.87-3.987 7.666-7.376.796 3.489 2.787 7.675 7.666 7.376 4.878-.2 7.566-5.383 7.367-10.466-.3-4.486-2.887-9.67-6.272-14.454-5.078-7.177-8.761-13.257-8.761-13.257M48.083 184.708s-3.683 6.08-8.76 13.257c-3.385 4.785-6.073 9.968-6.272 14.454-.299 5.083 2.39 10.267 7.367 10.466 4.878.2 6.869-3.987 7.665-7.376.797 3.489 2.788 7.675 7.666 7.376 4.878-.2 7.566-5.383 7.367-10.466-.299-4.486-2.887-9.67-6.272-14.454-5.077-7.177-8.76-13.257-8.76-13.257"/>
    <g fill="#d40000">
        <path d="M6.087 37.787V11.472h2.589v26.315zM16.242 11.472c-2.489 0-4.38 2.293-4.38 4.984v16.248c0 2.79 1.99 4.984 4.38 4.984h1.394c2.488 0 4.38-2.193 4.38-4.984V16.456c0-2.79-1.991-4.984-4.38-4.984zm.697 2.492c1.493 0 2.588 1.097 2.588 2.492v16.447c0 1.395-1.195 2.492-2.588 2.492-1.494 0-2.589-1.097-2.589-2.492V16.456c0-1.395 1.195-2.492 2.589-2.492"/>
    </g>
    <g fill="#d40000">
        <path d="M172.44 211.725v26.315h-2.59v-26.315zM162.384 238.04c2.49 0 4.38-2.292 4.38-4.984V216.81c0-2.791-1.99-4.984-4.38-4.984h-1.393c-2.49 0-4.38 2.193-4.38 4.984v16.247c0 2.791 1.99 4.984 4.38 4.984zm-.796-2.492c-1.493 0-2.589-1.096-2.589-2.492V216.61c0-1.395 1.195-2.492 2.589-2.492 1.493 0 2.588 1.097 2.588 2.492v16.447c.1 1.396-1.095 2.492-2.588 2.492"/>
    </g>
</svg>
