<svg xmlns="http://www.w3.org/2000/svg" xml:space="preserve" width="178.6" height="249.4" viewBox="0 0 178.6 249.4">
    <path fill="#fbfbf6" stroke="#7f7f7f" stroke-width=".4" d="M3267-471.5h161.5c4.7 0 8.5 3.8 8.5 8.5v232.4c0 4.7-3.8 8.5-8.5 8.5H3267c-4.7 0-8.5-3.8-8.5-8.5V-463c0-4.7 3.8-8.5 8.5-8.5z" transform="matrix(.99554 0 0 .9968 -3243.52 470.399)"/>
    <path d="M48.026 26.424C40.659 36.89 32.794 42.97 32.695 51.144c0 2.692 1.393 7.177 5.873 7.975 2.887.598 6.87-1.794 6.97-6.58 0-.996.995-.896.995.4-.1 3.787-1.295 8.173-3.385 11.762h9.657c-1.992-3.589-3.186-7.975-3.385-11.762 0-1.296.995-1.296.995-.4.1 4.786 4.082 7.178 6.969 6.58 4.48-.897 5.874-5.383 5.874-7.975 0-8.173-7.865-14.154-15.232-24.72M14.078 40.28c-3.385 4.385-7.068 6.877-7.168 10.266 0 1.097.697 2.99 2.788 3.39 1.393.199 3.185-.798 3.285-2.792 0-.398.498-.398.498.2-.1 1.595-.598 3.389-1.593 4.884h4.48c-.896-1.495-1.493-3.29-1.593-4.884 0-.499.498-.598.498-.2 0 1.994 1.891 2.99 3.285 2.791 2.09-.398 2.788-2.193 2.788-3.389-.1-3.389-3.784-5.88-7.268-10.267M48.026 170.262c-7.367-10.466-15.232-16.547-15.331-24.72 0-2.692 1.393-7.178 5.873-7.975 2.887-.598 6.87 1.794 6.97 6.579 0 .997.995.897.995-.399-.1-3.788-1.295-8.174-3.385-11.762h9.657c-1.992 3.588-3.186 7.974-3.385 11.762 0 1.296.995 1.296.995.399.1-4.785 4.082-7.177 6.969-6.579 4.48.897 5.874 5.383 5.874 7.974 0 8.174-7.865 14.155-15.232 24.721M164.504 209.237c-3.385-4.386-7.068-6.878-7.168-10.267 0-1.096.697-2.99 2.787-3.39 1.394-.198 3.186.798 3.286 2.792 0 .399.498.399.498-.2-.1-1.594-.598-3.389-1.593-4.884h4.48c-.896 1.495-1.494 3.29-1.593 4.885 0 .498.497.598.497.199 0-1.994 1.892-2.99 3.286-2.791 2.09.399 2.787 2.193 2.787 3.389-.199 3.39-3.882 5.881-7.267 10.267M130.556 26.424c-7.367 10.466-15.232 16.547-15.331 24.72 0 2.692 1.393 7.177 5.873 7.975 2.887.598 6.87-1.794 6.97-6.58 0-.996.995-.896.995.4-.1 3.787-1.294 8.173-3.385 11.762h9.657c-1.991-3.589-3.186-7.975-3.385-11.762 0-1.296.995-1.296.995-.4.1 4.786 4.082 7.178 6.97 6.58 4.479-.897 5.873-5.383 5.873-7.975-.1-8.173-7.965-14.154-15.232-24.72M48.026 79.254c-7.367 10.467-15.232 16.547-15.331 24.72 0 2.692 1.393 7.178 5.873 7.975 2.887.598 6.87-1.794 6.97-6.579 0-.996.995-.897.995.4-.1 3.787-1.295 8.173-3.385 11.761h9.657c-1.992-3.588-3.186-7.974-3.385-11.762 0-1.296.995-1.296.995-.399.1 4.785 4.082 7.177 6.969 6.58 4.48-.898 5.874-5.383 5.874-7.975 0-8.274-7.865-14.254-15.232-24.72M89.241 60.514C81.874 70.981 74.01 77.061 73.91 85.235c0 2.691 1.394 7.177 5.874 7.974 2.887.598 6.869-1.794 6.968-6.579 0-.996.996-.897.996.4-.1 3.787-1.294 8.173-3.385 11.761h9.657c-1.991-3.588-3.186-7.974-3.385-11.762 0-1.296.995-1.296.995-.399.1 4.785 4.082 7.177 6.97 6.58 4.48-.898 5.873-5.383 5.873-7.975 0-8.273-7.865-14.254-15.232-24.72M130.556 79.254c-7.367 10.467-15.232 16.547-15.331 24.72 0 2.692 1.393 7.178 5.873 7.975 2.887.598 6.87-1.794 6.97-6.579 0-.996.995-.897.995.4-.1 3.787-1.294 8.173-3.385 11.761h9.657c-1.991-3.588-3.186-7.974-3.385-11.762 0-1.296.995-1.296.995-.399.1 4.785 4.082 7.177 6.97 6.58 4.479-.898 5.873-5.383 5.873-7.975-.1-8.274-7.965-14.254-15.232-24.72M48.026 222.993c-7.367-10.466-15.232-16.547-15.331-24.72 0-2.692 1.393-7.178 5.873-7.975 2.887-.598 6.87 1.794 6.97 6.579 0 .997.995.897.995-.399-.1-3.788-1.295-8.174-3.385-11.762h9.657c-1.992 3.588-3.186 7.974-3.385 11.762 0 1.296.995 1.296.995.399.1-4.785 4.082-7.177 6.969-6.58 4.48.898 5.874 5.384 5.874 7.975 0 8.174-7.865 14.255-15.232 24.72M130.556 222.993c-7.367-10.466-15.232-16.547-15.331-24.72 0-2.692 1.393-7.178 5.873-7.975 2.887-.598 6.87 1.794 6.97 6.579 0 .997.995.897.995-.399-.1-3.788-1.294-8.174-3.385-11.762h9.657c-1.991 3.588-3.186 7.974-3.385 11.762 0 1.296.995 1.296.995.399.1-4.785 4.082-7.177 6.97-6.58 4.479.898 5.873 5.384 5.873 7.975-.1 8.174-7.965 14.255-15.232 24.72M89.241 189.002c-7.367-10.466-15.232-16.547-15.331-24.72 0-2.692 1.394-7.178 5.874-7.975 2.887-.598 6.869 1.794 6.968 6.579 0 .997.996.897.996-.399-.1-3.788-1.294-8.174-3.385-11.762h9.657c-1.991 3.588-3.186 7.974-3.385 11.762 0 1.296.995 1.296.995.399.1-4.785 4.082-7.177 6.97-6.58 4.48.898 5.873 5.384 5.873 7.975 0 8.174-7.865 14.155-15.232 24.721M130.556 170.262c-7.367-10.466-15.232-16.547-15.331-24.72 0-2.692 1.393-7.178 5.873-7.975 2.887-.598 6.87 1.794 6.97 6.579 0 .997.995.897.995-.399-.1-3.788-1.294-8.174-3.385-11.762h9.657c-1.991 3.588-3.186 7.974-3.385 11.762 0 1.296.995 1.296.995.399.1-4.785 4.082-7.177 6.97-6.579 4.479.897 5.873 5.383 5.873 7.974-.1 8.174-7.965 14.155-15.232 24.721M6.114 37.787V11.472h2.588v26.315zM16.268 11.472c-2.489 0-4.38 2.292-4.38 4.984v16.248c0 2.79 1.991 4.984 4.38 4.984h1.394c2.489 0 4.38-2.193 4.38-4.984V16.456c0-2.791-1.99-4.984-4.38-4.984zm.697 2.492c1.493 0 2.589 1.096 2.589 2.492v16.447c0 1.395-1.195 2.492-2.589 2.492-1.493 0-2.588-1.097-2.588-2.492V16.456c0-1.396 1.194-2.492 2.588-2.492M172.407 211.73v26.315h-2.588v-26.316zM162.352 238.045c2.489 0 4.38-2.293 4.38-4.984v-16.248c0-2.791-1.99-4.984-4.38-4.984h-1.394c-2.489 0-4.38 2.193-4.38 4.984v16.248c0 2.79 1.991 4.984 4.38 4.984zm-.697-2.492c-1.493 0-2.588-1.097-2.588-2.492v-16.448c0-1.395 1.194-2.492 2.588-2.492 1.494 0 2.589 1.097 2.589 2.492v16.448c0 1.395-1.195 2.492-2.589 2.492"/>
</svg>
