<svg xmlns="http://www.w3.org/2000/svg" xml:space="preserve" width="178.6" height="249.4" viewBox="0 0 178.6 249.4">
    <path fill="#fbfbf6" stroke="#7f7f7f" stroke-width=".4" d="M2668.7-825.7h161.5c4.7 0 8.5 3.8 8.5 8.5v232.4c0 4.7-3.8 8.5-8.5 8.5h-161.5c-4.7 0-8.5-3.8-8.5-8.5v-232.4c-.1-4.6 3.8-8.5 8.5-8.5z" transform="matrix(.99554 0 0 .9968 -2647.876 823.417)"/>
    <path d="M164.518 209.188c3.087-.1 4.58-3.788 2.19-6.58-.298-.398-.398-.697.2-.298 1.593 1.096 4.58.399 4.679-2.99.199-4.087-5.277-5.284-6.372-.898-.1.499-.398.499-.298-.2.1-1.793.597-3.388 1.393-5.083h-3.683c.697 1.595 1.294 3.29 1.394 5.084.1.698-.299.698-.299.2-.995-4.387-6.471-3.19-6.371.896.199 3.29 3.185 3.988 4.679 2.99.597-.398.597-.199.199.3-2.29 2.89-.896 6.48 2.29 6.579M14.093 40.23c-3.086.1-4.58 3.788-2.19 6.579.298.399.398.698-.2.299-1.592-1.097-4.579-.399-4.679 2.99-.199 4.087 5.277 5.283 6.372.897.1-.498.398-.398.299.2-.1 1.794-.598 3.389-1.394 5.083h3.683c-.697-1.594-1.294-3.289-1.394-5.083-.1-.698.3-.698.3-.2.995 4.386 6.47 3.19 6.37-.897-.199-3.29-3.185-3.987-4.678-2.99-.598.399-.598.2-.2-.3 2.29-2.79.896-6.478-2.29-6.578M13.993 11.422v2.791h2.688s.1 2.692.1 8.274c0 5.482.1 8.174-.2 9.768-.895 3.589-6.172 3.589-7.167.997-.598-1.495-.399-2.691-.498-4.186H6.029v1.694c0 3.987 1.394 5.981 4.48 6.779 3.186.897 6.969-.499 8.263-3.19.796-1.595.697-1.695.697-11.164 0-6.28.1-8.972.1-8.972h2.488v-2.79zM164.518 237.995v-2.79h-2.687s-.1-2.692-.1-8.274c0-5.483-.1-8.174.2-9.769.895-3.588 6.171-3.588 7.167-.997.597 1.496.398 2.692.498 4.187h2.887v-1.695c0-3.987-1.394-5.98-4.48-6.778-3.186-.897-6.969.498-8.263 3.19-.797 1.595-.697 1.694-.697 11.164 0 6.28-.1 8.971-.1 8.971h-2.488v2.791z"/>
    <path fill="#e2cf00" d="M129.107 24.27c.679-.977 3.625 5.833 5.523 10.999.925 2.543 2.175 4.622 1.65 5.289-1.342 1.365-4.828.14-7.373-1.815-2.715-2.094-4.628-5.165-4.628-5.165zm23.756 5.058.108 4.002c-2.33 2.11-5.23 4.7-8.623 8.64l9.055.046c-.077 49.234.077 147.904.077 147.904s-10.058-10.237-9.826-10.268c.015 0-.293-59.612-.324-99.71-.077-.186 5.26-.201 5.6-2.823.23-1.737-5.6-1.489-5.693-1.613.016-18.025-.046-30.744-.046-30.744l-5.353-.17zM121.425 47.88c.771 1.55 2.02 7.538 2.962 7.399 4.35-1.443 5.754 4.994 1.25 5.336-1.713.124-3.61-2.11-4.675-4.887-.524-1.458.016-8.422.463-7.848m-.987 8.965c1.28 2.11 2.514 9.804 4.859 9.354 2.129-.481 3.502 1.396 3.301 3.04-1.095 4.623-8.916.233-10.968-.837 1.003-2.312 2.438-8.098 2.808-11.557m16.52 21.701c-1.788 4.064-1.31 7.415.217 11.494-4.643 2.001-9.225 4.39-13.806 6.795-.031-.016-.232-16.04 1.295-23.361.525-1.117 2.407-.217 3.487.326 2.93 1.38 6.093 2.947 8.808 4.746M54.493 152.18c.94 7.57.262 19.359-1.08 24.028-.509 1.582-11.292-5.538-12.063-6.034 2.129-3.94-.771-13.123-.463-11.479.74-.512 13.344-7.29 13.606-6.515m4.612 31.427c-.2.48-1.002 6.158-1.25 6.174-.817.077-2.02-5.554-4.102-7.415-3.934.45-4.397-2.218-3.626-3.521-.185-.574 1.265-1.8 2.638-1.69 3.394 1.364 7.96 2.528 6.34 6.452m45.137 9.68s-2.962 16.674-2.978 16.643c-7.312 1.055-14.346 2.28-20.855 1.536 1.28-17.327 3.3-32.31 8.854-34.917l-11.508-9.291s-12.772 7.988-12.047 7.88c.308-.093.57-6.795.755-17.653-.323-28.34-16.567-57.02-17.2-56.726-.339-.233 13.838-1.35 24.034 3.071l.463-37.523s-5.06-2.528-5.985-3.707c-1.867-6.53 3.162-8.19 6.185-6.561 1.404-4.964 3.548-17.218 3.626-17.218 6.818-1.133 13.852-2.001 20.825-1.614-1.173 5.77-1.913 10.16-2.283 15.962-.88 8.656-2.638 16.861-7.189 18.8.802-.326 11.338 8.92 11.338 8.92l12.804-7.912c-4.135 27.006 2.93 53.221 15.132 74.441-6.155.714-13.112.372-23.971-2.885 0 0 .617 37.6.617 37.383 12.032 4.762 5.476 14.023-.617 11.37M57.5 196.651c-.046.388-.216 4.623-.216 4.623-1.697-2.001-3.07-7.88-3.41-7.787 0 0-2.19.341-2.868-.388-2.222-2.373-.031-5.165 2.175-4.638 2.19.59 4.612 4.374 4.319 8.19M34.901 69.192s.478 66.67.463 100.082c-8.407-.124-6.757 4.56.108 4.064l.03 30.807 4.551.155s-8.561 8.98-14.006 14.72l-.124-2.916 8.268-8.95-8.561.015-.03-147.842zm14.3 154.854c-2.067.45-4.242-9.152-7.837-14.969 4.088-2.466 10.536 2.218 11.986 5.972-.956 3.18-4.21 8.966-4.15 8.997"/>
    <path fill="#131f67" d="M154.606 229.987V19.462H23.995v210.525zm-43.3-44.332c-.17-.342-.463-.823-.463-.823s.308-.077.54-.232c15.133-5.631 31.33-18.164 31.607-18.537v13.883l10.012 10.61v37.6H113.62l-11.54-19.405c.695-5.087 2.484-14.922 2.484-14.922 1.065.264 4.628.59 6.572-2.187.925-1.334 1.42-3.133.17-5.987m-73.798-43.31-1.496 1.909 2.638-.124-1.805 1.97 2.915.062-2.267 1.939 3.07.03-2.284 1.909 3.363-.155-2.406 2.078 3.316-.015-2.483 2.094 3.255.046-2.114 1.877 2.839.031-3.209 2.265c-1.373-.605-3.209-.946-5.06-.977l-.046-15.233zm-2.298 26.433c-7.497-.031-9.102 4.002-.047 4.638-.17 10.129.401 30.403.401 30.403l4.937.124s-13.236 14.364-14.47 15.527c-1.126-48.257-1.08-160.313-1.08-160.313l10.104 10.175.108 31.675c3.379 3.444 5.322 8.47 7.328 11.727l5.522 2.699-1.296 4.467.556 1.272L49 114.86l-6.047-2.885-.648-1.303 1.019-5.957-5.723-1.97-.988-1.365.355-5.816-1.203-.357v-1.148l1.188.093.416-6.53-1.62-.481v-1.474c0 .031.941 0 1.404.031.633.341 1.697 1.722 1.697 1.722l-.57 7.244 7.25 1.458.54.76-1.327 7.244 7.62 2.342c-.787-1.939-1.82-3.738-2.684-5.646 1.049-.31 2.144-.372 3.193-.605.293-9.788-.046-19.964.262-29.177 6.125-.45 3.255.14 5.924.108a1.89 1.89 0 0 0 1.882-1.908 1.9 1.9 0 0 0-.864-1.598l1.05-.372 1.85 2.094-3.856 3.723.015 1.07 4.798-4.824-2.067-2.404 1.234-.636 1.897 2.001s4.072-4.188 3.826-4.266c-.124-.03-.355-.248-.51-.465-2.9-6.298 1.065-9.307 5.847-7.57 1.219-5.801 2.376-11.029 3.332-17.032 3.579-1.365 20.393-2.14 20.578-1.83 0 0 .432.403.448.605-.078.264.478-.559.478-.559 0-.356 14.654.373 21.89 1.753 0 0 .153.698.092 1.614-.124 1.845.03 1.83-1.65 1.566-3.41-.232-6.063.946-7.112 3.956-.586 1.69-.309 3.21.586 7.725.88 4.39.88 3.924.787 4.513-.124.698-.864 1.474-1.944 2.343-.818.667-.895 1.908-.247 1.225.448-.651 1.234-.9 1.944-1.256 1.666-.869 1.604-1.722.632-5.32-.462-1.692-.94-3.522-.956-3.724-.046-.667.185-.387 1.172.295.633.465 1.358.853 2.006 1.241 1.99 1.07 1.11-.109-.803-1.38-1.496-1.117-1.758-1.598-.462-1.07 1.342.542 3.255.31 4.75-.249.294-.17.51-.14.556.124.062.419-.185 1.49-.293 3.925-.278 6.189-1.728 12.797-5.83 16.613-5.863 5.46-15.504 1.752-20.857-3.304l-.586.884c3.594 3.025 9.811 6.81 15.873 6.08-2.53 2.125-8.13 5.647-8.13 5.647-3.84-2.793-6.663-5.585-10.874-8.61l-.725.481 11.57 9.23 12.463-8.268s-.524 7.927-.71 10.827l5.415-4.808-4.18-6.205 4.427-4.576s-.74.109.062-1.303c1.25-2.544 1.99-6.623 2.576-10.78-.108-3.103.648-6.531.88-9.277.416 2.56.894 3.91 1.835 6.236.864 2.234 1.203 2.218 2.175 1.893 5.29-.45 2.9 9.819-3.363 3.102-.278-.28-.725-.636-.756-.574-.123.419 1.666 5.817 2.36 7.058.725 1.318.74 1.504 1.82 1.396 2.037-.217 2.73.512 2.931 2.668-.277 4.064-4.643 2.342-7.45 1.101-.247-.201 1.31 1.443 1.882 2.017.771.775.894 1.287.894 1.287l-.17 2.156-4.288 3.94 3.533 5.243-.139 1.877-3.764 4.545 4.026 4.39.046 1.567-3.27 4.374 4.381 3.521.216 1.412s-2.807 5.227-2.73 5.413c.061.155 4.735 3.413 4.735 3.413l.479 2.202-2.037 5.585 4.86 2.792.894 2.513-1.373 5.165 5.045 2.342 1.434 2.917-.94 5.429 5.66 1.69 1.497 2.39-.2 4.777 1.388.14-.016 1.178-1.542-.015s.123.17-.047 2.544c-.293 4.017-.323 3.862.633 4.033 2.005.357 1.543 1.598-.51 1.365a8 8 0 0 1-.801-.109c-.54-.108-.957-.806-.957-.806l.448-7.415-7.235-1.21-.679-.93 1.203-6.872-6.787-1.97-.91-1.66 1.928-7.15-6.849-3.026-.447-1.318 2.9-6.344-6.294-3.072-.401-1.52 3.486-6.53-7.25-5.305s.2.512.478 1.38l5.739 4.126-2.916 5.585s-.231-.404-.478-.326c.139.93.262 1.861.324 2.776l2.962 7.772-9.595 6.484c4.103 2.481 9.302 2.404 14.053 3.335 0 0 .216.667.57 1.272 1.389 2.233 2.638 5.072 4.18 8.004-1.14.543-1.634.465-2.853.713-1.697 9.555-3.363 20.553-6.062 28.867a2.14 2.14 0 0 0-2.13 2.141c0 .652.294 1.226.741 1.613-.262.078-.54.155-.833.217-.385 0-1.959-1.737-1.959-1.737l4.042-4.017.015-1.319a1876 1876 0 0 1-5.152 5.336l2.129 2.25-1.05.496-1.727-1.908-3.887 4.017-1.003-.682c1.311-1.722 2.16-2.296 4.119-4.328-1.018-1.21-4.983-5.057-4.983-5.057l.016 1.319 3.902 3.816-3.794 3.815-.216.249s-3.008-1.303-3.209-1.303c1.28 1.054 3.579 1.97 4.828 2.885 5.662 3.366.278 10.315-4.936 8.593-.154-.558-2.885 14.659-2.576 15.512-.278 2.358-.34 2.032.478 3.382 2.438 5.646 9.533 16.302 9.533 16.302l-63.894.42c.664-1.304 1.342-2.359 1.836-3.894 0 0-3.594-3.754-4.905-8.702-.726-2.761-1.79-5.336-3.626-7.182-.03-.062.062-.155.186-.233 5.044-1.784 10.813 2.544 12.572 7.492l2.9-4.746c-1.311-.155 19.298 2.357 24.342 1.721-.448-.093-.972-.465-.679-1.892.51-2.45 1.435-11.339 1.435-11.339 1.018-8.64 1.805-19.514 7.466-23.097 0 0-.864-.93-1.62-1.411-.015.015.663.713.694.79 0 .249-.139.42-.308.544-1.203.977-2.669 3.009-2.607 3.055-4.69-4.095-12.002-7.6-16.429-6.142-1.743.372-2.514 2.063-3.44.682 1.203-7.43 1.11-15.62.648-22.042-.725-14.317-3.872-22.523-6.988-32.668 1.604-.574 9.826-6.111 9.826-6.111.047-.714-9.918-3.01-13.837-2.606 0 0-.802-.791-.802-.62.016.046.047.092.077.154a1.89 1.89 0 0 0-.971 1.66c0 1.055.848 1.908 1.882 1.908.2 0 .385-.03.57-.093.494 1.21.91 2.265.91 2.265l-5.537-2.42 1.804-6.096-.601-1.35-2.206 7.942 7.065 3.04.478 1.412-2.93 6.019 6.324 3.77.262 1.193-3.394 6.469 6.124 4.73-4.473 5.818 5.507 4.653-.062.776-4.566 5.29 4.72 4.87.14 1.97-5.137 4.592 4.442 6.483c-1.85 1.257-2.884 2.684-4.103 4.096l-1.08-.481 3.95-3.01-4.212-6.127-4.443 4.033 2.407 3.956-1.466-.667-1.342-2.11.216-2.171 4.396-4.018-3.779-5.507-.03-1.008s2.344-2.714 4.056-4.73l-4.782-5.306 3.918-5.026-4.92-4.219.138 1.272 3.64 3.087-2.791 3.397c-.2 2.047.247 5.553-.802 7.104 1.681 1.66.802 5.647-.031 6.934 1.604 1.908.694 6.112-.34 6.282 1.22 1.551.74 4.67-.293 5.693-.324.17 4.381 1.877 7.343 3.925-2.468 4.622-1.897 8.965-2.669 10.532-1.064-3.102-2.437-6.39-3.61-8.764-.123-.248-.385-.186-.786-.202-4.905-.434-4.443-4.514-.756-5.553 0 0-7.481-5.6-11.276-6.22-.046-.093-.016-.233.108-.497.54-1.116.848-3.055.925-4.762.278-2.528-.94-6.421-.94-6.421l1.557-.962c.309-1.334 2.052-1.365 2.222-2.327-.37-4.095-8.315-19.777-9.996-21.546-.571 11.2.648 23.345.03 34.514m1.82-28.526-1.296 1.07.03-1.69zm-1.265-2.606.648.48-.648.73zm79.968-19.964a50 50 0 0 0-.417-2.28 2.148 2.148 0 0 0-.54-4.22c-.17 0-.323.032-.493.063a79 79 0 0 0-.91-2.947l-.432-.31c1.172 4.079-1.095 6.266 2.237 9.663.061.17.308.124.555.031M46.84 228.296l-20.794-.14v-7.709l16.027-17.125-6.186-.077.062-29.38c1.697-.713 3.301-1.799 4.875-2.869l9.749 5.414.71.356s-.263.078-.85.45c-1.094.73-1.526 2.513-1.017 3.863.817 2.187 2.514 1.799 3.918 1.799 1.172.915 2.175 3.955 2.993 5.972.385.884.74 1.551.833 2.063.092.465.092.884.092.884s-.185-.062-.463-.636c-1.558-3.288-5.183-4.87-7.11-1.768-.973 1.908-.31 4.08 1.341 4.7.51.186 2.206-.016 2.206-.016.093-.062 1.234 1.614 2.838 7.12.664 2.265.833 7.198.2 7.911-1.063 1.303-1.341 3.118-2.236 4.437-.416.822-.385.31-1.033-.605-2.19-3.134-6.032-5.554-9.549-5.398-2.499.108-3.27.961-2.684 1.69 1.373 1.412 2.267 3.382 2.715 5.12 1.049 4.032 2.16 7.631 4.967 10.764zm10.551-19.141c-.262-.248-.062-.636-.015-1.334.123-1.769.154-1.784 1.172-1.35 1.944.853 4.674.109 6.325-1.69 2.082-2.265 2.144-4.607.848-9.23-1.48-5.196-1.45-5.879.34-6.934 1.064-.915 2.174-2.838 1.758-2.838-.062 0-.2.124-.324.248-.123.14-1.095.93-1.851 1.458-2.067 1.427-2.715 2.156-1.759 4.778.941 2.59 1.697 5.134 1.296 5.289-.185.078-.895-.776-1.342-1.024-.91-.527-2.807-1.489-3.054-1.489-.324 0 .015.233.956.853 2.484 1.645 3.517 3.134 1.11 2.187-1.28-.496-2.652-.217-3.424.047-.894.295-1.357.59-1.45.248-.123-1.598 0-3.242.093-4.855.03-.109.154-1.194.277-2.42.463-4.669 1.25-8.609 3.286-11.153 6.834-8.485 14.609-6.018 23.34.776-3.255 9.074-3.04 16.148-3.841 19.033-.756.232-1.636-.217-2.191-.528-1.219-.698-2.607-1.117-3.934-1.179-1.234-.062-1.45.109-1.342-.263.093-.28 2.083-.869 3.302-1.133 2.22-.465 2.051-.977.185-.806-1.975.186-3.872.961-5.878 2.311-1.403.93-1.45.93-1.08 2.11.093.279.278.698-.385.946-.694.248-.586.543-.2.853.092.078.339.093.447.17.123.094-.016.543-.016.606 2.546 2.156 7.02 2.218 10.706 0 .185.062.37.356.2.76-.385.853-4.35 1.877-7.157 1.923-1.28.016-1.527-.14-3.471-.745-.802-.248-1.234-.31-1.311-.186-.17.28.123 1.102.725 1.536 2.067 1.49 5.075 1.365 9.178-.264 2.19-.868 1.975-1.179 1.25 3.18-.2 1.21-.417 2.125-.417 2.125s-19.19-.698-22.352-2.016m2.962-4.095c-1.018 0-1.944-.264-2.484-.791-.786-.885.047-1.148 1.296-.683 1.604.62 3.44.264 4.86-.62.91-.574 1.11-.264.339.558-.941.993-2.53 1.551-4.011 1.536m14.593-1.505c-1.774.016-3.394-.31-4.057-1.055-.602-.682-.016-.76 1.496-.155 2.144.838 4.983.574 7.343-.605 1.203-.605 1.573-.729 1.419-.046-.71 1.117-3.625 1.846-6.201 1.861m-14.161-.558c-1.682 0-3.116-.388-2.854-1.288.092-.31.185-.124 1.388.248 1.203.373 2.746.233 4.289-.217 1.45-.419 1.712-.512 1.08.109-.787.76-2.407 1.148-3.903 1.148m-3.44-.853c-1.713-2.653-2.006-6.53-3.826-8.625-3.363.636-4.952-2.544-2.129-4.669 1.435-.807 3.194-.202 4.474 1.923 1.234 2.017 1.573 3.242 1.604 4.53-.092 2.699.062 4.141-.123 6.84m19.683-1.21-.74-.093c-.54-1.846-1.759-1.955-2.484-.032l-.555-.093c.848-2.357 2.993-2.45 3.78.218m1.157-.047c-.308.016-.57-.31-.71-.745-.293-.977.047-.853.71-.45.679.42 1.203.699.818.87-.293.17-.525.279-.818.325m-6.402-.62c-.262-.326-.308-.574.016-.792.324-.17.555-.279.88-.387.292-.093.477-.016.354.419-.077.372-.309.9-.478 1.116-.293.031-.602-.17-.772-.356m-9.024.217-.586-.047c-.617-1.69-2.067-1.629-2.622-.17h-.525c.987-2.59 3.008-2.126 3.733.217m1.065-.217c-.571 0-1.111-.823-.803-1.241.309-.264 1.713.03 1.836.558.046.31-.463.683-1.033.683m-5.461-.156c-.278-.062-.262-.279-.262-.31-.14-.698.678-.93.863-.667.093.155-.339.698-.601.977m12.988-7.383c1.389-.388 2.021-1.582 1.944-2.932-.077-1.086-.632-1.97-1.45-2.156-1.65-.372-2.792.776-4.473 1.257-.725.186-.556 1.132-.093 1.55.602.528 1.512.202 2.746-.744 2.422-1.861 2.992 1.722.802 2.342-.34.109-.185.9.524.683m71.469-82.367-.941-.28.94-1.116zm-2.607-3.832 1.928-2.187-2.622.202 1.789-1.862-2.73-.108 2.005-2.094-2.684.062 1.99-2.017-2.545-.077 1.681-1.846-2.792.217 2.036-2.218-2.992.046 2.267-2.063-2.977.016.895-1.024-.803-.403c-.817.372-5.491 1.846-5.645 2.947 1.033.28 4.072-1.272 4.273-1.024 1.218 5.414 6.478 17.373 9.95 20.863l.246-33.815c.525-.496 1.373-.248 1.913-.465 1.758.093 4.705-2.87 3.162-3.444-.802-.186-5.245-.946-5.26-1.163-.54-9.804.34-19.654-.062-30.124-1.25-.186-5.306-.419-5.306-.419s14.917-15.651 15.21-15.326c-.355 16.769-.17 49.56.123 49.684 0 .978-.34 3.056-.34 3.056l.325 104.301s.092.465.262.76c.308.512.324.636.355 2.203.123.961-.016 1.225-.016 1.225l-10.196-10.843-.016-30.325s-9.656-14.333-11.878-20.956c-4.874-9.85-4.35-24.23-7.296-29.72-.062 0-.123 0-.185.015-.077-.807-.077-1.117-.2-1.257a283 283 0 0 1-.463-4.234l1.064-1.707-1.188-1.535-.015-4.095 1.589-1.63-1.45-1.845.4-3.831 1.127-1.009-.648-.868s-.108-1.38.154-2.963c.17-1.07 1.219-.93 3.41.186 3.1 1.179 6.262 3.289 8.7 4.886-.14 1.986-2.592 6.53.817 11.541 1.265.946 4.92.605 5.245.745l-.031 15.418m0 1.753-1.65.295 1.665-1.675zm-78.626 76.97c.139-.016.309-.14.524-.389.232-.263.602-.186 1.528-.14.987.063 1.25.032 1.897-.2.74-.28.756-.28 1.28-.047.803.34 1.312.387 2.052.17.91-.263 1.496-.186 2.052.093.57.28.756.233.956-.294.077-.218.494-1.07.679-1.35.601-.93.463-1.086-.818-.698-.879.264-2.499.45-3.702-.062-.91-.388-2.005-.264-3.301.31-1.142.497-2.268.652-3.363-.264-.632-.542-.602-.124-.447.978.185 1.256.308 1.939.663 1.892m43.3-3.925a2.14 2.14 0 0 0 2.13-2.14c0-1.18-.957-2.142-2.13-2.142-.57.466-.848 4.189 0 4.282m-41.156-.016c1.296-.45 3.085-1.04 5.09-.45 1.574.481 1.204-.713-.508-.853-1.188-.108-1.111-.108-.185-.977.786-.73-.2-.683-.725-.217-.633.543-2.345.403-3.317-.047-.432-.201-.478.62.03.791 1.281.45.973.481-.416.931-.524.109-.555 1.008.031.822m41.157-.713c-.68-.249-.247-2.746 0-2.855.786 0 1.419.636 1.419 1.428a1.42 1.42 0 0 1-1.42 1.427m11.368-.078c-.54.186-.925-.729-.925-1.334a1.42 1.42 0 0 1 1.42-1.427c.956.946 1.125 1.985.03 2.575-.17.062-.355.124-.525.186m-5.615-2.11 4.551-4.622-4.473-4.56-4.474 4.653zm-53.944-1.83a1.18 1.18 0 0 1-1.172-1.194c0-.652.524-1.18 1.172-1.18s1.188.528 1.188 1.18c0 .667-.525 1.194-1.188 1.194m53.99-1.551a1.19 1.19 0 0 1-1.187-1.194c0-.652.524-1.18 1.188-1.18.648 0 1.172.528 1.172 1.18 0 .667-.524 1.194-1.172 1.194m-48.406-1.132-3.27-4.421 3.995-3.599-.2 2.234a1.91 1.91 0 0 0-1.558 1.877c0 .806.509 1.504 1.218 1.768zm54.33-.249.047-1.21-4.12-4.095 4.073-4.25-.03-1.179-5.06 5.43zm-11.63 0 5.028-5.18-4.844-5.321-.061 1.35 3.81 3.955-3.872 3.878zm-72.503-.837c-1.018 0-1.897-.341-2.175-1.008-.216-.373-.324-.699-.632-.854-.602-.279-1.404-.093-1.45.109-.077 0 .956.093 1.126.248.802.73.663 1.179-.478 1.086-.37-.016-1.389-.031-1.404-.434-.232-1.38 1.604-2.405 3.949-2.219 1.666.28 1.681-.372 1.805-1.272.077-.294.324-.775.54-1.147.586-1.07.786-.916.37-1.334-.401-.528-.926-1.18-.91-1.784l.015-5.615s3.517.015 4.736.9c1.28 2.341 2.144 7.398.262 10.175-.648.838-1.62 1.225-2.715 2.11-.848.713-2.02 1.039-3.039 1.039m19.838-.636.123-1.629a1.894 1.894 0 0 0 1.574-1.861c0-.838-.54-1.536-1.28-1.8l.108-1.411 2.606 3.754zm10.212-1.086a1.25 1.25 0 0 1-.648-1.101c0-.559.355-1.04.849-1.21zm54.315-.59c1.804-.946 1.187-4.59 0-4.28a2.14 2.14 0 0 0-2.13 2.14 2.13 2.13 0 0 0 2.13 2.14m-11.77-.062a2.14 2.14 0 0 0 2.128-2.14c0-1.179-.956-2.14-2.128-2.14-1.558.496-.68 4.203 0 4.28m-52.572-.542.185-2.343c.417.202.694.636.694 1.133 0 .574-.37 1.054-.879 1.21m64.342-.125c-.787 0-1.42-.636-1.42-1.427s.633-1.427 1.42-1.427c.462-.077.756 2.606 0 2.854m-11.77-.046c-.957-.078-.155-2.497 0-2.854.786 0 1.419.636 1.419 1.427s-.633 1.427-1.42 1.427m-47.774-1.35 4.705-4.715-4.644-5.15-3.872 4.731zm53.466-.9 4.504-4.668-4.257-4.437-4.505 4.778zm29.648-2.559-1.681-1.753 1.681-.015zm-82.744-.17a1.2 1.2 0 0 1-1.188-1.195c0-.651.525-1.194 1.188-1.194.648 0 1.172.527 1.172 1.194 0 .652-.524 1.195-1.172 1.195m53.111-.652a1.19 1.19 0 0 1-1.188-1.194c0-.652.54-1.195 1.188-1.195s1.173.543 1.173 1.195a1.17 1.17 0 0 1-1.173 1.194m-5.83-1.38 4.982-5.181-4.813-5.15-.062 1.225 3.857 3.91-3.903 4.032zm11.723-.016-.046-1.303-3.996-3.986 4.212-4.25-.17-1.148-5.168 5.382zm-53.79-1.411-3.61-3.6 3.594-4.032v2.094c-.74.264-1.28.962-1.28 1.8s.54 1.535 1.28 1.783zm-9.935-.187-.046-1.473a1.89 1.89 0 0 0 1.42-1.83c0-.916-.648-1.676-1.512-1.862l-.031-1.163 2.854 3.164zm83.362-.667s-1.203-1.287-1.604-1.814c.324-.373.509-.854.509-1.397 0-1.178-.956-2.14-2.129-2.14a2.1 2.1 0 0 0-.94.217c-.217-.326-1.173-1.66-1.173-1.66l5.661.915zm-31.33-.853a2.14 2.14 0 0 0 2.129-2.14c0-1.18-.957-2.141-2.129-2.141-2.144.434-1.712 4.173 0 4.281m11.878-.077c3.039-.342 2.252-4.22 0-4.282a2.14 2.14 0 0 0-2.129 2.141 2.13 2.13 0 0 0 2.13 2.14m-63.971-.543-.062-2.373c.494.17.864.635.864 1.21 0 .527-.324.977-.802 1.163m52.093-.093c-1.373-.512-.956-2.947 0-2.854.787 0 1.42.636 1.42 1.427s-.633 1.427-1.42 1.427m11.878-.093c-.787 0-1.42-.636-1.42-1.427s.633-1.427 1.42-1.427c2.005.248 1.496 2.807 0 2.854m-53.975-.14a1.25 1.25 0 0 1-.648-1.101c0-.481.262-.884.648-1.102zm71.36-.605-1.666-2.14a1.3 1.3 0 0 1 .494-.094c.786 0 1.419.636 1.419 1.427.015.31-.077.574-.247.807m-76.728-.977 3.887-4.716-4.782-4.265-3.394 4.234zm53.219-.559 4.782-4.87-3.378-3.521 1.866.201 2.7 2.761.062-.915-1.466-1.69 1.574.046c.57-.884-2.962-.915-4.968-1.257-2.53-.434-8.067-2.466-6.849-.977l1.389.357-1.312 1.582.016 1.21 2.283-2.45.771.17-3.224 3.335.216 1.024 3.965-4.08 1.156.264-4.026 4.126zm-53.42-2.807a1.175 1.175 0 0 1-1.172-1.18c0-.65.524-1.178 1.172-1.178s1.188.527 1.188 1.179c0 .651-.54 1.179-1.188 1.179m53.59-.62a1.175 1.175 0 0 1-1.173-1.18c0-.651.525-1.178 1.173-1.178s1.172.527 1.172 1.178c0 .652-.524 1.18-1.172 1.18m26.764-.342s.308-3.909.478-5.786l-6.17-1.66-.772 6.236zm2.684-.295-.864-.03.139-3.63.833.9zm-11.415-1.566s-.617-1.009-1.327-2.11c.386-.388.617-.915.617-1.505 0-1.178-.956-2.14-2.129-2.14-.216 0-.416.03-.617.093-.277-.527-.802-1.365-.802-1.365l5.291 1.551zm-66.24-.404-4.149-3.397 3.224-3.986.216 1.706a1.9 1.9 0 0 0 .463 3.676zm71.84-.062c-.649 0-1.189-.527-1.189-1.179s.525-1.194 1.188-1.194c.648 0 1.188.527 1.188 1.194s-.524 1.18-1.188 1.18m-83.008-.372a1.901 1.901 0 0 0 0-3.8c-.416-.31-.54 3.257 0 3.8m0-.636c-.108-.574-.247-2.668 0-2.528.694 0 1.265.574 1.265 1.272a1.27 1.27 0 0 1-1.265 1.256m75.68-1.272a53 53 0 0 1-1.373-2.28c.093-.016.17-.031.262-.031.787 0 1.42.636 1.42 1.427a1.53 1.53 0 0 1-.31.884m-64.85-.326a1.26 1.26 0 0 1-.31-2.357zm-5.631-1.101 3.517-4.731-5.322-4.173-3.008 5.181zm80.122-1.939-3.964-1.163.74-4.08c.062.233.278.667.586 1.179-.17.31-.262.667-.262 1.04 0 1.178.956 2.14 2.129 2.14.061 0 .108 0 .17-.016.339.528.601.9.601.9m-5.893-.993 1.296-6.515-5.97-2.42-1.45 6.888zm-74.908-.046a1.19 1.19 0 0 1-1.188-1.18c0-.65.525-1.178 1.188-1.178.648 0 1.188.527 1.188 1.179 0 .651-.525 1.179-1.188 1.179m79.69-.605a1.43 1.43 0 0 1-1.08-1.38c0-.094.016-.171.031-.264.324.558.695 1.132 1.05 1.644m-84.75-.17 3.194-6.066-5.446-3.816.37 1.303 3.888 2.87-2.268 4.173zm77.33-2.203a1.18 1.18 0 0 1-1.172-1.195c0-.651.525-1.179 1.173-1.179.647 0 1.172.528 1.172 1.18 0 .666-.525 1.194-1.172 1.194m-5.645-.59-1.265-2.218a2.13 2.13 0 0 0 .864-1.722c0-1.179-.957-2.14-2.13-2.14-.169 0-.339.03-.508.062l-.926-1.955 5.538 2.435zm-72.919-.03c.494.108.972-.203 1.312-.528.354-.342.57-.838.57-1.365 0-1.055-.848-1.908-1.882-1.908-1.434.356-.663 3.645 0 3.8m11.462-.513-4.505-3.242 2.623-5.103s.262 1.024.601 2.42c-.647.31-1.08.961-1.08 1.722 0 1.054.849 1.907 1.883 1.907h.03c.186.807.34 1.614.448 2.296m-11.462-.124c-.786-.233-.524-2.45 0-2.528.68-.109 1.265.558 1.265 1.256-.015.714-.57 1.272-1.265 1.272m71.345-2.234-1.157-2.466c.062-.015.124-.015.2-.015.788 0 1.42.636 1.42 1.427 0 .418-.185.79-.463 1.054m-60.47-.605a1.273 1.273 0 0 1-1.14-1.256c0-.45.246-.853.6-1.086.186.745.355 1.551.54 2.342m-5.938-.636 3.085-6.127-5.692-3.49-2.623 5.926zm76.327-1.178-3.517-1.614.987-3.645.432.884c-.2.326-.34.714-.34 1.148 0 1.101.834 2.017 1.898 2.125zm-5.553-1.738 1.727-6.127-5.476-2.87-2.499 6.174zm4.612-.217a1.41 1.41 0 0 1-.74-1.551zm-76.404-.496a1.19 1.19 0 0 1-1.188-1.195c0-.651.524-1.179 1.188-1.179.647 0 1.187.528 1.187 1.18-.015.65-.54 1.194-1.187 1.194m-5.199-.342 2.607-6.421-6-3.335.447 1.163 4.442 2.575-1.897 4.638zm74.785-2.14a1.19 1.19 0 0 1-1.188-1.179c0-.652.525-1.179 1.188-1.179s1.172.527 1.172 1.179a1.156 1.156 0 0 1-1.172 1.179m-76.682-.946a1.885 1.885 0 0 0 1.882-1.893c0-1.055-.849-1.939-1.882-1.908-1.898.047-.926 3.816 0 3.8m70.82-.218a14 14 0 0 1-.88-2.032 2.138 2.138 0 0 0-1.064-3.909c-.046 0-.246-.03-.246-.03l-.34-1.288 4.705 2.482c-.648 1.784-1.219 3.01-2.175 4.777m-70.82-.418c-.556-.233-.695-2.451 0-2.529.694 0 1.25.574 1.25 1.272.015.683-.556 1.257-1.25 1.257m11.615-.745-4.627-2.668 2.329-5.041.694 2.311a1.91 1.91 0 0 0-.833 1.567c0 1.039.833 1.892 1.867 1.908zm58.079-1.582-.74-2.466c.755.03 1.203.651 1.203 1.411.015.419-.17.791-.463 1.055m-58.85-1.008a1.26 1.26 0 0 1-1.034-1.241c0-.357.155-.683.402-.915zm69.124-.155-3.58-2.11 1.62-4.204.479 1.52c-.324.373-.51.87-.51 1.396 0 .993.68 1.83 1.605 2.064zm-74.785-.094 2.175-5.847-6.279-3.32-1.573 5.988zm74.09-2.14a1.414 1.414 0 0 1-.509-1.66zm-4.705-.295 2.546-5.94-5.307-3.522-2.761 6.19zm-71.36-.962a1.19 1.19 0 0 1-1.188-1.178c0-.652.525-1.18 1.188-1.18.648 0 1.173.528 1.173 1.18s-.525 1.178-1.173 1.178m-6.216-2.606c.524-.34.848-1.008.848-1.675 0-1.055-.848-1.908-1.882-1.892a4 4 0 0 0-.632.062c-.556.729.215 3.536 1.666 3.505m76.003.171a1.19 1.19 0 0 1-1.188-1.179c0-.651.525-1.194 1.188-1.194.648 0 1.172.543 1.172 1.194 0 .652-.524 1.18-1.172 1.18m-77.33-3.056a.53.53 0 0 1 .278-.062c.694.031 1.25.574 1.25 1.257 0 .403-.186.76-.464.977-1.08.838-1.234-2.342-1.064-2.172m70.342-1.008c-.216-.977-.463-1.892-.694-2.761a1.42 1.42 0 0 1 1.712 1.396 1.396 1.396 0 0 1-1.018 1.365m-65.838-.714 1.635-6.577-6.293-2.295-1.204 6.22zm76.636-.077-3.332-2.311s1.08-2.622 1.99-4.018l.262 1.21a2.12 2.12 0 0 0-.91 1.753c0 1.055.74 1.923 1.728 2.11zm-70.542-.326c-.695 0-1.25-.558-1.25-1.256 0-.466.139-.652.494-.869.277.62.648 1.241 1.002 2.079-.108.03-.123.046-.246.046m70.11-1.737a1.44 1.44 0 0 1-.848-1.303c0-.372.139-.714.37-.962zm-5.013-.962 3.023-5.29-4.442-3.412-3.471 5.29zm-73.304-.17a1.2 1.2 0 0 1-1.188-1.195c0-.651.525-1.179 1.188-1.179s1.188.528 1.188 1.18c0 .666-.54 1.193-1.188 1.193m-5.43-1.645-.771-1.21a1.87 1.87 0 0 0 .385-1.148 1.9 1.9 0 0 0-2.314-1.86l-.617-.963 3.95 1.412zm77.824-1.411a1.175 1.175 0 0 1-1.173-1.18c0-.65.525-1.194 1.173-1.194s1.188.528 1.188 1.195c0 .651-.54 1.179-1.188 1.179m-78.981-.373-1.172-1.814h.03c1.111.015 1.574.915 1.142 1.814m73.32-.093 4.288-5.723-5.692-4.235.092 1.256 4.15 2.994-3.162 4.235zm-62.63-1.923-5.661-1.784 1.219-5.646 1.342 2.233c-.37.342-.587.838-.587 1.381 0 1.055.849 1.908 1.882 1.908q.324 0 .602-.093zm61.673-.993a2.139 2.139 0 0 0-.216-4.266c-.54-.062-.617.76 0 .714.787 0 1.42.636 1.42 1.427a1.41 1.41 0 0 1-1.327 1.412l.108.713zm-69.355-.605.987-6.53-6.417-1.38-.478 5.925zm80.184-.155-3.023-2.25 2.298-3.226.123.931a2.12 2.12 0 0 0-.91 1.753c0 .93.586 1.706 1.404 2.016zm-74.322-.822c-.694 0-1.25-.574-1.25-1.272 0-.31.108-.59.294-.822l1.218 2.047a.7.7 0 0 1-.262.047m20.239-.884c-.17-.031-.401-.078-.355-.17.046-.11 1.08-1.242 1.08-1.242l-.124-1.055-1.82 2.079-.725-.28 2.56-2.605.124-.977-3.409 3.366-1.45-.404 3.965-3.924-4.567-4.654-4.566 4.685 3.24 3.568-1.604-.156c-.68-.775-1.42-2.016-2.67-2.668l.124.931c.062-.046 1.512 1.365 1.28 1.598l-1.28-.093c-1.496.403 1.836.961 5.045 1.504 1.666.062 6.525 2.219 5.368.574-.077-.03-.155-.046-.216-.077m53.867.046a1.4 1.4 0 0 1-.57-1.148c0-.34.123-.651.308-.884zm-82.328-1.132a1.18 1.18 0 0 1-1.172-1.194c0-.652.524-1.18 1.172-1.18s1.188.528 1.188 1.18c0 .667-.525 1.194-1.188 1.194m77.608-.124 3.687-4.716-4.18-4.033-4.274 5.042zm-82.791-1.21-.293-.047v-3.21l.447.093zm28.785-1.49A1.18 1.18 0 0 1 63.7 96.71c0-.651.525-1.178 1.173-1.178s1.187.527 1.187 1.178c0 .667-.54 1.195-1.187 1.195m53.435-.34a1.18 1.18 0 0 1-1.172-1.195c0-.651.524-1.179 1.172-1.179s1.188.528 1.188 1.18c0 .666-.54 1.194-1.188 1.194m-5.692-.931 4.766-5.708-5.106-5.305.016 1.178 3.964 4.189-3.717 4.358zm-53.25-.512 4.905-4.98-4.89-5.087-.108 1.148 3.764 3.831-3.533 3.676zm10.767-.527-.016-1.35-3.07-3.149 3.148-3.226-.016-1.38-4.458 4.622zm-25.098-.59-5.77-1.101.355-5.491 1.389 1.69c-.232.31-.386.714-.386 1.133 0 1.055.848 1.892 1.882 1.892.293 0 .57-.077.833-.186zm77.793-.977-2.839-3.01 2.715-3.086.031 1.055a2.14 2.14 0 0 0-1.28 1.97c0 .915.57 1.69 1.373 2zm-10.552-.76c.941-.217 1.651-1.07 1.651-2.079s-.71-1.877-1.65-2.094v.745c.54.201.94.729.94 1.35 0 .62-.4 1.147-.94 1.333zm-41.82-.202c.88-.574.479-3.847 0-3.8a1.89 1.89 0 0 0-1.881 1.908 1.875 1.875 0 0 0 1.882 1.892m-11.183-.31a1.89 1.89 0 0 0 1.882-1.908 1.885 1.885 0 0 0-1.882-1.892c-.833.279-.494 3.614 0 3.8m-16.768-.248a1.26 1.26 0 0 1-1.265-1.257c0-.232.062-.45.17-.62l1.496 1.815a1.1 1.1 0 0 1-.401.062m27.952-.078c-.694 0-1.25-.574-1.25-1.272s.556-1.272 1.25-1.272c-.077.466.231 2.59 0 2.544m52.34-.295a1.43 1.43 0 0 1-.648-1.194c0-.48.231-.9.586-1.163zm-63.524-.015c-.154-.512-.355-2.622 0-2.528.694 0 1.265.573 1.265 1.256-.016.698-.57 1.272-1.265 1.272m5.708-1.846 4.597-4.607-4.705-4.824-4.443 4.762zm53.08-.248 4.119-4.468-3.965-5.18-4.658 4.653zm22.321-.155c-1.264 0-2.452-.217-2.93-1.07-1.944-2.607-1.389-7.974-.031-9.82 3.023-2.76 4.72-3.49 8.13-2.854-.386 1.552 1.249 2.39 1.48 2.032.03 0 .154-.279 0-.294-1.172-.14-1.08-1.551-.94-1.551 1.295.046 2.143.015 2.267.604.077.357-.124.916-.88 1.536-.894.714-4.967.698-4.967.698-.015 0 .016 1.164-.4 1.846-.356.59-.865 1.241-.51 1.52.586.28.987.946 1.065 1.706.154 1.614-.093 5.476-.031 5.523-.694.046-1.481.124-2.253.124m-75.386-2.994a1.19 1.19 0 0 1-1.188-1.179c0-.651.525-1.179 1.188-1.179.648 0 1.172.528 1.172 1.18 0 .65-.524 1.178-1.172 1.178m53.034-.45a1.19 1.19 0 0 1-1.187-1.194c0-.652.524-1.195 1.187-1.195s1.188.528 1.188 1.195c0 .651-.54 1.194-1.188 1.194M59.367 85.31l4.812-4.932-5.121-5.336.17 1.442 3.687 3.816-3.61 3.785zm10.86-.093.123-1.365-3.41-3.599 3.086-3.195.046-1.551-4.55 4.824zm52.663-1.861-2.714-3.832 3.239-2.854-.093 1.086a2.13 2.13 0 0 0-1.635 2.094c0 .9.556 1.66 1.327 1.986zm-10.18-.76c.061-.791.107-1.443.138-2.032a2.15 2.15 0 0 0 1.527-2.048c0-.868-.509-1.598-1.234-1.939.062-.62.14-1.287.247-2.156l3.255 4.778zm-76.883-.233-.108-13.418-9.688-10.082V21.09h39.753l10.243 17.342c.2.341.493.217.725.558l-3.04 16.303c-4.781-2.218-8.792 3.506-6.185 8.144-14.747 5.413-31.7 18.924-31.7 18.924m23.509-.077a1.901 1.901 0 0 0 0-3.8c-1.358.635-.664 3.784 0 3.8m11.014-.11c.524-.604.817-3.83 0-3.8-1.05.032-1.882.854-1.882 1.909a1.865 1.865 0 0 0 1.882 1.892m-11.014-.526c-.988-.73-.093-2.358 0-2.529.694 0 1.265.574 1.265 1.272a1.26 1.26 0 0 1-1.265 1.257m11.014-.109c-.694 0-1.25-.558-1.25-1.256 0-.699.556-1.257 1.25-1.257-.077.202.308 2.435 0 2.513m52.71-.496a1.42 1.42 0 0 1-.663-1.21c0-.59.355-1.102.864-1.319zm-10.15-1.272c.062-.916.108-1.66.154-2.42.355.263.602.682.602 1.163a1.42 1.42 0 0 1-.756 1.257m-47.867-.435 4.49-4.514-4.675-4.87-4.442 4.715zm53.359-1.179 4.704-3.784-3.023-4.654-1.049-.636-4.304 3.707zm18.85-.31-11.06-5.94s2.869-1.21 2.792-3.134c-.108-2.156-1.404-3.91-3.95-3.258-.585.078-.848-.155-1.418-1.489-1.08-2.528-2.145-5.32-1.728-5.227 1.357 1.086 1.157 1.148 2.746 1.861 2.977.822 4.797-1.954 3.856-4.219-.88-2.079-2.33-2.203-3.795-1.985-.216-.047-.4-.28-.54-.559-.462-.946-1.172-2.637-1.712-5.227-.848-4.002-1.033-8.997-.416-10.254l2.036-4.095c2.298 4.421 7.327 8.3 12.973 6.919.185-.125.231-.745-.03-1.117-1.836-2.42-2.145-4.638-2.793-7.012-1.681-6.096-5.06-9.57-5.013-8.95l1.774-3.226s15.348-.078 21.642 0v7.46l-16.46 16.955 6.526.28-.231 29.223c-2.391.497-5.199 2.994-5.199 2.994m-72.286-1.877a1.175 1.175 0 0 1-1.172-1.179c0-.651.524-1.194 1.172-1.194s1.188.527 1.188 1.194c0 .652-.54 1.18-1.188 1.18m53.93-1.194a1.19 1.19 0 0 1-1.189-1.179c0-.652.525-1.194 1.188-1.194.648 0 1.188.542 1.188 1.194s-.525 1.179-1.188 1.179M70.241 73.69l-.108-1.163-3.24-3.413 2.993-3.056c.432-.605 1.558-.465 1.913-.512-.247-.744-.91-.651-1.604-.946l-4.35 4.483zm-.046-2.652c.786-.249.647-3.615 0-3.8a1.89 1.89 0 0 0-1.882 1.907c0 1.04.833 1.893 1.882 1.893m-11.092-.528c-.077-.31-.2-2.497 0-2.528.694 0 1.25.574 1.25 1.272s-.556 1.256-1.25 1.256m11.092-.108c-.695 0-1.25-.559-1.25-1.257s.555-1.272 1.25-1.272c.17.295.447 2.482 0 2.529m38.904-.605c.185-.078.447-.031.648-.031.663 0 1.465.465 1.65.372.2-.093.139-.528.124-.73-.016-.185-.525-.232-.725-.371-.324-.218-.247-.295.138-.388.34-.078.602-.093.818-.404.139-.186.139-.511-.077-.511-1.311.015-2.977.558-4.535.03-.895-.325-1.481-.527-1.62-.403-.293.264.756 1.272 1.758 1.458 1.019.187 1.373.109 1.05.42-.17.154-.402.092-.417.2-.046.311.185.637.463.683.277.062.509-.248.725-.325m-5.63-3.165c.107 0 .261-.077.462-.248.602-.403 1.527-.93 3.795-.31 1.234.403 2.638.046 3.44-.17.632-.187 1.542-.358 2.252-.016.71.34 1.48.853 1.342.325-.03-.14-.077-.915-.093-1.38-.015-1.101-.092-2.001-.879-1.148-.34.372-.756.372-1.527.062-.555-.217-.926-.357-1.357-.078-.602.388-1.127.497-2.237.11-.525-.187-1.08-.203-1.743.216-1.111.683-1.805.016-2.237-.682-.34-.559-.51.232-1.126 1.892-.309.76-.417 1.427-.093 1.427m5.306-6.127c.601-.341 1.45-.45 2.051-.853 1.296-.9.078-1.644-.817-1.458-.37.077-.802.264-1.265.59-1.62 1.085-2.515.93-2.669-.389-.17-1.411 2.006-2.047 1.805-2.714-.278-.434-1.327.155-1.974 1.055-1.944 2.621.185 5.29 2.869 3.77m-8.392-7.43c2.206-.248 5.507-1.319 7.173-2.575 1.311-1.024 1.666-1.272 1.11-1.69-.508-.373-.894-.389-.2-1.102.247-.248.664-.791.664-.884-.016-.512-3.116-2.032-4.89-2.265-1.373-.186-3.595.031-4.798.512-1.573.636-1.635 1.07-.139.636 1.157-.341 2.561-.605 3.95-.496 1.249.093 2.467.465 3.239.744 1.913.683 1.573 1.49-.355.807-2.221-.962-5.09-.947-7.636.217-1.033.465-1.311.838-1.496.682-.046-.046-.154-.294-.185-.372-.062-.17-.077.434-.17 1.396-.077.791-.154 1.862-.154 1.862s.154-.45.154-.667c-.015-1.396.648-1.396 2.56-.342 2.237 1.241 3.333 1.117 5.446 1.102.926 0 .972.263-.34.698-.616.201-1.588.543-3.007.992-1.173.373-1.481.807-.926.745m16.86-2.823c-.817 0-1.542-.698-1.743-2.032l.803.062c.262 2 1.712 1.551 2.283.357l.71-.016c-.556 1.101-1.343 1.629-2.052 1.629m-2.051-.124c-.324.03-1.851-.714-1.944-.946-.108-.249.478-.528.988-.667.586-.171.462-.202.647.155.247.48.695 1.442.309 1.458m3.887-.093c-.015-.217.448-1.009.787-1.102.401-.124.71.404.386.683-.309.14-1.111.729-1.173.419m-15.688-.109c-1.018.047-1.974-.993-2.052-2.234l.51.016c.478 2.56 2.437 1.985 2.884.155l.617.17c-.524 1.335-1.25 1.862-1.959 1.893m2.02-.17c-.277.015-.246-.218.093-.9.155-.326.278-.497.556-.497.385.062.632.187.817.481.14.295-.17.528-.833.745-.308.093-.509.155-.632.17m-4.318-.202c-.185 0-.51-.124-1.018-.341-1.312-.59-1.466-.823-.787-1.164.308-.14.555-.264.771-.326.617-.201.602.14.771.574.093.249.201.466.324.714.155.372.17.543-.061.543m19.297-2.172c-.215 0-.694-.295-1.65-.636-1.373-.496-2.746-.31-4.566.28-.756.232-1.003.387-.71-.047.232-.341 1.512-.977 2.546-1.241 1.959-.48 4.535.434 4.535 1.443-.016.14-.062.201-.155.201m-6.463-1.644c-.2 0 0-.31.417-.76.647-.714 1.62-1.21 2.622-1.396 2.098-.372 3.841.201 3.856 1.38.016.853-.138.869-1.172.326-.88-.45-2.854-.574-4.458-.046-.525.14-1.064.465-1.157.48-.046 0-.077.016-.108.016m-16.15-1.148c1.588-.419 3.285-.853 4.827-1.148 1.651-.326 4.073-.03 5.338.59.925.465 1.265.186.848-.698-.262-.59-.679-1.195-1.866-1.614-1.743-.605-5.8.373-8.824 1.955-1.759.775-1.42 1.256-.324.915m26.254-12.053-2.715 4.654c-18.419-3.583-38.349-.977-44.442-.14 0 0-6.664-11.075-9.055-14.968-.231-.42-.848-1.815-.848-1.815l62.876.046c-.88 1.784-1.713 4.08-1.713 4.08 1.929.775 3.41 3.66 4.335 6.096.802 2.14 2.206 7.352 4.057 9.896-3.224 1.862-11.338-2.249-12.495-7.849"/>
    <path fill="#d40000" d="M67.496 20.796h62.274L121.656 37.1c-15.132-2.311-30.065-2.017-44.827.326zm85.151 13.216.124 7.818-8.068-.186zM84.542 86.597l-.093 23.733c-3.224-2.28-6.433-4.576-9.75-6.376l.124-24.555zm27.15 5.196c.57 13.418 2.514 18.66 3.779 25.47l-11.554 7.508-.031-27.549zm31.576 23.531-.062 33.056c-10.613-15.357-17.323-30.946-19.174-51.995 2.885-1.164 5.708-2.467 8.67-3.506a137 137 0 0 0 10.566 22.445M35.78 101.721c9.811 12.533 15.658 29.24 18.743 49.808l-8.978 4.39c-2.977-7.26-6-14.985-9.78-21.003zm38.334 22.166-.031 27.642-7.667 5.01c-.478-9.71-2.005-18.8-3.78-25.517zm20.177 14.55c2.838 2.14 5.785 4.126 9.07 5.615l-.478 24.524-8.654-6.7zm-60.84 69.09s-5.4 5.506-7.404 7.305L26 207.34zm67.982 3.567 10.073 17.28-63.092.527 8.114-17.388c16.691 3.07 30.99 1.675 44.905-.42"/>
    <path d="M72.51 55.728c-.14-.046-2.098 1.288-3.101 3.242-1.095 2.157-.108 4.282-.432 4.297-2.02-.605-1.435-4.467-.74-5.662.601-1.039 1.727-1.737 2.915-1.939 1.157-.201 1.357.062 1.357.062m-3.286 8.439c.4 0 .586.062.848.341.37.388.818.652 1.05.605.323-.046.462.016.462.186 0 .14-.139.17-.663.109-.324-.031-.988.48-.988.48v36.484c-2.853-1.194-7.111-1.877-10.397-2.265l-.216-32.512s-4.813 2.528-6.556 3.537l-.061 29.1-3.41.372 5.384 10.982c.756-.59 11.338.403 13.976 2.14l-9.657 6.066c.988 3.01 1.867 5.879 2.7 8.935.03.093.2.077.231.17.2.745.34 1.086.525 1.83.03.14-.016.373.015.512 2.083 7.213 3.502 16.753 3.795 25.316-.03.077-.34.015-.34.015l.062 5.228.34-.233-.031 2.358-.355.34c-.015.466-.046 1.32-.046 1.32l.447.279-.231 3.955-.463.062-.247 6.267 12.233-7.958s7.975 5.74 11.477 8.733c-3.841 2.622-4.86 7.74-5.816 11.991-.972 4.204-1.296 7.678-1.573 11.2-.309 3.877-.941 8.841-1.45 11.276-.309 1.474-.293 1.645.139 1.66.154.016 0 .062-.34.109-7.836.31-16.259-.853-23.74-1.83 0 0-1.851 3.459-2.5 4.746 0 0-.37-1.179-.77-1.985-.91-1.722-2.978-3.568-4.752-4.56-.663-.435-2.56-1.087-3.856-1.304-.756-.124-1.975.109-2.885.481-.308.124-.555.295-.555.465s.247.326.555.636c.262.248.617.745.787 1.102.54 1.1 1.373 2.978 1.835 4.715 1.312 3.46 2.268 7.647 5.26 9.493l-2.066 4.157 65.082-.015-10.074-17.063s-.308-.512-.4-.682c-.294-.543-.417-.466-.417-.466a174 174 0 0 1 2.823-17.606s.123.466 2.036.435c5.6-.078 7.559-6.329 2.87-9.106-.448-.263-1.189-.775-1.929-1.163-.216-.109-2.9-1.69-2.9-1.69l3.209 1.457.23-37.538s6.711 2.032 11.123 2.218l-.046 32.544 6.17-3.35.278-29.1 3.378-.218s-1.28-2.745-1.573-3.32c-.571-1.147-2.006-3.722-2.993-5.335-.355-.574-1.157-1.846-1.157-1.846-4.504-.124-9.117-.807-13.313-2.668l9.703-6.345c-4.057-11.478-9.1-28.277-6.293-55.392l-.68.434-.184 2.917-12.079 8.36-14.901-12.068s1.08.031 1.326.047c3.795.14 6.48-3.77 7.39-7.027 1.62-5.755 1.835-7.166 2.576-16.287.293-3.599 1.002-7.09 1.727-10.517.386-1.722.324-1.893.324-1.893-7.574-.248-15.487.559-21.426 1.877 0 0-2.5 11.96-3.394 17.032-.849-.48-1.589-.698-2.36-.682-5.816.62-5.307 8.733-2.283 8.95M95.386 228.11l-3.085-10.858 7.543-.698 6.263 11.479zm-46.37.155 7.759-16.535c16.259 2.295 25.653 2.513 44.535-.17l9.81 16.488-2.576.016-7.404-13.17-10.999 1.101 3.04 12.053-2.9.093-3.009-11.82-17.015.093c-.555 3.956-1.62 11.712-1.62 11.712l-3.146-.031 2.098-11.975-10.043-1.272-5.8 13.386zm21.812-.155.987-10.051 14.069-.11 2.252 10.177zm-17.046.202 4.782-11.944 6.957.93-1.897 10.843zM45.19 216.6c-.308-1.023-.617-2.016-.694-2.218-1.142-3.102-1.604-4.11-2.345-5.15-.123-.17-.154-.155.016-.294 3.424-1.676 9.595 2.45 11.09 6.235-.184.373-1.017 1.908-1.017 1.908-.432-.853-.108-1.69-.386-2.45-.062-.326-.771 2.187-.771 2.187s-.679-1.117-.771-3.258c-.016-.326-.895 1.443-.895 1.443-1.095-1.49-1.034-4.08-1.034-4.08-1.234 1.52-.462 2.373-2.375-1.473-.216.403-.108.822-.401.713-.849-.326-2.021-.915-2.453-.807.555.714 1.65 1.086 1.944 2.017 0 0-.864-.078-.926-.031.972.543 1.913.993 2.653 2.032-.216.078-1.11-.078-1.064.031 1.327 1.21 3.316 2.172.432 1.908 1.866 1.318 3.949 2.234.71 2.14 2.313 1.102 2.946 1.784 2.514 1.97-.247.11-.941-.31-2.036.047 1.866.76 2.622 1.117 2.7 1.365.092.31-.788.465-1.405 1.132 0 0 .756-.17 1.08.187 0 0-.37 1.054-.648 1.66-2.375-2.172-3.3-5.244-3.918-7.214m-19.961 4.204s10.474-11.339 15.657-16.97l-5.06-.077-.23-30.713c-1.76-.233-4.83 0-5.986-1.18-.725-1.07 2.067-3.18 3.64-2.73 1.05.28 2.33.063 2.33.063l-.108-34.235c3.347 6.236 5.892 10.191 9.595 21.019-1.08.744-2.175 1.334-2.36 1.458 1.419 3.443 2.406 8.872.416 13.604l-1.373-.823c1.003-2.885 1.373-7.15-.262-11.09l-.37.403s.4.79.663 1.66c.231.775.57 1.768.57 2.807.062 1.83.016 3.413-.416 4.87-.154.482-.355 1.195-.478 1.412-.108.218-.216.42-.216.481 4.026 1.645 6.91 4.049 10.397 5.755.139.062.247.124.324.17.447.249.324.327-.37.606-1.45.574-2.036 1.287-2.005 2.699.046 2.016 1.11 2.792 3.455 2.668.848-.047.91-.031 1.049.248.355.682 1.573 3.397 1.573 3.506 0 .062.263.682.571 1.365.478 1.085 1.034 2.218 1.265 3.35.108.559.447.791.524.202.618-4.328 1.188-6.624 2.299-9.23.324-.775.586-1.427.555-1.442-.108-.093-1.974-.962-2.838-1.319-3.394-1.411-4.952-2.28-4.427-2.482.37-.14.493-.403.586-1.132.247-1.908.216-2.885-.108-3.49-.34-.636-.324-.683.216-1.04.478-.31.37-.31.493-1.907.155-1.893.047-3.087.047-3.087l-.849-1.101.864-1.086.2-4.949-1.156-.884L55 157.097l-.386-4.513s.14-.42.324-.62c-1.835-19.096-8.962-38.346-19.621-51.469l-.108-31.38-10.46-10.517zm.818-2.016v-2.467l8.87-9.617-8.87-.155v-2.094l13.62.03zm.138-4.204-.03-6.934 6.633-.015zm60.871-3.49-1.388.062c.046-1.396.601-7.85 1.265-13.495.74-6.36 2.252-11.851 2.545-11.851l1.342.822c-2.221 7.29-2.808 16.69-3.764 24.462m-6.278.201c.2-3.94 1.018-6.7 1.265-11.354.308-5.693 1.28-12.782 3.825-18.66.864-1.986 2.438-3.832 4.659-4.716 3.903-1.536 7.204 3.32 4.566 6.887-2.083 2.823-5.337 2.792-6.325-.062-.817-2.358 1.805-5.32 3.903-4.405 1.45.635 1.08 3.272-.555 3.893-.679.264-1.25-.605-.926-1.38.262-.606.293-.993-.061-.73-1.481 1.055-.37 3.553 1.465 2.622 2.453-1.241 2.036-4.917-.432-5.072-3.131-.31-5.538 3.567-7.08 10.904-1.697 8.221-1.265 15.59-2.9 22.042zm3.995-.14-1.635.047c.123-.605.154-1.256.262-2.016.648-4.312 1.034-10.61 1.697-15.543.941-6.965 2.622-11.2 2.653-10.687.185.837.725 1.535 1.126 2.202-1.697 4.638-2.375 8.842-2.807 12.813-.525 4.653-.663 8.95-1.296 13.185m7.019-.402-1.45.077c.555-9.23 1.913-17.606 2.7-21.204.246-1.086.323-1.552.54-1.645.23-.093.6.264 1.526.776-1.403-.186-2.514 15.713-3.316 21.996m-2.252.14-1.558.154c.231-3.335.786-8.593 1.419-13.324.756-5.724 1.758-10.796 2.252-10.719l1.311.45c-.894-.264-3.039 16.8-3.424 23.438m2.977-.156c1.018-6.996 1.126-15.155 3.24-21.685l1.465.682c-.401-.124-1.45 4.25-1.79 9.199-.308 4.312-1.08 9.012-1.31 11.602zm2.406-.264c.586-2.466.586-6.111 1.018-9.136.54-3.754 1.111-11.386 1.975-11.215l1.496.76c-.786-.233-2.16 14.224-2.992 19.359zm3.95-.62-1.512.201c.725-5.646 2.051-18.8 2.838-18.908l1.42.76c-.572 2.327-1.975 10.191-2.747 17.947m.94-.217c.633-6.205 1.219-12.487 2.53-17.311l1.558.713s-1.08 5.305-1.589 9.028c-.509 3.676-.586 4.204-.74 5.165-.355 2.11-.447 2.187-.447 2.187zm-66.732-6.36.154-29.798 1.728.062-.077 29.767zm-4.088-.233a1.19 1.19 0 0 1-1.188-1.179c0-.651.525-1.194 1.188-1.194.648 0 1.172.543 1.172 1.194.016.652-.524 1.18-1.172 1.18m27.828-10.936c-1.218-2.249-2.16-3.07-3.24-3.505-1.943-.776-4.627 1.132-3.655 3.816.509 1.411 1.82 1.613 3.47 1.334 0 0 .71.512 1.543 3.055.988 3.025 2.546 6.128 2.546 6.128.108-3.785.987-7.725-.664-10.828m-29.571 8.175a1.19 1.19 0 0 1-1.188-1.179c0-.651.524-1.179 1.188-1.179s1.172.528 1.172 1.18c0 .65-.524 1.178-1.172 1.178m3.24-.046a1.175 1.175 0 0 1-1.173-1.18c0-.65.524-1.194 1.172-1.194s1.188.528 1.188 1.195c0 .651-.54 1.179-1.188 1.179m26.47.279c-1.095-2.28-1.327-4.002-2.39-6.08-.464-.9-.88-1.676-.88-1.676-3.471 1.644-4.813-2.497-1.99-3.816 2.777-1.303 5.893 3.63 5.584 8.95-.077 1.474-.324 2.622-.324 2.622m-28.029-3.087a1.19 1.19 0 0 1-1.188-1.179c0-.651.525-1.194 1.188-1.194s1.173.543 1.173 1.194c.015.652-.525 1.179-1.173 1.179M25.8 195.21v-2.544l6.17-6.019v2.451zm81.125-1.955c-1.173-.015-1.743-.372-.957-.682 2.592-1.04 3.749-2.684 3.888-5.569 0-1.458-.17-1.644.725-.838 2.267 3.211-1.003 7.105-3.656 7.09m-2.16-1.039a2.4 2.4 0 0 1-.864-.124c-.694-.217-.432-.233.725-1.008 2.237-1.49 2.916-2.948 3.008-5.926.031-.45-.061-.822-.03-1.008.03-.14.2-.093.308-.093.432.077.694.527.817.9 1.42 2.838-1.187 7.15-3.964 7.259m-2.422-.993a1.2 1.2 0 0 1-.493-.093c-.54-.279-.34-.31.647-1.024 1.774-1.272 2.654-3.133 2.854-5.227.14-1.334-.894-2.932.926-1.613 1.28 1.07 1.018 3.831-.34 5.74-.817 1.162-2.545 2.202-3.594 2.217m-76.543.574v-2.885l6.17-5.894v2.962zm74.569-1.504c-.695-.016-1.018-.466-.2-.978 2.004-1.256 3.192-3.676 3.084-6.189-.108-1.52-.17-1.8.787-.791 1.558 1.613.463 6.003-2.545 7.647-.417.233-.802.31-1.126.31m-2.052-.838c-1.157.03-1.311-.558-.278-1.272 1.96-1.38 3.27-3.8 3.24-6.019-.016-1.023.061-1.147.509-.806 2.267 1.737-.17 7.818-3.24 8.081-.061 0-.154.016-.231.016m-40.57-.186c-.278-.016-.787-1.024-1.574-3.134-.755-2.032-1.99-4.576-2.252-4.669-.077-.03-.432.093-.771.28-2.592 1.365-4.412-2.513-1.867-3.956 1.82-1.024 3.533.078 5.106 3.289 1.867 3.784 2.376 6.592 1.466 8.112-.016.047-.046.078-.108.078m38.472-1.04a1.8 1.8 0 0 1-.895-.186c-.663-.34-.57-.605.463-1.21 1.065-.62 1.481-1.023 2.083-1.939.956-1.442 1.11-2 1.11-3.862 0-1.52.448-1.598 1.342-.248 1.558 2.311-1.558 7.337-4.103 7.445m-2.591-1.365c-1.019.016-1.682-.387-.71-.915 3.1-1.644 4.396-4.002 3.81-6.902-.185-.916.849-.14 1.481 1.1.926 1.816-.771 5.321-3.085 6.376a3.6 3.6 0 0 1-1.496.341m-34.91-2.668c-.2-.015-.416-.527-.91-1.814-.323-.838-.755-1.83-.956-2.203-.2-.388-.355-.745-.324-.807.17-.294 1.604.202 2.098.73.74.806.987 2.605.478 3.63-.17.31-.277.48-.385.464m-29.725-2.187c-.648 0-1.172-.527-1.172-1.179s.524-1.194 1.172-1.194 1.172.527 1.172 1.194-.524 1.18-1.172 1.18m121.124-1.923a1.18 1.18 0 0 1-1.172-1.195c0-.651.524-1.178 1.172-1.178s1.188.527 1.188 1.178c-.015.667-.54 1.195-1.188 1.195m-48.792-.357c-1.296.047-1.681-.574-1.913-2.528-.154-1.35-.432-1.474-2.545-1.117-2.237.372-2.977-.233-3.131-2.56-.124-1.845-.108-1.83-2.654-1.845-2.499-.016-2.761-.264-3.054-2.84-.216-1.907-.139-1.86-2.607-1.83-2.73.032-2.962-.17-3.147-2.59-.154-1.97-.278-2.094-2.005-1.954-1.682.14-4.798.155-5.369.03-1.45-.31-1.511-.263-1.82 1.707-.416 2.59-.925 2.916-4.072 2.59-1.558-.155-1.728-.124-1.96 1.257-.292 1.83-.663 2.373-.663.775 0-4.017.278-4.203 2.931-3.49 2.006.543 2.036.124 2.237-1.815.185-1.706.478-2.404 1.095-2.683.478-.217 2.114-.031 2.777.155.247.077 1.805.109 3.64.093 4.428-.047 4.474-.062 4.474 3.071 0 1.319.293 1.598 2.607 1.536 2.915-.093 2.761-.17 3.255 3.35.17 1.226.262 1.272 2.669 1.226 2.622-.031 3.224-.078 3.07 2.14-.14 2.017.354 2.56 2.53 2.033 2.328-.543 2.776.45 3.007 2.249.216 1.675.355 1.256 1.466 1.35 1.234.092 1.095 1.488-.216 1.613a3 3 0 0 1-.602.077m-74.152-.605A1.18 1.18 0 0 1 26 177.93c0-.652.525-1.18 1.173-1.18s1.172.528 1.172 1.18c0 .667-.524 1.194-1.172 1.194m3.316-.062c-.648 0-1.172-.527-1.172-1.194s.524-1.18 1.172-1.18 1.173.528 1.173 1.18-.51 1.194-1.173 1.194m117.854-1.985a1.19 1.19 0 0 1-1.188-1.18c0-.65.54-1.178 1.188-1.178s1.173.527 1.173 1.179c.015.651-.525 1.179-1.173 1.179m3.317-.016a1.19 1.19 0 0 1-1.188-1.179c0-.651.525-1.179 1.188-1.179.648 0 1.172.528 1.172 1.18.016.65-.524 1.178-1.172 1.178m-61.704-1.008-12.279-9.214-11.616 7.818.078-2.854 11.538-7.71s9.826 7.648 14.562 11.34zm-61.117-.14c-.648 0-1.173-.543-1.173-1.194 0-.652.525-1.195 1.173-1.195s1.172.528 1.172 1.195a1.18 1.18 0 0 1-1.172 1.194m20.115-1.566-2.915-4.763 2.9-2.125-2.654-3.397 2.854-2.947-3.131-2.001 2.93-4.11 4.058-1.815-4.057 5.367 3.362 2.326-3.193 3.46 2.854 3.769L49 170.438l3.209 5.274-.216.248zm53.821 1.054L81.21 159.176s-1.99-1.505-2.561-1.877c-1.219-.775-1.45-.465-2.669.372-2.73 1.63-9.317 6.143-9.317 6.143l.046-2.342s6.633-4.995 10.305-7.058c.524-.295 1.08-.016 1.465.28 8.006 6.374 16.213 12.564 24.327 18.815zm-49.563-.248c-.093-.17-.386-.217-.525-.434-.956-1.49-2.684-4.126-2.684-4.126l3.039-2.42-2.792-3.676 3.486-3.553-3.548-2.435s2.206-3.397 3.872-4.948l.046 2.637-1.419 1.722 1.635 1.132v3.63l-1.666 1.768 1.527 1.551-.277 3.971-1.45 1.164 1.203 1.644zm96.859-.822a1.19 1.19 0 0 1-1.188-1.179c0-.651.525-1.179 1.188-1.179a1.179 1.179 0 1 1 0 2.358m-124.024-4.328 6-5.584v2.528l-6 5.926zm120.6 2.73v-3.056l6.401-5.956v2.947zm-120.6-3.505v-3.04l6-5.678v3.01zm7.05-.481-.124-98.64L26 62.694v-2.466l8.824 9.183.2 99.244zm113.55.295v-3.429l6.401-5.879v3.227zm-43.841-.636-8.469-6.64.031-23.127c3.44 2.59 6.186 4.141 8.793 5.46zm-73.967-7.477a1.175 1.175 0 0 1-1.173-1.179c0-.651.525-1.194 1.173-1.194s1.187.527 1.187 1.194a1.2 1.2 0 0 1-1.187 1.179m62.937-1.132-.03-23.61 1.666 1.536.092 23.408zm57.878-.218a1.175 1.175 0 0 1-1.172-1.179c0-.651.525-1.194 1.172-1.194.648 0 1.188.527 1.188 1.194 0 .636-.54 1.18-1.188 1.18M27.25 157.89a1.175 1.175 0 0 1-1.173-1.18c0-.65.525-1.194 1.173-1.194s1.172.528 1.172 1.195a1.156 1.156 0 0 1-1.172 1.179m3.363-.14a1.175 1.175 0 0 1-1.173-1.179c0-.651.525-1.179 1.173-1.179s1.187.528 1.187 1.18c0 .635-.524 1.178-1.187 1.178m60.207.109-5.168-4.856 5.322-5.087.047 2.342-2.962 2.87 2.977 3.102zm-1.96-.435-4.303-3.195.679-.822zm59.051-.713a1.19 1.19 0 0 1-1.187-1.18c0-.65.524-1.178 1.187-1.178.648 0 1.173.527 1.173 1.179 0 .651-.525 1.179-1.173 1.179m3.456-.062a1.19 1.19 0 0 1-1.188-1.195c0-.651.524-1.194 1.188-1.194.648 0 1.172.527 1.172 1.194a1.17 1.17 0 0 1-1.172 1.195m-84.735-.42c-.833-9.446-1.404-15.976-3.825-24.88l11.152-7.166-.108 27.347zm-30.728-21.607.046-32.435c10.52 15.062 16.197 32.668 18.033 49.343 0 0-5.646 2.621-8.392 4.219-2.915-6.84-1.666-6.825-9.687-21.127m-7.22 20.227c-.648 0-1.172-.527-1.172-1.194s.524-1.179 1.172-1.179 1.173.527 1.173 1.179-.51 1.194-1.173 1.194m120.924-1.272a1.175 1.175 0 0 1-1.172-1.179c0-.651.524-1.194 1.172-1.194s1.173.527 1.173 1.194c.015.652-.525 1.18-1.173 1.18m-65.791.109-4.104-3.149-.015-2.389 4.905 4.731zm1.403-1.257-5.121-5.087 5.368-5.398 5.291 5.04zm-38.564-.186 4.936-2.032c-1.882-17.202-6.788-30.108-13.405-40.563l-.155 24.136c3.425 5.43 6.001 11.975 8.624 18.46m-20.764-.356v-2.715l6.14-5.662v2.7zm59.328-1.49 3.27-3.195-3.285-3.195-3.162 3.195zm61.426.357v-2.885l6.11-5.925v3.055zM77.94 149.14l-.046-27.549 1.358-.651-.093 28.774zm7.343-.419-1.48-1.504 1.542-1.567 1.465 1.504zm-59.39-.279v-3.118l6.14-5.77.108 2.978zm68.013-11.711c-6.34-5.523-11.214-13.899-16.567-18.583-2.16-1.893-7.451-4.825-10.32-5.74-3.24-1.024-5.77-1.442-9.024-1.504-2.576-.047-2.592-.062-2.592-.062l-1.095-1.955 1.805.031.123-6.872c-1.913-.093-3.78.016-5.615.249l-.663-1.257c13.127-1.784 25.946 3.211 33.66 9.602 3.516 2.9 6.37 6.453 9.856 11.634 6.695 10.501 18.496 15.573 29.48 15.698l.91 1.427-1.836-.062s-.185 1.318-.216 3.567c-.031 2.529-.016 2.979.185 3.04 1.326.156 5.337.078 5.23-.092l.817 1.489c-13.097 1.334-25.978-3.242-34.138-10.61m52.741 10.377v-2.839l6.11-5.786v2.84zm-67.071-.248.154-2.529 2.915-2.885-3.1-3.025.077-2.11 5.46 5.089zm39.86-.9c.278 0 .447-.03.478-.077.077-.125.031-1.21.278-5.135.093-1.442.185-1.442-1.018-1.582-1.003-.031-3.255-.62-4.751-.791-1.265-.17-1.003.217-1.358 1.24-.385 1.118-.601 2.095-1.08 3.677-.447 1.443-.231 1.505 2.607 2.032 1.96.357 3.996.636 4.844.636m-28.384.248-4.936-4.963 4.86-4.964.092 2.404c-.941.838-2.052 1.8-2.885 2.746l2.87 2.947zm24.759-1.613-.524-.884-1.265-.217.216-.884-.648-.916.802-.605-.031-1.116 1.003.03.863-.62.68.869 1.002.03-.046 1.242.648.543-.772.698.108 1.101-1.234-.202zm8.021-1.49-.786-.511.802-.558.03-.854.494-.418 1.79 3.52-1.173-.48-.894.59zm-14.376.808c.632-.016.71-1.18 1.388-3.382.94-3.071 1.018-2.792-.802-3.428-.802-.28-2.36-.807-3.178-1.194-1.99-.947-2.005-.947-2.746.34-.324.575-.956 1.97-1.388 2.684-1.095 1.8-1.126 1.722.88 2.7 1.187.573 1.896.806 4.38 1.814.694.28 1.142.481 1.466.466m-1.99-2.032-.88-.543-.972.403-.2-1.055-1.064-.419.308-1.039-.478-.776.91-.17.663-1.443 1.003.714 1.064-.388.293.791 1.096.527-.401.87.54 1.178-1.25.093zm-21.89-1.086-5.445-5.367 4.967-4.995 5.445 5.382zm-56.875-.978a1.19 1.19 0 0 1-1.188-1.194c0-.651.524-1.179 1.188-1.179.648 0 1.172.528 1.172 1.18 0 .666-.524 1.193-1.172 1.193m71.422-.263c.324 0 .493-.295.771-.869.108-.233.787-1.505 1.404-2.482 1.404-2.202 1.404-2.094 0-2.963-.586-.372-1.96-1.504-3.132-2.559-1.08-.993-.971-.76-3.3 1.598-1.528 1.535-2.469 1.97-1.867 2.776 1.45 1.241 2.638 2.156 4.196 3.35 1.033.792 1.573 1.149 1.928 1.149m-14.81-.605 3.21-3.165-3.626-3.304-3.008 3.103zm55.071 1.086-.03-24.788c-3.533-6.08-7.173-12.208-9.055-19.048l-5.183 2.559c2.483 20.243 8.252 31.458 14.268 41.277m9.24-1.567a1.19 1.19 0 0 1-1.187-1.194c0-.652.524-1.18 1.188-1.18.648 0 1.172.528 1.172 1.18 0 .667-.524 1.194-1.172 1.194m-64.356-1.319-1.543-1.427 1.42-1.55L86.7 135.8zm-58.017-.232a1.19 1.19 0 0 1-1.188-1.18c0-.65.524-1.178 1.188-1.178s1.172.527 1.172 1.179c0 .651-.524 1.179-1.172 1.179m3.162-.124a1.19 1.19 0 0 1-1.188-1.18c0-.65.525-1.178 1.188-1.178a1.179 1.179 0 1 1 0 2.358m68.985.077-.895-.667-1.049.45-.077-1.24-.956-.482.601-.884-.37-1.163 1.034-.031.802-1.07.725.697 1.403-.093.232 1.21.617.481-.478.807.354 1.07-1.203.078zm51.954-1.318a1.175 1.175 0 0 1-1.172-1.18c0-.65.524-1.178 1.172-1.178s1.173.527 1.173 1.179a1.156 1.156 0 0 1-1.173 1.179m-3.393-.031a1.2 1.2 0 0 1-1.188-1.195c0-.651.524-1.194 1.188-1.194s1.172.527 1.172 1.194a1.18 1.18 0 0 1-1.172 1.195m-68.353-2.839 2.823-2.637-2.776-2.916.077-2.234 4.92 4.933-4.997 4.933zm27.844.574 10.567-7.042.648 1.768-9.41 6.205zm-78.595.574a1.19 1.19 0 0 1-1.188-1.194c0-.652.525-1.18 1.188-1.18.648 0 1.172.528 1.172 1.18 0 .667-.524 1.194-1.172 1.194m63.339-.714c.494-.03.987-.62 1.928-1.628.926-.993 2.02-2.156 2.268-2.327.74-.512.694-.652-.571-2.079a51 51 0 0 1-1.635-1.985 20 20 0 0 0-1.481-1.644c-.525-.543-.802-.435-3.193 1.287-2.9 2.094-2.885 1.784-.216 5.228 1.542 1.97 2.267 3.195 2.9 3.148m57.461-.729a1.175 1.175 0 0 1-1.172-1.179c0-.651.525-1.178 1.172-1.178.648 0 1.188.527 1.188 1.178 0 .652-.54 1.18-1.188 1.18m-61.965-.434-1.913-2.063.17-.202zm-61.72-.45v-3.568l5.878-5.46v3.258zm65.87-1.04-.71-.992-1.22.078.186-1.164-.648-.465.633-.884.046-1.117 1.003.233.817-.993.802.946.957-.108-.031 1.163.972.558-.68.76-.015 1.303-1.419.047zm-29.094-.077-.586-1.799 14.7-9.617 1.28 1.489zm38.487-1.21-1.172-.884 15.426-9.974.463 1.303zm45.137.388v-2.963l6.51-6.313v3.056zm-61.118-.713-.185.155-5.044-4.87.956-1.025zm13.945-1.427-.139-28.775 1.342.931-.107 27.3zm-.833-.667-1.095-.962 1.049-1.04zm-72.394.248v-2.916l5.878-5.616v3.056zm120.4-1.412v-2.73l6.51-6.251v2.777zm-60.67-.372c.17 0 .354-.109.617-.326.246-.186.833-.605 1.31-.915 1.775-1.163 3.271-2.25 3.348-2.404.14-.326-1.635-2.668-4.103-5.46-.972-1.102-.941-1.319-1.913-.342-.771.884-3.61 3.304-3.532 3.956.154.744 1.126 1.582 3.548 4.87.308.435.509.62.725.62m10.921-.295-3.872-5.568.51-.512 4.75 4.715zm7.574-.651-.015-26.851 7.265-5.196c-.138-.078.895 16.132 3.672 24.772zm-18.079-.946-.71-1.335-1.08.187.14-1.226-.91-.713.894-1.241-.123-.884 1.049.248.956-1.009.663 1.272 1.389-.015-.2 1.225.971.822-1.049.621-.154 1.117-.91-.078zm-6.294-.218-.123-1.101.648.558zm18.573-1.939.016 1.567-4.628-4.498 4.736-4.452-.031 2.11-2.7 2.574zm-38.287.869-.663-2.001 9.517-5.894 1.913 1.008zm-31.36-3.32a1.19 1.19 0 0 1-1.189-1.178c0-.652.525-1.195 1.188-1.195.648 0 1.188.543 1.188 1.195 0 .651-.525 1.179-1.188 1.179m60.577-3.862 3.347 3.366-.416.45zm-8.608 3.025c1.126-.977 3.548-3.785 3.548-4.25 0-.466-3.347-3.366-5.368-4.654-.633-.403-.88-.419-1.126-.046-3.471 5.227-3.625 5.04-2.253 6.065 1.404 1.07 3.04 2.668 4.15 3.226.478.233.555.078 1.049-.341m12.526-.248-5.507-5.32 5.106-4.965 5.306 5.631zm56.29-.404a1.175 1.175 0 0 1-1.173-1.178c0-.652.524-1.18 1.172-1.18s1.188.528 1.188 1.18a1.2 1.2 0 0 1-1.188 1.178m-69.649-1.07-.926-.822-1.11.295-.247-1.102-1.064-.387.57-1.117-.077-1.412 1.08.202.74-1.148 1.096 1.101 1.25-.108-.062 1.225 1.11.543-.694.807.432 1.101-1.327-.217zm-52.695-.496a1.19 1.19 0 0 1-1.188-1.18c0-.65.525-1.178 1.188-1.178.648 0 1.188.527 1.188 1.179a1.2 1.2 0 0 1-1.188 1.179m68.954-2.792-3.27-3.366-3.008 2.9 3.177 3.382zm-65.7 2.745a1.19 1.19 0 0 1-1.187-1.194c0-.652.525-1.195 1.188-1.195.648 0 1.172.528 1.172 1.195s-.524 1.194-1.172 1.194m120.709-1.24a1.19 1.19 0 0 1-1.188-1.195c0-.652.524-1.179 1.188-1.179.648 0 1.172.527 1.172 1.179a1.17 1.17 0 0 1-1.172 1.194m-3.456 0c-.648 0-1.172-.544-1.172-1.195 0-.652.524-1.179 1.172-1.179s1.188.527 1.188 1.179c-.015.651-.54 1.194-1.188 1.194m-54.654-.264-1.48-1.536 1.372-1.458 1.543 1.582zM72.88 113.06c.756-.543 2.823-4.483 3.177-5.352 0-.201-1.002-.837-2.236-1.427-1.065-.496-4.505-1.892-4.813-1.97-.694-.17-.802.093-.926.543-.062.233-.34 1.148-.632 2.156-1.065 3.475-1.389 3.32.2 3.847.54.186 2.268.76 3.348 1.272 1.049.496 1.527.93 1.882.93m-44.026-.636a1.19 1.19 0 0 1-1.188-1.18c0-.65.54-1.194 1.188-1.194s1.172.528 1.172 1.195c0 .651-.524 1.179-1.172 1.179m56.366-1.629-.185-23.345 1.82 1.427.047 23.423zm8.13-3.971 5.013-5.134.031 2.621-2.807 2.56 2.853 3.009-.061 2.016c-1.82-1.52-3.379-3.366-5.03-5.072m56.196 4.467a1.19 1.19 0 0 1-1.187-1.178c0-.652.524-1.195 1.187-1.195.648 0 1.188.528 1.188 1.195 0 .651-.54 1.178-1.188 1.178m-77.391.047-1.018-.853-.849.512-.494-.869-1.218-.17.54-1.335-.71-1.023 1.188-.218.293-1.427 1.157.698.88-.387.647 1.21 1.373.062-.756 1.303.71 1.039-1.003.062zm15.472-.078.015-2.063 2.175-2.218-2.19-2.404.015-2.389 4.535 4.638zm-23.262-1.365c.462-.015.462-.496.817-2.078.077-.341.324-1.257.54-2.048.663-2.358.74-2.404-1.296-2.807-1.188-.171-6.294-1.38-6.402-.559-.123 1.396-.215 4.67-.23 5.786-.047.372.045.73.416.776 2.329.279 4.92.9 6.155.93m19.899-.093c-2.9-1.985-5.708-4.017-9.04-5.832l-.077-24.012 9.148 6.856zm-58.217-.077v-2.947l6.093-5.848v2.807zm35.726-1.009-.524-1.132-1.111.372v-1.365l-.987-.636 1.187-.558.108-1.66 1.204.372 1.002-.62.88.93 1.08.016-.402 1.474.694.667-1.018.496-.077 1.319-1.08-.652zm84.472.218v-2.839l6.633-6.143v2.482zm-92.787-1.784-1.496-2.529.54-1.023 1.003.496 1.095-.403-.17 1.35.849.682-.864.79.046.994zm39.321-.838-5.09-5.305 5.183-5.382 5.09 5.382zm-66.732-3.32L32.14 97.3v2.776l-6.093 5.817zm120.198 2.327v-2.776l6.633-6.251v2.559zm-53.481-.992 3.3-3.289-3.285-3.304-3.316 3.227zm-.047-1.893-1.419-1.458 1.358-1.411 1.465 1.427zm5.677-2.016-5.044-5.212.586-.683 4.474 3.49zm-10.829-.42-.139-2.357 2.746-2.358-2.514-2.652-.062-2.451 4.782 4.948zM28.762 97.61a1.175 1.175 0 0 1-1.173-1.179c0-.651.525-1.179 1.173-1.179s1.172.528 1.172 1.18c0 .65-.525 1.178-1.172 1.178m120.646-1.442a1.19 1.19 0 0 1-1.188-1.18c0-.65.524-1.194 1.188-1.194.648 0 1.172.528 1.172 1.195 0 .651-.524 1.179-1.172 1.179m-24.173-.73 3.718-5.6-2.931-1.97 2.777-3.753-2.885-3.506 2.915-2.513-2.946-5.087c1.172.232 2.376 1.023 3.456 1.566l2.22 4.266-2.56 2.218 2.592 3.04-2.73 3.242 2.73 1.924-2.977 4.607zm-97.893-.744a1.19 1.19 0 0 1-1.187-1.179c0-.651.524-1.179 1.187-1.179.648 0 1.173.528 1.173 1.179.015.651-.525 1.179-1.173 1.179m73.243.093-25.7-19.917.108-2.637 25.715 19.87 10.922-7.755-.093 2.823zm-70.096-.248c-.648 0-1.172-.528-1.172-1.18s.524-1.178 1.172-1.178 1.188.527 1.188 1.179-.524 1.179-1.188 1.179m59.822-2.544.278-.047 2.807 2.063-.617.698c0-.015-1.836-2.063-2.468-2.714m57.354 1.148a1.2 1.2 0 0 1-1.188-1.195c0-.651.54-1.194 1.188-1.194s1.172.527 1.172 1.194c0 .652-.525 1.195-1.172 1.195m3.177-.016a1.19 1.19 0 0 1-1.188-1.179c0-.651.54-1.179 1.188-1.179s1.173.528 1.173 1.18c0 .65-.525 1.178-1.173 1.178m-122.08-1.566a1.18 1.18 0 0 1-1.173-1.195c0-.651.525-1.179 1.173-1.179s1.172.528 1.172 1.18c0 .666-.525 1.194-1.172 1.194m120.661-1.319a1.19 1.19 0 0 1-1.188-1.194c0-.652.525-1.18 1.188-1.18.648 0 1.172.528 1.172 1.18 0 .667-.524 1.194-1.172 1.194M26.047 88.039v-2.621l5.769-5.615v2.528zm77.792-.79c-.863.015-2.005-.032-3.547-.094-1.327-.046-2.793-.077-3.255-.062-1.836.047-2.438-.574-2.468-2.575-.031-1.768-.016-1.768-2.33-1.861-2.776-.124-3.517-.838-3.548-3.475-.015-1.024-.833-1.427-2.452-1.194-2.546.357-3.04.015-3.348-2.374-.247-1.985-.108-1.892-2.453-1.86-2.514.015-3.07-.404-3.1-2.359-.016-1.132-.293-1.473-1.265-1.55-1.034-.094-1.481-.637-.972-1.164.093-.093.57-.155 1.327-.17 1.604-.032 2.128.48 2.421 2.326.201 1.287.34 1.35 2.469 1.287 2.715-.077 2.93.093 3.224 2.467.246 2.047.586 2.249 2.93 1.815 1.697-.326 2.592.434 2.824 2.342.246 2.156.339 2.234 2.745 2.327s3.086.511 3.1 1.97c.032 2.264.325 2.466 3.287 2.373 1.434-.047 2.915-.016 3.764.077 1.789.187 1.789.202 1.974-1.535.262-2.59.648-2.839 4.057-2.575 1.42.108 1.527.03 1.62-1.055.123-1.365.632-2.203 1.018-1.69.2.263.2.294 0 2.295-.231 2.234-.247 2.25-3.147 2.032-1.959-.155-1.866-.217-2.082 1.567-.247 2.187-.216 2.683-2.793 2.714m42.314.2V84.58l6.74-6.282v2.792zm-20.933-3.38-1.466-2.017.479-3.738 1.25-.947-.88-1.784.277-2.187.355-.201 2.453 4.777-2.9 2.56 2.962 3.63-2.808 3.8 2.916 2.047-3.502 5.181c-.602.745-.648-2.202-.648-2.202l1.45-2.203-1.62-1.412v-3.49zm-1.851 1.706-.155 4.7 1.265.977-.971 1.629.061 4.157.293.201c2.422 29.767 16.923 47.358 19.19 51.36 0 0 .51.403.417 1.427-.047.45-.062 3.071-.047 5.832.093 14.116-.03 23.78-.03 23.78l10.659 11.416-.062-4.172-.524-.373v-19.033l.447-.03s.139-5.12.108-8.625l-.632-.016.046-13.076.54-.062-.031-8.47h-.586s-.14-8.888.077-13.2l.432-.03-.031-8.424-.494-.03-.03-12.038.616-.093-.17-7.942-.493-.03c-.185-4.918-.092-13.403-.092-13.403l.57-.031-.138-7.896-.417-.03.123-13.852.37-.047-.138-8.19-.401-.031.061-6.81.278-.046.062-2.544-.293-.667-.016-9.075.216-.093.062-4.56-16.521 16.799 6.078.186v5.43c0 8.965-.124 16.193.154 24.927.077.077.679.17 1.342.217 3.131.186 3.98.434 3.995 1.194.016.93-1.404 2.094-2.576 2.11-.262 0-.71.263-.71.263l.386 99.415 7.39 7.787-.032 2.466-9.116-9.695-.34-99.368-.34.155-.03 33.366c-4.674-7.027-7.281-13.976-9.888-20.94 0 0-.926.325-.956.34-.016.016.324.125.324.125 2.653 8.888 6 15.34 10.35 22.073l-.061 32.342c-11.138-15.807-16.522-30.03-18.758-50.522l5.63-2.823.54-.729 4.258-2.14.4.682 2.577-1.8c-1.99-3.49-1.913-8.515-.293-11.183l-.694-.435c-.047-.186-2.67 5.445.262 11.169l-1.928 1.194c-2.777-5.77-1.481-11.975-.186-13.573 0 0-2.005-1.287-3.455-2.078-1.573-.853-2.962-1.644-4.844-2.25-1.157-.465-1.897.078-1.882.094l-.555 3.21.895 1.226-1.05.838-.477 4.932 1.11 1.133zm-97.322-1.319v-3.18l5.769-5.49v3.117zm120.106-3.397 6.74-6.22v2.59l-6.74 6.36zM28.33 76.824a1.2 1.2 0 0 1-1.188-1.194c0-.651.524-1.194 1.188-1.194.647 0 1.172.527 1.172 1.194a1.17 1.17 0 0 1-1.172 1.194m115.123-1.923V45.615h1.774l-.077 29.643zm5.955.264c-.648 0-1.188-.528-1.188-1.18s.524-1.178 1.188-1.178c.648 0 1.172.527 1.172 1.179s-.524 1.179-1.172 1.179M30.01 74.032a1.18 1.18 0 0 1-1.172-1.194c0-.652.524-1.195 1.172-1.195s1.188.543 1.188 1.195c0 .667-.54 1.194-1.188 1.194m-3.178-.046a1.175 1.175 0 0 1-1.172-1.18c0-.65.524-1.178 1.172-1.178s1.188.527 1.188 1.179c0 .651-.54 1.179-1.188 1.179m120.724-1.784a1.19 1.19 0 0 1-1.188-1.194c0-.652.524-1.18 1.188-1.18.647 0 1.172.528 1.172 1.18a1.16 1.16 0 0 1-1.172 1.194m-60.81-.031c-6.154-.76-4.52-7.26-1.928-8.61 3.533-1.659 6.356 1.676 4.104 5.058-1.651 2.482-4.798.837-3.595-1.877.68-1.536 2.098-1.35 2.098.201-.509 1.474-.046.947.355.435 1.25-1.629-1.265-3.35-2.56-1.753-.787.993-.957 2.156-.695 3.087.463 1.597 2.299 2.528 4.381 1.055 2.484-2.994 3.81-6.857 4.535-11.184 1.558-9.214 1.636-18.91 2.978-21.36l1.45.031c-2.114 10.548-2.13 19.576-4.397 27.875-1.095 4.11-3.949 7.042-6.725 7.042m64.049-.062a1.18 1.18 0 0 1-1.172-1.195c0-.651.524-1.178 1.172-1.178s1.188.527 1.188 1.178c-.016.667-.54 1.195-1.188 1.195m-24.975-.155c1.62-.031 3.27-1.38 3.147-3.118-.154-2.094-1.388-3.025-3.424-2.823-1.08.108-1.065.124-1.79-1.18-.663-1.178-2.39-6.25-2.406-7.01.833 1.116 2.777 3.18 4.581 3.102 1.929-.14 3.564-1.986 2.098-4.592-.771-1.272-2.16-1.52-3.563-1.1-2.098-3.29-2.5-6.578-3.162-10.394 0 0-.833 8.175-1.08 11.432-.478 4.995-1.157 8.237-3.085 12.193 1.604.93 3.316 1.66 5.044 2.326.694.264 1.404.264 2.082.714a2.6 2.6 0 0 0 1.558.45m-97.615-.667a1.175 1.175 0 0 1-1.172-1.18c0-.65.524-1.194 1.172-1.194s1.188.528 1.188 1.195a1.2 1.2 0 0 1-1.188 1.179m94.299-2.622c-1.219-1.985-2.407-4.855-2.515-6.654-.046-1.195.201-2.668.401-4.033.093-.683.355-.016.818 1.442 1.913 6.08 2.422 7.244 3.749 6.95.755-.171 1.542-.202 2.067.077 1.681.93 1.835 4.064-.617 4.67-1.96.418-3.209-1.32-3.903-2.452m.03 1.505c-2.452-.977-4.01-2.435-3.563-4.824.2-.9.324-1.629.571-1.536.278.109.648 1.179 1.42 3.04.169.605 1.912 3.32 1.573 3.32m-40.57-.093c-.123.015-.339-.109-.617-.357-1.928-1.908-.879-6.22 1.697-7.477 1.065-.729 3.008-.62 3.024.093 0 .28-.062.357-.324.357-2.16-.015-4.474 3.01-3.826 6.236.062.48.216 1.117.047 1.148m67.396-1.055c-.648 0-1.172-.527-1.172-1.179s.524-1.194 1.172-1.194 1.188.527 1.188 1.194-.54 1.179-1.188 1.179m-69.432-.357c-.139.016-.601-.186-.91-.558-1.82-2.203-.34-5.972 2.515-7.26 1.095-.59 2.02-.186 1.774.435-1.944.806-3.795 2.916-3.595 5.801.077.993.417 1.551.216 1.582m38.611-.403-.663-.31.278-.574c.123.341.123.465.385.884m-40.678-.248c-.139 0-.463.046-.771-.248-1.172-1.148-1.358-4.375-.231-5.972.524-.745 2.175-2.11 2.668-2.25.571-.077.972-.155 1.928.28.324.015-.138.31-.74.667-2.129 1.24-3.548 3.443-3.178 5.522.216 1.287.602 2 .324 2m-2.16-1.04c-.57-.046-1.002-.542-1.264-.977-1.404-2.016-.232-6.267 2.622-7.15 1.913-.59 2.622-.032 1.08.868-2.221 1.303-3.363 3.847-2.73 5.863.308.978.601 1.381.293 1.396m-2.313-1.473c-.664-.016-1.188-.528-1.42-1.055-.555-1.303-.462-3.133.247-4.42.725-1.288 2.083-2.359 3.61-2.514.401-.03.74.016 1.049.155.663.295.432.342-.818.993-2.005 1.055-3.193 3.258-2.884 5.677.123.916.478 1.164.216 1.164m72.764.434v-3.133l6.556-6.22v3.055zm-55.719-.403c-.123-.124-.863-1.908-.956-2.28 1.543-2.219 1.974-5.864 2.206-8.625.864-7.833 1.774-17.28 2.16-17.357l1.712-.047c-.648-.434-1.481 12.983-2.808 21.484-.108.667-1.527 7.228-2.314 6.825m-19.822-1.38c-2.252-1.536-1.049-6.314 2.083-7.493 1.141-.434 1.558-.496 2.067.016.324.31.632.419-.185.713-2.314.605-3.95 2.777-3.564 5.305.031.605.617 2.218-.401 1.458m18.203-1.335-1.018-.667c1.11-3.304 1.511-7.213 1.959-10.997.54-4.576 1.033-9.276 1.696-13.775l1.574-.062c-.818 2.777-1.188 10.517-2.005 17.016-.479 3.304-.988 7.834-2.206 8.485m-1.774-1.07-1.312-.76c.463-1.846 1.019-3.878 1.28-5.817.602-4.312.834-9.54 2.222-17.575l1.42-.124c-.355 2.59-1.034 8.33-1.605 13.635-.663 6.143-1.712 10.78-2.005 10.641m59.112.202v-3.072l6.556-6.065v2.839zm-61.334-1.18-1.265-.713c.849-3.397 1.265-6.546 1.697-9.633.571-4.157.988-8.19 1.774-12.75l1.512-.093c-.756 3.505-1.62 11.727-2.298 17.512-.402 3.367-1.22 5.74-1.42 5.678m36.097-6.902c-.015-2.327.494-5.91.494-5.91.2-.108.817 5.259 2.977 7.694 2.638-1.257 4.905 1.69 3.116 3.723-3.517 3.025-6.587-3.444-6.587-5.507M82.845 59.84l-1.836-.853c.232.046.663-1.225 1.08-3.211 1.28-6.034 2.56-17.916 2.761-17.916l1.42-.124c-.463 3.195-1.08 8.237-1.744 12.704-.74 5.072-1.434 9.385-1.681 9.4M80.3 58.691l-1.389-.837c.124.093.617-1.412.864-2.451 1.25-6.019 1.82-11.293 2.592-17.125l1.511-.202c.108-.17-1.31 11.494-2.483 17.373-.386 2.001-.987 3.304-1.095 3.242m-2.176-1.055-1.496-.744c1.62-4.623 1.774-9.028 3.332-18.304l1.574-.28C80.9 44.235 79.99 50.61 78.71 56.428c-.17.775-.571 1.194-.587 1.21m-2.128-1.085-1.682-.683 3.517-17.016 1.42-.186c-.88 4.901-1.342 10.579-2.53 15.046-.247.962-.386 2.016-.725 2.839m73.103-2.684a1.19 1.19 0 0 1-1.188-1.179c0-.651.54-1.179 1.188-1.179s1.173.528 1.173 1.18a1.156 1.156 0 0 1-1.173 1.178m-1.542-2.792a1.19 1.19 0 0 1-1.188-1.194c0-.652.524-1.18 1.188-1.18.647 0 1.172.528 1.172 1.18a1.16 1.16 0 0 1-1.172 1.194m3.085-.078a1.19 1.19 0 0 1-1.188-1.178c0-.652.54-1.195 1.188-1.195s1.188.528 1.188 1.195a1.2 1.2 0 0 1-1.188 1.178m-1.481-2.73a1.18 1.18 0 0 1-1.173-1.194c0-.652.525-1.179 1.173-1.179s1.188.527 1.188 1.179c0 .667-.54 1.194-1.188 1.194m-10.675-3.97 14.161-14.427.046 2.886-9.703 9.586 9.78.155-.015 1.954zm6.494-2.746 7.59-7.275.062 7.399zm-8.114-.528s.047-.263-.663-1.52c-2.067-3.614-2.545-6.965-4.38-10.842-.911-2.126-2.963-4.266-3.425-4.39l2.283-4.188-64.311.14 10.289 18.07c16.336-3.04 31.022-2.513 44.828-.077.786-1.07 1.65-3.242 2.483-4.809 2.067 5.569 8.654 9.168 12.896 7.616m-2.344-.496c-3.394.047-6.232-1.582-8.747-5.026-.802-1.101-1.11-1.597-1.11-2.047.092-.528 1.141-2.234 1.141-2.234s.617 1.69.756 2.513c.91-3.382 1.28.543 1.635 1.567 1.11-3.273 1.712 1.225 1.666 2.435 1.512-2.094 1.42 1.35 2.16 1.985.015-1.814 1.08-.574 2.452-.186-.725-1.008-2.128-1.69-.324-1.923-1.789-1.241-2.684-1.055-.94-1.738-1.343-.744-3.533-1.628-1.111-2.125-1.481-.946-3.872-1.334-1.311-2.233-1.944-1.195-4.52-1.102-.895-2.063-1.311-.776-3.64-1.07-1.034-1.738-.4-.186-1.095-.651-1.095-.651l1.126-1.784s.401.031.679.326c1.188 1.256 2.345 3.552 3.394 6.778.77 2.374 1.666 4.887 2.668 6.965.525 1.101.479 1.163-1.11 1.179M77.09 36.463l-8.885-15.295 2.113-.03 7.852 13.091 10.582-1.21-3.486-11.711 3.147-.093 3.131 11.51c5.908-.233 11.554-.31 16.46.093l1.665-11.68 3.009.092-1.898 11.557 9.934 1.272L126.1 21.09l3.1-.062c-2.005 3.397-7.003 14.364-7.944 15.45-21.642-3.429-32.888-1.552-44.164-.016m2.082-3.537-6.725-11.758 10.813-.046 3.625 10.89zm40.447-.357c-2.129-.62-4.427-.76-6.74-.853l1.958-10.532 9.58.015zm-26.964-1.24L90.11 21.106l18.033-.093-1.48 10.191c-4.736-.279-9.364-.015-14.007.125"/>
    <path d="M130.514 222.968c7.8-.2 11.3-9 5.5-15.8-.8-1-.9-1.6.6-.6 3.9 2.6 11.4.9 11.8-7.1.5-9.8-13.3-12.7-15.8-2.2-.1 1.1-1 1.1-.8-.5.2-4.2 1.6-8.2 3.4-12.1h-9.3c1.8 3.9 3.1 7.8 3.4 12.1.2 1.6-.7 1.6-.8.5-2.6-10.4-16.3-7.6-15.8 2.2.4 8 7.9 9.7 11.8 7.1 1.5-1 1.5-.4.6.6-5.9 6.8-2.4 15.6 5.4 15.8M48.114 26.468c7.8.2 11.3 9 5.5 15.8-.8 1-.9 1.6.6.6 3.9-2.6 11.4-.9 11.8 7.1.5 9.8-13.2 12.7-15.8 2.2-.1-1.1-1-1.1-.8.5.2 4.2 1.6 8.2 3.4 12.1h-9.3c1.8-3.9 3.1-7.8 3.4-12.1.2-1.6-.7-1.6-.8-.5-2.6 10.4-16.3 7.6-15.8-2.2.4-8 7.9-9.7 11.8-7.1 1.5 1 1.5.4.6-.6-6-6.8-2.5-15.6 5.4-15.8q-.15 0 0 0"/>
</svg>
