<svg xmlns="http://www.w3.org/2000/svg" xml:space="preserve" width="178.6" height="249.4" viewBox="0 0 178.6 249.4">
    <path fill="#fbfbf6" stroke="#7f7f7f" stroke-width=".4" d="M3113.7-30.5h161.5c4.7 0 8.5 3.8 8.5 8.5v232.4c0 4.7-3.8 8.5-8.5 8.5h-161.5c-4.7 0-8.5-3.8-8.5-8.5V-22c0-4.7 3.8-8.5 8.5-8.5z" transform="matrix(.99553 0 0 .9968 -3090.923 30.846)"/>
    <path fill="#d40000" d="M14.45 56.165c-1.693-2.89-3.485-5.582-5.775-7.974 2.29-2.393 4.082-5.084 5.774-7.975 1.693 2.891 3.485 5.582 5.774 7.975-2.29 2.392-4.081 5.183-5.774 7.974M164.178 209.174c-1.693-2.89-3.485-5.582-5.774-7.974 2.29-2.392 4.081-5.084 5.774-7.974 1.692 2.89 3.484 5.582 5.774 7.974-2.29 2.392-4.082 5.183-5.774 7.974M48.198 64.738C44.116 57.86 39.736 51.28 34.26 45.599c5.476-5.682 9.757-12.26 13.938-19.139C52.28 33.338 56.66 39.917 62.135 45.6c-5.375 5.682-9.756 12.36-13.937 19.139M130.33 223.03c-4.082-6.878-8.462-13.457-13.938-19.139 5.476-5.681 9.756-12.26 13.938-19.138 4.081 6.878 8.462 13.457 13.937 19.138-5.475 5.582-9.756 12.261-13.937 19.139"/>
    <path fill="#131f67" d="M24.305 229.609V19.782h130.017v209.827zm46.79-174.94c-4.679-1.295-4.58 3.39-1.095 3.49 3.783.299 5.476-6.18 3.584-8.772 0 .1-1.593 4.984-2.489 5.283M40.931 80.887l-5.575 2.492v4.186c2.29-1.894 4.081-4.186 5.575-6.678M79.06 206.383c-1.096-.598-2.39-1.794-2.19-1.993.099-.1.696.1 1.194.299 4.38 1.794 7.765 1.694 12.942-.2.398-.1.996.598.796.997-2.389 3.489-9.756 2.293-12.742.897m-2.29-5.183c-.996-1.495.298-.399.796.1 3.186 2.99 7.566 3.987 11.35 1.196.198-.2.198-.399.099-.499-.1-.299-.1 0-1.693.598-3.583 1.396-6.67.2-9.557-1.993-1.194-.897-1.792-1.396-1.792-1.695 0-.199.2-.398.598-.299.298 0 .995.2 1.493.2.896.1.796 0 1.792-.4 1.991-.896 3.783-1.295 5.874-.896.497.1 1.095.2 1.194.2.498-.2-.199-.798-1.99-2.194-.3-.299-.797-.498-.897-.698-.199-.398 0-.498.299-.498.697 0 3.982 2.691 5.077 4.286.299.499.597.499.597 1.097-.1.498-.1.997.399 1.794.398.498.796 1.396.796 1.396s-.1.299-.498.1c-.199 0-.298-.2-.597-.2s-.697.299-1.195.498c-4.58 2.99-8.76 1.495-12.145-2.093m9.856-.2c.1 0-.299-1.694-.797-2.192-.896-.997-2.29-1.197-3.086-.2-.498.598-.995 2.094-.995 2.094s.696.199.895.199c0-.399 0-1.296.797-1.894.398-.299 1.095-.299 1.394 0 .597.299.796 1.495.896 1.894.298.2 1.095.1.896.1m-5.476-2.392c-.597.3-1.493.499-1.692.897-.299.598.597.698 1.095.898.597.299.697.199.896-.3.1-.299.299-.697.498-1.096.497-.897 0-.698-.797-.399m6.969 1.595c.398-.399.398-.598.1-.997-.1-.199-.598-.398-.996-.498-.597-.2-.896-.399-.498.399l.498 1.196c.299.399.498.299.896-.1M27.69 161.03c.2 0 2.489-.698 3.285-1.097.797-.299.896-.299.598-.697-.1-.2-.2-.599-.2-1.097l.1-.698c-1.394-.299-3.385.499-4.082 1.396-.597.598-.597 1.993.299 2.193m-.299 3.489c.399.398.498.398 1.792 0 .398-.3 1.394-.698 1.991-.698 1.494-.399 1.494-.2 1.095-1.196-.199-.399-.298-.798-.199-1.196.1-.499.1-.599-.1-.599-.696-.199-4.08.997-4.678 1.994-.498.498-.398 1.097.1 1.695m78.05 33.093c.1.798.1 1.994.1 2.592 0 1.296.498 1.595.995.897.498-1.595.697-4.186 1.991-5.582.896-.299 2.091.2 2.788-.399 1.493-1.495.299-3.19-1.095-3.289-2.887-.1-4.978 3.489-4.779 5.781m7.069-3.987c.1 1.595-1.494 2.692-3.087 2.293-.697-.2-.896 0-1.294.897-.995 2.592-1.294 5.084-1.593 6.778-.1 1.495-.697 5.483-.298 6.679 4.58 5.682 9.457 11.563 14.734 17.444h31.558v-37.18l-9.06-8.673v-13.756c-9.756 4.585-19.512 9.27-29.368 13.955 2.091 6.878-5.077 8.274-6.67 3.689-1.393 1.295-2.489 8.074-1.99 8.373 0 0 .198.199.497-.3.498-.897 1.195-1.495 1.892-1.993 2.09-1.096 4.579-.399 4.679 1.794m-25.088-.698c-1.593-1.196-.697-3.09.597-3.688.697-.299 1.792-.299 2.987.2 1.095.498 1.692.398 2.787.299.697-.1.598 1.395-.199 1.794-.497.299-1.692.1-3.185-.698-2.589-1.495-3.684.399-2.091 2.093.796.898-.697.2-.896 0M35.057 170.4c1.394-.897.796-2.393-.498-2.692-1.692 0-2.09 1.994-.896 2.692 0 .2-.597 0-.896-.2-.498-.398 0-1.894-.498-1.894-.398 0-3.882 1.296-4.28 1.496-1.593.897-.1 2.89.796 2.691 1.892-.498 4.48-.897 6.272-2.093m-7.865-2.891c0 .897.299 1.296.896 1.296 1.195-.2 2.39-.798 3.584-1.196.896-.3 1.294-.598.597-1.196-.199-.2-.398-.599-.298-1.197.199-.697.1-.797-.299-.797-.299 0-.995.299-2.887.997-.995.398-1.195.498-1.394 1.096-.1.3-.199.598-.199.997m10.254 11.663c.2-.3.697-1.795.697-2.193-.1-.698-.597-.798-.995-.4-.498.5-.399 1.197-.697 1.695-.1.2-.2.4-.2.599.2.498.897.598 1.195.299m4.082-8.573c15.829-16.846 25.585-40.171 8.462-72.268-1.095-.997-2.489 2.293-2.688 2.392l-2.19 1.894c11.548 20.036 9.557 42.962-4.58 59.41v.996c0 2.293.697 2.193 1.693 1.097.995-1.097.298-.2-.1.2-.398.398-.896 1.096-1.095 1.295.2 1.495.996 4.087.498 4.984m-1.095-5.084c-.2-.498-.299-1.495-.398-2.292-.1-.499-.1-.997-.1-1.495-.2-.997-.597-3.29-.896-3.888-.398-.598-1.195-.997-2.19-.997-.797-.1-.896 0-1.095.2-.299.498-.1 2.89.199 3.688.398.997.1 1.595-.1 2.591-.1.4-.1.4 0 .4.797-.1 1.095-.998 1.394-.699.1.1-.199.898-.498 1.695-.398.797-.497 1.994 0 3.489.299.797.1 1.096 0 1.495-.1.299-.298 1.296-.298 2.293.398 1.196.199 1.794 0 2.193-.498 1.096-.797 2.492-.598 3.289.1.399.399.1.598-.598.298-1.196.697-1.495 1.692-1.495.697 0 .797.2.996-.1.497-.698 1.792-3.29 1.891-3.987.398-1.595.398-3.19-.597-5.782m7.566 11.962c.398-.2 1.095-1.096 1.095-1.395 0-.3-2.688-2.891-3.783-3.589-.498-.299-.697-.1-1.593 1.097-.796 1.096-.896 1.096-.697 1.295.2.2 2.887 1.994 3.783 2.492.299.1.797.2 1.195.1m4.978-4.585c-.399-.3-3.584-3.788-4.48-3.987-.399-.1-1.494 1.196-1.494 1.495 0 .2 1.991 2.193 3.385 3.489.398.398.797.598.996.598.398-.2 1.593-1.097 1.593-1.595m3.384-3.29c0-.2-.398-.598-1.194-1.495-2.19-2.093-3.385-3.09-3.783-3.09-.399.1-1.195 1.396-1.195 1.894.1.299 3.783 3.588 4.28 3.887.499.499 1.793-.797 1.892-1.196m3.385-3.489c.1-.299-.1-.598-.597-.996a82 82 0 0 0-2.589-2.492c-2.29-2.293-2.29-2.293-2.986-1.196-.797 1.096-.797 1.096 1.493 3.289 2.39 2.293 2.887 2.791 3.285 2.791.598-.299 1.195-.698 1.394-1.396M34.26 164.12c-.398-.1-.796 0-1.095.2-1.692 1.395.697 3.289 1.693 2.093.697-.599.697-1.994-.598-2.293m28.97-1.495c0-.2-.497-.798-2.19-2.393-4.18-3.987-3.982-3.887-4.48-3.588-.298.2-.896 1.196-.896 1.595 0 .299.399.698 3.485 3.588 1.792 1.695 2.39 2.094 2.688 2.094.597-.2 1.394-.698 1.394-1.296m-28.87.1c.796-.4.996-1.296.498-1.994-.896-.798-2.19-.1-2.19.897.199.997 1.095 1.395 1.692 1.096m32.355-3.49c0-.498-7.168-7.176-7.666-7.176-.298 0-.597.299-.896.996-.298.698-.298 1.097.1 1.396.498.498 1.891 1.794 3.186 2.99.796.698 1.692 1.595 1.99 1.894.698.798 1.594 1.396 1.892 1.396.398-.3.996-.698 1.394-1.495m-32.654-.897c0-.299-.1-.498-.298-.797-.498-.498-1.394-.2-1.593.498-.2 1.695 1.792 1.695 1.891.3m5.277-52.431 1.393-4.287 4.281-.1.598-4.286 4.38-.598.1-4.386 4.28-.598-.298-4.784 3.882-.898-.199-4.385 3.584-1.097-.1-3.788.598-.498-1.493-1.595-1.295.399v3.887l-3.584 1.196.399 4.386-3.584.798v4.685l-4.182.498-.298 4.187-4.082.797-.597 4.087-3.883.3-1.194 3.588h-2.589v2.392zm46.79 77.152c-.1-.299.199-.299.796.1.598.399 1.593.698 2.29.797.299 0 1.294-.2 2.19-.398 1.095-.4 2.09-.4 3.285-.2.896.1 1.693.2 1.892.2.597.1 1.593-.599 1.792-1.097.697-1.196.498.997.498 1.196 0 1.097.199 2.393-.697 1.794-.498-.199-1.294-.498-1.991 0-.697.499-1.195.499-1.991.1-.598-.299-.996-.299-1.494.1-.497.498-1.891.299-2.588.1-1.195-.2-1.892-.4-2.688.299-.398.199-.498.1-.896-.898-.1-.996-.398-1.993-.398-2.093m3.086-.797c-.1-.1.597-.798.996-.997 1.294-.698 3.783-.598 5.674 0 .996.399 1.095.997.2.797-1.892-.398-4.282-.697-6.173.1-.2.2-.697.1-.697.1m1.593-3.09c-1.294-.499-1.991-.997-1.991-1.197 0-.199.298-.1 1.294.1 1.394.499 3.086.798 4.48.3.995-.4 1.493-.599 1.493-.4 0 .2-.398.798-1.095 1.197-1.394.697-3.186.398-4.181 0m28.472-3.589.996-.1-.299-4.086 3.584-1.097-.299-4.087 3.783-1.296-.199-4.585 3.982-.797.498-3.988 3.783-.299.797-4.286 3.982-.1.796-3.588h2.688v-1.994h-4.181l-.896 3.888-3.982.1-.797 4.286h-4.081l-.498 4.585-3.883.598v4.984l-3.783.997.299 4.286-3.783 1.396.398 4.087zm24.988-95.494c-.498.4-.697 1.097-.597 1.795.498 1.395 2.39.996 2.588-.1.1-.399-.199-1.097-.697-1.296-.1 0-.398 0-.597-.2-.1-.099.597-.498 1.095-.398.498.2.996.897.996 1.495 0 .2-.1.598 0 .698.896 0 1.891-.498 2.887-.797 1.593-.499 2.19-1.396 1.891-2.492-.298-.898-1.194-1.296-2.489-.798-1.593.897-3.584 1.196-5.077 2.093m-69.389 99.88c5.476-3.887 8.761-6.08 15.83-6.48-2.49-.996-2.888-2.391-3.684-3.687-8.76.797-13.44 3.588-17.522 6.28 1.693.797 3.485 1.694 5.376 3.887m30.663-5.383c-2.688-1.894-5.874-2.99-9.16-3.887l-2.488 2.591c-.2-.1 7.267.1 11.648 1.296m25.685-24.82c-17.223-26.515-5.675-49.84 6.371-64.693.398-.498.498-.498.398-.897-.1-.498-.298-3.09-.199-4.585-22.1 22.03-22.698 50.638-8.86 73.365.995-.997 2.986-2.193 2.29-3.19m2.588-2.293c-2.788-4.685-17.92-30.303 5.077-58.811 0 0-.1-1.495-.298-1.994-.3-.997-.797-1.395-.797-1.395-9.657 14.553-23.694 32.695-6.172 64.294zm-13.24-48.145c.298-.3.796-1.296.796-1.695s-.299-.698-2.887-3.29c-3.485-3.488-4.082-4.086-4.48-4.086s-1.493.997-1.493 1.395c0 .2.995 1.296 3.384 3.688 4.58 4.486 4.38 4.287 4.68 3.988m3.185-6.38c0-.2-.299-.598-1.095-1.395-1.991-2.094-4.878-4.685-5.077-4.685-.299 0-1.195.697-1.394 1.196-.2.299-.2.399 0 .698.398.598 4.779 4.784 6.073 5.88.796.599 1.493-1.195 1.493-1.694m1.792-2.691c.398-.2.996-1.396.896-1.794 0-.2-1.195-1.396-2.489-2.692-2.688-2.691-2.787-2.79-3.484-2.193-.598.499-.996 1.097-.896 1.296.1.3 4.082 4.286 4.878 4.984.597.598.697.598 1.095.399m20.309-.2c1.294-1.196-.2-2.492-1.195-1.894-.398.3-.697.898-.597 1.296.2.598 1.095.997 1.792.598m2.39-.299c2.09-.598 3.085-.897 3.583-1.595.299-.498.299-.697 0-1.495-.298-.698-.697-.897-1.99-.2-.897.5-2.988.699-3.684 1.197-.299.2-.1.2.1.399.497.299.796.498.696.997-.1.897 0 1.096 1.294.697m-2.19-3.29c.995-.498.795-1.793-.3-2.292-1.493-.398-2.488 1.396-1.294 2.293.299.2 1.195.2 1.593 0m3.384-.498c1.493-.498 2.09-.897 2.489-1.694.298-.698.199-.897.199-1.595-.1-.997-.597-.797-1.892-.299-.697.299-3.882 1.196-3.982 1.495 1.593.897 1.195 1.396 1.195 2.492 0 .2.796 0 1.99-.399m-20.21-1.594c0-.4-4.18-4.486-4.579-4.486-.697 0-1.692 1.096-1.493 1.695.1.299 3.982 4.186 4.48 4.485.597.399 1.493-.997 1.593-1.694m2.39-2.492c.199-.1.498-.499.697-.798.497-.698.398-.997-.1-1.395-.199-.1-1.095-.897-1.891-1.795-.896-.797-1.693-1.594-1.792-1.594-.697-.1-1.991 1.096-1.892 1.594.1.3 3.285 3.49 3.982 3.888.299.399.598.399.996.1m5.575-6.08c0-.1-.697-.599-1.892-1.197-3.584-1.894-3.584-1.894-4.679-.997-.398.3-.697.698-.697.798s.797.996 1.792 1.894c1.991 1.893 2.49 2.292 2.788 2.292.597-.498 2.588-2.292 2.688-2.79m4.977-1.795c.399-.499.896-2.293.697-2.692-.199-.199-.796-.199-.995.1-.299.2-.996 2.492-.797 2.791 0 .2.697.1 1.095-.2M103.55 151.26c.298 0 .995-.498 1.99-1.296.996-.897 4.282-2.79 4.58-3.588.2-.399 0-1.097-.298-1.097-.3 0-.3.2-2.49 1.695-1.493 1.096-3.981 2.89-4.38 3.29-.199.398.2.996.598.996m-.299 12.46c2.19-1.495 3.982-3.09 6.87-4.884.198-.3.298-.698.099-1.097-.2-.398-.398-.299-1.294.3-2.091 1.395-4.281 3.09-6.173 4.385-.597.399-1.095.598-.995.798.298.398 1.194.498 1.493.498m2.09.997c1.494-1.196 3.186-2.293 4.78-3.489.198-.2.298-.997.099-1.296-.2-.2 0-.2-.498.1-.597.399-4.38 2.89-5.077 3.489-.398.299-.797.498-.598.598a3.8 3.8 0 0 0 1.295.598m1.892.897c.299-.2 2.887-1.894 3.086-2.093.2-.3.2-1.396-.1-1.495-.696.498-4.08 2.591-4.08 2.99.298.399.796.598 1.094.598m2.688.3c.398-.4.498-.4.498-.798 0-.698-.2-.698-1.195 0-.697.498-1.194.797-1.095 1.096.597.798 1.294.1 1.792-.299m.299 1.494c.199-.1.199-.199.199-.398 0-.3-.1-.3-.398-.3-.797 0-.1.698.199.698m-10.055-4.186c.398-1.296.896-2.293 1.792-3.19 3.484-3.09 2.39-6.878.199-9.968a196 196 0 0 0 8.064-12.061v-6.28h.298c-.1 13.756.498 36.184.498 36.184l2.788 2.193-.398.2c.597-.1-8.064-5.483-13.241-7.078m2.588-1.595c2.39-1.794 4.779-3.29 7.168-5.184.299-.199.398-.199.398-.697 0-.897-.199-.897-1.095-.3a66 66 0 0 1-3.185 2.194c-1.394.996-2.788 1.794-2.987 2.093-1.294 1.595-1.792 2.293-1.692 2.492.1.399.298.1 1.393-.598m2.589-4.386c1.194-.798 4.18-2.89 4.48-3.09.497-.399.597-1.097.1-1.196-.2 0-2.49 1.495-4.381 2.99-.896.698-1.195.897-1.195 1.595 0 .299.299.2.996-.3m1.294-3.19c3.783-2.691 3.683-2.492 3.584-3.489 0-.299-.1-.498-.299-.498-.1 0-.796.498-1.493.997-.797.498-1.693 1.196-2.09 1.595-1.295.897-1.793 1.196-1.793 1.694 0 .499.1.798.398.798.1 0 .797-.499 1.693-1.097m-.597-2.093c1.792-1.196 3.683-2.592 3.882-2.99.299-.4.299-1.296-.1-1.296-1.791 1.196-3.882 2.691-5.375 3.887-.2.2-.399.3-.498.598 0 .3.299.698.498.698.298 0 .796-.299 1.593-.897m-1.096-4.187c1.295-.897 2.589-1.993 3.883-2.89.996-.698 1.294-.898 1.195-1.795 0-.498-.498-.199-2.19.897-1.195.798-1.792 1.197-2.19 1.695-.3.698-1.295 1.396-1.394 2.193 0 .399.199.299.696-.1m4.082-5.382c.996-.698 1.095-.698.996-1.595-.1-1.097-.299-1.097-1.195.398-.597.997-.896 1.296-.796 1.496.1.299.298.1.995-.3m-3.783-8.374c-.1-.498-.299-.398-.796.1-.996.798-1.095 1.396-.498 1.794.299.2.597.1.697-.299.498-.897.597-1.196.597-1.595m-5.276 7.975c-.1-.499-.697-1.097-1.095-1.296-.399-.2-.697-.2-1.095.299-.399.498-.2.797.398 1.495.398.499.597.698.896.698.398-.2.995-.698.896-1.196m-20.508 19.737c-.299-.499-.797-1.097-1.095-.997-.299.1-.598.498-.598.797.1.499.598.897.896.897.598-.1.996-.199.797-.697m2.489-.798c-.498-.598-1.593-1.794-1.792-1.794-.299 0-.896.698-.896.997s.995 1.694 1.294 1.794c.796-.1 2.29 0 1.394-.997m3.086.2c-.1-.3-3.086-3.49-3.285-3.49-.3 0-.896.599-.896.898 0 .2.995 1.495 1.891 2.492.498.498.498.498 1.095.498.498-.2 1.294-.1 1.195-.399m5.376-.798c0-.698-.299-.997-1.693-2.492-.498-.498-1.294-1.495-1.891-2.093-.996-1.196-1.494-1.495-1.892-1.495-.298 0-.796.498-.796.897 0 .199 2.489 3.09 4.778 5.582.498.498.697.698 1.195.398.299-.199.299-.498.299-.797m-3.982-7.775c-.498.399-.697.598-.697.897 0 .399 4.38 5.283 4.778 5.283.2 0 .2 0 .299-.598.299-1.595-.2-1.994-1.294-3.09-.697-.698-2.29-2.99-3.086-2.492m7.765-3.19c-1.195-1.495-1.892-2.093-2.09-2.093-.2 0-.4.2-.698.498-.498.399-.398.399-.1.897.2.3.598.798.897 1.197.696.697.995.897 1.294.598.199-.399.995-.698.697-1.097m-.697-3.688c-.299 0-.797.498-.797.797 0 .2.996 1.496 1.693 2.094.597.498.796.598 1.194.299.3-.399.2-.798 0-1.097-.398-.498-1.493-1.993-2.09-2.093m3.484.399c0-.399-1.294-2.094-1.692-2.193-.299 0-.996.797-.996 1.096 0 .2.299.598.697 1.097.896.997 1.095 1.296 1.294 1.096.299-.2.697-.698.697-1.096m1.394-1.795c.1-.398-.1-.697-.597-1.395-.598-.797-.896-.797-1.494-.2-.199.2-.298.4-.298.499 0 .3 1.294 1.994 1.593 1.994.398-.1.597-.499.796-.898m-2.29 4.087c-.1.499-.298.898-.896 1.097-3.982 2.89-3.882 7.576-4.679 11.862-6.47-.1-16.725 2.592-16.625 2.691l34.346-34.689s.398.1.199.4c-2.788 1.993-2.589 5.88-4.48 7.874-3.086 3.788-5.874 6.978-7.865 10.765m-18.716 14.155c.1-.399-.299-.498-.597-.2-.299.3-.2.599.298.499q.3 0 .3-.299m10.652-1.396c.1-.299-.199-.598-1.99-2.69-1.892-2.094-2.29-2.593-2.59-2.593-.298 0-.895.698-.895.997 0 .1.299.499.697.897.398.4.995 1.097 1.493 1.695.797.897 1.195 1.395 1.493 1.595.3.2.498.2.996.2.597 0 .697 0 .796-.1m3.186-6.578c.1-.4.299-.798.299-.898 0-.299-2.39-2.69-2.788-2.99-.498-.299-1.394.698-1.194 1.296.1.2.796.997 1.592 1.794.996 1.097 1.494 1.595 1.693 1.595s.199-.2.398-.797m.996-2.492c.199-.3.298-.599.298-.698 0-.2-.398-.698-.995-1.296-1.095-1.196-1.294-1.296-1.892-.797-.597.598-.398.797.598 1.893 1.294 1.496 1.393 1.595 1.99.898m8.96-11.264c.398-.499.398-.698 0-1.097-.2-.2-.399-.399-.498-.598-.299-.399-.797-.299-1.195.2-.2.199-.398.498-.398.598s.199.398.498.697c.696.698 1.095.798 1.592.2m1.393-1.795c.299-.398.1-.897-.398-1.295-.498-.4-.697-.499-.996-.1-.398.498-.398.698.1 1.196.498.598.996.698 1.294.2m1.095-1.495c.398-.398.398-.698 0-1.096-.298-.399-.597-.499-.995-.3-.598.3-.498.798.1 1.396.298.3.497.399.895 0m-26.282 74.063c7.068.797 14.635 1.296 27.875-.698l.1-4.486c-4.182 3.29-9.657.997-9.956-2.691 0-3.29.896-7.177 1.593-9.868.598-1.994.697-2.791.2-3.19-1.195-.698-3.186-.698-3.684-2.093-.299-.698-.299-1.496.1-.898.198.3 1.493.898 2.488 1.097 1.792.399 2.09.498 2.29 1.296.1.498-.2 2.093-.597 3.588-.299.997-.697 2.692-.697 3.09 0 .4.298.4.597.3.1 0 .796-.698 1.195-.997 1.692-1.595 2.19-1.496.796 0-.597.598-1.394 1.395-1.394 1.495 0 .299.299.299.996 0 .995-.399 3.385-.3 4.48.2 1.294.697 1.394.597 1.394-1.396-.2-3.788-.896-8.274-2.091-11.763-1.892-5.382-5.774-10.267-11.548-10.067-7.069.398-11.25 3.19-16.028 6.579 2.887 6.38-1.295 11.363-2.788 11.961-.1.1 1.892 6.48 2.788 9.769.597 2.691 1.891 8.772 1.891 8.772m29.866-154.804c-.199-.399-4.081-13.158-5.177-18.54-10.552-.598-18.417-1.496-27.675 1.196 0 0-.2 3.588-.1 3.788.1.398.398.398.697.299 4.28-2.393 8.96-1.296 9.258 4.485.1 2.193-.597 3.788-.796 5.881-.1 1.894-1.593 4.287-.697 5.682.1.2.697.499 1.593.897 1.593.698 2.19 1.296 2.29 2.293.199.698-.299 1.196-.399.498-.1-.498-.199-.897-2.09-1.495-1.892-.698-2.39-1.395-2.589-1.794-.298-.598-.199-.897 0-1.794.498-1.894.996-3.788.996-4.685 0-.3-.398-.2-.796.2-.598.497-3.087 2.092-3.087 2.092s.399-.697 1.095-1.395c.797-.798 1.892-1.794 1.892-1.994 0-.299-.1-.1-.896.1-1.394.399-3.086.299-4.181-.2-.896-.398-1.593-.697-1.693-.398-.298 5.682.498 11.563 2.887 16.148 2.091 4.187 6.57 9.37 13.241 8.174 6.87-1.196 13.54-6.778 13.34-6.778-2.588-5.782.299-10.068 2.887-12.66M52.678 211.965c-3.086-3.09-10.752-6.38-16.028-7.874-.398-.1-.797-.3-.797.2l-.1 10.465-9.457 8.872v4.187h20.31l13.34-19.538s.597-.1.696-.2c-2.489-10.366-6.073-18.64-8.462-22.826 0 .1-3.385 2.791-6.371-.598-1.693-1.894-.697-5.183.896-6.38-1.295-.996-4.082-2.79-5.974-3.289-.398-.1-.896.698-1.095 1.396-.298 1.096-.896 2.093-1.294 3.289-.398.997-.796 1.096-1.394.797-.995-.299-1.194-.398-1.194-.398v12.36c7.267 2.492 14.833 8.971 16.924 19.537M83.042 79.89l2.19-2.392c-3.385-.4-6.969-.997-11.15-2.393 2.787 2.293 5.874 3.589 8.96 4.785M71.095 73.31c3.783 1.296 8.661 4.286 14.635 3.09-5.476-2.193-9.657-7.276-11.449-17.643-.398 1.993-1.195 6.18-2.489 6.678-1.792-6.878-8.96-2.89-6.073 2.692-7.267 4.984-15.928 7.775-23.793 11.662 0 0-1.195 3.688-7.068 8.673-1.095-5.882.199-14.554-.498-20.435l-9.258-8.772c.1 1.695.1 2.692 0 4.685.298.3.597.499.995.698.597 33.792-.199 67.184-.199 97.886-.1 18.84.398 38.377.1 56.12l-.3.598v4.286l9.458-9.07s-.398-6.38.1-11.264c5.973 1.196 11.548 3.987 16.526 7.077.597.2-3.086-12.26-16.526-17.843v-12.36c0-8.174-.1-9.071-.299-9.17-.497.597-7.367 2.89-7.765 2.491.2.1-1.891-14.453-.1-16.646l6.571.1c1.892 1.494 1.095-.3 2.19-.599.697-.2 3.684.997 3.684.997 12.544-14.852 11.25-39.174 2.29-52.93-2.29 1.894-4.779 4.386-7.069 5.482v-7.576c11.947-7.675 24.988-30.003 24.192-30.103 0 0 3.683 3.588 5.177 5.682L52.28 94.94c2.688 5.482 5.475 10.366 7.267 15.25.2.699.996.599 1.195 1.297.199.598-.598 1.395-.498 1.993 2.489 9.57 3.086 19.737.597 28.908-.497 2.093.398 3.787 1.693 5.283.1.1-1.195-1.097-1.295-1.197-.398-.299-1.194.698-1.294 1.795.1.697.498.897.996 1.395.896.798 4.58 4.286 6.172 5.981 1.394 1.495 1.792 1.495 2.788.498l.796-.797c0 .1.398-.299.498-.399l21.304-20.833c2.49-2.392-21.304 21.93-21.304 21.93s-11.548 11.363-14.336 14.154c-2.887 2.891-3.285 3.49-3.484 3.689-.2.398.896.398 1.493.299 0 0-.398.1-.896.1-2.987-.4-3.982 2.69-5.874 3.289-4.977 3.588-1.592 9.27 3.186 7.376l1.195-.598c2.887 5.383 7.068 15.251 9.06 23.824l-.797.398-12.644 18.94h71.58c-5.177-5.084-9.558-11.464-13.938-16.149-7.168 2.094-28.771 1.695-28.373.798 0 0-3.285-13.258-5.077-19.737 5.874-5.084 5.276-12.958-3.285-16.547 6.172-4.884 12.444-6.579 18.517-6.977 1.99 4.984 6.57 5.382 8.86.697 0-.1 8.263 2.492 11.25 5.283-4.48-.498-8.96-1.395-13.44-1.595 3.982 1.595 7.964 5.682 9.258 10.367.597 1.695 1.593 7.177 1.892 7.177 0 0 1.493-6.38 2.688-5.98 2.986 6.18 8.063 1.495 5.973-3.39 7.566-3.588 16.028-7.675 22.997-10.965 1.99-3.09 6.968-8.871 7.367-8.871 0 0 9.159-52.631 9.159-70.175-.3-21.132.398-44.657-.498-64.493v-5.682h-19.314l-14.236 20.534s-.1.3-.1.499c1.892 8.173 4.282 15.25 8.065 22.826 5.276-3.987 9.656 2.592 5.774 6.38-.697.698-.498.897.199 1.395.697.499 5.674 2.99 5.973 2.99.896-1.295 1.195-3.289 1.792-4.784.199-.598.597-.598 1.493-.498 1.095.1 1.095.598 1.095-6.48v-6.08c-6.77-3.09-15.63-10.965-16.028-19.139 3.883 2.791 12.843 6.978 15.232 7.277 1.095.3.896-1.495.896-2.293.299.2.398 2.99.398 2.99-3.982-1.195-5.973-.996-15.829-6.678 1.693 8.074 9.756 14.454 15.63 17.345 0 0 .2 3.787.2 8.074 0 13.058.099 13.656.099 13.656s3.185-.798 4.081-1.296c1.593-1.296 4.182-.299 4.48.598.498 4.984 0 9.47-.1 14.254-2.687.2-4.18.798-5.574.798-.896-.1-1.394-.1-1.892-.598-1.294-2.791-1.194-.997-1.394 1.096-.1.598-3.384-.498-3.683-.697-14.037 16.247-12.842 34.888-3.285 52.232 1.593-1.096 4.28-3.09 6.968-4.486.1 2.193.1 6.779.1 6.779-11.05 8.074-24.192 29.505-23.793 29.605l-4.48-5.383s2.787-4.486 3.783-5.682c.1-.1.199-1.495.199-1.495l6.87-9.868c-2.888-6.58-6.87-11.663-7.965-18.142-4.58-20.634.398-30.901 0-31.699 0 0-.1-.398-.2-.498-.198-.1 0-.2.2-.498.299-.598.796-1.795.697-2.094s-3.783-3.987-6.969-6.977c-1.692-1.595-1.593-1.794-2.489-.897-.299.299-1.095 1.295-1.095 1.295-11.449 10.666-20.508 20.335-32.056 31.6l-.597-.5c16.724-16.646 33.649-33.193 50.174-49.94h-2.887c.1-.198.2-.398.399-.497 1.592 0 3.185-.499 4.28-1.097 2.39-1.794 5.775-4.087 5.974-6.48-.2-4.485-3.883-5.083-6.67-2.89-3.783-6.778-6.77-14.952-8.363-22.627-.1-.4-.597-.997-.697-1.496.797-2.492 13.639-20.035 13.639-20.035H60.045l13.738 16.347c0-.698 19.513-2.99 28.473-.2l5.475 19.339c-4.978 4.785-6.371 12.66 2.688 16.746.199.399-.896.997-.896.997.1-.2.398-.498.299-.698-2.49-1.096-5.078-3.788-5.078-3.788-5.475 4.287-10.552 6.679-15.63 6.878 0 0 2.688 1.795 3.186 3.788 0 0-.199 0-.298-.1-.498-.697-1.792-2.79-2.888-3.488-1.792-.4-2.887-.1-4.28.897l-1.892 1.794c-4.28-1.395-9.159-3.588-11.847-6.878m-.697 47.348 1.991-1.993c.2-1.496.598-3.29 2.29-5.383 1.892-2.293 3.982-4.386 5.476-6.38 1.792-2.392 2.787-4.585 2.29-5.582 2.687-.498 5.176-2.89 5.276-7.276 0-2.293 1.095-5.682 1.194-5.582 0 0 19.015-.698 32.057-13.158 0 0 .896.2.696.398-4.977 4.984-10.254 8.673-16.426 10.965l-34.346 34.39zm3.783-3.887c.498-.499.598-.698.3-.897-.4-.4-1.295.398-1.295 1.196.1.398.398.299.995-.3m1.792-1.795c.399-.398.399-.697.1-.996-.498-.499-1.095-.2-1.394.598-.199.698.697.997 1.294.398m1.593-1.594c.2-.2.398-.499.398-.499 0-.299-.696-.897-.896-.897-.398 0-.995.598-.995.997 0 .299.697.897.995.897 0 0 .3-.2.498-.498m1.494-2.891c-.498-.399-.797-.399-1.195 0-.498.498-.398.897.1 1.395.398.4.597.4 1.095 0 .497-.398.597-.897 0-1.395m1.692-.3c.498-.398.398-.797-.1-1.295-.597-.598-.995-.598-1.393 0-.2.2-.2.498-.2.498 0 .2.996 1.097 1.195 1.097.1 0 .299-.1.498-.3m1.692-1.594c.399-.498.399-.798-.199-1.396-.497-.498-.896-.598-1.294-.199-.498.399-.398.897.2 1.396.397.598.796.697 1.293.199m1.892-1.994c.299-.299.199-.299 0-.697-.299-.599-1.394-1.496-1.593-1.496-.398 0-.697.598-.697 1.197 0 .598.299.797.996 1.395.497.399.298.399.697.2.199-.1.398-.4.597-.599m1.493-1.296c.697-.797.498-.897-1.095-2.69-.597-.599-.697-.699-1.095-.599-.398 0-.398.1-.597.498-.399.698-.1 1.097.896 2.193 1.095 1.097 1.294 1.197 1.891.598m1.693-1.794a.86.86 0 0 0 .398-.698c0-.299-1.294-1.794-1.792-1.993-.299-.2-.697-.1-1.095.299-.299.2-.299.299-.2.498.1.399 1.793 2.193 2.091 2.193q.15 0 .598-.299m1.592-1.694c.3-.3.498-.598.498-.798 0-.299-1.394-1.993-1.891-2.193-.399-.2-.598-.1-.996.399-.398.598-.298.897.597 1.894.797.897 1.096 1.196 1.195 1.196.1 0 .299-.2.597-.498m1.593-1.695c.399-.2.797-.698.598-1.096-.2-.4-2.688-2.99-2.987-3.19-.498-.3-.498.1-.498 1.395v.698l1.195 1.097c1.692 1.794 1.294 1.395 1.692 1.096m1.991-1.794c.2-.2.399-.499.399-.698-.996-1.296-4.082-5.283-4.58-5.084-.1 0-.1 0-.1.1-.099.399-.199 1.196-.099 1.894.996.897 3.186 3.888 3.684 4.087.298.1.398 0 .696-.3m1.693-1.695q.298-.299.298-.598c0-.1-.298-.498-.696-.997-.399-.398-1.096-1.295-1.593-1.894-2.788-3.588-3.086-3.787-3.485-3.488-.298.199-.398 1.096-.199 1.395.2.499 3.385 4.286 4.38 5.283.598.698.797.698 1.295.3m1.593-1.595c.199-.199.398-.498.398-.697 0-.1-.498-.698-.896-1.296-.498-.598-1.294-1.495-1.792-2.093-1.294-1.595-1.294-1.595-2.19-1.695-1.394-.1-1.294.2.398 2.093.398.499 1.095 1.396 1.692 1.994 1.195 1.495 1.693 2.093 1.991 2.093 0 0 .1-.2.399-.399m1.692-1.594c.697-.599.597-.798-1.792-3.29-.796-.797-.796-.897-1.493-.897-.598 0-.797.1-.797.399 0 .199 3.087 3.887 3.385 3.987.2.1.299.1.697-.2m1.692-1.795c.2-.2.399-.498.399-.598 0-.299-.697-1.096-1.295-1.694-.298-.3-.696-.499-.895-.499-.399 0-1.096.2-1.195.399-.1.1.896 1.296 1.792 2.193.498.598.697.698 1.194.2m1.593-1.595c.399-.398.399-.697 0-1.295-.298-.4-.398-.4-.995-.4-1.095 0-1.195.3-.299 1.197.597.797.797.997 1.294.498m1.593-1.594c.398-.599.1-.898-.697-.499-.199.1-.298.3-.298.399-.2.498.597.598.995.1m-27.377 4.684c-1.593.997-4.28 2.891-6.073 4.187 0 .3-.1.997 0 1.495.996-.698 4.281-2.79 5.874-3.987 0-.498.1-1.296.199-1.695m2.887-4.585c-.1-.299-.2-.1-.697.3-.597.498-5.874 4.385-7.168 5.382-.497.399-.995.698-1.095.797s-.1 1.197.1 1.396c1.095-.897 6.47-4.486 6.57-4.585.498-.897 1.693-2.393 2.29-3.29m-.597 11.663s-6.372 7.675-8.462 11.563c0 0 0 4.386-.1 6.878l-.398.1s0-6.779-.1-14.155c-.199-18.341-.398-22.827-.398-22.827l-2.09-1.495-.1-.698s9.258 6.48 13.738 7.476c-3.285 5.084-6.272 7.077-2.09 13.158m-7.566 9.17c.1-.299 0-.299-.2-.299-.199 0-.298.2-.298.4 0 .198 0 .298.199.198 0 0 .2-.1.299-.299m1.493-2.292c.896-1.097 1.692-1.894 1.792-2.692-.597.1-3.982 2.492-4.082 2.692 0 1.296-.298 1.395.797.897.497-.2.896-.499 1.493-.897m.299-2.791c.995-.798 4.58-2.791 4.977-3.688.2-.4-.398-.898-.398-.798.1.1-5.177 3.19-7.068 4.884-.2.2-.1.598 0 .898.199.398.597 0 2.489-1.296m-1.195-1.496c1.095-.697 3.584-2.492 4.28-2.89 1.096-.798 1.295-.997.897-1.595-.2-.2-.398-.399-.697-.2-3.086 2.193-3.385 2.493-5.774 4.087-.2.4-.1 1.097.1 1.296.198 0 .497-.2 1.194-.698m0-2.392c2.887-2.093 4.38-3.09 4.48-3.29.1-.298.1-1.195 0-1.295-1.095.797-3.883 2.492-5.774 4.087-.1.299-.1.997 0 1.196.298.1.398-.1 1.294-.698m-.398-7.376c2.09-1.495 3.982-2.89 6.172-4.286 1.792-1.197 2.09-1.496 1.394-1.894-.2-.1-.697-.3-.996-.2-2.389 1.994-5.077 3.788-7.665 5.782-.1.299 0 .797 0 1.096-.1.3.398 0 1.095-.498m-.299-2.193c.2-.1 1.294-.897 2.39-1.695 3.086-2.193 3.484-2.492 3.484-2.691 0-.698-.896-.798-1.693-.1-1.493 1.196-5.077 3.39-5.077 3.788 0 .498-.1.897 0 1.097.299.199.498 0 .896-.4m.896-3.09c3.186-2.193 2.987-2.094 2.987-2.492 0-.3-.299-.2-.797-.2s-.498.1-1.294.798c-1.792 1.395-2.489 1.794-2.688 2.193-.1.1-.1.598 0 .797.299.1.498-.1 1.792-1.096m.2-2.193c.596-.499 1.094-.897 1.194-.997.1-.2-.398-.698-.697-.698-.398 0-.697.2-1.593.997-.796.698-.995.598-.896.997 0 .2 0 .797.1.797.1.399.597.1 1.891-1.096m-1.195-1.396c.696-.598.796-.698.298-1.196-.398-.399-.995-.598-1.194-.299-.1.2 0 1.396 0 1.595-.1.399.398.299.896-.1m14.236-12.061c0-.2 1.194-1.097 1.99-1.296 1.096-.2 2.49-.1 3.485.399.797.399 1.792 1.395.398.797-1.194-.598-3.882-.598-4.878-.1-.697.3-.995.4-.995.2m-.896-4.286c.1-.1 1.294.199 1.891.398 1.693.499 3.086.2 4.878-.299.399-.1.598.2.399.4-.896.597-2.091.996-3.087 1.096-2.29.199-4.679-.997-4.081-1.595m-10.951-3.29c.995-.498 2.09-7.077 1.792-8.174-1.195 1.795-2.49 2.592-4.38 2.293-3.087-.498-3.186-4.286-.797-4.685.896-.2 2.09.499 2.29.3.995-.5 1.792-3.888 2.09-4.985.2-1.096.399-4.087.498-4.984.1-1.993 0-4.984 0-4.984L58.751 21.377H26.396s-.1 24.92 0 37.679l8.96 8.871.1 14.354c10.353-4.485 20.308-9.27 30.064-14.354-1.095-1.395-1.095-4.784.996-6.08 2.887-1.794 5.376.698 5.575 2.691m8.163 3.09c.1-.797.697-1.495.697-2.292 0-.2.1-.4.597-.1.598.299.797.1 1.494-.2 1.294-.597 1.593-.597 2.588-.199.597.3.797.3 1.394 0 .796-.498 1.692-.697 2.39-.498 1.094.399 1.393.598 1.99.299.299-.1.697-.698.797-.698.398.698.398 1.695.597 2.293.498.997.299 1.694-.299 1.196-1.194-.997-2.19-.997-3.882-.598-.996.299-1.494.498-2.688.299-3.485-.399-3.783-.3-4.48.2-.597.398-1.095.498-1.195.298m9.458-6.479c-.996-.299-2.19-1.196-2.987-.897-.995.1-1.593-1.196-1.095-1.794.896-.897 2.29 0 2.887.398 1.195.898 1.394.997 1.892.997 1.99 0 1.593-1.894.597-2.591-.597-.599-.597-.997-.498-1.097.2-.2.797 0 1.394.598 1.195 1.097 1.195 3.39-.2 3.987-.796.4-1.293.598-1.99.4m4.181-6.38c-.896-.697-2.588-2.192-2.987-2.69-.696-.898-.995-1.496-.896-2.194.1-.598.2-.897-.199-1.096-.398-.2-.796-1.097-.697-1.495 0-.1.498 0 .697.299.299.1.299-.1.598-.4 3.783-2.491 6.77-2.092 10.353-.298.996.498 3.783 2.591 2.29 1.894-.1 0-.996-.499-1.991-.897-3.086-1.496-6.57-2.393-9.358-.499-.498.3-.797.598-.398.598 1.592-.299 3.185-.997 4.778-.897 2.39 0 3.883 1.196 5.675 2.093 1.99.898 2.389 1.197 1.593 1.894-.2.2-.399.2-1.295.1-.995-.1-1.095 0-1.692.3-1.493.996-3.484 1.494-5.177 1.395-2.09-.2-2.29-.3-2.29 0 0 .199.399.498.996 1.096.498.399 1.095.997 1.095 1.097.2.199-.597.1-1.095-.3m-.597-3.289c0-.2-.498-1.296-.697-1.595-.299-.299-.498-.2-.996.2-.398.299-.497.498-.1.897.797.697 1.793.897 1.793.498m3.086.1c.796-.399 1.692-1.794 1.294-2.293-.199-.299-.398 0-.896.798-.199.398-.597.797-.697.897-.697.498-1.593 0-1.99-.997-.2-.598-.499-.997-.698-.798-.498.4.1 1.994.996 2.393a2.32 2.32 0 0 0 1.99 0m2.588-.2c.797-.299 1.195-.598 1.195-.996-.1-.3-.697-.698-1.095-.698-.2 0-.498 0-.697.2-.299.398-.697 1.494-.796 1.694.1.2.398.1 1.393-.2m2.887-6.28c-4.18-1.594-7.466-2.292-11.448-.498-1.295.598-1.991.598-2.091.2-.1-.4.896-1.496 1.892-1.994 2.787-1.296 6.072-1.396 8.96 0 1.094.498 3.982 2.592 3.982 2.791-.1 0-.399-.1-1.295-.498m48.98 47.05c.996-.499 1.494-1.595.797-2.193-.2-.2-.398-.2-.597-.2-.398 0-2.987.698-3.485.997-.298.2-.199.499.1.798.1.1.299.398.299.697 0 .4-.1.798.199.698.597-.1 1.393-.2 2.688-.797m-3.683.897c.299-.499.2-1.196-.597-1.695-.398-.2-.697-.1-.996.399-.796 1.395 1.095 1.994 1.593 1.296m-3.783.698c.2-1.695.1-6.878.1-6.878s-.896.797-1.494.797c.2-.797.498-.997.797-1.794.199-.798.298-2.193.199-2.89-.1-.898-.697-.898 0-2.393.299-.798.398-1.595 0-2.592-.2-.498-.2-.797.199-1.395.398-.599.299-.898.299-1.994 0-1.595 0-1.894-.498-.598-.697 1.096-1.095.897-2.19.797-1.095 2.492-2.39 4.984-2.39 7.177 0 1.296 0 1.495.797 4.287.299.996.398 1.395.398 2.591s.1 1.595.299 2.293c.199 1.096 1.493 3.09 3.484 2.592m-38.03 110.346v-2.492s-3.981 1.196-5.973.498c-2.09-.598-2.09-.698-1.99-.399.099.4 1.592 1.197 2.986 1.496.996.199 2.987 0 3.982-.3.597-.199.597 0 .398.2-2.389 1.894-5.475.997-7.367-.598-.995-.997-1.692-.997-1.194.299 2.688 5.482 9.258 2.292 9.159 1.296m-2.588-3.589h.896s-.298-1.595-.697-1.993c-.995-.898-2.29-.798-3.185.1-.399.398-.697 1.893-.697 1.893h.697c.298-.698 1.393-3.987 2.986 0m-3.584-2.392c-.497-.1-1.592.399-2.19.698-.199.199-.199.299 0 .598.498.697 1.294.997 1.394.797.199-.399.796-1.993.796-2.093m5.874 1.694c.1-.498-.299-1.295-.996-1.594-.298-.1-.597-.1-.497.199.1.399.298.997.497 1.395.1.3.2.499.498.4.2-.1.398-.2.498-.4m38.428-32.695v-4.186c-2.091 2.093-4.878 5.681-5.675 7.077zM79.159 51.88c.896-.399 1.593-1.595 1.294-2.093-.1-.4-.497-.1-.896.498-.597.897-.796.997-1.294.997-.597 0-.796-.1-1.195-.897-.298-.698-.497-.798-.696-.499-.1.1-.1.3 0 .897.497 1.197 1.493 1.695 2.787 1.097m2.39-.399c.995-.299 1.194-.498 1.194-.797s-.796-.798-1.294-.698c-.299.2-1.195 1.495-1.095 1.794.1.1.398 0 1.194-.299m-5.675-.598c0-.299-.1-.598-.2-.698-.298-.398-.995-.1-.995.399 0 .399.498.797.996.797.298 0 .298 0 .199-.498m5.575-2.492c1.394.498 2.09.598 1.394-.1-1.095-1.196-5.874-2.492-8.462-.598-.2.3-.1 1.296.1 1.196 1.99-1.395 4.678-1.395 6.968-.498m-4.779-3.987c-1.194.399-2.29.997-2.389 1.595-.2.897.2.897 1.692.498 1.991-.698 4.182-.399 5.874.598 1.294.897 1.692.598 1.493-.2-.796-2.59-4.778-3.09-6.67-2.491"/>
    <path fill="#e2cf00" d="m152.63 27.557-8.662 8.672.1 10.267c.896 1.595-13.44-4.585-15.73-6.48.3 6.879 9.558 14.654 15.63 17.445l.2 21.83c2.488-1.296 5.575-2.093 7.765-2.293 1.194-14.852 2.19-34.19.697-49.441m-48.483 10.765c-.896 0-1.394.2-1.394.798-.298 0 3.186 12.759 4.779 18.142-3.086 3.09-6.272 8.472-1.693 13.556.996 1.097 2.788 1.994 4.48 2.99.797.698-9.358 7.277-18.317 7.277-2.888-6.38-6.87-2.79-9.16-.598-1.692-.2-8.163-3.987-11.548-6.18-.1 0 0-.997 0-1.097.2 1.496 12.942 4.785 13.54 3.29-.399 0-5.675-3.589-7.268-7.177-1.99-3.987-3.484-9.57-3.484-9.57-.697 2.094-.498 4.885-2.39 5.882-.597-6.679-10.054-3.29-5.375 3.29-2.688.797-4.978 2.192-7.467 3.289 5.376 7.376 12.843 12.26 20.707 15.151-.995 2.193-7.168 7.177-2.09 13.058.199.2-4.779 5.682-7.268 9.968-1.891 3.19-1.294 5.682-1.095 5.782 6.77-7.775 10.652-14.454 10.652-14.454-.1.897 8.064.399 7.965-6.878.199-1.994.497-4.087 1.294-5.98 12.444.597 23.096-3.888 32.156-13.159 0 0 1.792.499 2.986.698 3.186-.1 4.978-1.694 6.471-3.19 1.394-1.096 2.688-2.193 3.186-3.289 1.792-7.675-6.073-4.685-6.371-4.286-4.48-6.08-8.263-23.325-8.86-23.425-2.59-.698-11.051-3.987-14.436-3.888M73.584 49.985c-.299 0-1.493 5.383-2.588 5.283-4.48-2.89-4.58 3.09-.697 2.791 3.285-.2 5.077-5.383 3.285-8.074M25.7 60.152c.1 32.496.697 64.892 1.493 97.388 2.887-.698 5.077-1.296 7.964 0 .3-9.27-.497-32.496-.298-55.024 10.95-8.572 18.616-17.942 23.992-30.203l-16.725 7.875s-5.475 7.875-7.168 8.373c-.199-1.096-.497-14.354-.298-20.036zm37.133 20.036-3.285 4.785s.1 16.347.299 24.222c.1 1.595 1.593 2.99.398 4.386.697 0 3.683 21.232.796 29.804-.497 1.496 0 2.592.797 2.99 4.081 4.586 6.371 8.972 11.847 6.38 5.873-5.382 14.335-14.952 14.335-14.952l-22.2-21.032c-1.991-5.084-2.987-36.583-2.987-36.583m81.037 68.181c-10.055 9.071-19.313 18.342-23.097 29.605 5.376-2.193 10.553-4.784 15.83-7.276 2.588-3.09 4.48-5.981 7.366-8.971 0 0 .3 13.257.1 19.936 2.588 1.993 8.86 8.074 8.86 8.074s1.693-94.497-1.99-96.89c-3.585.698-5.377 1.994-6.77-2.193-.996 19.338-.3 57.715-.3 57.715m-34.943-53.13c-3.883 3.19-17.223 16.348-17.223 16.448 3.584 5.98 17.521 17.843 24.191 24.521l.996 33.991c.995-1.295 1.692-2.591 2.787-3.887 0 0-.199-17.145-.597-25.22-.1-2.392-.697-4.286-.498-4.485-1.891-9.769-2.688-20.634 0-31.1-6.371-5.582-8.362-9.17-9.656-10.267m.995 38.776c-3.285 4.685-9.557 14.853-10.055 14.853-.1-.3-6.47 0-7.665 3.987-.996 2.99-1.095 5.682-1.792 8.772-12.743-.399-22.002 3.588-31.857 12.66-4.779 0-8.363 1.096-10.055 3.09-2.49 1.794-3.186 3.388-3.087 5.282.2 3.39 6.272 3.888 6.571 1.496.299 0 5.874 12.858 6.471 15.051 1.294 3.49 2.688 10.168 2.887 10.168 2.29.1 14.933 3.688 14.933 2.392 1.195-.498-4.38-18.84-4.38-18.84 9.756-8.173-.996-17.045-3.584-16.646 5.575-3.987 11.946-6.679 19.014-6.978 1.096 3.888 6.173 5.981 8.662.698 0 0 10.95 3.888 10.95 5.183-4.48-.697-8.262-.996-12.742-1.495 8.66 4.685 8.96 10.865 10.652 17.046.199-1.097 2.489-5.882 2.489-5.882 2.887 6.48 8.561 1.994 6.172-3.29l6.969-3.189c.796-.399-10.354-13.058-20.508-14.753.498-.897.697-1.794 1.194-2.591 2.589-2.492 4.48-6.18.598-10.566 2.588-3.589 8.561-12.261 8.163-12.46.2-.1.299-4.087 0-3.988m-83.625 40.072c-.1 0-.298 30.203-.1 45.155-.298.598-.398 3.888-.398 3.888l9.259-8.673.299-11.263c2.389-.599 17.521 7.077 16.326 7.077 1.195-.499-6.968-15.85-16.426-17.544-.2-8.672-.299-18.54-.498-21.132-3.285.498-8.462 2.492-8.462 2.492m82.231 18.142c-2.588.797-3.683 6.28-2.787 8.871.199.499.1.598.498.1.995-1.495.697-4.486 2.488-5.98 4.68 1.395 4.182-4.786-.199-2.991"/>
    <path fill="#d40000" d="m48.596 227.815 12.245-18.54c14.635 4.883 29.568 4.983 44.7 2.59l13.54 15.95h-5.476l-8.462-12.161c-3.087.697-6.272.996-9.458 1.495l3.982 10.666h-4.28L92.3 217.249c-7.367.299-12.344-.4-17.422-.997l-1.792 11.563h-4.38l2.987-11.962c-3.485-.698-6.97-1.196-9.856-2.093l-8.96 14.055zm14.037-10.965 5.077 1.395-2.488 9.57h-9.358zm13.141 10.965 1.394-8.473c3.385.698 7.865.797 12.544.797l2.19 7.676zm24.092-7.875 3.982-1.097 5.974 8.872h-7.268zM41.23 166.312c19.612-22.827 17.024-46.75 6.173-66.088l2.29-2.393c12.543 20.634 15.131 49.84-7.865 72.568-.2-1.296-.598-4.087-.598-4.087m78.15-25.518c2.787 4.784 4.58 9.669 7.466 14.453l-7.068 9.57zm-84.322 15.051c-.2-15.051 0-45.554 0-45.554l6.57-5.083c7.865 9.57 12.246 34.988-1.99 51.834-.897-.698-3.684-.4-4.58-1.197m93.879-2.99c-18.119-30.602-8.86-53.03 8.661-72.866.1 1.495.1 3.09.2 4.585-15.033 17.245-21.007 42.663-6.273 65.69zm-32.853-4.486 8.263-11.263s1.593-4.486 2.887-5.782l1.493-1.296 1.494 1.495-.896 3.49c-3.086 4.684-6.272 9.469-9.657 14.154 0-.1-2.887-.598-3.584-.798m43.903-54.724c.299-.3 3.584 1.096 3.584 1.096l.2 46.252-6.571 4.187c-1.892 1.096-16.825-29.306 2.787-51.535m-69.09 19.537c2.987-4.087 6.172-7.575 9.06-11.363.796.299 2.687.299 2.687.299.2.1-.696 3.09-2.787 5.183-5.874 7.077-7.168 8.373-7.467 11.264-.1.897-2.19 1.994-2.19 1.994l-1.493-1.595c.498-2.293 1.195-4.087 2.19-5.782M52.28 95.44l6.77-8.871.497 23.026zm21.503-57.615L60.742 21.576h6.272l7.765 11.563 9.258-1.097-3.185-10.466h3.882l2.688 10.267c5.675.1 11.25.598 16.625 1.097l2.788-11.464h3.883l-3.584 11.962 10.453 2.791 9.358-14.753h4.679l-13.24 19.04c-17.224-5.184-31.161-4.586-44.6-2.692m37.532-6.778 2.986-9.47h8.86l-6.769 10.865zM89.81 28.753l-1.891-7.177h15.63l-1.991 7.974c-4.082-.697-7.865-.797-11.748-.797m-18.716-7.177h6.272l2.39 7.376-3.584.4z"/>
    <path d="m58.75 20.48 15.033 18.042c3.186-1.097 18.915-2.891 28.473-.798 1.692 6.48 3.384 13.058 5.276 18.94 0 0-.597.697-.996 1.096-6.072 6.978-1.792 13.756 3.783 15.949-.995 2.093-11.647 7.276-18.118 6.678 0-.1-1.991-4.784-6.073-3.19-1.394.499-1.991 1.596-2.987 2.592-3.882-1.196-8.96-3.688-11.648-6.479 4.978 2.492 9.856 3.788 14.734 3.19 0 0-.597-.499-1.294-.798-.398-.199-1.394-.797-2.19-1.295-2.29-1.496-3.783-3.39-5.376-6.58-1.792-3.19-2.09-6.678-3.086-9.768-.498 1.595-.796 5.682-2.09 6.579-.399.2-.399.2-.698-.698-.995-3.19-4.878-2.79-6.072-.498-.598 1.993-.498 2.79.298 4.585l-2.29 1.296v.399l-1.393.697-.299-.199c-6.57 3.19-13.041 6.48-19.81 9.57 0 0-3.585 5.98-6.87 8.273l-.1-20.235-9.656-8.772v4.784l.697.698c.1 33.792 0 67.085 0 97.886v28.31H25.4v3.289l.697.1-.1 4.685H25.7l-.1 2.99.498.1v16.646l-.498.698v4.785l10.155-9.67.199-10.964c7.964 1.495 16.327 7.277 16.327 7.277-1.394-9.171-11.15-16.747-16.725-18.242v-21.73s-4.182 1.694-6.173 1.993c-.995.1-1.393 0-1.891-.697-.398-.499-.398-.997 0-2.094.199-.498.1-.697 0-1.196-.299-.698-.299-1.096 0-2.392.299-.798.199-1.196-.1-1.894-.298-.798-.298-.897-.199-1.296.299-1.096.398-1.296.2-1.794-.399-.997-.399-1.695 0-2.392 1.493-2.493 4.877-1.894 6.67-1.795.895.997 1.493 1.595 1.592.1.598-1.794 3.186 0 4.281.797 9.955-13.357 14.834-31.399 2.39-54.026l-6.97 5.582v-6.978c9.16-5.881 19.513-19.438 23.993-30.004 1.493 1.795 3.186 3.49 4.779 5.283L63.03 79.69l-.298-.2C59.846 84.973 52.08 95.24 51.98 95.14c2.887 5.283 5.376 10.666 7.566 16.148l.597-.299.498 1.595-.995.3c3.384 11.163 3.484 21.53.995 31l.597 2.492s3.584 3.489 4.58 4.485a245 245 0 0 0 5.376 5.184l3.285-3.19-.199-.299 28.771-28.608 1.792 1.694c-17.621 17.743-48.184 48.445-48.184 48.445l-1.095.2c-.597.099-1.493.099-2.09.099-.897-.1-1.096 0-1.793.299-.796.399-1.493.997-2.488 2.093-.399.499-.697.698-1.195.897-5.973 3.589-.597 10.766 4.48 6.978 3.783 7.177 6.869 15.45 8.66 23.724 0 .1-.696.299-.696.299l-13.44 19.936h5.177l.498-.897h-3.883l12.345-17.843c15.73 4.286 30.165 4.884 44.799 2.392l12.743 15.55h-5.077l.696.898 6.571.1-14.933-17.744c-5.376 1.396-19.512 2.592-28.373 1.097-1.393-6.58-3.584-13.756-5.276-19.538 8.462-6.678 2.09-15.45-3.086-16.646-.299-.499 10.552-7.077 18.318-6.679 2.19 5.283 7.068 4.586 8.76.598 3.186 1.197 7.367 2.393 10.653 4.984-4.38-.996-9.558-1.495-13.739-1.595 7.964 3.09 10.254 9.67 11.25 15.85.199.996.697 2.392.697 2.392.696-2.193 1.194-4.486 2.588-6.48.597 2.194 2.887 3.888 5.177 2.592 1.294-.996 1.792-2.591 1.393-4.884-.1-.598-.199-.997-.199-.997l1.792-.997.2.2s1.99-.798 2.887-1.296c.199-.1-.2-.399-.2-.399l17.92-8.473c-.1 0 4.48-6.28 7.168-8.771.1 7.575.1 10.665.1 19.537l.995.997c.896.897 2.887 2.691 7.267 6.778a22 22 0 0 0 1.693 1.396l-.1-131.678h-.1v-2.492h.2v-6.58l-.2-.099v-2.093l.2-.2V29.85h-.299v-4.286L143.67 36.13l.1 9.968c-4.48-.598-9.956-3.488-13.839-5.781-1.194-.798-1.891-.997-1.891-.498.498 5.98 9.159 15.051 15.73 17.444V79.69s1.592-.798 2.488-1.197l.1.4 2.09-.898.2-.498 1.891-.2c0 .399.1.3.1.3 1.692.498 2.389 1.594 1.692 2.89-.2.399-.299.997-.1 1.196.697 1.097.896 2.094 0 3.19-.298.498-.298.897 0 1.396.896 1.794.399 1.694-.298 2.79-.2.798.697 1.296.398 2.094-.1.498-.697 1.096-.996 1.395-.398.3-.796-.299-.796-.299s-1.294.598-2.29.798c-.896.299-2.588.897-3.086-.399-.299-.698-.1-1.395-.1-2.193l-1.393-.2v3.689c-.797.399-3.982-1.196-3.982-1.196-13.54 17.543-13.141 36.981-3.087 53.23.1.298 7.069-4.786 7.069-4.786v6.38c-8.86 7.376-17.422 17.145-23.495 29.306l-3.783-4.486c.697-.598.697-1.495.697-2.193l2.787-4.087v-1.096l7.168-9.968c.1.598-7.367-13.457-8.362-17.942l.498-.1c-3.385-12.76-2.688-21.63-.2-31.998l-.696-.697-9.458-9.47c-.796.698-1.493 1.396-2.29 2.093-.1.1-.697 0-.796.2a486 486 0 0 0-14.435 14.154c-.1.1.1.598 0 .798-4.68 4.884-9.657 9.47-14.436 14.354l-1.792-1.695c16.925-16.946 48.881-48.444 48.881-48.444s.1-.3.398-.3c.896 0 1.693-.199 2.589-.498 1.095-.2 1.194-.299 1.692-.797.299-.3.697-.698.996-.898.498-.299 1.493-1.196 3.185-2.69.996-.898 1.593-2.194 1.593-3.29 0-1.994-1.393-3.788-3.086-3.988-.697-.1-2.09.3-2.887.798-.498.399-.796.498-.995.399-3.485-6.978-6.87-15.85-8.263-23.126-.1-.499 0-.598.298-1.196.2-.4.697-1.197 1.095-1.795 4.281-6.678 8.761-12.36 12.544-18.54h-5.376l-.697 1.096h4.38l-13.04 18.84c-24.093-7.875-43.705-2.89-44.203-2.791L61.14 21.476h5.973l-.697-1.096h-7.665zm11.648 0 .697 1.096h6.272l-.398-1.096zm10.454 1.096h3.882l-.199-1.096h-3.982zm6.869-1.096.199 1.096h15.63l.298-1.096zm19.114 1.096h3.883l.298-1.096h-3.982zm7.765-1.096-.299 1.096h8.86l.698-1.096zm37.93 7.276.1 2.89-6.372 6.78v9.469l-1.891-.399-.1-9.769zm-1.792 6.28c.1 2.89-.398 5.682.398 8.573.399 1.495 1.095 3.19 1.195 4.884h-2.09c-.3-.897-.399-1.794-.698-2.89-.796-2.593-1.393-5.384-.796-8.175zm-46.093 4.685c.1.1.298 1.396.597 2.492 1.095 6.18 2.589 10.865 4.082 15.55 1.891 5.881 4.778 13.357 7.566 16.846.398.399.597.897.398 1.097-.199.398-1.394-.1-2.09-.898-.3-.299-.897-1.295-1.394-2.093-.996-1.794-2.29-4.485-2.39-4.884-.1-.2-.597-1.495-1.095-2.89-.995-2.493-1.593-4.187-2.389-6.978-.697-2.193-1.294-4.486-1.991-6.779-1.195-3.788-1.892-6.778-2.588-10.267-.1-.498-.299-1.096-.2-1.196.3-.399 1.295-.299 1.494 0m.697.2c-.1-.1 1.095-.1 1.493.199.1.1.299.797.498 1.794 1.095 5.682 2.787 11.663 4.679 17.245 1.493 4.485 3.185 8.772 5.376 12.26.697 1.197 1.593 2.393 2.688 3.788.597.798.696.897.497 1.097-.199.299-.597.2-1.294-.1-.697-.299-1.394-.997-2.09-1.994-.2-.299-.598-.797-.797-1.096-3.086-5.383-4.978-10.467-6.67-15.65-1.792-5.283-3.285-10.666-4.38-16.846zm3.882.797c.299.299.398.797.697 1.894 1.294 5.283 2.39 10.067 3.883 14.354.796 2.292 1.493 4.685 2.389 6.878 1.394 3.488 3.086 6.778 5.276 9.37.697.897 1.991 1.993 2.987 2.591.697.399.796.598.796.798-.1.2-.796.299-.995.299-1.195-.2-2.887-1.097-3.385-1.794-3.584-3.888-6.073-10.168-7.964-15.252-3.186-8.871-5.774-19.936-5.277-19.637 0-.1 1.295.2 1.593.499m1.494.399c.1 0 .199 0 .398.1.697.199.796.298.896.996 1.095 5.084 2.29 9.57 3.683 13.756 1.394 4.286 2.788 8.373 4.978 12.66 1.593 3.09 3.683 5.282 5.774 6.379.597.299 1.195.598 1.294.698.1.1 0 .199 0 .398-.1.2-.199.3-.796.3-.996 0-1.693-.3-2.788-.997-2.787-1.894-5.276-6.28-6.272-8.772a107 107 0 0 1-3.584-9.57c-1.99-6.18-3.185-10.167-4.081-15.35 0-.499.199-.598.498-.598m41.812 8.273v1.794c-7.068.499-14.236-2.492-20.01-5.183 4.38 5.781 9.06 10.965 20.01 11.962v1.893c-14.336-.199-24.39-14.752-23.893-18.34 5.973 3.787 16.626 8.173 23.893 7.874m-39.523-7.675c.299 0 .797.199.996.299 1.194 4.386 1.99 9.27 3.982 14.154 2.39 5.981 3.683 11.264 8.064 16.248 1.394 1.396 4.082 1.396 4.082 1.396s-.3.797-.797.897c-.896.1-1.593.2-2.29 0-2.588-1.097-4.48-3.788-5.475-5.682-.896-1.395-3.285-7.077-5.177-12.958-2.09-6.38-3.783-12.959-3.584-14.255.1-.1.1-.1.2-.1m2.39.797c.199 0 .398.1.696.2.3.1.399.199.598.797.1.399.1.897.298 1.794.996 4.585 2.39 8.274 3.783 11.862 1.295 3.39 2.688 6.778 4.38 9.868.897 1.496 1.693 2.99 2.29 3.49 1.494 1.494 3.983 1.594 4.68.099.398-.798.298-2.193-.498-2.791-.598-.598-2.09-.3-2.09.399 0 .199.397.1.895 0 1.394-.2 1.892 2.392 0 2.79-2.29.499-3.982-2.591-1.891-4.585 3.484-2.392 6.172.897 5.376 3.988-.797 1.794-2.091 2.79-3.883 2.89-2.29.1-3.186-.598-5.575-3.987-2.688-4.286-3.883-8.473-5.675-13.158-1.792-4.485-2.986-9.17-3.484-13.357-.2-.299-.1-.299.1-.299m2.19.698c.199 0 .597.1.796.2.1.099.299.199.299.199 3.186 11.463 5.774 18.34 8.462 23.225 0 0 0 .897-.2 1.097-.298.498-.497.299-.895-.4-1.693-3.289-3.285-6.877-4.779-10.565-1.792-4.386-3.285-8.872-3.982-13.158.1-.399-.1-.598.299-.598m21.205 6.579c.398 0 .796.398.796.797s-.398.798-.796.798c-.399 0-.797-.4-.797-.798 0-.498.299-.797.797-.797m-65.208-.2c-.896 1.296-1.692 5.782-2.688 5.882-1.095 0-2.39-.599-3.186.299-.995 1.196-.398 2.492.896 3.19.598.298 1.792.398 2.589.099 2.986-.897 4.181-5.881 2.39-9.47m68.194 1.197c.598 0 1.195.498 1.195 1.196 0 .598-.498 1.196-1.195 1.196s-1.194-.499-1.194-1.196c.1-.598.597-1.196 1.194-1.196m-68.094.598c.995 2.591-.1 5.781-1.394 6.778-1.195.997-2.987 1.096-4.082.2-.896-.798-.498-2.792 1.095-2.692.498 0 1.195.498 1.593.997 1.095.199 2.29-5.184 2.788-5.283m72.176.598c.697 0 1.294.598 1.294 1.296 0 .697-.597 1.295-1.294 1.295a1.32 1.32 0 0 1-1.294-1.295c0-.698.597-1.296 1.294-1.296m4.679.997c.697 0 1.294.598 1.294 1.295 0 .698-.597 1.296-1.294 1.296s-1.294-.598-1.294-1.296c-.1-.697.498-1.295 1.294-1.295m-43.206 6.08c.199 0 .298.2.498.598.298.798.298.897-.2 1.396-4.081 5.681-.398 11.563 5.575 12.16.498 0 .797.599.996 1.296 0 .3 0 .3-1.394.3-.896 0-1.593 0-1.99-.2-2.092-.598-4.68-2.492-5.675-4.186-1.195-1.994-1.394-4.087-.697-6.878.497-1.795 1.095-2.99 1.99-3.888q.599-.598.897-.598m39.025.598.1 19.537-2.091.798.1-20.833zm3.882.798c2.589 6.479 2.688 12.36.399 17.743l-2.39.299c3.286-7.576 1.892-12.959 0-18.242zm-124.242.996 8.462 7.975.298 88.616-1.294-.499-.498-87.12-6.869-6.28zm82.131.3c.299 0 .498.298.697.896.2.599.2.698 0 1.296-1.195 2.791-.2 5.582 2.688 6.38.697.2.796.299 1.195 1.196.298.498.398.698.298.897-.1.1-.497.2-1.593-.1-4.28-1.495-5.774-6.08-3.882-9.768.1-.499.299-.798.597-.798m-33.748-.4s.896 3.09.796 3.888c-.2 1.396-2.19 3.589-3.883 4.386-1.592.598-3.982.3-4.977-.797-3.584-4.287 3.185-8.573 4.878-4.087.995 2.89-3.186 3.588-3.285 1.395 0-.598.199-.797.696-1.096.498-.3.399-.598 0-.598-1.592.598-1.592 1.993-.896 2.99 1.394 1.495 3.186.598 4.38-.498 1.594-1.595 1.892-3.688 2.29-5.582m35.042 3.29c.1 0 1.792 3.987 1.991 4.585-.1.4-.497.4-1.194-.1-.797-.498-.996-.896-1.294-2.093-.1-.598-.3-2.093.497-2.392m-33.748 1.695c.398 0 .796 1.395.597 1.993-.299 1.196-3.385 3.19-5.575 3.589-.398.1-.896.2-1.095.2-.498.099-.996-.2-1.493-.699-.399-.398-.598-.797-.498-.897s1.095.1 1.891.1c2.39 0 4.281-1.695 5.675-3.788.2-.299.498-.498.498-.498m-47.487.996s1.593 1.496 2.489 2.293c-.1 3.888-1.494 8.174-1.494 11.663 0 2.99 1.991 5.582 2.19 8.174.1 1.694-.398 4.286-1.194 6.18a13.7 13.7 0 0 0-1.195 5.582c.1 4.286 3.186 9.07 2.09 13.357-.995 3.987-2.19 6.28-1.89 8.473.597 4.087 2.787 7.775 2.19 11.164-.498 3.19-1.992 6.38-1.793 9.27.2 3.29 1.394 6.08 1.792 9.071.2 1.994-.298 5.084-.298 5.084l-2.29.2c1.294-4.686-.597-8.872-1.294-13.358-.597-3.788 1.095-6.878 1.593-10.068.298-1.993 0-3.987-.996-6.479-1.99-4.785-1.294-7.875.2-11.962 1.791-4.385-.698-7.874-1.295-12.16-.299-3.589-.1-6.18 1.294-9.47.996-3.09 1.294-4.884-.199-7.875-.995-1.894-1.194-2.99-1.194-5.482.199-5.084 1.592-7.875 1.294-13.657m48.582 1.994c.398 0 .498.3.498.798 0 .897-1.394 2.093-3.783 3.19-1.295.597-1.992.697-2.688.298-.697-.299-.697-.598.1-.797 1.89-.598 3.185-1.296 4.778-2.691.498-.499.995-.798 1.095-.798m-10.951.598c6.272 6.679 12.345 10.168 17.024 11.762l-.697 1.795c-6.173-2.393-12.444-5.682-17.72-12.86zm12.046 1.097c.199 0 .796.797.796.996 0 .1-.199.499-.497.898-.399.498-.797.797-1.792 1.395-1.394.798-2.29.997-2.887.598-.598-.299-.399-.598 1.095-1.495.796-.498 1.792-1.196 2.29-1.595.497-.399.895-.797.995-.797m-16.526.996c5.077 6.978 11.747 11.663 19.413 14.155l-1.195 1.695c-7.068-2.492-14.037-6.878-20.309-14.653zm17.82.798c.299 0 .797.698.797.897 0 .1-.1.399-.3.598-.298.3-1.692 1.396-2.289 1.695-.498.199-.796.199-1.394 0-.597-.3-.497-.598.498-1.197.498-.299 1.195-.897 1.693-1.295.497-.3.896-.698.995-.698m-20.607.598c-.1.2-7.567 17.145-23.196 29.206l-.1-2.79c8.661-6.879 14.933-16.348 19.712-24.522zm22.1 1.196c.2 0 .399.2.598.499.199.398 0 .697-.896 1.395-.498.399-.797.498-1.195.498-1.195 0-1.095-.299.1-1.495.697-.598 1.095-.897 1.393-.897m30.265.798 3.285.299c.896.598-12.743 9.569-22.2 8.771l.298-2.093c8.164.1 18.816-6.579 18.617-6.977m-27.975.897c.797.398 1.693.897 1.493 1.096-.298.2-2.588.1-3.086-.2-.398-.199-.398-.298.2-.896.597-.798.696-.399 1.393 0m-29.07-.598c-5.176 9.17-11.349 17.444-18.417 22.926l-.1-4.785c6.77-5.183 11.947-14.752 11.947-14.852zm64.71.598 1.593.897c-9.856 9.17-20.508 13.058-30.762 12.061l.797-1.894c16.625 1.396 27.675-10.865 28.372-11.064m2.39.299s.497-.1.497 0c-3.285 3.19-7.765 6.678-10.751 8.572-13.938 14.354-25.884 25.618-38.03 38.477l-1.891-1.994 1.792-1.894c0-3.688 4.48-7.775 7.167-10.965 1.096-1.295 3.186-4.485 2.987-5.88-.1-.3-.1-.4-.1-.4 4.182-.797 5.277-4.286 5.277-7.276.199-1.994.498-3.888 1.194-5.482 19.015 1.495 31.36-12.66 31.858-13.158M87.72 77.796c2.19 0 3.783 1.694 3.783 4.186 0 .997-.398 1.795-1.792 4.486-1.294 2.293-1.494 3.688-1.991 6.38l-1.394-1.197-2.489 2.193v-3.29s.896-1.096 2.19-2.59c1.792-1.895 3.286-4.487 3.286-5.882 0-1.396-1.494-2.592-3.087-1.595-1.294.897-1.891 2.592-2.688 7.576-.1.897-.298 1.894-.298 2.193-.2.598-2.09 2.392-2.09 2.392-.2 0-.897-3.688-.897-3.688l-1.891.299c2.19-2.392 3.982-5.383 5.077-8.373 1.095-1.994 2.39-3.09 4.28-3.09m-41.813.697s-3.783 7.975-10.552 13.158v-3.09c3.882-2.99 6.869-8.273 6.869-8.273zm92.087.2c-13.24 13.756-30.662 39.174-9.159 74.86l2.887-3.29c-17.322-32.296-5.077-48.943 6.372-65.789zm-71.877 1.196c3.882 2.791 7.964 5.482 13.24 7.277-.298.897-7.466 6.977-2.29 12.66.2.298-.298.996-1.194 1.993-2.489 3.389-4.978 5.781-6.969 9.569l-.1 7.177-2.09-1.794zm71.38.598.099 4.087c-19.712 24.023-17.521 45.654-6.371 65.59l-2.091 2.193c-18.318-31.5-6.969-55.223 8.362-71.87M88.815 82.98c-.896 2.293-4.68 6.28-4.68 6.28s.499-3.888.797-5.084c.2-.897.797-2.193 1.294-2.79 1.593-1.695 3.087.199 2.589 1.594m-26.183-2.193.398 32.197-2.787-2.791-.398-24.621zm-3.783 6.28.598 21.83c-2.788-6.579-6.67-13.756-6.77-13.656 0 .1 3.186-4.187 6.172-8.174m21.902 6.878 1.095-1.097c1.394-1.495 1.593-1.495 1.394.499-.1.797 0 1.694 0 1.694.796-.498 2.787-2.79 3.385-2.392.398.399.796 1.296.796 2.592 0 2.591-1.493 4.984-3.783 5.781-6.371 1.994-10.652-5.383-6.272-10.067.398-.499 1.693-1.296 2.29-1.197.796 1.296.796 2.791 1.095 4.187m63.515-2.293c.398.997.896 1.994 2.19 2.492-.199 31.3 0 86.822 0 86.822l6.272 5.881v2.592l-8.362-7.676c-.1 0-.598-65.39-.1-90.11m6.172 1.396c.2 2.99-.298 6.18.2 9.37.497 2.193 1.294 4.087 1.393 6.18.1 1.894-.1 2.99-.896 5.781-.597 1.894-.597 2.193-.796 4.087-.299 2.592.498 4.984 1.195 7.078.895 2.79.597 6.18-.797 10.566-.498 1.595-.597 2.292-.498 3.688.2 2.99 1.295 5.881 1.792 8.871.299 1.695 0 3.888-1.095 7.676-.398 1.395-.796 3.887-.796 4.784 0 .997.298 2.891.597 3.689 1.493 3.787 1.493 4.485 1.593 6.778 0 1.694-.498 3.489-1.095 4.984-.996 2.392-.398 4.884 0 7.675l-2.489-2.193c-.697-2.292-.498-4.485.2-6.28.995-2.69 1.194-2.99 1.194-4.585 0-2.093-1.195-4.585-1.693-5.98-.896-2.592-.896-5.184 0-7.875.399-1.396.996-3.988 1.195-5.084.299-2.093.1-3.688-.996-7.875-.497-1.993-.597-2.79-.597-4.784 0-1.894.2-3.788.797-6.081.896-3.588.896-5.682-.3-9.07-.895-2.692-1.194-4.586-.895-6.78.1-1.295.498-2.491 1.095-3.588 1.095-2.691 1.195-5.283.398-7.775-1.394-5.283-1.394-7.874-1.194-12.66zm-6.968 1.694c-.2 21.432 0 46.053 0 46.053s-6.372 4.485-6.272 4.186c-8.164-13.556-11.25-33.393 2.986-51.335-.1 0 2.19.997 3.286 1.096m-96.567 5.184c11.548 21.63 13.041 43.56-6.073 65.988.597 1.994.498 3.788.2 5.682 3.683-2.89 33.648-32.895 8.461-74.561zm59.035-1.795 5.675.3.398 4.884-1.792 1.794s0-.997-.1-1.894c0-1.096-.199-2.093-.298-1.993-.1 0-.2 1.295-.3 2.691l-.099 2.093-.597.598c-.896.897-.995.798-1.095-.398-.1-2.592-.1-2.791-.299-2.592-.1.1-.199.997-.199 2.293 0 1.096-.1 2.093-.199 2.292-.1.399-1.195 1.296-1.493 1.296s-.299-.399-.299-1.994c0-1.395-.1-2.093-.398-1.594-.1.1-.1 1.495-.2 2.591 0 1.097-.099 2.094-.198 2.193-.2.399-1.394 1.396-1.593 1.296-.299-.1-.398-.897-.299-2.293 0-.697.1-1.196-.1-1.395-.298-.2-.298.598-.198 2.492v2.093l-.697.798c-1.095 1.196-1.195 1.096-1.195-.897.1-1.595 0-2.293-.299-2.193-.298.1-.199.897-.1 2.492.1 1.395 0 2.093-.099 2.292-.1.1-.398.598-.796.897-.398.399-.797.897-.896.897-.1-1.694-.2-5.283-.2-5.283l-5.972-.299s1.194-1.395 1.692-1.694c.299-.1.697-.2 2.19-.1.996 0 2.39 0 2.489-.1.398-.199-.498-.299-1.792-.398-.896-.1-1.095 0-2.09-.2l.895-.897.697-.598 1.892.1h2.09c1.095-.2.1-.499-1.194-.499s-1.991 0-1.991-.299 1.393-1.595 1.792-1.595c.199 0 1.194-.1 2.29-.1 1.791 0 2.389 0 2.29-.298-.1-.3-1.295-.2-2.092-.2-2.19 0-2.29-.1-.796-1.395l.697-.598h1.394c2.09.1 3.086 0 3.086-.2 0-.199-1.294-.299-2.489-.299h-1.195c.498-.697 1.095-1.196 1.693-1.794h1.792c1.294 0 2.19.1 2.19-.2 0-.199-.498-.199-1.095-.199-.797 0-1.792-.1-1.991-.199-.1-.1.1-.498.697-1.096zm-56.347.1c15.928 26.017 10.154 54.127-7.566 71.67l-.498-3.389c16.725-20.434 19.711-41.467 6.073-66.188zm29.567 3.489c-2.887 4.286-7.267 8.572-8.86 12.061-.299.399-.398 1.296-.996 1.496-.298 0-.298-.499-.298-1.595 0-.897.1-1.197.497-1.994 2.29-4.087 4.879-7.077 7.766-10.965zm.697.399 2.688.2c-.597 1.893-1.394 3.189-2.29 4.385-1.194 1.595-2.588 3.09-4.28 5.084-2.39 2.79-3.684 5.582-3.585 6.878-.597.598-.995 1.096-1.791 1.694l-1.494-1.395c.996-5.881 6.57-11.364 10.752-16.846m32.255 2.392.896.1c2.887.2 4.779.398 4.878.498s.2.499.2.997c.1.698 0 1.196-.399 2.89-.199 1.097-.497 2.094-.597 2.194-.299.299-.498 0-.597-1.595-.1-.997-.1-1.695-.299-1.595-.1 0-.2 1.096-.2 1.794.1 1.994.1 2.492-.497 3.09-1.095 1.097-1.195.997-1.195-.897 0-.797-.199-1.894-.298-1.994-.2-.199-.299.798-.299 2.692v1.993l-.498.599c-.696.697-.896.797-1.095.598s-.1-.499-.1-1.595c0-1.296-.198-2.094-.497-1.795 0 0-.1 1.296-.1 2.393v2.193c0 .299-1.294 1.495-1.493 1.495-.299 0-.498-1.396-.498-2.592 0-.797-.199-.897-.298-.498 0 .1-.1 1.196-.1 2.193v1.794l-.697.798c-.995.996-1.095.897-1.095-.4q0-1.793-.298-1.793c-.1 0-.2.598-.2 1.893 0 .898-.1 1.795-.1 1.994-.099.2-.397.598-.696.897s-.597.598-.697.598-.299-1.096-.299-1.595v-1.594c0-1.795.1-1.695-2.787-1.795-3.385-.1-3.484-.1-2.39-1.096.996-.897.797-.897 3.087-.798 1.792.1 1.99.1 2.19-.1.1-.099.2-.199.1-.298 0 0-.697-.1-1.494-.1-2.19-.1-2.389-.3-1.493-1.196l.498-.499h2.29c1.592 0 2.588-.1 2.687-.199.1-.2-.497-.299-1.891-.399-.797 0-1.493-.1-1.693-.1-.398-.1-.199-.498.399-1.096l.597-.598h1.991c1.892 0 2.788-.1 2.788-.399 0-.199-.399-.199-1.295-.299-1.393 0-2.29-.2-2.29-.299.3-.598.797-.997 1.295-1.495l2.09.1c2.091.1 2.688 0 2.688-.399 0-.2-.896-.299-1.99-.299-.698 0-1.594-.1-1.594-.399 0-.1.3-.498.697-.897l.697-.698 1.991.1h2.39c.298-.2-.399-.399-1.693-.498-1.99-.1-2.09-.3-1.095-1.197zm-70.185 1.097c10.453 18.74 8.86 36.383-2.29 51.335-1.294-.698-2.588-1.196-4.081-1.296l-.299-45.255zm74.665 7.276c.2 0 .2.3.1.997 0 .598-.1 1.196-.2 1.396-.099.299-.198.299-1.194.199-1.195-.2-1.095-.399.1-1.595.597-.598.995-.997 1.194-.997m-56.048.897h2.09s.1 3.49.398 5.483l4.48.2-1.692 1.793-3.385-.1c-.1 0-1.195-4.983-1.891-7.376m53.26 2.094c.598 0 2.29.299 2.49.498.199.2.199.498 0 2.791 0 .797-.1 2.592-.1 3.888 0 2.392 0 2.392-.299 2.492-.398.1-.398-.1-.497-1.695-.1-.897-.2-1.695-.3-1.695s-.099.698-.099 2.393v1.993c-.398.3-.697.698-1.095.898-.298 0-.398-.4-.497-1.496-.1-1.096-.2-1.894-.399-1.595 0 .1 0 1.197.1 2.193l.1 1.795-.797.797c-.796.798-.896.897-.996.698-.298-.798.1-4.486-.597-4.984-.1-.1-1.095-.1-2.19-.1-1.892-.1-2.987-.1-3.186-.299-.199-.1.697-1.196 1.195-1.395.299-.1.697-.2 2.29-.1 1.792.1 2.688.1 2.488-.1-.1-.1-.995-.2-1.692-.299-1.493-.1-1.991-.299-1.991-.598.299-.598.796-.997 1.294-1.495l.697.1c.398 0 1.294.1 1.991.199.697.1 2.19.1 1.593 0 .2-.2-.597-.399-1.593-.498-1.991-.2-2.19-.499-1.195-1.396l.598-.598c.995.1 2.09.1 3.086.299.796.1 1.195.1 1.195-.2 0-.199-.399-.199-1.295-.398-.298-.1-1.99 0-2.09-.499.398-.598 1.095-1.594 1.792-1.594M68.01 120.06c.299 0 .299.698.299 2.692 0 2.093.1 2.492.298 2.69.2.2.598.2 2.49.3 2.886.1 2.886.2 1.89 1.196-.696.698-.696.598-1.293.499-1.494-.2-3.684-.1-3.783 0-.1.199 0 .299 1.393.398 1.693.1 2.09.2 2.09.499 0 .1-.298.498-.596.797l-.598.598-1.792-.1c-1.891-.1-2.787-.1-2.787.2 0 .2 1.095.299 2.688.498.398 0 .896.1.896.1.1.2-.797 1.196-1.294 1.595-.399.299-.598.1-2.39.1-1.891 0-2.09 0-1.692.398.1.1.398.1 1.095.1 1.195.1 1.692.299 1.692.498 0 .3-1.095 1.396-1.493 1.595s-.597.2-1.593.1c-.796-.1-.896-.3-.896-.997 0-.299.1-2.392.1-4.585.1-4.286.1-4.486.697-4.386.199 0 .298.299.398 1.794s.1 1.894.398 1.894c.1 0 .1-.598.1-2.093-.1-2.293-.1-2.692.597-3.29.299-.299.597-.498.697-.299.298.897.199 1.894.298 2.791 0 .897.399 1.097.399.2 0-1.396-.1-2.592-.1-4.087l.896-.897c.398-.499.697-.698.896-.798m-5.575 1.794c.299-.1 2.29 0 2.489 0-.498.798-1.493 1.795-2.19 2.193-.1 0-.299-1.794-.299-2.193m53.958 4.187.398 2.89-3.086-.199zm-41.912.399s0 .1 0 0c.299.1.299.598.398 3.29 0 1.295.1 2.192.2 2.292.099.1.497.2 1.194.2.597 0 1.692 0 2.489.099 1.692.1 1.692.2.697 1.196l-.697.698-2.09-.1c-2.091-.1-2.49-.1-2.49.2 0 .199.399.299 1.096.299.298 0 .995 0 1.493.1 1.294.099 1.294.199.298 1.195l-.696.698-.697-.1c-1.095-.1-3.783-.1-3.982 0-.3.3.1.4 1.294.4 1.99.099 2.29.199 2.29.398 0 .1-.3.498-.598.797l-.597.598-2.489-.1c-1.692 0-2.29 0-2.39.1-.099.2.2.3 1.992.4 1.692.198 1.99.398 1.294 1.195-.697.897-.996.997-2.29.897-1.493-.1-2.986-.1-3.185 0-.3.2 0 .4 1.095.4 1.593.099 2.489.298 2.489.498 0 .299-.498.897-.996 1.295l-.398.3-1.792-.2c-1.792-.2-2.788-.1-2.489.2.1.1.796.199 1.493.199q2.09.15 2.09.598c0 .1-.397.498-.796.897-.398.399-.896.698-.896.698l-5.575-.499s-.298-.996.3-3.688c.497-2.492.696-2.99.995-2.592.1.1.1.698.199 1.097.1.997.398 1.595.498 1.595.199 0 .199-.598-.1-1.994-.299-1.894-.299-1.993.398-2.79.598-.699.996-.798 1.195-.5.1.1.1.998.199 1.695.1 1.296.2 1.595.398 1.396.1-.1.2-.499.1-2.392l-.2-1.894.797-.798c.796-.797.796-.797.996-.598.1.1.199.897.298 1.894.1 1.396.2 1.894.398 1.695.1-.1 0-3.29-.1-3.988-.099-.498 0-.598.598-1.196.697-.797 1.095-1.196 1.294-1.196.3 0 .399.797.399 1.894s.1 1.595.199 1.695c.298.398.298-.898.199-2.193l-.1-2.293.797-.798c.697-.697.796-.697.995-.498.2.2.2.598.2 1.695.099 1.595.398 2.392.497 1.295v-1.096c-.1-.399-.1-1.096-.1-1.794 0-.897 0-1.196.3-1.595.298-.3 1.293-1.097 1.592-1.196m32.355 1.794s1.294 1.096 1.294 1.395c0 .1-.498.698-1.194 1.396-1.195 1.196-1.394 1.396-1.494 2.691-.1.499-.298 1.097-.896 2.293-.398.897-1.095 1.894-1.095 1.894-1.99 2.392-3.882 4.486-7.267 9.57-.2.498-.2.896-.398 1.295-.2.3-.498.499-.697.598-.2.1-.697.399-.996.598-1.294.997-2.09 2.293-2.489 3.888-.199.897-.298 1.694-.697 4.386-.1 1.096-.597 3.09-.597 3.09-7.466-.1-14.435 1.196-20.607 4.685zm9.955 1.196 1.693 7.576h-1.693l-.199-5.483-5.276-.498 1.891-1.894zm-8.064.698c.498.498.996.997 1.394 1.495-1.394 4.785-5.973 10.965-10.453 17.045l-3.285-.398c-.1-.1 4.58-6.58 6.77-8.972.796-.996 1.393-1.993 2.19-3.488.298-.499.697-1.994 1.095-3.39.796-.996 2.29-2.292 2.29-2.292m1.792 1.595 2.49 2.492.597 35.685c-3.783-2.99-8.363-5.283-13.141-6.977l.796-1.894.896-.997c3.285-3.589 2.588-7.376.1-10.068 2.986-4.386 5.774-7.775 8.063-12.061v-2.99c0-2.592.2-3.19.2-3.19m-29.666 1.495c.298 0 .298.598.398 2.492.1 1.794.1 2.592.298 2.791.2.2.3.3 2.39.3 2.19.099 2.588.099 2.588.398 0 .1-.299.399-.597.698l-.598.598H81.15c-.199.199.498.398 1.394.398.597 0 1.493.1 1.593.1.398.1.199.498-.598 1.296l-.796.797h-1.792c-.995 0-2.19 0-2.29.1q-.746.3.598.3c1.493 0 2.489.099 2.588.398 0 .1-.299.498-.597.897l-.697.698-2.589-.1c-2.488 0-2.787.2-.696.399.796.1 1.99.299 2.09.299l.2.2c.099.198-.897 1.295-1.394 1.594-.3.1-.498.1-.896 0-.598-.1-2.887-.1-3.186 0-.2.1.299.299.896.299.995 0 2.19.3 2.19.498 0 .2-.498.798-.995 1.296-.2.2-.797 0-2.49.1-1.094 0-1.89.1-1.89.2 0 .099.596.298 1.293.298.697.1 1.693.2 1.792.3.2.199-1.095 1.694-1.095 1.694l-5.376-.1-.497-5.681.497-.499c.996-1.196 1.295-.997 1.494 1.097.199 1.594.298 2.093.497 1.794.1-.1 0-.997 0-2.293-.1-1.096-.1-2.093-.1-2.193 0-.299 1.195-1.595 1.494-1.495.2 0 .398.598.498 1.994.1 1.196.199 1.495.398 1.295.1-.1.1-.697 0-2.292l-.1-1.994.498-.598c.996-1.196 1.295-1.096 1.394.897.1 1.396.2 2.094.498 2.094.1 0 .1-.997 0-2.592l-.1-2.293.697-.698c.398-.398.697-.697.797-.697.298 0 .398.598.597 1.894.199 1.495.199 1.794.398 1.594.1-.1 0-.996 0-2.192l-.199-2.293.796-.798c.399-.398.896-.797.996-.797.2 0 .398.698.398 1.695 0 .897.2 1.694.398 1.893.1.1.1-.498.1-2.093 0-2.492-.1-2.691.996-3.887-.399.1-.2-.1 0-.1m29.07 1.096v3.49c-1.395 2.99-4.58 7.376-7.866 12.06l-1.692-.897c4.082-5.382 7.467-10.466 9.557-14.653m-46.791 1.097h.299c.896.1.896.399.1 1.096-.3.3-.698.599-.897.599-.298 0-.298 0-.199-.698.1-.897.2-.997.697-.997m53.36 2.492 2.39 2.392.597 25.518L116.99 170zm2.987 3.39c2.19 5.083 4.48 9.967 6.969 13.855l-6.471 9.07zm-21.702 7.874c2.986 0 5.674 2.292 6.072 4.685.697 2.79-.796 5.682-3.086 6.579-.796.299-1.294.299-1.294.299-.299-1.695-.2-3.29-.498-4.885 0 0-1.393 1.795-2.19 2.492-.398.2-.597.3-.498-.199 0-.897.1-2.99.1-2.99l-3.385 3.588s-.299-.399-.597-1.296c-1.095-2.89.298-5.88 2.489-7.276.896-.698 1.99-.897 2.887-.997m45.595-.2.1 3.09c-5.376 4.187-13.042 12.959-19.612 24.422l-2.887 1.196c4.38-10.566 13.838-21.43 22.4-28.708m.1 4.187.1 4.685c-4.78 4.585-8.861 9.27-12.445 15.35-2.09.998-5.973 2.892-5.973 2.892-.597-.2 10.453-17.345 18.318-22.927m-47.886 3.987c.2 0 .2.399.1.997-.2 1.396-.299 1.894-.796 2.592-1.693 2.093-4.48 4.884-4.879 7.476-.199 1.395.896 2.691 1.992 2.591 3.285-.398 3.683-6.28 3.982-9.17.1-.698.199-1.296.298-1.595.697-.897 1.494-1.794 2.39-2.492l.398 4.486 1.891-.598c-5.276 7.176-3.783 7.575-6.47 10.566-2.589 2.691-7.567-.4-6.273-4.486 1.096-2.791 2.788-5.582 3.286-8.572.1-.898.199-1.496.199-1.496l1.194 2.492c.498-.797 2.29-2.691 2.688-2.79m48.085 1.495v3.19c-2.49 2.791-4.58 4.885-7.069 8.672l-3.982 1.795c2.589-4.885 6.87-9.47 11.05-13.657m-48.582 2.792s.298 1.495-.299 4.186c-.299 1.296-1.493 5.084-3.484 4.187-1.693-1.496.398-4.187 1.393-5.483.797-.897 1.693-1.894 2.39-2.89m-5.177.398-1.095 2.293c-9.756 0-19.214 3.489-27.577 10.666l-2.09-.698c8.86-8.373 19.91-12.56 30.762-12.26m10.254 1.794c10.95 3.689 16.028 9.071 20.21 14.653l-1.693.898c-4.38-5.682-9.657-10.766-19.712-13.756zm-12.544 3.49-.498 1.993c-6.172.2-12.643 2.392-18.915 6.778l-2.29-.399c6.372-4.984 13.54-7.874 21.703-8.373m27.975 13.456-1.991.897c-5.774-7.575-11.05-9.669-17.024-11.662l.597-1.695c8.164 2.193 14.037 6.28 18.418 12.46m-80.937-8.971.199 20.135-1.394-.299-.199-19.437zm-3.286 1.096c-2.688 10.068-.597 12.66.399 18.441l-2.19-.398c-2.19-5.882-2.39-11.364-.598-17.644zm67.199 1.595c.2.2-.1.698-.498.897s-.298.2-.995 0c-.598-.199-1.394-.797-1.394-.996.398-.1 2.489-.1 2.887.1m1.892.1c.398 0 1.393 0 1.493.399 0 .199-.398.498-1.195 1.096-1.294.897-1.692 1.097-2.09.598-.399-.398-.3-.797.398-1.395.498-.499.796-.698 1.394-.698m-44.003.2c.697 0 2.09.896 2.887 1.993.796 1.296 1.692 2.592 2.489 3.887 1.692 2.891 2.986 5.882 4.081 8.872 2.888 7.177 4.58 14.155 5.974 21.132 0 .598-.498.598-.996.399-.199-.1-.398-.2-.498-.3-.597-1.694-.796-3.388-1.294-5.182-1.095-4.287-1.593-6.679-3.783-12.76-1.095-3.09-2.787-7.476-4.58-10.765-1.194-2.093-2.488-4.087-4.18-5.881-.498-.499-.996-.897-.996-.997 0-.2.299-.399.896-.399m46.79.298c.697.2 2.29.4 1.692.897-2.29.898-3.086 1.894-4.28 2.891-.2 0-.896-.897-.896-1.096.995-1.296 2.19-1.894 3.484-2.692m-43.505 0c.996 0 1.892 1.197 2.39 1.994 2.986 4.386 5.574 10.666 7.665 16.846 2.29 6.579 3.684 12.958 4.28 17.544-.099.1-.298.199-.696.199-.597 0-.697-.1-.896-.598-1.593-7.476-3.683-15.151-6.172-21.73-1.394-3.49-2.887-6.978-5.078-10.467-1.493-2.193-2.29-3.29-2.29-3.489.2-.299.399-.299.797-.299m-6.67.1c1.294 0 3.484 1.595 4.978 3.589 3.086 4.286 4.878 9.27 6.77 14.154 2.09 5.582 3.683 11.762 4.579 16.647.199.698.398.997-.2 1.196-.995-.3-.995-.3-1.293-1.495-.399-1.296-.498-2.592-.896-3.988-2.091-7.575-4.48-16.048-8.363-22.826-4.679-7.576-6.073-5.483-6.87-6.779.1-.299.598-.498 1.295-.498m11.35 1.894c4.08 7.077 5.773 11.364 7.067 15.65 1.892 6.479 4.082 11.563 5.078 19.138 0 0-1.095 0-1.494-.199-.199-.2-.398-.897-.497-1.495-.996-5.283-2.589-11.563-4.182-16.547-1.792-5.483-3.982-10.766-7.167-15.85-.797-1.395-.996-1.893-.498-1.893.896-.1 1.294.698 1.692 1.196m42.11-.797c.2 0 .299 0 .598.1.497.199.697.298.697.498 0 .299-.3.398-1.295.697-.796.2-2.389.997-3.484 1.994-.498.399-.996.897-1.095.897-.299 0-.896-.698-.896-.897.896-1.396 3.584-3.19 5.475-3.29m-55.65.199c3.385.1 6.073 4.087 7.466 6.778.498 1.097 1.295 2.193 1.792 3.39 2.788 6.18 5.177 14.054 6.272 19.038.598 2.393 1.195 4.187.996 4.586-.299.199-.896 0-1.195-.2-.199-.1-.299-.698-.597-1.694-.797-2.592-2.09-9.869-5.575-17.644-.1-.2-1.792-5.084-4.58-9.669-1.194-1.894-3.086-3.09-4.778-3.489-.896-.1-1.095 0-1.095-.498 0-.3.1-.399.597-.498.2-.1.398-.1.697-.1m21.304 15.85q-.298 0-.597-1.197c-.1-.399-.2-.598.498-.997 4.28-4.486.597-11.164-4.779-11.762-.498-.1-1.095-.1-1.294-.1-.299-.2-.796-1.096-.995-1.495 7.466-1.794 15.231 8.772 7.167 15.55m36.736-14.754c.398.1 1.393.997 1.294 1.197-.1.199-.996.199-2.19.498-2.49.498-3.584 2.093-4.779 3.29-.299.1-.498-.1-.697-.499-.199-.3-.298-.698-.298-.797 1.294-1.894 4.778-3.888 6.67-3.689m-59.832.598c2.19 0 4.28 1.097 5.475 2.791 4.38 6.68 9.358 21.332 10.553 28.609-.1.2-.398.299-1.095.1-.299-.1-.299-.2-.498-.898-1.394-5.283-2.887-10.466-4.679-15.151-.896-2.392-1.99-4.785-2.986-6.978-.697-1.395-1.991-3.788-2.49-4.485-1.194-2.193-3.484-2.791-4.977-2.094-1.493.798-1.692 2.791-.597 3.689.995.697 2.489.598 3.086-.499.199-.399.1-.797 0-.997-.1-.1-.299-.1-.398 0 .1 1.296-1.593 1.396-2.29.897-1.095-.897-.398-3.588 2.688-2.492 1.195.599 1.593 1.795.995 3.09-.597 1.296-1.493 1.894-2.887 1.894-1.692 0-3.584-1.196-3.584-3.389 0-1.595.697-2.89 2.091-3.788.697-.299.896-.299 1.593-.299m18.218.997c5.277.2 7.666 6.38 4.878 10.168-.697.897-1.194.697-1.493-.4-.1-.497-.299-.497.1-.896 2.488-2.393.398-6.878-3.584-7.078 0 0-.797-1.096-.797-1.694.299-.2.697-.1.896-.1m43.605.399c.398.1 1.194.897 1.194 1.196 0 .3-.199.3-1.095.1-2.19-.399-4.38.897-6.272 3.688-.896 1.695-.995 1.495-1.493.1-.199-.698-.199-.698.697-2.094 1.891-2.292 4.48-3.29 6.969-2.99m2.09 2.791c1.792 1.695.996 5.383-1.493 5.781-2.19.3-4.181-2.093-2.788-3.688.896-.996 1.992-1.096 2.688-.2.697.898.399 2.094-.597 2.194-.1 0-.199.1-.199.2 0 .199.896.199 1.195-.1.597-.698.597-1.695.1-2.492-.499-.698-1.494-1.197-2.39-.798-1.493.499-2.987 2.492-3.883 5.084-.199.698-.398 1.395-.497 1.495-.2.3-.2.3-.399.2s-.497-1.695-.497-2.293c0-.399.398-1.595.896-2.592 1.692-3.09 5.276-5.084 7.864-2.791m-44.799-.698c2.19.1 3.883 3.19 2.887 5.283-.298.399-.697.698-.896.399-.1-.1-.398-1.096-.896-2.093-.497-1.097-.896-2.094-.995-2.293-.299-.797-.598-1.296-.1-1.296m-14.634 1.795c2.489 4.286 4.48 9.27 6.172 14.154 1.294 3.788 2.39 7.476 2.987 10.766.1.299.1.498 0 .697-.2.2-1.394-.398-1.394-.398-1.991-7.078-3.683-14.055-8.562-23.027l-.298-.598c-.1-.598.1-1.295.398-1.694.299-.2.498-.2.697.1m-27.377 8.173c11.548.798 20.408 5.682 25.187 18.54-1.693-.996-10.254-7.575-25.088-8.472v-1.794c10.652-.1 21.006 5.482 20.707 5.382-3.982-8.173-13.838-11.463-20.906-11.662zm80.04 2.592c-.696 1.096-.696 1.096-.995 2.093 0 .3.1 2.293.1 3.49.1 1.494.1 2.092.199 2.292.199.2.597.299.796.1.1-.1.2-.4.299-.698.995-3.589 1.394-4.984 1.792-5.383.298-.3.298-.3 1.394-.2 2.389.2 3.185-2.591 1.592-3.688-2.09-1.295-4.28.598-5.176 1.994m2.49.698c-1.693 1.395-1.693 3.389-2.19 5.183-.3 1.196-.698 1.894-.797 0-.299-2.592.1-4.485 1.195-6.08.696-1.097 1.791-1.894 2.887-1.894 2.19-.2 2.389 1.595 1.792 2.492-.498.797-1.693 1.096-2.888.299m-79.444.897c.796 0 1.493.698 1.493 1.495s-.697 1.495-1.493 1.495-1.493-.697-1.493-1.495c0-.797.696-1.495 1.493-1.495m4.778.997c.697 0 1.295.598 1.295 1.296s-.598 1.395-1.295 1.395c-.696 0-1.294-.598-1.294-1.395s.598-1.296 1.294-1.296m4.38 1.495c.598 0 1.096.498 1.096 1.096s-.498 1.097-1.095 1.097a1.106 1.106 0 0 1-1.095-1.097c0-.598.497-1.096 1.095-1.096m3.087 1.993c.498 0 .796.4.796.898a.786.786 0 0 1-.796.797c-.498 0-.896-.399-.896-.797.1-.598.498-.898.896-.898m-10.851 2.692c-.3 1.595-.1 3.29.298 4.485.896 2.492.498 6.978.498 6.978l-2.489 2.492c.2-2.293.498-4.785.299-6.778-.1-1.296-.697-2.492-.797-3.788-.1-1.196.1-3.589.1-3.589zm4.081.698.1 10.665-8.562 8.274v-2.193l7.268-7.277-.2-9.868zm21.106 24.322-.598.897h9.657l.2-.897zm12.543 0-.199.897h4.48l.1-.897zm7.367 0-.1.897H92.3l-.199-.897zm19.413 0 .299.897h4.38l-.398-.897zm7.367 0 .299.897h7.566l-.597-.897z"/>
    <path fill="#d40000" d="M14.35 11.409v2.79h2.688s.1 2.692.1 8.274c0 5.483.099 8.174-.2 9.769-.896 3.588-6.172 3.588-7.168.997-.597-1.496-.398-2.692-.497-4.187H6.386v1.695c0 3.987 1.393 5.98 4.48 6.778 3.185.897 6.968-.499 8.262-3.19.797-1.595.697-1.694.697-11.164 0-6.28.1-8.971.1-8.971h2.489v-2.791zM164.178 237.982v-2.791h-2.688s-.1-2.691-.1-8.274c0-5.482-.1-8.173.2-9.768.895-3.589 6.172-3.589 7.167-.997.598 1.495.398 2.691.498 4.187h2.887v-1.695c0-4.087-1.394-5.98-4.48-6.778-3.186-.897-6.969.498-8.263 3.19-.796 1.594-.697 1.694-.697 11.164 0 6.28-.1 8.971-.1 8.971h-2.488v2.791z"/>
</svg>
