<svg xmlns="http://www.w3.org/2000/svg" xml:space="preserve" width="178.6" height="249.4" viewBox="0 0 178.6 249.4">
    <path fill="#fbfbf6" stroke="#7f7f7f" stroke-width=".4" d="M3114.2-735.7H3275c4.7 0 8.5 3.8 8.5 8.5v231.6c0 4.7-3.8 8.5-8.5 8.5h-160.8c-4.7 0-8.5-3.8-8.5-8.5v-231.6c0-4.7 3.8-8.5 8.5-8.5z" transform="translate(-3105.277 736.062)"/>
    <path fill="#d40000" d="M14.114 56.16s-1.8-2.5-4.2-5.5c-1.6-2-2.9-4.2-3-6-.1-2.1 1.2-4.3 3.5-4.4s3.3 1.6 3.7 3.1c.4-1.4 1.3-3.2 3.7-3.1 2.3.1 3.6 2.2 3.5 4.4-.1 1.9-1.4 4-3 6-2.4 3-4.2 5.5-4.2 5.5M164.514 193.26s-1.8 2.5-4.2 5.5c-1.6 2-2.9 4.2-3 6-.1 2.1 1.2 4.3 3.5 4.4s3.3-1.6 3.7-3.1c.4 1.4 1.3 3.2 3.7 3.1 2.3-.1 3.6-2.2 3.5-4.4-.1-1.9-1.4-4-3-6-2.5-3-4.2-5.5-4.2-5.5M14.014 11.46v2.8h2.7s.1 2.7.1 8.3c0 5.5.1 8.2-.2 9.7-.9 3.6-6.1 3.6-7.2 1-.6-1.5-.4-2.7-.5-4.2h-2.9v1.7c0 4 1.4 6 4.5 6.7 3.2.9 7-.5 8.3-3.2.8-1.6.7-1.7.7-11.1 0-6.3.1-8.9.1-8.9h2.5v-2.8zM164.514 238.06v-2.8h-2.7s-.1-2.7-.1-8.3c0-5.5-.1-8.2.2-9.7.9-3.6 6.1-3.6 7.2-1 .6 1.5.4 2.7.5 4.2h2.9v-1.7c0-4-1.4-6-4.5-6.7-3.2-.9-7 .5-8.3 3.2-.8 1.6-.7 1.7-.7 11.1 0 6.3-.1 8.9-.1 8.9h-2.5v2.8z"/>
    <path fill="#e2cf00" d="M152.868 29.404 143.7 35.4l-.134 6.994c-5.43-2.617-7.797-6.902-8.662-11.92-1.539 1.94-1.226 11.768-1.226 11.768-1.393.72-1.908 1.676-2.808 2.537.871 1.46 3.356 3.92 3.356 3.92-.015-.047-1.14 10.222.215 10.632 1.245-4.372 2.887-8.2 8.958-12.203 0 0 .09 16.311-.296 32.062-2.566-1.779-8.01-4.953-11.507-8.223 4.555-5.884-.09-13.557-6.878-8.46-4.398-2.393-5.072-13.678-6.164-19.596-.209-1.193-1.237-4.665-1.237-4.665s-14.51-4.032-20.73-3.697c5.228 13.68 4.22 30.34-18.941 33.452-11.076 5.103-23.9 10.769-36.35 21.373-2.3 15.77-10.414 23.537-16.148 27.836.04 6.392-.044 12.72.227 19.175 0 .046 5.235-3.45 6.049-2.812 4.368 28.516 20.395 34.166 18.786 34.961-.263.122-5.246 5.277-5.246 5.277l-19.548-12.913c-.672 19.71-.28 39.83.004 59.578 3.452-1.96 9.79-6.643 9.79-6.643l.1-6.715c-.026-.635 8.885 5.592 8.919 13.005.691.468 2.223-10.68.826-11.88l3.663-3.785-3.943-3.8s.994-6.307-1.036-9.94c-1.33 8.317-8.21 10.923-8.21 10.923s-.13-30.425-.315-30.457l12.28 7.81c-6.656 9.091 5.052 12.039 6.436 7.621 7.549 7.07 4.645 15.503 7.95 25.535l21.452 3.949c-8.836-16.44.747-35.186 18.11-33.845 3.248-1.358 6.191-3.321 6.191-3.321s-2.154-3.541-4.881-6.823l-37.162-.622 17.316-32.565-11.383-.361s9.249-19.692 7.252-21.282c-.706-.561-.406-6.904-.406-6.904l10.18.385c.397-4.547-4.916-21.864-12.425-33.19l41.746.371-23.52 32.869 12.617.369-7.512 15.523 1.21 12.108-11.203.367c1.937 16.787 14.36 34.47 18.726 39.928 7.215-1.721 20.698-12.071 29.067-18.521 1.084-11.26 4.952-20.847 15.053-27.998l.047-18.539s-5.761 3.742-5.775 3.479c.023-4.008-2.056-12.361-5.916-19.812-4.134-7.994-10.91-15.23-12.466-15.673 3.58-5.441 5.11-5.927 5.065-6.005l19.52 12.557zm-98.4 39.528s-3.804 1.448-7.09 1.397c-5.91.306-10.418.79-12.823 5.65-.487 1.483.574 2.03 1.359 2.407 4.46-5.53 16.297 1.798 18.554-9.454M28.214 94.419c-.005.789.867 2.063 1.307.735.376-.942.462-2.49.035-3.436-1.184-.672-1.322 1.927-1.342 2.7m64.037 26.856-5.77.028-.04 6.793 5.817.004zm56.715 33.839c-.127.68-.747 3.71.66 3.176 1.659-1.29.243-7.194-.66-3.176m-5.438 17.052c-.689-.994-2.786 1.485-4.514 1.567-7.686.419-13.357-.62-14.315 7.452 4.429-2.837 10.654-1.547 14.655-2.467 2.891-.942 6.208-3.584 4.174-6.552"/>
    <path fill="#131f67" d="m23.976 229.984.004-210.52h130.613l-.004 210.52zm5.986-136.437c.12-2.027-.723-2.867-1.441-1.463-.172.324-.733 3.849.593 3.965.88.067.797-1.636.848-2.502m-2.112 2.37c-.013-.48-.304-.682.353-4.841-1.247-.487-2.315-2.505-1.413-3.784.358-.493.25-.602.099-1.021-.35-1.039-.175-1.874.786-2.533.62-.415.636-.538.438-1.081-.5-1.427-.03-2.817 1.331-3.304.943-.335.758-.382.854-.97.224-1.345.97-2.16 2.31-2.013 1.25.131 1.327.132 1.439-.487.303-1.7 2.35-3.545 5.026-4.798 1.33-.627 3.524-1.063 7.751-1.053 2.423-.048 5.433-.37 7.124-1.861.279-.262.669-.94.807-.862.323.218.236 1.905-.375 3.449-1.8 4.477-4.23 5.716-11.11 5.675-2.052-.105-5.078.187-6.35 1.494-.389.4-.638.786-.5 1.003 2.852.404 5.775 1.69 7.486 7.333 5.174-3.683 13.415-9.314 23.627-14.39-1.225-6.74 4.597-7.788 7.876-6.438 0 0 .08-.433-.041-.944a5.15 5.15 0 0 0-.914-1.987c-.153-.31-1.075-.888-.887-1.336.298-.756.16-.958-.469-1.643-.414-.451-.13-1.409-.035-1.795.127-.727.596-1.76.182-2.135-.644-.607-2.86-1.61-3.997-2.422-1.26-.92-1.286-1.74.568-4.747.843-1.76 1.626-3.627 2.296-4.892 1.014-1.898 1.114-3.15.504-4.253-.794-1.428-.66-3.114-.646-3.068 0 0-7.559-10.614-10.666-14.841l-35.484.006.003 80.748 6.098-5.829-1.655-1.96c-.238 1.145-.029 2.244-1.417 2.314-.478-.05-.925-.253-.999-.734m20.994 108.047c.204-3.203-1.323-8.442-3.631-12.077.107 2.755.303 6.13-.253 8.835zm55.754 8.361c-.277-.094-2.59-.232-4.056-.303-4.827-.26-7.96-2.585-10.055-5.8-.52-.793-.305-.76.832.144 3.21 2.51 6.21 4.014 8.85 3.643 3.736-.535 5.75.838 5.23 2.445-.078.262-.108.092-.8-.129m-12.64-7.147c-.752-.654-.796-.949.08-.355 2.704 1.81 5.988 4.77 10.025 3.03.837-.536.065-.464-1.34-.317-2.146.235-4.762-.864-7.973-3.096-1.568-1.092-.883-2.001.886-1.155.554.266 1.108.455 1.447.472 1.735-1.165 5.407-1.144 5.314-1.144.419-.354-.95-.934-2.983-1.705-1.324-.503-1.646-.706-.659-.746.864-.026 2.22.4 3.188 1.024 1.629 1.047 2.443 1.624 2.936 1.705.802.066 1.62.18.242.821-.618.29-.573.368-.5 1.065.117 1.1.18 1.084.685 1.706.843.934 1.218 2.685.006 1.594-.262-.125-.294.107-1.005.397-4.173 1.213-7.31-.647-10.349-3.296m7.728.309c.233-.308.577-1.095.64-1.312-.074-.51-.538-.343-.77-.066-.39.477-.933 1.186-.487 1.436.215.11.43.204.617-.058m-1.433-.333.936-1.666c-.231-.11-3.382.552-2.891 1.004.445.405 1.955.662 1.955.662m3.566-5.581c-1.43-.767-1.852-2.44-.782-3.533.9-.923 2.428-.852 4.272.288.646.406 1.046.594 1.479.442.742-.274 1.017.146.968.718-.131 1.283-2.123 1.597-3.365.135-1.654-1.929-3.452-.578-2.92.818.273.713.797.825 1.382 1.091-.032.109-.619.26-1.034.04m-6.553-8.597c2.38-.651 5.93 1.877 7.844 1.532.834-.18.72 1.026-.147 1.454-1.006.505-2.454.171-5.5-1.425-2.506-1.361-4.54.901-2.869 2.583.353.342.892.547 1.524.52.85-.042 1.095.191-.002.479-.634.166-1.805-.088-2.372-.664-1.335-1.385-.995-4.03 1.522-4.479m-50.421-7.386c-.076-2.832 1.445-4.417 1.476-4.432l-10.71-7.29.153 29.093c5.311-3.373 7.049-7.633 7.343-13.125 10.469 11.76 7.206 26.087.663 34.25-.264-4.985-1.756-10.89-7.802-13.912l-.004 5.958-10.163 7.135.005 6.995 23.806.002L61.036 211.2c-2.069-7.595-1.754-13.907-3.153-17.366-1.048-2.854-3.032-6.533-4.331-5.968-4.34 3.456-8.62-.578-8.707-4.277m9.006 3.365c3.702 2.684 4.694 7.054 5.458 10.942.031.032 1.944 13.197 2.005 13.367.242.729.16 1.44-.475 1.994-3.422 4.715-10.115 14.811-10.115 14.811l65.612.388c-3.502-5.112-6.234-10.157-9.558-14.355.14-.231-.26-3.096-.81-4.013-.564-.947-.7-1.459-.31-2.323.954-2.145 1.94-4.492 2.831-6.467 1.704-3.781 1.89-3.811-.433-5.047-2.752-1.61-3.243-2.124-2.661-3.962.204-.664.237-.927-.61-1.103a43 43 0 0 1-2.004-.491c-1.847-.584-1.31-.225-1.991.267-.511.26-.968-.733-1.563-1.882-.702-1.335-.871-1.367.282-.68 2.137 1.267 5.92.778 4.586-.7-.644-.715-1.259-1.09-1.187-2.715.07-1.609.089-2.088-1.005-2.311-2.188-.447-4.565-.26-6.605.255-6.195 1.557-11.164 6.944-13.039 10.94-.42.694.551.67.968.672 2.038-.174 3.469 3.069 2.149 4.516-.621.646-1.22.255-.568-.592.75-1.388-.366-3.236-2.004-2.766-2.056.591-2.118 3.252-2.376 5.123-.694 5.35 2.01 12.516 2.68 13.975 0 0 .137.217.091.217s-.372.307-.51.136c-.475-.544-1.683-4.915-2.328-8.045-1.26-8.658.961-16.615 8.147-21.137 6.352-4.605 9.555-3.611 13.167-3.822a48 48 0 0 0 4.237-1.754c11.328-5.922 21.653-11.726 31.14-19.423 6.943-5.251 10.254-9.518 16.21-14.883l-.595-30.04s-.599-.5-.596-.98c.382-2.009-3.124 1.344-5.383 2.46-1.416-13.765-8.834-27.303-17.828-35.218l.373-.508s3.012 1.999 4.503 2.936l-.004-1.92-3.628-2.28c-.165-.697-.072-.805.715-.816l2.903 2.153-.005-1.749-2.352-1.5.747-.954 1.26.812c-.532-1.38.224-1.345.99-.412.321.42.735.964.917 1.475.06.202.273.667.273.667l2.059 1.53s-.073-.744-.01-.976c.346-1.081 2.825 2.431 2.516 2.507l2.104 1.529c.498-.756 2.372.756 2.46 1.5.168.326 7.268 4.902 7.268 4.902l.077-2.522.762-1.001.344-58.432-9.385 6.057-.104 7.072c-4.45-1.45-8.315-7.91-8.878-11.953-.292-.156-1.574 7.96-.9 11.508-1.178.875-3.165 2.937-3.15 2.937l3.572 3.92s-.714 6.001-.546 8.989c.146 1.409.175 1.564.592 1.566.34.002.65-.367.652-.692.839-3.57 3.587-9.14 8.365-11.03.309-.015-.033 31.83-.033 31.83l-11.832-8.085c-.583-.514.774-.475 1.608-3.179 2.14-6.95-5.298-9.409-8.16-5.387-.479-.003-2.44-2.444-2.742-3.467-2.18-4.423-2.598-9.424-3.037-13.45-.252-1.828-.928-4.818-1.473-6.632-.303-.961-.33-1.658.308-2.552 2.749-5.678 8.048-9.593 10.041-15.322l-65.783-.22c4.16 3.445 7.791 13.077 11.58 14.306-1.823.237-1.2 1.835-.5 3.54.867 2.11.772 2.543-1.429 6.894-3.231 6.372-3.397 5.814-.185 7.783 1.983 1.28 2.352 1.561 2.064 3.293-.288 1.731-.378 1.205 1.272 1.338.88.083 1.573.242 1.973.414.446.204.784.485 1.356.302.973-.319 1.003-.087 1.03.625.013.31.472.932.625 1.165.382.621.197.713-.48.29-2.12-1.342-5.657-.76-4.354.687.536.591 1.08 2.59 1.12 3.581.082 1.765 1.236 2.39 3.63 2.034 4.63-.344 15.047-6.101 17.476-12.57-5.333 1.824-4.246-4.746-2.334-4.549 0 0-.516 1.173-.535 1.838-.06 2.352 1.898 2.534 3.25.87.591-.878 1.305-4.123.956-7.793-.421-4.444-2.212-9.406-2.545-10.646 7.638 18.274.617 26.326-10.105 31.57-4.114 1.725-4.67 1.706-7.093 1.831-1.651.13-3.153.956-4.745 1.489-9.144 4.418-20.438 9.89-30.53 18.064-7.236 5.373-12.989 10.214-18.718 16.432l-.02 32.25c1.714-.27 4.516-1.955 6.157-2.92 1.889 12.05 8.07 26 18.296 34.339 0 0-.234.463-.25.447-1.46-.968-2.92-1.936-4.319-2.687l-.07 1.531 3.442 2.373c.09.372-.592.878-.592.878l-2.842-1.966-.025 1.563L47 171.16c.598.592-.715.91-.715.91l-1.306-.953s.088.76.056.898c-.346 1.159-2.228-1.39-2.56-2.661l-1.845-1.094c.258.744-.406.864-.93.675-1.384-.704-1.316-1.896-1.604-2.61l-2.46-1.561c-.43 2.35-2.925-.961-2.535-1.748l-3.166-2.155c.17.063-1.205.35-1.666.052-.538-.359-.73-1.784-.73-1.784l-1.89-1.171.002 2.058 19.498 13.656-.28.524-20.33-13.955.832 60.559 9.914-6.875c-.187-2.26.226-4.285.04-6.87 5.089 3.187 6.804 5.348 9.048 12.015 1.457-3.798 1.2-7.451.542-10.829 1.302-1.075 2.573-2.105 3.23-3.726-1.223-1.694-2.424-2.165-3.71-3.735-.097-1.92 1.016-7.608-.485-9.49 0 0-2.733 8.279-8.641 10.766-.18-8.744.026-30.717.026-30.717s6.07 4.199 9.16 5.904c1.446.782 2.462 1.268 2.49 1.825.013.279-.575.646-.825 1.032-.155.247-.833 2.61-.566 4.453.116 1.363.759 2.218 1.372 2.871 1.916 2.1 5.486 1.116 6.884-.47m11.739-15.467 23.319-32.715c2.768 12.04 7.454 23.07 13.567 33.057zm11.526-34.394s1.624-3.24 2.374-4.954l-2.854-.001 1.709-1.924 4.258-.006-2.281 4.876 1.805-.004 2.497-4.86 6.618-.007-2.312 4.86 1.528-.006 2.481-4.86 6.156.006-2.173 4.861 1.45-.007 1.264-2.453.314 4.46-6.125-.006 2.42-4.953-1.975.003-2.729 4.952-5.739-.003 2.482-4.953-2.175.003-2.714 4.982zm18.894-17.422 2.468-5.246-1.959.003-2.73 5.122-6.11-.005 2.406-5.077-1.527.006c-1.028 1.604-2.682 4.843-2.682 4.843l-6.48-.007s1.84-3.44 2.56-5.122l-1.604.006-1.308 2.08c-.459-.776-.153-2.847-.24-3.715l6.109.006-2.452 5.03 1.944-.004 2.683-5.029 6.449.007-2.622 5.03 1.528-.007 2.604-4.735 6.557-.008-2.296 4.753 2.021-.004-.891 2.069zm-6.04-9.135-1.236.24c-1.586-13.58-9.08-27.413-12.24-33.126l37.27.53zm43.752-78.384s-3.56 4.59-3.79 12.28l3.378-2.703c-.2-7.816.412-9.577.412-9.577m-3.748 12.853c-.049 5.725 1.441 9.37 3.338 12.23.037-3.683.398-7.41.62-8.4zm-92.27 109.48-12.047-8.32.004 1.827 14.322 9.756zm-2.165-4.47c-3.23-1.628-9.881-6.65-9.881-6.65l.005 1.671 10.586 7.46c.215.202.493.158.587-.074a72 72 0 0 1-1.297-2.406m-2.95-7.228-6.93-4.838.006 1.5c1.78 1.59 7.621 5.385 7.621 5.385zm-6.924-5.952 6.517 4.216-.405-1.875-4.626-3.153zm117.026-58.53.347-30.081c-6.792 3.225-8.128 12.61-7.898 12.89-6.747-6.988-9.297-22.045.174-32.156.706 3.254.956 7.96 7.657 12.255l.177-6.374 9.354-6.011-.003-7.521-22.57.006c-3.498 4.436-6.984 9.6-10.437 14.314-1.291 1.772-1.62 2.59-1.378 3.52 2.266 8.184 1.82 18.271 6.59 23.05 6.392-6.028 12.387 3.045 7.417 8.648zm-97.313 130.11c.863 2.743.275 8.264.213 8.264 1.037-.566 3.846-8.566 3.139-11.572m32.6-146.942c-1.587-.458-2.786-1.146-4.469-.986-1.327.131-1.772-.305-.966-1.027 1.055-.892 2.075-1.272 4.044-.24 5.89 3.084 6.071-1.418 3.42-1.743-.756-.098-.722-.577.033-.449 4.087.18 2.836 5.65-2.063 4.445m-6.886-4.498c-.785-.283-1.723-.768-2.063-.662-.881.242-.909-.253-.798-.825.255-1.376 1.658-1.135 3.518.052 2.659 1.702 3.676-.737 1.261-2.066-.815-.438-.567-.56-.089-.589 1.266-.054 2.444 1.67 2.111 3.077-.862 2.27-2.924 1.39-3.94 1.013m7.785-4.178c-1.726-.305-4.212-2.625-5.368-2.787-.647-.08-1.42.007-1.618-.257-.644-.808 1.161-.798 1.287-1.09.004-.682.052-1.1.023-1.332-.322-.435-1.577-2.16-1.525-2.995.03-.047.66.468.984.47 3.08-1.622 5.174-.898 7.775.247 1.077.47 3.841 2.622 3.87 2.963.058.573-1.17-.502-2.138-1.158-2.366-1.654-4.503-2.827-7.487-1.855-.464.168-.387.246 1.141.146 1.497-.084 2.713.372 4.619 1.606.476.313 1.044.842 1.383.999 2.4 1.144 2.918 2.276 1.392 1.973-.324-.063-.954-.408-1.585-.628-1.094-.393-.709-.267-1.76.222-.372.168-1.269.534-1.994.622-.556.09-2.377.08-1.579.842.859.856 2.275 1.484 3.244 1.876.692.345.153.28-.664.136m.207-3.729c1.129-.41.24-1.36-1.179-1.57-.323-.048-1.027 1.495-1.044 1.836-.017.247 1.605-.037 2.223-.266m-3.102.168c.263-.169 1.12-1.417 1.12-1.618.005-.805-1.014-.579-1.25.255-.284 1.02-.304 1.654.13 1.363m-3.572-6.459c-.923-.408-2.178-2.195-.745-1.892.308.063 1.912.15 2.961.157 3.533.02 7.057 1.62 9.296 3.954 1.242 1.307 1.328 2.267.069 1.362-4.497-4.034-7.248-3.277-11.581-3.58m34.928 139.156-1.254.673c-.004.697.259.59.812 1.073 0 0-.772.12-1.328.085-.91-.067-1.126-.053-.713.6.183.294.443.745.443.745s-.494.105-1.234-.1c-1.124-.317-1.711-.15-1.283.472.123.17.352.497.352.497-.832-.19-2.34-.927-2.34-.927l-1.066.319c2.09 4.19 9.68 1.558 7.61-3.437m37-5.956c1.179-.983.6-2.194-1.108-3.086-.707-.375-.646-.375-1.791.3-1.425.842-1.533.888-.505 1.961 1.21 1.308 2.536 1.548 3.404.825m-4.35-2.795c1.083-.474.682-.399.611-1.529-.316-1.302.425-1.39.787-2.61.143-.665-.414-.42-1.5.594-.9.753-1.163.937-1.16.566.094-.309-.611-1.102-1.258-1.2-.54-.095-.493-.219.036-.912.917-1.201 1.296-2.716.687-4.035-.777-1.676-1.038-1.925-2.774-.465-.885.815-2.138 1.442-2.746 2.46-.436.74-.178 1.469.508 2.928 1.69 3.662 4.335 5.302 6.81 4.203m6.048.035c1.902-.747 1.128-2.81-1.838-4.885-1.798-1.249-2.307-1.236-.772.12.967.871 1.12 1.166.715 1.798-.343.525-.717 1.126-.365 1.608.536.746 1.472 1.664 2.26 1.36m-107.065-3.419-2.075-1.312.005 1.795 2.075 1.235zm103.604 1.62c.419-.292.763-1.11.765-1.466.098-.835-1.261-.642-1.915.282-.73 1.048.128 1.89 1.15 1.183m4.63-2.836c.947-1 .49-2.055-1.462-3.305-.753-.5-1.136-.811-1.034.164.029.294-.297.695-.5.926-.667.754-.375.895 1.546 2.113.969.61.922.671 1.45.102m-108.231-1.91-2.076-1.25.006 1.625 2.075 1.405zm-4.53 1.63.025-1.64-2.69-1.796-.041 1.825zm105.608-.66c-.345.942 1.046.517 1.124.424.234-.478.034-.51-.09-.573-.246-.11-1.188.055-1.034.149m.609-1.173c.479-.151.54-.09.468-.956-.1-1.3.101-1.408.953-1.975.697-.46.696-.383.686-1.188-.01-.96.054-1.377 1.32-1.57.525-.075.82-.212.852-.614.066-.696-1.038-1.848-2.407-2.522-.2 0-3.271 2.674-4.125 3.597l-.528.57.626 1.18c.976 1.831.818 2.511.248 4.937-.111.65.383.56.51-.229.175-.757.285-1.02 1.397-1.23m4.666-6.502c-.24 1.484.526 2.386 1.256 1.647.388-.4.716-3.663.44-4.175-1.47-1.587-1.632 2.172-1.696 2.528m-23.826 24.48c5.496-3.233 12.578-.592 16.558-3.245 1.864-2.047 3.723-3.367 2.667-4.782-.827-1.103-1.35-1.277-1.35-1.277.06.078-2.9 2.583-7.202 2-7.157-.243-10.549 2.012-10.673 7.303m9.395-7.698c3.501.129 6.344-.489 7.646-1.502.806-.63.93-.738-.335-.853-2.714-.218-5.472-3.39-6.333-6.46l-.378-1.318c-7.255 5.807-23.2 14.951-23.2 14.951 1.067 4.943-2.514 7.893-7.348 6.131-.848-.082-.731 1.002-.58 1.451.258.73.84 1.352.964 1.445.721.623.858 1.027.746 1.614s-.096.572.32.791c.722.391.688.948.296 2.09-.426 1.608-.46 2.025.693 2.79 1.491.953 4.4 2.007 3.976 3.444-.976 3.26-2.582 6.082-3.988 9.138-.53.848-.415 2.24-.002 2.893.519.994.45 2.2 1.108 3.117 3.67 5.454 6.821 10.177 10.155 15.102l34.497.003-.005-80.392s-5.817 5.32-5.804 5.691c.029.45 1.259 1.153 1.798 1.233.017-.247-.008-1.207.071-1.531.05-.48 1.607-.362 2.113.059.353.296.25 2.23-.115 3.806-.3 1.283-.254 1.298.297 2.044.673.902.9 1.677.817 2.698-.05.557-.037 1.006.115 1.378.381.869.266 2.106-.154 2.676-.591.832-.608.956-.471 1.405.484 1.535.307 2.85-1.41 3.52-.216.092-.465.462-.59.786-.74 2.456-2.144 2.463-4.053 1.756-1.358 5.3-6.858 6.629-10.838 6.466-4.133-.164-8.331.152-10.214 2.864.454-6.435 3.327-9.528 10.206-9.286m12.482-10.666c.696-.259.793-1.001.194-1.469-.906-.717-1.944.02-1.518 1.059.243.59.644.67 1.324.41m-108.815-2.33-2.75-1.92.02 1.718 2.752 1.764zm5.191 1.407-1.945-2.348c-5.75-3.516-10.725-7.46-15.505-10.63l-.043 2.166 1.369.69s.11-.48.205-.758c.173-.525 1.753.939 2.255 2.103l.396.946 1.845 1.017s.034-.526.035-.666c.007-1.114 1.972.414 2.872 2.23.213.435.504.9.504.9l1.737 1.063c.684-.94 2.42.34 2.876 1.488.562 1.442 1.564 1.572 1.595 1.572zm-10.366-.324.01-1.671-2.874-1.89-.04 1.687zm118.162.142c.08-.433-.357-2.137-1.005-2.234-.4-.064-1.037.55-1.04.984.013.557 1.965 1.714 2.045 1.25m-2.333-2.025c.621-.693-.16-1.58-1.119-1.276-1.143.365-.748 1.404.532 1.427.278.017.447.003.587-.151m-115.98-1.228.01-1.594-2.66-1.765-.055 1.547zm-5.211-.557.024-1.532-1.736-1.218.005 1.826zm.057-4.565-1.783-1.156.006 1.656 1.86 1.063zm7.235-5.049c-.182-.48-.93-2.032-.93-2.032l-8.066-5.65.006 1.733 9.035 6.089zm-3.778-13.423-.088-.713-.712.383zm-1.714.175-1.13.613 3.412 2.217-.268-1.58zm118.397-18.735.883-.645-1.552-1.061-.114 1.082zm1.58-1.012 1.162-.953-3.872-2.73.268 1.703zm2.739-1.439.006-1.16-6.27-4.247.436 2.139c1.107.64 2.459 1.577 3.872 2.576.876.624.875.872 1.956.692m-.003-2.15-.005-1.858-7.253-4.824.589 2.17zm0-2.786-.003-1.95-8.775-5.809.956 2.575zm-.001-4.875-11.065-7.431 1.418 2.84 9.651 6.464zm0-2.847-13.876-9.259 1.558 2.594 12.324 8.352zm.003-3.002-.524-.003c-.04 1.33-1.484.362-2.015-1.096-.41-.977-.502-1.225-.502-1.225l-2.797-1.89c.06.388.223 1.488.223 1.488l-1.89-1.156s-.546-1.83-.56-1.845l-3.212-2.186c.074.372.117.991-.084 1.037 0 0-.985-.424-1.428-1.077-.459-.683-.532-1.365-.532-1.365l-2.628-1.702-.649.074s-.353-.235-.69-.515c-.627-1.118-1.351-1.293-2.228-1.747 0 0 1.854 2.162 2.834 3.437a12 12 0 0 0 2.01 2.024l14.66 9.82zm.003-3.033-1.138-.688.082 1.796 1.045.718zm-114.33-3.942c.078-.108-.214-.25-.534-.947-.792-1.738-.865-2.342-.438-4.181.206-.866-.594-1.242-.955-.315-.282.725-.716 1.125-1.148 1.076-.4-.049-.479.121-.312.664.211.76-.242 1.747-.876 2.022-.649.166-.76.568-.578 1.172.303.977-.75 1.806-1.584 1.77-1.28-.069-.778 1.095.759 2.218.568.406.829.64 1.278.425 1.163-1.122 3.333-2.703 4.389-3.904m111.184 3.598-.067-1.703-3.227-2.185.403 2.293zm3.136-.724-.005-1.718-1.322-.859.067 1.827zm-121.31-2.668c.307.311.616.344 1.111.053.573-.29.344-.74-.24-1.038-.57-.298-1.33.595-.87.985m-.967-.749c-.044-.356.39-.848.7-.862.663-.043.542-.4-.212-.852-.353-.22-.983-.718-1.213-.89-1.137-.827-2.224.451-1.382 1.524.704.902 1.735 1.434 2.107 1.08m118.82 1.06-.251-1.905-2.905-1.936.235 2.09zM42.605 87.06c.156-.262.204-.51.19-.834-.055-1.192-.679-2.604-1.536-3.785-.643-.87-1.425-1.618-2.21-2.056-2.23-1.143-5.195-.65-4.772.823.303.992.236 1.843-.615 2.333-.588.337-.653.8-.036.804.448.003 1.623-.408 2.121-1.194.7-1.095 1.09-1.742.94.052-.065.758.028.696 1.185.641 1.574-.083 1.28.21.365.931-1.333 1.029-1.606 2.792-.936 4.281.412.916.702 1.412 1.258 1.292 1.177-.782 3.1-2.334 4.046-3.288m100.685 2.221-2.858-1.89.111 2.029 3.09 1.828zM33.33 87.44c-1.056-1.322-2.285.373-1.487 1.105.583.514 2.037-.019 1.488-1.105m-2.484.186c-.137-.418.623-1.08.748-1.342.344-.771-2.76-2.91-3.724-1.647-.668.878-.21 1.748 1.587 2.95 1.076.718 1.6.721 1.389.04m112.153-1.286-2.644-1.656.052 1.75 2.813 1.703zm-4.668 1.566-.005-1.78-2.674-1.872-.042 1.841zM34.605 85.79c.481-.476.328-.632-.613-.591-.587.027-.771-.067-.82.196-.08.619.937.888 1.433.395m-2.217-.678c.047-.124-.291-.373-.829-.825-1.043-.873-1.164-1.415-.157-2.106 1.425-.966-.063-2.352-1.733-1.79-1.345.457-1.337 1.803-.54 2.674 1.091.734 3.069 2.835 3.259 2.047m105.954-1.787-2.628-1.795.005 1.764 2.63 1.532zm-105.466.118c1.16-.596 1.231-2.097.055-1.547-.48.23-1.116.845-1.117 1.123.012.542.474.73 1.062.424m.869-3.43c1.516-.811 1.29-1.57-.232-2.524-1.846-1.063-3.138.972-1.619 2.358.798.717.984.625 1.85.166m1.952-1.474c2.469-2.647 4.103-2.513 7.343-2.448 8.392.08 10.961-3.943 10.685-6.761-4.07 2.034-7.72.945-11.595 1.525-6.69 1.493-7.48 4.66-7.938 6.468zm33.625-9.04c2.16.013 2.066.09 1.182-1.695 2.097.291 2.955 1.302 2.257-.806 1.109.393 1.786.707 2.94 1.085l.728-.43c-4.448-4.343-9.391-.658-8.09 3.713l1.655-.795z"/>
    <path fill="#d40000" d="m80.19 228.305 1.032-5.023 9.239.457s1.076 3.163 1.5 4.574zm-21.337-.11 4.908-8.127 6.962 1.899-1.595 6.35zm13.546.11 2.102-8.668c-3.975-.875-7.736-1.454-12.126-2.64l-7.132 11.3-4.289-.118c3.701-4.946 10.456-14.918 10.456-14.918 15.489 5.353 31.112 6.25 46.834 3.419 0 0 5.787 7.663 7.876 11.823l-4.087-.195-5.072-8.526c-3.535.382-7.01.856-10.697 1.005l2.516 7.52-4.057.007-2.301-7.488c-4.427-.165-8.147.168-13.45-.652l-1.868 8.144zm29.22.003-1.403-5.331 4.986-.59s2.306 4.068 3.576 5.917zm-44.727-49.52c6.196-9.45 28.081-39.76 28.081-39.76l3.208.127s-19.585 27.368-29.03 41.162zm-31.634-14.704 7.636 5.508.055 42.943-7.761 5.479zM56.96 93.846l4.622 9.065c-19.642 18.67-15.775 40.574-5.252 56.189 0 0-1.363 3.489-4.332 7.2-14.23-9.415-18.56-33.89-18.451-34.153 15.68-14.02 17.79-18.496 23.413-38.301m80.264 66.878c1.007-13.813 7.756-22.857 15.302-28.368l.38 14.053c-4.934 4.768-10.162 9.674-15.682 14.315m-20.514-13.91c17.204-16.116 17.786-39 5.25-55.787l5.133-7.18c7.267 7.795 14.408 15.977 17.428 34.967-10.88 8.617-20.514 22.844-23.067 37.22zm-23.695-18.756-.039-6.593 6.434-.04-.177 6.577zm-13.607-.05-.085-6.562 6.356.053-.101 6.654zm11.026-17.56s21.312-29.927 29.692-40.74l1.782 1.31-28.374 39.587zM40.63 89.508c-.023 11.807-7.56 21.171-15.28 27.27l.11-13.448zM152.65 32.53l.047 52.413-7.21-4.345.613-43.96zm-34.345 3.092c-16.267-4.243-31.086-5.507-46.657-2.164-2.037-2.426-8.859-12.54-8.859-12.54l3.934.054 5.579 8.962 10.622-1.392-2.734-7.274 4.381.026 2.18 7.131c-.015-.062 8.64.082 13.45.652.77-2.657 2.19-7.91 2.19-7.91l4.83-.002c-.617 2.534-2.288 8.56-2.288 8.56 3.946.549 11.279 2.418 11.34 2.496 2.567-3.637 4.965-7.29 7.285-10.929l4.705-.018c-1.402 2.328-9.696 14.473-9.958 14.348m-3.002-6.285-7.18-1.667 1.873-6.35 10.044-.002zm-41.257-2.287-3.344-5.9 6.434.007 2.13 5.197zm14.587-1.198-.975-4.695 11.679.008-1.187 5.006z"/>
    <path d="m61.94 20.757 10.388 15.025c.046-.046 5.823-1.157 11.487-1.433 5.632-.276 12.357.073 12.418.244 0 0 1.773 5.38 2.375 8.014.797 3.533.711 7.587-.122 10.275-1.227 3.939-1.882 5.127-4.629 7.834-2.032 1.984-4.915 4.134-7.883 5.277-4.114 1.724-4.53 1.706-6.954 1.83-1.605.069-1.76.145-2.641.589-.263.091-.45.384-.682.46-.2.06-.586-.003-.586-.003-13.35 5.878-23.802 12.424-31.704 18.273-.093.062-.157.37-.234.448-.651.538-1.24.936-1.875 1.412-.093.062-.278-.048-.37.014-9.3 7.187-14.549 13.005-16.487 14.68l.189 33.427s4.225-2.187 6.392-3.505c1.529 12.946 7.965 25.518 18.127 34.26l-4.402 6.102-20.313-14.032.285 61.684 10.798-7.518.007-6.5c3.227 2.17 6.37 3.024 8.64 12.926 1.826-3.47 1.672-8.656.843-12.127.016 0 2.745-2.259 3.572-4.002l-4.02-3.568s1.038-8.644-.85-10.388c-1.504 3.921-2.686 8.092-8.288 11.108l-.07-30.053c2.782 1.765 5.424 3.762 8.19 5.589l.386-.075 2.858 1.966s-.297.618-.577 1.034c-3.471 5.256 2.307 11.728 7.005 7.84 1.845-1.52 5.294 4.814 5.937 10.915.656 3.934 1.013 8.826 2.088 12.237.333.992.207 1.564-.507 2.164-3.593 5.085-10.843 15.317-10.843 15.317h5.215l.373-.601-3.841-.007c3.312-4.422 6.474-9.572 9.91-13.884 12.791 4.826 33.767 5.94 46.42 3.013 2.616 3.683 5.155 7.536 7.678 11.28l-3.64-.006.504.793 4.921-.002-10.37-15.32c-7.156 2.14-24.584 1.31-24.275 1.141 0 0-.045-.124-.652-1.86-2.998-9.69-3.271-18.296 4.237-25.246 3.986-3.551 8.443-5.908 13.423-5.46 2.222-.05 2.27-.158 3.197-.585.51-.23 1.577-.47 1.577-.47l5.046-2.803.664-.135 1.455-.765.295-.354 2.337-1.194.262.017 3.173-1.822.048-.263 1.239-.767.291.312c.34.033 12.42-7.912 17.445-12.339l.307.11c5.876-4.762 13.865-12.282 16.243-15.146l-.132-14.315-.2-.172-.076-15.847-.463-.002-.02-1.95c-2.597.96-5.45 3.387-5.65 3.278-1.649-13.411-7.81-25.766-17.876-34.847l4.277-5.933 19.9 13.427.054-3.915.247.001c.243-15.04.38-54.036.38-54.036l-.2-.016.002-3.11-10.174 6.516-.147 6.576c-4.512-1.482-7.365-6.915-8.308-11.748-1.315.533-1.931 5.62-1.444 12.077-1.394.827-2.294 1.75-3.134 2.844 1.103 1.4 2.33 2.536 3.681 3.705-.281.602-.872 9.233-.292 10.289.273.79 1.215.673 1.22-.148 1.366-6.723 7.733-11.127 8.086-10.722l-.152 30.995-11.293-7.943c2.377-2.679 2.866-7.21-.114-9.425-2.995-2.215-5.922-.345-6.625 1.075-3.658-2.39-4.901-11.28-5.436-14.75-.13-1.687-.563-3.98-1.06-6.056-.316-1.302-.68-2.542-.734-3.703-.028-.542.035-.789.533-1.467l10.984-15.626-5.6-.018-.063.092 4.413.011-9.895 14.101c-14.891-4.7-30.344-5.828-46.854-2.846L63.05 21.01l3.703-.01-.153-.248zm8.609.128.152.28 6.418-.025-.09-.232zm9.518.04.122.342 4.381.01-.137-.325zm22.34.117-.048.155 4.83.013.046-.154zm-14.78.006.045.201 11.632.007.048-.185zm22.4.101-.047.17 10.044-.002.078-.154zm42.392 8.592.034 2.12-6.752 4.294c-.161 9.067-.428 43.946-.428 43.946l-1.614-1.062.319-43.684c-.016.016 5.962-3.833 8.441-5.614m-17.706 1.706.232.001.074.496-.386-.002zm.47 1.287.182.667-.987-.006.173-.649zm17.031.333.008 1.378-5.823 3.664-.007-1.378zM134.25 34.23l1.528.024.257.76-1.913.004zm-37.384.413 1.017.16c2.328 5.586 2.932 10.37 3.335 15.372.934 6.474 2.809 12.969 4.12 15.716l-1.497-.01c-.17-.016-3.324-9.397-3.985-14.925-.18-1.1-.111-2.105-.167-3.127-.314-4.304-.897-7.526-2.823-13.186m1.912.213 1.295.131c.902 3.967 2.238 7.704 2.77 11.684.857 6.366 1.313 12.868 4.377 19.153L106 65.817c-1.857-4.251-3.004-8.668-3.747-13.454-.585-2.743-.589-4.801-.898-7.294-.353-2.974-1.503-6.756-2.578-10.213m1.973.197 1.295.193c.856 3.936 2.328 8.262 2.708 11.824.79 7.247 1.923 14 4.209 18.796l-.91-.021c-3.524-6.846-3.58-12.928-4.561-19.34-.58-3.795-1.807-7.562-2.74-11.452m2.081.306 1.156.177c.795 3.92 2.235 8.355 2.566 12.318.591 7.03 1.84 12.36 4.445 18.04l-1.08.024c-3.145-5.528-3.568-12.309-4.546-19.185-.564-3.81-1.776-7.64-2.54-11.374m49.385-.001.006 1.717-5.823 3.742-.006-1.687zm-47.504.337 1.202.193c.78 3.78 2.206 7.813 2.555 11.482.58 6.286 1.73 12.638 4.32 18.487l-1.112.071c-2.727-5.912-3.914-11.273-4.445-18.07-.302-3.809-1.755-8.46-2.52-12.163m31.689.018.41 1.023-2.793.139.037-1.145zm-29.717.35 1.433.287c1.508 6.029 1.906 11.726 2.937 17.458 1.285 7.11 2.637 10.693 3.755 12.015l-1.188.04c-2.88-6.161-3.908-12.28-4.565-18.629-.41-3.747-1.638-7.437-2.372-11.171m2.173.415 1.094.223c1.298 4.929 1.888 9.529 2.448 13.989 1.03 8.47 3.846 14.91 4.446 15.207l-1.203-.054c-2.601-3.605-3.568-9.74-4.844-18.413-.563-3.825-1.113-7.403-1.94-10.952m1.757.351 1.217.301s1.1 4.34 1.93 10.086c.698 4.786 1.059 14.212 6.241 19.643 2.592 2.708 7.16 5.057 10.276 2.506 1.334-1.137 2.193-2.958 1.387-4.913-1.339-3.273-5.909-2.712-4.386.717.165.821-.9.862-1.651.052-.782-.855-.591-1.83-.03-2.739 1.168-1.896 4.301-2.094 6.142-.397 2.946 2.896 1.667 7.856-2.06 9.428-4.285 1.831-9.817-1.946-12.017-5.55-3.62-6.273-4.186-12.234-5.029-18.568-.411-3.423-1.254-7.018-2.02-10.566m1.833.506 1.232.301c0 .016 1.353 6.105 1.81 9.714.56 4.46 1.162 9.71 3.066 13.775 1.189 2.53 2.904 4.644 4.656 5.877 1.49 1.061 2.844 1.735 4.836 1.298 2.302-.497 2.4-4.071.21-4.084-1.127-.007-.395-1.086.546-1.111 3.302-.105 3.41 5.127.287 6.284-3.572 1.34-7.414-1.189-9.802-4.344-4.173-6.509-4.015-12.435-4.925-17.686-.277-2.772-1.824-9.9-1.916-10.024m25.023.18.75 1.01-4.196-.025.02-.96zm-23.19.342 1.185.409c.031 0 1.191 4.727 1.914 10.318.848 5.39 1.13 9.864 3.915 13.764 1.163 1.617 3.341 3.78 4.713 4.036.847.191 1.728-.005 1.948-.654.36-1.065 1.268-.58 1.278.395-.004.68-.502 1.374-1.337 1.617-4.092.703-7.826-4.441-8.968-7.048-1.536-3.8-2.19-8.044-2.868-13.325-.265-2.246-1.611-9.372-1.78-9.512m37.936.178-.025 1.702-5.808 3.664-.005-1.656zm-36.15.343 1.325.364s1.102 4.153 1.766 9.295c.663 5.203 2.109 11.263 4.79 14.389.245.295.414.513.52.684.199.419-.037 1.145-.237 1.144-4.784-2.505-5.913-12.539-6.325-15.93-.601-5.25-1.839-9.946-1.839-9.946m18.617.806 4.227.118 1.012.997-5.585-.049c-.613-.623-.243-.543.346-1.066m17.534 1.373.007 1.408-5.823 3.695-.007-1.454zm-17.39.454 6.186.114 2.167 1.298-9.441-.072zm17.392 1.79.005 1.702-5.838 3.664-.006-1.594zm-19.673.332 10.506.109.024 1.145-11.384-.3zm-1.369 1.942 11.88.024.023 1.269-10.8-.11zm21.043.202.005 1.764-5.838 3.618-.005-1.687zm-18.818 1.854 9.102.038-.993 1.062-6.865-.071zm18.818.622.006 1.671-5.822 3.68-.006-1.64zm-11.964 1.275-1.101 1.077-4.721-.059.16-.974zm11.966 1.17.004 1.795-5.822 3.571-.006-1.547zm-17.855.668 3.888.085-.591.817-3.41.01zM99.37 52.284c.59 4.506 3.854 13.594 3.838 13.594l-1.28.008c.06.093-2.327-5.724-3.19-11.192-.105-.527.245-2.289.632-2.41m34.742.267 2.992.049-.654 1.157h-2.438zm18.11.262.007 1.563-5.822 3.587-.007-1.424zm-18.198 1.595 1.99.058-.47 1.08-1.542-.04zm18.2.835.005 1.671-5.837 3.633-.006-1.61zm-54.077.36c.582 3.285 3.058 9.876 3.256 10.31l-1.095.01c-.048.154-2.573-5.911-2.851-8.497-.136-.543.148-1.624.69-1.822m35.85.693 1.172.053-.204.618-.957.025zm.1 1.486.616.019-.142.587-.386-.002zm18.127.03.008 1.346-5.823 3.695.007-1.284zm-55.542.15c.88 2.637 1.774 5.319 2.808 7.878l-1.31-.038c-.87-1.847-1.474-3.924-2.141-5.97-.18-.853.225-1.578.643-1.87m-1.29 1.757 2.17 6.08-1.234-.008c-.502-1.226-1.08-2.59-1.474-3.847-.409-1.302-.378-1.348.538-2.225m56.819.367.006 1.594-5.823 3.618-.007-1.377zm-58.28 1.296c.278-.03.307.327.55 1.055l1.183 3.365-1.527-.04c-.44-1.055-.713-1.985-.83-3.022-.044-.496-.133-1.007.223-1.206a1.5 1.5 0 0 1 .402-.152m-1.627 1.275c.262.001.352.466.564 1.163l.637 1.97-1.42-.04c-.41-.93-.576-1.597-.447-2.571.31-.37.527-.523.666-.522m59.907-.002.006 1.672-5.822 3.509-.006-1.563zM90.846 63.87l.59 1.938-1.28-.023c-.214-.45-.072-1.006-.084-1.517zm-1.672.98c.015.001.03.001.046.017.18.852.01.913.01.897l-1.79-.01c0 .015 1.456-.905 1.734-.903m63.035.513.008 1.347-5.822 3.633-.008-1.362zm-69.206 2.113 34.974.099 1.163 1.647s-3.395.088-14.549.022c-9.38.115-28.232-.198-28.232-.198l1.841-.871c2.546-.047 4.849-.714 4.803-.699m69.208.209.007 1.47-5.822 3.54-.007-1.424zm-98.408 1.413c-2.815 1.253-5.44 1.562-7.398 1.396-4.225-.35-10.684 1.422-11.989 5.5-.41 1.436-.41 1.483.357 2.215.384.358.753.639.83.608.682-.6 1.584-1.724 2.542-2.058 1.268-.38 1.962-.438 4.045-.534 4.491-.205 5.495-.385 6.608-.688 2.457-.65 4.924-3.081 5.079-5.773.017-.31-.074-.666-.074-.666m-.125.371c-.48 5.63-6.548 6.368-9.216 6.197-5.414-.326-7.552 1.302-8.407 2.303-.279.277-.448.198-.4-.034.635-3.122 5.65-3.231 8.18-3.2 6.2.283 7.76-2.71 7.59-2.741-.463.213-.82.397-1.299.626-.2.092-.17-.032-.692-.344-.016.046-.626 1.435-1.405.115.015.062-.562 1.173-1.651.145.015.109-.654 1.064-1.713.098-.993.846-1.468.379-1.897-.212-.31.184-1.227 1.432-2.006.096-.82.522-1.163 1.092-1.856.748-1.637.3-3.066 1.978-3.646 3.537-.188.525-.544.616-.586.028-.192-1.61 2.448-4.411 5.121-5.185 2.071-.607 3.478-1.032 8.028-.865 2.576.061 5.855-1.312 5.855-1.312m66.353.424L121.675 71l-28.542 39.462-2.515-.061zm-45.775.023 3.24.003v5.386l-2.793-.001-.994-1.492q.391.235.878.237a1.74 1.74 0 0 0 .005-3.482c-.957-.005-1.733.78-1.739 1.74 0 .076.015.17.014.247L71.827 71s.45-.26 1.501-.734c.279-.122.928-.35.928-.35m9.997-.003 5.493.002-.001 5.385-5.492-.002zm12.05.01 5.692.002v5.416l-5.693-.033zm12.28-.005 5.678.002-.001 5.386-5.678-.003zm43.553.118.082 1.672-5.821 3.556-.006-1.656zm-40.919.563a1.846 1.846 0 0 0-1.846 1.846 1.846 1.846 0 0 0 1.84 1.852 1.846 1.846 0 0 0 1.847-1.846 1.846 1.846 0 0 0-1.84-1.852m-24.191.104a1.846 1.846 0 0 0-1.847 1.846 1.846 1.846 0 0 0 1.84 1.853 1.846 1.846 0 0 0 1.847-1.846c-.01-1.037-.822-1.862-1.84-1.853m11.987.025c-1.018-.006-1.84.824-1.831 1.846s.822 1.846 1.84 1.852 1.841-.824 1.847-1.846-.838-1.846-1.856-1.852m6.185.222a1.56 1.56 0 0 1 1.55 1.541 1.56 1.56 0 0 1-1.537 1.554 1.56 1.56 0 0 1-1.55-1.541c.006-.867.689-1.559 1.537-1.554m-24.376.026a1.56 1.56 0 0 1 1.55 1.541 1.56 1.56 0 0 1-1.537 1.554 1.56 1.56 0 0 1-1.55-1.541 1.52 1.52 0 0 1 1.537-1.554m36.549.046c.37.002.693.143.954.362l-1.68 2.295c-.415-.25-.69-.7-.687-1.226-.01-.79.626-1.42 1.413-1.43m-24.145.012a1.56 1.56 0 0 1 1.549 1.541 1.56 1.56 0 0 1-1.536 1.554 1.56 1.56 0 0 1-1.55-1.541 1.54 1.54 0 0 1 1.537-1.554m-18.638.122a1.154 1.154 0 0 1 .002 2.305 1.154 1.154 0 0 1-.002-2.305m-3.533.056c9.8 12.515 15.017 25.22 17.296 39.053l-1.635-.087c-2.719-15.042-8.86-27.954-17.177-38.356zm40.159.006a1.21 1.21 0 0 1 1.211 1.214 1.234 1.234 0 0 1-1.21 1.23 1.236 1.236 0 0 1-1.227-1.229 1.254 1.254 0 0 1 1.226-1.215m-24.192.104a1.234 1.234 0 0 1 1.227 1.214 1.237 1.237 0 0 1-1.226 1.231 1.213 1.213 0 0 1-1.211-1.23 1.2 1.2 0 0 1 1.21-1.215m11.988.025a1.21 1.21 0 0 1 1.211 1.214 1.237 1.237 0 0 1-1.226 1.23 1.213 1.213 0 0 1-1.211-1.23 1.233 1.233 0 0 1 1.226-1.214m30.495.877c.65 4.955-.634 8.151-4.401 8.67-4.802.668-5.421 1.02-5.448 5.586-.032 5.4-.828 6.974-4.641 7.4-4.292.485-5.298.99-4.913 6.347.286 3.916-1.252 5.579-4.557 6.302-2.58.573-4.822 1.441-5.794 4.05l-2.361.033c.61-4.112 4.741-6.084 7.38-6.223 2.858-.68 3.45-1.636 2.986-6.652-.348-3.778 1.032-4.915 5.45-5.787 3.537-.706 4.407-1.722 4.208-4.617-.411-6.223-.005-7.15 3.517-7.902 1.792-.423 4.71-.623 5.828-1.993 1.275-1.571.943-2.888.831-4.823zm22.71.165.005 1.625-5.822 3.602-.006-1.579zm-85.539.964c-1.25 5.393 3.032 6.564 5.634 7.476 3.033 1.055 3.764 2.592 3.424 7.944-.255 4.053.187 4.953 2.802 6.33 3.999 2.067 5.077 5.013 3.293 9.32-1.096 2.655-.514 3.402.167 5.711l-1.944-.011c-.14.045-1.773-2.889-.381-6.053 1.657-3.75 1.607-5.623-2.086-7.301-2.862-1.301-3.734-2.53-3.904-5.223-.07-1.13-.067-1.687.194-4.146.327-3.093-.76-4.43-5.332-6.129-2.032-.754-3.41-2.527-3.826-5.315-.119-.79-.006-1.686-.006-1.686zm68.235.59 17.35 11.584-.124 2.584-18.41-12.334zm-11.187.258c.833.005 1.523.675 1.518 1.526s-.688 1.528-1.52 1.523c-.834-.005-1.524-.69-1.52-1.526s.689-1.528 1.522-1.523m-54.588.667a1.38 1.38 0 0 1 1.38 1.386 1.38 1.38 0 0 1-1.381 1.384 1.39 1.39 0 0 1-1.38-1.385 1.38 1.38 0 0 1 1.38-1.385m83.032.151-.055 1.548-5.714 3.54-.006-1.547zM75.315 76.05l39.527.002-1.011 1.371-37.765-.394zm-13.7.058c5.251 6.856 10.409 13.927 14.388 27.244l-1.7.655c-3.286-10.712-8.34-19.625-14.298-26.995zm90.601 1.217.006 1.703-4.382 2.666-1.291-.843zm-92.924.193.781 1.026s-.837.66-1.797 1.351c-2.588 1.842-2.928 2.057-3.105 3.263-.403 2.876 2.536 4.286 5.492 2.632 1.052-.49 3.375-1.96 3.375-1.96l.673.978s-3.332 2.503-5.279 3.064c-4.28 1.243-7.489-4.207-4.322-7.438.48-.493 1.503-1.152 2.324-1.689.836-.536 1.858-1.227 1.858-1.227m17.646.677 36.424.216-23.268 31.895-1.033-.052c-1.797-11.942-6.271-22.368-12.123-32.059M61.055 79.54l2.127 2.984s-1.381 1.323-3.687 2.594c-1.842 1.01-3.822-.828-2.67-2.477 1.197-1.648 4.23-3.1 4.23-3.1m91.162.308.006 1.563-2.524 1.548-1.153-.734zM60.784 81.04c-1.003.056-2.692 1.206-3.253 2.193-.25.432-.159.789.07 1.084.353.451.754.422 1.961-.236 2.477-1.316 2.944-2.102 1.853-2.883a.92.92 0 0 0-.539-.158zm-.081.634c.154-.015.34.033.493.018.431.173.305.714-.143.835-.092-.155-.848-.175-.79.583-.173.433-.173.402-.713.46-.354-.095-.603.167-.665.321-.372.2-.834.135-.925-.082-.076-.218.22-.85.483-.849.123.017.34-.183.573-.337-.013-.418.48-.477.62-.476.138.032.601.035.82-.35.061-.078.154-.108.247-.123m91.516.371.002 2.399-1.83-1.172zm-101.07.315c6.634 7.854 11.414 16.223 14.447 27.786l-1.333.92c-2.004-8.12-5.1-16.681-14.246-27.83zm77.617.119c3.01 2.556 15.314 14.173 17.661 34.8l-1.641 1.01c-1.325-10.886-5.587-23.368-17.077-34.423zm-5.944.723a1.53 1.53 0 0 1 1.519 1.526c-.005.835-.688 1.528-1.521 1.523s-1.524-.675-1.519-1.526c.005-.835.688-1.528 1.521-1.523m-73.518.602s1.396 1.432 1.394 1.772c-.004.681-.546 1.065-3.747 2.237-.54.198-2.905.741-2.905.741l-.085-1.145c1.206-.442 4.45-1.212 4.686-1.907.11-.278-.458-.962-.334-.961zm22.092.285c.756.005 1.369.627 1.38 1.386a1.38 1.38 0 0 1-1.381 1.384 1.39 1.39 0 0 1-1.38-1.385c.004-.758.625-1.39 1.38-1.385m55.847.393c10.032 9.824 15.545 21.958 16.829 34.5-11.673 9.525-19.612 21.502-22.77 36.479-1.559-2.61-2.883-5.604-4.316-8.521 15.586-13.727 18.863-38.468 5.388-55.802zm-61.338 1.88.704 1.088s-.155.138-2.339 1.487c-3.19 1.993-3.722 3.29-2.654 5.323 1.083 2.08 2.301 2.196 5.736.53 1.207-.581 2.244-1.21 2.244-1.21l.55 1.133s-1.536 1.26-4.489 2.341c-2.783 1.02-5.41-.713-5.9-3.934-.357-2.34.653-3.602 4.709-5.915.464-.23 1.44-.842 1.44-.842m47.793.516a1.53 1.53 0 0 1 1.519 1.525 1.52 1.52 0 0 1-1.521 1.523 1.53 1.53 0 0 1-1.519-1.525 1.51 1.51 0 0 1 1.521-1.523m-61.974.05.92.873s-.389.585-2.65 1.95c-2.028 1.225-2.242 1.023-1.23 1.88 1.889 1.605 4.506 5.133 4.486 6.046-.021.882-.797 1.698-2.313 2.37-.82.366-4.098 1.538-4.576 1.628-.958.103-1.222.488-.27 1.36 1.624 1.867 3.004 5.868 2.457 7.072-.625 1.373-1.382 1.6-7.386 1.875-.679.027-1.017-.161-.636.723.274.636.546 1.52 1.086 4.231.479 2.417.396 3.5-.533 4.005-.542.291-4.722.189-6.448-.162-1.973-.383-2.188-.415-1.872.871.422 1.782.671 6.566-.677 7.486-.557.368-1.158.272-3.606-.547-1.571-.536-2.925-1.132-2.925-1.132l.024-1.485c1.277.533 4.77 2.04 5.76 1.566 1.183-1.695-.463-7.632-1.088-8.905-.763-1.52.041-1.856 1.78-.902.906.64 8.771 3.75 8.324.978-.478-2.65-1.34-5.641-2.994-7.539-1.533-1.742-.773-2.465.935-1.697 3.016 1.349 9.266 1.03 8.95-.38-.387-2.293-2.452-5.384-5.292-7.784-.783-.67-.812-.949.115-1.114 2.64-.216 10.204-.992 9.15-2.777-.902-1.46-2.127-3.077-3.155-3.934-1.69-1.419-3.398-2.048-4.168-2.346l.053-1.099c3.458-.289 5.238-1.315 7.779-3.11m-8.338 1.08c-1.233 12.992-6.65 23.7-17.833 31.17l-.068-1.455c9.84-7.4 14.546-17.942 15.84-28.132zm9.5.614.921.826s-.233.354-1.566 1.414c-1.023.799-.667.476.037 1.424.629.747 1.73 2.254 1.73 2.254l-.335 2.01c-1.163-1.663-2.128-2.875-3.86-4.65-.875-.903-.828-.933.425-1.591.944-.505 1.704-1.135 2.648-1.687m14.332.209c.015 0 1.801 3.245 1.8 3.539-1.071 1-3.872 2.437-5.012 2.106-1.77-.568-2.053-2.458-.349-3.577 1.472-1.075 3.298-2.008 3.545-2.068zm10.777 1.085c.756.004 1.37.612 1.38 1.385a1.38 1.38 0 0 1-1.38 1.385 1.39 1.39 0 0 1-1.38-1.385c-.012-.774.609-1.39 1.38-1.385m-11.155.12c-1.313.348-2.6 1.532-3.329 2.038-.263.184-.053 1.13.192 1.456.322.42.924.346 1.636-.052a17 17 0 0 1 1.207-.612c1.006-.474 1.424-.812 1.395-1.199-.15-.512-.576-1.675-1.1-1.631m-26.446.493c.284 1.456-.595 4.02-1.097 5.456-2.938 3.867-7.208 5.838-11.258 7.176-.897.304-2.115.142-2.115.142 5.62-5.77 10.427-10.012 14.47-12.774m26.52.11c.37.018.63.5.52.777-.635.337-.988.056-.898.537 0 0 .057.743-.869.768-.23-.094-.616-.08-.803.12-.65.274-1.217-.302-.505-.623.186-.091.665-.243.79-.521.064-.356.358-.648.697-.445.17.017.555.034.68-.228-.045-.31.172-.34.326-.354 0-.03.031-.046.062-.03m-38.034.642c-.154-.016-.278-.002-.309.045-.279.261-.704 4.282-.428 4.562.4.405 1.478.52 1.59.04.332-1.576.262-2.752.424-4.082.017-.248-.799-.531-1.277-.565m.43.436c.138.032.26.218.336.559-.02.665-.09 2.042-.34 2.814-.159.603-.62.461-.787-.082-.182-.573-.034-2.197.31-2.86.187-.34.342-.463.48-.431m25.98.014.965 1.198c-2.027 19.378-15.841 36.148-30.568 42.792l-.038-1.284c16.853-8.876 26.999-23.672 29.641-42.706m66.71.07 1.821 2.518-2.623.077zm-78.394.82c.91.006 5.706 2.96 5.065 4.441-.516 1.173-4.528 1.273-6.378 1.107l.269-1.128s.554.19 2.7-.03c2.253-.157 2.088-.932-.494-2.556-1.107-.703-1.368-.875-1.368-.875zm13.32 1.596c1.482 2.516 2.9 5.356 4.224 8.52-18.152 17.179-16.747 40.585-5.297 55.942l-4.946 6.687c-9.864-9.436-15.227-21.059-17.052-33.388 14.394-10.375 21.166-25.888 23.071-37.76m67.416.755 1.083 2.08-2.607-.046zm-11.238 1.048c.833.005 1.524.69 1.519 1.525a1.52 1.52 0 1 1-3.04-.002 1.51 1.51 0 0 1 1.521-1.523m-42.244.415.518 1.18c.03.154-3.68 1.324-4.861 2.818-1.104 1.386-.989 2.841-.378 3.835 1.057 1.43 1.796 1.62 3.573 1.074 1.453-.44 2.521-1.053 3.96-1.787l.228.59c0-.032-2.059 1.21-3.638 2.113-.588.337-1.298.472-1.915.468-3.595-.083-5.48-4.72-2.533-7.473.434-.4 1.89-1.212 3.127-1.839.805-.413 1.92-.979 1.92-.979m47.468.73c11.84 17.139 3.738 35.908-3.907 42.548l-.204-2.013c12.876-14.718 8.395-31.89 3.04-39.536zm7.632.772.929 2.11-2.745-.294zm-47.738.693a1.39 1.39 0 0 1 1.38 1.385 1.4 1.4 0 0 1-1.381 1.385 1.38 1.38 0 0 1-1.38-1.386 1.38 1.38 0 0 1 1.38-1.384m38.707.26c10.371 15.118 4.598 39.24-15.208 46.582l-.098-1.687c20.183-8.47 22.167-31.005 14.065-43.711zm-45.004.105 1.306 3.551c-1.657 1.105-2.291 1.302-4.145 1.755-1.452.332-2.594-2.197-1.478-3.165 1.287-1.107 2.663-1.594 4.317-2.141m-33.648.002c.247-.014-.02.588-.645 2.116-1.378 3.35-1.47 3.427-4.945 3.979-1.807.283-3.15.352-4.445.236-1.943-.181-2.773-.743-1.506-.999 3.646-.798 7.668-2.694 10.286-4.535.682-.491 1.085-.783 1.255-.797m65.967.421c.941.006 1.708.769 1.703 1.712s-.766 1.714-1.708 1.708-1.708-.768-1.702-1.712.766-1.713 1.707-1.708m-51.594.469-.146 1.314s-2.105 1.117-3.11 1.545c-.758.305-.82.382-.578 1.08.486 1.41 1.447 3.165 1.447 3.165l-.875 2.006c-.545-1.798-1.105-3.705-2.098-5.366-.933-1.306-1.117-1.477.35-1.747 1.886-.639 3.354-1.11 5.01-1.997m18.804.436c-1.034.04-3.183.91-3.389 1.744-.126.463.01 1.13.41 1.271 1.077.393 3.227-.491 3.787-1.293.171-.246-.088-.759-.287-1.085-.153-.248-.12-.666-.52-.637m.043.696h.061c.17-.014.813.795.089.729-.247-.017-.464.074-.665.274-.018.387-.574.538-.851.398-.2-.095-.48.105-.51.229-.404.291-.913.273-.973.071-.138-.14.266-.741.621-.708.077 0 .325-.168.558-.368.11-.402.542-.337.804-.32.323.125.603-.275.866-.305m55.756.067.759 2.125-2.714-.248zm-12.592.467c.909.253 1.428 1.123.914 1.971-.56.724-1.084.721-1.902.685.674.793.976 1.91.309 2.633-.994 1.015-2.913-.544-2.773-.682zm-73.905.77s4.191 3.615 4.212 5.24c.012.62-.19.819-.684.986-1.639.548-6.228-.857-6.228-.857l.593-1.126c.724.206 4.267 1.124 4.578.662.311-.478-2.956-3.685-2.971-3.685zm20.788 1.516.5 1.751-1.71-.428zm66.879.318.448 2.417-2.742-.635zm-52.286.031.408 1.426c-18.193 8.45-23.506 27.886-14.02 43.928l-1.073 1.48c-12.684-20.642.168-41.596 14.685-46.834m-41.417 1.426c.355.003.43.204.43.42-.002.295-1.836 2.636-2.441 3.174-1.284.519-6.27-1.569-7.017-3.183-.151-.465.341-.26 1.45-.038 2.804.79 5.634-.291 7.578-.373m48.46.04a1.38 1.38 0 0 1 1.38 1.385c-.005.758-.626 1.39-1.382 1.385a1.39 1.39 0 0 1-1.38-1.386 1.38 1.38 0 0 1 1.381-1.384m-23.42.031.249 2.153-2.113-.121zm-33.875 1.672c1.381 1.246 3.412 2.28 5.23 2.646 1.125.255.8.361-.24 1.438-.978 1.016-.901 1.155-1.886.639-1.661-.846-3.455-2.76-3.387-3.796.018-.433.098-.928.283-.927m103.32.225.341 2.292-2.586-.897zm-72.023.827.837 2.063-2.299-.06zm56.896.492c1.08-.056 1.507.782 1.518 1.479a8 8 0 0 1-.066.773c1.347-.859 3.148-.152 3.094 1.24-.073 1.966-1.03 1.991-2.602 1.719.855 1.428-.156 2.8-1.772 2.28-1.479-.489-1.192-2.035-.508-2.96-3.474.568-4.398 5.515-.395 6.978-.81-1.243-1.003-2.745.742-2.998 1.622-.238 2.309 1.004 1.606 2.485 1.53-.532 2.96.343 2.504 1.841-.551 1.792-2.155 1.674-3.09.585.67 1.63-.88 2.796-2.064 2.17-1.861-1.001-.94-2.775.312-3.248-4.78-.492-5.899 6.14-2.371 7.09-.907-.563-1-3.18 1.065-2.826 2.035.414 1.545 2.299.244 3.158 1.576-.331 3.049 1.04 2.084 2.426-1.12 1.65-2.687.48-3.251-.638.176 1.502-.77 2.456-1.986 1.892-2.093-.972-.551-3.377 1.099-3.228-3.321-1.97-7.85 2.166-5.186 5.587-.1-1.548.664-2.828 1.728-2.652.94.114 1.752 1.171 1.5 2.02-.251.727-1.057 1.264-1.922 1.444 2.544.278 2.765 2.09 1.71 2.981-1.782 1.506-2.62-.232-3.031-1.256-.37 2.536-3.342 1.667-3.455-.16-.096-2.012 2.202-1.967 2.634-1.856.062-.062-1.794-1.899-3.752-2.158l.007-1.16c7.742-4.876 10.415-13.386 7.948-21.448l.466-.539c1.26.967 2.528 3.048 4.862 2.288 0 0-.538-.374-.814-.655-1.197-1.167-.525-2.571 1.142-2.654m-51.03 1.477.796 1.18c-11.73 13.797-9.6 29.594-2.843 40.033l-.979 1.186c-5.987-7.68-10.86-26.31 3.027-42.399m-37.213.167c.97.563 1.612 1.402 2.518 2.15.706.561.69.67.116 1.208-1.303 1.261-2.033-.57-2.445-1.314-.534-.994-.574-2-.189-2.044m45.79.085c.88.083 1.476.953 1.425 1.649-.017.31.012.557.012.557s.25-.308.452-.694c.997-1.68 3.167-.708 2.8 1.224-.159.912-1.688 1.259-2.103.993.394 1.086 1.457 1.34 2.766 1.796.447.08 1.232.317 1.232.317l.027.728c-7.046 4.446-11.04 12.005-8.447 22.326l-.778 1.063c-1.414-3.428-2.71-3.358-5.055-3.48 0 0 .584.405.92.81.706.84.388 2.308-.584 2.457-2.27.358-2.292-1.267-1.992-2.364 0 0-.403.338-.605.476-.898.583-2.02-.027-2.122-1.189-.101-1.099.273-1.809 1.4-1.941.37-.044.956.052.956.052l-.35-.668c-.534-1.055.644-1.961 1.722-1.738 1.71.412 1.578 1.897.584 3.067 2.652.202 4.051-1.539 3.845-3.273-.234-2.106-1.2-3.257-3.295-3.61 0 0 .336.528.489.792.534.948-.229 2.12-1.355 2.112-1.157-.006-1.891-1.063-1.453-2.113.11-.262.543-.57.482-.6-.047-.016-.634.166-.804.196-1.39.224-2.277-1.004-1.7-2.223.407-.864 1.642-1.089 2.55-.666.139.048.323.25.338.203.032-.046-.09-.325-.12-.526-.27-1.163.257-1.763 1.476-1.694 1.696.103 2.32 1.484 1.187 2.73-.295.324-.745.801-.745.801.06.248 2.404.417 3.615-.845 1.397-1.462 1.616-4.51.217-5.508a12 12 0 0 1-.706-.468c.67 1.334-.557 2.875-1.636 2.59-2.156-.524-1.976-2.302-.554-2.866 0 0-1.447-.535-1.86-1.126-.581-.823-.392-1.58.321-2.164.884-.722 2.146-.25 2.758.635.362-1.127.89-1.883 2.415-1.27 1.077.517 1.068 1.94-.124 2.723-.372.245-1.052.489-1.052.489s1.014.578 2.249.601c2.375.03 4.259-2.791 3.3-4.932-.199-.435-.69-.995-.69-.995s-.05.758-.206 1.036c-.546 1.08-1.811 1.088-2.563.418-.676-.608-.485-1.442.042-1.996.404-.431.76-.506 1.316-.766-.631-.22-1.34-.364-1.645-1.031-.289-.62-.084-1.393.675-1.884.356-.184.68-.244.973-.21m58.193.267.155 2.43-2.709-1.037zm-74.518.132.974 2.218-2.514-.015zm52.47.016c2.356 8.742-.952 15.036-7.26 19.95l-.704-.916c4.915-4.196 8.6-9.142 6.97-17.941zm-72.341.02s3.644 4.742 2.925 6.332c-.966 1.526-6.717-1.758-6.638-1.943l.729-.692c.908.377 3.753 1.941 4.387 1.697.224-1.438-1.462-3.289-2.087-4.515zm43.414.01 27.675.504-.827 1.466-2.16.018-4.272 7.588-19.886-.01zm-31.061.76-.967 1.743c-.896.273-3.596.32-3.814.504.32.884.69 3.501.69 3.501l-1.073 1.371a61 61 0 0 0-1.172-5.361c-.362-1.318-.256-1.038 2.553-1.254 1.25-.07 2.547-.233 3.783-.504m5.665 2.092 1.145 2.034-2.314.017zm-27.71.145c.124-.045.845.748.967.981-.05.526-.869.815-.991.629-.046-.078-.07-1.254.009-1.579 0-.03 0-.03.016-.03m104.417.03-.03 2.538-2.74-1.223zm21.765.563-.04 1.64c-9.934 4.877-24.775 17.959-29.002 41.424l-.873-.964c4.235-22.398 18.831-35.651 29.915-42.1m-100.017 2.27 1.239 1.865-2.239.25zm78.308.712-.214 2.242-2.706-1.502zm-51.949.466c.013.526.057.913.084 1.455-6.132 3.987-8.19 10.242-7.172 18.125l-.856 1.264c-1.995-7.161.017-15.97 7.944-20.844m-50.158.306s2.33 5.276 1.412 6.508c-.899.738-2.959-.482-3.913-.982l-.023-1.254s.723.376 1.446.659c1.477.658 1.482-.131.677-2.333a33 33 0 0 1-.56-1.675zm121.201.16c.63.376 2.648.96 2.648.96l-.024 1.501-4.172-1.495zm-98.856 1.628 1.595 1.681-2.225.513zm96.856.187a1.7 1.7 0 0 1 .478.018c1.42.009 4.143 1.154 4.143 1.154l-.025 1.656c-1.386-.395-2.986-1.178-4.45-1.388-1.157-.162-1.083.489-1.093 2.129-.013 2.213.546 4.228 1.597 6.447.869 1.831.419 2.324-1.011 1.51-2.582-1.779-8.066-3.111-8.905-2.08-.87 1.063.842 6.335 2.817 8.853.796 1.027.857 1.182.484 1.582-.31.323-.788.336-1.666.067-2.849-.914-6.983-1.109-8.175-.342-1.177.767 1.893 6.046 4.475 7.764 1.674 1.201 1.347 1.787-1.353 1.849-4.413.02-7.813 1.006-7.62 2.214.328 2.06 3.18 4.878 6.458 6.367 2.017.817 1.166 1.153-.164 1.624-2.226.76-4.377 1.97-6.482 3.103l-1.01-1.29s2.105-1.35 4.412-2.636c.542-.306.511-.414-.24-1.053-2.442-2.057-4.249-4.358-4.625-5.908-.362-1.503.384-2.458 2.61-3.296 1.377-.518 1.887-.67 3.092-.957 1.746-.392 1.777-.454 1.029-1.789-.336-.605-.886-1.6-1.221-2.22-2.612-4.472-1.23-6.073 4.819-6.177 1.481-.084 1.774-.082 1.685-.593-.327-2.107-1.254-4.527-1.12-6.305.278-2.691 3.028-3.34 7.88-2.12 1.125.285 1.203.224 1.007-.69-.887-3.844-.08-7.32 2.174-7.493m-17.312.3-.417 2.613-2.582-1.718zm-96.49.62 7.11.46-1.135 1.324-4.304-.087-.16 3.682-1.38 1.183zm46.112.273 5.863.004-.052 6.22-5.832-.003zm6.989.01 5.446.002-.006 6.22-5.4.062zm6.526-.007 5.847.003-.052 6.221-5.785-.003zm51.064.503c-.133 1.593.19 4.489.336 5.728-.095.37-.357.323-1.882-.027-1.062-.362-4.008-.457-4.008-.457l1.226-1.308c1.002.114 1.804.12 2.853.25-.01-1.053.033-3.05.033-3.05zm-94.674 1.22 1.642 1.65-2.102.544zm79.899.55-.649 2.658-2.363-2.134zm19.16.067c1.189-.024 2.174.369 3.264 1.334l.007 1.362-2.323-1.05c-.025 1.547 1.332 4.34 1.332 4.34l-1.114.52c-.963-1.569-1.618-2.98-1.685-4.745.035-.65-.051-1.734.52-1.761m-99.865 2.69 1.953 1.156-2.15.87zm79.96.58-.957 2.734-2.085-2.364zm-103.08.876 5.251 1.78-.932 1-4.358-1.387zm73.588.73.436 9.69-27.722-.226.964-1.372 1.805-.02 4.753-8.019zm-50.84.751 2.059 1.452-2.135.946zm103.64.846.006 1.578c-6.694 4.96-13.934 13.505-15.164 28.617l-1.799 1.552c.874-14.743 6.997-24.92 16.957-31.747m-24.423.072-.97 2.455-1.931-2.287zm7.974.45c-.04 1.454 1.137 5.995 1.137 5.995-1.821.098-3.594-.114-5.557.431l.936-1.665s.864-.088 1.606-.238c1.544-.316 1.389-.116 1.027-1.48-.332-1.27-.361-1.534-.361-1.534s1.104-1.526 1.212-1.51m5.12.308c1.82.011 4.542 1.652 5.77 2.588l-.652.723c-.185.061-2.738-1.316-4.742-1.637.656 1.304.974 2.28 2.427 4.347l-.93.923c-.278-.063-3.918-5.455-2.954-6.671.294-.2.665-.275 1.081-.273m-107.401 1.253c2.398 14.545 8.11 24.544 17.143 33.527l-.917 1.201c-10.619-9.734-16.408-22.133-17.913-33.794zm14.93.614 1.953 1.064-1.997 1.164zm103.769.042-.013 2.135-1.227-1.23c.341-.307.744-.599 1.24-.905m-25.721.436-1.326 2.452-1.73-2.316zm23.83 1.054c1.772.242 2.338 3.79 1.747 4.482-.275-.435-2.703-1.95-3.81-2.591-.077-.17 1.707-1.77 2.063-1.891m-28.445 1.828 2.837.264-1.51 2.343zm-73.406-.002 2.2 1.081-1.999 1.412zm99.612 1.039c.37.002.786.16 1.293.44 2 1.111 3.041 2.34 2.927 3.422-.05.495-.327.602-.65.244-.582-.653-2.536-1.5-4.231-1.835-1.28-.256-1.402-.365-1.013-.95.576-.91 1.057-1.325 1.674-1.321m-34.117 1.036c3.063 11.655 8.456 20.616 15.232 27.991l-1.41 1.199c-5.134-5.911-10.787-12.83-15.404-27.807zm6.121.624 2.836.435-1.663 2.125zm-39.96.12c.325.017-.97 4.961-5.476 5.306-2.857.478-3.169.956-3.21 5.397-.051 6.035-1.031 7.437-5.94 7.81-3.256.244-3.677.907-3.134 5.6.53 4.46-1.15 6.74-5.3 6.73-3.597.304-5.072 1.982-5.076 5.31.007 1.346.02 1.67.02 1.67l-2.315.188s-.002-2.197.174-3.264c.704-4.313 2.55-6.05 6.438-6.028 3.01-.23 3.475-.722 3.363-5.288-.111-4.643-.173-4.612 1.022-5.828.776-.784 1.673-1.135 3.247-1.28 4.91-.467 5.297-.79 5.28-5.85-.453-4.196.704-6.774 3.358-6.975 5.372-.432 5.25-3.357 5.02-3.483l2.5-.031zm11.001.003c3.155 17.072 13.135 33.039 18.608 38.936l-1.067.567c-7.98-9.952-15.24-21.369-18.837-39.496zm-5.693-.003 2.5.03-28.75 40.59-1.521-1.138zm3.487.036c2.703 9.843 4.822 19.45 13.324 32.329l-36.023-.23zm9.95.043c.217-.091 1.051 4.974-.212 7.319-1.13 3.165-.585 4.964 1.892 6.108 4.231 1.99 5.3 3.962 4.762 8.833-.375 3.418.649 5.065 3.851 6.151 3.803 1.307 5.473 3.36 5.453 6.733-.003.51-.192 1.113-.192 1.113l-2.12 1.257s.018-.464.113-1.006c.547-3.726-.157-4.736-4.544-6.495-4.155-1.665-5.178-3.59-4.47-8.383.225-1.561-.09-3.142-.731-4.337-1.084-1.94-3.49-1.924-5.208-3.698-1.426-1.51-1.584-3.631-.374-7.26.753-2.24.867-3.106.276-4.966-.379-1.24-.532-1.35-.532-1.35zm-50.036.54 2.45.68-1.848 1.908zm97.055.497c.833-.026 2.467.278 3.79.935 3.045 1.52 3.593 2.776.928 2.095-1.51-.38-3.67-.3-5.756.23-2.21.543-2.163.574-1.4-.767.952-1.697 1.203-2.454 2.438-2.493m-10.989.647c1.852-.036 3.715.502 5.455 1.162l-.561.956c-1.218-.208-2.48-.804-4.332-.645.763 1.46 1.654 2.207 2.85 3.483l-.454.957c-.108.123-3.517-2.713-4.2-4.636-.288-.868-.008-1.254 1.242-1.277m-40.052.212c.91.005 1.646.737 1.656 1.65s-.734 1.667-1.645 1.661c-.91-.005-1.646-.737-1.656-1.665s.735-1.636 1.645-1.646m34.203.063s2.684 5.339 2.513 5.54c-1.67.732-3.493 1.124-5.317 1.794l.348-1.546s.617-.043 2.659-.82c.974-.38-1.077-3.117-1.077-3.117zm-10.94.4 2.79.495-1.865 2.094zm-52.147.015c.664-.057 1.674 1.233 1.674 1.233l-3.375 4.684c-1.603-.319-1.264-2.762.202-2.846.34.002.956.068.956.068s-.461-.25-.722-.593c-.98-1.212-.032-2.445 1.265-2.546m44.472 1.161c3.934.039 3.983 4.867 3.217 6.457-.546 1.095-1.383 1.71-3.889 2.84-2.181.993-2.427.914-2.427.914l-.518-1.164s1.268-.565 2.63-1.114c2.83-1.144 3.513-2.022 3.201-4.066-.43-2.897-2.665-3.343-6.996-1.404-.495.23-1.129.458-1.129.458l-.29-.59c.063-.061 3.467-1.836 5.368-2.29a8 8 0 0 1 .833-.04m-60.728.523 2.218.74-1.614 1.6zm98.967.617c1.96-.004 3.578.33 3.573 1.027-.002.34-.079.355-1.84.608-2.686.37-7.158 2.665-9.67 4.802-1.488 1.26-1.1.968-.473-.854s1.55-3.984 2.062-4.321c1.254-.828 4.111-1.245 6.348-1.262m-32.107.258 1.895.414-1.226 1.2zm-6.331 1.03c.678-.01 1.016.316 1.274.952.579 1.396.003 2.229-2.178 3.175-.99.443-1.873 1.072-2.97 1.267l-1.382-3.707s.433-.167 1.871-.747c1.64-.687 2.706-.928 3.385-.94m-6.39.443c4.37 12.405 9.722 20.453 15.376 27.14l-1.363.86c-6.005-7.14-11.541-15.498-15.526-27.808zm48.302.394c.185.016.293.094.246.218-.003.526-7.87 8-12.366 11.796-2.046 1.736-1.984 1.721-2.153 1.504-.116-1.285.76-5.892 1.29-6.693 2.996-3.186 7.64-5.79 12.15-6.753.37-.06.648-.104.833-.072m-42.242.044c-.524.012-1.328.332-2.38.744-1.546.594-1.674 1.32-.985 2.207.306.389.616.298 2.1-.282 1.515-.594 2.165-.869 2.26-1.41.129-.773-.316-1.27-.995-1.26m.137.418c.277.018.523.251.52.576 0 .248-.341.478-.712.476-.123-.001-.432.074-.634.274-.186.278-.327.555-.666.492-.2-.033-.586-.05-.726.073-.697.6-1.373.1-1.061-.502.078-.154.356-.23.587-.228.201 0 .649-.043.712-.29.079-.294.527-.369.82-.351.339.048.602-.12.695-.26.124-.107.264-.23.403-.229.03-.03.046-.03.062-.03m-35.547.1c.91.005 1.662.737 1.657 1.65s-.75 1.666-1.66 1.661c-.911-.005-1.647-.737-1.657-1.666s.75-1.635 1.66-1.646m-23.898.044 2.497.34-1.57 2.017zm49.964 1.27c.91.006 1.646.737 1.656 1.65a1.665 1.665 0 0 1-1.645 1.662 1.665 1.665 0 0 1-1.656-1.65c.005-.913.734-1.667 1.645-1.662m-48.84 1.878 2.713.17-1.555 2.08zm14.33.394c.91.005 1.646.737 1.656 1.65s-.735 1.652-1.645 1.662c-.91-.006-1.647-.737-1.657-1.65s.735-1.667 1.645-1.662m67.845 1.036a27 27 0 0 1 2.453.092l-.316 1.267c-1.374.131-3.146-.25-4.63.375.55.9 3.766 2.173 4.135 2.5.03.14-.27 1.345-.27 1.345.09.31-5.449-2.26-5.636-4.428-.012-.727 2.367-1.131 4.264-1.15m-19.06 1.326c3.146.035 4.71 4.439 3.48 6.397-.484.879-1.586 1.925-3.026 2.845-.697.444-2.538 1.346-2.538 1.346l-.826-1.273s.727-.29 1.424-.673c1.733-.98 5.248-3.08 3.552-5.921-.948-1.538-2.38-1.84-5.352-.326-2.213 1.132-2.722 1.237-2.722 1.237l-.565-1.024c.154.063 4.443-2.527 6.572-2.608m10.134.153c1.51 2.919 4.074 5.116 4.78 5.646 0 0-2.555 1.656-4.088 2.7l-.904-1.058 2.202-1.89-2.48-3.466zm-71.603.304 2.469-.001-1.062 2.238zm95.729.412c-.287 1.437-.326 2.969-.444 4.655.537.498 1.029.749 1.461.72.472-1.513.821-3.229.6-5.01-.46-.358-1.047-.315-1.617-.365m.753.422a.3.3 0 0 1 .2.017c.308.156.276.373.29.651-.006.944.126 2.137-.28 3.047-.235.525-.758.32-.77-.376-.025-.96.165-1.763.232-2.645.018-.37.143-.633.328-.694m-35.199 1.324c1.62.118 2.244 1.483 1.652 2.454-1.461 1.88-2.96 2.227-4.895 3.314l-1.923-3.601s3.73-2.114 5.166-2.167m-.051.804c-1.08.133-1.747.655-2.66 1.098-1.099.551-1.458 1.385-.722 2.147.827.918 3.71-1.278 4.191-1.816.296-.463.237-.881-.162-1.208a1 1 0 0 0-.647-.221m-59.213.145 2.422.03-1.307 1.849zm59.164.288q.162.024.277.095c.415.296.381.822-.206.973-.294.076-.803.073-.805.475-.002.294-.45.4-.712.367-.262-.048-.694-.066-.788.259-.219.447-.388.446-.695.135-.338-.343-.18-.76.483-.833a.8.8 0 0 0 .62-.445c-.014-.279.172-.432.48-.369.432.003.726-.165 1.022-.566a.52.52 0 0 1 .324-.091m-13.87.15c.91.005 1.646.737 1.656 1.65s-.735 1.667-1.645 1.662-1.646-.753-1.656-1.666.719-1.651 1.645-1.646M65.15 159.71c.91.005 1.662.753 1.656 1.666a1.67 1.67 0 0 1-1.66 1.661 1.665 1.665 0 0 1-1.657-1.65c.021-.928.75-1.682 1.66-1.677m69.54 1.402.009 1.254c.046.062-2.568 1.207-4.1 1.91-.495.275-.298.803-.27 1.344l-.743.507s-1.014-.75-1.15-1.23c-.362-1.518 4.432-3.332 6.255-3.785m-109.044.066L44.56 174.15l-1.292 1.896-17.563-11.973zm94.956.423c1.234.008 2.171.71 3.104 2.139 1.82 2.842.911 5.08-2.867 7.38-1.75 1.057-1.765 1.072-1.765 1.072l-.888-1.104s1.285-.75 1.811-1.088c3.098-1.962 3.972-3.705 2.61-5.663-1.316-1.88-2.69-1.734-6.53.704-.774.49-1.702.887-1.702.887l-.842-1.15s2.166-1.117 2.91-1.592c1.688-1.073 3.064-1.591 4.16-1.585m-13.211.85c.91.006 1.662.738 1.656 1.65a1.66 1.66 0 0 1-1.66 1.662 1.68 1.68 0 0 1-1.657-1.666 1.665 1.665 0 0 1 1.66-1.645m-51.224.471c.91.005 1.647.737 1.657 1.65a1.665 1.665 0 0 1-1.645 1.662 1.665 1.665 0 0 1-1.657-1.65 1.626 1.626 0 0 1 1.645-1.662m64.358 1.31c.633-.028 1.093.393 1.352 1.013.654 1.598-.233 2.784-3.468 4.607-.278.153-.851.459-.851.459l-2.387-3.295s.836-.583 1.626-1.058c1.796-1.15 2.926-1.685 3.728-1.727m-.313.802c-.155 0-.325.06-.526.183-.836.475-2.212.993-2.865 1.87-.389.525-.207 1.052.514 1.737.615.406 3.791-1.927 3.873-2.608-.29-.729-.549-1.194-.996-1.182m-94.42.169.522.359-.527.414zm94.447.404c.2.017.386.064.477.173.23.28.088.774-.406.864-.247.045-.617.105-.743.491-.094.247-.435.446-.774.444-.385-.095-.587.152-.62.322-.186.323-.665.383-.956.071-.23-.233.175-.927.437-.926.046.016.34.095.697-.382.064-.34.466-.555.759-.537.293.094.464-.23.589-.4a.88.88 0 0 1 .54-.12m-93.203.423.753.515-2.014 1.443.007-1.16zm1.476.968 1.03.687-3.765 2.702-.007-1.47zm1.936 1.234 1.092.719-5.747 3.896-.007-1.5zm2.062 1.05-.008 1.253-6.723 4.71.007-1.268zm.766.902 1.444.998.367 42.481-9.062 6.245.011-1.857 7.608-5.526zm109.393 1.158c-2.035 2.324-4.767 2.478-7.142 2.418-6.403.086-10.386.434-11.218 8.104 2.619-1.965 5.382-2.212 8.59-2.115 4.058-.007 5.88-.275 7.536-1.1 2.646-1.332 4.326-3.705 4.012-5.362-.322-.374-1.146-1.864-1.778-1.945m-110.158.369.007 1.47-6.723 4.525-.006-1.485zm76.861.13c.91.005 1.662.737 1.657 1.65s-.735 1.652-1.66 1.662c-.911-.006-1.647-.737-1.657-1.65s.734-1.652 1.66-1.662m-43.94.173c11.893.365 37.15.22 37.15.22l1.346 1.942-39.71-.42zm77.494.072c.37-.029.414.467-.346 1.205-1.428 1.4-2.897 2.087-7.571 1.998-4.937-.091-6.87.687-8.148 2.892-.374.648-.36.895.167.403.45-.539 1.475-1.57 1.901-.592.837-.552 1.567-1.383 2.008-.329.247-.06 1.66-1.49 2.007-.22.683-.77 1.27-.998 1.589.087.959-.459 1.473-1.338 2.037-.127.774-.553 1.365-1.261 1.821-.19.665-.198 1.335-1.416 1.73-.44.078.032 2.478-1.424 3.15-2.859.562-1.265 1.067-.427.442.87-1.623 3.162-4.407 4.322-10.81 4.33-3.888.008-5.479.386-6.702 1.106-1.95 1.149-.9-1.739.468-3.48 1.725-2.202 3.704-2.856 9.103-2.654 2.946.018 4.83-.389 5.637-1.034.667-.569 1.162-.937 1.517-.966m-87.696.673c.91.005 1.662.737 1.656 1.665a1.67 1.67 0 0 1-1.66 1.662 1.665 1.665 0 0 1-1.657-1.65c.006-.929.735-1.683 1.661-1.677m-22.717 1.227.006 1.501-6.722 4.603-.007-1.532zm32.549.719h5.214l-.001 5.524H65.06zm11.694-.008 5.616.002-.002 5.524-5.616-.002zm12.511.182 5.415.001v5.354h-5.416zm11.74.1 3.61.13s2.005 2.565 2.847 3.73l-2.662 1.378-3.795.008zm-33.434.375a1.846 1.846 0 0 0-1.847 1.846 1.846 1.846 0 0 0 1.84 1.852 1.824 1.824 0 0 0 1.832-1.846 1.843 1.843 0 0 0-1.825-1.852m12.001.195c-1.018-.006-1.84.825-1.846 1.846s.822 1.846 1.84 1.852 1.84-.824 1.847-1.846-.822-1.862-1.84-1.852m12.28.042a1.846 1.846 0 0 0-1.846 1.846 1.846 1.846 0 0 0 1.84 1.852 1.846 1.846 0 0 0 1.847-1.846 1.837 1.837 0 0 0-1.84-1.852m-29.315.368c.37.265.598.684.595 1.164a1.43 1.43 0 0 1-1.427 1.43 1.4 1.4 0 0 1-.755-.22zm5.03.03a1.234 1.234 0 0 1 1.227 1.214 1.213 1.213 0 0 1-1.226 1.215 1.21 1.21 0 0 1-1.212-1.214 1.19 1.19 0 0 1 1.21-1.216m30.285.04a1.47 1.47 0 0 1 1.472 1.478 1.47 1.47 0 0 1-1.474 1.477 1.47 1.47 0 0 1-1.473-1.479c.005-.804.657-1.481 1.475-1.477m6.233.005a1.824 1.824 0 0 0-1.832 1.847 1.846 1.846 0 0 0 1.84 1.852 1.846 1.846 0 0 0 1.847-1.846 1.88 1.88 0 0 0-1.855-1.853m-30.564.052a1.47 1.47 0 0 1 1.473 1.478 1.47 1.47 0 0 1-1.475 1.477 1.47 1.47 0 0 1-1.472-1.479c.005-.804.657-1.481 1.474-1.476m6.048.082a1.234 1.234 0 0 1 1.227 1.214c-.004.681-.547 1.22-1.226 1.215s-1.216-.548-1.212-1.214.547-1.22 1.21-1.215m-47.056.015.007 1.486-6.723 4.71-.007-1.454zm59.336.027a1.21 1.21 0 0 1 1.212 1.214c-.004.68-.547 1.219-1.21 1.215s-1.216-.549-1.228-1.23c.004-.65.563-1.188 1.226-1.2m-6.157.164a1.47 1.47 0 0 1 1.473 1.48 1.47 1.47 0 0 1-1.475 1.476 1.47 1.47 0 0 1-1.472-1.479 1.47 1.47 0 0 1 1.474-1.477m18.389.28a1.234 1.234 0 0 1 1.227 1.214 1.213 1.213 0 0 1-1.226 1.215 1.21 1.21 0 0 1-1.212-1.214c-.011-.666.532-1.204 1.21-1.216m-52.355 1.283c3.132-.043 6.533 1.556 8.445 4.213 2.893 3.886 4.824 8.834 5.711 15.339.429 3.22 1.93 12.886 2.78 15.166l-1.17-.224c-.155.077-1.662-6.076-2.602-14.206-.352-3.004-.993-6.892-2.73-10.446-1.982-4.05-5.367-8.342-9.87-8.678-2.621-.2-5.1 1.456-5.36 3.775-.381 1.84.689 3.548 2.105 4.13 1.385.564 3.038.141 3.219-1.746.033-.31.004-.619-.118-.914.633-.104 1.125.193 1.384.72.139.017 0 2.74-2.133 3.284-2.581.851-5.56-1.72-5.79-4.32-.173-2.2 1.494-4.913 3.597-5.659a7.7 7.7 0 0 1 2.532-.434m-19.213.846.007 1.517-6.723 4.664-.007-1.532zm19.372.966c3.765-.102 7.428 4.098 8.985 6.877 1.619 2.888 2.903 7.492 3.34 11.812.76 7.355 2.159 13.368 2.45 13.648l-1.032-.223c-.217.138-1.628-6.493-2.495-13.896-.485-4.15-2.019-8.26-3.836-11.427-1.68-2.92-3.95-5.1-6.648-5.425-1.681-.165-3.412.32-3.762 2.098-.176 1.051.358 2.076 1.608 2.16.293.018.57.05.616.05.648.113-.377 1.174-1.055 1.093-2.42-.34-3.528-3.565-1.62-5.286 1.132-1.015 2.292-1.442 3.45-1.481m8.047 1.084 42.27.436s.042.759-2.595.635c-2.237-.106-3.689.21-5.173.681l-33.216-.073zm-27.418.488.007 1.408-6.723 4.727-.007-1.563zm19.652.596c.817-.01 1.634.195 2.264.555 5.243 3.049 7.235 10.597 7.933 15.352.945 7.046 2.033 13.583 2.325 13.74l-1.14-.255c-.154 0-1.399-6.105-2.176-12.934-.631-5.528-2.511-11.08-6.247-13.423-2.397-1.639-2.874-1.796-3.975-.844-.961.83-1.926-.413-1.133-1.43.527-.523 1.33-.75 2.149-.761m-19.651 1.91-.007 1.161-6.724 4.696-.007-1.377zm30.763.028c.093-.077 3.637 5.964 4.753 15.503.588 5.018 2.28 13.57 2.558 13.649l-1.234-.131c-1.266-5.053-1.947-9.823-2.632-14.129-.758-4.864-1.365-9.2-4.402-14.851zm.817.052 1.095.021c1.877 3.586 3.88 9.17 4.573 14.76.604 4.831 1.192 9.74 2.92 14.857l-1.185-.332c-1.488-4.156-2.013-9.173-2.8-14.361-.877-5.762-2.251-10.769-4.603-14.945m6.773.009c1.93 4.994 3.181 7.385 4.055 13.533.682 4.77 1.65 10.734 3.834 17.06l-1.11-.052c-1.626-4.358-2.872-10.215-3.44-15.82-.773-7.619-4.187-14.742-4.219-14.696zm-1.882.02c.109-.155 3.661 7 4.494 14.851.556 5.234 1.775 10.41 3.443 15.402l-1.142-.022c-1.318-1.524-2.293-8.741-3.38-15.495-1.101-6.877-2.665-11.111-4.403-14.727zc-.016 0 0 0 0 0m-2.885-.002 1.002.006c2.635 5.788 3.741 9.245 4.557 14.836 1.023 7.078 2.019 13.475 3.12 15.138l-1.234-.085c-1.698-5.101-2.47-10.213-3.072-15.323-.647-5.513-2.239-10.242-4.373-14.572m5.584.048 1.204.023c2.073 4.206 3.786 9.307 4.384 15.16.337 3.175.91 8.037 3.288 15.526l-.956-.068c-1.945-5.025-3.114-10.96-3.809-16.116-.71-5.204-1.95-9.498-4.11-14.525m7.39.044c1.14 2.916 2.064 5.815 2.68 8.79l-.688 1.327c-1.056-3.937-2.257-6.993-3.442-10.095zm-5.477-.001 1.466.04c2.51 5.848 3.801 12.03 4.16 14.106 0 0 .343 1.828.37 2.432-.076 5.106.798 8.748 2.694 14.253l-.864-.067c-2.2-6.389-2.79-10.911-3.35-15.247-.477-5.466-2.25-11.078-4.476-15.517m3.379.05c1.49 3.754 2.64 7.367 3.669 10.979-.052.82-.119 1.717-.662 2.379-1.224-4.418-2.246-9.02-4.134-13.349zm2.761.032 1.157.023 2.306 6.621-.9 1c-.682-2.2-1.378-4.603-2.563-7.644m6.757.04.852 1.986-.914.769s-.93-1.863-1.172-2.746zm1.713-.005.425 1.148-.76.583-.591-1.705zm-6.619.023 1.188.007c.485 1.395 1.761 4.807 1.761 4.807l-.854.908s-1.625-4.311-2.095-5.722m1.836.01 1.049.007c.319.9 1.307 3.412 1.307 3.412l-.73.692zm5.523.049 1.049.052-.125.263-.65.32zm-34.274 1.468c4.383 2.316 5.592 9.24 6.063 13.066.825 6.66 1.765 12.065 1.95 12.206l-.972-.16s-.72-3.425-1.21-6.678c-.416-2.71-.727-4.971-.844-6.009-.073-.65-.177-1.41-.237-1.673-.617-2.727-.813-3.362-1.59-5.023-.762-1.598-1.022-2.002-2.28-3.418-.49-.544-.95-.95-1.118-1.29-.244-.497.238-1.02.238-1.02m-22.157.349-.008 1.3-6.723 4.773-.007-1.502zm.002 2.306.007 1.5-6.722 4.449-.008-1.331zm0 2.553.008 1.393-6.724 4.71-.007-1.438zm11.239 1.413.586.003.04.975-.91-.051zm-11.239 1.218.007 1.485-6.722 4.464-.007-1.393zm10.534.557 1.42.009-.022 1.02-1.835-.056zm-.827 1.651 2.33.045-.006.975-2.9-.048zm-9.706.206.007 1.563L25.807 202l-.007-1.578zm8.523 1.629 3.424.035-.02.82-4.088-.024zm-8.522.909.006 1.532-6.736 4.324-.008-1.378zm7.093.738 4.705.059-.113.788-5.353-.016zm-7.107 1.66.007 1.47-6.737 4.402-.007-1.424zm5.338 0 6.186.146 1.304 1.184-9.627.05zm-1.864 2.172 10.629.125.736.685-11.401.04zm-3.473.335.006 1.563-6.737 4.417-.007-1.424zm3.478 1.382 11.787.055-.854.954-10.939.028zm-3.478 1.187.007 1.424-6.723 4.587-.006-1.64zm3.19.746 10.181.03-1.193.936-7.036.16zm-3.19 1.76.008 1.363-6.724 4.835-.007-1.533zm6.17.177 5.971.02.119.805-5.138-.015zm1.657 1.665 4.582.043.21 1.038-4.088-.055zm-7.826.728-.008 1.269-6.723 4.71-.007-1.408zm12.722 1.034.056.991-2.732.108-.765-1.042zm-.01 1.765-.022 1.036-1.913.035-.426-1.008zm-1.708 1.846 1.511.01-.128.803-1.172.009zm.451 1.922.74.004-.127.634-.37-.002zm14.887 10.596-.357.446h10.522l.11-.448zm13.577.003-.189.617 4.752-.002.127-.619zm7.744.107-.142.572 12.142-.006-.197-.573zm14.533.009.243.698 4.088-.007-.273-.698zm14.086-.01-7.174.004.258.776 7.42-.003z"/>
    <path fill="#d40000" d="M48.014 64.76s-3.7-6.1-8.7-13.3c-3.4-4.8-6-10-6.3-14.5-.3-5.1 2.4-10.3 7.3-10.5s6.9 3.9 7.7 7.4c.8-3.5 2.8-7.7 7.7-7.4 4.9.2 7.6 5.4 7.3 10.5-.2 4.5-2.9 9.7-6.3 14.5-4.9 7.2-8.7 13.3-8.7 13.3M130.514 184.66s-3.7 6.1-8.7 13.3c-3.4 4.8-6 10-6.3 14.5-.3 5.1 2.4 10.3 7.3 10.5s6.9-3.9 7.7-7.4c.8 3.5 2.8 7.7 7.7 7.4 4.9-.2 7.6-5.4 7.3-10.5-.2-4.5-2.9-9.7-6.3-14.5-5-7.2-8.7-13.3-8.7-13.3"/>
</svg>
