<svg xmlns="http://www.w3.org/2000/svg" xml:space="preserve" width="178.6" height="249.4" viewBox="0 0 178.6 249.4">
    <path fill="#fbfbf6" stroke="#7f7f7f" stroke-width=".4" d="M3114.2-382.9H3275c4.7 0 8.5 3.8 8.5 8.5v231.6c0 4.7-3.8 8.5-8.5 8.5h-160.8c-4.7 0-8.5-3.8-8.5-8.5v-231.6c0-4.6 3.8-8.5 8.5-8.5z" transform="translate(-3105.277 383.253)"/>
    <path d="M14.114 40.252c-3.4 4.4-7.1 6.9-7.2 10.3 0 1.1.6 3 2.7 3.3 1.4.2 3.2-.8 3.3-2.7 0-.4.5-.4.5.2-.1 1.6-.6 3.4-1.6 4.9h4.5c-.9-1.5-1.5-3.3-1.6-4.9 0-.5.5-.6.5-.2 0 2 1.9 3 3.3 2.7 2.1-.4 2.8-2.2 2.7-3.3 0-3.4-3.7-5.9-7.1-10.3M164.514 209.153c-3.4-4.4-7.1-6.9-7.2-10.3 0-1.1.6-3 2.7-3.3 1.4-.2 3.2.8 3.3 2.7 0 .4.5.4.5-.2-.1-1.6-.6-3.4-1.6-4.9h4.5c-.9 1.5-1.5 3.3-1.6 4.9 0 .5.5.6.5.2 0-2 1.9-3 3.3-2.7 2.1.4 2.8 2.2 2.7 3.3 0 3.5-3.7 6-7.1 10.3M14.014 11.452v2.8h2.7s.1 2.7.1 8.3c0 5.5.1 8.2-.2 9.7-.9 3.6-6.1 3.6-7.2 1-.6-1.5-.4-2.7-.5-4.2h-2.9v1.7c0 4 1.4 6 4.5 6.7 3.2.9 7-.5 8.3-3.2.8-1.6.7-1.7.7-11.1 0-6.3.1-8.9.1-8.9h2.5v-2.8zM164.514 238.053v-2.8h-2.7s-.1-2.7-.1-8.3c0-5.5-.1-8.2.2-9.7.9-3.6 6.1-3.6 7.2-1 .6 1.5.4 2.7.5 4.2h2.9v-1.7c0-4-1.4-6-4.5-6.7-3.2-.9-7 .5-8.3 3.2-.8 1.6-.7 1.7-.7 11.1 0 6.3-.1 8.9-.1 8.9h-2.5v2.8z"/>
    <path fill="#131f67" d="m23.977 19.464.005 210.522 130.613.002-.005-210.523zm41.491 1.148 59.166.217-9.17 14.018c-11.964-3.79-31.356-1.322-41.365.588-2.628-4.38-6.431-9.893-8.63-14.823m-39.765.537 37.987.007 8.918 16.205c.319.455.009 1.379-.17 1.902-1.107 3.095-2.068 4.89-4.301 8.57-2.107 3.496-2.873 6.689-2.118 8.838.12.266.207.67.17 1.01-.126 1.066-1.031 2.305-2.256 3.168-.84.14-2.564.236-3.574 1.226-.868.853-1.57 2.096-1.453 4.359.049.806.148 1.334.148 1.334-11.343 4.706-19.473 10.224-19.213 10.43-.107-.049-10.041-4.58-14.15-5.7zm101.051.01 26.07-.004-.007 74.438-9.84-6.48c.817-.576 1.335-.908 2.198-1.497.156-.044.45-.055.638-.098 1.744-.39 2.96-1.686 2.347-3.043-.404-.92.154-.865.662-1.6.573-.842.446-1.587.085-2.29-.18-.344-.085-.497.22-1.142.793-.994.215-2.66-.815-3.204-.106-.156.115-.4.165-.632.286-1.342-.237-2.512-1.396-2.81-.603-.15-.803-.261-.592-.784.372-.939-.119-1.303-.89-1.61-1.31-.517-.936-.604.674-1.32 3.314-1.479 4.086-5.895 1.809-9.897-.286-.516-1.058-1.705-1.588-2.504-.605-.939-1.212-1.739-1.212-1.739l4.383-6.09s-3.043-3.612-4.128-5.597c.25-.987 3.31-4.08 3.702-7.077.62-4.698-2.96-7.715-6.35-7.352-2.346.24-5.242 1.74-5.02 6.096.072 1.348.591 2.75 1.557 4.439.677 1.265 1.54 2.611 2.371 3.894l-4.413 6.013 4.453 5.633s-.063.092-.159.245c-.446.705-1.737 2.774-2.285 3.989-1.637 3.24-2.223 6.792 1.15 9.31.583.366 1.043.667 1.288.92.335.33.13.574-.4.705-.623.13-1.259.119-1.93.386-2.108.77-4.24 2.005-5.75 3.235-.849.683-2.203 2.844-3.04 4.595-.9 1.906-1.155 2.335-1.155 2.335l-15.494-9.887s-.398-.317-.505-.427c-.29-.33-.178-.514.014-.867.176-.307.175-1.19.094-1.872-.025-1.301-.01-1.3.74-2.496.27-.414.37-.846.225-1.483-.236-.732-.27-.5.203-.988.175-.23.394-.334.428-.566.052-.324.015-.882.017-1.935.02-2.106-.015-1.936 1.165-2.861 1.477-1.153 2.014-1.686 2.255-2.209.338-.737.006-1.3-.822-2.8-.377-.673-.967-1.596-1.238-2.111-.528-.923-1.3-2.128-1.652-3.295-.544-.892-.472-2.439.04-3.344.64-1.136.821-1.83.797-4.122-.026-2.137-.17-1.938.37-2.641 4.094-5.446 10.561-15.56 10.561-15.56m16.58 7.985.264.004c1.287.068 2.553.476 3.729 1.61 1.603 1.606 1.502 3.927.966 6.334-.244.693-.427 1.418-.92 2.137-.27.414-.494.782-.495.844 0 .046-.4.69-.877 1.41s-1.021 1.702-1.021 1.702.753 1.36 2.09 3.054c1.015 1.504 1.676 2.815 1.74 2.739 0 0-.26.646-.608 1.105-1.063 1.391-3.02 4.301-3.103 4.61-.016.077-.22.15-.22.213.01.263.409.595.985 1.394 3.536 4.843 4.042 8.94 1.38 11.343-1.324 1.201-2.633 1.567-4.027 1.42-2.572-.275-4.925-2.466-4.655-5.636.117-1.47.047-1.904.912-3.593.389-.954 1.27-2.596 1.857-3.423.507-.595 1.064-1.438 1.064-1.438s-1.256-1.94-3.57-4.658c-.41-.502-.679-1.172-.679-1.172l3.961-5.866s-.462-1.138-1.234-2.281c-1.59-2.365-2.604-4.874-2.596-6.284.042-3.499 2.357-5.566 5.058-5.568m9.864 83.721c-2.348 1.247-4.622 5.483-.166 2.521l.115 2.434c-2.32 3.275-6.842.878-5.7-2.526-3.125.413-3.616-2.77-3.451-4.269-4.113-.888-2.691-5.247-2.691-5.247-2.372-1.975-2.788-4.057-.874-6.255-1.95-1.209-2.497-1.977-4.639-2.864 1.637 14.552 9.519 22.115 17.802 28.864-.217-.003-.248 4.688-.762 3.828-11.834-8.805-19.425-18.887-20.738-35.2-.098.262-5.61-4.258-6.529-4.01-1.911 26.418 19.169 43.8 27.941 47.227 0 0 .126 3.687-.03 3.7-13.28-5.778-28.067-22.761-30.914-42.955l-7.835 12.12-2.943-1.256 12.682-19.938-8.57-5.36-13.959 22.07s-.372 1.836.637 1.806c19.596 2.088 48.721 25.58 38.964 63.807-.848-.34-2.187-.996-2.265-.966 1.528-3.289 5.808-24.635-7.05-41.88-5.89-7.902-15.015-16.306-29.67-18.778 1.216 2.498.688 8.141.688 8.141l3.418.691c-1.159-1.211-2.12-2.218-2.58-3.526-.632-2.055.303-3.263 2.58-2.048.907.51 1.124.483 2.02-.168 1.838-1.364 3.925.033 3.438 2.302-.068.34.022.542.89.618 1.967.203 3.953 1.165 5.246 2.704.639.8.78.694 1.331.208 1.37-1.201 3.655.463 3.252 2.299-.235 1.049-.1 1.314.378 1.508 2.697 1.128 3.353 1.836 4.183 4.188.311.857.555 1.14.711 1.096.11-.03.546-.177.936-.325 2.015-.757 3.185 1.663 1.757 3.56-.286.382-.075.757.448 1.044 1.677.91 2.805 3.081 3 5.361.078.868.171.87 1.04.838 2.221-.087 3.29 2.903 1.47 4.004-.626.377-.51.874-.023 1.455 1.293 1.539 1.6 2.644 1.479 4.391-.148 2.336-.007 2.277.733 2.567 2.159.826 1.76 4.272-.365 4.253 1.524 3.556-.487 7.874-.411 7.953 4.074 2.281.387 4.714-.785 4.292 0 0-.6 1.6.084 2.417-3.57 4.71-8.253 5.5-13.429 7.846l-.16-16.603c2.16 1.724 4.29 3.338 6.42 4.953 0 0 .547-.161.042-.619-.947-.883-3.343-2.409-4-3.023-1.44-1.093-6.726-6.135-7.669-7.328-.42-.796-1.05-.342-1.035-.28.634 1.095 1.11 2.357 1.929 3.485 1.775 2.445 3.483 5.168 3.3 7.844-.01 1.502-.61 3.056-.933 3.81-.25 1.033-1.89-.171-1.487-1.047.737-2.388 1.344-4.33-1.277-8.167-1.273-1.864-2.94-5.251-2.94-5.251l-1.059.261.045 21.665c-.885.031-3.145.614-2.68.637 7.022-1.402 9.168 8.621 2.397 8.943-1.289.041-2.613 2.265-2.757 3.455.06 2.912.49 5.985-1.65 8.768-.556.734-.824 1.907-1.335 2.812-2.606 4.602-3.767 7.247-3.507 8.428.072.31.128.714.128.714-8.305 2.062-14.521 2.595-22.889 2.797-.075-.125 2.806-8.238 4.907-12.4 1.557-3.071 2.367-5.18 1.928-5.806-6.632.34-5.354-9.364.987-9.027 0 0 1.598-5.595 3.378-8.105 1.691-.932 5.084.331 6.982-.923 4.477-1.366 7.415 3.917 7.415 3.917l1.2-5.029-39.629-.189s-3.859 1.593-5.94.738c-1.34-.548-3.24-2.004-3.24-2.004s15.286-24.447 17.516-27.956c.176-.292-.388-.89-.388-.905-.08-.791-18.143 28.256-18.143 28.256-10.196-6.517-23.016-14.766-34.364-21.999l-.037-10.887c8.248-5.19 7.507-7.309-.128-1.659-.11.092-.165-4.09-.165-4.09 5.812-5.185.975-3.561-.172-1.769.021-1.3-.275-3.055.56-3.815 2.537-2.343 5.543-.188 5.687 3.268 3.31.643 2.905 3.563 3.755 4.723 3.382 1.899 1.596 4.796 2.433 5.785 3.563 2.242 1.083 5.84.324 5.766.445.302 4.88 3.27 5.255 3.153-.38-15.523-15.938-28.06-17.992-29.58l.366-3.354s21.405 13.67 21.228 35.595l6.823 4.046c-.605-22.495-10.811-37.761-28.031-47.414l-.226-4.17c14.46 6.712 27.86 20.297 30.982 42.57L64.191 138l2.818 1.363-12.848 20.569 8.028 5.258c6.219-8.182 11.413-18.208 14.58-22.972-.086-.435-.262-1.057-.262-1.057-30.595-5.042-47.827-33.649-39.604-63.54l2.126.934c-6.372 22.132 4.024 54.002 37.295 60.528-.07-2.355-.486-8.138-.486-8.138s-4.37-1.311-3.727-.79c1.071.916 3.473 4.858 2.457 6.25-.73.097-1.95-.31-3.3-1.277-.505-.365-.522-.287-1.09.307-1.58 1.678-3.86.71-3.885-1.581-.015-.976-.043-1.178-1.424-1.185-2.094-.02-3.035-.376-4.295-2.053-.896-1.192-.803-1.19-1.864-.836-2.002.958-3.614-1.05-2.981-2.697.307-.77-.014-1.023-.927-1.177-1.78-.293-3.791-2.525-4.165-4.343-.071-.373-.256-.469-1.312-.424-2.065.074-3.192-1.168-2.388-2.92.435-.937.566-1.322-.262-1.955-1.011-.791-1.576-1.327-2.026-2.279-.36-.75-.414-1.23-.651-2.844-.084-.56-.269-.655-.997-.745-2.12-.282-2.97-2.449-1.41-3.863.473-.426.473-.426-.241-1.351-1.398-1.804-1.918-4.151-1.302-5.705.162-.416 0-.945-.495-1.061-1.947-.481-1.974-2.634-.122-3.843.533-.347.568-.579.16-1.282-.708-1.235-.686-4.487.007-6.04.451-.998.436-1.03-.255-1.46-1.474-.937-1.059-3.532.686-3.952.842-.203.906-.31.674-1.336-.404-1.834-.474-2.3.609-3.025 2.98-1.933 10.599-5.617 10.599-5.617l2.518-1.197s.258 15.35.088 17.159c-.106.788.6 1.249 1.424 2.067 1.695 1.654 2.624 3.667 4.882 5.067 0 0 1.41-.782 2.272-1.34l.083-21.864c.18-.493.304-.553.88-.62.482-.086 1.679-.22 2.084-.338.967-.278 1.129-.678-.146-.544-.388.04-.965.2-1.604.33-3.992 1.188-6.946-5.009-3.9-8.133.583-.517 2.755-1.426 3.75-1.487.279.005 1.134-1.05 1.724-2.015s.82-1.69.494-2.671c-.71-2.04-.038-5.188 2.067-8.622 2.273-3.23 4.04-6.856 4.957-10.696 8.07-.967 14.915-2.975 22.217-2.53.285 2.467-7.978 16.965-6.254 17.814 6.507 1.547 4.285 9.253-.66 8.986-.746.003-.809.064-1.286 1.697-.893 2.386-1.482 4.204-2.434 6.433-.01.573-3.235.411-5.935.398-1.163.894-6.137 3.32-8.86-2.872l-.102 5.295s37.221-.594 43.849.243c.136-1.655 3.687 1.284 3.687 1.284l-18.162 28.518.855.835c2.628-3.177 18.428-28.622 18.428-28.622l34.209 22.026c-.288 3.279.04 10.624.04 10.624-9.392 4.97-6.517 7.511-.055 1.486zm-56.667-77.99s9.682.083 14.542.86c4.256.674 4.04.562 4.02 3.643-.005 2.184-.02 2.137-.58 3.196-1.04 1.934-.855 3.842.777 6.517 1.586 2.597 2.765 4.505 2.759 4.877-.01.573-.099 1.268-1.48 2.236-1.633 1.135-1.941 1.935-1.914 3.081.016.93-.16 1.236-.718 1.227-.218-.003-1.015.37-1.86.76-1.5.702-1.5.702-2.897.695-.698-.012-1.036-.265-1.239-.191-.375.18-.722 1.428-.712 1.8.044.125.232.05.653-.082 2.31-.783 5.764-.432 5.852-.09.474.426.463 1.077-.231 1.747-.462.72-.67 1.088-.47 2.19.253 1.507.057 2.108-.712 2.622-2.354 1.587-5.491 1.783-10.519.817-5.29-1.016-8.919-3.027-11.931-6.639-1.34-1.617-1.671-2.18-1.018-2.293.825-.125 1.728-.296 2.572-.654 3.72-1.596 3.661-8.395-1.355-9.112-2.031-.08 4.242-9.702 6.461-17.206m4.78 4.679c-1.801 1.007-2.737 2.23-2.748 2.897-.005.278.058.217.921-.341 2.494-1.632 9.067-4.001 11.418-2.63 1.69 1.018 2.347.689 1.361-.675-2.305-3.197-8.494-.589-10.952.749m6.422 1.081a4 4 0 0 0-.824.095c-1.73.39-3.646 1.814-5.218 3.073-.787.622-1.878 1.843-2.054 2.165-.384.721.472 1.525 1.646.879.69-.376.75-.282 1.4-.194 1.513.459 3.24 1.168 5.912.934.248.05.231.112.15.343-.162.43-1.107 1.236-2.332 2.145-.644.47-1.194.863-1.242.924-.19.307.662.336 1.586-.19 1.316-.753 2.849-2.4 3.786-3.732.096-.122.206-.229.255-.368.098-.308-.463-.178-.772-.26-.123-.033-.102-.358-.13-.513-.088-.389.063-1.037.134-1.593.054-.448.541-.812.857-1.132 1.39-1.448 1.292-2.1-.589-.985-.313.18-.564.3-.874.326-2.764.094-4.376-.025-6.674 1.919-1.022.82-1.644.902-.73.019 1.4-1.123 3.134-2.72 5.065-3.153 1.169-.29 2.271.595 2.787.37-.02-.619-.99-1.084-2.14-1.072m-.408 3.989c.323.206.63 1.295.594 1.65-.038.418-.765.251-.87.048l-.4-1.199c-.148-.405.368-.628.676-.5m-1.4.255c.335.331.417 1.06.608 1.652-.115.431-2.852-.156-3.186-.626.397-.535 1.804-1.178 2.578-1.026m4.775 7.744c-.201-.019-.483.085-.72.345-1.23 1.249-.832 3.393.647 4.083.723.337 1.814.092 3.405-.409.764-.235 1.309-.334 1.464-.347.62.01.963-.96.52-1.416-.503-.52-1.715-.431-3.004.554-.66.5-1.13.756-1.657.747-1.288-.021-1.918-1.348-.606-2.75.457-.442.292-.786-.05-.807m-9.075 9.188c1.531 1.233 4.428.584 6.374-.7 1.741-1.148 2.46-1.492 3.87-1.252 1.717.291 1.65-.376.904-1.224-.838-.959-2.922-.668-4.663.48-3.86 2.554-5.248 2.98-6.374 1.599-1.201-1.476.227-3.388 1.637-2.343 1.167.794 1.146.19.658-.345-2.77-2.353-4.795 1.872-2.406 3.785m-13.552 1.217c1.946 2.463 3.806 4.491 6.605 5.993l.023.465-9.046-.025c.639-1.105 2.433-6.371 2.418-6.433m-30.629 6.401c-.186 3.714.477 5.892 2.653 8.483 2.313 2.764 2.149 7.05.662 9.705-.656 1.182-1.998-.265-1.365-1.029.904-1.131.95-3.887.528-5.597-.946-2.85-3.111-4.232-3.993-7.235-.289-1.29-.204-3.581-.204-3.581zm2.834.326c.156-.029.417.13.784.462 1.285 1.105 1.062 4.276-.399 6.296-.445.612-.814.435-1.255-.13-.58-.567-.377-.625.105-1.624.514-1.044.673-2.219.571-3.598-.077-.93-.039-1.38.194-1.406m82.971 1.074c1.133-.013 2.542.228 2.675.632.115.498-.14.896-.78 1.164-1.657.7-3.844-.28-3.281-1.463.128-.215.703-.314 1.386-.333m-2.86.278c.327-.01.574.071.774.167.538.273-.316 2.179 2.385 2.146.65.088 1.118-.06 1.036.234-.132.431-1.29 1.093-2.55 1.274-3.75.557-3.592.374-3.418 3.01.11 1.736-.007 2.307-.242 3.356-.402 1.82-.57 3.568-.298 3 .37-.77 1.295-3.216 1.302-4.594-.012-2.044.724-2.45 1.01-.974.123.977-.32 1.527.346 2.53.378.563.55.55.302 1.429-.215.77-.063.99.194 1.381.273.392.55.49.309 1.027-.5 1.185.288 2.313 1.403 2.408.527.04.663.275.505.473-.27.336-.831.498-1.283.599l-11.931-7.615s.883-1.766 1.154-2.242c1.707-3.75 3.07-5.462 8.084-7.423.359-.133.67-.19.919-.186m6.338 2.458c.326-.01.571.164.845.51.729.94.089 2.107-1.713 3.13-1.535.873-1.986.974-2.32-.394-.074-.25-.286-.547-.409-.673-.351-.33-.27-.593.185-.833.22-.12.907-.403 1.456-.766.957-.634 1.537-.965 1.956-.974m-5.073 2.72c.372.005.759.09 1.05.28.476.302.479 1.092-.007 1.393-.953.387-2.465-.133-2.342-1.014.07-.432.663-.67 1.299-.66m6.129.968c.341-.01.587.149.799.477.56.861-.09 1.733-1.984 2.662-1.252.614-2.839.867-2.724.513.082-.293-.36-1.71-.558-1.93-.073-.233.016-.03 1.592-.516.561-.176 1.249-.475 1.578-.67.533-.348.955-.527 1.297-.536m-89.481 2.24c-.873 2.107-1.013 3.034-.6 5.24.343 1.833.747 2.753 2.641 5.479 1.44 2.068 1.892 2.865 1.556 3.525-.239.352-.788.684-1.139.337-.699-.91-1.13-2.031-1.811-3.049-2.636-3.868-2.822-4.847-3.16-7.903-.147-1.396.647-4.356 1.337-4.81.766-.312 1.416.705 1.176 1.181m61-.96c-.722.53-1.175 1.606-1.545 2.39.084.559.525.194 1.717-1.551.302-.429.108-.881-.172-.84m22.733.948c1.055.032 1.427.983.954 1.47-.695.717-1.927.17-1.926-.836-.009-.434.197-.647.972-.634m5.86 1.335c.604.025.687.63.363 1.493-.402.814-.885.945-2.336 1.401-1.747.544-2.025.462-2.277-1.137-.099-.605-.055-.48 1.55-.903.687-.19 1.499-.502 1.92-.681.313-.119.578-.176.78-.173m-102.724.722.427 3.228.692-2.42zm97.076 1.09c.854-.002 1.322.765.88 1.222-.237.26-.858.264-1.15.105-.69-.492-.568-1.341.27-1.327m-26.144 1.674 1.675 1.019-13.544 21.348-1.629-.043-.15-.343zm30.737.213c.993-.015 1.086.932-.123 1.794-.502.317-1.046.401-1.48.41-.606.02-1.007-.126-1.062-.545-.263-1.01-.414-1.276.516-1.214.186.018.699-.02 1.105-.183.422-.18.765-.267 1.044-.262m-4.143.923c.698.011 1.136.746.664 1.126-.566.455-1.29.18-1.28-.517.008-.433.12-.602.616-.61m-97.492 1.52-3.685 3.253c1.355 1.602 2.492 3.185 3.66 4.86zm74.544.207c1.6-.066 2.13.701 1.36 1.23-1.035.68-1.919.65-3.08.492-1.547-.289-.316-1.523 1.378-1.696.124-.014.233-.027.342-.026m-1.7 2.326c.327-.01.807.075 1.408.287 1.05.358 2.35 1.447 2.294 2.05-.094.99-1.948.48-3.445-.939-.932-.867-.97-1.379-.256-1.398m-1.411.008c.914.092 1.81 3.142 1.111 4.09-.682.919-1.906-1.068-1.679-2.629.088-.617.241-1.436.49-1.463zm-59.258.68c.51.116 1.165.824 1.017 1.363-.097.216-.313.15-.545.1-.416-.177-.748-.756-.662-1.25.049-.139.097-.215.19-.214m68.75.514 2.67 1.81-2.67.11zM115.1 94.35c2.048.019 2.471.676.953 1.472-.642.33-2.18.397-2.982.12-1.28-.438.244-1.606 2.029-1.592m16.534 1.372.14 1.845-5.128.442-.263-1.924zm-17.736.916c.357-.025.929.139 1.667.523 1.4.72 2.187 1.925 1.467 2.3-.657.346-1.814-.06-2.638-.926-1.098-1.133-1.18-1.847-.496-1.897m-1.754.017c.93.062 1.742 2.6 1.13 3.875-.336.691-.769.545-1.37-.596-.587-1.093-.617-3.03.053-3.25a.27.27 0 0 1 .187-.029m-66.753.711-2.247 4.5 4.069 3.536zm86.872 3.477.359 1.787-4.924 1.22-.48-1.944zm-21.513.342c.605.01 1.161.158 1.483.442.443.395.347.58-.715.995-1.89.774-4.21.302-2.873-.837.504-.41 1.33-.613 2.105-.6m32-.107c-1.883 1.254-.064 1.95 1.27.996-.087-.31-.867-.99-1.27-.996m-33.375 2.53c1.35.039 3.988 1.894 3.415 2.767-.303.475-2.065.075-2.768-.603-.916-.882-1.408-2.067-.895-2.152.062-.014.155-.013.248-.011m-1.708.081c.7-.128 1.811 3.096.96 3.934-.316.304-.409.287-.929-.17-1.055-.931-.872-2.647-.235-3.597.064-.107.142-.152.204-.167m41.358 1.704c-.18-.343-.411-.502-.656-.692-6.544 2.51-4.876 4.906.656.692m-15.506.225.653 1.807-4.967 1.962-.728-1.979zm-84.846 3.416-1.687 4.417c1.831.014 3.477.878 5.14 1.633zm86.506 1.288 1.057 1.767-4.682 2.524-.93-1.873zM26.76 113.784l1.918 1.348-2.805 3.484-.255-.484.032-2.895zm110.965 1.087 1.121 1.629-4.49 3.116-1.103-1.768zM31.58 116.96l2.069 1.582-3.262 3.926-1.977-1.504zm22.718.978-.094 4.722 4.854.188zm56.123 2.134 5.518 3.172-.835-4.845c-1.432.27-3.279 1.216-4.683 1.673m30.323-1.002 1.292 1.6-4.154 3.478-1.323-1.663zM35.79 120.468l1.925 1.781-3.397 3.66-1.788-1.67zm108.488 2.594 1.495 1.511-3.773 3.918-1.496-1.496zM40.168 125l1.492 1.728-3.868 3.064-1.43-1.743zm22.308.399 1.087 4.632c-.072-.342 4.818-1.376 5.464-1.025zm57.021.398 4.621 4.877.512-4.7zm28.586.766 1.67 1.297-3.099 4.409-1.9-1.487zm-104.591 2.936 1.38 1.99-4.06 2.41-1.15-1.753zm108.973.465.26.252-.006 3.16-1.288 1.883-1.752-1.036zm-26.144 3.549 4.083 7.423 1.146-5.54c-1.504-.025-3.894-.994-5.229-1.883m-79.59.979.972 2.138-4.284 1.957-.973-2.122zm2.32 5.117.786 2.15-4.556 1.505-.726-2.072zm-20.378 3.892 1.412.999c7.404-3.889 5.095-5.042-1.412-1m41.8-2.47c.28-.026.599.35.864 1.207.398 1.292.185 2.883-.683 2.853-.589-.071-.812-1.577-.805-2.01-.025-1.286.25-2.01.624-2.05m4.053.764 1.765.184-.008.495-14.023 22.223-1.705-1.081zm-7.566.526c.558.009 1.374.394 2.107 1.15.426.455.881 1.113.994 1.78-.019.217-.39.134-.746.082-.929-.14-2.3-.782-2.736-1.563-.543-.985-.24-1.46.38-1.45m64.494.784 1.866 9.106c.581-2.283 1.798-3.594 2.712-5.376-2.387-1.107-3.359-2.409-4.578-3.73m-80.599 1.846.442 2.36-4.72 1.1-.49-2.285zm17.63.817.202.003c1.735.2 1.977.575.815 1.36-.706.47-2.616.546-2.917.03-.348-.532.892-1.394 1.9-1.393m-34.285 1.37 1.46.86c2.528-1.816-.228-2.171-1.46-.86m31.798.803c.527.009.853.943 1.025 1.814.172.839.237 1.598-.08 2.011-.397.52-.786.607-1.103.09-.907-1.486-.882-3.932.158-3.915m-3.902 1.36c.248-.01.557.056.912.186 1.218.454 2.848 2.339 2.16 2.59-1.014.387-3.23-.734-3.646-1.856-.193-.545.046-.897.574-.92M52 150.809l.116 2.324-4.969.197-.148-2.31zm12.164 1.965c.497-.007.977.048 1.377.224.71.306.188.855-1.03 1.284-.811.281-1.96.355-2.359.023-.934-.743.553-1.493 2.012-1.53m-38.473.264c3.41 2.07 10.458 6.66 10.458 6.66-.328.073-.689.33-1.019.588-.252.213-.534.41-.768.498-.375.149-.733.174-1.044.246-2.196.475-3.272 1.712-2.584 3.256.27.609.334.501-.125 1.02-1.309 1.248-1.144 1.623-.69 3.21.012.232-1.556 2.142-.168 3.59.765.663.803.245.53 1.758-.093.912.159 1.66 1.474 1.914.739.337.725.213.467.844-.186.895.072 1.27.703 1.59.568.35.8.447.406.766-4.413 2.25-5.782 6.176-1.61 11.975.485.673 1.725 2.599 1.725 2.599-1.4 2.083-2.747 3.795-4.174 5.645l4.17 5.814c-.668 1.057-2.256 3.199-3.222 5.32-1.45 3.182-.499 7.641 3.7 8.98 1.79.572 4.172.1 5.66-1.625 1.218-1.405 1.87-4.197.77-7.11-1.405-3.26-3.086-4.867-3.63-5.79l4.47-5.594s-3.077-4.417-4.308-6.017c8.363-10.222 1.536-13.076.216-13.964-.2-.143-.158-.793-.158-.793 7.525-.867 10.092-4.974 12.289-10.203 4.483 2.877 10.905 6.76 15.402 9.793.428.394.718.646.652.878a8 8 0 0 0-.232 1.854c.21 1.35.107 1.968-.445 2.486-.52.487-.415.705-.33 1.233.14.916.278 1.011-.133 1.47-.506.564-.682.84-.58 2.22.048.821.162 1.442-.048 1.919-.274.63-1.04.943-2.046 1.731-1.76 1.38-1.52 1.803.912 6.813 2.07 4.262 2.303 5.242 1.517 6.762-.657 1.259-.906 2.23-.827 4.059.023.465.061.96.057 1.208-.01.589.007.527-.34.893-.27.29-.713.855-.984 1.269-2.895 4.32-10.497 15.436-10.497 15.436l-25.635-.005zm35.906 2.017c.295-.026.659.506 1.075 1.597.238.623.205 1.707-.175 2.119-.758.823-1.812-1.114-1.476-2.657q.226-1.04.576-1.06m71.897-1.168c-.003 3.949-.088 9.057-1.438 12.829l1.54.691c-.494-3.88.117-7.044 3.683-8.72-1.627-1.095-2.853-2.942-3.785-4.8m-75.736 2.483a1.1 1.1 0 0 1 .417.084c.572.164 1.28.501 1.707.926.733.74 1.479 1.635 1.29 1.725-1.203.538-4.28-1.093-3.87-2.356.097-.261.254-.367.456-.38m-5.372.174.03 1.937-2.98-1.892zm67.859.918c.48.04 1.23.671 1.115 1.103-.21.476-.457.426-.79-.075-.425-.596-.59-.986-.325-1.028m-60.202 2.399c.714-.02 1.348.146 1.404.518-.006.356-.557.812-1.228 1.018-1.684.514-2.951.183-2.487-.645.288-.553 1.38-.876 2.311-.891m58.823 2.193c-.72 1.274-.803 5.36.457 7.023 1.951 2.153 3.766 4.97 3.565 8.7l-1.876.835c.098-3.08-.024-5.08-2.417-7.72-2.866-3.114-2.187-8.491-1.199-10.07.833-1.566 2.053.653 1.47 1.232m-82.418-1.7c.606-.036 1.33.316 2.665 1.19 3.405 2.41 5.252 3.339 8.626 5.717.49.457.475.395.391.765-1.292 4.934-5.034 8.837-10.586 9.55-.638.083-.305-.314-.696-1.095-.406-.796-1.13-1.149-1.952-1.147-2.296-.023-.335-1.306 2.465-1.678.933-.14 2.037-.261 2.636-.824.123.064-.48-3.848.148-5.232.316-1.233.015-1.842-.323-1.073-.225.476-.526 1.74-.687 3.023-.142 1.082-.361 1.233-.632.702-.12-.234-.11-.807.068-1.268.203-1.02-1.088-1.8-.824-2.74.354-.783-.02-1.641-.449-1.942-.24-.515-.203-.871-.181-1.227.076-.835-.485-1.634-1.364-1.973-.385-.193-.273-.408.134-.602.172-.09.36-.134.561-.146m-2.785 1.394c.217.004.434.023.65.073.446.27.808 1.825.31 1.894-.186.028-.762.096-1.214.228-1.528.44-2.24.381-2.21-.485.03-.898 1.268-1.683 2.464-1.71m2.03.158c.605.01 1.09.7.711 1.08-.394.38-1.134.105-1.14-.452.004-.295.134-.618.429-.628m.41 2.438c.17-.013.356.037.572.118.554.256.88 1.206.517 1.557-.268.258-1.042.168-1.456-.18-.734-.615-.379-1.477.367-1.495m-1.896.139c.341.005.588.118.662.351.058.203-.038.387.05.683.148.451.437.812.186.994-1.163-.066-3.593 1.396-4.29 1.323-.588-.072-.657-.615-.146-1.49.591-.996 2.499-1.894 3.538-1.861m.714 2.83c.248-.011.292.129.193.499-.066.262-.015.898.165 1.303.194.437.547.69.358.858-.296.088-1.308.288-2.151.6-1.081.6-4.137 2.409-3.375-.49.249-.972 1.361-1.635 3.328-2.33.75-.25 1.218-.429 1.482-.44m1.598.026a1.24 1.24 0 0 1 1.26.78c.705 1.405-1.33 1.604-1.979.432-.392-.688.113-1.16.719-1.212m.38 3.29c1.055.001 1.87 1.316 1.102 1.814-.564.347-1.277.273-1.926.123-.955-.45-.51-1.944.824-1.938m101.16.026c4.015 2.095 9.476 4.043 14.774 5.478l.006 52.14-36.234.005-9.924-17.29s-.332-.563-.437-.812c-.194-.468-.125-.854.007-1.332.33-1.171 1.33-3.478 2.241-5.104 2.4-4.39 5.801-9.211 3.962-13.423-.21-.483 1.898-3.096 1.898-3.096 3.254.27 5.958-1.853 4.986-6.855 6.796-2.769 12.404-5.03 18.72-9.71m-103.027.252c.093.002-.19 1.143.388 1.834.364.548.302.531-.916 1.007-.454.24-.91.62-1.178.848-1.748 1.55-3.484-.476-1.78-2.12a6.3 6.3 0 0 1 3.486-1.569m83.095 1.077c.588.102 1.35.889 1.096 1.303-.83 1.38-.858 2.123-.944 3.561-.088 1.594.187 1.83-.414 1.558-.4-.177-1.14-.5-1.304-.905-.387-.95.591-5.688 1.566-5.517m-83.66 4.009c.651-.005 1.33.207 1.71.694.32.408.36.764.032.93-.752.405-3.262.193-3.393-.32-.189-.793.704-1.289 1.65-1.304m37.924 1.012c3.057.004 6.63.667 9.388 1.858 3.917 1.474 7.377 5.232 8.158 6.856.24.484-.241.491-.661.53-4.668.775-6.222 6.51-2.28 9.254 1.23.78 2.24.688 2.24.688.994-.092-4.439 10.333-6.61 16.832-6.7-.281-11.775.75-18.318-1.495-.71-1.173-.543-3.74-.024-5.08.47-1.215 1.09-2.134.788-3.533-.519-2.424-2.732-5.588-3.475-7.583-.642-1.528-.601-2.1.53-2.98 1.337-1.03 1.666-1.242 2.031-1.763.334-.49.197-.6.2-1.684.006-1.332-.029-1.116 1.076-1.314.39-.071 1.294-.35 1.983-.726 1.44-.75 2.433-.734 3.278-.256.371.1.33-.273.479-.782.065-.215.226-.569.213-.678-.028-.217-.51-.163-1.039-.079-2.13.306-3.823.37-4.687.047-.756-.276-.747-.787-.314-1.616.384-.752.663-.732.503-2.299-.2-1.954.07-2.368.981-3.003 1.116-.833 3.186-1.202 5.56-1.194m11.05 1.716 9.948-.007c-.973 1.58-2.068 3.992-2.68 6.29-.096.184-.192.353-.421.116-1.35-1.895-2.868-3.95-6.846-6.4m-8.246 6.987c-1.195.027-2.68.606-4.544 1.675-1.268.722-2.3 1.17-3.646.93-.774-.136-.869-.03-.966.217-.453 1.123 1.234 2.328 2.923 1.535.5-.209 4.288-2.175 4.493-2.342.22-.182 1.795-.636 2.214-.645 1.256.021 2.032.994 1.873 2.137-.211 1.514-2.354 1.587-2.502.238-.107-1.04-.55-.582-.589-.072-.007.433.333 1.43.687 1.653 1.812 1.13 4.223-1.076 3.065-3.34-.69-1.375-1.657-2.026-3.008-1.986m-8.157 5.285c-1.23.228-2.029.71-3.365.827-1.09.246-1.012 1.114-.337 1.574.522.35 1.193.144 3.106-1.079 1.882-1.192 3.501 1.297 1.99 2.572-.944.806-.296 1.018.348.533 1.697-1.258.733-4.897-1.742-4.427m5.837 6.414c-.14-.002-.373.04-.686.19-1.407.643-2.504 1.322-3.171 2.24-.112.2-.056.525-.107.788-.05.2-.209.461-.18.6.029.125.43.256.49.365.24.469.082 1.643-.056 2.492-.07.402-.677.531-.913.775-.79.808-.592 1.059.251.747.593-.222.336-.629 1.806-.341 1.902.372 3.4-.146 4.904-.973 1.66-.917 2.258-1.433 2.334-1.324.106.188.026.28-1.154 1.266-2.973 2.46-5.17 3.028-6.831 2.102-.491-.333-.892-.48-.517.255.046.078.444.394.737.523 1.71.772 3.846.125 6.582-2.028.597-.47 1.134-1.004 1.826-1.58 2.266-1.883 1.66-2.76-.885-1.827-.812.296-1.04-.017-2.12-.438-1.464-.566-1.944-.62-3.62-.648-1.458-.024-1.693.112-1.689-.136.005-.31.986-1.424 2.096-1.901 1.033-.525 1.337-1.124.903-1.147m2.7 4.66c.276.267-.115.447-1.179.956-.594.284-1.157.523-1.219.522-.096.168-1.098-2.078-.817-2.182.11-.06 2.558.15 3.216.704m-3.828-.234c.24.515.432 1.045.533 1.526.028.156.133.374-.115.37-.186.028-.497.038-.603-.134-.242-.375-.5-1.65-.418-1.896.174-.245.497-.069.603.134m8.685 4.03c-.093-.001-.25.073-.516.224-4.2 2.486-9.249 3.765-12.487 2.55-1.095-.42-1.3-.269-.893.481.271.516.82 1.129 1.654 1.36 2.657.724 6.91-.336 10.205-2.48 1.334-.892 2.425-2.129 2.037-2.135m24.765 6.65c.015 0 8.157 15.294 8.875 16.002l-60.484-.254 10.185-14.388c.095.807 24.589 4.168 41.424-1.36"/>
    <path fill="#d40000" d="m53.976 228.251 9.766-14.395c14.448 2.747 27.445 1.289 41.67-1.248l9.481 15.95zm76.583-53.632-.06-8.55 2.977 1.103c-1.036-3.981 1.578-8.135 3.955-8.297-7.602-5.73-1.294-11.852-1.416-11.978-8.324-4.287-4.15-10.862-4.729-11.46-10.136-2.629-6.186-10.647-6.944-9.823-5.896 1.776-9.15-3.17-9.254-7.183-5.107 2.889-13-1.206-10.518-5.81 0 0 2.71 1.283 3.18 1.028 4.162-3.029 3.842 1.317 4.71 2.26 3.111-.444 4.95 1.925 5.722 3.084 4.593-.002 4.394-1.09 4.445 3.34 3.461.878 3.322 2.734 5.328 5.291 4.36.041 3.622 1.47 2.636 3.869 3.14 2.498 3.402 4.454 3.908 6.723 3.424 1.233 4.037 1.739 1.8 4.629 3.03 4.525 1.574 7.149 2.035 7.389 3.773 2.71 1.879 3.7.248 4.742.576 3.602 1.033 4.136-.3 7.815 4.325 3.076-.695 4.449-.942 4.383l-.02 3.035zm-104.918-22.28-.089-10.593 36.742 23.695-4.636 7.263zm48.793 15.578 8.68-18.145-3.117-19.795 24.882.534c2.796 6.349 4.492 11.75 11.658 22.244l-7.58 2.352.27 12.718zm21.292-4.774c-.255-.531-.389-.89-.354-1.121.098-.308.33-.289.623-.13 1.062.514 2.11.95 2.902-.013.396-.505.284-1.234-.05-1.643-.6-1.217-2.478-.335-3.1-.283-.589.006-.814-.478-.336-1.182.284-.305.46-.643.513-1.045.326-2.766-4.408-1.792-2.761.9.744 1.002.315 1.6-.792.962-1.215-.686-2.885-.048-2.832 1.409.044 1.1 1.429 1.788 2.604 1.126.266-.15.486-.317.674-.407.547-.238.932-.046.75.57-.493.766-1.054 1.857-.585 2.577.48 1.045 2.126.948 2.695.292.395-.427.5-1.169.05-2.012m57.405-55.606L116.33 83.733c2.283-2.95 3.626-5.329 4.891-7.693l31.953 20.503zM95.586 99.48l3.762 19.218-25.703.365c-1.414-6.45-10.234-21.058-10.207-20.81l6.858-16.812 34.093-.042zm-9.643-7.143c.646-.593.615-1.507-.113-2.526-.698-.987-.39-1.71.73-1.025.615.413 1.59.506 2.262.285.842-.28 1.195-.956 1.069-1.794-.154-1.025-1.282-1.307-2.5-.862-.358.071-.564.362-.861.497-.657.283-.908-.495-.317-1.508.67-1.119-.023-2.338-1.247-2.436-1.302-.114-2.087 1.36-1.542 2.174.757 1.158.216 1.97-.888 1.193-1.58-1.126-3.636.296-2.78 1.967.406.812 1.768 1.02 2.971.514 1.016-.433 1.318.068.696 1.095-1.26 2.1.803 3.978 2.52 2.426M48.657 73.45l-.279 10.246c-3.84-2.34-3.266-2.376-3.422-2.332 1.129 3.084-.191 6.887-3.45 8.754 5.883 5.501 2.7 9.367 1.741 11.983 7.501 4.351 3.699 11.861 3.736 11.475 7.402.044 7.248 6.499 7.467 9.197 9.15-.577 7.927 6.728 9.127 7.351 4.44-1.986 9.611-1.297 10.987 4.641.891 3.375-2.376.116-3.79.263-5.065 3.137-4.085-1.647-4.369-2.318-4.196.396-4.753-1.595-6.592-3.004-4.53.87-4.148-.61-3.886-3.362-3.557-.725-4.327-2.937-5.734-5.097-4.906.152-2.91-3.3-2.883-3.98-.596-.537-3.406-3.293-3.555-6.455-5.035-1.414-1.874-3.948-1.69-4.828-1.9-2.37-2.398-4.112-1.76-7.09-4.465-2.087-.74-4.039-.425-5.226-1.456-3.88-.398-5.04.18-7.151-2.877-3.361-1.157-3.178.94-5.219.27-.367-.462-2.051-.43-3.057zM74.47 35.503l-8.048-14.395 57.54.005s-6.258 8.661-8.688 13.019c-14.363-2.266-27.789-1.186-40.804 1.37"/>
    <path fill="#e2cf00" d="M34.299 218.914c-5.04-1.151-5.897-7.468-1.17-12.733.38-.427.638-1.089.638-1.089-1.634-2.52-2.395-3.415-4.06-5.92 1.48-2.22 3.2-3.927 4.302-5.844-.072-.342-.563-.676-1.154-1.537-3.424-5.027-3.794-7.015-2.053-10.006 1.629-2.807 5.53-3.13 7.893-.66 2.563 2.675 2.445 5.104-.88 10.051-.732 1.087-1.26 2.07-1.26 2.07.916 1.858 2.486 3.571 4.076 5.905-1.473 1.818-2.975 3.528-4.282 5.628 0 0 .132.451.421.781 5.286 5.972 4.877 12.84-1.107 13.423-.295.026-1.04-.017-1.364-.069m42.54-76.307c-.135-.219-19.029 30.285-19.029 30.285l2.15 1.383 18.064-28.195c.276.206.535.458.483.798 0 0-14.879 24.206-17.364 28.067-.064.107 3.686 2.322 3.81 2.324 5.539-2.727 28.62-.364 43.952-1.304.062.047-.228 5.37-.228 5.37s-3.502-4.038-4.2-4.065c-3.49-.12-7.145 1.353-9.78 1.186-1.685.514-3.586 6.615-3.968 8.142-3.051-.36-6.006 2.828-5.295 5.797 1.001 3.3 2.712 3.049 4.573 3.095-.17 3.73-6.773 13.562-6.806 18.408 6.976-.55 14.535-.674 21.74-2.847 0 0 2.705-7.76 6.126-12.875 1.119-1.964 1.664-4.897 1.214-6.747-.293-2.034.585-2.546 1.369-3.958.48-.89 2.233-.845 2.467-.919 4.584-1.318 2.944-7.23.99-8.284-2.43-1.31-5.862.724-7.183-1.946-1.397-2.81-.943-8.64-.943-8.64l-34.592.172s9.772-18.53 9.527-18.673c-2.692-1.438-7.046-6.527-7.076-6.574m-23.136 16.87c.155-1.872.458-32.326-28.372-47.466l.16-4.008c.174-.214 26.232 11.736 30.7 42.75l8.044-12.581 2.96 1.164c-4.391 6.57-13.08 22.47-13.492 20.14m-17.509-10.974c1.191-3.511-.764-1.654-2.53-1.792-1.216-.655-2.412-1.51-3.532-2.257 8.422-4.46 3.406-4.233-1.503-1.109-1.276-.687-2.88-2.2-2.976-2.077 9.505-6.1 5.938-6.22-.14-1.814.208-4.147.058-2.586.143-3.978 5.182-5.551.353-2.534-.006-2.462-1.273-5.534 4.837-4.38 5.388-.19 1.073.792 3.183 1.787 3.809 5.22 2.933 1.86 2.628 3.403 2.482 5.646 1.145 1.134 4.116 3.521.65 5.725zm-10.94-25.251.19-3.063c.393-1.248 22.631 14.588 21.038 34.925.266-.15-2.46-1.418-3.24-2.113 0-14.974-15.92-28.136-17.988-29.75m127.55 17.17c-14.831-6.779-28.931-23.054-29.667-44.204l-8.379 14.016-2.974-1.257c.275.236 6.63-11.536 13.174-19.666 1.84 26.696 12.326 39.102 28.222 48.113zm-77.706-9.752c-14.371-1.785-35.167-21.314-28.956-47.8.882-2.696 14.741 12.213 14.741 12.213.089-.68 12.468 19.237 12.124 23.134 10.457 2.975 30.863.153 30.863.153 16.96 3.779 34.704 22.05 28.3 48.006 0 0-4.513-2.955-8.274-6.392-11.455-11.044-15.091-20.117-19.146-30.14-14.658-1.327-28.403 1.296-29.652.826m77.845-22.052c.257 1.32.088 4.059.135 4.044-3.824 4.149-4.214 4.235.572 2.89-.593 3.985-3.537 4.633-5.299 3.288-.643-.506-.645-3.247-.645-3.247-2.905-.73-3.899-1.598-3.49-4.719-3.346-.396-3.21-2.02-2.937-5.422-3.044-1.707-2.285-4.435-.481-5.598l1.504 1.032c-.488.425-.254 3.139 2.417 1.123 0 0 2.143 1.77 3.156 2.453-7.732 4.951-3.043 3.867 1.713.616.89.604 2.115 1.6 2.744 2.028-6.25 4.496-8.315 8.256.61 1.512m.372 16.854-.26 3.573c-15.255-9.31-19.381-21.597-20.515-34.685 0 0 2.055 1.505 2.991 2.125 1.365 16.886 16.85 28.275 17.784 28.987M69.741 81.184l36.587.232-9.695 18.515 5.114 6.03s12.71-19.766 19.105-30.113l-2.213-1.322-18.241 28.61-.732-.801 17.977-28.584c-1.074-.699-3.12-1.832-3.12-1.832s-31.152.493-44.698.44c.435-1.867.536-5.179.536-5.179 2 2.867 4.131 5.41 8.786 2.607 0 0 5.506.184 5.712-.076.67-1.088 1.875-4.506 3.258-8.37 5.313-.362 4.781-2.926 5.385-3.752-.403-7.532-4.645-3.483-4.273-6.218 1.198-4.874 7.309-15.938 6.533-16.895-1.58-1.048-17.227 2.023-21.783 2.583-.416-.162-2.647 7.095-4.995 10.184-2.554 3.38-3.467 6.989-2.158 10.402-1.35 3.756-3.936 3.373-6.017 4.422-2.354 2.547-1.705 6.445.536 7.953 1.565 1.048 3.971.995 6.41-.994zm72.7-26.195-4.28-5.738 4.15-6.033c-1.634-2.597-4.346-6.56-3.86-9.695 1.05-6.239 9.477-5.326 10.216.649.404 2.763-1.623 6.167-3.672 9.044 1.355 2.47 1.938 2.866 3.909 5.701-1.167 2.056-4.027 6.097-4.027 6.097 1.782 2.987 4.256 6.28 4.066 9.312-.182 2.614-3.035 5.246-5.695 4.691-8.242-1.73-3.627-10.559-.807-14.028"/>
    <path d="M65.037 20.45c2.272 4.25 8.708 15.722 8.708 15.722 15.322-3.17 28.215-3.979 41.744-1.015l9.678-14.644zm2.002.87 2.763-.001 5.432 11.161 9.373-1.874-1.6-9.27 2.653.012 1.342 8.91 13.77-.345 1.788-8.596 2.544.027-1.82 8.734 10.915 1.466 5.337-10.241 3.662-.002-8.108 12.642c-14.431-2.809-28.77-1.868-40.782 1.077zm5.23-.007 8.085-.006 1.939 7.527c-.986.51-4.71 1.409-5.949 1.28-1.478-2.58-3.014-6.321-4.075-8.801m15.595.01 12.306.001-1.053 6.41-10.325.324zm19.506-.004 9.481.001-3.744 7.79-7.153-.97zm36.105 7.796a6.8 6.8 0 0 0-1.539.145c-2.46.517-3.748 2.4-3.768 5.482-.008 1.409 1.037 3.904 2.611 6.268a20 20 0 0 1 1.283 2.204l-4.12 6.05 4.39 5.724s-.68.794-1.093 1.375c-2.018 2.847-2.946 5.495-2.812 7.681.147 2.356 1.514 4.144 4.091 5.007 1.42.473 3.432-.098 4.786-1.33 1.088-.988 1.652-2.28 1.661-3.782.036-2.152-1.007-4.77-3.086-7.623-.56-.768-.846-1.377-.846-1.377s2.908-4.133 4.01-6.035l-3.986-5.702c3.167-4.748 3.805-5.79 3.884-8.716-.107-2.882-2.208-5.364-5.466-5.37m-.394.35.419.007c3.61.276 5.522 2.956 5.046 6.4-.489 3.276-3.457 6.34-3.925 7.4 1.42 2.315 4.113 5.596 4.113 5.596-1.136 2.072-4.089 6.08-4.089 6.08s.165.328.363.595c3.078 4.34 3.913 6.398 3.714 9.012-.173 2.056-1.786 3.888-3.825 4.257-3.207.597-5.854-1.692-6.175-4.763-.204-2.682 1.546-5.301 2.884-7.339a53 53 0 0 0 1.067-1.67l-4.374-5.74c1.338-2.115 3.017-4.178 4.257-5.954 0 0-.65-1.048-1.255-2.002-2.404-3.787-3.07-5.719-2.694-7.818.43-2.58 2.425-4.033 4.474-4.061m.325 1.94c-1.335.04-2.609 1.026-3.113 2.443-.727 2.667 2.077 6.693 3.362 7.782 2.405-2.748 3.93-5.835 3.034-7.987-.583-1.326-1.948-2.277-3.283-2.237m.342.858c2.42.056 3.32 2.92 1.466 6.172-.64 1.12-1.59 2.281-1.59 2.281s-.882-1.098-1.427-1.928c-2.163-3.38-1.607-6.02 1.054-6.487.156-.028.327-.04.497-.038m-48.16 1.498c-6.332.035-14.807 1.087-22.237 2.776-.64 3.985-2.646 7.978-4.84 11.147-2.105 3.434-2.868 6.41-2.157 8.466.651 1.916-1.134 4.782-3.108 4.95-2.455.224-4.02 1.932-3.983 4.364-.064 3.886 2.627 6.284 6.28 4.95a.82.82 0 0 1 .618.196l-.214 22.28c-2.053.323-3.426.764-5.18 1.696-3.244-3.693-5.963-6.308-8.446-8.146-.073-4.956.133-9.939-.095-14.898-3.67 1.41-7.588 3.73-10.804 5.877-1.083.725-1.183 1.126-.779 2.96.232 1.026.168 1.133-.674 1.336-1.745.42-2.287 3.199-.813 4.137.691.445.69.46.255 1.46-.693 1.552-.664 4.51.044 5.76.408.704.388.936-.16 1.283-1.852 1.209-1.723 3.781.208 4.262.495.117.631.336.469.767-.6 1.57-.05 3.932 1.332 5.736.73.941.714.925.242 1.351-1.56 1.414-.717 3.937 1.404 4.204.728.09.728.09.812.648.237 1.6.354 2.05.714 2.8.45.952.982 1.595 1.994 2.37.827.634.827.65.377 1.587-.805 1.736.485 3.476 2.535 3.402 1.056-.03 1.056-.045 1.127.328.374 1.818 2.542 3.96 4.321 4.252.913.155 1.065.374.742 1.143-.502 1.246-.174 2.041 1.088 2.697.846.432 1.094.451 2.015.126 1.046-.354 1.061-.354 1.957.837 1.26 1.678 2.091 2.094 4.186 2.114 1.38.007 1.427.039 1.442 1.014.023 2.308 2.46 3.262 4.039 1.585.569-.61.569-.595 1.075-.23 2.207 1.615 4.171 2.035 3.995.514-.423-3.537-2.994-5.701-2.994-5.701l3.214.843c.14 3.734.267 8.242 1.053 11.368L62.346 165.1s-.86-.525-1.78-1.16c-1.351-.92-2.993-2.016-4.007-2.637-.523-.318-1.183-.716-1.688-1.158-.505-.41.31-.955.473-1.401 3.294-5.861 8.438-12.915 12.199-19.775l-3.624-1.407c-2.772 4.367-4.816 7.88-7.412 11.894-2.606-18.811-15.801-35.366-31.747-42.334l.058 4.941c16.742 8.545 28.693 26.194 28.38 47.001-.064.077-1.4-.72-3.212-1.926-.951-.635-2.87-1.89-3.101-2.003.77-23.044-22.126-36.677-22.168-36.028 0 0-.142 2.971-.212 4.364 9.761 6.525 17.432 18.39 18.204 28.963.014.093-4.577-2.863-4.577-2.863 2.738-1.364 1.974-4.876.019-5.822-.617-.273-.645-.413-.352-1.245.633-1.708-.52-4.267-2.11-4.695-.696-.182-.817-.37-.847-1.346-.064-1.782-1.053-2.96-2.831-3.345-.495-.101-.495-.117-.531-.721-.145-3.456-3.535-4.859-6.088-2.532-.283.259-.587.765-.587.765l-.015 3.747c.861-.481 2.192-2.1 2.734-2.046.604.072.302.47-1.036 1.625-.865.744-1.717 1.551-1.717 1.551l.058 4.94c1.443-.935 2.904-1.995 4.254-2.949 1.178-.816 1.772-1.085 1.907-.85.167.265-.103.601-.761 1.009-1.789 1.178-3.86 2.568-5.354 3.752l-.01 3.406.288.423.09 2.975-.264.073v3.747l35.225 22.462 17.925-28.213.29.3-17.923 28.104s.734.631 1.442.999c.707.399 1.599.924 2.366 1.433.363.579.99 1.1 1.659 1.034.616-.672 3.312-1.386 3.566-1.691 10.027-.145 38.809.051 38.809.051l.156 4.602c-1.292-4.45-5.466-5.37-8.742-3.38l-5.385.003c-.046 0-3.183 5.724-3.651 8.705-2.26-.3-5.276 1.895-5.438 4.138-.363 3.184 1.725 5.494 4.463 5.044.047.016-.424 3.152-1.986 5.604-2.057 4.317-3.106 6.731-4.362 10.411-.845 2.31-.557 2.732-.418 2.78 8.04-.114 15.44-.89 23.052-3.35 0 0-.146-.545-.203-.856-.274-1.228.76-3.75 3.702-8.967 2.27-4.02 2.917-5.557 3.15-7.458.109-.958.098-1.206-.245-3.008-.013-.17-.149-.405-.114-.59.237-1.205 2.072-3.327 2.118-3.28 0 0 .67-.128.933-.155 4.148-.287 5.437-5.934 1.94-8.469-1.704-1.05-2.712-1.129-4.52-.647l-.026-21.866 2.528.088 2.785-1.363c4.453 3.805 7.368 7.694 12.177 10.607l-.081.2-3.576-2.444.012 14.324c4.132-2.146 7.982-4.127 11.694-7.132l-.75-.647.034-2.043c3.487.274 3.824-4.165.962-4.692 0 0 .068-.355.341-.924.884-1.797.99-3.498.353-5.367-.385-1.137-.38-1.431.086-1.423 2.125.02 1.924-3.747-.235-4.557-.74-.29-.698-.042-.535-2.378.107-1.748-.308-2.932-1.602-4.47-.487-.582-.451-.86.176-1.237 1.803-1.1.505-4.28-1.73-4.194-.87.032-.87.032-.949-.836-.195-2.28-1.478-4.453-3.139-5.363-.523-.288-.597-.506-.295-.903 1.428-1.897.09-4.505-1.91-3.733-.39.149-.796.297-.905.326-.156.044-.292-.175-.588-1.032-.83-2.352-1.578-3.076-4.229-4.189-.524-.225-.552-.38-.317-1.445.403-1.852-2.145-3.566-3.515-2.365-.566.486-.582.486-1.205-.33-1.264-1.445-3.31-2.455-5.123-2.64-.868-.076-1.007-.14-.923-.48.487-2.267-1.723-3.744-3.561-2.38-.88.65-1.113.678-2.02.167-1.907-1.069-2.729-1.098-2.93-.14-.06.803.11 1.75.318 2.343.47 1.587 1.065 2.185 2.366 3.29 0 0-2.178-.608-2.72-.71.048-.061-.154-7.544-1.589-11.78l13.929-22.115 7.982 5.241-12.748 20.138 3.715 1.501s4.962-8.218 7.559-12.248c1.701 20.004 17.207 37.557 31.242 42.76-.047.03.048-2.88.102-4.288-14.82-6.516-28.903-24.696-28.014-46.531l5.958 3.8c1.727 17.495 9.363 27.748 22.099 36.429l-.005-5.358c-8.893-6.48-16.17-14.947-18.103-28.482 0 0 2.98 1.876 4.3 2.765 0 0-.376.211-.565.378-1.59 1.321-1.107 4.04.978 5.56.337.253.337.253.029 1.1-.634 1.693.341 3.738 1.994 4.167.958.249.943.233.956 1.317.027 2.106.88 3.08 3.138 3.582.309.067.324.099.308 1.043-.007 2.338 2.232 3.893 4.188 2.918.61-.3 2.53-1.909 2.53-1.909v-3.747s-.865.713-1.495 1.291c-1.104 1.02-1.447 1.153-1.452.534.007-.45.513-1.045 1.566-1.833.55-.409 1.387-1.278 1.387-1.278l-.005-4.367s-.5-.782-.469-1.71c.024-.511.161-1.283.161-1.283l.528.008-.01-5.063-.643-.507.025-3.36L118.51 73.89l-18.106 28.83-.456-.534 18.164-28.612-4.822-3.083-2.91 1.438s-20.152-.317-39.817-.068c0 0-.053-.543-.043-2.076.016-1.92.098-2.197.457-1.386.792 1.825 2.776 2.91 5.059 2.809 1.289-.056 1.476-.115 2.916-.881.533-.286.626-.3 3.155-.273 2.7.013 3.183-.087 3.192-.645.935-2.137 1.86-4.614 2.404-6.48.263-.908.378-1.31.583-1.492.157-.136.297-.103.685-.128 1.724-.11 2.207-.227 3.453-1.43 2.493-2.498 1.073-7.6-2.558-7.614-.963 0-.3-2.544 1.724-6.677 2.088-4.27 2.394-4.93 3.465-7.793.714-1.878 1.047-3.22 1.138-4.023a4 4 0 0 0-.605-.01m-.191 1.22c.505.426-.757 3.503-3.006 8.173-1.864 3.856-2.687 5.778-3.099 7.18-.115.401-.28.987-.362 1.295-.116.432-.29.646-.714.949-.299.211-.723.53-.943.712-.614.485-.75.328-.61-.645.278-1.823 1.009-3.793 2.68-7.219 1.333-2.718 2.623-5.655 3.634-8.627.229-.693.334-1.403.71-1.66.549-.317 1.122-.26 1.71-.158m-2.719.187c.338.238-1.284 4.47-4.128 10.323-3.535 7.313-3.729 12.45-.537 13.695 2.513.987 5.042-1.775 3.492-3.782-.744-.973-2.341-1.045-2.901-.048-.304.552.12 1.179.66.413.78-1.117 2.356.179 1.978 1.489-.264.909-1.533 1.631-2.322 1.479-3.48-.692-2.824-5.59.78-5.856 3.45-.253 5.018 4.357 2.507 7.01-.79.854-1.729 1.287-3.342 1.276-2.25-.006-4.346-1.852-4.131-3.568.29-1.574.342-2.843-.196-4.076-.165-.39-.375-.795-.367-1.29.039-1.394 1.176-3.543 3.732-8.89.916-1.905 2.042-5.231 2.604-7.312.196-.617.106-.788.324-.862.577-.115 1.386-.287 1.847 0m-2.965.075c.527.024-.685 3.876-2.213 7.149-1.16 2.505-2.733 5.73-3.915 8.716-.383.628-.633.686-1.402.27-.846-.447-.6-1.17 1.405-5.148 1.508-3.01 2.961-6.424 3.98-9.86.085-.417.23-.771.575-.967.547-.239 1.043-.184 1.57-.16m-2.816.434c.273.376-1.55 5.565-4.394 11.402-.61 1.244-1.017 2.383-1.628 3.643-.3.29-1.42.441-1.98.556-.588-.072-.027-1.162 1.627-4.51 1.349-2.735 1.734-3.502 2.444-5.163.517-1.215 1.265-3.309 1.98-5.263.05-.154.117-.51.258-.585.547-.223 1.185-.305 1.693-.08m-2.767.326c.044.125-.053.386-.103.587-.454 2.083-1.464 4.033-2.21 6.033-.083.278-.902 1.968-1.817 3.78-.914 1.797-1.75 3.517-1.848 3.825-.113.308-.406 1.108-.665 1.786-1.625 3.488.129 6.242 2.283 6.448 3.378.273 3.689-4.445 1.306-4.887-.897-.154-1.883.34-1.884 1.362-.071.541.601 1.172.583.397-.039-1.41 1.93-1.346 2.175-.15.473 2.33-2.184 3.464-3.752 1.642-.654-.754-.64-1.606-.519-2.378.33-2.085 2.729-3.594 4.968-2.024 3.053 2.156 1.996 6.908-1.943 7.68-1.34.349-3.04-.097-4.108-1.183-.671-.693-1.12-1.722-1.285-2.995a8.9 8.9 0 0 1-.023-2.323c.32-2.441 2.101-6.004 3.672-9.03 1.205-2.503 2.16-5.817 3.26-8.478.298-.243 1.962-.447 1.91-.092m-2.97.323c.186.05-.747 2.945-2.055 6.067-1.45 3.166-3.325 6.79-4.385 9.916-.34.768-.587.749-1.534-.15-.504-.472-.214-1.165 1.537-4.76 2.714-5.53 3.715-7.882 4.125-9.207.197-.616.349-1.372.756-1.613.532-.224 1.031-.401 1.556-.253m-2.711.698c-.295.924-1.225 3.68-2.831 6.953-1.012 2.058-1.996 4.35-2.994 6.47-.549 1.307-.564 1.307-1.514 1.508-1.604.33-1.604.314-.19-2.543.417-.845 1.218-2.411 1.795-3.47 1.056-1.95 2.67-5.732 3.26-7.611.164-.509.373-.985.626-1.244.172-.075 1.42-.442 1.848-.063m-3.498.345c.28-.01.543.04.664.197.067.651-1.677 4.804-2.764 6.721-.336.583-.659 1.352-1.027 2.043-1.371 2.192-3.023 6.376-3.456 8.12-.682 2.76 2.496 4.856 4.143 2.84 1.045-1.222-.037-3.408-1.552-2.798-.53.208-.318.444.41.502 1.179.097 1.272 1.926.024 2.323-1.388.427-2.423-.783-2.418-2.022.011-2.539 2.789-3.469 4.535-2.077 1.73 1.437 2.014 4.864-.615 6.2-2.566 1.289-5.718-.467-6.35-3.528-.49-2.346.043-4.49 2.306-8.107 1.292-2.085 3.322-5.675 4.352-8.817.195-.539.388-.969.563-1.198.142-.184.704-.376 1.185-.399m68.684 7.373-3.44 4.372c.985 1.426 3.36 4.252 3.36 4.252l3.265-4.204zm.021 2.447 1.429 1.836-1.63 1.924-1.523-1.79zm.138 9.495s-4.156 4.546-3.204 7.922c.85 3.003 5.385 3.744 6.482-.667.084-.355.014-.82-.038-1.41-.08-1.797-3.24-5.845-3.24-5.845m0 .898s1.198 1.723 2.042 3.255c.938 1.456 1.196 5.532-2.154 5.4-1.818.187-3.548-2.196-2.103-5.114.372-.892 2.216-3.54 2.216-3.54m-68.662.726c.234-.042.458.457.607.83.194.5-.373 1.915-.959 2.618-.11.122-.872.187-2.014.756-.007-.526.323-1.698.533-2.205.773-.762 1.425-1.68 1.74-1.938.03-.03.062-.061.093-.06m-8.29.25c.518.582 1.006 1.086 1 1.442-.024.526-.64 1.166-1.113 1.623-.584.579-1.758.234-1.745-.509-.011-.279 1.656-2.543 1.858-2.555m17.6.755c.492.272.99 1.163 1.06 1.566-.732 3.89-3.402 8.647-3.306 8.463 0 0-1.65.298-2.342-.054 1.81-2.495 3.011-5.68 3.83-8.284.36-1.124.51-1.68.758-1.69m-1.515.548c.28-.01.385.208.158.808-1.065 4.303-3.451 8.816-5.312 9.653-2.454 1.074-4.907.182-5.962-1.662-1.13-2.001-.939-5.157 2.859-5.853 2.223-.227 4.521 1.53 3.326 4.344-1.322 2.1-4.888.926-3.834-1.767.792-.993 2.438-.13 1.907.992-.273.568-.015.913.395.518 1.294-1.264-.843-3.421-2.273-2.345-2.342 1.773.558 5.646 3.286 3.987.83-.513 2.336-3.353 2.898-5.434.248-.894.464-1.742 1.047-2.29.52-.518 1.148-.926 1.505-.95m-6.225.176c.14.003.294.067.51.18.276.128.598.38.562.69-.037.37-.252 1.157-.678 1.553-.247-.082-.956-.372-1.435-.489-.293-.082.105-.726.282-1.079.289-.584.463-.813.697-.84.015-.015.046-.015.062-.015m-7.746.136c.357-.01.91.387 1.281.44.069.527-.617 1.677-1.726 3.021-.903 1.1-.903 1.116-1.503-.102-.39-.796-.407-.765.718-2.171.602-.75.887-1.085 1.153-1.19.03.017.062.002.077.002m3.516.399c.011.279-.123.911-.254 1.28-1.257 3.743-4.189 7.457-6.625 8.377-3.167 1.032-6.057-.626-6.133-4.468.075-4.52 5.465-5.763 7.088-1.648.73 1.855-1.272 4.656-3.002 4.193-1.746-.477-2.477-3.184-1.038-3.857.938-.434 1.92.295 1.716 1.298-.067.34-.053.402.15.359.902-.171.42-1.96-.643-2.411-2.004-.854-3.522 1.846-2.159 3.851 1.62 2.396 4.158 1.942 5.634-1.022.257-.507.719-1.227 1.051-1.609.886-1.022 1.172-1.42 1.955-2.786.431-.751.656-1.212.878-1.456.373-.04.62.056 1.382-.101m7.104.194c.373.006.679.244.67.77-.007.434-.643 2.297-.93 2.726-.11.168-.37.768-.413.628-.368-1.23-1.029-1.612-1.132-1.94-.118-.373.23-.739.375-1.077.306-.707.934-1.115 1.43-1.107m6.679.59c.465-.007 1.113.205 1.247.547.423.735-2.421 7.564-2.515 7.578l-2.109-.097c1.271-2.72 2.387-5.411 3.206-8.015a.6.6 0 0 1 .17-.013m28.358 10.797 2.689 1.593-17.721 28.107-2.575-1.962zm-44.204.587c16.556.056 39.337.03 39.337.03l-.962 1.826s-24.902-.24-38.387-.215zm-22.334 1.15-.029 9.228c-1.713-1.5-6.888-4.79-6.92-4.713-.016.015 4.456-2.962 6.95-4.516m70.854.92 1.659 1.05-18.615 29.579-1.037-2.03zm-48.515.408 2.592-.004-.002 2.927-2.592.003zm5.944-.01 3.15.005-.002 2.927-3.15-.006zm6.858.035 3.227.007-.001 2.927-3.228-.007zm6.75.018 3.274.008-.002 2.927-3.274-.008zm6.796.02 3.228.006-.002 2.927-3.228-.007zm6.796.05 3.306-.008-.004 2.06-.495.859h-2.793zm17.799.96 31.582 20.388-.016 2.818-32.872-21.2zm-2.073 2.38.276.191-1.337 2.038-.276-.16zm-48.777.311 35.443-.004-1.07 1.794-34.386-.056zm-29.095.914c.233-.012.71.198 1.433.597 1.737.973 2.836 3.035 2.094 3.782-.662.655-2.237-.75-3.212-2.779-.541-1.077-.672-1.59-.315-1.6m62.709 1.762-11.429 18.24c-2.579-3.543-5.477-6.595-11.811-4.516-3.295-2.548-6.795-2.946-10.493-.777l.043-12.883zm-58.86.005.888.773c-.257.507-.377 1.233-.559 1.88-.016-.898-.079-1.782-.328-2.653m72.48.189 35.231 23.127-.004 2.137L116.5 83.674zm-77.162.523c.45-.008.897.186 1.232.594.532.643.311 1.817-.442 2.315-1.49.998-3.274-.936-2.088-2.264.379-.412.848-.636 1.298-.645m5.83.282 1.93 1.534c-3.34 19.008 6.195 38.196 26.754 43.94l.24 2.435c.044.109-8.725-2.606-12.557-5.457-5.233-3.54-9.667-8.506-12.705-14.3-2.08-3.736-3.222-7.843-3.959-11.17-.898-5.697-.867-11.349.297-16.982m-2.168 2.582c.744.027.813.555.222 1.583-.767 1.303-1.9 2.214-3.759 3.004-1.016.432-1.292.242-1.165-.855.182-1.639 1.32-2.828 3.285-3.461.468-.132.951-.279 1.417-.271m5.66.201c.306.253.398.332.765.648a1.61 1.61 0 0 0-1.08 1.515c0 .883.718 1.607 1.603 1.606a1.6 1.6 0 0 0 1.574-1.337c.29.253.55.474.765.663a2.515 2.515 0 0 1-2.354 1.587c-1.397-.007-2.527-1.125-2.52-2.519 0-.929.495-1.726 1.247-2.163m1.283 1.26c.093.002.17.019.247.035.2.174.368.316.567.474.06.125.089.25.086.389.008.496-.402.891-.899.899a.9.9 0 0 1-.9-.898.89.89 0 0 1 .899-.899m-6.062.582c-.211 2.458-.145 5.015-.063 7.587-.479-2.037-1.54-3.557-3.292-4.592 1.21-.847 2.483-1.88 3.355-2.995M54.37 89.2l1.714 1.468c-1.466 20.122 16.206 27.77 16.677 27.42l.738 2.274C61.31 116.228 52.874 103.638 54.37 89.2m98.422 48.234-.09 2.538c-13.845-5.354-29.625-25.142-29.42-44.092-3.55 5.439-5.55 9.06-8.61 13.965l-2.433-1.155c3.993-5.943 7.791-12.29 11.798-18.125.461-.658.823-.962.846.479 0 6.52 2.04 33.342 27.909 46.39M40.222 90.778c.451-.023 1.084.188 1.882.728 1.274.842 2.69 3.467 2.198 4.047-.443.52-2.326-.1-3.256-1.091-1.845-1.95-1.957-3.61-.823-3.684m10.797.256c1.396.007 2.526 1.125 2.519 2.519-.008 1.393-1.128 2.52-2.525 2.513s-2.526-1.125-2.519-2.519c-.008-1.378 1.128-2.506 2.525-2.513m5.644.247 1.644 1.932c.326 16.885 13.678 22.091 13.553 22.136l.404 1.818c-.73.096-16.518-7.07-15.6-25.886m-5.644.666c-.884.001-1.61.717-1.609 1.6 0 .882.718 1.606 1.603 1.606.884-.001 1.61-.717 1.609-1.6 0-.883-.718-1.607-1.603-1.606m.004.713a.9.9 0 0 1 .9.897c.008.496-.402.892-.899.899a.9.9 0 0 1-.9-.898.89.89 0 0 1 .899-.898m8.525 1.518c.202.004 1.157 1.382 1.157 1.382s-1.046.37-1.504-.087c-.443-.44-.196-1.288.347-1.295m73.125.633 2.47 1.683c1.161 11.4 7.708 21.79 17.567 29l-.062 2.816c-12.017-8.095-18.677-19.107-19.975-33.499m-92.722.19.124.002c1.52.025 2.15 2.343.54 3.013-1.016.417-2.123-.19-2.23-1.213-.081-.73.46-1.51 1.208-1.73.125-.045.25-.058.358-.072m20.66 1.518c.403.006.834.23 1.23.686 1.082 1.226 1.076 1.582-.065 2.043-1.609.655-2.944-.25-2.409-1.635.276-.723.732-1.087 1.244-1.094m-16.496.068q.186.003.371.053c1.187.469-1.389 5.165-3.088 5.648-1.076.307-1.302-.115-.949-1.766.388-1.836 2.408-3.909 3.666-3.935m7.57.11c1.397.007 2.527 1.125 2.52 2.519s-1.129 2.52-2.525 2.513-2.527-1.125-2.519-2.519 1.144-2.52 2.524-2.513m.001.898c-.884 0-1.61.717-1.61 1.6a1.608 1.608 0 0 0 3.212.007c.015-.884-.702-1.592-1.602-1.607m-6.302.144c.225 2.326.608 4.485 1.647 7.351-.968-1.549-2.367-2.315-3.687-3.204.923-1.378 2.001-2.77 2.04-4.147m6.306.568a.9.9 0 0 1 .9.898c.008.495-.402.891-.899.899a.9.9 0 0 1-.9-.898.91.91 0 0 1 .899-.899m14.287.267c2.64-.05 4.497 2.103 4.385 4.176.084 2.401.167 3.951-.038 6.937l-2.138-3.907c-.029-1.1.156-1.949.066-3.05-.246-2.961-3.155-2.545-3.284-2.253l-.922-1.486a5.9 5.9 0 0 1 1.931-.417m9.275.308c2.467-.006 3.903 1.38 3.97 3.844.14 4.725-.101 15.514-.101 15.514l-5.338.005-2.907-7.202s-.113-.699-.089-1.194c.178-2.304.065-4.877.147-6.966.3-2.225 2.114-4.007 4.318-4.001m-12.35.74c.342-.01.666.104.91.34 1.237 1.245 1.239 2.065-.027 2.633-1.658.747-2.524.609-3.08-.5-.556-1.078.972-2.446 2.198-2.472m77.817.34 1.35.873s-.286.445-.445.705c-.767 1.32.539 2.1 2.35 1.386.329-.118.61-.3.61-.3l1.121.762s-.799.436-1.69.87c-2.253 1.11-3.875.634-4.433-1.28-.22-.763-.002-1.704.426-2.254.222-.29.71-.763.71-.763m-57.248.17c2.065-.074 4.071 1.538 4.547 3.699.201 1.01-.052 14.416-.052 14.416l-8.193-.012.14-14.058c-.048-.883-.002-1.765.474-2.408.903-1.1 1.997-1.608 3.084-1.637m-8.514.603c-1.662.081-2.59 2.745-.889 4.012.706.522.72.63.348 2.406-.437 2.036.014 4.816 1.028 6.38.785 1.3.625.63.225-.522-.507-2.176-.263-3.767.99-6.286 1.12-2.119 2.199-5.384-1.36-5.984zm68.02.61.736.493s-.11.091-.267.243c-.3.29-.89.326-1.073.107-.289-.346.604-.842.604-.842m-59.047 1.04c-1.783-.06-2.955 3.234-.672 4.03.522.334.608.77.288 1.384-.433.829-.869 2.788-.79 3.61.09 1.178.406 2.717.63 3.247.596 1.465.481.89.323-.815-.061-1.906.319-3.278 1.435-5.087 1.324-2.177 3.12-5.724-1.028-6.366-.077.014-.124-.002-.186-.003m-30.617.022c1.397.007 2.527 1.125 2.52 2.519s-1.129 2.52-2.525 2.513-2.527-1.125-2.52-2.519 1.129-2.52 2.525-2.513m11.712.255c.435-.009.756.29 1.165.87 1.09 1.63.96 1.952-1.138 3.11-2.223 1.218-3.709-1.858-1.59-3.278.643-.423 1.097-.664 1.47-.704zm-23.123.114c2.343.023 6.011 3.366 4.234 3.848-.25.073-.576.115-.715.112-2.946-.172-6.327-3.99-3.52-3.96m11.412.544c-.885.001-1.61.717-1.61 1.6.001.882.719 1.607 1.603 1.606.885-.001 1.61-.717 1.61-1.6-.001-.898-.719-1.607-1.603-1.606m93.02.466 1.167.793s-.72.33-1.565.78c-2.285 1.216-2.952 2.12-2.158 2.906.274.284.614.413 1.223.175 1.593-.608 3.07-1.699 4.542-2.557l.875.603c-.015-.047-3.502 2.466-5.397 3.519-2.989 1.53-4.69-1.595-3.027-3.69 1.278-1.232 2.65-1.659 4.34-2.53m-93.016.231a.9.9 0 0 1 .9.898c.008.495-.402.891-.899.898a.9.9 0 0 1-.9-.897c-.008-.496.402-.892.899-.899m94.846.837.644.428s-.062.03-2.02 1.16c-2.131 1.219-2.225 1.248-2.346 1.045-.107-.064.04-.557.7-.995 1.145-.756 3.162-1.698 3.022-1.638m-55.369.062c1.444-.023 2.922.652 3.767 2.122.432 1.122.461 2.144.457 3.321l-.037 7.866-8.255.003s-.377-5.364.007-9.833c.378-2.223 2.199-3.432 4.061-3.479m-25.623 1.172c.528-.037.907.48 1.401 1.588.494 1.107.127 1.72-1.42 2.392-.188.09-.422.148-.5.146-1.564-.15-2.202-1.956-1.082-3.053.694-.685 1.181-1.049 1.6-1.073m83.89.811.723.446s-.363.334-3.033 2.272c-2.152 1.56-2.47 1.988-2.018 2.878.36.703 1.153.623 2.238-.21 1.508-1.153 3.884-3.111 3.884-3.111l.071 1.333c-1.557 1.26-3.455 3.396-4.942 4.208-2.895 1.423-4.971-2.482-2.332-4.421 2.278-1.681 5.41-3.395 5.41-3.395m-57.943.004c-2.156-.02-2.954 3.173-.638 3.861.662.352.612.537.167 2.14-.265.971-.362 2.146-.204 2.908.17.963.388.935.297-.088.01-.573.593-2.08 1.167-3.016 2.145-3.015 1.585-5.78-.789-5.805m-50.278.038c1.428.009 2.218 1.988.993 2.835-.879.605-2.698-.137-2.698-1.082-.001-.82.647-1.584 1.426-1.726a.9.9 0 0 1 .28-.027m4.094.16c.45-.007.704.647.697 1.948 0 1.858-.662 3.473-1.81 4.43-1.653 1.366-2.025-2.372-.48-4.84.654-1.026 1.206-1.544 1.593-1.537m105.637.489c.404-.01.336.3-.135.632-.36.258-.99.758-2.91 2.384-.346.288-.85.682-1.116.848-.643.423-1.184.322-.866-.184.319-.475 4.654-3.67 5.027-3.68m-96.739.092c1.396.008 2.526 1.126 2.519 2.52-.008 1.393-1.128 2.52-2.525 2.513s-2.526-1.126-2.518-2.52a2.524 2.524 0 0 1 2.524-2.513m0 .914c-.884 0-1.61.717-1.609 1.6.001.882.718 1.606 1.603 1.605.884 0 1.61-.717 1.61-1.6.014-.897-.72-1.606-1.604-1.605m-30.198.044c17.082 8.613 27.724 24.738 30.353 43.1l8.302-13.134 2.236.843-12.088 19.668-.525-.164c-.054-19.202-9.638-37.385-28.311-47.356zm30.202.653a.9.9 0 0 1 .901.897c.007.496-.403.892-.9.9a.9.9 0 0 1-.9-.898c-.007-.496.403-.892.9-.9m-7.046.1a30.4 30.4 0 0 0 3.061 5.347c-1.42-1.34-2.974-1.273-4.522-1.484zm20.306.366c.264-.01.526.102.739.384.698.956.823 1.84.334 2.328-.663.655-1.73.405-2.21-.532-.48-.983.345-2.146 1.137-2.18m83.758 1.335.022 1.487s-.316.382-.648.702c-.945.882-2.257 2.3-2.34 2.671-.3 1.172.857 1.61 2.004.745.393-.303.96-.758.96-.758v1.827c-.96.82-1.935 1.625-3.25 1.356-.772-.23-1.444-.845-1.587-1.606-.551-2.316 1.689-3.596 3.437-5.146zm-93.453 1.293c.046 0 .077 0 .124.002 1.396.007 2.526 1.125 2.519 2.519s-1.128 2.52-2.525 2.513c-1.396-.007-2.526-1.125-2.519-2.519-.008-1.347 1.065-2.444 2.4-2.515m50.702.573c1.381-.009 2.111 1.846.992 2.896-.441.411-1.424.705-1.976.324-1.534-1.078-.398-3.15.984-3.22m-2.755 1.456c.793.85 1.404 3.29.931 3.748-1.042 1.066-4.056-2.483-3.877-4.818.333-1.373 2.656.756 2.946 1.07m-36.895-1.336c.574.01.69.522.56.83-.128.292-.579.316-.933.17-.617-.258-.34-.996.373-1m-10.928.222c-.884.001-1.61.717-1.61 1.6a1.608 1.608 0 0 0 3.212.007c0-.883-.717-1.608-1.602-1.607m-12.022.7c3.041.004 6.26 2.395 3.46 2.876-2.07.353-3.414-.057-5.034-1.524-.826-.741-.525-1.139.968-1.315q.303-.042.606-.037M59.53 114a.9.9 0 0 1 .9.898c.008.495-.402.891-.899.899a.9.9 0 0 1-.9-.898c-.008-.496.403-.891.9-.899m4.214 2.284.124.002c1.397.008 2.527 1.126 2.519 2.52a2.514 2.514 0 0 1-2.524 2.513c-1.397-.008-2.527-1.126-2.52-2.52a2.533 2.533 0 0 1 2.401-2.515m49.624.137c.714-.019 1.347.13 1.714.462.444.41-.221 1.189-1.598 1.863-1.595.779-4.387.67-4.388-.165.003-1.146 2.424-2.128 4.272-2.16m-60.794.655c1.396.007 1.775 4.334.56 6.42-.622 1.073-1.48.362-2.08-1.769-.499-1.743.45-4.654 1.52-4.651m11.295.124c-.885 0-1.61.717-1.61 1.6.001.882.719 1.606 1.603 1.605.885 0 1.61-.717 1.61-1.6-.001-.882-.719-1.606-1.603-1.605m52.32.29c.125.002.263.066.463.162 1.524.753 2.646 4.24 1.844 5.807-.834 1.643-2.721-1.516-2.703-4.536.001-.99.07-1.392.35-1.419.016-.015.031-.014.047-.014m-67.583.217.093.001c1.38.039 2.39 1.945 1.085 2.914-.566.424-1.451.503-1.989.153-1.06-.668-1.001-2.308.094-2.879.25-.12.484-.177.717-.19m15.266.205a.9.9 0 0 1 .901.898c.007.495-.403.891-.9.899a.9.9 0 0 1-.9-.898.89.89 0 0 1 .9-.899m-9.44.294c.758 1.127 3.813 4.089 4.243 4.344-1.358-.441-2.743-.247-4.142-.069.172-1.019.34-2.704-.1-4.275m49.234.254c20.76 4.849 33.446 26.846 28.434 47.467 0 0-1.753-.974-2.024-1.443.741-3.564 1.192-9.225.262-14.908-1.563-9.642-9.398-23.785-26.557-28.652-.192-.607-.115-2.464-.115-2.464m11.186.154c.24 1.413.465 2.826.801 4.101-1.457-1.046-3.118-1.956-4.813-2.68 1.215-.26 2.32-.474 4.012-1.421m5.982.454c.823-.017 1.667.57 1.65 1.576-.007.45-.486 1.246-.862 1.442-1.377.705-2.798-.635-2.185-2.065a1.51 1.51 0 0 1 1.397-.953m-52.164.55c1.397.007 2.526 1.125 2.519 2.518-.008 1.394-1.128 2.521-2.525 2.514s-2.526-1.126-2.518-2.52a2.514 2.514 0 0 1 2.524-2.513m0 .913c-.884 0-1.61.717-1.609 1.6.001.882.719 1.606 1.603 1.605.885 0 1.61-.716 1.61-1.6-.001-.897-.719-1.606-1.603-1.605m-42.956.236c10.312 6.07 19.579 18.998 20.252 33.612l-2.502-1.636c-1.078-9.851-6.13-20.557-17.84-29.33 0 0 .03-.943.09-2.646m57.12-.002 13.33.003v2.864l4.006-2.055.003 6.349-3.994-2.42v2.772l-13.33-.003.002-2.911-4.083 1.977.043-6.318 4.044 2.266zm-14.16.463a.9.9 0 0 1 .901.897c.008.496-.402.892-.9.9a.9.9 0 0 1-.9-.898c-.007-.496.403-.892.9-.9m5.237.504.047.001.155.916-.077-.001c-.885 0-1.61.717-1.61 1.6.001.882.719 1.606 1.603 1.605.217.004.42-.04.607-.114l.156.917a2.4 2.4 0 0 1-.762.111c-1.397-.008-2.527-1.126-2.52-2.52a2.544 2.544 0 0 1 2.401-2.515m30.13.327.124.002c1.397.007 2.527 1.126 2.519 2.52a2.53 2.53 0 0 1-1.95 2.445l-.155-.901a1.6 1.6 0 0 0 1.19-1.544c-.001-.883-.719-1.607-1.603-1.606l-.109-.002-.156-.9c.047-.016.094-.015.14-.014m17.707.85c3.12.02 4.408 1.806 1.851 2.554-1.185.352-2.734.172-4.259-.504-1.278-.578.484-2.067 2.408-2.05m-65.084.165c.76-.003 1.488.117 2.027.374 1.309.61 1.27 1.027-.124 1.84-1.942 1.115-6.517-.014-5.13-1.276.63-.594 1.97-.928 3.227-.938m17.391.271c.062.001.14.002.202.019l.283 1.63a1 1 0 0 1-.484.147.9.9 0 0 1-.9-.897c-.008-.496.402-.892.9-.899m30.13.327a.886.886 0 0 1 .885.897.89.89 0 0 1-.603.842zm5.483.648c1.396.007 2.526 1.125 2.518 2.519s-1.128 2.52-2.524 2.513-2.526-1.125-2.519-2.519 1.144-2.52 2.525-2.513m-49.155.63c.155-.014.324.066.493.209 1.516 1.232 2.264 3.846 1.673 5.788-.574 1.848-2.925-1.442-2.912-4.06.02-1.222.295-1.914.746-1.938m65.388.21c.202.004.432.162.643.522.936 1.564.898 4.784-.08 5.79-.553.564-.753.468-1.339-.703-.976-1.983-.233-5.61.776-5.609m-16.233.058c-.884 0-1.61.717-1.609 1.6.001.882.718 1.606 1.603 1.605.884 0 1.61-.717 1.61-1.6.014-.882-.72-1.59-1.604-1.605m-47.15.43c1.905 1.208 3.857 2.294 5.89 3.21-1.9-.45-3.308.193-4.75 1.052.275-1.59-.263-2.87-1.14-4.262m57.302.341c1.424.194 2.832.434 4.482.12a14 14 0 0 0-.272 4.27c-1.246-1.585-2.618-3.063-4.21-4.39m-10.148-.059c.497-.007.893.402.9.898s-.402.891-.899.898c-.496.008-.893-.401-.9-.897s.402-.892.9-.899m-51.176.86c1.17.576 1.208 1.986.063 2.726-1.427.921-3.293-.705-2.401-2.1.807-.961 1.35-.952 2.338-.626m56.238.819c1.397.007 2.526 1.125 2.519 2.519a2.514 2.514 0 0 1-2.525 2.513c-1.396-.007-2.526-1.125-2.518-2.519a2.514 2.514 0 0 1 2.524-2.513m14.782.414c.248-.012.495.054.741.182.893.464 1.09 1.66.38 2.36-.788.777-1.872.635-2.4-.287-.619-1.079.223-2.242 1.279-2.255m-24.354.372c12.422 4.216 20.744 18.027 18.74 31.311l-1.56-1.466c1.18-7.522-2.957-21.914-16.81-27.81zm9.572.127c-.884.001-1.61.717-1.609 1.6.001.882.718 1.607 1.603 1.606.884-.001 1.61-.717 1.61-1.6.014-.898-.719-1.607-1.604-1.606m.004.697a.9.9 0 0 1 .901.898c.007.495-.403.891-.9.899a.9.9 0 0 1-.9-.898c-.007-.496.403-.892.9-.899m-47.254.165c.636.057 1.708-.064 1.962.544.282.748-1.275 2.054-3.235 2.316-.808.048-2.518.252-2.88-.327-.346-.733 1.965-2.522 4.153-2.533m-39.453.434c1.677-.081 3.58 2.165 1.874 3.995-1.358 1.402-4.152 3.323-4.152 3.323l.005-1.224s2.733-1.999 2.778-2.88c.002-1.038-.857-1.625-1.814-1.006-.188.12-.943.728-.943.728l.065-2.059c.506-.564 1.395-.844 2.187-.877m42.913.522c1.241.051 4.131 4.497 3.403 5.398-.587.718-2.934-.884-3.806-2.587-.481-.921-.33-2.56.248-2.783a.5.5 0 0 1 .155-.028m19.218.549s.123 10.346-.451 11.312c-2.336 4.22-7.374 2.016-7.802-1.135-.31-1.91-.127-10.16-.127-10.16zm.73-.004 8.053-.006s-.04 14.555-.363 15.386c-.26.677-1.428 1.85-2.162 2.164-2.36 1.03-4.897-.437-5.518-3.189-.464-1.99-.01-14.355-.01-14.355m8.72.005 5.338-.005s.19.777.396 1.4c.37 1.106 1.636 4.27 1.773 4.474.653.862.681 10.386.043 11.46-2.355 3.522-6.28 2.498-7.72-1.398-.337-1.26.17-15.931.17-15.931m6.248.35c9.592 4.541 16.928 14.186 16.01 26.543l-1.757-1.748c.638-8.537-5.873-19.205-13.47-22.366zm13.185.296c1.397.007 2.526 1.125 2.519 2.519-.008 1.393-1.128 2.52-2.525 2.513s-2.526-1.125-2.518-2.519a2.524 2.524 0 0 1 2.524-2.513m9.462.249c.93.015 2.089.344 2.946 1.04 1.026.837 1.17 1.505.375 1.755-1.529.47-3.383.022-4.528-1.127-1.085-1.04-.159-1.675 1.207-1.668m-9.462.664c-.884.001-1.61.717-1.609 1.6.001.882.718 1.606 1.603 1.606.884-.001 1.61-.717 1.61-1.6a1.59 1.59 0 0 0-1.604-1.606m-50.498.205c1.35.007 1.955 1.89.93 2.85-.425.395-1.574.469-2.081.15-1.382-.89-.57-3.013 1.151-3m17.776.479c-.44 1.278-1.163 2.722-1.753 3.703-1.58 2.637-1.376 4.406.3 5.3 2.461 1.311 4.242-2.206 1.829-3.593-.846-.478-.846-.494-.545-1.805.369-1.62.432-3.57.169-3.605m32.726.013a.9.9 0 0 1 .901.898c.007.495-.403.891-.9.898a.9.9 0 0 1-.9-.897.91.91 0 0 1 .9-.899m-24.107.532c-.109-.002-.027.65-.03 1.81-.016 1.89-.165 2.46-1.37 4.98-1.544 3.227-1.332 5.429.565 6.142 1.48.55 2.927-.572 2.94-2.306-.002-.82-.364-1.461-.92-1.625-.511-.04-1.082-.266-1.031-.513.296-1.93 1.97-5.558-.154-8.488m31.853.246c1.244.78 2.536 1.529 4.38 1.621-.791 1.892-.705 3.271-.84 4.787-.788-2.026-2.023-4.277-3.54-6.408m-95.082.306c.093.001.202.003.295.02 1.192.19 2.19 1.709 1.877 2.834-.28.986-.36 1.155-4.205 3.71-2.134 1.42-2.352 1.478-2.352 1.478l-1.135-.762s.957-.65 2.494-1.662c2.935-1.98 3.377-2.438 3.066-3.326-.325-.965-1.43-.751-3.175.583-2.578 1.986-2.844 2.105-2.844 2.105l.004-1.176s1.132-.895 1.62-1.32c1.21-.848 2.85-2.478 4.355-2.484m76.184.513c.295.005.507.272.41.518-.048.123-.22.197-.438.194-.465-.008-.485-.659-.034-.713zm25.86 1.371c.544 1.867-.625 4.976-1.345 5.367-.757.746-1.242.041-1.412-1.913.011-1.594 1.816-6.536 2.758-3.454m-30.66-1.048c.234 2.683.322 4.915-.94 7.093-1.63 2.822-1.205 5.245.54 5.785s3.286-.705 2.973-2.398c-.1-.513-.8-1.36-1.248-1.476-.541-.133-.598-.475-.3-1.538.592-2.065.387-4.67-.497-6.559-.073-.28-.404-.92-.529-.907m5.866.902c1.474.01 2.172 1.91 1.068 2.93-.614.562-.998.308-1.642-1.065-.6-1.295-.42-1.88.574-1.865m13.696.381c1.396.008 2.526 1.126 2.518 2.52a2.514 2.514 0 0 1-2.524 2.513c-1.397-.008-2.526-1.126-2.519-2.52-.008-1.378 1.128-2.505 2.525-2.513m0 .914c-.885 0-1.61.717-1.61 1.6.002.882.719 1.606 1.603 1.605.885 0 1.61-.717 1.61-1.6-.001-.882-.719-1.606-1.603-1.605m.004.712a.9.9 0 0 1 .9.898c.008.495-.402.891-.9.899a.9.9 0 0 1-.9-.898.89.89 0 0 1 .9-.899m-10.843.658c.202-.013.404.022.588.118 1.324.64 1.185 2.481-.276 3.572-.927.697-1.327.458-2.182-1.337-.48-.968.752-2.31 1.87-2.353m-77.095.215c.14.002.263.02.387.053 1.375.378 2.233 1.972 1.902 3.19-.76 1.877-3.315 2.5-5.253 3.29l-1.012-.73s1.426-.813 2.802-1.44c1.298-.598 1.503-.827 1.407-1.588-.193-1.474-.892-1.408-4.117.32-1.315.706-2.272 1.325-2.272 1.325l-.72-.585c1.067-.695 1.71-1.087 2.871-1.888 1.946-1.33 3.057-1.901 3.865-1.934a.4.4 0 0 1 .14-.013m102.43 1.085c.473 1.417-.494 2.67-1.928 2.105-.787-.307-1.329-1.307-.848-2.228.638-1.012 2.45-.827 2.776.123m-28.917-.492 2.276 4.063s.028 1.131.048 1.767c.08 2.633.656 3.51 2.196 3.257.11-.014.67-.175.67-.175l.982 1.658s-1.063.462-1.343.52c-1.822.387-4.345-.986-4.749-2.82-.374-1.771-.08-8.27-.08-8.27m-74.327 1.67c.683.042.394.58.081.744-1.33.675-2.6 1.413-3.978 2.211l-.937-.573s.72-.406 1.207-.708c1.536-.935 3.084-1.652 3.627-1.674m91.19.512c1.396.008 2.526 1.126 2.518 2.52s-1.128 2.52-2.524 2.513-2.526-1.126-2.519-2.52 1.128-2.505 2.525-2.513m-10.682.35c.574-.02 1.066.235 1.384.751.68 1.111-.041 2.477-1.683 3.21-.906.402-1.06.322-2.045-1.119-.667-.97-.648-1.14.076-1.764.818-.698 1.616-1.057 2.268-1.077m-88.626.227 36.157 23.375-1.037 1.748-35.063-22.908zm107.455.301c2.203.036 5.063 2.577 4.053 3.582a.73.73 0 0 1-.468.178c-3.132-.19-6.594-3.825-3.585-3.76m-8.147.036c-.885.001-1.61.717-1.61 1.6.002.882.719 1.606 1.603 1.605.885 0 1.61-.716 1.61-1.599-.001-.883-.718-1.607-1.603-1.606m-48.299.458.952 2.478-17.993 28.599-1.766-1.129zm48.303.254a.9.9 0 0 1 .9.898c.008.496-.402.892-.899.899a.9.9 0 0 1-.9-.898.89.89 0 0 1 .899-.899m6.605.295c.889 1.64 2.346 2.64 4.026 3.334-1.573 1.29-2.361 2.98-2.313 4.747-.406-2.64-.75-5.262-1.713-8.08m-95.138.862c.388.007.728.09 1.005.265 3.376 2.3.28 4.588-.011 4.413l-1.152-.731c.399-.66 1.298-1.543-.147-2.372-.816-.354-1.724.08-2.524.624l-1.212-.825c0 .015 2.366-1.386 4.041-1.374m79.538 1.312c.124.002.248.004.372.022 1.903.372 1.776 2.383-.21 3.31-1.126.54-1.326.427-2.322-1.277-.468-.782.934-2.013 2.16-2.055m-80.146.738c.202.003.463.178.491.349.1.528-.886 1.054-.886 1.054l-1.136-.747c.485-.255.988-.619 1.531-.656m101.432.48c.28-.026.48.101.551.443.393 1.57-1.362 4.468-2.968 4.937-.936.28-1.208-.159-.907-1.47.434-1.82 2.33-3.833 3.324-3.91m-58.333.122 2.928 2.124-17.575 27.707-3.042-1.8zm47.806.216c1.397.007 2.526 1.125 2.519 2.519s-1.128 2.521-2.525 2.513c-1.396-.007-2.526-1.125-2.518-2.519s1.127-2.505 2.524-2.513m0 .913c-.884.001-1.61.717-1.609 1.6s.718 1.607 1.603 1.606 1.61-.717 1.61-1.6c-.002-.882-.72-1.591-1.603-1.606m.004.713a.9.9 0 0 1 .9.897.9.9 0 0 1-1.8.001.89.89 0 0 1 .9-.898m-40.378.093c1.904 2.153 4.043 6.942 11.53 4.68 2.541 2.071 6.06 3.244 10.396.946l.034 12.931-33.208.04zm-60.65.331L58.544 170.8l-1.023 1.81-31.71-20.22zm91.803.012.078.001c1.67.415 1.859 2.075.312 2.715-.828.343-.997.263-1.8-.912-.319-.47-.499-.844-.45-.967.129-.277 1.395-.845 1.86-.837m20.998 1.771c.59.01 1.158.313 1.443.922.404.92.174 1.675-.672 2.188-1.395.844-2.953-.7-2.23-2.205.275-.615.87-.915 1.459-.905m-20.482 1.753c.776-.003 1.416.735 1.036 1.178-.253.29-.562.208-.973-.264-.472-.55-.497-.921-.063-.914m9.383.325c1.397.007 2.526 1.126 2.519 2.52s-1.128 2.52-2.525 2.513-2.526-1.126-2.518-2.52 1.128-2.52 2.524-2.513m7.105.133c1.908.016 4.54 3.187 4.093 4.93-.15.57-1.215.258-2.487-.707-1.716-1.33-2.816-4.228-1.606-4.223m-7.12.78c-.885.001-1.61.717-1.61 1.6.002.882.719 1.607 1.603 1.606.885-.001 1.61-.717 1.61-1.6.015-.898-.703-1.606-1.603-1.606m6.124.318c.518 1.542 1.066 3.13 3.437 4.253-3.675 1.705-4.39 4.589-3.83 8.284l-.86-.526c.783-3.316 1.389-7.084 1.253-12.01m-6.12.38a.9.9 0 0 1 .9.897c.008.495-.402.891-.899.898a.9.9 0 0 1-.9-.897.91.91 0 0 1 .899-.899m-.47 4.049c1.396.007 2.526 1.125 2.518 2.519.001.882-.446 1.65-1.136 2.102l-.813-.601a1.6 1.6 0 0 0 1.034-1.5c-.001-.884-.719-1.608-1.603-1.607a1.603 1.603 0 0 0-1.592 1.476l-.812-.617a2.52 2.52 0 0 1 2.403-1.772m11.493.313c1.195.004-.66 3.334-2.382 4.235-1.3.69-2.496.748-2.5.113.011-1.641 3.05-4.347 4.882-4.348m-11.49 1.297a.9.9 0 0 1 .901.898c.008.495-.402.891-.899.898-.496-.054-.892-.448-.9-.897-.008-.496.402-.892.899-.899m11.108 3.033c.59.01 1.175.267 1.43.766.316.64.197 1.227-.387 1.806-1.45 1.432-3.428-.041-2.483-1.853.257-.491.85-.73 1.44-.72m-4.647 1.363c2.016.064 3.558 2.567 3.192 4.001-.316.382-2.554-1.311-2.784-1.486-.301-.516-.32-1.321-.408-2.515m-2.757 1.55c2.164 1.444 4.269 2.733 6.33 3.805l-6.32 4.046zm-56.438 1.872 34.044.128.007 1.424-34.977.027zm-1.387 2.238 2.297.007v2.787l-3.15-.006-.006-1.533zm32.71.075 2.747-.002v2.788h-2.746zm-27.016.019 3.134.005v2.787l-3.134-.005zm6.517.014 3.383-.006v2.787l-3.383.006zm6.92.006 3.26.007v2.787l-3.259-.007zm6.967.037 3.104.005v2.787l-3.103-.004zm-28.345 3.435 37.753.096.003 1.673-38.84-.083zm32.218 3.52c3.85-.045 6.09 4.235 3.077 7.252-2.761 2.757-7.374-.772-5.072-3.878 1.285-1.729 4.443-.33 3.652 1.516-.516 1.215-2.214.645-2.161-.67.009-.527-.385-.162-.441.395-.058.711.673 1.497 1.527 1.511 2.234.006 2.562-2.946.408-4.035-1.924-.96-3.946.26-4.406 2.715-.05.263-.372.939-.613 1.415-.706 1.428-.937 2.245-1.29 3.865-.158.199-.66.531-1.004.696-1.095.54-1.045.308-.643-1.466 1.186-5.122 3.119-8.42 5.473-9.093a5.8 5.8 0 0 1 1.493-.223m11.37.265c2.376-.054 4.159 1.896 4.475 3.403 1.367 4.59-4.731 7.402-6.866 3.247-1.186-2.373 1.266-5.213 3.529-4.107 1.847.898 1.723 3.714-.155 3.698-1.025.045-1.646-.863-1.075-1.612.3-.29.638-.067.785-.545.066-.2-.227-.36-.927-.232-1.152.229-1.036 2.569.307 3.025 2.006.683 3.716-1.41 2.758-3.5-1.138-2.497-4.241-2.518-5.666.107-.208.384-.527.92-.702 1.165-2.111 2.861-2.274 3.292-2.905 4.892-.065.154-.176.276-.361.257-.59.006-1.15.12-1.541.285-.263-.067.08-1.067.112-1.144 1.408-4.437 5.112-8.836 8.232-8.939m-18.393 1.245c-.496.875-2.017 3.699-3.048 7.878-.276-.174-1.016-.48-1.556-.66-.201-.065-.042-.31-.052-.651.388-1.883 1.607-5.177 2.954-6.858.267-.228 2.115-.29 1.702.291m2.143.84c-1.284 1.637-2.63 6.012-2.915 8.268-.036.34-.105.711-.138.834-.197.678-1.461-.767-1.462-1.665.01-1.518 1.7-6.15 2.91-7.927.413-.613.477-.72 1.362-.752 1.443-.038.814.509.243 1.243m-63.046-1.085c-.326.01-.637.051-.949.123-1.87.465-4.09 2.441-4.311 4.528-.11.06-.351 1.528-.193 2.274.62 2.813 2.265 4.713 4.267 7.503 0 0-2.532 3.907-4.269 5.72l4.108 5.922c-1.14 2.242-3.107 3.929-3.603 6.692-.774 3.627 1.138 7.173 5.183 7.503 3.024.097 5.013-1.946 5.39-5.037.159-2.056-.698-4.641-3.75-8.702-.152-.204-.44-.627-.44-.627s.348-.397.523-.673c1.064-1.453 3.87-4.984 3.87-4.984l-4.186-5.891s.177-.4.51-.844c3.413-4.635 4.042-6.994 3.444-9.312-.233-.902-.811-1.608-1.574-2.38-1.22-1.258-2.638-1.855-4.02-1.815m-.103.57c1.335-.024 2.707.51 3.821 1.674 2.563 2.675 2.34 4.932-.986 9.88a61 61 0 0 0-1.45 2.283l4.203 5.783c-1.383 1.944-2.947 3.668-4.378 5.72.726 1.11 1.917 2.307 2.655 3.651.89 1.517 1.424 3.028 1.588 4.409.34 2.917-1.559 6.013-4.819 6.099-3.15.025-5.543-2.6-5.473-5.882.024-1.47.636-2.823 1.372-4.143.751-1.35 2.533-3.953 2.533-3.953l-4.061-5.92 4.3-5.737s-3.133-3.83-4.096-6.587c-.786-3.125.687-4.913.877-5.188.954-1.347 2.409-2.067 3.914-2.088m-2.667 8.303c.625 1.621 1.645 2.83 2.79 3.995 1.06-1.237 2.25-2.89 2.913-4.442 3.15-7.52-9.005-8.14-5.703.447m2.755 3.251c-1.537-1.79-2.63-3.28-2.73-5.635-.171-4.68 5.95-4.145 5.647.031-.348 2.27-1.55 3.707-2.917 5.604m75.926-7.357c.114.652.762 1.778.711 2.04-.29.692-.73 1.041-1.34 2.177-.128.245-.066.293-.406.225-.326-.051-.881-.215-1.175-.313-.17-.05-.37-.146-.289-.361.566-1.323 1.228-2.907 2.5-3.768m-10.166 2.015-.714 1.862c-.065.2-.081.231-.282.197-.419-.053-.775-.09-1.179-.05-.898-.108.786-3.44 1.043-3.947.356.052.906 1.486 1.132 1.938m.69.43h.047c.372.053.912.248 1.312.425.232.097.232.097.134.374-.209.415-.46 1.587-.732 2 0 .063-1.275-.748-1.63-.909-.027-.217.388-1.82.87-1.89m10.735.223c.42.023.94.388 1.216.609.136.265.007.527-.456 1.324-.415.706-.847 1.473-.954 1.394-.307-.238-.891-.557-1.18-.949-.212-.298.189-1.05.475-1.448.43-.659.65-.887.9-.93m-6.841-.097c.386.084-.22 2.072-.333 2.317-.366.552-.937 1.27-1.392 1.557-.235.151-.942-.279-.934-.774.006-.356.688-2.141.913-2.602.047-.061 1.327-.49 1.746-.498m-15.779.762.264.004c1.521-.037 3.076.701 4.073 2.375.468.797.467.828.362 1.57-.246 1.73-.157 2.908.29 3.969.524 1.216.44 1.633-.831 4.322-1.287 2.72-2.846 6.023-4.03 9.085-.518 1.308-1.008 2.802-1.308 4.02-.199.771-1.142.539-2.072.493-.467.1.687-3.086 2.395-6.898 1.37-3.044 3.242-6.482 3.982-9.892.604-2.777.406-3.926.084-5.093-1.294-3.397-5.761-2.573-5.751.571.09 2.03 2.447 3.122 3.302 1.123.14-.911-.304-.377-.684.066-.807.947-2.201-.113-1.977-1.503.295-1.838 2.679-2.45 3.819-.99 1.261 1.6.986 3.237-.835 4.476-1.885 1.379-3.594.592-4.533-.833-1.98-3.223.749-6.786 3.45-6.865m9.289 1.345c1.861.031 3.884 1.598 4.22 2.826.172.84-.092 1.826.205 2.636.253.655.495 1.03.315 1.6-1.54 4.93-5.15 10.182-6.954 16.022-.208.399-.395.458-.863.59-.717.204-.996.184-1.068-.189-.071-.357.173-1.034.581-2.297.506-1.51 1.605-4.109 2.261-5.321 1.521-2.84 2.36-4.777 3.456-7.206.209-.445.26-.723.581-1.368 1.38-2.796-.187-5.563-3.042-5.579-2.281-.006-3.286 3.539-1.302 4.578 1.954 1.023 3.395-1.647 1.672-2.59-.415-.223-.527-.008-.192.384.776.927.072 2.17-.99 1.672-1.663-.77-.81-3.59 1.127-3.42 2.991.252 3.385 4.594.325 5.69-4.2 1.51-6.4-5.232-2.452-7.49.658-.391 1.39-.55 2.12-.538m8.827.146c1.102-.028 2.26.363 3.222 1.277 2.352 2.253 1.72 5.711-2.239 12.428-1.294 2.255-2.565 4.944-3.249 6.915-.179.493-.323.738-.699.949-.689.375-1.465.425-1.57.16-.252-.686 1.712-4.927 5.204-11.575.914-1.781 2.081-3.837 2.023-5.944-.236-1.676-1.628-2.876-3.5-2.334-1.262.366-1.773 2.139-.841 3.037.382.378.86.571 1.17.545.574.025 1.235-.552.12-.617-1.18-.004-1.59-1.497-.586-2.162 1.444-.967 3.1.175 2.977 2.047-.249 3.774-5.764 3.218-5.917-.67-.115-2.419 1.79-4.013 3.885-4.056m-15.618 6.045c.839-.064-.601 4.434-3.12 9.472-1.366 2.796-2.409 5.783-3.481 8.707-.286.398-2.025.462-2.019.06 3.065-9.83 5.234-11.512 6.29-15.258.18-.647.32-1.574.337-1.667.795-.219 1.447-1.153 1.993-1.314m-56.868.657-3.251 4.236 3.184 4.497 3.299-4.297zm70.475 1.317c-.008.511-.98 2.942-1.702 4.416-3.195 6.42-3.984 8.157-4.524 9.867-.098.309-.257.507-.46.581-.39.149-1.496.363-1.602.206.668-3.752 5.837-12.292 6.83-16.023.404-.024 1.433.581 1.458.953m2.552-.391c.217-.012.309.067.242.36-.1.463-.662 1.553-1.625 3.457-2.678 5.268-4.096 8.388-4.541 9.99-.1.37-.166.68-.354.77-.376.194-1.657.715-1.725.157.412-2.378 1.974-3.932 6.033-13.853.191-.322.35-.49.536-.518.513-.084.952-.325 1.434-.363m-11.014 1.63c-.103.618-.807 1.891-1.964 4.272-1.943 3.948-3.186 6.885-3.943 9.49-.116.431-.294.862-.451.983-.314.212-1.725.158-1.725.158-.215-1.072 1.496-5.101 3.382-9.329 1.031-2.305 2.233-4.593 3.028-6.655.541.071 1.603.6 1.673 1.08m2.872-1.021c.574-.006.124.962-1.24 3.665-1.122 2.196-2.896 5.294-4.041 8.837-.308.785-.65 1.755-.78 2.155-.165.524-.324.785-.543.89-.407.21-1.415.193-1.598-.027-.273-.345 1.205-4.331 2.652-7.405 1.284-2.58 2.172-4.64 3.282-7.022.303-.475.319-.506.615-.563.636-.036 1.295-.459 1.653-.53m-64.826.51 1.67 2.242-1.965 2.445-1.636-2.38zm-.253 9.659s-.712.824-1.447 2.113c-2.138 3.557-2.197 6.189.322 7.748 1.062.544 2.46.428 3.326-.348 2.866-2.492.734-5.903-1.12-8.226-.47-.689-1.08-1.287-1.08-1.287m.11.9c1.065 1.256 1.856 2.214 2.575 3.79.818 2.135.293 3.814-1.302 4.593-2.52 1.244-4.8-1.55-3.603-4.535.875-2.2 2.33-3.848 2.33-3.848m70.38 4.211c.24.453-23.92 6.032-41.748 1.247L52.88 228.9l62.616-.113zm-.903 1.116s5.824 10.053 8.675 14.978l-4.02-.005-5.725-12.22a63.5 63.5 0 0 1-9.14 1.848l2.033 10.377-3.01-.003-1.699-9.907c-4.381.33-8.853.473-13.413.336l-1.974 9.568-3.15-.005 2.02-9.506c-3.469-.46-6.906-.904-10.435-1.488l-5.892 10.99-4.438.004 9.26-13.8c13.842 2.784 26.593 2.127 40.908-1.167m-2.2 5.399 4.543 9.583-8.596-.003-1.581-8.543zm-36.788.694 7.51.975-1.947 7.912-10.148.003zm24.53 1.179 1.036 7.697-12.942.004 1.444-7.549z"/>
    <path d="M48.014 26.452c-7.3 10.5-15.2 16.5-15.3 24.7 0 2.7 1.4 7.2 5.9 8 2.9.6 6.9-1.8 7-6.6 0-1 1-.9 1 .4-.1 3.8-1.3 8.2-3.3 11.8h9.6c-2-3.6-3.2-8-3.3-11.8 0-1.3 1-1.3 1-.4.1 4.8 4.1 7.1 7 6.6 4.5-.9 5.9-5.4 5.9-8-.2-8.2-8.1-14.2-15.5-24.7M130.514 222.953c-7.3-10.5-15.2-16.5-15.3-24.7 0-2.7 1.4-7.2 5.9-8 2.9-.6 6.9 1.8 7 6.6 0 1 1 .9 1-.4-.1-3.8-1.3-8.2-3.3-11.8h9.6c-2 3.6-3.2 8-3.3 11.8 0 1.3 1 1.3 1 .4.1-4.8 4.1-7.1 7-6.6 4.5.9 5.9 5.4 5.9 8-.3 8.2-8.1 14.2-15.5 24.7"/>
</svg>
