<svg xmlns="http://www.w3.org/2000/svg" xml:space="preserve" width="178.6" height="249.4" viewBox="0 0 178.6 249.4">
    <path fill="#fbfbf6" stroke="#7f7f7f" stroke-width=".4" d="M3378.4-1088.5h160.8c4.7 0 8.5 3.8 8.5 8.5v231.6c0 4.7-3.8 8.5-8.5 8.5h-160.8c-4.7 0-8.5-3.8-8.5-8.5V-1080c0-4.7 3.8-8.5 8.5-8.5z" transform="translate(-3369.501 1088.87)"/>
    <path d="M164.489 209.168c3.1-.1 4.5-3.7 2.2-6.6-.3-.4-.4-.7.2-.3 1.6 1.1 4.5.4 4.7-2.9.2-4.1-5.3-5.3-6.3-.9-.1.5-.4.4-.3-.2.1-1.8.6-3.4 1.4-5h-3.7c.7 1.6 1.3 3.3 1.4 5 .1.7-.3.7-.3.2-1-4.4-6.5-3.2-6.3.9.2 3.3 3.1 4 4.7 2.9.6-.4.6-.2.2.3-2.5 2.9-1 6.6 2.1 6.6M14.089 40.268c-3.1.1-4.5 3.7-2.2 6.6.3.4.4.7-.2.3-1.6-1.1-4.6-.4-4.7 2.9-.2 4.1 5.3 5.3 6.3.9.1-.5.4-.4.3.2-.1 1.8-.6 3.4-1.4 5h3.7c-.7-1.6-1.3-3.3-1.4-5-.1-.7.3-.7.3-.2 1 4.4 6.5 3.2 6.3-.9-.2-3.3-3.1-4-4.7-2.9-.6.4-.6.2-.2-.3 2.5-2.9 1-6.5-2.1-6.6M8.29 29.068h-2.2v-3h2.2s0-1.6.1-4.5c.1-6.1.3-7 2-8.7 3.499-3.3 9.299-.6 9.199 4.4-.1 7 0 13.7-.2 14.6-.4 1.7-.4 1.8-.3 2.1.3.6 2.9.9 2.9.7v3c-2 .2-2.8 0-4.4-1.2-1 1-4 1.9-6.5.8-1.8-.9-3.1-3.2-2.8-8.2m7.499 5.2c-1.1-1.6-2.9-3.7-4.6-4.5-.1 1.8 0 3.3.7 4.1.9 1.4 2.5 1.7 3.9.4m.9-17.3c-.8-2.3-2.9-3.1-4.4-1.6-.9.9-1.1 1.8-1.1 6.9v4.5c3 1 5.7 4.4 5.7 4.4l.1-9.5c-.1-1.6-.1-3.2-.3-4.7M170.289 220.368h2.2v3h-2.2s0 1.6-.1 4.5c-.1 6.1-.3 7-2 8.7-3.5 3.3-9.3.6-9.2-4.4.1-7 0-13.7.2-14.6.4-1.7.4-1.8.3-2.1-.3-.6-2.9-.9-2.9-.7v-3c2-.2 2.8 0 4.4 1.2 1-1 4-1.9 6.5-.8 1.7.9 3.1 3.2 2.8 8.2m-7.5-5.2c1.1 1.6 2.9 3.7 4.6 4.5.1-1.8 0-3.3-.7-4.1-.9-1.4-2.5-1.7-3.9-.4m-.9 17.3c.8 2.3 2.9 3.1 4.4 1.6.9-.9 1.1-1.8 1.1-6.9v-4.5c-3-1-5.7-4.4-5.7-4.4l-.1 9.5c.1 1.7.1 3.2.3 4.7"/>
    <path fill="#d40000" d="M95.554 228.432c.438-6.514.067-13.5.364-18.8-.205-.37.526-1.404.557-1.405-.427-.787-.573-2.805-.036-4.597 4.245-16.234 11.934-28.872 19.85-40.642 6.435 19.47-13.775 33.133-18.027 50.144-1.42 5.888-1.204 10.002-1.748 15.32zm-33.619.236-24.04-37.293 5.217-2.56L67.83 228.54zm31.107-69.086c.213 1.069 1.055 1.65 1.947 1.158.877-.475.97-.508.437.337-1.202 1.862 1.232 3.668 2.792 2.066.551-.565.65-1.498.149-1.959-.563-.537-.69-.8.15-.405 2.098.862 3.256-2.196 1.218-3.23-.53-.258-1.548-.029-1.93.38-.459.486-.538.316-.403-.058.075-.219.132-.592.298-1.013.135-.344.239-.795.239-.795l-2.15.024s.175.495.35.912c.159.387.224.681.303.851.285.587-.057.374-.635-.07-.827-.612-1.846-.446-2.44.369-.243.453-.423.937-.325 1.433m3.099-30.327 4.624-.145 5.077 14.08c-4.072 6.787-5.163 14.427-.435 22.187l-14.652.024c3.444-11.689 3.972-24.075 5.386-36.146m4.845 18.323c.612-.55.694-1.561.13-2.238-.706-.847-.552-.895.398-.331 1.37.792 2.697-.931 1.876-2.46-.522-.973-2.18-1.187-2.82-.326-.533.72-.479.068-.056-.9.15-.359.36-1.014.36-1.014l-2.243.04s.285.635.445 1.052c.414 1.083.418 1.425-.209.733-1.374-1.15-2.974-.324-2.986 1.338.014 1.274 1.168 2.084 2.167 1.498.615-.364.892-.445.19.386-.471.798-.305 1.806.319 2.28.888.518 1.816.477 2.429-.058m-30.974 4.385c.185-.126.247-.05.141.138-.091.157-.336.377-.535.597-1.04 1.16.308 2.653 1.992 2.416 1.143-.152 1.82-1.962.976-2.682-.28-.184-.498-.212-.702-.474-.016-.093.03-.171.138-.126.156.06.452.306.608.35 1.07.284 1.87-.145 2.14-.909.176-.872.01-1.818-.706-2.307-.655-.443-1.644-.323-2.208.445-.58.783-.665.038-.182-1.04.182-.405.299-.981.299-.981l-2.057.116s.114.45.29.96c.461 1.175.79 1.498.195.899-2.523-1.495-3.351.534-3.389 1.342-.091 1.524 2.115 2.385 3 1.256m10.067-22.839 3.713.005c-2.804 14.96-8.545 27.483-18.197 36.103l-18.18-.06-8.764-6.147 3.386-4.419c23.08 2.398 32.917-9.083 38.042-25.482m-16.712 34.673c1.093-.478 1.543-1.71.822-2.541-.642-.754-.722-.986.29-.408 1.34.778 2.637-.775 1.97-2.305-.413-.959-1.7-1.24-2.621-.592-.813.615-.801.335-.378-.617.211-.469.373-1.247.373-1.247l-2.274.025s.16.542.335.913c.38.85.524 1.252.338 1.255-.077 0-.374-.26-.53-.414-.454-.414-1.692-.494-2.151-.054-1.363 1.305-.595 3.595 1.133 3.172 1.127-.276 1.37-.699.453.352-1.162 1.303.608 3.178 2.24 2.46m-14.38-.46c.94-.446 1.252-1.537.734-2.246-.534-.708-.787-1.172.149-.53 1.26.639 2.35-.212 2.333-1.641-.016-1.507-1.695-2.203-2.923-1.304-.215.158-.46.285-.507.286-.155.001.13-.81.418-1.34.137-.235.364-.704.364-.704l-2.276-.083s.131.62.307 1.1c.366.974.447 1.3-.178.747-1.72-1.612-3.538.443-2.822 2.206.382.99 1.542.993 2.233.503.63-.488.311.152-.116.67-1.176 1.426.53 3.163 2.285 2.335m104.023-37.498.123 2.764-29.433 24.624-1.228-1.897zm-109.471 5.185c4.237-3.03 8.958-8.458 13.599-11.29 3.398 7.838-4.578 15.523-13.599 11.29m77.376-1.44c-3-16.588 14.755-13.12 13.812-11.65zm-95.282-10.15 29.133-23.845 1.322 2.005-30.726 25.276zM105.45 95.38c.08.247.957 1.2.958 1.278-.25-.183-1.745-1.036-2.478-.205-.26.298-.577 1.016-.538 1.761.309 1.333 1.815 1.798 2.888.885.306-.268.566-.581.629-.473.047.092-.118.56-.253.919-.15.374-.745 1.158-.312 1.153l2.073-.008s-.082-.48-.32-1.021c-.46-1.005-.45-1.549.114-.825 1.083 1.417 3.19.229 2.97-1.462-.153-1.226-1.398-1.926-2.305-1.341-.092.063-.383.346-.429.362-.108 0 .196-.469.393-.844.667-1.28-.322-2.482-1.852-2.34-.494.036-1.032.353-1.032.4-.583.441-.667 1.25-.506 1.76m25.164-11.963c2.908 2.686 5.838 4.672 8.75 6.395l-2.751 4.365c-18.648-1.749-32.213 5.657-37.87 25.713l-3.072.594c1.16-12.518 5.34-24.93 17.676-37.06zm-17.868 2.996c.006.59 1.097 1.292.852 1.466-.108.063-.764-.504-1.058-.532-2.154-.224-2.596 3.136-.472 3.5.418.073 1.282-.185 1.543-.405.337-.284.582-.52.644-.489.124.045-.163.639-.406 1.092-.212.406-.527 1.264-.527 1.264l2.444.004s-.225-.759-.447-1.284c-.286-.68-.337-1.115-.151-1.07.077.014.173.23.345.384 1.062.92 2.62.53 3.022-.904.388-1.34-1.221-2.72-2.327-1.978-.384.269-.386.067-.006-.528.35-.532.263-1.354-.051-1.832-1.143-1.23-3.47-.334-3.405 1.312m17.559 3.982c-.066-.294.013-.218.326.12.986 1.03 2.67.872 3.104-.5.434-1.356-.883-2.91-2.022-2.37-.6.271-.601.178-.266-.26.885-1.145-.091-2.656-1.592-2.64-1.377.016-2.182 1.345-1.52 2.488.269.463.193.572-.29.329-1.4-.683-2.721 1.553-1.685 2.877.612.786 2.005.863 2.801.093.429-.409.415-.222.116.636-.27.748-.573 1.342-.573 1.342l2.429.02c.015-.016-.633-1.267-.828-2.135m-52.088 30.004c.71-.179-2.498-10.38-4.853-14.936 2.682-6.43 6.342-12.67.174-21.936l14.961-.043c-4.602 10.537-4.71 37.086-5.792 37.16zm1.308-11.805s-.738-1.017-.778-1.84c-.083-.527.04-.56.324-.019 1.332 1.476 3.142.058 3.143-1.262.157-1.198-1.247-2.223-2.138-1.623-.63.426-.801.304-.237-.479.792-1.096-.075-2.531-1.483-2.515-1.84.02-2.533 1.737-1.22 2.965.97.905.066.372-.711.054-1.508-.635-2.497.898-1.814 2.46.46 1.066 1.825 1.346 2.636.483.443-.471.842-.755.603-.038-.133.576-.8 1.81-.8 1.81zm2.327-16.182s-.894-1.108-1.043-1.96c-.05-.31.168-.236.668.21 1.609 1.38 3.825-1.1 2.323-2.62-.517-.523-1.044-.673-1.644-.355-.754.396-.694.21-.312-.199.55-.596.508-1.683-.086-2.22-1.641-1.458-4.232.715-2.714 2.283.658.676.347.586-.385.16-1.386-.824-2.908 1.445-1.872 2.77 1.234 1.042 2.141.535 3-.127.185-.095.339-.144.34-.066.002.155-.843 2.153-.843 2.153zm-19.626-6.289c-.914-.067-1.566-8.62-.451-11.335 2.38-11.444 9.637-19.774 14.154-26.784 7.25-10.442 6.345-27.768 6.662-27.073l1.023.113s-.8 10.168-.347 14.746c.462 4.034.372 4.283.083 4.69-.074.374.032 1.476-.042 1.85-3.222 14.948-10.927 30.32-18.875 41.92zm74.55-26.108-24.49-38.763 5.89-.532c2.188 3.47 23.459 36.6 23.459 36.6z"/>
    <path fill="#e2cf00" d="M35.95 229.363c2.78-10.253-4.757-34.091-9.48-37.208 5.537-.232 12.176-.136 11.969-.646 0 0 23.512 37.128 23.313 37.332-.168.188-25.802.522-25.802.522m95.299-58.139c-5.703-.806-3.45-5.569.21-6.06-.478.083.392-2.366 3.352-3.346.667-1.22 1.201-3.307 1.81-4.277-1.774.579-3.923 2.079-11.966.895.7-3.83 8.398-4.475 11.174-3.884 1.598.37 3.187 2.776 3.667 2.817 4.942-.832 11.227 3.665 9.328 8.222-.302.656-1.045-.765-2.707-1.383-5.375-1.96-5.748-4.876-6.985-6.183-.45-.088-2.826 4.646-2.826 4.646l.747 3.207c1.283-.123 7.016 3.432-.12 5.842-1.983 6.81-5.703 2.006-5.684-.496m13.494-30.489c-.298-.307.236-2.441.965-3.661.395-.657 1.287-1.102 1.83-1.015.945.16.79 1.545-.45 5.567-.054.606-1.338.667-2.345-.89M31.28 112.52c-1.563.002-.156-4.27.804-5.632.32-.423 1.568.48 1.621 1.1.105 1.102-1.585 4.973-2.425 4.532M30.17 83.483c1.908.46 4.915 2.384 6.366 3.455 1.795 1.347 1.298 3.978 2.74 4.21.969-.476 2.746-4.8 2.746-4.8s.44-2.21-.82-2.895c-3.145-1.704-3.088-3.538-2.889-3.696.933-2.418 2.779-1.988 3.783-2.124.016-1.32-.015-4.131 2.711-3.836 2.386.222 2.625 3.653 1.62 3.695-.017-.062 4.526-.657 4.482 2.358-.029 1.63-2.713 3.711-3.557 2.96 0 0 .454 3.257-3.619 4.359-.948.973-1.722 5.099-1.726 4.741 2.45-2.217 6.297-2.742 12.356-1.94-3.76 6.986-14.147 3.716-14.95 2.373-5.233-1.603-10.145-3.661-9.243-8.86M74.9 66.734c5.53.498 11.575-1.232 16.165-.32.527.072 1.092.842 1.404 1.025 2.381 1.294 4.868.893 8.69-.563.939-.352 18.47-.222 18.47-.222 3.996 5.92 11.098 17.072 11.248 16.682 0 0-9.718-.109-14.186.159-3.154.19-1.293.62-3.489.707-15.313 11.557-18.224 36.507-18.224 36.507s4.86-1.282 6.143.055c6.024-17.683 17.446-25.748 33.384-24.171 7.373.725 16.15 8.006 16.15 8.006l-15.763 12.883c-12.214-6.186-17.443 12.048-13.745 12.084l31.739-26.048s.55 2.122.489 2.2c-2.257 2.977-40.1 33.816-40.1 33.816l-1.661-1.846s-1.042.928-1.592 1.556c-.05 1.01.299 1.86 1.066 2.66-7.5 6.033-7.747 17.127-2.219 23.17 0 0-2.442.168-2.705.217-3.12.532-6.339-14.888-.167-22.056-3.116-6.133-5.034-14.469-5.426-14.868.089.978-4.913.66-4.913.66-.387 12.463-1.675 24.688-4.655 36.45l22.967.488-9.776 17.042s-10.973-.281-15.695-.601c-4.937-2.881-7.775-.69-12.405.371-6.589.198-16.293-.113-16.292-.02-3.291-6.565-6.826-11.388-11.638-17.004-.615-1.018 19.506-.389 19.506-.389s10.058-15.273 11.882-19.581c1.432-3.387 4.654-15.633 4.654-15.633.146.635-1.83-3.195-6.424-3.097-3.804 25.378-33.849 33.932-51.916 17.59l-.172-2.95 39.837-32.445 1.756 2.062c-.375-.307-24.459 19.8-24.058 19.686 7.128 3.742 15.388.714 14.431-11.594 5.648-4.102 10.655-8.88 15.583-13.767.106-.187 5.488 12.133 5.36 14.496 3.098-1.045 4.932 1.14 4.866.769-1.116-7.134 5.099-34.14 5.219-37.248-3.454-.272-8.032-.158-15.214-.435 5.771 11.213 3.767 18.8-4.295 25.695l-1.664-2.125c.685.38 11.78-9.25 2.848-23.644-.402.035-4.708-.383-4.708-.383s8.803-14.048 9.245-16.026m42.793-46.32s25.136-.607 25.144.139c-.809 13.555 2.346 25.931 9.946 37.373 0 0-11.13-.404-10.927-.25z"/>
    <path fill="#131f67" d="M154.6 19.458H23.982l-.002 210.52h130.617zm-12.29.914c-.017-.015-1.688 22.28 9.893 36.877-7.083-1.07-11.125.015-15.254 2.935l.563.584c5.67-3.496 10.492-2.587 15.419-2.036l-.007 28.676c-.031 1.399-5.902.765-9.522-1.96-1.713-1.021-3.934-3.156-4.926-4.76-.3-.494-.615-.972-.709-1.08-.329-.384-2.398-4.245-6.177-11.55-1.93-3.722-4.476-8.789-6.547-12.711-1.343-2.549-3.826-7.352-4-7.738-.365-.804-3.07-6.102-4.127-8.032-2.78-5.095-7.289-14.008-8.887-17.19-.35-.835-.895-1.202.065-1.182.216.014.433.027.557.04.171.092.384-.299.384-.299zM25.778 140.962l.006-2.252 38.053-31.447 1.209 1.57zm36.863-55.077c-.154.064-.324.113-.509.177-.977-4.37-.422-10.201.736-14.595 1.665-6.092 4.798-10.974 8.287-15.89C79.123 44.364 82.65 35.92 82.499 20.87l1.13.127c-.05 2.378-.355 4.168-.444 7.338-.148 3.388-.089 5.966.273 9.286.173 1.63.278 2.684.017 2.89-.123.11-.24.67-.13.87l-.078 1.353c-1.834 8.952-11.605 31.944-20.625 43.151m4.744 20.375-2.008-2.479s-1.546-1.256-.154-2.67c4.024-4.1 4.044-9.303.155-13.982-.254-.588 1.213-3.602 1.213-3.602l3.064.043c4.768 5.85 6.059 16.15-2.27 22.69m2.806-23.146c.089-.405-4.536-.245-4.536-.245 2.877-4.304 5.319-8.727 7.73-13.166C77.117 62.98 82.278 51.21 83.9 42.68c1.21 9.975 2.967 24.79 11.468 25.38 2.787.185 6.015-1.73 6.545-1.41l17.668-.135c3.624 7.369 7.514 12.125 12.135 17.169 3.316 1.89 7.356 3.397 11.266 4.379 2.218.55 2.43.19 6.8.81 1.163.173 2.921-.328 2.906-.328-3.497 2.773-7.529 1.98-11.967.802-.248-.06-.512-.15-.776-.24l-3.348 5.07c-7.462-1.78-31.43-.518-37.746 25.65 0 0 .654.334.497.15 5.024-22.706 26.217-27.23 36.315-24.982l-.868 1.33c-16.779-2.064-30.417 8.465-33.67 23.399l.327.291c6.28-22.564 32.737-30.922 49.126-15.276l3.008-2.146-.091 2.89-40.316 33.912-1.612-1.675s-.292.22-.598.488c-1.043.866-1.458 1.088-1.159 1.566.284.479 1.426 1.584 1.473 1.708-6.685 5.465-8.811 16.021-2.448 23.407.705.784.584.987.45.103-5.7-6.227-4.972-17.25 2.134-22.455l1.413 1.895c-3.126 6.901-4.801 17.654 3.425 18.587 2.95 7.936-.442 17.326-4.225 23.628-4.004 7.253-8.873 13.288-11.91 21.198-1.48 3.294-3.817 13.076-3.703 20.562l-.882-.006c-.003-3.044.205-6.666.226-8.981.122-11.28.114-10.611.358-10.894.077-.094.323-.19.338-.267.03-.125-.19-.356-.27-.634-.08-.279-.24-.774-.215-1.194.011-.42.407-1.03.328-1.169-1.771-6.225-1.91-17.408-7.63-22.532-2.797-2.423-6.527-2.521-11.347-.526-10.63.026-9.06.568-17.653.073-3.554-6.531-7.864-12.898-12.527-17.6-2.178-2.445-5.21-3.778-8.06-5.549 1.136-2.171 2.433-3.77 3.86-4.796.29-.423.501-.876.869-1.237 28.98 2.783 35.258-25.373 33.935-24.66l-.26.221c-7.91 29.013-36.096 27.961-50.253 15.412 0 0-2.008 1.747-2.014-.163-.003-1.74.625-2.244.625-2.244l39.774-32.554c.733.458 1.508 2.018 1.831 1.843.738-.396 1.813-1.17 1.777-1.635-.02-.357-1.453-2.625-1.453-2.625 10.63-11.054 5.841-16.003 2.415-23.576m15.078-62.12c.185-.001.372.09.514.306.236.385-.73 2.633-1.313 3.028-.568.379-.604-.056-.195-2.235.101-.638.576-1.094.994-1.098m58.33.063 9.346.004.007 35.48c-6.885-9.71-10.443-20.87-9.352-35.484m-55.853.065c.232-.002.434.058.497.228.24.603-1.11 3.181-2.787 5.328-.87 1.113-1.3 1.428-1.581 1.167-.222-.51-.229-1.1.58-2.026.658-.768 1.783-2.552 2.236-3.535.21-.593.405-1.123 1.055-1.162m9.455.128c.263-.003.541-.006.62.132 1.615 3.291 4.634 6.256 7.73 7.852.452.259.242.898.387 1.363-3.487-.52-8.044-5.472-9.26-9.078-.02-.294.244-.282.523-.27m5.43-.015c.689.707 1.781 1.565 2.023 2.37.144.496.259 1.07.154 1.334-.6.38-3.61-3.113-3.49-3.534a1.56 1.56 0 0 1 1.313-.17m-13.028-.04c.294.012.743-.009.807.224.373 1.518-3.089 7.475-5.623 9.15-.906.6-.954.446-.888-.565.054-.668.117-.622 1.035-1.503 1.317-1.257 2.765-3.215 3.55-4.948 1.028-2.217.779-2.355 1.12-2.358m2.368.02c.325-.004.635.117.73.256.11.2-.04.528-.145.918-1.14 3.244-3.981 7.92-7.325 10.583-1.304 1.009-1.52.996-1.61-.044-.052-.605.224-.78.838-1.206 2.84-1.973 5.387-5.388 6.462-8.895.209-.686.125-1.291.494-1.497.138-.08.355-.113.556-.115m17.577 5.629c.142.231 1.102 1.758.307 1.177-.328-.26-.924-.937-1.864-2.014-2.225-2.539-2.3-2.382-2.246-3.02.022-.823-.565-2.168.707-1.825 1.239 1.477 2.023 3.845 3.096 5.682m-10.15-5.572c.248-.003.557.04.806.1 1.47 2.764 5.055 5.209 5.04 5.194 0 0 .09 1.21-.047 1.414-.073.373-5.69-3.913-6.323-6.485.06-.172.261-.22.524-.223m-4.007.044c1.311 2.44 4.034 7.955 10.433 10.183.465.103.944 1.419.592 1.78-3.508-1.017-9.859-4.473-12.03-11.92.23-.205.787-.18 1.005-.043m-1.712.47c-.217.002 3.013 9.38 12.25 12.182.792.255 1.26.591 1.219 1.073-.071.592-.04.669-.926.228-2.521-1.323-6.102-1.935-9.102-.41-.462.238-.95.895-.559 1.295.22.215.744.054 1.422-.202 3.481-1.36 8.828-.565 9.765 1.584.666 1.515.787 2.647.418 2.822-.277.143-.747-.364-1.59-1.1-2.657-2.332-5.82-2.98-8.348-.746-.552.488-1.079.4-1.278.605-.183.188.038.636.182 1.054.16.449.177.573.01.947-.226.516-.234 1.184-.198 1.665.06 1.195.845 2.227 3.122 3.802 1.761 1.223 3.146 1.922.992.175-3.716-3.018-4.38-4.254-1.985-3.209 2.409.968 5.74-.002 8.102-1.815.805-.009 1.283-.154 1.704.152 1.763 4.144 3.202 9.673 5.536 15.022-2.797 3.17-12.52 10.936-19.455 10.657-5.99-.244-8.11-10.085-9.424-15.523-.443-2.294-.95-4.65-.892-7.896 0 0 .107-.095.262-.066 1.008.191 2.727.327 3.606.116 1.59-.376 1.911-.659 2.007-.427.111.279-.547.907-1.714 1.697-.507.347-1.969 1.063-1.813 1.154.358.23 2.127-.707 2.418-.959.46-.393.785-.428 1.004-.197.266.26.31-.02-.55 2.118-.948 2.357-.852 2.573.99 4.028.64.506 1.233 1.012 1.375 1.228.173.293.3.633.38.741.313.416.12-.25-.062-1.335-.21-.79-.992-1.59-1.538-1.971-1.014-.704-.851-1.389-.011-3.79 2.459-7.065 1.836-10.227-.873-11.75-1.23-.686-4.648-.508-5.72.39-.537.44-.454-.43-.378-.493 6.465-4.437 7.996-8.71 9.652-12.846m12.54 3.464c1.846 1.843 4.148 4.334 5.53 6.105.753.955 1.166 1.913 1.765 2.916.11.185.236.386.144.465-.03.031-.295-.121-.436-.228-1.357-1.026-6.936-7.41-6.936-7.41-.26-1.038-.433-1.394-.067-1.848m1.116 4.337s4.84 5.305 7.607 7.915c.539 1.143 1.594 2.81 1.566 3.09-.014.124-.591-.32-.591-.32-3.065-2.84-5.885-6.008-8.827-9.036.031.015-.23-1.255-.236-1.752.059-.28.356-.004.48.103m10.486 13.584c.646 1.064 1.12 2.022 1.437 2.64.522.988.336 1.022-.116.654-3.467-2.85-6.352-6.314-9.621-9.477-.423-.43-1.269-1.415-1.269-1.415.031.03-1.062-2.287-.38-2.233.543.212.89.798 1.235 1.167 1.722 1.83 4.975 4.993 8.714 8.664M87.629 35.6c1.423-.047 2.835.326 3.54 1.204.644.8.906 2.071.554 2.432-.23.236-1.01-.423-1.01-.423-3.363-1.889-4.514-.975-6.349-.426-.262.08-.533-.631-.2-1.319.668-1.157 2.367-1.44 3.465-1.468m21.155 1.783c3.599 3.626 7.248 7.64 11.135 10.75.547.46.922.766 1.172 1.012.506 1.02 1.694 3.46 1.694 3.46-4.164-2.92-13.56-13.02-13.465-12.944.108.045-.779-1.84-.536-2.278m-7.033.607c.65-.007 1.379.202 1.938.429 1.819.725 2.957 1.49 1.082 1.23-2.604-.359-3.501-.38-4.459-.214-1.776.284-1.913.488-2.07.194-.411-.74 1.528-1.617 3.509-1.639m-14.82.212c.65-.007 1.363.14 2.062.443 2.208.97 2.602 1.602.726 1.297-.976-.16-2.77-.14-4.051.185-.402.098-.863.336-.97.384-.463.145-.576-.196-.38-.772.313-.983 1.36-1.538 2.612-1.537m16.03 2.835.464.041c-.567 3.253-3.805 2.932-4.671.146l.464-.005c1.685 2.653 2.952 1.085 3.742-.182m1.796.166c1.485-.016 1.402.886-.154 1.493-1.186.464-1.326.372-.887-.518.408-.859.376-.967 1.04-.975m-15.378.11c.14 2.934-3.923 3.461-4.16.264l.387-.02c1.328 2.502 2.874.993 3.355-.255zm1.799.415c.452.321.178.743-.82 1.36-.907.57-1.131-.111-.384-1.067.307-.299.814-.553 1.204-.293m7.055-.017c.185-.064.596.74.243.93-.216.11-.529-.212-.562-.445-.034-.201.073-.404.32-.485m12.148.19c2.71 3 5.436 6.014 13.414 12.526 0 0 1.121 2.007 1.377 2.797-.198.235-.291.205-.851-.068-5.197-4.028-10.048-8.945-13.828-13.5-.177-.635-.586-1.252-.112-1.754m-25.835.305c.31-.004.734.675.507 1.097-.2.158-.512-.087-.637-.272-.126-.185-.13-.527-.039-.683.045-.11.107-.141.169-.142m26.967 4.141c-.016-.108 12.597 12.737 14.219 12.502.747.442 2.63 4.102 2.63 4.102.047.124.05.326-.262.174-2.131-1.063-11.064-8.498-15.612-14.024-.334-.82-.732-1.84-.975-2.754M96.511 48.24c2.193 1.063 1.258 3.264-1.063 1.86-1.838-1.113-3.278-1.221-3.267-.258.004.404.505.926.985.921.898.052 1.722.385 2.621.592 1.38.295 2.429-.074 2.775-.916.588-1.436-.807-3.005-1.734-2.917-.943.088-.706.536-.317.718m17.43 3.502c-.157-.138 6.28 6.936 15.041 12.788.345.4 1.188 2.441 1.33 2.703-.03.187-.232.003-.232.003-4.423-2.576-10.282-7.668-15.807-13.447 0 0-.54-1.283-.69-2.12.109-.048.249.028.357.073m-14.609 2.556c-.2.033-.46.331-.799.506-.676.38-.892.476-2.538-.034-.9-.27-1.04-.252-1.576.142-.476.347-.723.412-1.252.17-.948-.425-1.378-.11-2.256.196-.833.304-1.115-.066-1.86-.244-.093.001-.136 3.031-.043 3.123.032.03.784-.459 1.2-.666.723-.365.615-.317 1.683-.267 1.566.278 3.112.183 4.16-.233 1.295-.372 2.317-.305 3.223.446.547.444 1.273.374.846-.445-.142-.278-.479-1.33-.437-1.735.055-.59-.072-.962-.29-.975-.03.016-.045.016-.06.016m16.69 2.361c2.956 2.856 6.609 7.196 15.19 12.242.442.787 1.057 1.837 1.438 2.656.033.233-.026.435-.244.344-5.298-3.373-8.256-5.018-15.609-12.3-.457-.74-.95-1.992-1.317-3.014.074-.296.417-.004.542.072m-1.257 1.086 3.287 6.192-11.063-.016c2.813-1.693 5.496-3.93 7.776-6.176m-18.333.143c-1.818.72-2.094.878-3.894.432-1.055-.253-.754.35-.225.608 1.353.637 3.328.196 4.05-.31.492-.315.824-1.034.07-.73m-1.866 1.9c-1.903.022-3.69.694-3.837 1.472-.029.156.128.325.42.135 1.29-.775 4.49-1.028 6.914-.154.388.135.463-.099.057-.436-.89-.751-2.255-1.031-3.554-1.017m24.135 2.65c3.58 3.316 7.033 6.369 14.74 10.803.556 1.221 1.361 2.672 1.502 2.795-7.218-3.523-15.093-10.456-15.093-10.456s-1.247-2.208-1.52-3.168c-.02-.31.277-.05.37.027m2.47 5.162s6.592 5.596 14.107 9.396c.298.291 1.06 2.1 1.31 2.284.25.2-.292.19-.837-.084-3.934-1.82-12.37-7.644-12.37-7.644-.818-1.311-1.963-2.697-2.21-3.952m-78.88 23.39c.604-1.295 1.222-2.731 1.612-3.9 1.795.01 2.67-.652 3.31-1.467.913-.026 1.609-.018 2.846-.063-.044-1.227.014-2.967.014-2.967 1.254-1.303 2.104-2.789.16-5.097 0 0-.074-1.071-.11-2.888-.899-.146-2.909-.045-2.909-.045-1.619-2.297-4.506-1.72-5.384-.002 0 0-1.3.076-2.181.07-.026.482-.172 2.643-.172 2.643s-3.793 2.59.14 5.653l-.049 2.564c.728.054 1.27.017 2.23.192 0 0-1.508 3.513-2.495 5.17-.34.082-.264-.106-.664-1.266-.495-1.377-1.61-2.872-2.547-3.607-1.28-.995-3.031-1.302-4.247-2.158-1.17-.826-2.002-1.904-2.387-1.698-.119.421-.262 2.815.188 4.348.631 2.525 4.254 4.146 7.285 5.355.234.153.437.384.438.461.005.42-.399.285-1.39.187-1.503-.154-2.117.257-2.644 1.552-.151.312-.532.86-.838 1.22-.305.361-.626.722-.67.878s-.362.936-.664 1.592c-.196.406-.501.829-.526 1.42-.072 1.818-.092 4.257.173 5.792.198 1.132 1.613 1.784 2.11 1.872.744.147.891.906.775 1.529-.585 3.082-2.344 4.966-2.912 3.962-.142-.262-.31-1.518-.341-1.518-.031.016-.298 1.075-.2 1.509.113.465.705.8 1.29.591.863-.32 1.55-1.166 2.085-3.13.224-.795.435-1.247.806-1.298.681.054 1.75 1.456 1.75 1.456-3.542 2.96-10.352 8.349-10.352 8.349l.005-97.182 55.932-.004c.318 7.701-.615 14.267-3.37 21.133-3.26 7.4-8.336 12.893-12.222 19.694-4.736 8.224-6.235 16.738-4.64 25.31-4.788 6.284-8.808 9.311-12.644 12.228 0 0-2.865-3.028-4.462-4.72 0 0 .68-.054 1.454-.093 3.631-.414 7.571-.924 9.091-4.731.212-.422.133-.607-.13-.667-2.843.39-5.323-.002-6.931.109-3.942.293-5.614 1.663-5.614 1.663m.433 2.808s-4.573-2.186-4.914-2.245c-1.985-.366-6.794-2.875-7.601-4.575-.111-.216-.378-3.336-.462-3.971.028-.203.106-.204.309-.05.514.351 2.509 1.65 3.24 2.014 3.034 1.473 4.206 2.531 4.958 4.76.192.557.384 1.145.493 1.253.25.261.343.244.65.008 1.297-1.692 1.915-3.097 2.514-4.906.075-.203.243-.406.147-.7-.24-.806-.825-1.84-.23-2.623-1.902.083-3.713-1.31-3.48-2.71.512-2.585 1.6-2.116 3.654-2.496-.236-5.994 5.35-4.534 5.334-.37 6.133.521 3.24 6.208-.327 5.347 1.412 3.23-2.829 4.443-3.423 3.89-.236 1.044-1.854 4.418-2.199 5.416 4.544-3.236 11.847-1.795 12.913-2.009-2.662 5.545-11.28 4.196-11.576 3.967m81.808-20.41c1.154.888 10.94 7.038 12.735 7.174 0 0 .862.969 1.584 1.862.659.831.908.953.987 1.123.08.17-.246.158-.308.158-4.4-1.923-8.878-3.94-12.689-7.128-.515-.444-.626-.63-.877-.969a59 59 0 0 1-1.432-2.22m3.242 4.95c4.468 2.528 8.27 4.971 12.354 6.293.575.226.885.238 1.166.437.296.199 1.527.977 1.823 1.145 1.853 1.098 2.054 1.049 1.591 1.225-.508.207-3.783-.75-6.533-1.776-4.894-1.825-6.623-2.846-8.405-4.457-.39-.4-2.257-2.631-1.996-2.867M38.577 92.415c.372-.004.978.222 1.602.712.671.52 2.323 1.605 3.007 1.893.342.151.45.18.45.18l4.404 5.016-11.331 9.245s-.924-.937-1.206-1.26c-.281-.292-.191-.542.145-.887.276-.267.3-.858.25-1.153-.066-.434-.056-.915.481-1.31.43-.315.5-.89.484-1.046-.017-.124.241-.53.61-.815.798-.583 1.037-1.285.765-2.12-.112-.357-.175-.434.286-.75.814-.537 1.01-1.052 1.078-1.845.014-.124-.019-.264-.035-.357-.164-.837.58-.628 1.18.422.332.571.42 1.518.586 2.588.2 1.271.327 1.612.403 1.44.39-1.03-.07-4.862-1.236-5.377-1.695-.757-3.12-2.31-2.693-2.921.152-.204.168-.142 1.21.344.607.288 1.167.515 1.26.514 1.207.033.474-.472.086-.53-.465-.072-1.867-.926-2.04-1.22-.269-.493-.117-.744.254-.763m-2.9.67c1.113-.013 1.317.28 1.328 1.242.006.56.212 1.008 1.091 2.132.361.462.597.817.584.988-.043.295-.14-.014-1.364-.156-.433-.057-.65-.055-.802.164-.427.626-1.316-.032-1.852-.942-1.309-2.207-.842-3.408 1.014-3.429m21.087 1.317 12.047 14.793-1.366 1.056-12.09-14.59zm-2.001.908 1.293 2.191s-3.725 3.195-4.72 4.107a16268 16268 0 0 0-25.822 21.074l-.234-2.95zm-21.75.398c.232.013.499.305.892.891.33.509 1.038 1.526 1.788 2.217 1.47 1.35 1.608 1.24.418 1.362-.48.052-.635-.008-.92.725-.87 1.097-3.451-2.82-2.85-4.333.242-.578.44-.875.672-.862m4.201 2.112c.217-.002.511.072.838.27.638.258.686.412.584 1.035-.101.591-.548.736-1.423-.03-.657-.63-.556-1.237.001-1.275m19.22.36 1.413 1.833-32.063 26.083-.002-2.998c.79.1 21.339-17.87 30.653-24.918m-24.906.31c.092-.017.22.277.581.817.724 1.094 1.397 1.817 2.146 2.399.718.536.799.845.304.85-.217.003-.493.224-.645.49-.303.531-.335.407-.803.117-.67-.396-1.341-.994-1.613-1.768-.256-.743-.284-1.861-.076-2.671.045-.156.075-.234.106-.234m5.082 2.071c.82-.025 1.403.932.87 1.7-.306.298-.568.44-1.175.074-.795-.472-.942-1.185-.281-1.596.184-.111.385-.16.586-.178m-5.268 2.078c.17-.001.482.244.998.782.407.414 1.092.764 1.372.916.623.35.655.474.318.742-.138.126-.618.132-.753.506-.375 1.076-1.936-.18-2.077-1.717-.086-.791-.09-1.226.142-1.229m3.915.128c1.022.05 1.515 1.24.686 1.825-.445.316-1.565-.247-1.68-.836-.066-.372.607-1 .994-.99m23.946.881c.588-.006 1.073.485 1.08 1.076a1.085 1.085 0 0 1-1.072 1.084c-.588.006-1.073-.486-1.08-1.076a1.085 1.085 0 0 1 1.072-1.084m-3.213.456c.588-.007 1.073.485 1.08 1.075a1.085 1.085 0 0 1-1.072 1.084c-.588.006-1.073-.485-1.08-1.075a1.065 1.065 0 0 1 1.072-1.084m-21.537 1.437.2-.003c.992.051 1.033.999.45 1.502-.352.3-.66.396-1.128.028-.797-.643-.496-1.47.478-1.527m23.937 1.58c.588-.006 1.073.486 1.08 1.076a1.085 1.085 0 0 1-1.071 1.084c-.588.006-1.073-.485-1.08-1.076a1.066 1.066 0 0 1 1.071-1.083m94.428.063v2.734l-37.958 31.71-1.287-1.678zm-96.621.242-2.793 6.322-.838-1.637-2.104-.007.644-1.887-1.239-1.509zm59.767 26.314 5-4.017c-2.148-10.896 6.437-15.233 14.595-12.062l5.073-4.344c-9.418-7.957-31.56-2.568-24.668 20.423m-67.602-21.287c.587-.006 1.073.485 1.08 1.076a1.085 1.085 0 0 1-1.072 1.083c-.588.007-1.073-.485-1.08-1.075a1.065 1.065 0 0 1 1.072-1.084m-3.262.254c.588-.006 1.041.455 1.048 1.045s-.452 1.123-1.04 1.114c-.588.007-1.073-.485-1.08-1.09a1.07 1.07 0 0 1 1.072-1.069m17.369 2.198-4.954 3.986c1.276 10.44-3.77 15.747-14.64 12.171l-5.261 4.191c14.204 9.799 32.785-2.852 24.855-20.348m-15.246.947c.588-.006 1.073.485 1.08 1.076a1.085 1.085 0 0 1-1.071 1.084c-.588.006-1.073-.486-1.08-1.076a1.065 1.065 0 0 1 1.071-1.084m104.225.264c.587-.006 1.072.485 1.079 1.076.007.59-.483 1.077-1.086 1.084-.588.006-1.073-.485-1.08-1.076a1.09 1.09 0 0 1 1.087-1.084M45 116.374l-3.164 6.296-.794-1.902-2.12.024.687-2.198-1.327-1.135zm102.186.66.978 1.667 2.074.054-.787 1.578 1.503 1.552-6.774 1.676zM37.447 121.6c.588-.007 1.073.485 1.08 1.075.006.59-.484 1.077-1.087 1.084-.588.007-1.073-.485-1.08-1.075a1.1 1.1 0 0 1 1.087-1.084m-3.093.127c.588-.006 1.073.485 1.08 1.076.006.59-.484 1.077-1.087 1.084-.588.006-1.073-.485-1.08-1.076a1.09 1.09 0 0 1 1.087-1.084m107.586.646c.587-.006 1.073.485 1.08 1.075a1.085 1.085 0 0 1-1.072 1.084c-.588.007-1.073-.485-1.08-1.075.01-.606.484-1.093 1.072-1.084m11.002.157-.004 2.392-30.814 25.727-1.303-1.663zm-116.434 2.342c.588-.006 1.073.485 1.08 1.076a1.085 1.085 0 0 1-1.071 1.083c-.588.007-1.073-.485-1.08-1.075a1.075 1.075 0 0 1 1.071-1.084m107.644.257c.588-.007 1.073.485 1.08 1.075a1.085 1.085 0 0 1-1.072 1.084c-.588.007-1.073-.485-1.08-1.09a1.07 1.07 0 0 1 1.072-1.069m-3.046.205c.588-.007 1.073.485 1.08 1.075a1.085 1.085 0 0 1-1.072 1.084c-.587.007-1.073-.485-1.08-1.09a1.06 1.06 0 0 1 1.072-1.069m12.01.378-.09 3.046c-9.594 8.216-29.233 24.545-29.17 24.56l-1.478-2.05c0-.016 21.532-18.633 30.739-25.556m-118.584-.445-2.958 6.713-1.273-1.803-1.874-.135.444-1.822-1.715-1.177zm102.704 2.642 1.899-.363-.335 1.946 1.331 1.399-6.961 1.538 3.365-6.267zm10.42 32.692c1.415 2.128 1.317 4.444.733 4.792-.623-.35-1.171-.966-1.808-1.238-3.25-1.408-5.831-2.56-6.303-4.621-1.769-4.687 6.197-.706 7.377 1.067M130.59 148.18l10.917-8.93s1.68.867 1.994 1.267c.113.434-.195.562-.639.97-.198.267-.334.517-.343 1.092-.01.606.195.883-.065 1.15-.418-.026-.737.52-.717.956.02.326-.425.703-.67.955-.444.44-.582.534-.875 2.044-.029.156-.024.544-.223.749-.634.053-1.096 1.612-1.374 1.708-.464-.026-1.198-.592-1.377-1.43-.115-.542-.08-1.598.036-2.283.146-.81.215-1.54.167-1.742-.114-.449-.42-.166-.413.455.003.264-.097 1.027-.26 1.759-.161.731-.6 1.7-.407 2.272.303.851 1.39 1.212 1.875 1.672 1.298 1.198 1.567 1.77 1.725 2.032 1.026 1.899 1.03 2.225.783 3.641-.146.825-.952.679-1.42.342 0 0-3.073-2.249-4.4-3.352-2.03-1.686-3.458-3.41-4.314-5.327m4.137 6.136c1.166.469 4.223 2.703 4.223 2.703l-2.783 5.794c.505.911.716 3.161.716 3.161 3.51-.272 5.416 5.672-.051 5.127.628 3.675-5.266 6.552-5.107-.036-6.137.472-4.08-6.51-.29-5.2-.11-2.967 1.851-3.346 3.236-4.076 1.13-1.286 1.84-4.215 1.84-4.215l-.273-.898c-1.168 2.048-6.128 2.632-11.571 1.543 1.462-3.48 5.935-3.39 10.06-3.903m-10.828 4.409c-.178.701-.194.686.656.598.418-.035 2.135-.039 3.327.01 2.199.177 5.65.185 7.368-1.139.336-.314.522-.3.586-.13.149.852-1.537 3.667-1.537 3.667l-2.768 1.538s-1.13.059-2.538.013l-.018 2.5c-1.107.65-2.994 3.467.046 5.608l-.093 2.735 2.647.08c1.782 1.704 3.221 1.703 4.859.085l3.094-.004-.017-2.95c1.518-1.23 1.743-3.314.177-4.99l-.034-2.997-2.382.011s-.484-.383-.503-.678c-.002-.202 1.74-3.561 2.075-4.046.426-.627.322-.268 1.003 1.169.998 2.055 1.966 2.898 4.47 4.113 2.241 1.094 3.036 1.597 3.692 2.211.516.492.824.333 1.017-.4.43-1.635.304-3.296-.61-4.793-1.907-3.178-5.22-3.328-5.739-4.052-.064-.17.6-.38 1.339-.699 1.26-.76 3.09-3.079 3.328-4.014-.036-.45.258-1.867.471-2.164.257-.547.285-.811.269-2.302-.227-.852-.022-1.957.082-2.331.115-.778-.297-1.69-.882-2.802-.213-1.038-.163-.775.507-3.112.104-.374.857-3.63-.105-3.852.016.031.095.123.126.185.306 1.069.116 2.065-.136 3.046-.745 2.618-.772 2.93-1.456 2.704-.186-.06-1.403-.994-1.403-.994s-.014-1.227.236-2.441c-.15.405-.247 1.478-.724 1.732-.262.065-.605-.164-1.277-.747-.25-.215-.795-.597-.795-.597s7.755-6.673 10.685-8.88l-.003 98.766-55.669.016c-.702-6.112 1.142-14.21 4.162-22.322 1.879-5.008 4.576-8.735 7.605-13.212 5.816-8.546 10.222-17.233 8.537-28.243-.22-1.629-.444-2.418-.372-2.854.713-1.329 3.514-5.383 5.57-7.053 3.004-2.472 7.203-6.154 7.53-5.94.996 1.93 2.19 3.501 3.75 4.696.282.307.285.571-.348.703-4.147-.047-8.423.855-9.805 4.552m-96.874-28.06c.588-.006 1.073.486 1.08 1.076a1.085 1.085 0 0 1-1.071 1.084c-.588.007-1.073-.485-1.08-1.075a1.075 1.075 0 0 1 1.071-1.084m104.286.249c.588-.007 1.073.485 1.08 1.075a1.085 1.085 0 0 1-1.072 1.084c-.587.006-1.072-.485-1.079-1.076a1.065 1.065 0 0 1 1.071-1.083m2.338 2.956c.588-.007 1.073.485 1.08 1.075a1.085 1.085 0 0 1-1.071 1.084c-.588.007-1.073-.485-1.08-1.075a1.095 1.095 0 0 1 1.071-1.084m-3.476.458c.588-.006 1.073.485 1.08 1.076a1.085 1.085 0 0 1-1.072 1.083c-.587.007-1.072-.485-1.079-1.075a1.085 1.085 0 0 1 1.071-1.084m-3.84 2.467 1.948-.1c-.24.702-.371 1.433-.518 2.15l1.591 1.162-6.857 1.164 2.95-6.09zm-4.677 17.776-11.538-14.954 1.395-1.134 11.63 14.798zm-1.4-14.54c.589-.006 1.074.486 1.08 1.076a1.085 1.085 0 0 1-1.07 1.084c-.589.006-1.074-.486-1.08-1.076a1.075 1.075 0 0 1 1.07-1.084m24.233 1.687c.937.735.004 1.755-.897 1.346-.778-.333-.725-1.11-.11-1.428.386-.19.68-.148 1.007.082m1.246.685c.96.02 2.021 2.292 1.827 2.962-.285.78-.548.814-1.906-.336-1.344-1.134-1.36-1.18-.81-1.793.29-.345.44-.813.889-.833m-22.833.426c.588-.007 1.073.485 1.08 1.075a1.085 1.085 0 0 1-1.071 1.084c-.588.007-1.073-.485-1.08-1.075a1.065 1.065 0 0 1 1.071-1.084m-3.322.41c.588-.007 1.073.485 1.08 1.075a1.085 1.085 0 0 1-1.071 1.084c-.588.007-1.073-.485-1.08-1.075a1.066 1.066 0 0 1 1.071-1.084m23.604.777c1.054.159 1.342.964.853 1.56-.656.814-2.15.07-1.805-.897a1.02 1.02 0 0 1 .952-.663m1.917 1.206c.417-.036 1.042.547 1.718 1.503.77 1.079.836 1.42.611 2.075-.314.95-.513 1.124-1.204.2-.267-.355-.864-1.171-1.303-1.633-.923-.968-1.06-.718-.511-1.47.26-.329.426-.641.689-.675m-2.494 1.13c.949.487 1.05 1.138.482 1.595-.662.365-1.827-.073-2.066-.722-.336-.96.68-1.453 1.584-.872m1.61 1.427c.54-.037.98.517 1.642 1.597 1.118 1.82 1.187 2.442.226 3.633-.687.862-.764.91-1.43-.466-.553-1.128-1.604-2.436-2.572-3.233-.406-.337-.55-.786-.257-.82.077-.017.448-.021.804-.04.526-.022.71-.086.986-.369a.93.93 0 0 1 .6-.302m-3.868 1.426c.494-.021 1.147.251 1.633.805.548.584.477 1.113-.59 1.218-.477.192-1.802-.679-1.809-1.253-.005-.497.317-.75.766-.77m2.53 2.1.077-.001c.449.026.686.458 1.192 1.478.776 1.576.553 2.417-.785 3.116-.908.476-1.603.608-1.733.066-.032-.155-.037-.606-.104-1.04-.1-.59-.23-1.194-.749-1.965-.818-1.249-.962-1.682-.061-1.32.482.197.992.176 1.546-.11.23-.127.43-.207.616-.224m-4.568 2.52c-.31-.011-.508.193-.425.705.28.136.727.007 1.069.128.45.165.737.908 1.23.794.056-.622-1.177-1.603-1.874-1.626m-93.084 10.937c-2.52-1.2-8.74-3.988-11.741-4.032-5.557-1.569-5.75-.852-7.705-1.359 10.32-2.694 17.248 2.48 19.844 4.998 1.19 1.183.536.848-.398.393m6.569 24.44c5.916 10.279 11.413 21.884 20.655 39.07l-.894.274-35.23.068c1.74-18.987-8.472-37.079-9.16-36.372 7.985.144 14.605-1.39 16.012-4.342l-1.134-.33c-4.643 4.03-11.603 4.216-16.243 2.963.106-9.897-.304-20.347.005-30.23 5.488-.403 9.873 1.614 12.904 5.635 5.104 6.778 8.557 15.376 13.085 23.263m-16.148-27.409c1.407-.109 9.116 3.083 12.578 5.452.954.999 2.35 2.723 2.353 2.894.005.466-.682-.101-4.015-2.021-2.522-1.417-5.134-2.568-7.684-3.658-.124-.045-.357-.151-.357-.151s-.188-.216-.516-.476c-.89-.69-2.652-1.943-2.359-2.04m3.738 3.609c-.078-.015 7.643 2.788 13.794 7.706.812.659 1.813 3.087 1.813 3.087-.553-1.035-10.256-6.86-13.66-8.205zm2.733 3.729c.415-.254 11.723 6.44 13.366 8.177.75.581 2.513 3.373 2.52 3.933.005.497-.541.068-1.557-.868-5.207-4.882-12.72-8.557-12.782-8.479zm2.086 3.875c5.3 2.256 11.968 7.665 15.33 10.905.845.83 1.446 2.05 1.56 2.608.067.356-.104.327-.18.514-4.356-5.015-13.935-10.749-15.209-11.2.019.31-1.043-1.946-1.501-2.827m17.61 15.664c.611.63 1.58 2.81 1.366 3.076-.107.125-.093.063-.358-.12-1.392-1.398-8.565-7.78-14.53-11.349-.56-.289-2.45-3.266-2.048-3.317 3.136 1.022 12.066 8.192 15.57 11.71m-12.92-7.126c.108.015.295.137.607.32 5.495 3.045 13.471 10.708 14.977 12.555.347.57.884 1.606.845 2.243-.072.498-.262.08-2.484-2.116-3.566-3.518-7.673-6.905-12.037-9.76-.842-.582-.673-.646-1.288-1.71-.6-1.081-.852-1.545-.62-1.532m35.154.12c3.931.111 5.465 3.092 7.878 8.596 1.979 5.414 2.792 10.376 2.882 14.336.003.265-.48.037-.696-.023-1.056-.283-2.358-.548-3.87-.158-1.111.276-2.179.257-1.027-.502.369-.237 1.364-1.164 1.902-1.497 1.076-.68.426-.657-.651-.132-.816.397-1.352.9-1.676.982-.2.049-.084-.636.127-1.12 1.144-2.825 1.482-4.49-.21-5.015-.466-.135-1.074-.563-1.371-.855-.235-.23-.43-1.145-.509-1.175-.077-.046-.13.825-.128.965.005.45.588 1.376 1.274 1.865 1.185.857 1.42 1.087.777 3.098-.897 2.822-1.09 3.523-1.254 4.177-.088.374-.282 1.013-.37 1.434-.354 1.604-.308 3.001-.246 4.336.389 2.979 3.577 4.434 7.86 2.786.4-.16.572-.022.572-.022-3.412 3.487-7.24 5.705-9.483 12.751-2.864-5.808-6.938-10.361-13.688-12.18l-.107-1.211c2.365 1.138 6.93 2.672 9.836.946 1.55-1.058 1.079-1.752-.8-1.016-2.25.88-6.305.77-8.329-.373-.405-.229-.836-.037-.943.01-.1-.682-1.073-3.25-.945-4.23-.079-.139.617-.147.759.038.565.755 3.406 2.991 6.36 2.819 1.468-.095 2.67-.543 3.955-1.893.107-.095.632-.163.693-.241.107-.125.027-.327.027-.389-.032-.108-.221-.386-.348-.695a1.3 1.3 0 0 1-.164-.79c-.002-.187.12-.281.228-.407.105-.25.086-.56.023-.73a.442.442 0 0 1-.085-.667c.397-.455-3.448-3.97-4.19-3.961-.28.003-.119.498.442.88 1.949 1.3 3.376 3.007 3.053 3.229-.245.173-1.116-.205-2.016-.413-1.784-.415-3.937-.686-6.255 1.002-.874.724-3.178.828-3.178.828-.03-1.258-5.322-15.304-5.33-14.698 1.924-2.258 7.976-7.592 14.047-9.897 1.834-.657 3.826-.975 5.174-.788m-22.988 3.146 11.003.173c-2.77 1.397-7.804 6.41-7.804 6.41-1.425-2.905-1.874-4.36-3.199-6.583m-9.53 1.443c.82.006 9.564 7.147 10.805 8.842.157.2 1.034 1.138 1.972 2.075 2.254 2.29 3.197 3.6 3.207 4.547.005.45-.4.16-.996-.517-4.527-5.045-7.467-7.792-13.064-11.66-.638-.334-2.601-2.969-1.94-3.271zm29.892 1.328c-.248-.013-.199.235-.073.451 1.39 1.227 5.042 1.171 6.315.178 1.15-.898-.36-.43-.823-.224-1.093.479-2.27.414-3.79.012-.885-.24-1.382-.42-1.63-.417m3.38 1.997c-1.285.014-2.627.402-2.328.865.11.17.455.492 1.3.032 1.216-.604 3.685.192 3.763.206.248.06-.828-.72-1.186-.872-.389-.166-.962-.238-1.55-.231m-30.853 1.34c4.689 2.883 10.416 8.66 13.85 12.784.565.709.977 1.59.983 2.102.008.746-.151.328-3.266-2.837-2.441-2.52-6.13-5.928-8.58-7.78-1.466-1.071-1.73-1.208-2.426-2.49-.632-1.204-.87-1.792-.561-1.78m29.269.961c-.878.43-2.055.334-3.188-.057-1.041-.361-.79-.054-.406 1.076.176.51.292 1.24.293 1.348.003.249.003.264.726-.132.63-.349.768-.475 2.118-.164 1.38.327 1.395.202 2.04-.131.57-.302.676-.474 1.065-.323.761.302 1.614.433 2.583-.075.738-.397.989-.136 1.331.047.467.228.65.086.46-.378-.08-.185-.212-.976-.215-1.24-.005-.482-.118-.915-.318-.804-.739.38-1.338.776-2.05.753-1.3-.017-2.422-.812-4.44.08m-57.438.984c11.705 14.642 9.834 35.743 9.446 35.577l-9.453.043zm30.652 2.966c4.679 3.288 10.235 9.035 13.327 12.993.518.693.103.9.36 1.72.096.31-.42-.15-1.908-1.75-1.848-1.998-4.898-4.993-6.898-6.741-2.187-1.902-2.827-2.392-3.298-3.04-.362-.524-1.86-3.117-1.583-3.182m26.318 1.337-.14.002c-1.67.08-2.515 1.954-1.077 3.274.532.491 1.386.792 1.383.528 0-.062-.267-.339-.454-.476-1.186-.92-1.063-2.35.283-2.365.464-.005.497.166 1.589.946 1.279.917 2.78.916 2.754 0-.007-.683-.263-1.38-1.406-1.258-.294.034-.696.054-1.053-.035-.341-.09-.622-.288-.746-.349a3 3 0 0 0-1.133-.267m-23.269 4.315c3.57 2.414 8.489 7.858 11 11.077.581.755.621 1.593.379 2.03-.061.095-.498-.18-.498-.18-2.9-3.432-6.2-6.564-9.422-9.728 0 0-1.922-3.1-1.459-3.2m34.67 5.22-.77.381c-1.164-1.758-2.248-1.792-3.138.268l-.574-.148c-.438-.462 1.54-4.942 4.482-.501m-.172-1.505c.325.012.884.192 1.012.517.142.309-.024.653-.458.626-.061.001-.5-.522-.705-.846-.157-.2-.096-.31.151-.297m-13.143 2.15-.866.042c-1.648-2.172-2.886-.714-3.618.195l-.93-.129c.16-2.394 4.359-3.218 5.414-.107m8.428-1.849a1 1 0 0 1 .372.074c-.335.516-.392.952-.48 1.419-.338.143-.815.428-1.175.06-.657-.615.37-1.574 1.283-1.553m-13.52.245c.402-.005.293-.02.11.2a4.1 4.1 0 0 0-.561 1.016c-.06.25-.105.343-.337.361-.464.021-1.378-.155-1.378-.14-.344-.337 1.114-1.41 2.165-1.437m5.232.298c.279-.034.206.355.13.512-.168.203-.245.266-.34.019a1 1 0 0 0-.174-.293c-.14-.17-.126-.185.044-.218.077-.017.248-.019.34-.02m14.13 1.738c1.006-.027.329 1.69-1.075 2.109-1.554.794-3.32.596-5.126-.44-1.028-.594-1.344-1.212-.444-.958 3.384.94 4.202.76 6.245-.567.138-.11.261-.127.4-.144m-32.542-.382c3.374 2.867 5.9 6.1 8.595 9.1.534.662.788 1.312.685 1.748-.133.545-1.23-.748-1.23-.748.03.015-6.577-7.056-6.577-7.056s-1.674-3.026-1.473-3.044m10.068.99c.232.013.697.117 1.442.31 3.245.99 4.22.947 6.082.088 1.185-.542 1.681-.47 1.164.36-.927 1.517-4.236 1.678-6.705.836-.653-.226-1.23-.624-1.87-1.098-.328-.338-.407-.508-.113-.496m14.942 1.014c.185-.018.56.211.995.455 2.71 1.538 4.718 1.267 6.393.223.306-.283.462-.145.512.119.15.946.188 1.613-.24 2.069-.245.266-.677.38-1.309.605-2.62.883-5.83.251-6.44-1.73-.212-1.008-.344-1.72.089-1.741m-21.537 4.233h.031c.186.028.623.412 1.313 1.196 3.604 4.108 5.61 6.478 5.253 7.662-.031 0-.06.25-.216.127-1.984-1.718-3.614-3.61-4.811-5.57-1.324-2.144-1.864-3.38-1.57-3.415m29.12 2.905c-3.053 2.334-6.75 7.905-7.076 10.658-.072.53-.006.917-.205 1.105-.153.158-.493.161-.958.073-.28-.059-.218-.09-.283-.4-.261-1.256.941-4.423 3.422-8.147 1.293-1.957 4.25-4.6 5.086-4.609.544.227-.001 1.336.014 1.32m-22.572-1.27c.216-.002.542.103 1.009.3 2.736 1.18 3.762 1.604 5.526 3.06 3.295 2.698 6.97 9.119 5.895 9.721-.477.27-.804.102-.996-.501a14.4 14.4 0 0 0-.793-1.763c-2.212-4.076-5.09-6.886-9.15-8.876-1.494-.729-1.647-.65-1.763-1.27-.082-.465-.007-.668.272-.67m22.522 2.343c.278-.019.346.477.249 1.488-.084.825-.13.81-1.033 1.767-1.457 1.182-3.19 3.982-3.993 6.818a.72.72 0 0 1-.212.437c-.383.33-.85.165-1.174.153-.234-.122-.178-.635-.134-.93.667-2.587 2.318-5.759 4.902-8.537.72-.754 1.163-1.163 1.395-1.196m-21.954.074c1.454-.031 6.603 3.826 8.682 7.204 1.355 2.207 1.721 3.119 1.415 3.433-.168.173-.895.197-1.283.046-.342-.136-.487-.663-1.135-1.898-1.707-3.212-4.146-5.53-6.806-6.76-.497-.227-.762-.38-.919-.548-.174-.356-.402-1.394.046-1.477m.79 2.88c.45.09 1.696.898 2.741 1.663 1.841 1.362 4.641 5.494 4.06 6.091-.184.189-.833.196-1.16.075-1.973-3.52-4.529-5.2-5.56-6.167-.332-.555-1.057-1.806-.081-1.661m-4.093.621c.077-.016.436.322 1.063.983 1.831 1.937 3.016 4.098 2.734 5.189-.222.919-.506.41-2.609-3.637-.885-1.7-1.312-2.502-1.188-2.535m25.282.044c.043 1.118-.047 1.399-.164 1.99-.073.405-.349.594-.593.908-.626.784-1.338 2.143-1.697 3.25-.3.889-.158 1.105-1.242.977-.512-.072-.39-.198-.18-.79.66-1.918 2.312-5.028 3.876-6.335m-21.004 2.114c.025-.575 4.954 4.419 4.28 4.97-.649.116-1.02.136-1.301-.094-.524-1.19-2.885-3.432-2.885-3.432zm20.735 1.586h.031c.217.044.097 3.106-.086 3.372-.354.174-1.019.197-1.377 0-.218-.122-.282-.34-.208-.573.21-.608 1.285-2.733 1.64-2.799m-18.637 3.362c-.152.25-1.111.292-1.485.017-.11-.092-.235-1.613-.099-1.879.384-.253 1.704 1.534 1.584 1.862"/>
    <path d="m111.343 19.833.613.817-3.62.025c.593.506 13.983 27.572 31.117 58.853 2.83 5.483 8.252 7.472 14.521 7.713l-16.606-26.906c1.769-.967 5.298-3.57 7.423-3.081.131.65.763.395.772-.195l.774.022.267.417 3.234-.005.259-.376 2.79.404c-7.452-9.222-11.385-23.423-10.1-37.294l-24.708.059-.33-.431zm-2.992.841c-.016-.015-.031-.015-.031 0zM79.958 38.716c-2.808 9.104-9.749 16.591-13.874 24.14-4.426 8.236-5.46 15.394-4.214 23.224l.806.07c9.418-12.906 16.72-28.336 20.807-43.496.09-.327-.056-.916.017-1.243-.174-.402-.025-.839.083-.949.244-.251.156-1.229-.032-2.858-.44-4.826-.359-8.633.041-13.002.303-3.359.298-3.887.298-3.887l-1.61-.029c.296 5.714-.462 12.775-2.322 18.03m38.795-17.645 2.646.048c.415 8.135 7.235 9.193 8.285 9.072-1.749 5.504 1.15 11.545 8.09 12.4-1.598 5.097 1.23 11.823 6.783 11.636l.592.367c-.363.734-.44 2.241-.408 2.272-1.237.092-1.9.27-2.703.434-7.192-10.87-23.285-36.23-23.285-36.23m23.564 0c-.797 9.081 1.013 21.566 5.272 28.944 0 0-.134.498-.225.624-.411.61-.603.084-.856-.41-.9-1.683-2.62-1.944-3.368-1.003-1.662 2.27.143 3.152 1.534 4.44-5.697-.355-7.593-6.64-6.266-9.747-.024.59.295 1.488.705 2.12 1.605 2.437 3.934.376 3.263-1.543-.272-.789-1.293-2.129-1.293-2.129s1.39-.202 1.96-.55c.521-.332.855-.91.723-1.717-.116-.635-.134-.915-.481-1.501-.424-.524-1.17-.888-1.773-.85-1.175.075-1.321.884-2.089 1.452-.186-1.458-1.127-2.582-2.64-2.3-1.158.214-1.995 1.45-1.282 2.996.365.789.863 1.032 1.365 1.71-8.18-.919-7.282-10.669-6.382-10.492 0 0 .247-.05.173.324-.468 2.382 2.487 3.809 3.783 2.07.82-1.407-.953-3.624-.953-3.624s1.173-.246 1.711-.563c2.137-1.236-.146-4.783-2.132-3.922-.693.319-.871.973-1.548 1.307-.454-.508-.476-1.067-1.301-1.524-2.242-1.248-3.648 1.719-2.396 3.01.5.522 1.404 1.01 1.234 1.073-6.957-.885-6.883-8.187-6.728-8.142zm-59.753.063.959.004c-.277 4.338-.894 10.045-.491 14.282.462 4.034.484 4.608.194 5.015-.397.44-.178.655-.112 1.011.1.667.116.667.027 1.04a88 88 0 0 1-3.288 10.445c-4.474 12.385-11.766 25.888-17.49 32.973 0-.031-.262.019-.263.003-1.58-9.893 1.764-18.133 3.506-21.507 3.545-6.86 9.112-12.7 12.405-19.883 2.826-6.106 4.895-13.46 4.553-23.383m35.214-.052 23.318 36.4-4.262 2.098-23.866-38.367zm13.664 7.117c.603-.007 1.088.5 1.095 1.106a1.09 1.09 0 0 1-1.086 1.1c-.604.006-1.09-.5-1.096-1.107a1.08 1.08 0 0 1 1.087-1.1m7.731 12.139c.619-.007 1.104.5 1.11 1.106s-.497 1.108-1.1 1.115-1.105-.5-1.112-1.106.483-1.124 1.102-1.115m-55.552 2.159c.404 1.58-7.393 25.388-18.489 40.549l4.844.101.145.542c6.78 10.053 2.547 18.939-2.93 23.07l1.9 2.542-1.703 1.386-1.709-2.047c-13.87 10.454-40.938 33.577-40.938 33.577l.15 3.71 2.116-1.67c13.732 13.346 42.843 12.617 50.49-14.933l2.043.04c-4.634 20.183-23.423 28.083-37.617 24.746l-3.32 4.79.887.472c-.157-.262-.313-.338-.068-.574l2.822-3.65c21.227 2.73 34.044-9.329 38.195-25.655l2.708.047c-2.323 13.727-8.734 25.807-17.866 35.26-6.592-.019-18.182-.184-18.182-.184 4.223 4.1 12.284 16.64 12.607 17.91 0 0 8.296.264 17.19.04 3.264-1.48 7.62-2.058 9.66-1.04 3.578 1.809 6.948 8.529 8.46 19.323.387 2.777.74 3.953.855 4.511.016.093.265.168.295.152.139-.079-.21.484-.237.904-.011.42-.004 1.04.2 1.272.25.276.221.463.192.572-.03.078-.505.534-.505.534-.07 6.277-.037 11.993-.385 19.717l1.238.002c-.014-12.443 3.726-23.949 9.487-31.858 3.501-5.197 7.214-10.8 9.26-16.135 2.3-6.006 2.617-12.317 1.382-17.631l-.85.04c-5.068-3.485-7.13-10.934-.893-16.238l-2.213-2.88c-6.228 4.838-7.661 13.755-1.205 21.14l-2.522-.003c-6.292-7.9-4.907-16.956 2.371-23.421l-1.632-2.08 1.762-1.572 1.597 1.753 40.64-34.086-.027-3.728-3.112 2.536c-18.229-16.915-45.25-5.04-49.218 15.338l-2.475.028c5.188-21.93 24.335-28.125 38.185-25.204l3.423-5.196c-2.514-.702-4.962-2.383-7.274-4.361-.968-.828-1.593-1.35-2.298-2.18-6.56-6.964-11.015-16.623-11.217-16.636l-17.824-.05c-2.616 1.304-7.102 2.783-9.553.79-5.277-4.274-7.044-12.907-7.771-18.476-.22-1.721-.409-4.733-.574-5.74-.126-.186-.327-.184-.497-.166m63.218 9.608c.603-.007 1.073.485 1.08 1.09s-.484 1.078-1.087 1.085c-.604.006-1.073-.485-1.08-1.091s.483-1.077 1.087-1.084m2.32 1.279c.878 1.14 1.665 2.327 2.096 3.565-.402-.011-.787.117-1.255-.235-.107-1.257-.626-2.012-1.27-2.86zm-3.263 1.605c.358.183.651 1.546.39 1.782-.431.098-.726.055-.882-.083-.205-.37.214-1.634.492-1.699M74.979 66.858l16.555.017c2.887 2.22 5.7 1.924 9.78.139l18.412-.004 1.042 1.9-46.68.008c.256-.702.89-2.06.89-2.06m-1.36 2.967 47.64-.005 1.197 1.944H72.434zm4.596 2.822 5.338.002-1.974 3.378H76.07zm11.867.007 5.106.005-2.268 3.365-5.06-.005zm16.494.002-2.145 3.364-5.183-.004 2.222-3.334zm6.405-.01 5.106.006-1.912 3.377-5.292-.003zm-68.63.535c-3.31-.04-2.705 4.38-2.381 4.236-2.079-.473-3.615.507-3.874 2.296-.2 1.416 1.168 3.42 3.578 3.145-.32.376.012 2.5.324 2.699 0 0 .035.31-1.22 2.965-1.512 3.155-1.82 3.298-2.493 1.224-.737-2.229-1.863-3.35-4.819-4.793-.793-.38-1.9-1.05-2.476-1.494-1.327-.995-1.342-.98-1.273 1.04.075 2.624.877 3.78 3.68 5.333 1.37.761 3.996 1.835 4.46 1.83.34-.004 1.57.557 3.375 1.515.358.198 1.572.868 3.12 1.022 1.658.121 5.382-.278 7.534-1.53 1.215-.696 1.672-1.323 2.565-3.12 0 0-3.062.16-4.458-.213-2.91-.17-4.348.002-6.548 1.145-1.846.952-1.937 1.124-1.18-.453.347-.734.678-1.592.978-2.434.316-.843.408-.922 1.211-1.008 1.762-.175 2.772-1.212 2.938-2.984.04-.483-.027-.979-.027-.979 1.21.173 3.663-.414 3.589-2.914-.072-2.251-1.671-2.762-3.638-2.926.266-1.137-.581-3.582-2.964-3.602m.04.699c2.909.014 2.83 2.702 1.563 4.207l-1.546-1.272-1.24 1.148c-1.357-.87-1.346-4.101 1.223-4.083m79.42.028 1.43 2.112-2.94.002zm-54.197 3.045 5.461.001-2.193 3.1-5.168-.004s1.17-1.986 1.9-3.097m17.236-.006L84.78 80.17l-4.78.007 1.914-3.144zm6.39.006 4.935.007-1.958 3.424-4.873-.008zm11.635-.006 4.997.006-2.035 3.425-4.936-.007zm11.325-.002 5.153.004-2.128 3.426-4.967-.007zm-71.737.646 2.456 2.49-2.387 2.403-2.47-2.365zm6.23 2.416c-.431 2.894-3.203 2.723-3.992 1.319l1.13-1.287-1.391-1.367c1.337-2.174 4.57-.843 4.254 1.335m-8.246-1.383-1.33 1.506 1.456 1.413c-.945 1.315-4.552 1.2-3.828-1.946.457-2.009 2.495-2.373 3.702-.973m84.18-.367 1.525 2.096-2.847.016zm-59.276 2.574 61.118.202 1.631 2.001c-21.332.363-42.228-.351-64.028-.356zM45.86 82.143c2.415 1.495.64 4.637-1.966 4.092-1.943-.848-2.337-2.879-.586-4.048l1.359 1.134zm20.963 1.195-1.671.003-1.619 1.913c6.137 6.502 5.921 12.128.19 17.039l2.302 2.584c6.407-5.509 7.842-14.162.798-21.54m6.3.255c3.448 5.399 6.424 15.634-3.838 24.991l-1.24-1.508c8.924-8.753 6.83-16.123 2.835-23.426zm.96.13 13.88.046c-2.968 11.373-5.06 18.061-5.374 35.836l-4.007.029c.444-.409-2.084-10.742-5.001-14.313 6.134-10.477 2.82-16.39.503-21.598m-43.662.006c.248-.003.73.318 1.696.882.857.519 1.994 1.174 2.492 1.464 1.9 1.066 2.855 2.08 3.398 3.628.4 1.16.152 1.179-1.02.089-.876-.814-1.796-1.503-4.104-3.092-.81-.566-1.073-.47-.6.208.345.494 1.078 1.045 2.558 1.96 1.075.656 2.56 1.975 2.438 2.179-.106.172-.292.158-.805-.069a69 69 0 0 0-1.726-.71c-3.015-1.225-4.316-2.749-4.498-5.263-.041-.87-.092-1.273.171-1.276m63.344.069s.424.554.473.787c.114.495-.376.951-1.9 1.636-.524.24-.97.369-.952.679.07.73 1.46 1.832 1.285 2.813-.317.75-2.243 1.5-2.713 2.391.007.606 1.255 1.555 1.079 2.38-.09.25-.505.503-1.087 1.022-1.21 1.055-1.302 1.227-.844 2.045 1.042 1.914 1.072 1.774-.337 3.142-1.423 1.367-1.408 1.351-.714 2.555.742 1.281.695 1.235-.287 2.054-.965.803-.933.973-.41 1.977.505.973.614.988-.229 1.743-.98.88-1.165.976-.472 2.071.724 1.141.77 1.094-.04 2.02-.764.878-.856.926-.447 1.527.52.756.63.956.066 1.786-.593.892-.594.83-.043 1.663.456.71.372 1.487.372 1.487l-1.748.004s-.011-.994-.216-1.35c-.49-.88-.477-1.159.102-1.942.595-.8.5-.876-.065-1.677-.566-.817-.473-.803.244-1.727.671-.847.698-1.25.321-1.728-.895-1.155-.9-1.637.005-2.392.69-.583.748-.832.165-1.835-.583-.972-.662-1.065.41-2.024 1.088-.991 1.088-.976.349-2.101-.709-1.095-.678-1.158.47-2.227 1.149-1.07 1.164-1.085.406-2.428-.71-1.266-.71-1.25.669-2.493 1.38-1.15 1.842-1.294.478-2.957-.773-1.311-.217-1.442 1.044-2.093 2.198-1.345 1.193-1.272.273-3.28-.773-1.344-.324-1.349 1.014-2.031a10 10 0 0 0 1.093-.525c.907-.508.407-.968.407-.968zm2.878.03 6.624.08c-7.674 9.842-11.371 22.435-12.71 35.716l-2.506-.034c-.146-10.375 3.098-23.336 8.592-35.762m34.027.225c3.795 3.204 6.6 5.037 8.589 5.76 0 0-2.674 4.458-2.877 4.289-15.366-2.966-33.647 6.03-37.78 25.417l-2.414.011c.89-7.606 2.894-13.966 6.564-20.594 3.642-6.44 7.004-10.206 12.073-14.939zm-26.444-.17 3.265.056s.611.74.893 1c1.41 1.6 1.53 1.288-1.576 3.047-1.968 1.11-2.828 1.632-2.947 2.099-.088.467.851 1.404.966 2.024.001.078-2.671 1.863-3.148 2.117-.677.334-.705.614-.042 1.771.773 1.343.71 1.297-.948 2.45-1.612 1.136-1.938 1.016-1.245 2.142.961 1.558.501 1.92-1.744 3.142-.57.301-.581.612-.183 1.68.558 1.484.696 1.343-.471 2.133-1.367.947-1.614.981-1.314 1.552.885 1.684 1.23 2.1.06 2.656-.907.414-.92.663-.428 1.776.507 1.128.63 1.08-.26 1.711-.829.584-1.31.45-.51 1.42.627.754.572 1.36.067 1.817-.447.19-.654 1.032-.53 1.062l-1.145.028c-.895-1.217.165-1.912.318-2.023.152-.281-.036-.481-.4-1.13-.504-.91-.475-1.02.231-1.54.721-.536.754-.397.261-1.572-.557-1.376-.527-1.532.348-2.163s.873-.77.287-1.976c-.617-1.267-.617-1.267.919-2.294 1.09-.727 1.106-.68.519-2.025-.398-.928-.122-1.241 1.367-2.268.844-.584.905-.693.51-1.388-1.088-1.914-1.089-1.96.8-3.193 1.552-1.012 1.536-1.09.933-2.434-.65-1.453-.696-1.344 1.41-2.61 1.752-1.045 1.846-.984 1.12-2.25-.9-1.574-.835-1.31 2.655-3.323 1.26-.868 2.392-.57 1.138-2.032a24 24 0 0 0-1.176-1.462m-61.629 2.584c.248-.003.437.29.412.85-.038.777-.416 1.558-.763 2.323-.741 1.577-1.47 2.75-1.858 2.754-.912.01-.884-.192.328-2.566.56-1.094 1.119-2.327 1.21-2.561.195-.53.455-.782.671-.8m11.21 3.587c.023 3.34-10.418 5.025-10.963 3.338 1.825-1.434 7.201-.795 8.332-2.081-1.378-.078-3.232.145-4.516.175-1.593.033-4.154.714-4.182.994-.164-.884 2.726-2.532 5.03-2.635 2.165-.102 4.489.152 6.3.21m.908 5.085S34.37 112.05 24.311 120.225l.056 3.65L56.55 97.418zm-.068.84 1.302 1.585-30.222 24.711-.106-2.593zm95.498 8.672-1.085 1.162c-29.503-22.04-56.688 11.43-41.692 35.371-.136.312-1.18 1.07-1.18 1.07-16.709-27.79 15.252-60.32 43.957-37.603m-16.237-4.82c1.671.012 4.763 1.174 6.065 2.744 1.52 1.831 1.081 2.644-.857.926-2.074-1.515-3.78-1.853-.898-.084.639.397 1.204 1.168 1.236 1.245.112.31-.433-.01-2.841-.9-1.43-.528-3.255-1.937-3.715-2.91-.364-.726.128-1.027 1.01-1.021m-6.204.038c.526-.006.99.035 1.317.125 2.11.613 2.78.932 3.56 1.545.546.413.364.726-.258.453-.73-.318-3.028-1.007-3.446-.956-.602.07.005.45.859.674 1.908.476 2.858.978 1.496.993-.71.101-3.82.12-4.657.021-1.41-.17-3.528-1.467-3.038-1.923.505-.503 2.59-.914 4.167-.932m-6.058 1.994c2.506.034 3.863.966 1.126 1.152-4.71.752-5.612 1.772-.396.548 1.22-.277 1.193.158.347.571-.693.334-1.542.5-2.25.849-1.293.542-4.232.653-5.382.215-1.693-.633 3.63-3.365 6.555-3.335m20.134.427c1.269.033 3.966 1.867 5.16 3.593.787 1.125.394 1.937-.792 1.034-.234-.184-1.937-1.64-2.03-1.67-.155-.06 1.408 1.444 1.645 1.86.19.356.648 1.174-.203 1.2-1.333-.172-4.435-3.664-4.454-5.388-.005-.45.256-.64.674-.629m-15.694.983c.526-.02.25.262-.747.972-1.812 1.278-.87 1.02 1.252-.076.646-.334 1.417-.59 1.68-.64.278-.05.602-.131.725-.164.57-.177.13.527-.79 1.267-1.948 1.56-4.131 2.796-5.644 3.17-1.928.472-2.33.539-1.616-.665 1.139-1.924 2.777-3.464 4.352-3.762.356-.05.618-.1.788-.102m6.499.037c.804-.01 1.796.15 3.363.49 1.102.345.81.426-.504.565-2.473.276-1.449.56.965.517 3.295-.02-1.643 1.184-3.25 1.435-1.252.06-1.608.018-4.337-.495-1.039-.19-.413-.959 1.557-1.897.785-.398 1.402-.606 2.206-.615m20.32.44.086 2.128-39.811 33.44-1.347-1.508zm-13.549 1.83c1.594-.018 3.88 1.09 3.64 1.745-.09.25-.276.236-1.486-.092-.792-.208-2.218-.441-2.03-.257.062.062 1.181.484 1.6.588 1.396.342 3.076 1.13 2.707 1.368-.645.396-1.252.092-2.01.007-1.922-.274-5.09-1.248-5.606-1.74-.594-.536 1.484-1.585 3.185-1.62m-18.565.13c.294.012.39.275.115.65-.411.549-.607 1.017-.971 1.69-1.339 2.065-2.165 2.882-3.456 3.688-1.275.807-1.462.67-1.357-.994.151-1.726 1.369-3.542 3.123-4.4.803-.118 1.265-.325.425.694-1.496 1.803-.477 1.62.924-.43.441-.673.903-.91 1.197-.899m-5.18.244c.866-.01 1.148.298.04.823-1.047.493-3.15 1.961-3.195 2.132-.09.281.694-.147 2.002-.876 1.737-.952 1.892-.938 1.053.159-.945 1.238-3.249 2.786-5.037 3.35-2.515.695-2.458.213-1.055-1.667 1.339-2.034 2.473-3.01 4.2-3.557a6.7 6.7 0 0 1 1.991-.364m-42.654.306c9.133 15.805 4.066 31.846-6.519 40.042-11.06 8.559-28.287 8.052-38.442-2.226l1.409-1.337s16.01 16.396 36.194 1.848c10.238-7.384 14.47-24.814 6.011-36.96zm-40.878.037c-.03 0-.046 0-.077.017-.307.205-1.46 3.604-1.693 5.02-.072.42.025.824.37 1.162.234.23.62.086.742.038.77-.35 1.197-.883 1.875-2.584.454-.937.519-2.041.422-2.428-.033-.155-.285-.525-.597-.74-.343-.244-.825-.487-1.042-.485m.178.713c.372-.004 1.09.594 1.172 1.012.008.746-.411 1.977-.738 1.795-.534-.662-1.132-.236-1.228-.484-.07-.729.4-1.682.717-2.322zm98.55.591c4.054.002 8.09 1.2 11.059 3.822l-1.578 1.463c-6.956-4.971-15.031-3.514-19.837-.167-4.744 3.315-8.948 10.679-4.826 21.025l-1.486 1.353c-4.61-8.337-2.133-19.332 6.025-24.55 2.873-1.834 6.559-2.884 10.256-2.957.124.014.263.013.387.011m-59.988 1.215c.124-.002.314.4.288.897-.024.591-.278 1.37-.679 1.546-.446.191-.74-1.172-.74-1.172a4.8 4.8 0 0 1 1.13-1.271m72.647.461c.17-.002.325-.003.465.01.449.058.453.462.025.855-.46.424-.707.443-1.16.106-.42-.306-.439-.523-.07-.792.169-.11.462-.16.74-.179m-77.932.095 1.349 1.662-4.678 3.765-.556.038-35.706 29.68-.014-2.64zm74.605 4.012-4.86 4.032c-9.726-5.065-17.517 3.97-14.765 12.173l-4.199 3.666c-7.532-20.732 14.468-27.813 23.824-19.87m-25.472-3.163h.047c.031.014.062.03.093.06.172.17-.168 2.923-.426 3.423-.09.187-.165.42-.164.53.002.232-.89 2.107-1.603 3.357-.258.47-.545 1.078-.62 1.374-.557 2.725-1.781-1.658-1.345-4.195.203-1.198 1.893-3.656 2.375-3.475.248.09.235.277-.203 1.23-1.224 2.654-1.518 4.04-.247 1.463 1.484-2.953 1.877-3.718 2.093-3.767m-82.605.053c.185.014.326.105.405.322.049.186.115.558.009.73-.257.562-.764.94-1.29.9-.232-.013-.482-.212-.516-.46a1.11 1.11 0 0 1 .315-.905c.367-.361.782-.599 1.077-.587m37.027.177c.572.024 1.178 1.586.799 2.29-.319.578-.382.47-.92-.658a14 14 0 0 1-.51-1.221l.476-.379a.3.3 0 0 1 .124-.032zm-.983.663s.6 1.096.749 1.98c.083.543.082.434-.508.208-.468-.29-.562-.46-.845-.814-.19-.34-.378-.586-.378-.586zm3.654.223c.31-.003.637.304.94 1.062 1.13 2.86 1.026 6.062-.257 7.568-.213.25-.26.267-.51.099-.202-.122-.232-1.49-.02-1.864.06-.125.253-.935.263-1.401.034-1.104-.261-1.24-.404-.213-.173 1.167-.35 1.992-.667 1.296-.159-.355-.24-.711-.368-1.098-.646-2.479.095-5.407 1.023-5.449m-4.928.739s1.084 1.417 1.538 1.909c.158.278.158.34-.104.436-.431.16-1.865-.802-2.441-1.091-.312-.245-.175-.433-.175-.433.399-.3.783-.584 1.182-.821m42.905.048c.588-.006.575.196-.034 1.088-3.457 4.994-2.753 4.256-.555 1.529 1.22-1.52 1.436-1.663 1.563-1.323.096.248-1.357 3.216-2.103 4.28-.396.548-1.732 1.48-2.394 1.813-1.646.842-1.464.498-.853-1.575.77-3.208 2.721-5.793 4.376-5.812m-44.927 1.73c9.484 23.677-16.487 34.08-28.197 23.12l1.365-1.088c16.291 11.096 32.37-6.684 25.006-20.598 0 0 .675-.567 1.826-1.434m2.188.566c1.564.169 3.87 3.032 3.98 4.631.245 1.131-.077 1.337-.628.535-.932-1.73-.827-.643-.018 1.088.427.865.516 1.92.083 1.972-.604-.118-1.896-2.2-2.293-3.066-.949-1.885-1.023-1.558-1.533-4.348-.114-.527.022-.808.409-.812m-4.71.782c7.209 13.916-8.326 30.618-24.134 19.828l4.739-3.781c8.244 3.977 17.457-.957 14.824-12.376zm72.067 2.597-13.03 10.895c-2.685-9.026 7.16-14.2 13.03-10.895m-24.215-.025c.433-.082.788 2.648.861 6.484.073 3.758.17 4.13-.99 2.745-.486-.57-1.096-1.106-1.349-1.616-.774-1.467-.528-3.008-.32-5.154.194-2.006.91-1.688.794.41-.078 1.353-.06 3.03.157 3.028.077 0 .091-.125.058-.311-.097-.387.366-4.727.546-5.241.09-.219.166-.328.243-.345m-35.908 1.66c.948.362 1.215 3.528.197 6.569-.434 1.31-1.105 2.171-2.12 2.695-.724.381-.88.259-.562-.397.591-1.079.92-2.185 1.152-3.57.093-1.353-.607-.273-.554.316-.56 2.523-1.283 2.889-1.189.247.072-1.958.325-2.8 1.239-4.13.456-.69.957-1.611 1.837-1.73m32.681.318c.387-.004.486.523.141 1.536-.24.702-1.065 2.98-.957 2.978.062 0 .936-2.06 1.118-2.39.288-.546.395-.656.659-.628.258 1.007-.006 2.284-.134 3.326-.526 2.74-2.383 5.557-3.104 4.726-1.16-1.37-.618-6.921.926-8.6.581-.644 1.057-.96 1.351-.948m-49.63.415c1.407 9.678-6.547 13.806-13.418 10.884.14-.032 13.418-10.884 13.418-10.884m32.494.18 1.381 1.818 2.54.127-1.295 1.925 1.296 2.456-2.83.047-1.635 1.882-1.412-1.693-2.477-.127 1.445-2.315-1.17-2.209 2.676-.123zm-21.297.829c.325.012 1.88 2.076 2.043 2.835.47 1.844.292 5.341-.36 5.224-.724-2.508-.444-3.816-.688-3.519-.444.456.28 4.316.043 5.266-.106.25-.496-.057-.936-.673-1.148-1.665-1.004-8.16-.117-9.117 0-.016.015-.016.015-.016m84.74 3.915-31.322 26.044 1.805 2.34 29.56-24.501zm-45.237.459c.14-.033.451.197 1.03.843 1.022 1.386 2.11 3.3 2.514 4.772.145.573.386 1.331.545 1.687.222.526.24.68.102.838-.55.674-2.812-1.025-3.542-2.633-1.03-2.272-1.053-4.322-.026-2.33.38.726.84 1.778.836 1.358-.002-.124-.452-1.641-.8-2.321-.206-.448-.998-2.148-.659-2.214m44.908.632.07 2.158-29.172 24.482-1.145-1.4s27.472-22.941 30.247-25.24m-45.536 1.332c.14.014.204.216.162.65-.139 1.432-.476 4.527-.41 4.79.047.17.456-2.056.56-2.445.503-2.056 1.254 2.86.799 5.055-.074.343-.222.904-.296 1.246-.074.343-.315.936-.421 1.077-.821 1.298-2.766-3.884-2.44-6.544.214-1.633 1.55-3.885 2.046-3.829m-33.748 1.139c.387-.02.453.352.384 1.145-.217 2.705-2.011 5.553-3.983 6.305-1.957.752-2.144.599-.984-.797.886-1.066 1.415-2.19 1.258-2.329-.078-.076-.274.36-.991 1.285-.9 1.144-1.035.183-.234-1.52.696-1.452 1.353-2.22 2.673-3.12.968-.633 1.553-.95 1.877-.97m17.74.811c-.396 11.67-3.288 24.332-8.89 35.362l-5.23.012c6.393-9.47 10.487-21.182 11.615-35.315zm2.29.021s.783.815 1.099 1.37c.347.602.446 1.145-.184 1.587-.735.63-1.047.4.161 1.955.644.817.429.959-.353 1.651-.812.708-.858.755-.104 1.726.816 1.031.957 1.2-.102 1.989-.951.725-.965.88-.225 2.053.677 1.08.894 1.062-.424 2.18-1.12.96-1.153.696-.066 2.44.394.647.363.694-.357 1.34-1.792 1.588-1.7 1.494-1.448 1.91 1.965 2.837 1.082 2.753-.852 4.096-.383.33-.286.702.58 2.121.74 1.204.635 1.469-1.1 2.653-1.796 1.248-1.856 1.42-.96 2.683.88 1.248.91 1.17-.53 2.46a38 38 0 0 0-1.179 1.116l-3.187.005s.674-.613 1.134-.96c2.624-1.94 2.611-1.738 1.513-3.14-.974-1.247-.882-1.326.1-2.036.707-.505 1.676-1.044 2.397-1.564.384-.284.103-.514-.545-1.734-.727-1.375-.756-1.219.577-2.337 1.472-1.212 1.504-1.166.697-2.71-.806-1.545-.82-1.42.192-2.24 1.503-1.228 1.58-1.167.791-2.603-.631-1.142-.63-1.111.425-2.18 1.07-1.083.948-1.004.303-2.006-.646-1.003-.617-1.143.241-1.898.92-.818.797-.77.027-1.818-.754-1.032-.738-.955.181-1.757.475-.425.966-.85.933-1.052-.068-.512-.556-1.236-1.028-1.93-.173-.262.182-.344.748-.94.581-.613.552-.457.11-1.26-.237-.432-.694-1.173-.694-1.173zm-8.54.018.913.02s.157.201.36.432c.58.6.615.956.03 1.273-.569.302-.347.734.125 1.428.503.74.502.647-.217 1.37-.736.598-1.121.773-.304 1.914.47.522.399 1.082-.308 1.54-.553.364-1.478.67-.503 2.057.475.989.505.926-.477 1.62-1.305.932-1.554.78-.951 2.14.666 1.515.729 1.53-.637 2.554-1.596 1.183-1.657 1.277-.992 2.683.666 1.422.693 1.065-.994 2.388-1.243.962-1.52 1.027-1.156 1.815.682 1.5.98 1.9-1.02 2.932-2.307 1.19-2.43 1.285-1.312 3.044.898 1.434.71 1.235-.781 2.09-2.153 1.251-3.106 1.79-3.179 2.18-.041.435 1.69 1.736 1.69 1.736l-3.016.08s-1.264-1.026-1.75-1.518c-1.36-1.336-1.371-.901 3.153-3.096 2.493-1.224 2.295-.942 1.885-1.652-1.199-2.099-1.248-2.316 1.014-3.46 1.97-.985 1.628-1.059 1.147-2.56-.416-1.3-.353-1.192.69-1.95 2.502-1.86 2.427-1.673 2.045-2.586-.381-.896-.68-1.312-.39-1.766.898-1.3 2.813-1.57 2.038-3.114-.367-.99-.493-1.222.611-2.089.997-.834.998-.725.367-1.821-.77-1.001-.663-1.173.473-1.963.812-.74.797-.723.34-1.448-.63-1.003-.6-1.034.305-1.821.735-.645.859-.678.386-1.387-.613-.94-.507-1.144.292-1.603.492-.286.49-.394.455-.875-.078-.046-.332-.587-.332-.587m11.28.06 4.193.016c1.34 7.798 3.68 11.003 5.023 13.474-5.29 8.54-4.097 15.626-.855 21.897l-13.26-.054c3.398-11.688 5.14-23.436 4.9-35.333m-28.747.027c.154-.018.266.245.518.677.836 1.436.24 3.477-.99 5.604-.926 1.594-1.079.369-.671-1.92.262-1.447-.456.72-.808 2.48-.19.95-.646 1.716-1.126 1.675-.465-.073-.326-1.41-.313-1.706.1-2.098.888-3.582 2.397-5.665.58-.784.807-1.128.993-1.145m42.764 4.104c.202-.002.48.072.823.27.265.153.748.443 1.075.625 1.167.64 1.263.84.697 1.484-.687.8-1.124.494-2.299-.829-.799-.892-.806-1.529-.296-1.55m-.398 1.76c.186-.002.575.21.951.642.768.876.668 1.623-.17 1.415-.346-.509-.525-1.283-.856-1.854-.079-.14-.033-.202.075-.203m37.429.11c-.743.008-1.985.985-2.222 1.982-.724 3.052-.726 2.913-.07 3.356.186.138.327.23.42.29.375.307.89.767.967.673.619.009 1.55-3.9 1.526-4.708.037-.855.067-.949-.139-1.335a.52.52 0 0 0-.482-.258m-38 .067c.047-.016.11.014.187.076.485.491.68 1.36.935 1.978.002.14-.058.358-.118.482-.425.813-1.068.028-1.145-1.37-.04-.776.003-1.133.142-1.166m37.883.602.093-.001c.496.025.424.539-.264 1.292-.367.393-1.107.587-1.358.341-.36-.353.388-1.324 1.19-1.566.123-.033.231-.065.34-.066m-84.148.428h.077a.9.9 0 0 1 .653.334c.33.415.198 1.054.033 1.584-.386 1.387-3.002 4.088-3.93 4.098-.559-.102 1.76-3.064 1.848-3.562-.172-.17-1.608 1.493-2.292 2.666-.303.532-.652 1.172-.836 1.283-.48.052-1.048.37-1.052.043.076-1.477 2.965-4.709 3.96-5.606.598-.581 1.12-.835 1.539-.84m6.98.14c2.227-.026-2.16 4.87-4.998 5.585-.88.228-2.52.277-2.63.092s.012-.342.382-.424c.587-.162 3.49-2.012 3.488-2.229-.003-.28-1.205.184-2.234.848-.66.427-.971.337-.621-.18 1.66-2.426 3.89-3.662 6.612-3.693m38.618.003c.124.014.25.26.334.82.398 1.051.432 1.33.05 1.645-.66.536-.817.382-.815-.83.005-.994.214-1.649.43-1.635M35.248 138.2s.808.302.472.694c-.23.267-1.237.045-1.238-.033zm112.097.036c.263-.018.266.23.133.853-.073.327-.395 2.04-.962 2.512-.077.047-.887-.44-1.121-.671-.11-.108-.422-.353-.47-.507-.145-.527.002-1.197.4-1.527.154-.126.462-.207.633-.21.123 0 .509-.13.848-.273.246-.111.43-.175.54-.177m-111.82 1.173c.541-.006 1.191.049 1.75.244 1.646.479 4.663 1.843 5.132 2.289.672.644-1.084 1.332-3.219 1.356-1.13.013-1.333-.218-2.89-1.164-.203-.137-1.107-.733-.847-.954.291-.298 1.162.08 2.236.643.357.183 1.208.127 1.206-.029-.002-.186-2.162-1-3.776-1.51-1.056-.346-1.045-.688-.381-.835.201-.003.48-.037.789-.04m-2.127.754s.453.398 1.03.827c.624.475 1.358 1.057 1.877 1.843.737.908 1.907 3.148 1.773 3.553-.3.936-3.412-.707-5.947-3.258-.83-.83-1.316-1.445-1.316-1.445l.965-.88s.86.72 1.844 1.594c1.844 1.642 1.837 1.067-.023-.652-.532-.491-1.016-.92-1.016-.92.027-.327.318-.61.813-.662m76 .066s.986 1.03 1.363 1.508c-6.046 5.94-8.367 14.245-2.529 23.08l-2.8-.015c-5.252-10.364-2.77-18.175 3.966-24.573m-51.21.247c.37-.02.036.434-.633 1.576-1.245 2.126-1.502 2.673-3.523 3.193-.524.13-1.268.03-1.577.064-.866.103-.48.005.857-.864 1.843-1.201.272-.578-1.436.296-.985.508-2.037.488-2.117.225-.048-.14.396-.532.687-.784 2.605-2.344 3.41-2.244 5.83-3.079 1.064-.385 1.664-.609 1.912-.627m-10.884 2.14c.943.006 1.826.105 2.602.283.512.118 1.364.217.644.862-.812.755-2.982 1.804-4.59 1.87-.232.002-3.546-.225-2.826-.948.138-.08.587-.053.973-.135 1.837-.347 1.339-.652-.919-.518-2.83.156-2.957-.138-.813-.737a18.5 18.5 0 0 1 4.51-.687c.156.014.295.012.419.01m15.118.22c1.254-.014 2.246.208 2.236.69.009.776-2.37 2.496-3.945 2.84-.37.082-.895.197-1.157.262-.54.13-3.574.024-3.87-.097-1.413-.512-.425-.725 2.17-1.018 1.129-.137 1.667-.423 1.665-.64-.001-.11-.837-.13-2.073.023-1.39.17-1.117-.236.606-1.125 1.154-.604 2.945-.934 4.368-.935m-23.304 1.069q.255-.003 1.304.451c1.506.434 3.585.939 4.994 2.492 1.142 1.106 1.425 1.475 1.182 1.866-.29.47-3.852.121-5.344-.53-.995-.424-2.166-1.328-2.7-2.114-1.306-1.911-.754-2.415.9-1.082 1.999 1.609 2.295 1.777 2.65 1.695.138-.033-.205-.355-.876-.86-1.67-1.24-2.497-1.914-2.11-1.918m12.307 2.052c1.671-.003 2.029.133 3.662.876 2.034.723 1.53 1.35-2.064 2.26-1.806.424-3.62.134-4.943-.69-2.898-1.801-2.717-2.16.526-1.358 1.07.268 2.123.318 2.198.115.045-.155-1.243-.483-2.283-.828-1.134-.376-.159-.34 2.1-.366zm83.575 7.75s-.37.175-.539.27c-.123.063-1.127.199-2.225.273-2.164.164-3.615.507-4.94 1.034-1.987.799-3.305 3.268-3.305 3.268 1.484-.094 9.871 1.428 12.205-1.612.488-.643-1.247 4.798-2.141 5.041-2.216-.27-3.136 3.22-2.921 3.078-2.234.864-3.961 1.38-3.39 3.983.244 1.132 1.388 2.486 3.814 2.148-.662 4.512 4.828 5.678 5.433.234 0 0 1.065-.198 1.483-.25 2.5-.602 3.108-4.275-.571-5.43-1.025-.299-1.073-.5-1.073-.5.192-.826.151-1.695-.448-2.667.814-1.936 2.83-5.686 2.83-5.686zm.384 1.13c.502.677-2.131 1.794-4.944 2.043-.634.054-2.01.178-2.056.24-.303.532 5.433.142 7.216-.857.616-.349.665-.038.408.493-2.074 2.68-7.08 2.02-10.983 1.551-.22-.23-.037-.496.837-1.22 1.61-1.308 2.766-1.74 5.3-2.002.727-.039 3.908-.634 4.222-.249m3.11 2.76c-.36 1.154-2.239 4.67-2.239 4.67-.23.236-1.063.4-.996-.486.005-.947 1.787-4.882 2.266-4.965.572-.053.995.377.968.782m1.193.267c.556 4.033 3.599 4.993 6.522 6.265.762.349 1.419.978 2.197 1.389 1.448-1.973-.188-5.823-2.724-7.069-1.882-.88-3.607-1.59-4.674-1.516-.634.053-1.31.45-1.32.93m1.56-.235c.325-.004.79.084 2.498.547 2.576.686 4.392 2.592 4.868 5.103.017.108.147 2.049-.287 1.976-.668-.195-1.031-.874-2.104-1.328-1.352-.56-3.233-1.3-4.39-2.359-.937-.86-1.442-1.77-1.56-2.561q-.176-1.233.833-.242c1.53 1.225 3.036 1.643 4.55 2.823.421.321 1.931 1.174.898.13-.704-.707-2.744-1.943-3.849-2.474-1.508-.713-2.323-1.605-1.456-1.615m-116.074 4.016 17.274 27.116c-4.246 2.254-6.355 3.24-13.416 2.682l.02.357-3.004-.168c5.18 8.129 11.58 18.714 9.758 37.204l21.042-.018.36.338c.311.214.769-.366.769-.366l9.5-.044.25.308 4.425-.034s-20.242-38.034-30.4-56.904c-4.153-7.596-8.507-10.965-16.578-10.47m108.95.91c1.13-.028 2.267.752 2.269 2.274.009.792-.66 1.903-.66 1.903l-1.548-1.474-1.469 1.476c-.718-.598-1.149-1.742-.924-2.397.452-1.124 1.45-1.772 2.332-1.782m-17.865.526c1.456 5.716 3.045 13.605-9.641 31.844-7.509 10.787-9.949 20.959-10.26 33.374l-.758.008c.358-6.808.406-19.173.406-19.173l.705-.63s-.315-.524-.461-1.144c-.244-1.038-.039-.699.58-3.486 2.59-13.466 19.43-40.793 19.43-40.793m-67.723 2.637 64.26.291-.864 1.688-62.188-.455zm85.66.487 2.393 2.335-2.338 2.635-2.458-2.582zm-1.955.985-1.3 1.397 1.128 1.2c-1.164 2.451-4.249.544-4.145-1.29.115-2.16 2.612-3.043 4.317-1.307m4.131 2.766 1.038-1.317-1.175-1.292c1.913-1.9 3.726-.228 3.914 1.355.189 1.69-2.451 3.6-3.777 1.254m-76.11-1.62 5.26.05-1.954 3.673-5.339-.018zm11.728.025 4.827-.008-2.047 3.736-4.89.008zm11.419.012 5.121.005-2.078 3.72-5.277-.003zm11.48-.004 5.245.003-1.908 3.719-5.446-.001zm11.681-.007 5.06.006-2.048 3.72-5.198-.004zm-55.87.02 3.404-.008-1.396 2.455zm84.784 2.36c1.95 1.563.587 4.141-1.44 4.195-1.391.031-3.43-2.338-1.223-4.274l1.454 1.335zm-71.522 1.98 4.935.007-1.865 3.361-4.843.008zm11 .017 5.416.002-1.912 3.361-5.153-.004zm11.605.01 5.4.002-1.758 3.36-5.446-.002zm11.573-.005 5.354.002-1.665 3.359-5.663.001zm-44.156.137 3.404-.007-1.456 2.688zm2.58 3.885 50.09.45-.85 1.625-47.963.008zm1.75 2.917 46.944.112-1.073 2.264-16.216-.067c-3.167-2.372-6.775-1.276-10.907.075 0 0-12.423.124-17.298.007zm-15.598 9.557 24.757 39.242-5.477-.063-23.51-36.91zm-4.97 2.556 23.368 36.68c-1.067-.02-2.073.038-3.14.019.434-6.84-5.048-10.056-8.283-10.222 1.938-8.006-3.886-11.374-7.761-12.014 1.57-10.41-7.002-11.884-7.14-11.773.037-.855-.124-1.475-.225-2.188zm-3.784.586c-.044.218.444 2.294-.489 1.917l-.067-1.91zm-4.92.055c.341 1.38 1.04 1.65 1.994 2.572 0 0-1.22.216-1.516.017-.514-.351-1.576-2.592-1.576-2.592zm3.647 2.336c.588-.006 1.073.485 1.08 1.076a1.085 1.085 0 0 1-1.071 1.083 1.06 1.06 0 0 1-1.064-1.075c-.007-.606.467-1.093 1.055-1.084m2.13.83c3.076-.204 7.538 3.117 6.353 9.313-.206-.433-.448-1.378-.95-2.056-2.121-2.866-4.615 1.061-2.926 2.674.828.783 1.203 1.09 1.127 1.168-1.892-.368-3.328 1.326-2.549 3.197 1.311 2.424 3.138 1.146 4.205-.295 0 0 .643 2.167 1.296 2.44.995.423 2.35-.12 2.817-1.321.692-1.795-.984-2.242-1.367-3.247 3.56.115 8.09 5.33 6.02 9.859.267-1.028-.826-3.346-2.97-2.748-1.064.37-1.449 1.943-.58 3.549.269.51.426.71.426.71s-.927.119-1.173.277c-2.781 1.724.798 6.406 2.87 3.478.213-.344.564-.752.564-.752.348.649.45 1.564 1.073 1.884 2.567 1.291 3.698-1.44 2.63-2.78-.611-.754-1.286-1.616-1.286-1.616-.114-.48 7.676 1.56 6.724 9.168l-20.625-.034c1.913-11.672-2.722-25.026-5.073-29.101l1.022-1.363c.253.51.685 1.779 1.43 2.02 2.391.765 3.115-.906 2.802-2.626-.165-.93-1.457-1.677-1.86-1.797m5.459 10.985c.557-.007 1.01.454 1.017 1.03.006.558-.453 1.014-1.01 1.02s-1.026-.454-1.017-1.014c-.006-.574.453-1.046 1.01-1.036m7.747 12.154c.573-.006 1.027.47 1.033 1.03a1.035 1.035 0 0 1-1.025 1.036 1.026 1.026 0 0 1-1.033-1.03 1.016 1.016 0 0 1 1.025-1.036"/>
    <path d="M130.489 222.968c7.8-.2 11.3-9 5.5-15.8-.8-1-.9-1.6.6-.6 3.9 2.6 11.4.9 11.8-7.1.5-9.8-13.2-12.7-15.8-2.2-.1 1.1-1 1.1-.8-.5.2-4.2 1.6-8.2 3.4-12.1h-9.3c1.8 3.9 3.1 7.8 3.4 12.1.2 1.6-.7 1.6-.8.5-2.6-10.4-16.3-7.6-15.8 2.2.4 8 7.9 9.7 11.8 7.1 1.5-1 1.5-.4.6.6-5.9 6.8-2.4 15.6 5.4 15.8M48.089 26.468c7.8.2 11.3 9 5.5 15.8-.8 1-.9 1.6.6.6 3.9-2.6 11.4-.9 11.8 7.1.5 9.8-13.2 12.7-15.8 2.2-.1-1.1-1-1.1-.8.5.2 4.2 1.6 8.2 3.4 12.1h-9.3c1.8-3.9 3.1-7.8 3.4-12.1.2-1.6-.7-1.6-.8-.5-2.6 10.4-16.3 7.6-15.8-2.2.4-8 7.9-9.7 11.8-7.1 1.5 1 1.5.4.6-.6-6-6.8-2.5-15.6 5.4-15.8"/>
</svg>
