<svg xmlns="http://www.w3.org/2000/svg" xml:space="preserve" width="178.6" height="249.4" viewBox="0 0 178.6 249.4">
    <path fill="#fbfbf6" stroke="#7f7f7f" stroke-width=".4" d="M3378-30.5h161.5c4.7 0 8.5 3.8 8.5 8.5v232.4c0 4.7-3.8 8.5-8.5 8.5H3378c-4.7 0-8.5-3.8-8.5-8.5V-22c-.1-4.7 3.7-8.5 8.5-8.5z" transform="matrix(.99553 0 0 .9968 -3353.968 30.846)"/>
    <path fill="#e2cf00" d="M112.285 21.377s20.21 29.306 27.079 34.49c.498.198 8.96-1.396 8.96-1.396-4.281-10.367-7.068-21.133-4.281-33.194zm11.15 46.351c-13.937 3.987-27.775 7.675-42.907 1.196L64.002 84.873c-.1.399 19.91 9.071 20.21 8.074-9.856 26.515 5.475 31.4 15.231 2.193 12.743-1.694 28.074-3.389 40.717-12.26-10.751-6.58-16.725-15.252-16.725-15.152m-83.724 4.685c-5.276-3.29-9.358 3.39-5.575 6.778-.498 1.994-.597 4.885 1.294 6.18 1.693 1.097 4.978 0 5.376 0 0 0 .1 3.49-.2 3.49-.497 0-2.388-1.596-3.583-1.994-3.883-1.197-9.458-1.795-9.358-1.595.2.299-.996 1.196 3.385 3.887 1.593.997 6.77-.1 10.851 1.196 2.489.798 4.779 2.094 6.073 1.396 3.584-.997 4.978-5.682 4.778-5.682-.1-.1-10.85 2.791-9.855 3.29v-4.087c4.18.498 8.063-2.592 3.882-7.875 3.286-2.99-1.095-10.367-7.068-4.984m17.62 18.64c-10.353 10.467-31.558 30.203-31.558 30.203l.2 14.753 20.707 18.64c1.593-19.736 12.842-38.177 23.494-47.448.996-2.89-10.552-15.151-12.842-16.148m73.97 3.589c-1.594 12.16-2.987 28.708-23.495 47.149 3.583 6.08 8.063 12.26 14.634 15.25.498.997 18.816-19.138 30.165-28.608l-.1-12.858zm-92.586 2.691c0 .3-.796 3.489-.995 3.39 0 .199 2.09-.798 2.29-1.695.199-.798.696-1.795.696-1.994-.398-3.29-1.294-.897-1.99.3m-7.665 8.473c-.697 1.794-1.494 5.084-1.195 7.277 3.684 1.894 4.68-5.882 3.684-6.58-.598-.199-1.991-.697-2.49-.697m113.49 35.187c-.298 1.495-.298 1.994.399 2.293 1.195.498 1.692-.1 2.688-2.592.597-1.495 1.095-3.688.597-4.585-2.19-1.595-3.385 3.788-3.683 4.884m-64.31 12.959c-15.133 2.392-30.165 3.887-42.211 13.257 1.393-.2 15.829 13.557 16.625 15.45 22.2-10.865 43.804-2.69 43.804-2.69l16.227-15.75c.597-.3-17.621-7.875-21.106-9.171 12.544-33.592-7.267-28.509-13.34-1.096m59.433-3.888c-.996.797-1.494 1.495-2.29 2.592l.796 1.296 1.991-2.193zm-14.236 14.155c2.09-.997 9.557-4.586 9.855-3.689l-.199 3.589c-1.095-.399-8.462.797-4.181 8.473-2.688 6.08 3.285 9.17 7.466 5.183 8.761 2.99 7.567-5.781 5.775-7.177 1.393-2.193-.399-6.977-1.295-6.977 0 0 7.666 1.694 6.87.398-.3-.598-.797-1.694-2.49-2.79-1.99-1.297-5.375-.798-8.163-1.396-2.986-.598-4.878-1.695-7.367-1.795-3.683.2-7.267 3.49-6.271 6.18m-84.92 28.508-10.552 2.791s3.385 7.875 4.58 14.952c1.393 8.672.298 18.042.298 18.042l30.463.2z"/>
    <path fill="#d40000" d="M67.885 228.612c-13.34-19.139-25.785-37.38-42.211-57.515 0 0 0-7.776.1-15.45l50.573 72.766zm27.078-31c-.398-3.689-1.195-7.975-2.19-11.763l9.258-8.772c-1.095 7.875-2.588 13.856-7.068 20.535m44.102-27.512c2.091 2.79-1.393 4.286-2.688 3.09-2.688-2.492 1.195-5.084 2.688-3.09m-91.49-17.345c-1.493.997 2.788-24.023 14.535-36.981 7.069 20.634-5.475 32.097-14.534 36.981m57.94-.1-7.764-2.093 3.683-10.964s7.566 1.694 6.87 3.987c-1.992 7.376-2.788 9.07-2.788 9.07m-36.137-4.186c2.09-3.489 3.683-7.376 5.177-11.264l7.864-.2-3.882 10.866zm47.089-15.45c-6.073-12.062 1.095-31.2 14.236-36.483-.498 12.36-4.281 24.72-14.236 36.483m-40.618-3.39c.299-4.286-.2-8.771-.797-12.759 8.363 1.894 17.422 3.19 27.477 3.689l.996 11.563c-8.96-1.695-18.119-2.792-27.676-2.492m20.01-17.643c.896-3.588 1.991-7.077 3.584-10.466l9.557-.4c0-.198-4.082 6.38-4.978 11.065-1.592-.199-8.163-.199-8.163-.199m-18.119-2.791c-2.787-.997-6.57-1.296-8.063-3.39l2.887-9.17 8.561 2.592zm24.092-87.818 6.67-.1s32.256 41.467 44.302 57.516c-.399 1.594.1 15.55.1 15.55-17.024-24.123-51.072-72.966-51.072-72.966M39.91 79.19c-1.792-1.894 1.095-3.688 2.29-1.894 1.095 1.496-1.294 2.891-2.29 1.894m36.238-6.778c.1-9.57 6.869-21.033 6.77-20.734-.1 0 .995 9.37 2.289 12.36-.299.5-8.76 8.972-9.06 8.374"/>
    <path fill="#131f67" d="M24.28 19.782v209.827h130.017V19.782zm119.066 1.595c-1.095 11.662-1.195 20.633 4.779 32.695-1.095 1.096-9.259 1.495-11.847 2.79 0 .3.697.898.697.898 2.688-1.296 13.24-2.392 13.24-2.392-4.38-7.676-8.064-22.628-5.276-33.991h7.865v56.12s.1 10.665.298 16.746c-4.081-5.283-9.258-12.46-12.742-17.843-4.281-5.98-8.96-13.058-13.838-19.637-1.394-2.093-3.485-4.784-5.177-7.177-2.589-3.788-4.779-6.678-7.467-10.666-2.887-4.186-5.674-7.974-9.06-12.858-2.886-4.087-3.085-4.685-3.085-4.685zm-49.777 0c4.879 8.572 13.739 11.563 15.929 12.16l1.294 1.895c-10.353-1.994-15.928-8.772-18.517-12.86-.199-.298-.199-1.195-.199-1.195zm-4.878 0c-1.393 3.19-3.285 5.183-5.077 7.177l.1-2.094c.1.1 2.688-2.89 3.584-5.083zm2.39 0s0 .697-.1 1.096c-.996 3.39-7.467 9.769-7.367 8.872l-.1-1.695c0 .1 4.879-4.785 6.173-8.273zm-4.68 0c-.497.897-2.389 3.887-2.588 3.09l.2-3.09zm14.734 0c.797 1.196 1.593 2.193 2.39 3.389.199.2.298.498.199.598-.1.299-.498.1-1.593-.897-1.792-1.595-2.987-3.09-2.987-3.09zm-6.57 0h1.593c3.285 5.482 9.159 8.472 11.25 9.17.497.598 1.094 1.695 1.393 1.994-5.475-1.595-11.648-6.28-14.236-11.164m3.883 0c1.791 2.492 4.48 4.386 6.072 5.582.797.698 1.892 1.993 1.792 2.292-3.484-1.096-7.466-4.984-9.358-7.874zm-6.77 1.694.995 1.495c-2.29 3.888-5.276 7.277-9.059 10.068v-1.993c4.38-3.19 6.272-6.48 8.064-9.57m1.593 2.193c2.787 3.788 8.76 9.57 18.318 11.264 0 0 .497.498 1.294 1.595.995 1.395.995 1.395 1.194 3.688.1 4.087 1.394 9.67 2.788 13.258-.2.897-.299 1.295-1.991 3.588-6.87 9.27-21.404 18.042-28.572 6.08-2.39-3.787-2.588-11.164-2.788-15.749 0 0 0-.299.1-.399.2-.797.398-.697 1.692-.299 1.295.598 2.688.1 4.082-.299 1.593-.598 1.693-.1.2 1.296-.499.499-1.195 1.296-1.096 1.196.1 0 .996-.398 1.394-.697 1.195-.898 1.493-.599 1.095.498-1.892 4.386-2.29 4.486.398 5.781.598.3.996.499 1.294.798 1.892 1.694 1.195.797.697 0-.796-1.296-.1-1.894 1.294-1.097.896.499 2.091.898 2.688.698 1.195-.399 1.593-1.794 1.295-3.29-.299-.797-1.991-2.292-1.593-.797.995 0 1.891 1.396.995 2.393-.697.897-1.891.398-3.683-.798-.996-.797-2.19-.399-2.19.598 0 .598-.896.499-1.394-.299-.299-.399-.1-1.694.498-2.99 3.783-7.676.597-15.052-5.974-12.959l-1.393.399v-2.89c3.484-2.891 7.466-7.078 9.358-10.567m3.783 13.756c-.996 1.196-.598 2.293 1.493 1.196 1.792-.897 1.991-.997 3.982-1.096 2.788-.1 5.177.797 8.263 2.691 1.991 1.196 2.29 1.296 1.792.598-1.593-3.19-11.25-7.974-15.53-3.389m-9.259.3c1.892.498 3.684 1.694 3.385 2.292-.1.2-.199.2-.498.1-1.393-.698-3.584-1.795-6.77-.4-.398.2-.597-.099-.597-.498 0-.797 1.394-1.495 2.887-1.595.598 0 1.096 0 1.593.1m11.05 2.491c-1.094.598-1.493.897-1.99.598-1.195-.598-.896-.1-.2 1.097.498.897.498 1.096.399 1.595-.1.598-.1.598.498 1.295 1.095 1.396 2.19 2.791 3.783 3.888.497.299 1.194.698 1.194.698.2 0 .1-.1-.199-.399-2.09-1.994-3.683-3.788-1.593-2.99 2.49.797 4.779-.2 6.67-.898.797-.199 1.593-.398 1.792-.398 1.792 0 2.19-.698 1.095-1.894-3.783-4.286-6.968-5.283-11.448-2.592m9.06.798c.797.697 1.195 1.096 1.095 1.295-.1.2-.697-.1-1.692-.697-2.09-1.097-4.38-1.396-7.268-.499-2.29.698-1.592-.398.896-1.395 2.091-.897 4.878-.598 6.97 1.296M86.8 41.113c1.692 0 3.484.499 4.679 1.595.796.698.199.897-1.095.3-2.091-.898-3.783-.998-5.476-.2-.498.299-1.095.498-1.294.498-.299-.199-.398-.797-.2-1.096.698-.698 2.092-1.097 3.386-1.097m28.472.598q.15 0 .597.599c.498.697.498 1.096.1 2.392-.498 1.595-.697 1.296-.896-.897 0-1.396 0-2.094.199-2.094m1.692 2.293c.2 0 .399.3.797.997.299.498.199.698-.597 2.99-.3.997-.697 1.795-.697 1.795-.2.199-.2.199-.299 0-.597-.698-.498-2.193 0-3.888.398-1.196.597-1.794.796-1.894m-15.53.2c.1 0 .398.1.398.1 0 3.488 2.688 2.79 2.987.298 0 0 .697-.1.796.1.299.498-.398 1.993-1.493 2.492-.796.399-1.891.299-2.588-.3-.2-.298-.697-1.594-.598-2.192.1-.3.299-.499.498-.499m-1.593.398c.299 0 .498.1.598.399l.597 1.794c-.398.499-1.991-.498-1.991-1.296 0-.498.398-.897.796-.897m-10.95 0c.398 0 .597 0 .597.399.1 1.196-.996 2.392-2.49 2.492-1.393.2-2.19-.997-2.19-2.093 0-.798.698-.897.797-.3.2 1.895 1.892 1.994 2.588.997.3-.398.2-1.395.697-1.495m17.72.399c.1 0 .299 0 .498.1 1.493.498 1.493.697.298 1.196-1.493.498-1.593.598-1.294-.399.2-.598.2-.897.498-.897m-15.73.2c1.096.099 1.195.996.2 1.295-1.394.598-1.892.598-1.394-.299.298-.698.597-.997 1.194-.997m-6.869.298c.1 0 .299 0 .398.2.2.498.399.897.697 1.395-.199.2-.796.2-1.095-.1-.697-.498-.597-1.495 0-1.495m34.545 1.097c.399 0 .896.698.996 1.196-1.493 1.894-1.294 5.482-1.593 6.579-.299.897-.398.1-1.195-2.193-.398-.897 1.295-5.483 1.792-5.582m1.494 1.993c.298.2.796.598.896 1.296 0 .399-.2.897-.3 1.495-.298 1.296-.696 3.589-.895 5.782-.1.897-.1 1.794-.1 1.794-.497.897-1.393-1.495-1.294-3.389.299-1.495.498-6.778 1.693-6.978m2.19 2.692c.199.299.298.498.398.797.1.399 0 .997-.2 2.093-.696 2.99-.596 6.18-.099 9.47.1.698-.398.3-1.095-.897-.398-.698-.697-1.595-.796-2.592-.299-2.292.199-5.482.697-7.974 0-1.196.199-2.193 1.095-.897m1.095 1.794 1.195 1.495s-.498 3.29-.498 5.084c-.1.698.597 7.875.796 8.473-.697-.798-1.095-1.296-1.891-2.393-.1 0-.797-7.177-.299-9.868.299-1.595.697-2.791.697-2.791m1.891 2.89c.2 0 .498.2.797.699.298.398.398.697.398 1.295 0 .4-.2.698-.2 1.296 0 3.987.499 7.676 1.196 11.264.199 1.296-.2.798-.996-.1-.697-.697-.697-.996-1.095-2.093-.1-.2-.796-7.476-.796-8.074 0-2.293.1-3.489.398-4.087.1-.1.199-.2.298-.2m-4.38 7.975s-1.394.698-1.792.499c-.597-1.595-2.688-5.981-2.787-6.679 0-.3.896-1.396.896-1.396 1.194 2.492 2.29 5.084 3.683 7.576m-26.282-5.183c-.398.498-.896.299-1.892-.2-.497-.199-.398.1-1.294.499-.697.299-.896.399-1.294.399-.597 0-.796-.2-.796.199 0 .2 0 1.296-.2 1.794-.199.698-.398.997-.199 1.196.299.3.498.1 1.195-.498.996-.997 1.692-.698 2.887-.3 1.294.4 1.593.599 2.788.2 1.692-.598 2.688-.598 3.384-.2 1.195.699 1.494.699.996-1.295-.2-.698-.2-1.695-.299-1.894-.1-.2-.398.399-.697.598-.597.399-.896.399-2.29 0-.796-.498-1.692-1.296-2.29-.498m21.603.2c.498 1.195 2.588 5.282 2.489 5.78-.398.4-.896.599-1.294.3-.996-1.894-1.295-2.891-2.19-4.984-.2-.499.497-1.795.995-1.097m11.05-.1c.1 0 .498.299.697.598.697.996.797 1.096.797 2.093.1 3.688.498 7.974 1.593 11.363.199.698.597 1.496.597 1.595-.299.499-1.991-.897-2.489-2.89-.697-2.592-1.095-5.383-1.294-7.177-.299-3.19-.299-5.483.1-5.583m-12.344 1.993c.597 1.196 1.294 3.09 1.891 4.286.2.499-.896.897-1.194.798-.498-.399-.697-1.296-.996-1.894-.995-2.193-1.194-2.193-.597-2.89.199-.5.597-1.097.896-.3m14.634 1.296q.15 0 .299.299.895 1.047 1.194 1.794c.1.399 0 .698.1 1.396.1 1.894.597 4.485 1.991 9.669.1.498.299 1.096.299 1.296-.1.996-1.494-.599-1.991-2.193-.498-1.795-1.294-4.187-1.593-6.28-.398-3.39-.697-5.981-.299-5.981M113.58 63.54c1.194 2.692 1.294 2.692.497 2.99-.796.2-.796.2-1.692-1.694-.697-1.395-.796-1.495-.2-1.993.797-1.097.996-.1 1.395.697m-16.327-.598c-.1 0-.498.3-.896.499-.996.398-2.688.398-3.684.1-1.891-.698-1.294.199.3.797 1.293.399 3.782.1 4.18-.698.2-.299.299-.698.1-.698m14.136 1.396c.996 1.595 1.394 2.293 1.195 2.392-.199.2-.995.499-1.294.3-.398-.2-.797-1.197-.996-1.994.1-.4.797-.997 1.095-.698m-26.182.698c.498 0 1.692 1.595 1.394 1.894-.1.199-.498 0-1.593-.3-.398-.1-1.195-.199-.896-.797.199-.1.896-.797 1.095-.797m25.087 2.193c-.1.299-.896.299-1.194.299-.299-.598-.398-.897-.398-1.296.1-.2.696-.897.895-.698.1.2.598 1.495.697 1.695m21.703-1.496q.3 0 .896.898c.796 1.196.697 1.096 1.294 3.887.697 3.19 1.494 5.383 2.29 8.573 0 .498-.2.398-.796 0-.996-.598-1.295-1.197-1.593-2.99-.498-2.792-1.593-5.384-1.991-8.773-.3-.997-.3-1.595-.1-1.595m-24.291 1.097c.597 0 .498.897.299.997-.399.398-1.593.299-1.792.299-.399-.698 1.095-1.296 1.493-1.296m27.178 2.99c.2 0 .597.698 1.493 1.894.797 1.097.598.997 1.095 2.791.697 2.592 1.792 4.486 2.49 6.878 0 .3-.3.2-.598.1a10 10 0 0 1-1.692-1.097c-.399-.398-.399-.897-1.394-4.485-.398-1.296-.498-1.595-.996-3.589-.398-1.794-.597-2.492-.398-2.492m-87.607 7.775c2.788 5.084 1.692 7.277-4.181 8.074-.398-.1 0 2.592 0 3.788 2.986-1.694 6.57-2.093 9.856-3.19-.896 2.891-2.49 6.18-7.268 5.682-4.978-3.887-10.851-1.595-14.833-3.09-2.19-.797-2.987-3.19-2.987-3.688 2.588.3 5.575.798 8.064.598-2.788-2.093-1.991-5.084-1.593-6.38-3.186-4.086-.498-8.672 4.181-7.575.498.1 1.394.598 1.394.598 4.48-4.187 9.756-.299 7.367 5.183m91.29-2.492c.2 0 .598.499 1.394 1.595 2.49 3.49 4.58 6.679 4.58 6.878-.1.598-2.688-.399-3.285-1.296-.697-.996-2.788-5.98-2.788-6.778 0-.299 0-.399.1-.399M38.716 89.857c1.295.2 1.593.3 1.593.798.1.398-3.086.498-3.484.199-.299-.3.1-.798.398-.897.498-.2.996-.2 1.493-.1m88.304.498c-17.92 8.473-25.286 31.1-16.227 48.345l-1.195.898c-8.86-18.342-2.29-37.879 12.146-47.847.597-.399 1.892-.698 2.489-1.096 0 0-5.874 1.395-7.865 2.093-.398 0-1.593.399-2.887 1.794-1.095.997-4.58 5.881-4.48 5.98l-9.258.4v.299l9.06-.2c-9.359 15.45-7.07 30.104-1.295 40.47l.1.1c.298.2 1.194-.399 3.086-2.193.796-.698 1.692-1.595 2.09-1.993 1.095-.997 2.788-2.791 3.883-4.087-6.272-12.86-.1-29.805 14.634-37.38 0-.4-.199-1.695-.199-1.695s-.597-.498-.896-.498c-16.426 7.276-22.997 25.219-16.327 41.566l-1.095 1.196c-8.362-16.945.598-38.077 16.327-44.158 0-.399-.299-.897-.796-.598-16.925 7.875-24.292 28.01-16.029 45.155l-.995.897c-9.458-18.74.498-39.872 16.028-47.049.597.1-.299-.399-.299-.399m-91.091.1s-.1.997.199 1.296c.2.698-.1.598-.697.498-1.493-.398-.299.499.896 1.197 1.195.697.996.697 0 1.295-.697.4-.597.598-.498.997.1.499.2.2.498-.1.597-.598 1.095-.697 1.693-.697.796 0 .896.698.796 1.196-.299 1.096-1.394.997-2.29.797-1.493-.398-3.882-2.99-3.882-4.485-.2-1.495 1.593-1.994 3.285-1.994m6.57.399c.598.2 1.295.498 2.091.797 1.095.399 2.19.897 2.887 1.396 2.19 1.495 2.09 4.386 1.892 4.685l-11.25 10.765-1.195-.598c-1.891-.997-2.389-1.495-1.294-1.993.498-.3.697-.798.797-1.396.1-.698.1-.598.497-.897.797-.598.797-.797.797-1.794 0-.598.1-.897.299-1.296.199-.3.398-.997.497-1.794 0-.1 0-.4.1-.598.1-.599.299-.798.498-.898.1-.1.298-.598.497-.996.3-.898.3-.798.797-.698.697.1.597.598.597 1.296 0 .299-.299.598-.199.498s.597-.299.697-.299c.199-.1.498 0 .498.399 0 .2-.1.598-.1.897 0 .797 0 1.694.2 2.293.796 2.89.696 2.492.397.1-.1-.599-.1-1.396-.1-2.094.1-.498.2-1.097.4-1.495.497-.897.497-.997-.598-1.495-.398-.2-1.095-.4-1.195-.698a2.65 2.65 0 0 0-1.394-.997c-1.592-.399-2.588-1.994-2.29-2.193.2-.2.797 0 1.195.1 1.494.1 1.792 0 2.49-.598.397-.3.497-.598.796-.598.1-.1.497.1.696.199m76.756 1.694c-15.132 12.261-17.82 32.197-10.254 47.548l-1.294.997c-9.458-18.042-3.086-37.48 8.562-48.046zm-87.408 1.496c.299 0 .598.398 1.593 1.495.697.797 1.493 1.395 1.892 1.694.896.4.696.3 0 .997-.797.897-.3 1.595-1.295 1.196-2.389-1.096-3.982-4.386-2.488-5.183.1-.2.199-.2.298-.2m-1.194 3.389h.199c.298.1.597.598.995.997 1.095 1.096 1.494 1.495 2.39 1.893.796.4.796.499.298 1.097-.199.2-.298.498-.398.698 0 .2-.1.398-.2.398-.895.2-3.981-1.694-4.08-2.99 0-1.096.298-1.994.796-2.093m6.47.398c.498 0 .797.499.797 1.197 0 .498-.299.797-.896.996-1.294.499-2.09-.398-1.195-1.495.399-.398.896-.698 1.295-.698m-.796 3.09c.996 0 1.294.798.498 1.496-.697.698-1.991.698-1.991-.1 0-.498.896-1.395 1.493-1.395m-6.073.997c.697.2 2.29 1.396 2.987 1.496 0 .398-.398.498.2 1.196.298.299.298.598.099.698-.797.398-3.584-.898-3.783-2.293-.1-.698.1-1.097.497-1.097m3.684 1.695c.995 0 2.09.1 1.891.498-.1.3-.398 1.197-.896 1.097-.199-.1-.398-.3-.597-.399-.398-.598-.597-1.196-.398-1.196m36.337 3.987c2.787 2.592 12.942 29.107-8.263 48.544l-4.48 1.396c20.408-16.049 17.024-38.875 11.449-48.644 0-.299-.1-.299-.598.2-.398.398-.497.498-.298.597 6.172 9.57 8.561 36.683-15.929 49.74-.398.4.398.4.398.4 0-.4 11.05-2.99 10.254-3.09 10.254-9.071 19.115-30.702 8.064-49.641-.199-.3-.597.498-.597.498m-3.485 2.99-.1.599c8.861 17.543.4 38.975-16.127 46.85.299.199.598.298.896.498 18.716-10.168 24.092-31.5 15.929-48.146zm-1.493 1.296-.1.598c7.368 14.853 1.494 35.586-16.027 43.96-.2.897 0 .598.796.598 20.309-10.965 22.2-31.699 15.829-45.156zm-1.294 1.795c-.597.797-1.593 1.196-1.991 2.093 5.874 15.65-1.692 30.701-14.634 37.081 0 .797-.598 2.691.796 2.392 15.929-7.276 22.897-26.515 15.929-41.666zm80.14 30.203c.598 0 1.096.2 1.693.299 1.991.299 3.285 1.694 2.39 2.592-.3.299-.698.1-1.992-.499-.597-.299-.697-.598-.796-1.196-.1-.797-.299-.897-.498-.3-.2.599-.398.998-1.095.798-1.991-.398-1.294-1.694.299-1.694m-21.204 13.357c-4.779-2.691-10.653-7.576-13.938-13.158-1.692 3.19-3.584 8.872-3.584 8.872l-7.466-2.094-.1.2 7.367 2.093-.697 2.492c-.1.3-1.194 3.09-1.194 3.09l11.548 5.383c-.697 1.096-1.493 1.894-2.489 2.89-.597.599-.597 1.396-.597 1.396l15.928-15.25s2.09 3.09 2.788 3.787c.697.698.896.797.1.997-3.784.598-6.67 3.389-5.675 7.276.199.4.498.3 1.194-.199 2.49-2.293 8.562-4.386 8.761-3.788v2.393c-6.57.1-5.874 4.984-5.376 7.575 0 .1-1.891 1.695-1.891 1.695.697.399 1.294.698 1.99 1.196-.597 3.19 2.19 7.875 7.567 5.482.498.499.896.997 1.394 1.595.597-.598 1.194-2.193 1.194-2.193 2.688 1.196 8.263-1.495 5.376-7.775l1.593-1.495-1.493-.997c0-1.595-.299-2.99-1.195-4.386 0 0 2.489.598 4.38.798 1.195.1 2.091.1 1.991-.598 0-.2-.199-1.197-.298-1.496-.598-1.594-3.485-2.79-6.272-2.99-.498 0-.996 0-1.095-.1-.2-.199.1-.498.398-.498 1.493.299 2.987-.897 3.285-2.293.1-.299.399-.697.797-1.196.796-.897.896-.897.896-2.093 0-.897.1-1.097.597-1.695a3.99 3.99 0 0 0 .498-3.09c-.1-.399-.398-.897-.1-1.794.498-1.495-.597-2.791-1.891-3.589-.1 0-.1.1-.2.2-1.194.399-2.687-.499-2.687-.499-.299-.199 1.095-8.074 3.882-7.376.498.3.697 1.695.598 1.695.1 0 .199-.798 0-1.396-.2-.598-.598-1.096-1.494-.897-.697.1-1.393.997-1.792 1.395-1.294 1.695-1.294 2.792-1.792 4.586-.199.797-.199.797-1.393-.1-.797-.698-1.195-.897-.996-1.296.1-.2.697-.697.697-.697l10.652-9.869v98.883h-58.04l.399-12.958c1.095-8.872-.797-27.612-2.29-29.406 1.095-1.296 4.58-4.286 4.38-4.386l-.497-.3-1.792 1.695-4.48-1.395c-1.892-1.296-3.883-2.592-5.874-3.09-3.285-.897-9.657 1.894-9.756 1.894-10.155.797-18.418 4.884-18.219 4.884-.398-.399-.995-1.694-1.095-1.694-5.276-7.377-10.453-11.464-17.521-16.448l8.96-4.984-21.205-22.228-.2-18.043L56.238 92.35c.199-.498 9.756 6.778 13.34 12.76.697-2.892 1.991-5.583 2.987-8.474.1-.299 6.072 2.193 7.864 2.293.299 0 .498-.3.498-.3l-7.964-2.59 1.593-4.686s.597-1.296-.1-1.495c-3.584-1.196-6.969-3.19-10.453-4.984 0 0 1.593-1.794 1.593-1.894s.697-.997.498-1.395C64.3 83.278 49.965 96.635 49.965 96.635c-.398-2.292-1.095-3.09-2.489-4.485.797 0 1.991-.798 2.589-1.296 2.09-1.495 3.285-4.286 2.986-5.881-1.991.598-3.882 1.395-6.371 1.894-1.394.299-2.788.897-3.584 1.595l-.1-2.592s3.385.598 4.978-1.695c1.394-1.993.796-4.186.498-5.382 0-.3 0-.2.497-.798.399-.399 1.096-.897 1.096-.897 0-.1-1.792-.797-2.091-1.396.498-4.685-3.285-6.578-6.471-5.681-.597.199-.896.299-1.593-.499l-.995-.997s-.399.898-.598 1.296c-.597 1.196-.796.897-2.19.897-3.385.2-4.978 2.891-4.181 6.38.199.797.1.698-.398 1.695-.3.498-.697 1.196-.697 1.196s.597.299 1.095.498c.597.3.697.598.697 1.196.1 1.396.398 2.293 1.194 3.49-2.688.099-4.778-.2-7.168-.998.399 3.788 3.087 5.084 6.471 5.682 0 0-.398.3-.696.498-.797.2-1.295.898-1.295 1.496-.1.598-.497 1.196-.896 1.495-.497.498-.995 1.096-.796 2.293-.1.897-.299 1.196-.498 1.495-.498.697-.697 1.395-.597 2.292.1.4.199 1.296.1 2.293-.1 1.595.398 2.093 1.094 3.19.498.698.399.698.3 1.196a34 34 0 0 1-.797 2.791c-.598 2.093-.598 3.688-.1 4.087.797.598 1.593.399 1.991.299 2.987-.897 2.49-3.888 2.589-5.782.1-.498.298-.797.398-.697.796.997 1.692 1.595 2.887 2.193-3.982 4.087-6.471 6.479-11.548 10.965V21.277h57.243s.1.797-.1 4.386c-.199 7.277-.597 14.852-.1 22.229.1 2.591 0 5.083.4 7.575.397 2.492.497 5.084 1.691 7.377.498 1.196.498 1.196-1.294 2.79-.896.798-1.593 1.695-1.593 1.795 0 0 0 .2.1.1l.796-.798c.498-.598 1.295.2 3.983.897.497.2 1.294.698 1.891 1.097 4.082 3.389 9.756 2.392 14.037.498 1.195-.498 1.493-.598 3.484-.797 7.168-.897 14.933-3.987 14.933-3.987l.896 1.594s.399-.1.598.3c4.181 7.874 17.72 16.845 17.422 16.447l-8.86 4.884c6.47 7.975 21.304 21.531 21.304 21.531v19.537c-3.982 3.19-7.865 6.779-11.35 10.367-.995.997-1.692 1.595-1.293 1.595.896-.1 1.692.797 2.389 1.396.498.498.398.498-.2 1.196-.397.498-.497.598-.497.997 0 .697 0 1.196-.597 1.694-.399.498-.598.798-.697 1.396-.1.598-.1.897-.498 1.495-.697.1-.697 1.096-.597 1.595.697.697.398 1.495.398 1.296-1.294 1.495-2.688 2.69-1.792.697.398-.797.498-1.395.498-1.395s-.598.698-.996.997c-.498.498-.697.199-.697-1.296-.1-1.097-.497-2.692-.697-2.99-.1-.2-.1.099-.1 1.195.1 1.396.2 1.795-.298 3.29-.697 1.894-1.194 2.193-.1 2.093.996-.1 1.892-.1 2.39.499.199.199.398.598.796.797a8.6 8.6 0 0 1 1.991 1.495c1.494 1.695 1.096 3.19-1.891 2.193-1.593-.498-.498-1.196 1.095-1.096.996.1 1.195-.3.299-.598-1.693-.3-1.892-.499-2.987.797-4.58-.498-7.168-2.99-8.462-5.183-.498-.897-.697-.997-.299-1.495.1-.2.1-.1-.199.1-.199.298-.896.498-1.095.697-.796 1.695-2.29 3.39-3.683 4.685m20.01-10.865c.796.1.796.797.1 1.395-.697.499-1.096.598-1.494.2-.697-.598.1-1.595 1.394-1.595m2.29.498c.597 0 1.393.3 2.389 1.097 1.095.996 1.394 3.29.398 3.688-.398.2-.498 0-1.394-.897a9.5 9.5 0 0 0-1.99-1.495c-1.394-.698-1.594-.898-.598-1.396.2-.1.398-.299.597-.498 0-.4.1-.499.598-.499m-1.494 2.99c.2 0 .399.1.797.3 2.29 1.296 3.484 3.29 2.688 4.386-.498.697-1.394.498-1.991-.598-.399-.599-1.295-1.296-2.39-1.894-1.194-.598-1.294-.698-.398-1.197.398-.199.597-.398.797-.697.199-.3.199-.3.497-.3m.697 4.785c1.792 1.795 1.593 2.692.398 3.39-.796.498-1.99.597-2.389.199-.697-.598-.597-1.196.1-1.495.697-.1.398-.4-.2-.599-2.29-.598-3.683-1.893-1.194-1.594.697.1 1.394-.499 1.792-.898.498-.598 1.195.698 1.493.997m-119.066.698 50.872 72.866H35.131c1.494-11.563-1.493-24.421-5.276-32.794 4.181-.698 8.164-1.795 12.146-2.891l-.797-1.097c-4.778 1.894-9.159 2.592-13.24 3.09 5.475 9.37 7.466 22.329 5.774 33.692h-7.865v-56.518zm9.16 10.766c.696 0 2.488 1.196 2.687 2.192 0 .2.498 1.396.996 2.492 0 .2 1.792 3.39.995 3.09-1.593-2.093-4.28-5.681-4.977-7.475q0-.3.298-.3m5.475 3.19c.1.498.597 1.893 1.095 2.79 1.095 2.393 2.787 6.08 2.489 7.177-.2.698 0 .698-.598-.199a95 95 0 0 1-1.493-2.093c-.597-.798-.2-.1-.498-1.296-.796-3.489-1.99-5.283-2.787-7.277-.399-.897 1.393.598 1.792.897m.995.597c.1.1 2.19 1.496 2.39 1.695.696 2.592 3.583 10.765 2.787 12.16-.299-.198-1.394-1.494-1.493-2.192-.299-3.888-1.593-6.679-2.887-9.669-.399-.797-.697-1.695-.797-1.994m3.783 2.891c.597.3 1.294.997 1.693 1.695.298.398.398.897.597 1.993.697 3.39 2.09 6.679 1.493 10.267-.398.499-1.194-.697-1.394-1.894-.398-3.987-.796-5.88-2.09-10.466-.299-.897-.498-1.595-.299-1.595m3.285 2.99c.1 0 .399.3.896.698.896.897.996 1.196.996 2.592 0 2.093.697 4.486.796 6.579.1 1.196.299 4.386.1 4.585-.299.399-1.394-.997-1.394-2.99.2-2.492 0-4.287-.995-8.573-.399-1.993-.697-2.79-.399-2.89-.1 0 0 0 0 0m93.979-12.36c3.683 2.392 2.39 6.679 1.593 7.177 4.977 6.38-2.788 9.67-5.277 7.376-3.683 3.689-9.955.599-7.566-5.482 0 0-4.58-8.871 4.48-8.273 0 0 .2-3.589-.1-3.689-3.285-.199-7.665 2.891-8.86 3.788-.696.399-.796.2-.796.2-.2-1.894-.2-2.692.597-3.689 1.295-1.794 3.485-2.392 6.272-2.99 3.485 1.097 6.87 2.791 10.155 2.492 1.792 0 3.584.3 5.376 1.196 1.194.598 1.792 2.692 1.792 2.692-1.892.897-7.666-.798-7.666-.798m-1.692-13.158c0-.598.696-1.296 1.393-1.296.996.1 1.095 1.197.2 1.595-.2.2-1.096-.1-1.096.1.1.399-.298.2-.398.1-.1 0-.1-.3-.1-.499m-.598 2.492c.398-.199.697-.299.996-.299.498-.1 1.294 0 1.393.598.2.598-.895.898-1.791.898-.399 0-.996.1-1.096-.2-.1-.299.3-.797.498-.997m-110.206-40.27c.697-2.493.3-3.788 1.394-6.878l2.887.996s.1 2.99-.497 4.586c-.498 1.694-2.39 2.99-3.784 1.295m21.305 66.287c.299 0 1.195 1.196 1.493 2.293.299.996.2 2.292.498 3.389.597 3.688.498 7.376.398 8.473-.1.598-.398.299-.896-.2-.697-.797-.597-.797-.597-2.89 0-1.795-.398-6.38-.597-7.277-.3-1.695-.498-3.29-.399-3.589 0-.2 0-.2.1-.2m33.25.399c3.684.598 6.571 3.09 8.264 7.276 1.593 4.187 1.99 9.968 2.29 15.251 0 1.296-.498.898-1.892.2-1.493-.698-1.792-.499-3.982 0-1.394.299-1.195-.598.995-2.193.797-.499 1.593-1.196 1.394-1.296-.1-.1-.796.1-1.294.498-2.19 1.795-2.788 2.193-2.19.499.199-.399.697-1.595.896-2.193.796-2.193-.1-3.09-2.788-4.486-.697-.299-1.095-.897-.398.3.597.996-.597 1.793-1.991.597-.996-.797-2.987-.299-3.584.698s-.299 2.791.896 3.29c1.095.498 1.493.1.398-.599-1.294-.897-1.095-2.492.398-2.492.399 0 .996.4 2.688 1.296 1.195.598 1.991.399 1.991-.598 0-.598.399-.598 1.096-.2.995.5.895.998.398 2.393-.398.997-.598 2.193-.896 3.19-.896 3.588-.996 7.576 0 8.772 2.588 3.29 5.276 2.99 7.665.797l-.1 3.688c-2.388 1.894-5.176 3.19-9.457 10.367-1.493-1.894-7.964-9.669-18.318-11.363l-2.29-3.19c0-.2-1.692-11.862-2.886-15.85 0 0 1.294-1.993 2.488-3.388 4.58-5.583 12.445-12.161 20.21-11.264m-13.439 3.389c-.398.1-.498-.698-.299-.798h1.096c.398 0 .398.4-.797.798m-17.422-.598c.498.398 1.195 1.395 1.792 2.292.299.499.1 1.296.2 2.193.099 1.196.198 3.09.298 4.287.2 2.292-.1 4.186-.398 4.884-.299.797-.996.299-1.195-.897 0-.3.2-3.09.2-4.685-.1-2.692-.797-5.981-.897-8.074m15.63-.1c.2 0 .299 0 .398.2.598.697.797 1.196.299 1.495-.697.598-1.294.398-1.692-.698-.2-.698.398-.897.995-.997m-2.09.698c.597.398 1.194 1.495 1.294 2.193 0 .2-.2.398-.598.698-.398.398-.497.299-.995-.4-.697-1.096-.996-1.793-.896-2.192.299-.3.796-.399 1.194-.3m24.49.1c.995.1 1.99.498 2.986.797l-1.493 1.395a42 42 0 0 1-1.493-2.193m-26.68.797c.597.698 1.493 2.592 1.493 3.29-.1.199-.399.498-.598.597-.199 0-.298-.299-.995-1.395-1.095-1.894-1.394-2.492-.797-2.691.2 0 .697 0 .896.199m-2.19.399c.596.498 1.99 3.389 2.09 4.186 0 .2-.1.399-.2.598-.895.997-.696.798-1.99-1.993-1.096-2.293-1.394-2.492-.697-2.791.1 0 .497-.1.796 0m-2.191.797c.398 0 .498.698 1.294 2.193 1.294 2.89 1.792 3.29 1.493 3.589-.398.498-.597.797-.896.199-.796-1.296-1.592-2.89-2.29-4.286-.597-1.097-.597-1.197-.298-1.496.299-.199.597-.199.697-.199m22.997.798c-.498.1-2.39.797-1.195.897.2 0 .896-.1 1.294-.2 1.195-.1 3.684.1 3.584-.1-.199-.897-2.986-.797-3.683-.597m-24.69.199.598 1.196c1.792 3.589 2.887 4.884 2.489 5.383-.299.299-.697.797-.896.698-.398-.2-.896-1.296-2.19-3.988-1.394-2.691-1.494-2.89-.797-3.29.299-.099.697-.198.797 0m-1.791 1.296c.796 1.395.696 1.196.696 5.681 0 2.792-.398 4.586-.796 5.284-.2.398-.697.1-.896-.599-.1-.299.2-.797.2-1.295.298-3.39.099-6.679.099-9.869.298 0 .597.598.697.798m21.702 1.096c.398.598.299.997.299 1.794 0 1.097.1 1.197.796.599.697-.499.697-.499 1.892.299.697.498 1.593.498 2.09 0 .399-.4.498-.2 1.096-.1.597.299.696.399 1.99-.2.797-.398.897-.398 1.394-.199.896.798.996.499.896-.498 0-.399.1-.997.2-1.396.398-1.794-.3-1.794-1.195-.698-.398.4-1.195.599-1.892.3-1.095-.499-2.787-.3-4.081-.1-1.494.299-2.19-.2-2.788-.698-.299-.299-1.095-.598-1.195-.299s0 .498.498 1.196m-20.01 2.492c.2 0 .498.499.896 1.695.498 1.495-.398 6.778-.996 7.675-.298.499-.497.698-1.095-.1-.199-.398-.1-.498.2-1.495.398-1.595.696-4.087.696-5.283.1-1.595.1-2.392.299-2.492m1.991 5.184c.1 0 .299.299.498.897.298.797.199 2.392-.2 3.588-.198.698-.497 1.495-.796 2.093-.1.4-.796.2-.995-.598-.1-.498.298-1.096.498-1.894.199-.797.398-1.794.497-2.292.1-1.196.299-1.894.498-1.794m14.634 2.292c-.1 0 1.394 1.695 1.792 2.094.2.199 1.991 2.292.896 1.794-2.787-1.196-5.973-.598-7.964 1.296-.299.199-.498 0-1.195-.1-1.592-.1-2.09.498-1.194 1.296.1.1.398.2.597.398.1.2.1.499.2.599 2.986 3.987 8.56 4.784 12.045 2.193.398-.3.697-.4 1.095-.3.797.2.896-.398.2-1.395-.3-.399-.697-.897-.498-.997.398-.399.697-.997-.1-1.196-.498-.2-1.095-.797-1.394-1.595-.597-1.096-3.982-3.987-4.48-4.087m-13.539 1.794c.697 0 .697 3.888 0 4.984-.398.4-1.194-.398-1.095-1.196.1-.598.796-3.588.896-3.688 0-.1.1-.1.2-.1m13.24 2.393c.499 0 1.295.2 1.892.797.299.3.896 1.595.697 2.094-.1.299-.697.199-.796.1-.398-2.592-2.39-2.892-3.086-.5 0 0-.399.4-.498-.298.1-1.595.697-2.193 1.792-2.193m16.527.2c.697 0 1.294.298 1.593.996.199.498.199.897.199 1.096-.1.2-.299.1-.299.1-.996-2.89-2.489-1.495-2.987 0 0 0-.497.2-.597 0s0-.498.2-.897c.397-.797 1.194-1.296 1.89-1.296m-13.938.199c.398 0 .996.299 1.493.797s.498.797.1 1.096c-.2.2-1.095.4-1.195.1l-.696-1.595c-.1-.299.1-.398.298-.398m-5.077 0c.398 0 .498.1-.1 1.594-.1.3-1.792-.1-1.493-.797.498-.399 1.195-.797 1.593-.797m16.725.199c.199 0 .299 0 .398.1-.1.1-.796 1.694-.796 1.694-.598-.1-1.294 0-1.394-.498-.1-.499.1-.698.995-1.097.2-.1.498-.2.797-.2m4.878.399c.597.199.796.797.697.996-.1.2-.398.2-.597.1-.2-.2-.498-.598-.498-.897.1-.3.199-.3.398-.2m-31.459 1.495c.2.399.498 2.492.1 2.392-.399-.1-.598-.698-.697-1.296.1-.2.398-1.096.597-1.096m6.969 1.096c.199 0 .597.1 1.294.499 2.29 1.096 4.58 1.296 7.068.697 1.394-.398 1.792-.598 1.991-.299.3.4-.199.798-2.19 1.496-2.19.697-4.48.598-7.466-1.496-.797-.598-.896-.897-.697-.897m25.087.499c.399.697-.896 1.395-1.493 1.495-1.394.399-3.385.2-4.58-.499-.099-.1-.199-.1-.298-.199-.996-.698-.597-1.196.498-.698 1.095.598 3.484.698 4.679.1.597-.2.995-.498 1.194-.2m-28.074 1.395c-.1 0 .1.3.498.798 3.086 3.488 10.453 5.382 14.634 1.794 1.295-1.196 1.095-1.794-.995-.798-2.29.798-5.476.798-8.263.4-1.394-.2-3.584-.699-4.779-1.496-.597-.598-.995-.797-1.095-.698m21.305.1c.199 0 .497.1 1.194.498 1.095.499 3.385.399 4.182.1 1.592-.598 1.99.2.398.997-1.693 1.096-4.082.598-5.575-.698-.398-.399-.697-.897-.498-.897.2-.1.299 0 .299 0m-20.508 6.08c6.072.598 15.33 6.978 18.915 14.255h-2.09c-3.585-5.782-9.16-10.666-15.73-12.46-.2-.1-1.195-1.496-1.095-1.795m27.078 1.396-.298 1.994c-.996.797-4.779 3.987-7.566 8.871-.598 0-.896-.698-.797-1.196 2.29-4.486 4.978-6.878 8.661-9.67m-24.59 1.595c1.394-.1 10.454 5.183 13.54 11.363h-1.693c-3.484-4.485-7.267-7.775-10.652-8.97-.896-.898-1.792-2.393-1.194-2.393m24.292 1.395v2.692c-2.19 2.093-3.783 4.585-4.978 7.177h-1.692s-.399-1.097-.2-1.496c1.792-3.488 3.684-5.98 6.87-8.373m-13.838 9.869h-1.593c-1.394-1.994-3.385-4.187-5.277-5.283-.796-.997-1.592-2.193-1.294-2.293 0-.698 7.268 4.486 8.164 7.576m13.937-5.782v1.595c-1.095 1.396-1.99 2.99-2.887 4.286h-1.394c1.195-2.79 4.38-6.678 4.281-5.88m-18.815 2.99c.497.1 2.389 2.194 2.29 2.792h-.797c-.498-.598-.996-1.595-1.394-2.193-.199-.3-.299-.698-.1-.598m18.417.499v2.293h-1.394c-.1 0 .697-1.795 1.394-2.293"/>
    <path d="M101.335 21.078 153.4 95.24V78.793l-16.725-21.631c3.783-1.196 8.462-1.994 12.146-2.293-4.68-10.466-7.069-20.235-4.978-33.692-14.634-.2-29.269-.2-42.51-.1m41.613.398c-.398 4.785-.896 10.068-.1 15.95-2.688-.998-3.384.697-3.783.896-.497-1.096-2.389-3.09-4.58-.797-1.094 1.196-.596 3.489 1.992 4.485-2.987.2-4.48-2.292-4.978-4.884-1.593-.997-3.285-1.993-3.484-5.682l.796.1c-.298 2.492 2.29 3.788 3.883 2.592.995-.798 1.095-1.894.697-3.688.796-.2 2.688-.898 2.19-3.29-.697-3.29-4.082-2.89-5.575-.698-1.294-1.595-3.584-1.894-4.58.598-.497 1.396.697 2.891 1.992 3.19-2.987.598-4.58-3.588-4.68-6.38l-1.294-2.192c8.263-.2 11.847-.2 21.504-.2m-40.817.1h6.073l44.201 57.316.1 14.255zm15.331 0h.996c.796 5.084 3.683 8.672 8.561 10.466.299 4.087 2.19 9.77 9.757 11.663-.2 4.685 2.787 9.071 5.973 11.264 0 0-.896.2-1.493.299-4.281-3.39-5.376-8.473-5.775-10.466-.1-.3-.597-.4-.896-.4-3.683-1.295-6.77-4.285-8.063-7.974l-.797-3.588c0-.498-.1-.2-1.194-.698-2.788-.997-5.476-4.087-6.67-7.775-.598-2.193-.399-2.791-.399-2.791m-3.882 0h3.384s0 .598.1.997c.498 3.588 3.683 8.174 6.969 9.669.498.2 1.095.498 1.294.698.896 5.88 3.584 9.47 9.258 11.961.1.1.3.2.399.3.796 3.687 2.488 7.874 5.674 10.266l-1.394.1zm16.526 6.18c.796 0 1.393.598 1.393 1.396s-.597 1.395-1.393 1.395c-.797 0-1.394-.598-1.394-1.395 0-.698.597-1.396 1.394-1.396m-46.79 7.676c.099.199-18.916 16.347-17.124 46.75l-.597.598.199.2c-.597.697-1.195 1.295-1.892 1.993 3.983 2.492 10.852 5.283 10.852 5.183l-1.294 3.09 8.263 2.692-1.096 2.89-8.063-2.691c-1.195 2.592-1.892 5.383-2.688 8.074q-.15.3-.598-.299c-4.28-7.277-13.041-12.56-12.743-12.061l-31.16 29.605-.199 18.34 21.504 22.23s-6.272 3.09-9.16 5.083c2.29 1.894 4.879 3.29 7.169 5.084 4.679 3.29 7.864 8.273 10.95 11.563 14.436-7.177 28.97-6.778 41.514-2.392-1.493 1.495-3.086 2.89-4.58 4.585 3.684 9.57 2.49 28.608 2.29 29.206 7.567-7.775 18.916-24.421 17.323-47.946l3.186-3.19c-.1-.2-7.965-4.386-11.25-5.383l.896-2.89-7.865-2.492.896-2.293 7.865 2.293c1.493-3.688 3.086-8.872 3.086-8.872 3.186 4.685 6.57 9.071 13.739 13.357l30.96-29.704-.198-19.139-21.106-21.132 8.761-4.586c-.796-.697-2.09-1.295-2.887-1.993-.1 0 .199-.2.1-.2-.2-.199-.399-.299-.598-.498-.1 0-.199.2-.299.2-2.986-2.094-5.973-4.187-8.262-6.68-.1-.099 0-.298 0-.398-1.195-1.296-2.39-2.492-3.684-3.788-.597-.598-1.493-1.993-1.493-1.993l-.1-.499-1.493-1.595c-4.28 2.492-22.5 8.872-40.22 1.894l3.385-3.389c-.896-2.193-1.493-4.585-1.692-6.579-.896-7.974-.598-22.228-.598-22.228m55.75 4.485c.796 0 1.493.698 1.493 1.495s-.697 1.496-1.494 1.496c-.796 0-1.493-.698-1.493-1.496 0-.897.697-1.495 1.493-1.495m4.579 1.695c.697 3.688 2.39 8.971 3.982 12.56l-1.991.199c-1.593-.997-3.285-2.492-3.485-4.685-4.28 0-5.575-6.679-3.982-5.881-.199 2.292 1.494 3.19 3.087 2.99 1.393-.2 2.588-2.093.895-4.286.896-.2 1.195-.499 1.494-.897M82.917 52.477c.299 4.685 1.195 8.074 2.09 11.663l-8.461 7.974c.597-7.376 2.688-13.856 6.371-19.637m40.618 15.35 1.095 1.596c-12.245 7.177-33.151 7.675-45.894 1.594l1.692-1.594c11.15 5.083 29.369 5.482 43.107-1.595M43.992 70.22c-1.195 0-2.688.498-4.182 1.595-5.574-2.592-9.258 3.389-5.774 7.376-.497 2.891-.896 3.39 1.195 6.28-2.29.3-5.177-.299-7.566-.698.398 4.187 6.47 5.184 8.96 4.785 2.688-.598 5.276.797 5.376.797 1.593.4 2.588 1.197 4.18 1.595 2.59.598 6.372-2.392 6.97-5.382.1-.4.199-.698 0-.798-1.792.499-3.684 1.097-5.476 1.495-1.692.4-2.986.798-4.28 1.795l-.1-3.49c8.76.4 4.978-7.974 4.48-8.372 1.593-3.19-.299-6.878-3.783-6.978m79.941.3 1.892 4.584-5.078 1.695-1.294-4.486zm-80.24.099c2.987 0 5.675 3.19 2.788 6.678 5.575 4.885-1.593 10.168-4.978 6.58-4.48 4.186-9.358-.2-6.77-4.686-4.778-4.286 1.095-10.167 5.177-6.38.996-1.494 2.39-2.192 3.783-2.192m34.645 1.694c.697 0 1.294.598 1.294 1.296s-.597 1.296-1.294 1.296-1.294-.598-1.294-1.296.597-1.296 1.294-1.296m-33.052.1c-.1 0-.2 0-.299.1-.1 0-.497.598-1.294 1.495-1.394 1.595-1.493 1.595-1.493 1.595-1.494-.499-2.49-.2-3.385.398 0 0-1.095-.199-2.588-1.495-.697-.598-1.096-.697-1.195-.398-.1.299.199.697 1.493 1.594 1.792 1.296 1.693 1.197 1.693 1.197-.1 1.096.1 1.993.497 2.79 0 0-.298.798-1.592 2.493-.399.498-.697.996-.697 1.196 0 .698.597.2 1.891-1.495a60 60 0 0 1 1.195-1.595c1.593.498 2.09.2 3.086-.1 0 0 .299.3 1.195.897 1.592 1.296 1.891 1.396 2.09 1.196.299-.199.2-.299-.398-.697-1.792-1.296-2.39-1.994-2.39-1.994a4.28 4.28 0 0 0-.397-3.29s0-.199.995-1.295c.697-.798 1.692-2.094 1.692-2.293.1-.1 0-.299-.1-.299m36.038.299 4.58 1.396-.996 4.784-4.878-1.595zm33.052 1.196 1.294 4.685-4.778 1.296-.797-4.984zm3.385.1c.697 0 1.294.598 1.294 1.296 0 .697-.597 1.296-1.294 1.296a1.32 1.32 0 0 1-1.294-1.296c0-.698.597-1.296 1.294-1.296m10.851.1 3.982 3.588-4.48 2.293-2.09-4.685zm-37.73 1.096 4.678.598-.199 4.984-5.376-.698zm-16.228 0 5.177 2.293-1.892 5.183-5.276-2.293zm13.34.399c1.892.299 1.394 2.591 0 2.591-.696 0-1.294-.598-1.294-1.295s.598-1.296 1.294-1.296m16.825 0 .597 4.984-4.778.299-.1-5.084zm3.285.598c.697 0 1.294.598 1.294 1.296 0 .697-.597 1.296-1.294 1.296a1.32 1.32 0 0 1-1.294-1.296c0-.698.597-1.296 1.294-1.296m-67.198.498c.696 0 1.294.598 1.294 1.296s-.598 1.296-1.294 1.296-1.295-.598-1.295-1.296.498-1.296 1.295-1.296m57.143-.1c.697 0 1.294.599 1.294 1.296s-.597 1.296-1.294 1.296a1.32 1.32 0 0 1-1.294-1.296c0-.697.597-1.295 1.294-1.295m22.698.4 1.892 5.183-5.276 1.694-1.494-5.283zm3.784.099c.696 0 1.294.598 1.294 1.296s-.598 1.296-1.294 1.296a1.32 1.32 0 0 1-1.295-1.296c0-.698.498-1.296 1.295-1.296m9.059 1.495 3.385 2.393-1.693.897c-.398-.997-1.194-2.293-1.692-3.29m-48.682.399 5.077 1.096-.796 5.283-5.475-1.096zm-15.032.299 2.688 1.296-1.792 4.386-4.281-2.293zm11.946.299c.697 0 1.294.598 1.294 1.296s-.597 1.296-1.294 1.296a1.32 1.32 0 0 1-1.294-1.296c0-.698.597-1.296 1.294-1.296m29.07.299.896 5.283-5.675.798-.398-5.383zm21.304.1c.697 0 1.294.598 1.294 1.296 0 .697-.597 1.295-1.294 1.295a1.32 1.32 0 0 1-1.294-1.295c0-.698.597-1.296 1.294-1.296m-4.082 0 1.892 4.685-5.575 2.292-1.593-4.685zm-14.136.398c.697 0 1.294.599 1.294 1.296s-.597 1.296-1.294 1.296a1.32 1.32 0 0 1-1.294-1.296c0-.697.597-1.296 1.294-1.296m-18.716.499 5.276.1-.1 5.382-5.774-.2zm42.51.399 2.09 1.495c-21.504 13.855-51.768 15.65-75.263 1.894l1.494-1.496c21.205 12.76 52.265 10.965 71.678-1.893m-45.397.598c.697 0 1.294.598 1.294 1.295s-.597 1.296-1.294 1.296-1.294-.598-1.294-1.296.597-1.295 1.294-1.295m10.851.299c.697 0 1.294.598 1.294 1.296 0 .697-.597 1.295-1.294 1.295a1.32 1.32 0 0 1-1.294-1.295c0-.698.597-1.296 1.294-1.296m-25.287.697 5.575 1.595-.896 4.386-6.072-1.794zm-3.683 0c.697 0 1.294.599 1.294 1.296s-.597 1.296-1.294 1.296-1.294-.598-1.294-1.296c0-.697.597-1.296 1.294-1.296m43.107.997 1.294 4.984-6.172 1.296-.697-4.884zm3.584.698c.696 0 1.294.598 1.294 1.296s-.598 1.296-1.294 1.296a1.32 1.32 0 0 1-1.295-1.296c0-.698.598-1.296 1.295-1.296m-80.141.797v3.49c-.996-.798-2.19-1.695-3.385-2.692 1.195 0 2.29-.3 3.385-.798m-12.643.1c.298 0 .896.2 1.692.2 2.489 0 7.168.797 8.562 1.893.498.4 1.194.698 1.493 1.296 0 .3-.398.3-.995-.1-1.195-.697-3.087-1.395-5.675-1.694-.498-.1-.498 0-.498.2 0 .298.398.398 1.792.697 1.792.3 2.09.499 2.489.598.996.3.398.698-.697.798-4.38.398-7.665-1.496-8.362-3.689 0-.199.1-.199.199-.199m61.026 0 5.475.698-.298 4.585-6.073-.698zm-46.89.399c.996.797.299 3.09-.199 3.688-.298.399-1.095.2-1.095-.399.1-.498-.1-2.79.1-3.489.298-.1.796 0 1.194.2m63.814.2.299 4.784-5.973.299v-4.685zm-20.21.398c.698 0 1.295.598 1.295 1.296s-.597 1.296-1.294 1.296-1.294-.598-1.294-1.296.497-1.296 1.294-1.296m-33.549 0c.2 3.489-5.177 5.881-7.168 4.785-.896-.499-.497-.798 1.195-1.097 2.29-.598 3.783-1.196 3.783-1.595 0-.299-.299-.2-1.294.1-1.394.498-2.887.698-4.28 1.296-.996.498-1.395.598-1.693.299-.498-.598 1.792-2.094 4.18-2.492 1.892-.2 3.684-1.097 5.277-1.296m57.144.498c.697 0 1.294.598 1.294 1.296s-.597 1.296-1.294 1.296a1.32 1.32 0 0 1-1.294-1.296c0-.797.498-1.296 1.294-1.296m-12.046.897c.697 0 1.294.599 1.294 1.296s-.597 1.296-1.294 1.296a1.32 1.32 0 0 1-1.294-1.296c0-.697.498-1.296 1.294-1.296m28.87 2.193c8.662 8.274 18.219 17.843 25.984 25.718v12.36l-29.966 28.609c-5.376-3.29-10.055-7.476-14.236-14.853.498-.399.896-.698 1.294-1.096l-1.592.897c-5.476-8.872-7.865-26.515 1.493-40.67l-9.458.3 1.593-3.29 10.354-.598 4.18-4.486s1.295-.2 2.39-.498c1.095-.3 3.285-.897 4.978-1.396 1.493-.498 2.887-.997 2.986-.997M56.336 92.35s8.86 4.884 13.838 14.553c-16.028 13.856-22.001 29.904-23.395 46.65-8.66-8.173-13.14-12.659-21.006-20.633l.3-11.862zm33.55 1.595c-2.29 4.984-4.28 10.367-6.073 16.148l-2.489-.698s1.593-.697 2.29-1.096l-1.294-2.093 2.489-.997-1.394-1.794 2.489-1.396-1.195-1.595L87 99.327l-1.394-1.595 2.39-1.296-1.195-1.595zm.796 0s.299.1.697.1c.1 0-.398 1.295-.398 1.295.896.2.896.1 1.195.2l.697-1.396 1.095.2c-2.19 4.984-4.48 10.366-5.874 16.248l-1.294-.3s.398-1.196.398-1.395c-.1 0-.896-.299-1.095-.399-.1.2-.498 1.595-.498 1.595h-.995c1.592-6.28 4.48-13.357 6.072-16.148m4.182.2 2.29 1.893-2.59.997 1.295 1.794-2.688.997 1.593 1.894-2.688.997 1.593 2.193-2.788.997 1.792 1.993-2.488 1.196 1.493 1.496s-1.593.498-1.693.498c-.298.1-1.294-.2-1.294-.2 1.494-5.78 3.485-11.562 6.173-16.746m-55.054.896c-.597.4-.298 1.296-1.095 2.094-.1.1-.1.398-.199.697 0 .2-.697 2.692-.697 2.692s.2-.2.399-.997c.199-.698.398-1.994.497-2.193.598-.2.697-2.093 1.295-1.794.298.2.298.498.1 1.196-.4 1.495-.598 2.093.099 1.096 1.095-1.295 1.194-2.492 0-2.69-.1 0-.399-.1-.399-.1m16.128.599-27.974 26.315-.1 9.868 9.756 9.869 6.87 6.678c2.488-15.051 8.262-29.405 22.399-41.865-2.09-3.39-5.774-7.775-10.95-10.865m75.462.299c-16.427 7.775-20.21 23.624-15.132 38.077 7.765-10.167 13.937-19.637 15.132-38.077m-58.538.797 7.467 2.392-2.788 9.67-6.77-2.094-.696-1.695zm57.642.2c-.697 12.858-5.575 25.418-13.938 35.286-4.28-10.466-1.692-27.312 13.938-35.287m-40.22.099-.498 1.196.996.3.398-1.197zm-.995 2.791-.399 1.196 1.095.399.399-1.196zm44.002.2c-2.29 17.842-11.946 34.09-22.1 42.364 3.185 5.283 7.068 8.672 10.85 11.463l28.573-27.512-.1-9.17zm-75.461 4.784c-.2.698-.2.997-.2.997s.3-.3 1.195-.798c5.575-2.79 3.783 1.496 1.195 3.09-.597.3-1.195.698-1.195.698l1.195.2c3.385.697 2.688 2.691-.896 2.392-.498 0-1.095-.1-1.095-.1s.199.798.498 1.396c1.194 2.99-.996 3.29-2.49 1.296-.198-.3-.696-.997-.696-.997s-.1.598-.2 1.096c-1.293 4.785-4.38 4.586-3.185-.199.1-.498.299-1.396.299-1.396s-.697.4-1.494.798c-4.081 1.794-4.679-.1-.995-2.791 1.095-.798 1.394-1.097 1.394-1.097q-1.046-.15-1.792-.299c-2.987-.697-3.684-2.492.995-2.392.697 0 1.394.1 1.394.1s-.2-.997-.498-1.795c-1.095-3.588 1.195-3.987 3.086-.797.399.698.498.698.498.698-.1 0 .1-1.196.597-2.293 2.091-4.386 3.087-.399 2.39 2.193m50.473-3.489c-1.99 3.49-3.683 6.978-4.48 10.566l-7.665-.1c.498-3.189 1.891-6.578 3.484-10.067 3.186-.2 5.973-.299 8.661-.399m-20.11 1.496-.398 1.295 1.095.3.399-1.296zm-57.143 2.392c-.797 2.093-1.095 4.485-1.593 6.38-.2 1.096 0 1.594.697 1.794.896.398 2.29-.1 3.086-1.197.398-.598.697-1.893.796-4.086l.1-1.994c-1.195-.2-1.991-.498-3.086-.897m56.048.299-.398 1.196 1.095.399.398-1.196zm49.478.399c1.295 0 1.494.1 2.688.897l2.29 2.392c-.597.598-.995 1.396-.995 2.293 0 1.694 1.393 3.19 3.086 3.19.896 0 2.19-.898 2.19-.898l3.584 3.788c-2.09.897-4.181-1.196-4.878-1.993-.2-.2-.2-.3-.2-.3v.499c-.298 1.695-1.89 6.579-3.484 6.28-1.792-.3 0-7.277.1-7.177-1.195 1.296-7.168 2.691-6.67 1.196.796-2.89 5.276-3.987 5.774-4.486-2.39-1.495-5.376-5.482-3.485-5.681m-105.228.1c.797.099 1.295.099 1.792.398.2.1.2.299.3.498 0 .798.198 3.29-.598 3.39-.896 0-1.693.199-2.29.598-.498.398-.597.1-.498-.798.1-.897.598-2.691.697-3.489q.15-.597.597-.598m23.296.099c-1.692 0-3.086 1.395-3.086 3.19 0 1.694 1.394 3.19 3.086 3.19s3.086-1.396 3.086-3.19c.1-1.795-1.294-3.19-3.086-3.19m0 1.096c1.095 0 1.991.898 1.991 1.994s-.896 1.994-1.991 1.994-1.991-.897-1.991-1.994.896-1.994 1.991-1.994m16.227 0c7.168 12.46 6.372 29.506-2.09 41.866l9.059-.598-1.195 2.293-9.656.997c-1.494 1.395-2.788 2.89-4.281 4.385v.499c-3.285.797-6.67 1.694-10.055 2.89-1.792-1.794-5.177-5.282-5.177-5.382l.2-1.097c23.096-11.762 16.326-35.486 14.733-37.48 2.39-2.99 5.376-5.78 8.462-8.373m64.013 2.293c.896 0 1.692.798 1.692 1.695s-.796 1.694-1.692 1.694-1.692-.797-1.692-1.694.697-1.695 1.692-1.695m7.467.399 2.787 2.89a1.96 1.96 0 0 1-1.394.599 2 2 0 0 1-1.99-1.994q0-.897.597-1.495m-97.364.399c.896 0 1.693.797 1.693 1.694s-.797 1.695-1.693 1.695-1.692-.798-1.692-1.695.796-1.694 1.692-1.694m-12.543.697c.796.3.597.997-.399 1.695-.697.399-1.294.498-1.891.2-1.095-.599 1.194-2.293 2.29-1.895m13.041 4.187-10.154 9.868c.597-1.595.696-3.29.696-4.884q4.63.449 3.883-4.486c1.991.1 4.082-.1 5.575-.498m16.327 1.096c4.679 13.557.597 27.811-14.137 36.085.598-12.86 6.073-25.32 14.137-36.085m13.44 1.197c8.063 2.093 17.322 3.09 26.879 3.09.1 3.688.2 7.575.996 11.263-8.164-2.192-17.323-3.19-27.278-2.99.498-3.788-.1-8.174-.597-11.363m60.23 1.993-8.662 10.168.398-5.583c2.888.4 3.983-1.196 3.485-4.186 1.593.2 3.186-.1 4.778-.399m-83.924.598-.697 4.087c-1.692 0-3.385.698-3.385 4.486l-5.177-.1zm94.974.698c.896 0 1.692.797 1.692 1.695 0 .897-.796 1.694-1.692 1.694s-1.693-.797-1.693-1.694c0-.898.797-1.695 1.693-1.695m-102.839.498c.896 0 1.692.798 1.692 1.695s-.796 1.694-1.692 1.694-1.692-.797-1.692-1.694.697-1.695 1.692-1.695m99.056 1.795-.896 6.18c-2.39-.2-4.281.2-3.684 4.286-1.99-.2-4.778.3-6.57.399zm-8.363 1.096c.896 0 1.693.798 1.693 1.695s-.797 1.694-1.693 1.694-1.692-.797-1.692-1.694.697-1.695 1.692-1.695M31.25 125.443c.896 0 1.692.797 1.692 1.695 0 .897-.796 1.694-1.692 1.694s-1.693-.797-1.693-1.694c0-.898.797-1.695 1.693-1.695m5.674 1.994c2.19.498 1.195 5.582.697 6.877 0 0 6.073-3.19 6.372-1.794.199 2.891-4.978 4.885-4.978 4.885s3.584 3.09 3.684 4.984c0 1.295-1.494.996-3.385-.598-.797-.798-1.494-1.396-1.991-1.994.697-.598 1.095-1.396 1.095-2.392 0-1.695-1.394-3.19-3.086-3.19-.996 0-1.792.399-2.39 1.096-.497-.398-.995-.897-1.593-1.595-1.095-1.096-1.891-1.894-1.792-2.292 1.494-.997 4.38 1.794 4.68 1.993-.498-.299 1.095-5.681 2.687-5.98m-2.986 6.28c.1 0 0 0 0 0m92.087-2.293c.995 0 .995 2.292.597 3.588-.299.897-.498 1.695-.498 1.695s.896-.698 1.295-.897c2.787-1.296 3.882.2 2.389 1.894-.697.897-1.593 1.096-2.39 1.794 1.096 0 2.29.299 3.186.797.697.399 1.294.997 1.294 1.296 0 .698-1.791 1.097-3.484.897-.697 0-1.991-.398-1.991-.398s.597.897.796 1.495c.598 1.694.399 3.788-.497 3.788-1.494-.4-2.19-2.094-2.788-3.29-.498 1.296-.995 2.791-1.99 3.788-1.096.997-1.594.2-1.594-1.495 0-.698.498-2.692.498-2.692-6.272 2.094-5.874-.797-.896-3.289-2.987-1.495-4.878-2.791.299-3.09-.1-.1-.996-2.89-.1-3.589.896-.598 2.788 1.496 2.887 1.595 0-.2.498-1.794 1.394-2.99.697-.598 1.195-.897 1.593-.897m-5.774 5.98q0 .15 0 0m27.576-1.794c-1.095.1-1.792 1.097-2.29 1.894-.1.2-.298.2-.398.499-.498 1.495-.896 3.19-1.095 5.382.697.3 2.29.798 2.987.499.199-.1.1-.598.199-.798 1.095-2.79 1.593-4.784 1.593-6.08 0-.897-.3-1.495-.996-1.396m-112.695-.1c1.096 0 1.992.898 1.992 1.994 0 .698-.3 1.196-.797 1.595l-2.887-2.89a2.4 2.4 0 0 1 1.692-.698m113.093.997c.299.698-.597 1.396-1.792 1.396-.697 0-.896.1-.597-.498.398-.798 1.792-2.193 2.39-.898m-15.331-.498c.896 0 1.692.797 1.692 1.695 0 .897-.796 1.694-1.692 1.694s-1.692-.797-1.692-1.694c0-.898.696-1.695 1.692-1.695m-89.3.1c.897 0 1.693.797 1.693 1.694s-.796 1.695-1.692 1.695-1.693-.798-1.693-1.695.797-1.694 1.693-1.694m80.042.697c-1.693 0-3.087 1.396-3.087 3.19 0 1.695 1.394 3.19 3.087 3.19 1.692 0 3.086-1.395 3.086-3.19.1-1.794-1.394-3.19-3.086-3.19m-41.813.4c-.796 3.588-2.09 7.077-3.683 10.466-2.987.199-6.272.299-8.462.598 3.583-6.28 3.683-7.775 4.977-11.164zm5.177.498c.896.1 1.792.199 2.588.398-1.493 5.483-3.584 11.065-6.172 16.448l-1.593-.2-.796-.897 2.488-.997-1.99-1.993 3.285-.997-1.991-1.994 3.185-.797-1.692-2.093 2.887-1.097-1.792-2.392 3.086-.897zm36.636.199c1.095 0 1.99.897 1.99 2.093a2 2 0 0 1-1.99 1.994 2 2 0 0 1-1.992-1.994c0-1.196.896-2.093 1.992-2.093m-33.45.299 1.095.2-.299 1.196 1.195.299.398-1.296s.995.1 1.095.2c-1.294 5.282-5.874 16.247-5.874 16.147l-1.194-.199.298-1.097-1.095-.199-.498 1.196-1.194-.1c2.787-6.379 4.778-11.363 6.073-16.347m57.143.399c.896 0 .797.398.2 2.093-.598 1.495-.797 2.193-1.096 2.392-.697.499-2.19.1-1.99-.598.397-2.292.497-3.29 1.094-3.588a5.6 5.6 0 0 1 1.792-.3m-52.863.2 2.788.498-2.39 1.395 1.494 1.794-2.887 1.196 1.792 1.795-2.788 1.096 1.693 1.994-2.887 1.196 1.99 1.695-3.285.996 1.195 1.894-1.195.698-1.493-.2c2.589-5.681 4.181-10.466 5.973-16.048m6.97 1.395 5.475 1.495 1.095 1.993-2.589 8.772-7.367-2.193zm-10.952.897-.498 1.395 1.195.3.498-1.496zm-1.095 3.29-.498 1.395 1.095.2.498-1.496zm-1.095 2.89-.498 1.395 1.095.2.498-1.396zm51.668 2.592s-.597.398-.697.598c.1.299.498.797.399 1.196 0 .2-.299.498-.697.897-.996 1.196-1.394 1.096-.797-.2.2-.398.299-.797.299-.797-.2.3-.398.698-.597 1.097-.299.697-.697 1.296-.697 1.296.697.199 1.095.697 1.493.996 0 0 .2-.598.398-1.096.2-.798.598-1.097 1.095-1.396.3-.199.598-.498.598-.498-.498-.598-.498-1.396-.797-2.093m-52.763.398-.597 1.496 1.095.299.597-1.595zm-62.221 3.788c-.1 6.08.1 10.068-.1 16.547l16.327 21.232-2.588.897s0 .3-.2.3c-3.484.996-9.158 1.893-9.158 1.893 4.181 9.67 6.969 21.73 5.077 33.792l42.31-.1zm89.4 10.267-1.494 1.495c-21.504-11.662-51.071-11.662-72.774 2.492l-1.792-1.295c23.694-15.152 52.764-15.052 76.06-2.692m-88.604-8.174 49.777 71.77-5.873.1-43.904-57.615zm106.821 1.296s-1.393.399-2.688.798c-3.484 1.096-5.077 3.09-4.778 5.88.1.798.299.798 1.692-.099 3.286-2.093 3.485-2.193 7.566-3.389.299-.1.797 0 .797 0l-.2 3.29c-6.869 0-6.47 5.482-4.48 8.273-.696 1.296-2.19 5.881 2.788 7.675 2.49.499 5.077-1.495 4.978-1.594 4.58 2.192 9.856-1.496 5.774-7.776 1.593-2.79.498-4.784-.996-6.578 0 0 .3 0 2.39.398 3.285.598 4.58.499 4.58.499 0-2.99-2.49-4.287-7.567-4.685-3.584.498-9.856-2.692-9.856-2.692m-55.152.399h.697l-.2 5.084-5.575.299-.398-5.084c1.991-.2 3.783-.299 5.476-.299m6.67.1 5.973.697-.896 4.685-5.475-.598zm48.383.1c.498.1.298.597-.299.797-1.095.2-3.783 1.794-3.783 2.193 0 .299.1.2 1.095-.3.498-.298 1.593-.697 2.29-.996.796-.3 1.692-.698 1.991-.797.896-.4 1.394-.1 1.095.697-.199.499-.299.598-2.489 1.296-1.891.598-2.29.798-3.484 1.595-.498.3-1.294.797-1.792.997-1.294.698-1.493.698-1.493-.2-.1-2.591 2.787-4.585 6.77-5.183-.1-.1.099-.1.099-.1m-51.569.597c.697 0 1.394.599 1.394 1.396s-.597 1.396-1.394 1.396c-.697 0-1.394-.599-1.394-1.396s.598-1.396 1.394-1.396m-14.734.3.398 4.585-5.475 1.395-1.294-4.784c2.19-.399 4.28-.798 6.371-1.196m70.384.398c1.494.2 1.394 3.688.598 4.287-1.195.897-1.892-.898-1.394-3.29.1-.698.398-.997.796-.997m-67.298.2c.697 0 1.394.598 1.394 1.395 0 .798-.597 1.396-1.394 1.396-.697 0-1.393-.598-1.393-1.396s.597-1.395 1.393-1.395m26.68.398 6.173 1.695-1.493 4.785-5.774-1.595zm-3.384.1c.697 0 1.394.598 1.394 1.396s-.598 1.395-1.394 1.395c-.697 0-1.394-.598-1.394-1.395.1-.798.697-1.396 1.394-1.396m50.573.399c2.688 0 6.172 1.395 6.172 3.389-.1.598-5.575-.2-8.163-1.196-.896-.399-1.991-1.495-1.991-1.894 0-.3.498-.3.796 0 .399.399 1.593.897 4.58 1.595 2.29.598 2.489.598 2.489.199 0-.299-1.295-.698-2.788-.997-.697-.1-1.394-.299-2.489-.398-.497 0-.597-.3-.199-.599.398-.1.896-.1 1.593-.1m-4.779 1.096c.697.3.896.897 1.295 1.296-.498.2-.697.399-1.394.498 0-.598-.1-1.196.1-1.794m-80.837.3c.697 0 1.394.597 1.394 1.395s-.598 1.395-1.394 1.395-1.394-.598-1.394-1.395.598-1.396 1.394-1.396m-3.683.398 1.493 4.685-5.177 2.293-1.891-4.685c1.792-.897 3.783-1.595 5.575-2.293m24.191.797h5.575l-.299 5.283H78.14zm-5.575.3.299 5.283-4.978.697-.996-5.283zm31.558 0c.697 0 1.394.598 1.394 1.395s-.597 1.396-1.394 1.396c-.696 0-1.393-.599-1.393-1.396.1-.797.697-1.396 1.393-1.396m36.238.1c3.086 0 5.973 3.488 2.987 7.176 4.977 3.788-.399 10.168-4.779 6.48-6.272 6.18-9.756-2.194-7.168-4.387-3.783-6.28.896-10.267 5.675-7.476.896-1.196 2.09-1.794 3.285-1.794m-50.971.199 5.475 1.196L93.669 170l-5.376-1.096zm18.118.1 4.978 2.491-3.883 3.788-2.887-1.395zm-32.155.597c.696 0 1.393.598 1.393 1.396s-.597 1.395-1.393 1.395-1.394-.598-1.394-1.395c.1-.798.697-1.396 1.394-1.396m10.85.2c.698 0 1.395.598 1.395 1.395 0 .798-.598 1.396-1.394 1.396-1.991-.399-1.394-2.791 0-2.791m-24.987.697 1.195 5.184-5.078 1.694-1.792-5.083zm3.584.4c.697 0 1.394.597 1.394 1.395s-.598 1.395-1.394 1.395c-.697 0-1.394-.598-1.394-1.395s.597-1.396 1.394-1.396m75.163 2.391a14 14 0 0 1-.896.997c-1.294-.498-2.49-.299-3.285.3 0 0-.896-.698-1.693-1.297-1.394-1.096-1.792-1.395-1.792-.897 0 .1.498.598.996 1.097 1.593 1.296 1.891 1.794 1.891 1.794-.398 1.196-.398 2.193.299 3.19 0 0 0 .1-.498.698-.995 1.096-1.991 2.691-1.792 2.89.299.3 1.095-.398 2.19-1.794.697-.997.996-.997.996-.997 1.294.3 1.99.698 3.186-.398 0 0 .497.1 1.393.897 1.494 1.196 1.991 1.495 2.19 1.096.1-.299-.1-.598-1.294-1.495-.796-.598-1.692-1.396-1.692-1.396.299-.398.498-1.993-.498-3.09 0 0 0 .1 1.394-1.694.896-1.196 1.095-1.296.796-1.595-.497-.499-1.792 1.595-1.891 1.694m-39.224-1.495 4.977 2.094-1.792 5.183-4.778-1.994zm-54.456.399c.697 0 1.394.598 1.394 1.395 0 .798-.598 1.396-1.394 1.396s-1.394-.598-1.394-1.396c.1-.797.697-1.395 1.394-1.395m50.673.1c.697 0 1.393.598 1.393 1.395 0 .798-.597 1.396-1.393 1.396s-1.394-.598-1.394-1.396.597-1.395 1.394-1.395m-54.058.398 1.593 3.988-3.684-2.791zm40.618.997 4.878.598-.796 4.685-4.281-.398zm-5.476.1-.1 4.884-4.678.2-.398-4.885zm-23.992.797c.697 0 1.394.598 1.394 1.396s-.597 1.395-1.394 1.395c-.697 0-1.394-.598-1.394-1.395 0-.798.598-1.396 1.394-1.396m-3.783.1 1.892 4.884-2.987 1.396-3.982-3.788zm17.621.1.796 4.585-4.878 1.196-1.194-4.685zm69.787 0c1.095 0 1.892.897 1.892 1.894s-.896 1.894-1.892 1.894-1.891-.898-1.891-1.894.796-1.894 1.891-1.894m-57.144.199c.697 0 1.394.598 1.394 1.396s-.597 1.395-1.394 1.395c-.697 0-1.393-.598-1.393-1.395s.696-1.396 1.393-1.396m13.34.498 5.177 1.695-1.792 4.187-4.48-1.197zm-23.096.2c.697 0 1.394.598 1.394 1.395 0 .798-.597 1.396-1.394 1.396-.697 0-1.394-.598-1.394-1.396s.598-1.395 1.394-1.395m19.811.498c.697 0 1.394.598 1.394 1.396s-.597 1.395-1.394 1.395-1.394-.598-1.394-1.395c0-.798.598-1.396 1.394-1.396m-33.052 1.595 1.792 4.187-4.878 2.093-2.09-4.187zm3.485.2c.697 0 1.394.598 1.394 1.395s-.598 1.395-1.394 1.395c-.697 0-1.394-.598-1.394-1.395s.597-1.396 1.394-1.396m18.019 1.295c8.064 0 15.331 1.695 21.105 4.087l-1.692 1.595c-18.915-6.48-31.26-3.588-43.903 1.994l-1.294-1.595c8.96-4.386 17.72-6.08 25.784-6.08m21.404 0c.697 0 1.394.598 1.394 1.396s-.598 1.395-1.394 1.395c-.697 0-1.394-.598-1.394-1.395 0-.798.598-1.396 1.394-1.396m-49.279 2.99c1.095.1 1.195 2.094.697 1.496l-1.195-1.396c.2-.1.299-.1.498-.1m50.474.798c0 1.495-1.494 11.862-6.372 18.94-.298-3.59-1.194-7.875-2.09-10.766 0 .1 5.276-4.785 8.462-8.174m-62.719 15.65 25.486 34.49h-2.688c-.598-2.493-1.394-5.084-2.987-7.078-1.294-1.595-2.489-2.791-4.778-3.788-1.394-.598-1.593-.498-1.693-1.595-.398-6.08-5.276-9.868-9.06-11.264-.397-3.688-1.99-7.276-6.072-10.267zm-2.489.897c2.29 1.595 4.878 2.99 6.272 9.37.1 1.296.2 1.196 1.195 1.595 4.081 1.196 7.566 6.08 7.964 10.367 0 1.295.398 1.395 1.991 2.093 1.991.797 3.982 2.592 5.077 4.286 1.693 2.492 2.29 6.18 2.19 5.981h-1.393c-.996-6.28-4.978-8.872-9.16-10.068.3-8.871-6.57-11.662-8.96-12.16.1-6.38-3.981-9.072-6.67-11.265.499-.1 1.494-.199 1.494-.199m-4.082.797c2.091.698 3.684 3.589 3.485 4.985 2.787.299 5.674 2.99 4.977 5.781-.199.1-.497.1-.796-.2.697-5.382-7.267-2.69-4.082 1.197l-1.393.897c-1.195-5.383-2.589-8.473-4.082-12.36.498-.1 1.891-.3 1.891-.3m6.67 11.364c.697 0 1.295.598 1.295 1.296s-.598 1.296-1.294 1.296-1.295-.598-1.295-1.296.498-1.296 1.295-1.296m6.87 5.782c3.086.897 4.081 3.987 3.982 5.083h-.697c-1.095-4.984-6.67-2.292-4.38 1.695-2.987 1.096-2.788 3.887-1.892 4.984 1.195 1.495 4.28 1.495 5.276-.897 2.887 3.788 6.97-.499 3.385-3.988 2.887 1.097 3.385 4.984 2.887 6.18 1.394.499 2.887 2.592 2.688 2.592H35.231s1.095-8.772-.1-15.45c1.494.299 2.39.698 4.082-1.296 2.688 2.193 4.68.598 4.48-1.395-.199-1.396-.896-1.994-2.09-2.692 2.588-.498 4.38 3.589 4.18 5.184m2.389 6.28c.697 0 1.294.597 1.294 1.295s-.597 1.296-1.294 1.296-1.294-.598-1.294-1.296.597-1.296 1.294-1.296"/>
    <path fill="#d40000" d="M14.424 56.165c-1.692-2.89-3.484-5.582-5.774-7.974 2.29-2.393 4.082-5.084 5.774-7.975 1.693 2.891 3.485 5.582 5.774 7.975-2.19 2.392-4.081 5.183-5.774 7.974M164.153 209.174c-1.693-2.89-3.485-5.582-5.774-7.974 2.29-2.392 4.081-5.084 5.774-7.974 1.692 2.89 3.484 5.582 5.774 7.974-2.29 2.392-4.082 5.183-5.774 7.974M48.273 64.738C44.19 57.86 39.81 51.28 34.335 45.599c5.475-5.682 9.756-12.26 13.938-19.139 4.081 6.878 8.462 13.457 13.937 19.139-5.475 5.682-9.856 12.36-13.937 19.139M130.305 223.03c-4.082-6.878-8.462-13.457-13.938-19.139 5.476-5.681 9.756-12.26 13.938-19.138 4.081 6.878 8.462 13.457 13.937 19.138-5.475 5.582-9.756 12.261-13.937 19.139M8.65 29.052H6.46v-2.99h2.19s0-1.595.1-4.486c.1-6.08.298-6.978 2.09-8.672 3.485-3.29 9.259-.598 9.16 4.386-.1 6.977 0 13.656-.2 14.653-.398 1.694-.398 1.794-.298 2.093.298.598 2.887.897 2.887.698v2.99c-1.991.2-2.788 0-4.48-1.196-.996.997-4.082 1.894-6.471.798-1.792-.997-3.186-3.19-2.788-8.274m7.467 5.183c-1.095-1.594-2.887-3.688-4.68-4.485-.099 1.794 0 3.29.698 4.186.995 1.296 2.588 1.595 3.982.3m.896-17.244c-.797-2.293-2.887-3.09-4.38-1.595-.996.897-1.096 1.794-1.096 6.977v4.486c2.987.997 5.675 4.386 5.675 4.386l.1-9.47c0-1.794-.1-3.29-.3-4.784M169.927 220.438h2.19v2.99h-2.19s0 1.596-.1 4.486c-.1 6.08-.298 6.978-2.09 8.673-3.485 3.289-9.259.598-9.16-4.386.1-6.978 0-13.657.2-14.653.398-1.695.398-1.795.299-2.094-.3-.598-2.887-.897-2.887-.697v-2.99c1.99-.2 2.787 0 4.48 1.195.995-.997 4.081-1.894 6.47-.797 1.792.897 3.186 3.19 2.788 8.273m-7.467-5.283c1.095 1.595 2.887 3.688 4.68 4.486.099-1.794 0-3.29-.697-4.187-.996-1.196-2.589-1.495-3.983-.299m-.896 17.345c.797 2.292 2.887 3.09 4.38 1.595.996-.898 1.096-1.795 1.096-6.978v-4.486c-2.987-.997-5.675-4.386-5.675-4.386l-.1 9.47q0 2.542.3 4.785"/>
</svg>
