<svg xmlns="http://www.w3.org/2000/svg" xml:space="preserve" width="178.6" height="249.4" viewBox="0 0 178.6 249.4">
    <path fill="#fbfbf6" stroke="#7f7f7f" stroke-width=".4" d="M3378.4-735.7h160.8c4.7 0 8.5 3.8 8.5 8.5v231.6c0 4.7-3.8 8.5-8.5 8.5h-160.8c-4.7 0-8.5-3.8-8.5-8.5v-231.6c0-4.7 3.8-8.5 8.5-8.5z" transform="translate(-3369.501 736.062)"/>
    <path fill="#d40000" d="M14.089 56.16s-1.8-2.5-4.2-5.5c-1.6-2-2.9-4.2-3-6-.1-2.1 1.2-4.3 3.5-4.4s3.3 1.6 3.7 3.1c.4-1.4 1.3-3.2 3.7-3.1 2.3.1 3.6 2.2 3.5 4.4-.1 1.9-1.4 4-3 6-2.4 3-4.2 5.5-4.2 5.5M164.489 193.26s-1.8 2.5-4.2 5.5c-1.6 2-2.9 4.2-3 6-.1 2.1 1.2 4.3 3.5 4.4s3.3-1.6 3.7-3.1c.4 1.4 1.3 3.2 3.7 3.1 2.3-.1 3.6-2.2 3.5-4.4-.1-1.9-1.4-4-3-6-2.4-3-4.2-5.5-4.2-5.5M8.29 29.06h-2.2v-3h2.2s0-1.6.1-4.5c.1-6.1.3-7 2-8.7 3.499-3.3 9.299-.6 9.199 4.4-.1 7 0 13.7-.2 14.6-.4 1.7-.4 1.8-.3 2.1.3.6 2.9.9 2.9.7v3c-2 .2-2.8 0-4.4-1.2-1 1-4 1.9-6.5.8-1.8-.9-3.1-3.1-2.8-8.2m7.499 5.2c-1.1-1.6-2.9-3.7-4.6-4.5-.1 1.8 0 3.3.7 4.1.9 1.4 2.5 1.7 3.9.4m.9-17.3c-.8-2.3-2.9-3.1-4.4-1.6-.9.9-1.1 1.8-1.1 6.9v4.5c3 1 5.7 4.4 5.7 4.4l.1-9.5c-.1-1.6-.1-3.2-.3-4.7M170.289 220.36h2.2v3h-2.2s0 1.6-.1 4.5c-.1 6.1-.3 7-2 8.7-3.5 3.3-9.3.6-9.2-4.4.1-7 0-13.7.2-14.6.4-1.7.4-1.8.3-2.1-.3-.6-2.9-.9-2.9-.7v-3c2-.2 2.8 0 4.4 1.2 1-1 4-1.9 6.5-.8 1.7.9 3.1 3.2 2.8 8.2m-7.5-5.2c1.1 1.6 2.9 3.7 4.6 4.5.1-1.8 0-3.3-.7-4.1-.9-1.3-2.5-1.6-3.9-.4m-.9 17.3c.8 2.3 2.9 3.1 4.4 1.6.9-.9 1.1-1.8 1.1-6.9v-4.5c-3-1-5.7-4.4-5.7-4.4l-.1 9.5c.1 1.7.1 3.2.3 4.7"/>
    <path fill="#131f67" d="M154.589 19.46h-130.6v210.5h130.6zm-16.1 1.7h14v81.2s-1.2 0-1.1-.6c.1-.8 0-2.2-.5-2.8-.2-.3-.6-.6-.7-.9-.4-.7-1-1.5-1.4-1.7-.2-.1-.5-.2-.5-.3 0-.2-.1-.7-.2-1.1-.3-1.2-.5-1.1.3-2.3 2.5-4 3.5-7.7 3.2-11.4-.1-1.1-.4-2.6-.5-2.8-2.5 2.5-4.2 5.6-5.9 7.8-.4-3.2-.3-5.7-.4-8.3 1.3-.4 2.1-1.1 2.7-2.9 0 0 1.4 1.1 2.3 1l-.6-2.1c3.8-1.2 4.3-6.1-.2-7.2l.4-2.6s-1.3.5-1.9.7c-.3.1-.4 0-.6-.4-2.1-3.3-5.3-2.6-6.7.6l-1.7-.7c.2.9.4 1.8.3 2.7-3.6 1.6-2.7 6.1.2 6.7l-.3 2.1 2.2-.7c.3 1 .2 1.6 1.9 2.7 0 4.4-.1 7.1 0 11-2.3-2.4-4.5-4-8.3-5.2 0 0 0 .9.2 2.4.1.5.1.4-.2.4-.5 0-2.8-3.7-2.8-3.7s-.3 0-.5.2c-.3.3.3.8 1.2 2.1 1 1.5.9 1.4.1 2.1-4.5 3.9-11.1 18.6-10 20-2.9.2-14 5.7-16 17-.1.5-.4 1.2-.4 1.2l-3.2-.8c1.9-9.3 6.3-28.2 6.3-28.2s3.1-.9 4.9-1.1v-.7l-4.2 1 .2-1.6 4-.8v-.4l-4.2.6.7-2.7s-9.5 1.4-12.9 1.3c.2 10.5-.6 19.2-.2 30.5l-4.7-2.8c-.4-7.9-.5-27.7-.5-27.7l-12.9-2 .4 3.1c-10.7-4.3-21.3-8.2-29.2-16.5 4.8-3.7 12.9-7.5 12.9-7.5l-.3-.6c-19.9 10.3-27.1 17.5-37.1 26.4v-73.6h53.8l-.2 13.5s-.1.3-.2.5c-.7 3.2 1.2 9 .9 11.8.2.9.1 2.5.1 2.5-3.2 4.5-5 8.7-6.4 13.9-.6.2-1.4.7-2 .8l-.2.7c1.3-.7 4.9-1.8 4.9-1.8 16.1 7.9 27.9 6 40.5.1-2 7.1 2.4 16.2 9.6 18.1.8.2 2.2.4 3 .2s-1.8-6.3-3-6.5c-3.5-1.5-4.9-5.1-4.5-9.2l-.6-1c-1.2 5 1.7 10 5.6 11.2l1.1 2.3c-7.1-2.1-10.1-8.8-7.8-15.5 0-4.1-2.6-6-3.8-7.7-6.2-2.4-7.3-8.1-6.2-12.8 2.9 1.2-1.9-4.1-1.9-4.1-2.1 4.6-3 10.5 1.8 16.4-3.1 4.2-7.2 7.5-11.7 10.3-6.6 3.5-11.6 1.1-14.7-6.5-1.9-4.6-2.6-9.2-2.6-14 0-3 0-3.1 1.2-2.6 1 .5 3.3.5 4.7-.2 1.8-1 1.8-.4-.2 1.7-.5.6-1.1 1.1-1.1 1.2 0 .6.9.1 2.1-1.1.4-.4.8-.9.9-.9.2 0 .1.6 0 1.2-.1.2-.3 1.2-.5 2.2s-.5 2.1-.6 2.6c-.5 1.7-.4 2.5 1.2 3.3.9.4 2.3 1.8 2.3 1.8s-.4-1.6-.2-2.1c.2-.6.9-.2 1.6.2 1.6.8 2.5.8 3.4.1 1.2-1 .8-3.2-.6-3.8-1.1-.4-1.3 0-.2.7 1.6 1.1-.2 2.9-1.6 1.8-1.1-.8-2.9-.9-3.1-.2s-.4.5-1.1.1c-1.1-.7-1.2-.8-.2-4.5 1.8-7.1 1.6-9.7-.8-11.8-1.8-1.6-4.7-2.3-7.8-.6v-2.4c4.5-1.8 7.8-4.9 10.4-9.9h.5c2.6 5.7 6.9 9.9 14.9 13 3.1 3.1-4-8.9-1.7-4-4.2-1.7-8-4.9-10.1-9h1.2c1.2 1.8 3.7 5.1 8.1 7.3 1.9 0-2.8-5.8-3.5-7.3h36.9c-1.2 9-2.8 18.7 3.7 36.3-3-1.6-15.2 1.8-13.1 2.5 1.1-1.3 8.8-3.1 14.6-1.7-.9-.5-9.2-19.9-4.4-37.2m-24.5 72v1.4l.3-.1-.2-1.4zm-33.3-72h1.6c-.4.7-.9 1.4-1.7 1.8zm2.8 0h1.7c-1.4 2.2-2.8 3.6-4.5 4.6v-1.7c1-.9 2-1.9 2.8-2.9m2.8 0h1.6c-2.2 3.4-4.4 5.7-7.3 7.2v-1.4c1.8-1.4 4.3-3.5 5.7-5.8m2.5 0h1.3c-2.2 4.3-5.3 7.3-9.4 9v-1c4.4-2.5 6.4-5.2 8.1-8m3.5 0h1.6c2.1 4.3 6.6 8.4 11.5 10.2l.7 1.7c-6.4-2.3-10.7-5.8-13.8-11.9m4.6 0h1.1c1.2 1.6 2.6 3.1 4.3 4.2l1 2c-2.3-1.6-4.8-3.5-6.4-6.2m2 0h1.2l1.6 2.9c-1-.6-1.8-2-2.8-2.9m-1.4 11.2c-1.7 0-3.3.5-4.4 1.4-1.2 1-.3 2 1.4 1.2 2.9-1.4 6.3-.7 9.9 1.2 3 1.7 2-.1-.9-1.9-2-1.3-4.1-1.9-6-1.9m-13.8 2.2c2.5 0 5.3 1.1 5.3 2.6-1.6-1.4-4.9-2-8-.6-.2-.1-.3-.9-.1-1.2.7-.6 1.7-.8 2.8-.8m14.9.9c-1.5 0-3 .4-3.6 1.3-.3.4-.4.5-.8.4-.7-.1-.7.3.1 1.4.4.6.3 1.2-.2 1.9-.6.9-.5.9 1.3 1.8 1.4.7 2.5 1.7 3.8 2.5.9.5 1.1.1.2-.6-.3-.2-1.1-.8-1.9-1.3-1.3-.8-2.2-1.7-1.2-1.3.5.2.6.2 1.1.3 1.3.3 2.6.5 3.8.2.8-.2 1.8-.7 2.7-1.4.2-.1.4 0 1 0 2 .1 1.6-.5-1.3-2.1s-5.2-1.9-7-1c-.8.4-1.2.5-1.1.2.1-.2.3-.5.7-.7 3-1.8 5.4-.3 8 1 1.1.7 1.4.9 1.6.6s-1.3-1.3-3.2-2.3c-1.2-.5-2.7-.9-4-.9m-9.6 2.1c.5.2.3.8-.2.6-2.8-1.2-3.3-1.9-6.6-.7-1.1.4-1.5 0-.2-.5 2.9-1.2 5-.4 7 .6m-1.9 1.5c-.7 3.8-4.5 2.6-4.1 0h.7c.1 2.3 2.4 2.3 2.7 0zm22 0 1 2.2c-2.2 5.5.8 13 7.4 14.8 0 0 1.1 1.6.9 1.9-12.4-2.9-11.4-14.7-9.3-18.9m-11.7.1h.3c1.1 2.7 2.6 1.1 2.9 0h.8c-.2 2.9-4.3 3.3-4 0m-9.5.1c.5-.1.7.7.5.8 0 0-1 .9-1.1.4-.1-.7.4-1.1.6-1.2m-5.8.1h.1c.3.2.4.9.3 1.3-.2.2-.9-.1-1.1-.4s.1-.9.7-.9m20.1.3c.2 0 .9.3.8.6 0 .1-1 .8-1.2.7-.3-.3.2-1.3.4-1.3q-.15 0 0 0m-5.5.1c.1.1.7.4.2 1.1 0 0-.7-.2-.7-.3-.1-.4.4-.8.5-.8m15 4.8c-.2 3.2.7 6.3 4.1 8.2l-.7-1.4c-.9-.7-2.7-2.7-2.5-5.1zm-31 5.7.4 2.1c-1.9 3.2-3.3 6.3-4.5 9.9l-1.8.7c1.4-4.6 2.7-8.3 5.9-12.7m.8 3.3.5 1.8c-.9 1.7-1.9 3.7-2.5 6l-2 .7c.9-3.1 2.2-6 4-8.5m6.3.7q-.15 0 0 0c-.1.4-.1 1.3 0 3 0 .3.3.2 1.2-.3.7-.4.7-.4 1.4-.2 2 .7 2.9.4 3.6.2 1.2-.3 1.7-.2 2.3.2.4.2.9.4 1 .4.5.2.3 0 0-1.5-.4-1.7-.2-1.8-.9-1.4-.1.1-.6.3-.8.4-.6.1-1.5-.6-2.1-.4-1.4.5-1.4.4-2.7.1-.6-.2-1.3.2-1.8.3-.4 0-.8-.8-1.2-.8m23.5.9c2.3 2.2 4.7 2.9 7.3 3.7-.3 1.1-.9 2.3-1.2 3.7-13.5 7.2-27.2 7-40 .4l6.7-2.6c3.6 6.3 8.3 8 13.6 6 5.8-2.8 10.1-6.6 13.6-11.2m-29 1.2.6 1.6-.9 2.3-1.6.7c.3-1.6.9-2.9 1.9-4.6m12.3 1.8c-.4 0-1 .3-2.4.3-.8 0-1.3-.1-1.6 0-.6.1.1.4 1.5.8s3-.2 3.2-.8c0-.1-.2-.3-.7-.3m-11.3.8.4.8-.6.2zm36 .4 1 2.3c-1.8 3.8-2.9 14.3 8.8 17.5l.5 1.5c-8 .3-15.9-9.9-10.3-21.3m-26.8.8c-1.1 0-2.3.3-3.1.9-.7.6.2.9 1.1.5 1.2-.6 3.1-.5 4.3.2.9.6 1.3.5.7-.4-.5-.8-1.7-1.2-3-1.2m51.1 2.6c3.1-.1 3.4 4.4 2.8 4.7.2-.1.7-.2 1.4-.2 2.2.1 3.4 1.3 3.5 3.1s-1.2 2.8-3.3 2.7c-.7 0-1.3-.1-1.2 0 .4 1.5-.1 3.7-2 4.2-.2.1-.5.4-.5.5-.1 2.3.5 10.3.5 10.3s3.6-6.1 4.4-7c1.6-2.2 2.2-2 1.9 1.6-.4 5-1.1 6.2-4 10.4-1.3 1.8-4.2.9-4 2.1.1.3.5.8 1 1.2.3.3.6.5 1.4.5 1.3 0 1.8-.3 1 .8-.6.9-2.7 1.1-3 1.5-.6 1.1-.2.8-1.1 1.8-.7.8-.5.4-.1 1 .5.8.3 2.5-.2 3.7-.4.9-.4 1.6-.4 1.6 0 .1 1.2-1.2 1.5-2.7.3-1.2.6-1.9.6-1.2 0 .9.1 2.1.9 2.5.6.4.7.7.6 1.2s.4.9.9 1.2c.1.1.5.3.4.5-.1.8.2 1.7.7 1.8.2.1 1.8 0 2.1-.9 0-.3 0-1.5-.6-1.5-.4-.2-.4-.3.3-.7 1-.6 1.7-1 2.2-1.1.7-.1 1.3-.8 1.3-.8l.1 48c-5.9 6.1-12.4 12.2-21 18.2-5-4.2-10.4-8.4-16.2-11.6l-2-1.2.7-.9-3.5-4.6 3.9-3.2 1 1.3-1.8 1.8 2.8 3.1 6.2-6.1-4.1-3.9 2.1-4 1.4.7-1 2.6 3.1 2 3.9-7.8-4.9-2.3 1.3-5.2 1.5.2-.5 3.8 3.9.8 1.6-8.9-5.7-1 .5-5.1h1.6l-.2 2.8 4 .6.8-7.8-5.5-.9.7-6 1.3.2-.2 3.7 4.1.7c.4-2.5.8-5.6 1.5-8.1l-5.2-2 1.9-5 1.2.4-1 2.7 3.9 1.7 3.3-6.5-4.6-3.2c1-1.7 2-3.3 3.5-4.7l.9.8s-.3.3-.8 1c-.6.9-.8 1.3-.7 1.5s2.9 2.3 3.1 2.3 1.2-.9 1.7-1.4c.5-.6.8-.7 1.3-.3.1.1.3.2.4.4s.2.3.2.4v.2s.1-.1.4-.2c.4-.2-.7-1.2-1.7-1.7-2.8-1.6-6-4.5-6.7-8.1-.3-1.6 3.9.3 6.9 3.3.4.4 2.1 2 2.1 2-.2-4.2-.6-8.5-.4-12.8l-.6-.4c-.9-.6-1.2-1.7-1.3-2.7-.1-.7.6-1.1-.8-1-2.9 0-4.6-2.7-2.8-5.1.6-.9 3.3-1.3 3.3-1.3-1.5-3.3.6-4.8 2.1-5m2.8 4.8q-.15 0 0 0-.15 0 0 0m-96.4 9.1c8.1 6.9 13.2 11.5 29.7 16.6l.4 2.5c-9.5-2.2-19.8-6.7-32.1-17.7zm-2.5 1.6c5.1 4.8 10.4 8.5 15.7 11.6l1.9 1.1-1 1 3.1 4.5-4 3.3-1-1 2.1-2.1-3-3-6.1 6.2 4.2 3.7-2.4 3.7-.9-.4 1.3-2.6-3.9-2.1-4.3 8 5.5 2.5-1.2 4.9-1.3-.1.4-3.9-4.1-.7-1.4 9 5.3.8-.1 5.2h-1.4l.1-2.9-4.2-.2-.4 7.6 5.2.7-.5 6.1-1.3-.3.1-4-4-.4-1.4 8.5 5.3 1.5-1.9 5.3-1.2-.6.8-2.7c-1-.4-3.7-1.6-3.7-1.6l-3.5 6.6 4.5 3.1-2.8 4.9-1.1-.7 1.9-2.9-3.8-2.4-2.1 2.9c-.9-.8-2.5-1.9-3.2-2.6-.7-.6-1.2-.7-2-.5-.7.2-1.3.3-1.2 0 .1-.1 1.4-1 3.3-2.2.5-.3 1-.7 1-1 0-.2.3-.6.7-.8.4-.3.3-.5.3-.8-.4-1.5-.1-3.8.6-5.3.5-1 .7-1.2.3-1.2-1 .1-2.1 3.6-2.3 4.6-.1-.1-.2-1-.2-1.3-.1-.6-.2-1-.7-1.2-.6-.1-.4-.4-.5-.9-.1-.7-.5-1.2-1.1-1.5s-.7-.4-.7-1c0-.5-.5-1.3-.9-1.6l-2.1.8c-.2.6.1 1.3.4 1.6 1.1 1-.5 1-1.6 1.7-.3.2-.6.6-.9.5-.7-.2-.6 1.8-1.3 1.6l.2-48.8c6-5.9 22.5-18.2 22.5-18.2m85.7 8.6.8.9c-2.5 2.9-4.4 5.8-6.4 9.4-1.7 3.1-3.2 7.4-4 12.1-.6 2.9-.7 5.8-1.1 8.7-.4 3.2-.5 7.4-1.1 10.8-1.1 9.2-3.7 14-9.2 19.2-2.4 2.3-10 6.6-10.2 6.6l-1.8-.4c15.6-8 19.5-13.6 21.1-32.5.4-23.9 11.2-33.1 11.9-34.8m1.5 1.6.8.8-4.5 6.5 4.5 3.2-1.8 4.2-1.4-.5 1-2.8-3.8-1.6-3 8.3 5.4 1.7-.9 5.4-1.1-.3v-3.7l-4-.8-1.2 9.3 5.9.8-.4 4.8-1.4-.1-.1-2.8-4.1-.2-.9 8 5.8 1-1 5.7-1.2-.3.3-3.8-3.9-.5-2.2 7.7 4.9 2.5-2.4 4.9-1-.7 1.3-2.9-3.8-1.9-3.7 6.4 4 3.9-3.9 4.1-.9-1.1 2-2.2-3-3-6.2 5 3.2 4.2-.4.5-3.3-1.3-1.6-2.1-1.9.8-1.5-.6c9.2-4.8 15.1-10.5 17.6-18.9 1.4-4.7 1.8-9.8 2.2-14.9.2-2.7.5-5.4.8-8 .5-4.3 1.1-7.9 2.8-12.1 2.3-5.1 4.8-8.7 8-12.6m-49.4 3.2 6.3 3.3-.1 2.2-5.8-2.9zm1.8.1 4.5.6v1.8zm-20.2.1 2.6 1.2 2.2 2.6 1.7-1.1 1.8.7c-5.7 3-10.8 6.5-14.7 12.6-4.4 6.8-4.9 15.7-5.4 24.3-.9 11.8-3 20.2-10.8 29.8l-1.2-.7 4.2-6.8-4.8-3.1 2.2-4 1.1.4-.8 2.4 3.9 2.1 3-8.5-5.6-1.7.9-5.3 1.4.1-.4 3.8 4 .6 1.1-9-5.3-.8.1-4.8 1.3.1v2.9l4.2.2.3-8.2-5.2-.6.6-5.8 1.5.2-.3 3.5 4 .6 1.9-7.5-5.2-2.4 2.8-5.1 1.3.6-1.3 2.8 3.6 1.8 3.8-5.9-4.1-3.9 4-4.2 1 1-2.2 2.5 3 2.8 5.9-5-2.9-4.4zm37.7.2-.2 2.1-6.3 3.6v-2.1zm33.9.1 1.4.9-1 1.2-1.2-.8zm-36.6.3-3.8 2.2v-2.2zm44.6 2.1c.2 0 .4 0 .5.1.4.2.3.9-.1 1.2-.6.4-2.1.4-2.2 0-.2-.7 1-1.4 1.8-1.3m-60.4.8 5.4 2.9v2.1l-5.2-2.9zm17.7.1-.3 2.7-5.6 3v-2.3zm-27 0 2.2.6c-8.2 3.7-16.4 9.1-19.6 18.4-1 2.8-1.7 5.9-2.1 9.9-.2 4.2-.7 8.4-.9 11.9-.4 7.2-2.7 16.8-10.8 27.1l-.8-.6c5-6.1 7.5-11.7 9.1-17.6 2.5-9.4 1.3-19.7 4-29.2 1.6-5.7 5-10.9 10.1-15.3 3.6-2.7 8.8-5.2 8.8-5.2m3.7.8c2 6.8 4.5 19.2 4.5 19.2-5.3-2.6-14.1-2.1-14.1-2.1s-5-6.4-5.9-7c4-5.4 14.8-10 15.5-10.1m68.1 1.1c1.2 0 1.1 1.8-.4 3.1-.8.6-1.2.6-1.7 0-.2-.2-.7-.4-1-.4-.9 0 .8-1.8 2.4-2.5.3-.1.5-.2.7-.2m-61.8 1.5 4.8 2.5v2.1l-4.5-2.4zm16.4.3-.3 2.3-5 2.6v-2.1zm47.2.8c.2 0 .3 0 .4.2.7.8-.6 3.1-2.1 3.8-.6.3-.9.2-1.4-.2-.2-.2-.6-.5-.8-.4-.8.1-.4-.9.3-.9.2 0 1.4-.9 2.3-1.7.6-.5 1-.7 1.3-.8m-5.2.9c1.1 0 1.5.9.2 1.3-.9.3-1.4.1-1.4-.5.2-.6.8-.7 1.2-.8m-57.8 1.3 4.3 2.2v2.2l-3.9-2.1zm15.4.3-.3 2.1-4.6 2.4v-1.7zm48.5.8c.3 0 .4.3.4.9 0 1-.6 1.9-1.6 2.3-.7.3-1.2.3-1.5-.1-.2-.2-.4-.3-.5-.3-1.5-.1-1.3-.4.2-1 .5-.2 1.5-.9 2-1.2.4-.4.8-.6 1-.6m-5.5.7c.7 0 1.4.5 1 .9-.3.3-1.5.4-1.7.2-.5-.5-.1-1.1.7-1.1m-57.6 1.5 3.7 2v2.1l-3.5-2zm14 .2-.1 2.2-4.2 2.1v-2.1zm45.2.9c.7.1.6.7 0 1.1-.4.3-1 .1-1.2-.2-.5-1 .7-.9 1.2-.9m1.4 2.2c.1.2.1.7-.2.8s-1.1 0-1.2-.2-.1-.3.1-.5c.4-.3 1.1-.5 1.3-.1m-60.1 0 3.1 1.7v2.1l-2.9-1.7zm13 .1-.2 2-3.6 1.8v-1.9zm-38.1 1.3c.8 0 1.4.5.9 1.4-.3.6-.5.8-1.7 1.6-.5.4-1 .7-1 .7s-.4.3-.6.4c-1.1.8-.7-.8.7-3.2.4-.6 1.1-.9 1.7-.9m37.8 1.7-.3 2.2-3.3 1.7v-2.1zm-12.2.2 2.6 1.3v2.1l-2.4-1.3zm31.6.2c.1 0 .2 0 .2.1.2.3.2 1.6 0 2.4-.4.9-1.1-1.3-1-1.9.2-.3.5-.6.8-.6m-55.3.4c1.1 0 1.8.7 1.5 1.8-.4 1-2.8 1.7-3.9 2.4-.7.4-.9 0-.7-.6.1-.3.2-.5-.4-.6-1.3-.2-.5-.8 1.9-2.5.6-.3 1.1-.5 1.6-.5m52.7.7c.4 0 .8.2 1.3.7.8.9 1.4 2.8 1 3.3-.3 0-.5.5-.5.7-.1.6-1.1-.5-2.2-2.2-.8-1.4-.4-2.5.4-2.5m-44.3.3c3.2 0 9.4.7 18 6.1 1.1.7 2.2 1.4 3.4 2.1 3.3 1.8 5.9 3 10.1 3.7l-.1 2.2c0 .7 1.1 4.7.6 6.9-.8 0 .7.7.7.7l1 2s-5.1 0-7.5-.5c-3.8-.6-10.6-3.8-14-6.4-3.5-2.5-8.7-4.7-13.1-5.5l-.1-1.9s-.4-6.4-.8-7.3l-.8-2c.3.1 1.2-.1 2.6-.1m27.1 1.4-.2 2.2-2.9 1.3v-1.8zm14.2.1c.8 0 2 .9 3.4 2.8.3.4.5.8.6 1 0 .2-.1.4-.3.3-.5-.1-.7-.3-.9.4 0 .2.1.5-.1.4-1-.3-3.7-3.1-3.6-4 .1-.5.4-.9.9-.9m-25.4.2 2.1 1.1.1 2.1-1.8-.8zm-22.4.6c.6 0 1 .2 1.2.7.5 1.2-.4 1.9-2.9 2.5-2.2.5-2.2.6-1.9-.3.2-.6-.5-.6-.9-.8-.7-.2-.1-.3 1.8-1.3 1.2-.5 2.1-.8 2.7-.8m-7.4.6c.1 0 .1.1.2.2 3.2 4 2.4 9.7-1.7 12.6-.5.3-.5 0-.4-.6l.1-1.2c0-.2 4.7-3.1 1.2-9.6l.3-.9c.1-.3.2-.5.3-.5m53.1 1.2c1.3 0 4.9 3.3 3.3 3.4-.2 0-.1.2-.1.4v.5c-.1.3-.5.2-1.2-.2-1.6-1-2-1.3-2.6-1.8-1.1-1-.8-2.3.6-2.3m-12.7.6v1.8l-2.6 1.3v-1.6zm-32.5 1.3c1.7-.1 2.7 1.7 1 2.6-.7.4-3 .1-4 0-1.2-.1-.5-.5-.4-.6.2-.3.3-.3-.3-.7-.5-.5-.8-.7.5-.8.6-.1 2.1-.2 2.6-.4.1-.1.4-.1.6-.1m52.5.4c.1 0 .1.2.1.8l-.1 1.2c-.8.1-4.7 5-1.5 10.7l-.3 1c-.1.5-.2.6-.6.3-2.4-1.7-3.1-10.1 1.8-13.6.4-.3.5-.4.6-.4m-9.2 1c.5 0 1 .1 1.7.4 1.5.7 2.5 1.2 2.7 1.6.1.2-.1.4-.4.5-.4.1-.4.3-.3.7 0 .3.1.5-.2.5-.6 0-1.9-.4-3.2-1.1-2.3-1.1-2-2.7-.3-2.6m-11.2 0v2.2l-2.1-1zm-35.4 1.8c.2 0 .5 0 .9.1.5.1 1.2.2 1.6.1 2.4 0 3.4 1.6 1.4 2.5-.5.2-.8.2-2.2-.2-.7-.2-1.6-.4-1.9-.5-.7-.2-1-.4-.5-.6.4-.2.5-.5.2-.9-.1-.3 0-.5.5-.5m55.8 0c-.3 3.3-.6 5.9-1.1 9.2-.4-.1-2.9-6.3 1.1-9.2m-10.1 1.6c.8 0 2.1.3 3.4.8 1.1.4 1.3.5.5.9-.5.2-.4.4-.3.7.2.2.6.7 0 .6-.8.1-2.7-.1-3.3-.2-1.8-.3-2.3-2-.8-2.7.1 0 .3-.1.5-.1m-46.5.9c.2 0 .5.1 1 .3 3.2 1 4.6 2.3 3 3.5-.5.4-1.2.2-2.5-.6-1.4-.8-2.1-1.2-2.3-1.5-.3-.3-.1-.6.3-.6.5 0 .5-.2.4-.7-.1-.3-.1-.4.1-.4m8.8.3 2.5.6-6.2 27.4c-2.1.6-3.3.9-4.8 1.7l4.3-.7-.4 2-3.9.7-.1.6 4.5-.8s-.2 1.9-.3 2.6c4.3-.3 8.5-1.5 12.8-1.6 0 0 .1-21.6.1-24v-5.6l4.3 2.4.7 27.2 13.5 2.2c-.1-.5-.5-2.6-.5-2.6 10 3 20.1 7.4 29.1 16.4-4.2 2.3-8.1 4.5-12.2 6.7l-.6.9c10.3-4.8 25.9-14.9 37.2-26v72.3h-53.7v-12.7c-.2-3.9.4-8.1-.7-11.4l-.2-3.4c3.3-3.9 5.1-8.8 6.7-13.8l2.4-.9.3-1c-1.5.8-5.1 2.1-5.1 2.1.4-.3-7.6-3.7-12.5-4.5-8.1-1.3-19 0-27.7 4.4-.4.3-.6.3-.5-.1 2-7.4-2.2-14.8-9.7-16.9-1.6-.5-2.9-.5-2.9-.5l.1.6c12.2 1.4 15 14.3 10.3 20.4-1.2 2-1.4 2.6 1.2 2.5 10.4-.1 14.1 11.6 9.3 18.1l.4.8c3-3.9 3.8-11.4-1.5-16.7 3.9-4.4 11.3-11.3 17.8-10.9 2.3.1 4.7 3 6.2 5.3 3.3 4.8 4.1 11.6 4.3 15.4.1 1 .2 1.7.2 2.3 0 1.5-.3 1.4-1.3 1.1-1.2-.3-2.9-.3-4.2.1-2 .6-1.7.3.1-2 1.1-1.3 1.2-1.7.8-1.8-.1 0-.6.4-1.2 1.3-1.8 2.7-1.6 1.6-.4-2.7.8-2.8.7-3-1.5-4.7-.8-.6-1.7-1.1-1.8-1.3-.4-.9-.6.2-.2 1 .4.7-.4 1.1-1.8.3-3.3-1.8-5.4 1.9-2.5 3.5.7.4 1.1.1.5-.4-1.8-1.7-.5-3.1 1.9-1.6 1.4.9 1.9.6 2.4-.5.3-.4 2.5 1.1 2.4 1.8 0 .4-.3 1.7-.5 2.6-.7 2.4-.9 3.2-1.2 4.8-.6 2.9-.5 4.3.1 5.6 1.3 2.8 4.6 4.1 7.5 3 .4-.2 1.2-.3 1.2-.3v2.1c-5.7 2.2-9.8 8.9-9.6 9.2h-2c-2.7-5.4-7.4-9.4-13.5-11.7-1.2-1 .3 2.8 1.6 3.6 2.9 1.5 6.6 4.1 8.7 8.1h-1.4c-1.8-2.7-4-4.5-6.2-6.1-.5-.1.4 4.9 2.4 6.4l-37.1.7c2.5-10 3-21-2.9-35.5 4.9.3 9.3-.8 13.3-2.5l-.4-1c-4.6 2.2-9.6 2.6-14.6 2.1 3.8 7.1 7.1 21.8 3.9 36h-14.1v-77.5s.8.5 1 .7c.4.4.7 1.1.8 1.5.2.6.3.6 1.2 1.3.4.3.6.6.6.7 0 .2 0 .7.2 1.1.7.9.6 1.5.1 2.1-2.6 2.7-4.2 8.5-2.9 14.5 3.1-2.1 6.3-7.6 6.4-7.6l.3 7.5c-.3-.1-2.2 1.1-2.2 2.5-.9.3-1.9-.2-2.8-.4l.6 2.2c-3.2 1.3-3.3 5.7.3 6.9 0 0-.3 1.7-.6 2.6l2.4-.4c1.4 4.2 6.7 2.8 6.7-.1 0 0 1.6.6 2.2.9l-.6-2.8c6.1-3 1.5-7 .1-7 0-.8.4-1 .7-2l-2.4.2c-.4-1.5-2.1-2.7-2.2-2.5l-.3-10.7c1.9 1.6 3.7 3.3 6.1 4.6 2.3 1.2 2.5.9 2.2-1.1-.2-.9-.1-1.5-.1-1.5.8.2 3 3 2.9 4.4.8 1 1.5-1.7-.5-4.1 5.4-5.7 9.5-15.1 10.3-21.5l7.2-2.9.1-.9c5.2-3.7 7.8-8.2 9.1-13.4m6 1.7 1.6.7-1.9.9zm-15.9.4c.3.1.8.5 1.5 1 1.4 1 2.2 1.7 2.2 2.4 0 .3-.2.7-.6.9-.8.5-1.7.1-3.5-1.8-.6-.6-1-.9-1.2-1.2s-.1-.6.3-.5c1.6.6.3-1.2 1.3-.8m50.4.4h.7c.4.1.5.3.3.5-.4.3-.3.7.1.9.3.1.2.4-.2.6q-.3.15-.9.3c-2.2.7-3.9.5-4.3-.6-.5-1.2.5-1.8 3.2-1.8.4.1.8.1 1.1.1m-32.7.7v1.6l-2.3 1.1.3-1.6zm-19.8.5c.2 0 .5.3 1 .9 2.2 2.8 2.6 3.3 1.8 4-.9.9-2.1 0-3.4-2.4-.2-.3-.4-.7-.5-.9-.5-.6-.3-.7.3-.7.3 0 .5-.1.5-.4.1-.3.1-.5.3-.5m53.8 1.4c.4 0 .4.1.2.6-.1.4-.4.6.2.8.1 0 .3.3.1.4-.5.3-2.6 1.3-3.3 1.5-1.5.5-2.4-.7-1.5-1.9.4-.5 2.9-1.4 4.1-1.5.1.1.2.1.2.1m-55 1.6c1.5 2.2 1.7 3.3.7 3.9-.6.5-1.9-.2-2.3-1.7-.2-1.1-.3-2.3 0-3.2.6-1.3 1.5.8 1.6 1m21-.9v1.8l-2.8 1.4.3-1.9zm5.8.1 2.7 1.7.2 1.5-2.8-1.5zm29.7 1.7c.1 0 .1 0 .1.1 0 .2-.1.9.3 1 .8.1.6.4-.1 1-.7.7-1.4 1.4-2.3 1.9-2.3.9-3-1.6-.8-2.9.8-.4 1.4-.7 1.9-.9.4 0 .7-.2.9-.2m-29.7.9 3.1 1.8.1 1.8-3.1-1.6zm-5.9.2v1.6l-3 1.7.2-1.8zm12.5 1.3c.9.4 11.8 3.5 15.4 2.4 0 0 3.1 4.5 5.4 6.1-3.6 5.3-15.6 10.4-15.6 10.4zm24.6.1c.2 0 .2.2.2.6 0 1.1-1.8 5.1-3.2 3-.4-.8 0-1.6 1.2-2.5 1-.7 1.6-1.1 1.8-1.1m-59.6.6c.3.3.1 1.2-.4 1.1-.2 0-.2-.9-.1-1.4.1 0 .4.2.5.3m22.5.5v2l-3.6 2 .4-2.3zm5.9.3 3.5 1.9.4 2.2-3.9-2zm-5.9 2.8v2.1l-4 2.1.3-2zm6 .2 4 2.3.5 2.1-4.4-2.3zm-56.1 0c.6 0 .9.7.4 1.1-.3.3-1.2.2-1.3 0-.5-.3.1-1 .9-1.1m1.2 2.2h.3c.5.1.8.8.5 1.2-.5.7-1.9.2-1.7-.7 0-.2.5-.5.9-.5m48.8.7v1.8l-4.4 2.3.3-2.1zm6.2.3 4.5 2.4.3 2.1-4.8-2.5zm-57.2 0c.2 0 .4 0 .5.2.1.1.2.5.5.7.6.3.6.4-.5.9-.5.2-1.4.8-1.7 1.1-1 .7-1.4.4-1.5-.3 0-1.1 1.8-2.5 2.7-2.6m3.4 1.5c.2 0 .4 0 .6.1.4.2.4.8 0 1-.8.5-2.1-.2-1.4-.8.2-.2.5-.3.8-.3m47.6 1v2.4l-4.9 2.6.3-2.4zm-50 .3q.45 0 .9.3c.3.4.6.5.8.5.8 0 .6.3-.3.7-1.2.6-2.1 1.3-2.9 2.1-.9.8-1 1-1.3.7-1.1-1.4 1.1-4.2 2.8-4.3m56.3 0 5.1 2.8.4 2.4-5.5-3.1zm-52.9 1.7c.2 0 .4 0 .6.2.4.3.2.9-.4 1.1-.4.2-1.1.1-1.3-.1-.5-.5.3-1.2 1.1-1.2m-2.5 1.2c.3 0 .6.4.8.8.1.1.4.1.7.1 1 0 1.1.4.2.9-.3.2-1.2.8-1.8 1.3-1.6 1.5-2.5 1.2-2.3-.4.3-1.5 1.6-2.6 2.4-2.7m55.4.1 5.6 3.1.5 2.6-6.2-3.4v-2.3zm-6.2.1v2.4l-5.3 2.8.4-2.4zm6.3 3 6.3 3.8.2 2.5-6.5-3.8zm-6.3.4v2.3l-5.9 3 .3-2.2zm-47.7 1.5c.2 0 .3 0 .4.1.7.3.5.9-.5 1.4-1.1.6-1.4.5-1.6-.2-.2-.5.9-1.3 1.7-1.3m66 .3c11 2.5 21.7 8 32.2 17.6l-2.2 1.6s-9.1-10.5-29.5-16.7zm-12 1.1 3 1.8v.5l-3.1-.3v-2zm-51.8.1c.2 0 .4.1 1.5.7 4.4 3.2 6.1 5.1 7.2 8.6.6 2.1.6 2-1.5.9-2-1.1-4.8-2.9-6.5-5.2-.3 5.4.3 12.2.3 12.2 2.7 1.4 1.8 4.9 1.8 4.9 7-1.9 5.5 7.4.3 5.4 1.2 7-6.7 6.4-5.9.4-6.3-.2-5.2-7.2 0-6.2q-.75-3.15 2.1-4.5l-.3-9.2s-5.2 7.5-6 7.3c-.5-.1-1.3-.9 0-7.5.7-3.4 4.3-7.6 6.3-7.7.4-.1.5-.2.7-.1m5 0 .9.6-.9 1.6-1-.7zm40.4.5v1.4l-2.8.2zm-29.7 16.4c6.7 1 10.8 9.3 7.7 15.3-.4.3.2 1.6.6 1.1 3.3-4.7.8-16.1-8.7-17.2-2-.3-.2.3.4.8m1.1 2.2c-.5 1.5-.7 1.8.7 1.2 2.4.9 5.1 4.9 4.2 8.9-.3.5.2-.3.5 1 1.2-2.9 0-9.2-5.4-11.1m30.9 7.5c6.9 0 13.6 1.5 19 4.6-1.8 1-7.7 2.5-7.7 2.5-3.3-3.7-5-7.4-10.9-5.5-6.2 1.6-11.8 7-15 10.6-3.2-1.9-4.9-2.4-7.7-2.5-.2 0-.4.7-.2-.4.8-1.2 1.4-2.7 1.9-4.1 5.9-3.4 13.3-5.2 20.6-5.2m21.3 4.8c-1.4 4.4-3.1 8.8-6.1 12.7l-.4-1.9c2.8-4.3 4.1-8.3 4.7-10zm-2.6 1.1c.2.3-2.7 7.2-4.2 8.5l-.6-1.8c1.2-1.8 2.9-6.1 2.8-6.1zm-17.7 0c-.1 0-.1.1-.1.3 0 .6.7 1.1 1.9 1.4 1.6.4 3.9-.2 3.9-1 0-.4-.3-.5-1.2 0-1.2.5-2.2.4-3.7-.4-.5-.2-.7-.3-.8-.3m14.5 1.1c-.5 1.7-1.1 2.9-2 4.2l-.3-.9c.6-1 1-2.1 1.5-3.1zm-1.7.6c-.2.6-.5 1.3-1 1.8l-.7-1.4zm-10.3 1.3c-1.1 0-2.2.4-2.3 1 0 .3.4.2 2.4-.1 1.1-.1 1.6.5 2.6.4.5-.1 0-.5-.1-.7-.6-.4-1.7-.6-2.6-.6m-4.7 1.3c-.1 0 0 .3.4 1 .2.4.3 1.2.3 1.7-.1 1.2 0 1.2.6.5.4-.4 1.1-.3 2.3 0 .8.2.9.3 1.5-.1s.8-.2 1.3-.1 1-.1 1.5-.3c.7-.2.8-.1 1.4 0 .9.4.8.4.8-1.1.1-1.5 0-1.6-.9-1.1-.8.5-1.4.7-2.7.3-1.4-.5-1.6-.4-2.6-.1-1.2.4-1.8.5-2.7-.1-.7-.4-1.1-.7-1.2-.6m-19.7 2.2.5.9c4.9 1.7 8.1 5.7 6.2 12.5l.5.7c2.5-6.7-.3-12.4-7.2-14.1m1.5 2.9.7 1.4c3.7 1.8 3.4 6.7 3.2 6.5l.6 1.3c.9-3.2-.7-7.9-4.5-9.2m15.3 7.3c-.1 0-.2.1-.3.2-.1.2.2.4 1.9 1.6 1.4 1 2.5 1.7 2.5 1.9-.1.1-.9-.1-1.6-.3-1.7-.5-4.1.1-5.5 1.1-.4.2-.9 0-1.4-.2-.2-.1-.6-.1-.9-.1-1 .3 0 1.3 2.5 2.6 3.1 1.6 4.8 1.7 6.7.8 1.3-.7 1.7-.2.3.6-2.4 1.3-4.7.9-8.5-1.7-1.8-1.2-2.5-1-1 .1 2.7 2.1 7.8 4.7 10.9 1.5h.5c.7 0 .7-.2 0-1.3-.4-.7-1.2-1.3-.2-2.1.8-.6.7-.9-.2-1.2-.2-.1-.2.1-.6-.2-2.1-1.9-4.3-3.3-5.1-3.3m1 3.6c.9 0 1.9.8 2.2 2.1 0 .1 0 .2.1.4h-.8c-.7-2.7-2.7-1.8-2.8-.2l-.7-.1c.1-1.6 1-2.2 2-2.2m16.5 2.3-.5.1c-.3-1-1.9-2.3-2.7.1h-.7c.5-3.3 3.4-2.8 3.9-.2m-4.1-1.4c.2.3-.2.8-.4 1.1-.2.2-.7 0-.9-.2s0-.7.2-.8c.4-.2.9-.3 1.1-.1m-9.3.1c.2.5-.4.9-.5.7-.1 0-.3-.9-.2-.9.2 0 .6 0 .7.2m14-.1c.3 0 .7.2.8.6 0 .3-.3.5-.6.5-.1 0-.7-.4-.6-1 .1-.2.2-.1.4-.1m-19.5.2c.1.2-.1.7-.2.8h-.7s-.1-.5.1-.8c.2-.2.7-.2.8 0m13 1.7c.1 0 .2 0 .3.1 2 1.3 4.6 1.9 6.4 1 .4-.2.7-.2.7 0s-.5.7-1.3.9c-1.9.6-5.1-.2-6.2-1.4-.2-.3-.2-.6.1-.6m-17.6 1.4c-.2 0-.3.1-.2.3.1.8 5.5 3.9 7.7 4.3 1.8.3 3.3.2 4.4-.5 2.7-1.6 2-3.8-.6-2.1-1.8 1.1-6.3.6-9-1-1.3-.6-1.9-1-2.3-1m24.2 1.1c.7-.3 1-.4 1.1-.3.7.6-.4 1.5-2.5 1.8-1.6.3-2.6.3-4.5-1.1-1.5-1.1-.8-1.6.1-1.1 2.2 1.4 3.8 1.5 5.8.7m-23.7 3.4c4.7 1.7 10.1 5.8 12.5 10.8h-1.5c-1.6-2.9-4.8-6.5-10.1-9-.4-.4-.7-1.1-.9-1.8m24.9 2.4v1.6c-2.9 1.5-5.4 3.8-7.2 6.9h-1.7c1.9-3.5 4.8-6.6 8.9-8.5m0 2.3v1.9q-2.85 1.65-4.5 4.2h-2c1.6-2.6 3.8-4.8 6.5-6.1m-21.7 1.5c1.4.8 3.7 3 4.6 4.7h-.8c-.8-1-2-2.1-3-3-.6-.7-.8-1.7-.8-1.7m21.7 1.3v1.6s-1.4 1-2 1.8h-1.6c1.1-2 3.4-3.5 3.6-3.4m0 2.5v.9h-1c.1-.1.6-.8 1-.9m-19.5.2c.3.2.5.7.5.7h-.3z"/>
    <path fill="#e2cf00" d="M37.789 193.56c3.3.1 10.2-1.1 10.1-1 0 0 21.6 36.1 20.7 35.7-.3.4-27.6.4-27.6.4-.6.1 5.8-13.3-3.2-35.1m9.8-25.4c10.5-8.8 21.5-8.8 33.3-10l.3-29.8 4.3 2.6.1 27.3c15.6 1.2 29.1 6.9 40.6 17 .1.2-16.7 9.3-24.1 11.7-5.7-4.2-20.9-6.9-30.9-3.7-2.8.9-6.1 2.3-9.4 3.4 2.4-14.4-8.8-16.5-12.7-17.2-.6-.1-1.2-1.1-1.5-1.3m-13.5 4.7c.2-3.1 0-6.1-.2-9.3-.1-.7-6.1 9.3-6.5 6.9-.9-6.1 2.2-13.9 6.9-14.8.5-.6 9.8 5.2 9.4 10.2-.1 1.6-8.3-5.5-8.4-5.1-.2.8.2 12.1.5 12.1 2.4 1.3 1.8 3.1 2.1 4.5 6.3-.9 6 6.1 0 5.9.4 8.4-7.3 4.6-5.8.1-7.8-.4-3.9-7.7-.1-6.1-.2-1.8.2-3.7 2.1-4.4m8.9-35.5c-.4-.2-16.6-1-16.6-1l.8-39.5c8.2-19 39.2-10.1 34.3-6.1-14.7 9.7-17 27.5-18.5 46.6m29.7-16.2-.5-4.4c-1.3-2.7 32.9 13.2 33.3 13.5l1 4.7c.3 2-21.7-8.4-33.8-13.8m62.3-7.8c-2.6 19.7-2.4 39.5-16.9 46.4 10.9 10.6 20 2.4 33.7-4.4.4 0-.5-42.2-.7-42.1-5.4.1-10.7.3-16.1.1m7.6-19.3c-2.7-.4-9-7-7.7-8.9 0-1.5 7.8 4.2 8.6 5.7-.4-.5-.5-13.9-.6-13.4-.3.2-2.4-1.3-1.8-4.1-6 1.3-5.6-6.5-.4-6.1-.7-7.1 7.9-4.5 5.6.3 7.4-1.4 6.1 6.9.5 5.6.5 3.2-.8 4-2.6 4.7.1 1.3.6 10.1.6 10.1s5.4-8.4 5.8-7.7c1.4 2-.8 15.9-8 13.8m-25.2-30.9c-2.5 8.5 4.3 18.2 10.6 18.2 1.3-.2 3.7.5 2.9 1.2-10 8.2-33.4 9.9-33.4 9.5.2 10-.2 20.2-.4 30.2l-4.3-2.6c-.1-9.1-.4-18.5-.6-27.7-15-2-28.4-6.8-39.1-17.2 7.1-5.3 15.5-8.6 23.6-11.9 10.2 5.4 24.4 8.5 40.7.3m-7.4-40.4c-.5-.2 1.6-1.8 1.6-1.8s17.4.2 26 .1c-3.1 13-.9 24.6 3.1 35.8-1.1-.3-8.2.3-10 1.1-.2.3-20.5-34.9-20.7-35.2"/>
    <path fill="#d40000" d="m69.189 228.26-21-35.8 3.2-1.4 21.7 37.2zm-37.4-47.8 3-3.1 3 3.1-3.2 3zm67.5-20.1-.4-2.6c12.1 3 22 9.3 29.2 16.1l-1.7 1.3c.5-.2-17.3-13.6-27.1-14.8m-34.9-2.3 3.5-.7-.1 2.1-3.4.7zm70.6-1.9-2.1-1.7 1.5-1.8 2 1.6zm-71.2-17.3c5.2-2.5 9.3-12.5 8.8-13.2l2.8.7-6.6 27.4-4.5 1c0-5.3-.5-10.7-.5-15.9m34.3 15.5c-1.8-5.8-5.2-18.8-5.2-18.8.1.4 11.3 3.6 15.3 2.5 1.7 2.3 3.6 4.4 5.5 6.3-4.2 4-9.3 7.4-15.6 10m46.8-21-2-1.7 1.8-2.2 2.2 1.7zm-25.7-1.2c-1.6-2.9-1.7-6.2 1.3-9.4zm-61.1-5c-.1-2.9.3-5.8 1-8.5 1.7 3.1 1.7 6.3-1 8.5m44.9-2.7s4.3-20.2 6.2-28.1l4.8-1.1-.2 16.3c-4.8 3.9-8.1 13.2-7.9 13.2zm-69.5-3.4-2.1-2 1.8-1.9 1.8 1.9zm37.4-7.9c-1.5-2.2-3.6-4.5-5.7-6.8 3.6-5 9.4-7.9 15.7-10.1l4.2 19c-4.8-1.4-9.9-3-14.2-2.1m-29.3-16.8 1.5-1.8 1.9 1.5-1.5 2zm69.2-5.6 3-.7.1 2.3-3.6.7zm-60.2-14.5 2.3-1.4q12 10.8 26.4 15l.3 2.7c-10.9-3.4-20.8-8-29-16.3m93.1-2.8-3-2.9 2.7-3 3.2 2.7c-1 1.6-2.9 3.2-2.9 3.2m-16.3-14.3-22.1-38h3.2l21.8 36.6z"/>
    <path d="M105.089 20.56h-5.3l30 60.7s-.8.1-2.4-.3c-7.2-1.9-11.6-9.6-10-17.1.2-.6.2-1.1.2-1.1-18.6 8.5-30.1 5.3-40.8 0l-4.6 1.8c.3-2.8 3.7-13.2 8.8-18.1v-5.3l-.1-2.5-.4-4.5c-7.6 7.2-16.5 18.5-17.6 34.7 0 0-6.9 3.6-12.8 7.5.3 0 9.2 10.9 30.5 17.1l-.9-3.5c3.2.9 7.7 1.6 12.2 2.2l.6 27.5 5.1 3 .2-30.4c.2.1 8.1-.3 12.4-1.3l-.6 2.9 4.2-.8v2.1l-4.6 1.1-6.6 28.4 3.9.9c1.1-5.7 4-10.4 8.1-13.2v-1.1c2.6-1.9 8.1-3.4 8.2-3.4 1.9-9.2 6.2-15.6 10.9-21.7l-2.2-3 8.5-3.1-11.8-20.2c4.5-3.1 13.5-2 13.5-2-3.8-10.5-7.2-21.2-3.4-37.1h-32.7zm10.7.6c0 2.6-3.4 2.4-3.9 0zm21-.1c-2.1 12.1-1.4 23.9 3.4 35.2h-.8c-.1 0 .1-.6 0-.8-.1-.4-.8-.2-1.4.2-.3.2-.5.4-.7.5-.6.3-3.6.3-3.6.3 1-.7 2.4-2.6 1.6-3.7-.2-.2-.3-.1-.5.2-.9 1.5-1.3 1.8-2.4 1.8-1.8 0-3.1-1.1-3-2.8s2.6-2.5 2.2-.9c-.1 1.4 1.3 1.7 1.6.3.1-.5 0-.3.1-.9 2.8-1.5 1.3-4.6-1.4-3.9-.6.2-.7.2-1.1 0-.8-.4-1.5-.3-1.8.3-.3.5.1.9.7.9s.7.3.7.7c0 .9-1.5 1.3-2.5.8-2.6-1.3-1.7-4.9 1.4-4.8.9 0 1.3.1 1.4-.1.1-.6-1.3-1.5-2.1-1.4-.7.1-1.1.3-.7-.6.2-.9.2-1.4 0-2.1-.5-1-.5-.5-.8.3-1 1.7-2.5 2-3.8 1.1-1.2-.9-1.2-2.5 0-3.6.8-.8 1.7-.3 1.2.6-.2.4 0 .8.3.9.7.2 1.2-.2 1.2-1.1 0-.5-.1-.6.7-1.1 2.2-1.3.6-4.8-2-3.7-.6.2-.7.5-.9.4-1.1-1-2.6.3-1.7.9.4.2.9.3 1 .3.2.1.1.4-.2.8-1 1.2-3.4.6-4-1.1-.7-2 1.4-4.2 3-3 .5.4.9.4.9-.1 0-.8-1-1.7-2.3-1.6s-1.2.3-.5-.9c.5-1.1.5-2.1 0-2.7-.4-.5-.7-.6-.7-.1.3 1.6-1.5 3.1-3 2.4-1.4-.7-2.2-2.3-1.5-3.7.7-1.3 2.2-1.4 2 0-.1.9.5 1.4 1.2.8.2-.2.3-.4.3-.9 0-.6-.2-.8.2-1.2 1.1-.1 1.1-2.4 1-2.5zm-19.2.1c.7 0 1.2.2 1.2.9s-.5 1.2-1.2 1.2-1.2-.6-1.2-1.2.5-.9 1.2-.9m-12 .1h2.7l21.6 36.3-2.6 1.3zm4.5 1.3c1.3.8 2.5 1.4 4.2 1.5-.5 1-.9 2.1-1 3.9zm4.4 7.3c1.3.5 2.5 1.2 4.7.5-1.2 1-1.8 2.3-2.3 3.6zm11.2 4.4c.6 0 1.1.5 1.1 1.1s-.5 1.1-1.1 1.1-1.1-.5-1.1-1.1.5-1.1 1.1-1.1m-7 2.8c1 .4 2 .6 3.1.5-.6.8-.7 1.9-.8 3.3zm3.3 5.8c.9.4 2 1.1 3.8.9-1.2 2.1-1 2.7-1.1 3.6zm10.9 4.2c.7 0 1.2.5 1.2 1.2s-.5 1.2-1.2 1.2-1.2-.5-1.2-1.2.5-1.2 1.2-1.2m-6.8 2.7c.8.5 2.4.7 2.5.6-.1-.1-.5 1.6-.5 2.6zm3.8 6.2c1.2.7 2.4.6 3.2.7-.8.2-1.6.4-2.4.7zm13.7 6.7c-2.8.2-3.4 2.3-3.1 4.5-2.1-.3-4.5 1.7-3.9 4.2.6 2.4 2.8 2.4 4.3 2.3-.1.6-.4 2.5 1.9 4.1l.3 12.3s-1-.9-1.7-1.6c-2.9-2.9-7.3-5-7-3.4 0 .2.1.9.2 1.4.5 2.8 4.2 5.8 6.7 7.3.9.5 1.5 1 1.5 1-4.7 5.1-7.3 10.5-7.9 15.9-.6 5-1.1 9.5-1.5 14.1-1.9 23-11.8 28.8-12.2 30l-.2 3.1-2.7-.2-3.2 2.8c10.4 5.4 16.4 11.9 16.3 12 8.3-5.4 15.4-11.5 22.1-17.8l-.1-51.3s-.6.2-.7.2c-.5 0-.6.2-.8 1.2-.1.5-.4 1-.7 1.4-.5.7-.3.3.3.6 1.3.5-.4 3-2.3 3.3-1.4.2-2.1.5-2.3.8-2.9 2.5-5.7 2.9-7.9 2-1.1-.5-2.2-1.1-2.6-2.2-.9-2.5 1-6.1 2-8.2 2-3.8 5.3-6.7 5.3-6.7l-.5-.6h.8c2.8-1 3-1.1 3.5-1.8.5-.8 1.8-2.9 2.1-3.6 1.5-3.8 1.7-4.1 1.7-6.6 0-2-.1-3.4-.5-3.5-2.2 1.7-4.5 5.8-5.8 8.1-.5-3.5-.6-9.7-.6-9.7.5-.5 3.2-.2 2.6-4.6 2.4 1.1 4.9-.6 4.8-2.9-.2-3.6-2.9-3.5-5.1-3 .9-2.4-1.1-5-3.1-4.9m0 .3c2.9.1 3.5 3.3 1.7 5.2 0 0-1.2-.9-1.8-1.4-.6.5-.8.9-1.4 1.3-.8-.6-1.2-1.6-1.2-2.5 0-1.5 1.5-2.6 2.7-2.6m-66.8.1c11.8 6.7 26.6 7.1 40.2.3l-.2 1.1-1.5.8.8 1.6.5-.2v1c-11.2 6.1-29.9 7.3-44.6-2.8l1.3-.6.6.4c.5.3 1.4.9 2 1.1l.9-1.3s-1.4-.8-1.2-.9zm1.1 2.1-.7 1.5 1.7.9.6-1.6zm-6.5.2c18.2 11.5 35.2 8.1 45.3 3.4l.1 1.2c-13.1 5.6-30.4 7.1-46.8-4zm42.9.7-1.6.7.6 1.5 1.7-.7zm-45.1.3c14.8 9.6 30.7 11.5 47.8 4.4l.7 1.8c-16.7 6.7-34.2 6-50.3-5.5zm11.4 0-.7 1.6 1.8.7.5-1.6zm31.1.7-1.6.5.5 1.5 1.7-.6zm-28.3.4-.4 1.6 1.9.5.3-1.6zm67.8 2.7c.3 2.8-3.8 4.1-5.3 1.5l1.3-1.6-1.2-1.1c1.6-2.6 4.9-1.4 5.2 1.2m-84.2-2.6 4.4 3.1-3.2 5-4.8-3.2zm76.5.2 2.8 2.4-2.6 3-2.6-2.7zm-1.8.8-1.6 1.8 1.7 1.8c-2 2.2-5 .8-5-1.8.1-2 3.1-3.9 4.9-1.8m-32.7-.7-1.7.5.4 1.5 1.7-.5zm-22.7.5-.3 1.6 1.9.4.3-1.6zm20 .2-1.8.4.3 1.6 1.8-.4zm37.3.4-1.5 1.5 1.5 1.5 1.5-1.5zm-54.2.1-.2 1.6 2 .3.2-1.6zm13.7.2-1.8.2.2 1.6 1.9-.2zm-10.8.2v1.7l1.8.1v-1.6zm7.9.1-1.8.1v1.6l1.8-.1zm-32.6 0c-1 0-1.9.9-1.9 1.9s.8 1.9 1.9 1.9 1.9-.9 1.9-1.9-.8-1.9-1.9-1.9m29.6.1h-1.8v1.6h1.8zm46.4 0 .8.8-.8.8-.8-.8zm-76 .6c.7 0 1.2.6 1.2 1.3s-.6 1.3-1.2 1.3-1.2-.6-1.2-1.3.5-1.3 1.2-1.3m-6.8.1 2.5 2.1c-.8 1.5-3.3 4.8-3.3 4.8l-4.7-3.8 2.4-1.4c-.1.3-.2.5-.2.9 0 1 .8 1.9 1.9 1.9s1.9-.8 1.9-1.9c0-1-.8-1.8-1.7-1.9zm-1.4 1.3c.7 0 1.3.6 1.3 1.3s-.6 1.3-1.3 1.3-1.3-.6-1.3-1.3.6-1.3 1.3-1.3m85.9.6s.7.3.9.5c1.4 2.1-.1 4.6-2.3 4.5-2.7-.1-3.4-3.4-1.5-4.8l1.5 1.4zm-69 .9 5.2 2-2 5.7-5.7-2.4zm-21.5.6c21.3 19.4 51.6 20.7 73.7 7.9h1.3l.7.7c-25.1 14.9-56.3 11.7-77.3-7.5zm58.8 1.1 1.7 5.7-5.8 1.5-1.3-5.7zm-61 .2c6.5 6.3 15.6 11.8 26.4 14.9l.3 2.3c-11.4-3.5-20-8.1-28.4-16.1zm25.1.1c-1 0-1.9.8-1.9 1.9 0 1 .8 1.9 1.9 1.9s1.9-.8 1.9-1.9c0-1-.9-1.9-1.9-1.9m-9.3.4 5.4 2.9-2.7 5.4-5.7-3.1zm9.3.2c.7 0 1.3.6 1.3 1.3s-.6 1.3-1.3 1.3-1.3-.6-1.3-1.3.6-1.3 1.3-1.3m8.9.8 5.2.8-.2 5.8-6-.7c.1-2.1 1-5.9 1-5.9m25 .2c-1 0-1.9.8-1.9 1.9s.8 1.9 1.9 1.9 1.9-.8 1.9-1.9-.8-1.9-1.9-1.9m0 .6c.7 0 1.3.6 1.3 1.3s-.6 1.3-1.3 1.3-1.3-.6-1.3-1.3.6-1.3 1.3-1.3m-42.1.1c-1 0-1.9.8-1.9 1.9 0 1 .8 1.9 1.9 1.9s1.9-.8 1.9-1.9-.9-1.9-1.9-1.9m33.1 0 .7 5.8-5.7.3-.3-5.8zm40.6.5h.8c.1 5 .5 10.8 1 15.1.1.6.1.8.1.9-.6 1-1.2-.3-1.5-3.1-.1-.8-.2-1.9-.3-2.7-.2-2.3-.1-10.2-.1-10.2m-95.7.1c-8.5 5.3-22.7 18.1-22.6 18.4l.1 49.1 1.1.1.9-1.8c-1.4-.4-1-3 1.7-3.6.5-.1 1.9-.6 2.2-.8 2.1-1.6 5.4-2.5 7.7-1.9 3.4.9 4.1 3.4 2.5 7.8-1.3 3.5-3.9 7.9-6.3 9.2l-.6.3s.6.5.8.6c6.6-3.9 10-17.7 9.8-26.4.3-8.8 1.8-17.7 5.3-24.2 5.9-10.7 13.6-15 13.6-15 .1 0-10.4-6.4-16.2-11.8m22 0c.7 0 1.3.6 1.3 1.3s-.6 1.3-1.3 1.3-1.3-.6-1.3-1.3.6-1.3 1.3-1.3m51.7.2 2 5.4-5.6 2.3-2-5.7zm-32.3 0c-1 0-1.9.8-1.9 1.9 0 1 .8 1.9 1.9 1.9s1.9-.8 1.9-1.9-.9-1.9-1.9-1.9m11.4.5c-1 0-1.9.8-1.9 1.9 0 1 .8 1.9 1.9 1.9s1.9-.8 1.9-1.9-.9-1.9-1.9-1.9m-11.4.1c.7 0 1.3.6 1.3 1.3s-.6 1.3-1.3 1.3-1.3-.6-1.3-1.3.6-1.3 1.3-1.3m11.4.5c.7 0 1.3.6 1.3 1.3s-.6 1.3-1.3 1.3-1.3-.6-1.3-1.3.6-1.3 1.3-1.3m19.1.6c-1 0-1.9.8-1.9 1.9s.8 1.9 1.9 1.9c1 0 1.9-.8 1.9-1.9s-.9-1.9-1.9-1.9m-.1.6c.7 0 1.3.6 1.3 1.3s-.6 1.3-1.3 1.3-1.3-.6-1.3-1.3.6-1.3 1.3-1.3m-39.6.1 5.6 1.4-1.3 5.9-6.3-1.7zm70.9-.1c.9 2.9-.8 6.6-.9 6.8-1 2.9-2.2 5.3-2.7 5.4-.4.1-.5.1-.5-.3 0-.5 1.3-4.3 2.2-6.7.2-.6.8-2.4.8-2.7 0-.4-.4.3-.9 1.4-.9 2.2-2.2 4.6-2.5 6.8-.2 1.8-.5 1.5-.8-.6-.3-2.9.3-4.4 3.6-8.5.8-.9 1.6-1.9 1.7-1.6m-41.2 1.5 1.6 5.8-6.6 1.1-1-5.9zm-27.7.6c-1 0-1.9.8-1.9 1.9 0 1 .8 1.9 1.9 1.9s1.9-.8 1.9-1.9-.8-1.9-1.9-1.9m9.9.4 6 .3.1 6-6.5-.3zm-9.9.2c.7 0 1.3.6 1.3 1.3s-.6 1.3-1.3 1.3-1.3-.6-1.3-1.3c.1-.7.6-1.3 1.3-1.3m25.2.5c-1 0-1.9.8-1.9 1.9 0 1 .8 1.9 1.9 1.9s1.9-.8 1.9-1.9c-.1-1-.9-1.9-1.9-1.9m-12.5.5c-1 0-1.9.8-1.9 1.9 0 1 .8 1.9 1.9 1.9s1.9-.8 1.9-1.9c0-1-.8-1.9-1.9-1.9m12.4.2c.7 0 1.3.6 1.3 1.3s-.6 1.3-1.3 1.3-1.3-.6-1.3-1.3.7-1.3 1.3-1.3m-12.4.4c.7 0 1.3.6 1.3 1.3s-.6 1.3-1.3 1.3-1.3-.6-1.3-1.3c.1-.7.6-1.3 1.3-1.3m40.9.4h.3c1.3 0 5.9 3.2 7 5.2 1 1.7.5 2.4-.6.9-1.5-1.7-4.3-4.2-4.7-4.2s.1.6 1.9 2.3 3.7 4 3.7 4.4c0 .3-.4.2-.9-.1-1.1-.7-2.1-1.4-2.6-1.9-.3-.3-.9-.8-1.3-1.2-1.7-1.5-3.5-4.8-3-5.5.1.1.1.1.2.1m-83.6.5c1.2 0 2.5.7 2.5 2.1 0 1 .1 1 1 1 .8 0 3.2.3 3.2.3v2.7s-1.1 0-2.5-.1c-2.2-.1-2.2-.1-2.5.9-.1.4-.3.6-.7.9-2 1.3-4-1.1-2.7-3.4.4-.8.5-1.1.2-1.5-.7-1.4.1-2.9 1.5-2.9m.5 1.3c-.2 0-.5.1-.8.4s-.3 1.3 0 1.8.3.7-.1 1c-.7.6-.7 1.8 0 2.3.6.4 1.2-.1 1.2-1s.6-.9.6-.9l4.2.1v-.7l-3.1-.2c-.4 0-.9 0-1.2-.3-.3-.2-.7-.7-.4-1.2.7-.6.2-1.3-.4-1.3m-9.2 1.6 2 3.4 2.3.1.2 2.1 2.8 1.8-2.9 1.7-.1 2.1-2.2.3-2 2.6-2-2.6h-2.2v-2.1l-3-1.9 3.2-1.8v-2.5l2.3-.2zm70.6 1.6.1 2.1-3.3.6.4-2.1zm-20.9 2.1 4.4.1-.3 29h-1v-1.1h-1.4l-1.4-.9zm-49.7.7-2.6 3.3 3.1 2.8 2.8-3.2zm51 .4v1.3h1.8v-1.3zm-50.9 1.2 1.8 1.3-1.4 1.8-1.8-1.5zm70.6.7-.1 15.9c-6.1 4.8-7.9 13.2-7.9 13.2l-2.5-.1 6.3-28zm-32.8.4c-5.5 2.6-10.9 4.6-16.4 10.8 2.1 1.9 4.3 3.8 6.3 7.1 4.5-.7 9.5.1 15 2.3zm13.1.4v1.4h1.8v-1.4zm-61.3 2c.1.4.2.9.2.9 4-.3 3 4.3.4 4.5-.3 0 .2.8.8 1.1 1.5.6 2.6.2 3.6-1.1.8-1 .8-1.2.8-1.2l2.5 1.3s.1 0-.4 1.1c-.8 2.1.4 4.6 1.3 2.8.5-1 1.9-1.6 2.8-1.1 1.1.5 1.5 2.5.7 3.8-.2.4-.2.5-.1.8.2.5.4 1.9.1 2.4-.3.6-.6.7-1.3.2-.9-.7-1.5-.9-3.1-1.4-2.8-.5-3.4-1.5-4.5-3.9-3.4 1-8.4-1.1-7.7-6.1.3-1.1.4-3.2-.2-3.7-1.1-.9.1-2.1 1.8-2.3 1.4-.2 2.1 1.1 2.3 1.9m47.7-1.5 4.4 18.5c-4.8-1.8-9.5-3.2-13.7-2.1-1.9-3.1-3.5-4.6-5.7-6.6 4.1-5.1 9.4-7.9 15-9.8m-49.6.9c-.3 0-.6.1-.9.4 0 0 .3.2.5.6.3.5.3.5 0 1.7-1.3 4.8 1.8 8 6.3 6.6 1.1-.3 1.1-.3 1.4 1 .5 2.2 2 3.3 5 3.7.2 0 .5.1.7.2 1.3.9.8-.3.4-.7l-.7-.7s.4-.3.6-.4c.8-.5 1.2-2.2.5-2.6-.6-.3-1.7.2-1.7.8 0 1.2-1.5 1.3-2.8.3-1.7-1.3-.2-4.5-.2-4.5l-1-.4c.1.1-2 3.2-4.6 2.1-1.8-.7-3.1-2.9-2.3-3.5.6-.2 1.4.2 1.8-.2.9-.7.2-2-1.2-2-.3 0-.9.1-.9.1.1-.6.2-1 .1-1.6-.1-.4-.5-.9-1-.9m63.2 1.4v1.1h1.8v-1.1zm0 2.3v1.2h1.8v-1.2zm0 2.6v1.2h1.8v-1.2zm0 2.3v1.3h1.8v-1.3zm0 2.4v1.2h1.8v-1.2zm0 2.4v1.2h1.8v-1.2zm-60.1 1.2 1.6 2.6 1.8.1.1 1.8 3.1 2.4-2.7 2-.2 2-2.2.1-1.8 3-2.2-2.6-1.7-.3-.2-2.4-2.7-2 2.5-2 .2-2.1 2.1.2zm102.3 1.2c.2 0 .4.1.5.2.7.3.9.4 2.6.5 2 .1 2.7.3 3.6.9.6.4.6.4 1.3 0 2.8-1.8 5.9-.2 6.2 3.3.1.9.1 1.3.5 2 .2.5.5.9.3 1.3-.4 1-2.6 1.1-3.7-.4-.2-.2-.4-.3-.7-.3-.6.2-2.1-1-2-1-.1.8-.2 1.5-.3 2.6h-2.6s-.1-.5-.2-2.1c-.1-1.9-.6-2.5-1.2-1.4-1 1.8-3.8 1-4-1.1-.1-.7-.1-.8-.5-1.1-1.4-1.2-1-3.4.2-3.4m-42.2.2v1.1h1.8v-1.1zm42.5 1.1c-.5 0-.2 1 .6 1.4.5.3.5.3.4 1.1-.1 1.5 1.3 2.3 2 1 .1-.2.2-.5.1-.7-.3-1.1 2.1-.8 2.7.3.1.3.3 1 .4 1.7s.1 1.4.1 1.4h.8v-.9c.2-1.9 1-3.1 2.1-3.1.5 0 .5.1.2.7-.6 1.1 0 1.8 1.3 1.8.8 0 .8 0 1.1.6.3.7.6.9.9.7.2-.1.2 0-.1-2.2-.4-3.4-2.4-4.3-5.1-2.4-.8.5-.9.5-1.6-.1-1-1-1.6-1.2-3.6-1.3-.9 0-1.9-.1-2.1-.2 0 .2-.1.2-.2.2m-63.5.9c-.4 0-.9.1-1.4.1.5 2.6.7 5.2.9 7.8 2.3-.4 5.2 0 9 1.8 2.4 1.1 5.3 3 8.3 5.1 3.3 2.3 7.1 3.7 10.4 4.4 4 .9 7.2.8 7.1.6-.2 0-1.4-6.4-1.3-7.7-5.5-.5-10.8-2.6-14.9-5.3-5.3-3.7-11.6-6.9-18.1-6.8m21 .3v1.1h1.8v-1.1zm-60.7.2-2.9 3.1 3.2 3 2.7-3.1zm-.1 1.4 1.7 1.6-1.3 1.7-1.9-1.6zm41.3.2c.4 0 .8.3 2.1 1 1.1.8 1.9 1.2 1.6 0 .2-.3 1.4.8 2.9 1.5 1.7 1.4 1.7 1 1.9.4.2-.5.5-.2 1.9 1.1 1.8 1.7 1.6 1.7 2 1.3.4-.8.5-.8 2 .9s1.8 2.1 2.2 1.3c.5-.4.8 0 2.8 1.9 1 1 1.2.9 1.4.2s.3-.5 2 .8c2 1.6 2.2 1.7 2.3 1.2.1-.9.7-.6 2.8.9 1.2.9 1.7 1.1 2 .9.3-.5-.7-1.4 1.3-.5l.5 2.9-.7-.2c-.4-.1-1.3-.4-1 .5.2.5-.3.5-1.8-.5-2.2-1.3-2.6-1.6-2.8-1.4-.3 1-.3 1.1-1.7-.1-1.7-1.3-2.1-1.7-2.3-1.2 0 1-.5.8-2.1-.6-1.4-1.2-1.7-1.8-2.3-.9-.2.3-.3.2-.6.1-.8-.6-2.4-2.3-2.8-2.8-.4-.4-.6-.3-.8.1-.3.3-.3.2-1.2-.6-2.1-1.9-2.5-2.4-2.8-2.2-.2.5 0 1.1-1.6-.2-2-1.5-2.9-2.1-2.8-1.2-.3.4-.1.5-2.1-.6-1.9-1.1-2.2-1.4-2.5-1-.2.6-.8.4-.8.3l-.4-3h.7c-.3 0 .4-.3.7-.3m-15.5.3c-.2.5-1.2 3.1-1.2 9.8.1.2 2.6-2.4 2.8-4.8 0-2.3-1.6-5-1.6-5m35 .2v1.2h1.8v-1.2zm-34.9.9c2.4 3.8-.2 7.3-.9 7.5 0-2.8.4-5.4.9-7.5m61.7 3.2c-3.9 2.5-3.2 9.1-1.3 10.8.1 0 1.3-7.2 1.3-10.8m-.5.8-1 8.5c-1.4-1.5-1.7-6 1-8.5m24.3 1.4 2 2.6 1.8.1.4 1.9 2.6 2.2-2.7 1.8-.2 2.1-2 .2-2 3.1-1.9-3-1.8-.2-.1-2-2.9-2.1 2.7-1.7.1-2.2h2.1zm-72.3.8c-1.3 6.2-4.4 10.5-8.8 13.3v.6l-7.4 3c-1.6 7.6-4.5 15-10.6 21.9l1.7 3.5-8.2 2.8 11.8 20.3c.8 0-5.7 3.1-13.6 2.3 5 12.3 6 25 3.2 36.1l38.5-.2-29.4-58.2-.5-.9c-.4-.8 15.7 2.3 12.2 17.3 0 .3.1.4.3.2 3.1-2.7 23.9-10.2 40.4-.3l4.9-2.1c-2.3 8.3-5 13.9-9.5 18.9l.8 11.8c7.9-6.5 16.6-18.6 17.7-34.5 3.6-1.8 6.7-3.7 10-5.6l.4.1 2.2-1.3c-6.9-7.6-21-14.9-30.1-16.8l.5 2.6c-5-1.3-8.7-1.6-12.6-2.1l-.6-27.3-5-3-.2 30.2c-3.8 0-12.4 1.5-12.4 1.5l.4-2.6-4 .8-.1-2.5 4.5-1.3 6.5-27.7zm.6.7 2.1.4-6.4 27.2s-3.6 1-3.8.9c-.3-5.1-.4-15.5-.4-15.5 6.2-5.4 7.2-9.2 8.5-13m-44.1 2c1 0 2 .7 2.1 1.3.2.4.3.6.6.6 1.6.2 1.7.7 1.7 1.6-.2 1.8 1 .3 1.3-1.5v-1.6h2s.1 1.4.1 1.7c.2 1.4.8 2.5 1.2 1.8 1.4-2.5 4.6-1.2 4.1 1.2-.1.6-.1.6.3 1 .6.7.9 1.5.7 2.1s-.7.7-1.6.4c-.5-.2-1-.2-2.5-.3-2.1-.1-2.2-.1-3-.9l-.5-.5-.9.5c-1.5.9-2.8.9-4.3.1-1-.5-1.6-1.8-1.7-3.7 0-1-.3-1.8-1-2-.3-.3 0-1 .6-1.6.2-.2.5-.2.8-.2m115.7.2-2.7 3.4 3.2 2.9 3-3.6zm-63.2.5 3.8 2.2.5 27-4.3-.1zm-52.4.4c-.3 0-.1.5.1 1.2.2.6.2 1 .2 1.5-.4 3 3 4.5 5.4 2.4.6-.7.8-.7 1.3.1.7.8 1.6 1.1 3.7 1 .9-.1 1.5.4 1.9.1.3-.2 0-.8-.6-1.1-.3-.2-.4-.2-.3-.9.2-1.7-1.3-2.2-2.3-.7-.8 1.2-2.1.4-2.5-1.6-.2-1.5-.4-1.5-.6-.2-.2 1.6-2.3 3.4-3.2 2.6-.2-.2-.2-.2 0-1 .3-1.1.1-1.5-1.1-1.7-.2 0-.4-.2-.5-.3-.5-1.1-.5-1.4-1.5-1.4m115.8.6 1.7 1.5-1.5 1.8-1.8-1.4zm-62.2 1v1.2h1.6v-1.3h-1.6zm0 2.6v1.3h1.6v-1.3zm9.7 1.5c1.8 6.8 3.6 13.5 5.5 20.3 1.7-.7 11.7-5.1 16.4-10.8-.2 0-4.3-4-5.7-6.6-4.7.7-10.1-.3-16.2-2.9m-9.7.8v1.2h1.6v-1.3h-1.6zm10.8.4c4.3 1.3 9.7 3.1 14.8 2.2 1.3 2.4 3.2 4.3 5.3 6.1-3.8 4.2-9.3 7.4-15 9.8zm40.5.4q.3 0 .6.3c.7.6 1.2.8 2.6 1 2.2.4 3.9 1.8 4.4 3.6.2.8.3.8 1.4.5 4.2-1.1 7.4 2.4 6.4 7.1-.3 1.6-.5 1.8 0 2.5 1.1 1.2 1.3 1.2.1 2.2-1.1 1-3.2.5-3.6-1.1-.4-.9-.4-.9-1.1-1-2.7-.4-2.6-4.3 0-4.7h.5c.7-.3-.8-2.1-2.1-1.8-1.6.3-2.3 1.3-2.9 2.9l-2.4-1.4c.6-1.3 1.1-2.9.5-3.9-.4-.9-1-.9-1.1-.1-.4 1.9-2.8 2.5-4.3.9-.9-.9-1-1.8-.3-3.1.4-.8.4-.9.2-1.2-.6-1.1.2-2.7 1.1-2.7m-51.3 1.6v1.3h1.6v-1.3zm51.6.1c-.5 0-.5.5 0 1.1.4.4.5.6-.1 1-.7.7-.9 1.7-.4 2.4.7 1.1 2.4.5 2.2-.8-.1-.9.6-1.4 1.8-1 1.7.5 2.5 2.4 1.8 4.3-.1.4-.4 1.2-.4 1.2l.5.3s.6-1 .8-1.2c1.9-2.4 6.5-1.2 6 1.8-.1.9-.1 1.1-1.1.8-.7-.3-1.3.4-1.3 1.3 0 .8.7 1.5 1.7 1.3.8-.1 1-.1.9.9.1.7.3 1.2.8 1.5 1.2.5 1.7-.2.8-1.1-.6-.6-.5-1.5-.2-2.3.4-1 .2-3.3-.4-4.5-.9-1.8-3.5-2.6-5.7-1.7-1 .5-1.1.7-1.2-.3-.5-2.3-2.3-4.1-4.4-4.2-.7-.2-1.5-.7-2.1-.8m-51.6 2.4v1.2h1.6v-1.2zm0 2.3v1.3h1.6v-1.3zm0 2.6v1.3h1.6v-1.3zm52.7 2.2 1.8 2.6 2 .1.2 2.1 3 1.9-2.6 1.6v2.1l-2.5.2-2.2 2.9-1.8-2.6h-1.8l-.4-2.3-3.3-1.7 3.4-1.9-.1-2.4h2.3zm-52.7.3v1.4h1.6v-1.4zm0 2.5v1.3h1.6v-1.3zm51.8 1-2.5 3.4 3.4 2.8 2.7-3.4zm-51.8 1.3v1.5h1.6v-1.5zm52 .2 1.8 1.4-1.3 1.6-1.8-1.3zm-52 2.6v1.2h1.6v-1.2zm-48 .1c-3.1 0-6.1 5.1-6.8 7.5-.8 3.1-1 8.7-.2 8.8 2.8-2 4.1-5.4 6.2-8 .3 3 .3 8.7.3 8.7s-1.2.7-1.9 1.7c-.5.9-.6 1.9-.2 2.9-1.6-.5-4.4.1-4.5 3 .1 4.1 4.5 3.5 4.5 3.4-.1 0-.9 4.3 3 4.8 1.4.2 3.9-.9 3.1-4.8 2.5.4 4.6-1 4.6-3.3 0-1.6-1.2-3-3.3-3.1-.4 0-1.4.2-1.4.2 0-.2.9-2.8-2-4.6l-.4-11.8s1 1.1 1.4 1.5c1.9 1.8 3.1 2.7 5.3 3.8 2.1 1.1 1.9.9 1.5-1.3-1-3.2-3.1-5.7-7.6-8.7-.5-.5-1.1-.7-1.6-.7m.3.3.6 16.6h-.9l-.8-16.6zm91.6.5h.3c2 .2 2.5 2.4 1.6 3.4-.4.4-.5.5-.3.7.9 1.1.4 2.8-.5 3.1-2.7.9-3.1-.6-3.1-2.4l-4.2-.2v-2.5l4.6.1c-.3-.9.3-2.1 1.6-2.2m-93.6 0s.1 0 0 0c.5 0 0 1.2-1.2 3-.8 1.2-2 3.3-2.3 4.2-.7 1.9-1.2 5.2-.7 4.6.5-1.4.5-2 .9-3 .5-1.3 2.9-5.7 3.4-6.1.4-.4.5-.1.5 1.1 0 2.8-1.3 5.6-4.4 9-.5.6-1.2 1.2-1.2 1.2-.3 0-.3-.6-.3-1.9 0-5.2 1.9-9.8 4.9-11.8.1-.2.3-.2.4-.3m3.1.3c1.4.4 3.8 2.6 4.8 3.7 1.2 1.3 2.7 4.8 2.4 5.3-.1.2-.3.2-1-.2-4.3-2.4-7.4-5.5-6.6-6.4.2-.3 1.2.3 2.4 1.4.8.8 1.7 1.5 2.5 2.3 1.2 1.2 1.5 1.4.8 0-.7-1.2-2.5-3.2-4.8-4.9-.8-.7-1-1.2-.5-1.2m90.7.7h-.2c-.8.4-.5 1.5-.6 2.3l-4.7-.2v.7l4.4.2c.1.7-.3 2.1.3 2.3 1.2.5 1.9-1.1.9-2-.4-.3-.8-.5.3-.9.7-.6.8-1.7.2-2.2-.2-.1-.4-.2-.6-.2m-58.9.2-.2 1.7-2.7.7-.1-1.9zm31.9.6c10 2.7 21.1 8.9 28.3 15.8l-1.4 1c-7.5-7-17.4-12.2-26.4-14.9zm-17.2.3c16.4 0 31.4 6.4 43.5 16.8l-2 1.3c-11-9.2-23.2-15.3-39.7-16-10.7-.5-23 2.3-35.1 9l-.9-1.6c11.8-6.6 23.3-9.5 34.2-9.5m-1.3 2.5 6.5.2-.4 6-5.9-.2zm-7 .4.9 5.8-5.6 1.1-1.6-5.8zm20.5.8 6.4 1.7-2.1 5.9-5.6-1.6zm-10.3 0c-1 0-1.8.8-1.8 1.9s.8 1.9 1.8 1.9 1.8-.8 1.8-1.9-.8-1.9-1.8-1.9m0 .7c.7 0 1.2.5 1.2 1.2s-.6 1.2-1.2 1.2-1.2-.5-1.2-1.2.5-1.2 1.2-1.2m-12.8 0c-1 0-1.8.8-1.8 1.9s.8 1.9 1.8 1.9 1.8-.8 1.8-1.9-.7-1.9-1.8-1.9m0 .6c.7 0 1.2.5 1.2 1.2s-.6 1.2-1.2 1.2c-.7 0-1.2-.5-1.2-1.2s.6-1.2 1.2-1.2m25.5.8c-1 0-1.8.8-1.8 1.9s.8 1.9 1.8 1.9 1.8-.8 1.8-1.9-.8-1.9-1.8-1.9m-35.8.2 1.9 5.7-5.4 2.2-2-5.6zm35.8.4c.7 0 1.2.5 1.2 1.2s-.5 1.2-1.2 1.2-1.2-.5-1.2-1.2.5-1.2 1.2-1.2m10.6 1.4 5.8 3.1-3 5.4-5.4-2.8zm-48.3.5c-1 0-1.8.8-1.8 1.9s.8 1.9 1.8 1.9 1.8-.8 1.8-1.9-.8-1.9-1.8-1.9m21.8.2.3 5.7-5.1.4-.9-5.7zm6.1.3 5.8.8-1.4 5.5-5.3-.9zm-27.9.1c.7 0 1.2.5 1.2 1.2s-.6 1.2-1.2 1.2-1.2-.5-1.2-1.2.5-1.2 1.2-1.2m19.1.8c-1 0-1.8.8-1.8 1.9s.8 1.9 1.8 1.9 1.8-.8 1.8-1.9-.8-1.9-1.8-1.9m-9.4.2 1.5 5.6-5.6 1.6-1.7-5.4zm20.5.1c-1 0-1.8.8-1.8 1.9s.8 1.9 1.8 1.9 1.8-.8 1.8-1.9-.8-1.9-1.8-1.9m-11.1.3c.7 0 1.2.5 1.2 1.2s-.6 1.2-1.2 1.2-1.2-.5-1.2-1.2.5-1.2 1.2-1.2m11.1.3c.7 0 1.2.5 1.2 1.2s-.6 1.2-1.2 1.2-1.2-.5-1.2-1.2.5-1.2 1.2-1.2m19.7 0c-1 0-1.8.8-1.8 1.9s.8 1.9 1.8 1.9 1.8-.8 1.8-1.9-.8-1.9-1.8-1.9m-10 .6 5.6 1.9-2.2 5.3-5.4-2.1zm10 .1c.7 0 1.2.5 1.2 1.2s-.6 1.2-1.2 1.2c-.7 0-1.2-.5-1.2-1.2s.5-1.2 1.2-1.2m-42.4.2c-1 0-1.8.8-1.8 1.9 0 1 .8 1.9 1.8 1.9s1.8-.8 1.8-1.9-.8-1.9-1.8-1.9m0 .6c.7 0 1.2.5 1.2 1.2s-.6 1.2-1.2 1.2-1.2-.5-1.2-1.2.5-1.2 1.2-1.2m34.2 1.1c-1 0-1.8.8-1.8 1.9s.8 1.9 1.8 1.9 1.8-.8 1.8-1.9-.8-1.9-1.8-1.9m0 .7c.7 0 1.2.5 1.2 1.2s-.6 1.2-1.2 1.2-1.2-.5-1.2-1.2.5-1.2 1.2-1.2m-66.1.6c1.5.1 2.6 1.4 2.6 2.8.1 1.1-1.3 2.4-1.3 2.4l-1.6-1.5-1.5 1.4c-.3.1-1.4-1.9-1.1-2.9.7-1.3 1.6-2.3 2.9-2.2m83.8 0 4.5 3.7s-2 1.2-2.3 1.4c0-.2.1-.3.1-.5 0-1-.8-1.9-1.8-1.9s-1.8.8-1.8 1.9c0 .9.6 1.6 1.4 1.8-.5.3-1.1.6-1.1.6l-2.4-2zm-7 9.8-2 .8c-12.2-8-28.8-12.4-47.8-4.3l-.7-1.6c14.2-5.9 32-7.7 50.5 5.1m-1.1-8 4.8 3-3 4.7-4.7-3zm-1.5 9.1-2 .8c-14.8-9.6-30.6-9.1-44.8-3.3l-.2-1.3c16.7-7.4 33.4-5.1 47 3.8m10-7.5c.7 0 1.2.5 1.2 1.2s-.6 1.2-1.2 1.2-1.2-.5-1.2-1.2.5-1.2 1.2-1.2m-86.3 2.2-1.6 1.7 1.5 1.7s-.5.4-.8.6c-2 1.1-4.1-.6-4-2.5 0-2.7 3.2-4 4.9-1.5m78.5-1.3c-1 0-1.8.8-1.8 1.9s.8 1.9 1.8 1.9 1.8-.8 1.8-1.9-.8-1.9-1.8-1.9m-71.9.1c1.5 0 2.6 1.1 2.8 2.5.1 1-.4 2-1.6 2.7-1.6 1-3.4-.6-3.4-.7l1.3-1.3-1.6-1.6c0-.1 1.1-1.6 2.5-1.6m-4.5.3 2.7 2.7-2.9 2.7-2.7-2.7zm71.6 7.2-1.5.7-2.1-1.3-.6 1.2 1.2.7-1.2.5c-13.9-7.8-29.5-5.6-39.9-.4l.1-.8 1.1-.6-.4-1.4-.6.2v-1.6c14.7-6.7 31.6-5.1 43.9 2.8m4.8-7c.7 0 1.2.5 1.2 1.2s-.6 1.2-1.2 1.2-1.2-.5-1.2-1.2.5-1.2 1.2-1.2m-76.5 1-1.4 1.5 1.4 1.5 1.4-1.5zm45.4.3-1.9.1.1 1.6h1.9zm1.3 0v1.6h1.7v-1.5zm3 .1-.1 1.6 1.7.1.1-1.5zm-7.4.2-1.9.2.2 1.6 1.8-.2zm10.6 0-.1 1.6 1.8.2.2-1.5zm-52.9 0 .8.9-.8.8-.9-.9zm39.1.5-1.9.3.2 1.6 1.8-.4zm17 0-.3 1.5 1.7.4.3-1.5zm-20.1.6-1.6.4.3 1.6 1.7-.4zm23.1.1-.3 1.5 1.8.5.4-1.5zm-25.7.7-1.6.6.4 1.5 1.7-.6zm28.7.2-.5 1.5 1.5.6.7-1.3zm-31.4.9-1.6.6.6 1.4 1.5-.7zm-32.3 0 1.6 1.6 1.9-1.7c1.6 1.5 1.6 4.9-1.3 5.5-2.6.4-4.9-3.4-2.2-5.4m66.6.3-.6 1.3 1.7.8.6-1.3zm-48.6 8.6 21.5 36.8-3.4-.1-20.8-35.5zm-3.5 1.4 1.2 1.9c-2.3-1.9-5.7-.3-5.6 2.1.1 1 1 1.7 1 .7-.1-1.1 1.4-2 2.5-1.9 2 0 3.2 2.6 1.8 3.9-.9.8-2.1.8-1.7-.3.1-.4 0-.5-.2-.7-.6-.5-1.6.2-1.4.9.2.5.2.6-.4 1-2.3 1.6-.7 4.8 2.1 3.3.6-.2.8-.2 1-.1 1.1.4 1.9-.6.8-1.1-.6-.3-.6-.8 0-1.2 1.3-.9 3.3.5 3.3 2.2 0 1.2-1.6 2.2-3.2 1.8-.9-.2-1 .4-.2 1.1 1.6 1.3 4.1.2 4.8-2.1.2-.7.2-.9.2-.9l2.2 3.6s-.7-.3-1.1-.5c-2.1-.6-4.4.7-4.4 2.6 0 .9.5 1.2.8.5.7-1.6 2.1-2.2 3.6-1.5 1.4.6 2 2 1.5 3.3-.6 1.3-2.4 1.7-2.2.5.1-.6-.3-.9-.9-.9-.2 0-.5.7-.5 1.1.1.3 0 .4-.8 1-1.9 1.5-.4 4 1.9 3.2.4-.1.6-.1.9.1.9.4 1.8.2 1.8-.5 0-.5-.2-.6-.7-.6-.8 0-.6-.9.3-1.4 2.3-1.1 4.6 1.7 3.2 4-.6 1-1 1.1-3.1.8-.3 0-.5.2-.3.5.6.9 2.5 1.2 3.6.7 1.2-.5 1.9-1.9 2-3.3l2.4 4.2c-1.9-2-5.1-1.2-5.6 1.6 0 .7.6 1.1.9.5 1-2.5 4.7-1.8 4.7 1 0 .4-.1.7-.4 1.1-.7 1.3-2.4 1.6-2.1.5.1-.4-.1-.8-.6-.9s-.8.3-.8 1v.7c-.9.4-1.4 1.1-1.6 2.1h-16.8c2-11.7 1.5-22.4-2.3-32.4-.3-.9-.8-2.1-.8-2.1l3 .1c.7.6 3.4.4 4.5-.6zm2.8 4.6 1.7 3.1c-.7-.4-1.5-.7-2.6-.8.7-.8.7-1.6.9-2.3m-4.6 3.4c.6 0 1.1.5 1.1 1.2s-.5 1.2-1.1 1.2-1.1-.5-1.1-1.2.5-1.2 1.1-1.2m12 9.4 1.7 3c-.8-.3-1.5-.7-2.8-.7.5-.6.9-1.5 1.1-2.3m-4.8 3.2c.6 0 1.1.5 1.1 1.1s-.5 1.1-1.1 1.1-1.1-.5-1.1-1.1.5-1.1 1.1-1.1m12.1 9.3 2.5 4.4c-1-.6-2-1.3-3.3-1.1.6-1.3.9-2.1.8-3.3m-3.3 5.5h-2.7c.6-2.3 2.8-1.7 2.7 0m2.6-1.1c.9 0 1.7.4 2.2 1.1h-3.3c-.1.1-.1-1.1 1.1-1.1"/>
    <path fill="#d40000" d="M48.089 64.76s-3.7-6.1-8.7-13.3c-3.4-4.8-6-10-6.3-14.5-.3-5.1 2.4-10.3 7.3-10.5s6.9 3.9 7.7 7.4c.8-3.5 2.8-7.7 7.7-7.4 4.9.2 7.6 5.4 7.3 10.5-.2 4.5-2.9 9.7-6.3 14.5-5 7.2-8.7 13.3-8.7 13.3M130.489 184.66s-3.7 6.1-8.7 13.3c-3.4 4.8-6 10-6.3 14.5-.3 5.1 2.4 10.3 7.3 10.5s6.9-3.9 7.7-7.4c.8 3.5 2.8 7.7 7.7 7.4 4.9-.2 7.6-5.4 7.3-10.5-.2-4.5-2.9-9.7-6.3-14.5-5-7.2-8.7-13.3-8.7-13.3"/>
</svg>
