<svg xmlns="http://www.w3.org/2000/svg" xml:space="preserve" width="178.6" height="249.4" viewBox="0 0 178.6 249.4">
    <path fill="#fbfbf6" stroke="#7f7f7f" stroke-width=".4" d="M3378.4-382.9h160.8c4.7 0 8.5 3.8 8.5 8.5v231.6c0 4.7-3.8 8.5-8.5 8.5h-160.8c-4.7 0-8.5-3.8-8.5-8.5v-231.6c0-4.6 3.8-8.5 8.5-8.5z" transform="translate(-3369.501 383.253)"/>
    <path d="M14.089 40.252c-3.4 4.4-7.1 6.9-7.2 10.3 0 1.1.6 3 2.7 3.3 1.4.2 3.2-.8 3.3-2.7 0-.4.5-.4.5.2-.1 1.6-.6 3.4-1.6 4.9h4.5c-.9-1.5-1.5-3.3-1.6-4.9 0-.5.5-.6.5-.2 0 2 1.9 3 3.3 2.7 2.1-.4 2.8-2.2 2.7-3.3 0-3.4-3.6-5.9-7.1-10.3M164.489 209.153c-3.4-4.4-7.1-6.9-7.2-10.3 0-1.1.6-3 2.7-3.3 1.4-.2 3.2.8 3.3 2.7 0 .4.5.4.5-.2-.1-1.6-.6-3.4-1.6-4.9h4.5c-.9 1.5-1.5 3.3-1.6 4.9 0 .5.5.6.5.2 0-2 1.9-3 3.3-2.7 2.1.4 2.8 2.2 2.7 3.3 0 3.5-3.7 6-7.1 10.3M8.29 29.052h-2.2v-3h2.2s0-1.6.1-4.5c.1-6.1.3-7 2-8.7 3.5-3.3 9.299-.6 9.199 4.4-.1 7 0 13.7-.2 14.6-.4 1.7-.4 1.8-.3 2.1.3.6 2.9.9 2.9.7v3c-2 .2-2.8 0-4.4-1.2-1 1-4 1.9-6.5.8-1.8-.9-3.1-3.1-2.8-8.2m7.499 5.2c-1.1-1.6-2.9-3.7-4.6-4.5-.1 1.8 0 3.3.7 4.1.9 1.4 2.5 1.7 3.9.4m.9-17.3c-.8-2.3-2.9-3.1-4.4-1.6-.9.9-1.1 1.8-1.1 6.9v4.5c3 1 5.7 4.4 5.7 4.4l.1-9.5c-.1-1.6-.1-3.2-.3-4.7M170.289 220.453h2.2v3h-2.2s0 1.6-.1 4.5c-.1 6.1-.3 7-2 8.7-3.5 3.3-9.3.6-9.2-4.4.1-7 0-13.7.2-14.6.4-1.7.4-1.8.3-2.1-.3-.6-2.9-.9-2.9-.7v-3c2-.2 2.8 0 4.4 1.2 1-1 4-1.9 6.5-.8 1.7.8 3.1 3.1 2.8 8.2m-7.5-5.3c1.1 1.6 2.9 3.7 4.6 4.5.1-1.8 0-3.3-.7-4.1-.9-1.3-2.5-1.6-3.9-.4m-.9 17.3c.8 2.3 2.9 3.1 4.4 1.6.9-.9 1.1-1.8 1.1-6.9v-4.5c-3-1-5.7-4.4-5.7-4.4l-.1 9.5c.1 1.7.1 3.2.3 4.7"/>
    <path fill="#e2cf00" d="m81.689 228.553 18.7-34.2s4.5 1.8 9.7 3.1c-5.1 13.2 0 30.7 0 30.7zm-51.2-58.3c-1.1-14.5.6-26.8 1.3-40.1 0-.2-6.1-4-6.1-4l14.4-8.1c1.4.7 2.3.6 2.6-.8-1.5-4.9-1.7-9.7 1.6-13.8 2.5-3 8.2-1.5 9.8-1.5 1.3 0 4.3-10.2-.8-13.2-1.1-.6-1.6 6-2.4 8.7-3.3-2-9.5-3.6-10.3-7-.4-1.9 5.6-5.6 4.4-7.7-1.7-3.1-6.2-7.8-8.1-6.5-1.8 1.6-6.1 5-6.1 7.3 1.3 4.1 4.8 4.4 6.6 8.3.4.8 3.8 4.4 3.8 4.4-1.2 1.9.8 5.2.9 4.7l-15.7-6.9s3.6 27.1-.2 31.1c-.4.4 3.4-1.1 3.4-.8 1.1 1.5 13.8 9.5 17.4 12.4 6.4-9 8.8-13 17.1-21 1.8-1.5 5.9-4.3 8.2-7.6 1.9-2.7 2.6-5.7 2.3-8-.4-3-.7-5.1-2.6-7.5-4.3-5.5-11.1-10.8-11-10.9l2.3-1.9s8.4 7 11.9 12.1c2.4 3.4 1.3 7.4 3.4 8.1.5.2 3.9-.1 5 .1.1 0 24.7 17.4 20.2 18.4-6.2 1.4-16 .5-16 .5-7-6.9-10.4-9.1-14.6-7 0 0-10.6 9.3-16.7 16.6-3.5 4.1-9 12.8-9 12.8-.4-.2-12.5-9.8-12-8.7 0 0 2.9 26.3 1.6 36-.9 8.2-2.1 17-2.6 24.5 1.7-.4 4.3-.9 4.7 1.8.4 3.6-4.2 2.8-4.3 2.4l2.6 5.5s-4 6.9-3.9 6.6c.1-.2-3.6-6.1-3.6-6.1s2.7-5 3.2-6c.3-.7-4.2 1.8-4.4-1.8-.2-3.8 4.7-2.9 4.4-2.4-.5-7.9-1.9-16.2-2.7-23m60.1 18.1c.1-.1-10.6-4.3-20.5-3.9-3.5-1.4-9.1-2.8-12.9-.2-4.2-2.9-7.9-6.1-11.6-9.2 1 0 5.5-25.9 7.5-34-1.1-10.9 9.3-10.9 10.3-2.2 11.3 11.7 25.1 23.8 39.4 35.7-2.4 4.7-10.5 8.3-12.2 13.8m24.7-77.2c-12.9-13.2-39.8-36.7-39.8-36.7l12.6-12.3c6.6 2 13.4 3.6 21.1 3.7 0 0 8.4 3.8 12.9 0l11.6 9.2s-4.8 25.5-7.7 34.4c.1 3.5-1.3 7.8-4.7 8.4-2.9.6-5.2-3.7-6-6.7m26-30.5c1.3-8.3 1.6-14.3 2.6-24-5.8 1.7-5.7-6.1 0-4.1l-2.6-5.8 3.9-6.6 3.6 6.2-3.1 5.5c6.4.3 4.9 6.3-.7 4.9 1 9.3 3.3 18.6 3.2 27.7 2 14.7-2.4 35.1-1.7 35.6l6.3 4.3-1.1 31.9-9.9-4.4-2.9 2c.9 1.9 2.2 3.7 2.6 5.7 0 0 6.8 5.6 5.9 7.4.4.3-4.9 7.3-6.4 7.1-3-.3-6.4-4.2-7.4-6.9-.8-2.7 6.1-5.4 5.2-7.5-1.1-2.4-3.7-3.6-6.1-4.3-3.2-1-4.7-3.5-4.9-3.5 0 0-1.3 10.2-2.5 9.4-4.9-3.3-1.5-13.7-.6-13.4 0 0 2.1.5 4.6.7 8.9.9 8.3-10 6.5-15.3-.6-2.1 2-1.4 3.1-1.7 4.3-1.3 11-5.7 11-5.7-6.9-3.9-13-8.3-18.5-12.4 0 0-5.1 8.7-11.1 14.8-4.4 4.4-5.1 5.9-12.5 11.6-.1.1-5.6 6.6-3 14.2 2.2 6.5 12.9 13.6 12.8 14l-2.1 2c.1.1-15.1-9.4-14.7-19.7 0-.4-6.9-.5-6.9-.5l-20-18.5 16.9-.1 8.7 7.1 5.4.3c.4.3.6-1.4 5.3-5 9.1-6.8 20.4-24.4 20.4-24.4l12 8.4c-.5-12.5-2.5-26.1-1.3-37m-43.5-59.8s-12.4 23.4-19.2 34.4l-9.7-2.8c4-10.8.2-31.3-.8-31.8z"/>
    <path fill="#131f67" d="M23.989 19.452v210.5h130.6v-210.5zm90.3 152.7c6.2-5.8 12.3-10.5 18-14 2.2-1.3 2.9-1.5 3.8-.7 1.4 1.3 2.3 2.4 1.8 3.3-.1.2-.4.5-.4.5l-3.4-1.3 1.1 3.9c-3.1 1.3-3 4.6-.1 6.4l-2 4.7 4.7-2.1c.2 1 3.6 3.5 5.7 0l4.3 2.1-1.5-5.3c1.4-1.3 2.2-3.5 0-5.5l1-4.1-3.9 1.3c-1-1.3-1.5-1.2-1.8-1.6-.1-.5-.1-1.7-.7-2.7-.5-.9-1.1-1.8-1.7-2.5-.3-.5-.1-.6 1.5-1.4.7-.4 1.3-.8 1.3-.8s7.6 3.8 10.7 5.3v70.5h-41.6c-4.7-14.1-1.3-26.3-.1-31.4-2.2-.2-13.5-3.9-13.8-5.1 4.6-7.1 10.6-13.6 17.1-19.5m-81.4 20.5c-5.5-1.8-5.5 4.8-2.7 5.3.7.1 1.5.2 2.6-.1.3.1-3.3 5.5-3.3 5.5s2.8 5.2 4.2 7.4l4.3-7.6-2.8-5.3c4.4 2.2 6.7-4.4 2.1-5.3-1.1-.2-2.3.4-2.3.4l2.4-22.9c2 1.3 5.5 4 5.5 4 .8 12.6.2 23.1 7.2 41.5l.1 12.7h-24.5v-66.6l4.5 3c.1.4-.7.1-.3 4.8.4 4.2 1.7 11.5 3 23.2m86.7-171.2c.2.3.2.7.3 1.2 1 3.3 4.4 7.2 7.1 8.2.9.4 1.3.9.8 1.5-.7.7-3.5-1.2-5.6-3.7-1.9-2.2-3.2-4.1-3.5-5.5-.2-.8-.3-1.4-.1-1.8.3-.4.7-.3 1 .1m3.3-.4c.4 0 .8.4 1.1 1.2.7 1.8 1.8 3.2 3.5 4.4.5.3.6.8.4 1.1-.1.1-.2.2-.3.2-1.3.4-4.8-3.7-5.1-6.2 0-.6.2-.7.4-.7m4.4.1c.7 0 1 1.5.6 2.2-.3.2-.9-.1-1.4-1.1-.4-.8-.2-1.1.8-1.1m-2.4 0c.2 0 .5-.1.7.1.3 1.5 1.4 2.6 2.3 3.5.2.3.2.9-.1 1.1-.8.4-3.2-2.4-3.2-4 0-.5.1-.7.3-.7m-3 1c.8 2.8 2.9 5.1 4.7 6.2 1.3.8 1.8 1.3 1.2 1.7-.2.1-.3.2-.3.2-3.1-1.2-6.9-5.6-7-8.8.7-.8 1.2.1 1.4.7m-10.7 12.1c-1.6 0-3.6.4-5.2 1.1-2.2 1-2.8 1.7-2.5 1.9.2.2 1.7-.4 2.4-.5 3.9-1 6.6-1.2 9.1-.1 2 .9 2 .5.7-1-.9-1-2.6-1.4-4.5-1.4m13.8 2.1c1.3 0 2.6.3 3.1.9.4 2-.6 1.1-1.4.7-1.1-.5-2.4-1-3.6-.8-.8.1-.8.1-.4-.2.6-.4 1.6-.6 2.3-.6m-15.3.8c-3.7.3-5 2.2-7.3 4.1-1 .7-.8 1.3.4 1.1 1.5-.2 2.1-.2 4.1.5 2.2.8 3.8 1.1 5 .6 2.3-.9 2.1-.7-1.2 2.4-1.7 1.4-1 1.3.7.1 1.3-1 2.2-1.7 2.5-2.3.1-.3.1-1.3.4-1.3.8 0 .4-1-.4-1.5-.5-.4-.4-.7.3-1.4 1-1.1.7-1.5-.4-.9-.2.1-.3-.2-1-.6-1.1-.6-2-.9-3.1-.8m2.6 1.4c.9.8.5 1-1.4.9-1.6 0-3 .2-5 .8-2.2.7-2.4.8-1-.4 1.7-1.5 5.4-3 7.4-1.3m11.6-.7c.9 0 1.6.1 2.3.5 1.9 1 2.3 1.9.2 1.2-1.3-.5-3-.4-4.3-.1-1.2.3-1.5.5-1.3-.2.2-.8 1.6-1.4 3.1-1.4m-14.7 3c.4 2.2 2.1 1.5 2.3.2h.6c-.3 1.8-2.7 3.3-3.6-.2.2 0 1.1.1.7 0m13.4.1h.5c.3 1.7 1.9 2.3 2.6.1h.5c-.5 3.5-4.2 1.8-3.6-.1m-14.6.1c.3.1.4.9.4 1.2-.1.5-1.6 0-1.9-.5.3-.3 1-.8 1.5-.7m20.1.4v.6c-.7.2-1 .5-1.6.4 0-.4 0-.9.3-1.4.5-.2 1 .1 1.3.4m-14.9.7c-.3.2-.7.3-.7.3-.1-.6-.2-1.3.6-1.3.4.2.4.8.1 1m8.5-1c.3 0 .6.7.6 1-.1.6-1.6.4-1.6-.2 0-.2.6-.8 1-.8m-13.9 23.5c-1.2-.6-10.1-6-12.3-15.6l-.5 1c1 2.3 2.4 6 2.4 6-.1-.3.4 2.5 1.3 7.3q-.75 0-1.5-.3c-1.2-4.4-1.5-7.8-2.4-12.1l-.4 1.2s1.2 7.7 2.1 10.7c-.5 0-1.4-.2-1.4-.2-.7-3.2-1.2-5.4-1.9-8.7l-.6.8c.9 2.7 1.2 5.1 1.6 7.6-.6-.1-1.2-.1-1.8-.5 0 0-.9-4.7-1-4.7-.3.3-.5.8-.5.8s.8 2.6.7 3.7c-.6-.1-1.6-.4-2.3-.6-.4.2-.6.6-.8 1 .3 1.5 20.7 4.7 19.5 3.5 0 .1 9 4 14 .7 0 0 8.7 6.5 12.2 9.1 0 .3 1.2 1.7 2.4 2.5l3.5 2.7c1 .8 1.4.2 1.6-1.3.2-1.6 1.4-12.7 1.6-15.1 1-8 1-7.9-.2-7.5-1.8.6-3.5-.2-3.5-2.1 0-1.2.5-2.1 1.8-2.6.3-.1.8-.1 1.3-.1.2 0 .7.1.7.1.6 0-2.3-5.2-2.3-5.2s2.7-4.9 4-6.7l3.5 6.4-2.9 5.7c5.6-.4 5.1 6.7-.4 4.3v2c.1-.6 0-1.1.2-1.2 5.3 2 6.4-5.8.7-5.4.9-1.7 2-3.4 3-5.2l-4.2-7.6-4.7 7.8 2.4 4.9q-.75-.15-1.5 0c-3.5.7-2.7 6.3 1.2 5.6.5-.1 1.1-.4 1.1-.4l-2.6 23s-.3.2-1.3-.5c-1.2-.9-3.7-2.7-3.8-2.9.9-14.7-2.8-30.2-7-39.8-.3-.7-.1-15.3-.1-15.3h23.9v67.8c-1.2-.8-2.7-1.8-4-2.7-.4-.3-.6-.7-.5-1.3-.4.9-.2 1.3-.2 1.3l5.2 4.2-.2 66.6s-8.5-4.4-13.7-6.5c-2.3-1-2.5-.7-2.5-.7s1.7 3.7 1.2 4.4c1.1 1.1 3 3.3 3.1 5.5 1 .9 1.3 1 2 2.2l3.1-1.1-.7 3.3c3.3 2.3.1 5.5-.5 5.2 0 0 1.5 3.2 1.8 4.6-.5 0-3.2-1.5-3.9-1.8-1.9 3.8-5.2.6-5.2.1l-3.6 1.6 1.3-4.1c-2.3-1.4-3.9-3.5-.1-5.8l-.9-3.2 3.1 1.2s.6-.9 1-1.6c-1.2-5-8.7-4.1-11.1-8.6 0 0-.6 5.6-1.2 7.7-.2 5.4-4-.1-4-5.8 0-1.3 1.6-5.6 2.2-5.8.6-.1 6 2.5 9.6-.1 1.7-1.7 4.5-6.6 1.8-14.2-.9-1.8 1.7-2 2.6-1.4 0 0 7.9-4.1 11.5-6.1-6-3.3-18.4-12.1-18.4-12.5-1.7 2.6-3.6 4.9-6.2 8.6-4.3 5.1-7.7 10-13.2 14.1-7.7 5.6-9.5 11.3-7.4 18 .9 2.9 2.6 5.8 5.5 6.8 1.5 1.5 7.3 7.1 7.3 7.1-9.8 9-16.5 16.3-21.3 24.5 4 2.1 13.6 5.1 13.6 5.1-3.6 11.9-1.9 21.4.4 30.9 0 0-27.9 0-42.4-.4-.1.1-1.7 0-1.7-.1-.1-1.1 2.6-4 3.4-3.6.4-.4 1.2-.6 1.1-1.1-2-.2-5 3.2-5.1 4.7h-1.2c-.2-.2 2.2-5.8 7-6.3 0 .2.6-.4.1-.7-5.6.7-8.2 6.9-8.1 7h-.9c1.9-6.2 6.9-8.1 9.8-8.4 0 0 .9-.3.7-.9-6.4 1.1-9.5 3.9-11.1 9.2h-1.1c.8-5.4 6.4-10.2 12.7-10 .2-.1.4-.3.3-.9-7 .8-10.5 3.1-13.4 9.2-2.6-6.7-9.7-9.9-9.8-9.9 0 0-.2-1.9.2-1.8 6.1 2.2 8.4-3.1 8.2-6.2-.1-1.7 0-2.7-.6-5.1-.5-2.2-.9-3.7-.8-4.6 0-.9.3-1.1 1-1.5 1.3-.6 2.1-2.7 1.8-3-.7 1.6-2.4 1.8-3.3 2.9-.7.9-.4 2.2.8 7 .7 2.9-.1 1.6-1.8.7l-1.1-.6c.7.8 1.5 1.5 2.3 2.2.7.6.3 1-.7.6-1.4-.7-4.1-.4-5.1.5-.4.3-.5.3-.6 0-.5-7.4.3-12 2.8-17.6 1.6-3.8 3.9-6.6 7.1-6.8 3.2-.3 7.7.9 11.9 3.7 4.9 3.3 9.6 8.4 10.1 14.5 0 .1.4-.5.5-.8.2-.7-.6-2.9-1.9-5.5-.2-1.9-.9-5.3-1.4-7.6.4-.2 1.2-.1 1.5.2.9 3.8 1.5 6.7 2.3 11.8 0 .5.6-.7.6-1.1-.1-.8-2.2-10.7-2.2-10.4 0-.3 2 .1 1.7.4 0 0 1.5 8.3 1.6 8l.5-.7s-1.4-6.1-1.3-7.2c.1-.2 1.2.2 1.6.4.4.6.7 2.8.9 4.2.5.4.6-.7.6-1-.4-.6-.8-2.8-.5-2.9.2-.1 1.5.4 1.8.6.3.3 1.4-1.3 1.1-1.6-6-2.3-13.6-3.7-19.4-3.8-1.3 0-1.9-.2-3.9-.9-5.2-1.9-9.5 0-10.1.6-6.3-4.4-13.4-10.6-19.1-14.5-.3-.2-.9-.3-1-.3-.9 6.9-1.5 14.8-2.3 21.1-.3 2.5-.3 2.7-.2 2.8s.3 0 .4-.1c1.9-.7 3.5-.2 4.4 1.4.4 2.4-1.6 4-3.9 2.8-.8-.4-.9-.3-.6.5.6 1.4 2.5 5.2 2.5 5.2s-2.5 5.2-3.8 6.6c-1.2-2-2.8-4-3.5-6.2 1-1.9 2.8-4.4 3.4-6.3-.1-.1-.6 0-.9.2-3.2 1.5-3.7-1.4-3.7-2.4.1-2.1 1.9-2.6 4.6-1.6-2.9-19.1-3.5-30-2.7-28.8 0 0-3.5-2.5-5.2-4.2l.2-139.2h41.1c4.2 11.4 3.1 25 .5 32.2 4.5.8 9 1.9 14.1 4.8-8.7 12.7-22.2 26.5-36.9 35.3-.8.4-3.6-1.3-3.9-3-.1-.4.1-1.2.6-1.2 1.1.4 2.1.8 3.2 1.3 0 0-1.5-3.7-.8-4.3.5-.3.8-.6 1.1-.9 1.1-1.4 1-2.9-.1-4.1-.5-.5-1-.8-1.2-.9 0 0 1-2.9 1.6-4.2l-4.1 1.4c-1.3-1.8-3.8-3.3-5.5-.5-.3.7-.3.6-2.8-.5-1.4-.6-2.3-1-2.3-1 .5 1.6 1.2 3.1 1.9 5-2.8 1.8-2.2 4.8.2 5.7l-1.2 4.1s2.7-1 4.1-1.4c0 0 1.3 1.3 1.6 2.5.6 2.1 2.1 3.6 3 4.4-1.5 1.1-2.3 1.5-4 2.3l6 2.4c-.4-1.3-1.2-2.2-1.2-3.8-.1-1.4-.1-1.4-1-2.3-1.6-1.4-1.8-3.1-2.3-4.2-.7-.4-1.2-1.1-1.6-1.9s-3 1.1-3.4.7c-.5-.5.8-3.1.7-3.4-1-.1-4-2.4-.5-4.9l-1.1-4.2s2.7 1.2 3.9 1.8c.9-4.2 4.9-2.2 5.6-.4 0 0 3.2-1.1 3-.2-.1.8-.6 2.7-.6 2.7 2.9 2.6 2.3 3.8-.1 5.5 0 1.4.5 3.5.5 3.5s-1.6-.7-2.7-1c-.4.4-.9 1.2-.8 1.6.7 3.2 4.7 4.1 10.6 7.4.2-2.1 1.6-5 1.8-7.5.1-1.8.2-1.9 1.4-1.3 3.4 2.4 2.3 9.2 1.1 11.9-.7 1.6-.8 1.5-2.3 1.1-2-.6-5.4-.4-7.3.3-2.6 1.1-3.9 7-3.9 8.8 0 1.7.1 3.4 1 5.5.4 1.3-.3 2.4-1.5 2l-.9-.3-11.4 5.9 2.1 1.3s-1.6-.9-.6-1.5l9.8-5.1c1.8.7 1.6.9 2.8-.4.7-.7 1.1-.7 2-.7 5.8.6 8.3-.3 9.3-2.7.1-.4.1-.4.7-.6 1.1-.4 1.6-1.2 1.7-2.2 0-.6.3-.7.8-1.2.9-.8 1.1-1.9.5-2.9-.3-.5-.5-.7-.4-1.2.2-.9-.1-1.8-1-2.7-1-1.1-1-.9.9-2.6 3.5-3.4 6.7-6 10.1-9 2.4-2.1 2.1-1.9 3-1 3.4 3.5 4.7 9 3.2 13.9-.1.2-.1.2.1 0 1-1.1 1-6.6.2-9-1-3-2-4.5-5.3-7.5-2.1-1.9-7.7-7.2-7.7-7.2 8.1-7.1 16.9-15.9 21.8-24-2.5-2.7-14.2-5.2-14.2-5.2 1.5-3 4.3-16.7-.6-31.8 14.5.7 29.1-.4 43.6.6 0 0 .2-.1.3-.1.4-.1.6.2.5.6-.3 1.2-2 3.9-3.2 3.6-.5-.2-.4.8-.6 1.2 1.9-.2 4.1-2.6 4.6-5 .3-.5.5-.6.8-.5s.3.4-.1 1.6c-1.2 2.9-3.6 5.5-6.3 5.2l-.4 1c3.7-.1 6.6-3.6 7.5-6.2.6-1.6.6-1.8 1.2-1.6.5.5.2 1.1 0 1.7-1.9 6-7 7.6-9.6 7.4-.3 0-.4.3-.3.7 5.5.4 9.9-4.4 10.5-8.5.3-1.1.8-1.5 1.1-1 .2.5.1.9 0 1.4-1.5 6.5-8.4 10.1-12.6 9.1-.2-.2-.5.7-.1 1 8.5-.3 11.1-4.7 13-8.6 2.3 3.5 4.2 7.1 9.7 9.2 0 0 .5 1.2.1 1.5-.2.1-.6.1-1.1 0-6.7-1.1-9 5.2-6.1 14.6.8 2.6.4 2.2-1.2 3.8-.8.8-1.2 2.1-1 2.2.3-.2.4-.6 1.1-1.2.3-.3.9-.5 1.4-.8 1.2-.7 1.2-1.2.8-2.9-.3-1.3-1.2-5.1-1.2-5.5 0-.7.2-.7 1.1 0 1.3 1 2 .9.5-.3-.6-.5-1-.8-1.2-1.1-.2-.4-.1-.6.4-.4 2.3.7 4.3.7 6.6-.7.3 6.2-.6 15.6-5.8 22.4-3.4 4.3-11 .9-13.8-.5m6.1-14.3c-.2 0-.7.1-1.1.3-1.5.9-1.2 4 .5 4.4.7.2 1.3.3 2.4-.3.7-.3 1.6-.6 1.9-.5.6.2.7-.3.8-.8.3-1.2-1.8-1.3-3.4 0-2 1.6-3.6-.8-1.7-2.6.8-.3.7-.5.6-.5m-15.8 6.7 1.7 2 1.1 4.7c-.7.1-1.4-.3-1.4-.3-.6-2.1-1.1-4.3-1.4-6.4m23.3 1.1q-.15.15 0 0c-.1 0-.4.2-.9.2-.3 0-.6-.2-.9-.1-.7 0-1.4.3-1.6.3-.2.1-.5.1-.7 0-.6-.3-2.2-.2-2.7.1-.6.2-1.2.3-1.7 0-.2-.1-.4-.4-.5-.3s-.4 1.4-.5 1.9c0 .2-.1.5-.1.5.1 0 .4-.2.8-.4.8-.4 1.6-.4 3.2 0 1.9.5 2.6.3 3.7-.2.9-.5 1.4-.6 2-.4.1 0 .5.2.6.2.1-.1-.2-.7-.4-1.2-.2-.4-.2-.6-.3-.6m-20.3 2.2c1.7 1.6 1.5 1.4 2.6 2.2l-.1 1.5s-1.3 0-1.9-.2c-.2-.6-1.1-3.5-.6-3.5m13.6 1c.1.1.3.2.5.2 2.6 1-.1.7-.4 1.7 0 .1.1.1.2 0 .9-.4 3.1-.6 4.1-.4 1.3.4 1.4.1.1-.5-.9-.4.2-.6.6-.9.8-.5.2-.7-.7-.2-1 .5-2.8.5-3.6 0-.4-.2-.7-.3-.9-.4-.3 0-.1.4.1.5m-10.4 1.7 1.5 1.2-1.6-.2zm-34.9 30.3c-.3 0-.6.3-.6.6s.3.6.6.6.6-.3.6-.6-.2-.6-.6-.6m2.1.6-7.1 3.4 1.9.6v1.9l1.7-.5.7 1.8zm.3 1.6c-.3 0-.6.3-.6.6s.3.6.6.6.6-.3.6-.6-.3-.6-.6-.6m-8.9 3.4c-.3 0-.6.2-.6.6 0 .3.3.6.6.6s.6-.3.6-.6c-.1-.3-.3-.6-.6-.6m2.1 1.1-7.9 3.7 2.3.7-.6 2.4 1.9-.8 1.1 1.6zm.3 1.7c-.3 0-.6.3-.6.6s.3.6.6.6.6-.3.6-.6-.3-.6-.6-.6m-15.8.4c3 0 6.3 1.1 7.5 3.7.3 1.3-.9 2-3.6 1.3-4.4-1.2-5.2-1.4-4.5-.6.1.1.3.3 1 .6 1.7.6 4.9 1.2 5.8 1.1 1.2-.2 2 .4 1.7 1.4-.3 1.1-1.9 1.6-4.2 1.3-2.4-.3-3.7-.6-4.5-.9-1-.3-1.1-.3-.6.4.3.4.3.7.7.7 1.6-.1 3.3.2 4.7.4 2.6.2 3 1 1.1 2.1-.9.5-3.6.4-5.2-.2-1.1-.4-3.6-1-2.7-.2.2.2.2.6.6.8 1.3.2 5.1.5 5.7 1 .4.3-.5 1.2-2.2 1.7-2.7.5-6.7.3-7.7-.4-1.9-4-.9-10.5 2.2-13 .8-.8 2.5-1.2 4.2-1.2m17.5 2c-.3 0-.6.3-.6.6s.2.6.6.6c.3 0 .6-.2.6-.6s-.3-.6-.6-.6m2.4.6-8.2 4.1 2.1.6-.5 2.4 1.9-.8 1.2 1.6zm0 2c-.3 0-.6.3-.6.6s.3.6.6.6.6-.3.6-.6-.3-.6-.6-.6m4.8 4.9c-3.6 3.5-7.7 6.3-11.5 9.8h.8l2-1.8 57.3-.2-1.3 2 .6.2s1.7-2.5 1.6-2.7c-12.6 0-22.3 0-36.1.1-2.5-2.5-5.2-4.8-7.8-7.2zm-17.4 2.2c-.3 0-.6.3-.6.6s.3.6.6.6.6-.3.6-.6-.3-.6-.6-.6m74.8.5c5 3.7 10.8 8.2 15.7 10.9 2 .8 1.8 1.1-.2 2.1-1.9 1.2-5.2 2.8-7.9 4.1-1.2.4-1.7-.1-2.5 0-.6.2-.8.3-1.1.7-.6.8-.4.8-3.6.6-3.2-.1-4.5-.1-5.1.3-.7.3-1.8 1.5-1.8 1.9 0 .5-.4 1-1 1.2-.8.2-1.6.8-1.6 1.7-.2.7-.6 1-1 1.4-.9.9-.8 1.6-.5 2.5.1.4.3.3.2 1.4-.2 2.6-.4 2.4 2.3 4.3l-14 12.2c-.3.3-.4.2-.7 0-1.7-1.3-2.9-3.4-3.6-5.5-2.4-6.5.5-11.9 4.4-15.2 1.3-1.1 3.1-2.5 3.6-2.8 7.2-6.1 13.4-14.8 18.4-21.8m-72.7.4-8 3.8 2.6.4-.5 2.2 1.9-.7 1 1.9zm.4 1.8c-.3 0-.6.3-.6.6s.3.6.6.6.6-.2.6-.6c0-.3-.2-.6-.6-.6m73.3 2.5-.9-2.2s-2.5 6.2-3.1 8.4c2.1-1.1 8.4-4.3 8.4-4.3l-2.7-.5.3-2.4zm-91.3.4c-.3 0-.6.3-.6.6s.3.6.6.6.6-.3.6-.6q-.15-.6-.6-.6m2.4.5s-6 2.8-8.6 4l2.5.5-.4 2.4 2.3-.9.9 2.4zm.3 1.8c-.3 0-.6.3-.6.6s.3.6.6.6.6-.2.6-.6c0-.3-.2-.6-.6-.6m84.3.4c-.3 0-.6.2-.6.6 0 .3.3.6.6.6s.6-.3.6-.6c-.1-.3-.3-.6-.6-.6m9.7.6-2.8 7.9 7.7-3.9-2.1-.6v-2l-1.7.5zm-90.5 1.9c-.3 0-.6.3-.6.6s.3.6.6.6.6-.3.6-.6-.3-.6-.6-.6m83.8.1c-.3 0-.6.3-.6.6s.2.6.6.6c.3 0 .6-.2.6-.6s-.3-.6-.6-.6m-81.5.6-8.1 4 2.5.6-.3 2.5 2-1.2 1.1 2.3zm.5 1.7c-.3 0-.5.3-.5.6s.3.6.6.6.6-.2.6-.6c-.1-.4-.4-.6-.7-.6m84.4.5c-.3 0-.6.3-.6.6s.3.6.6.6.6-.2.6-.6-.3-.6-.6-.6m-11.2 2.6-.8-2.1-3 7.8 8.1-3.7-2.6-.6v-2zm-8.2-1.7c-.1 0-.2 0-.2.1 0 .2-2.1 2.2-2.1 2.2l-23.8.2 2 .5c3.1 2.5 8 7 8 7l5.9-.2c3.3-3.2 8.2-5.7 10.4-9.7 0-.1-.1-.1-.2-.1m22.4 1.6c-.3 0-.6.3-.6.6s.3.6.6.6.6-.2.6-.6-.3-.6-.6-.6m-18.4 2.7c-.3 0-.6.2-.6.6s.2.6.6.6.6-.3.6-.6-.3-.6-.6-.6m12.1.8c1.7 0 3.4.1 3.8.4 2.6 2.2 1.4 12.7-1.9 14-3.7.8-6.2 1-9.4-1.1-.9-.4-2.7-1.8-2.3-2.9.5-1.3 1.8-1.3 5.5-.1 1.4.4 2.1.3 2.5.1.3-.2-.1-.5-.8-.5-.3 0-1.5-.3-2.5-.6-1.4-.4-1.8-.6-2.8-.6-1.5-.1-2-.2-2-1.1 0-1.8 2.5-2 7-1 .5.1 1.5.3 1.8.3.2.1-.3-.6-.4-1-.2-.1-.5-.2-1.2-.2-2.9-.3-5.3-.5-5.4-.9-.3-1.9 3.5-2.4 7.4-.9 1 .4 1 .2 1-.1 0-.5-1.7-1.5-4.2-1.5-2.4 0-2.1-1.2-.1-2.1.6-.3 2.3-.2 4-.2m-9.3 2c-.3 0-.6.3-.6.6s.2.6.6.6.6-.3.6-.6-.3-.6-.6-.6m-8.7 3.9-.5-2.1-3.3 8.2 8.3-4.2-2.7-.5.2-1.7zm-4.2 3.3c-.3 0-.6.3-.6.6s.3.6.6.6.6-.3.6-.6c-.1-.3-.3-.6-.6-.6m8.2 2.4-.7-2-2.8 7.1 7.1-3.2-2.1-.6.3-2.2zm-5.6 0c-.3 0-.6.3-.6.6s.3.6.6.6.6-.3.6-.6-.3-.6-.6-.6m1.8 2.7c-.3 0-.6.2-.6.6s.3.6.6.6.6-.3.6-.6-.3-.6-.6-.6m-3.6 1.7-2.4 6.8 6.6-3.2-1.9-.6s.1-1.5-.1-1.4c-.1 0-1.4.4-1.4.4zm6 .8c-.3 0-.6.2-.6.6s.3.6.6.6.6-.3.6-.6-.3-.6-.6-.6m-8.9 3.2c-.3 0-.6.3-.6.6s.3.6.6.6.6-.3.6-.6-.2-.6-.6-.6m2.6 2.6c-.3 0-.6.2-.6.6 0 .3.3.6.6.6s.6-.3.6-.6-.3-.6-.6-.6m-35 31.2c-.3 0-1.1-.7-1.2-1 .5-.1.9 0 1.2.2.1.1.2.6 0 .8m2.4-.5c-.1.8.4 2.3.3 2.7-.3.1-1.6-1.3-1.9-1.6-.1-.5 0-1.1 0-1.3.4-.2 1.2-.2 1.6.2m2.3.4c.3 1.8 1.1 4.8 1 5.8-.1-.1-1.1-1.1-1.9-2.2-.3-.6-.7-2.9-.6-3.9.5-.1 1.2 0 1.5.3m-15.9-.2c-.8.4-1.7.7-2.9.7-.9 0-2.5-.5-2.4-.4.4.8 1.5.4 1.6.9-.3.5-1 .4-1.4.9-.1.1.1.2.6.2 1.6-.7 3.6-.7 5.5-.1.4.1.1-.3 0-.4-.2-.2-.6-.4-1-.4-1.6-.3-.9-.5.2-1 .8-.3 1-1-.2-.4m3.6 2.3c-.2 0-.8.3-1.4.5-1 .4-1.9.3-3.3-.1-1.2-.3-1.6-.2-2.8.4-.8.5-1.6.6-2.3.3-.8-.5-.8-.3-.4.8.1.3-.1 1.1.3 1.3.3.2.6-.3.8-.4s1.5.5 2.2-.1c1.3-.5 1.7.3 2.6.2 1.4-.5 2.3-1 3.6-.1 0-.3.3-2.3.7-2.8m-2.7 5.8c-1 0-1.6.7-2.9.5-1.1-.1-1.4.9-1 1.6.3.5.7.6 2.2-.1.6-.3 1.4-.9 1.9-.8 1.4.1 1.8 1.5.6 2.7-.6.3-.6.7-.4.7.5 0 1.4-.5 1.6-1.2.6-1.8-.4-3.4-2-3.4m4.7 8.3c-1.4.3-3.3 1.8-4 2.8-.6 1-1.2 2.1-.8 2.6.4.4.9.9.9 1.1s-.3.4-.5.7c-1.2 1.3-.9 1.4.8.5.8-.4 1.2-.6 1.8-.5 1.6.4 3.6.1 5-.4.6-.2 1.2-.5 1.3-.4-2.5 2.7-5.6 2-6.7 1.9h-.3c0 .1.3.4 1 .7 1.1.5 3.9 0 5.6-1.3 3.4-2.2 5.2-4.3 2.6-3.5-1.2.4-1.7.3-3.2-.3-2.2-1-3.9-1.3-5.8-.7-2.3.8-.5-1.1 2.1-2.8.4 0 .5-.4.2-.4m-12.6 5.7h-.8c-.6-1.9-1.9-1.9-2.5 0h-.7c.7-2.3 3.1-2.8 4 0m13.8.2h-.6c-.4-1.1-1.6-2.1-2.5-.3l-.4-.1c.8-2.9 3.7-1.3 3.5.4m-3.9-1.7c.4 0 .5.4 0 1.1-.3.5-.6.4-1 .1-.3-.3-.3-.4 0-.7.5-.4.8-.5 1-.5m4.3 0c.2 0 .5.1.8.2.9.3 1.1.5.7.9s-1 .5-1.3.3c0-.4-.5-.8-.5-1.2 0-.1.2-.2.3-.2m-13.9 0c.6 0 1.4.3 1.4.7-.1.4-.7.6-1.2.7-.3 0-.3-.1-.4-.3s-.2-.5-.2-.7c-.1-.4.1-.4.4-.4m-4.2.2s-.3 1-.5 1.4c-1.3-.1-1.2-.6-.6-1 .4-.4.7-.4 1.1-.4m-1 2.4c.2 0 .5.2.9.3 1.1.4 3 .3 4.5 0 .7-.2 1-.4 1.2-.3.3.2 0 .9-1 1.4-1.3.5-3.4.8-4.9 0-1.3-.7-1.4-1.4-.7-1.4m-.3 1.5c1.2.8 2.4 1 3.9.9 2.2-.1 2.6-.4.8.6-1.7.9-4.4.8-4.9-.2-.4-.6-.2-1.3.2-1.3m10.8 1.3c.2 1.2 2.2 2.3 3.2 2.6 2.1.9 5.3 0 7.8-1.1 1.8-.8 2.4-2 .3-1.3-3.5 1.1-7.8 1.2-10 .3-.7-.3-1.2-.5-1.3-.5m-11.3 4.5c4.3 1 9.5 7.7 9.5 10.6h-1.4c-2.1-7.4-7.6-9-8.2-9.5-.2-.9.1-1.1.1-1.1m-.1 1.9c5.1 2.3 7 6.3 7.7 8.7h-1.5c-1.1-3.3-3.1-5.7-6.2-7.2-.2-.4 0-1.5 0-1.5m0 2.3c2.6.8 4.9 4.3 5.6 6.4h-1.3c-.9-2.4-2.2-4-4.3-4.9-.2-.4-.1-.9 0-1.5m-.1 2.4c1.2.2 3.3 2.2 3.6 4.1h-1.2c-.4-1.3-1.7-2.4-2.4-2.9zm.2 2c.1-.1 2 1.6 1.7 2h-1.7c-.1-.5-.1-2 0-2"/>
    <path fill="#d40000" d="M97.789 21.152c-3.1 6.1-19.2 33.5-19.4 34.4l4.1 1.8 20-36.1s-4.1-.1-4.7-.1m47.2 22.9-1.7 2.5 1.4 2.8 1.7-2.7zm-73.4 27.4s-5.8 5.7-8 8.4c4.8 4.8 14.1 10.9 14.2 20.3h6.4l20.6 18.5s18.7.1 19 .1c.4-.1 7-9.6 7-9.6l11.8 8.7s-.6-9.3-1-15c-.1-3.8-.3-6.2 2.5-7.9-3.8-1.8-3.6-5.2-.8-7.7-.9-1.3-2.3-1.5-2.5-6.1-.6-.6-1.1-1-1.9-1.5l-.8.7c-2.5 2.2-4.1 4.5-4.4 5.9-.5 2.8 2.3 4.7 3.9 2.7.5-.6.9-.4.9.3 0 1.5-1.9 2.4-3.5 1.6-.4-.2-.7-.3-.7-.3-.1.1 1.6 4.1 2.1 5 .7 1.5 1.1 3 1.2 4.6.1 1.7 0 1.9-.8 4.8-.7 2.7-.4 4.4.9 4.4.7 0 .7.7 0 1-1.6.6-2.6-.6-2.6-3.1 0-1.5-.1-1.6-.8-1.2-2.7 1.3-5.7-1-4.4-3.4.3-.5.6-.3.8.4.3 1.4 1 2 2.3 1.9 2.9 0 4.2-4.2 2.5-8.4-.3-.8-.5-.8-1 .3-.7 1.7-1.9 2.2-2.9 1.2-.3-.3-.5-.9-.3-.9h.7c1.7-.1 2.3-1.7 1.5-4.2-.7-2.2-.8-2.6-1-3.8-.3-1.9-.1-3.3.8-5.1.2-.3 1.2-1.4 2.4-2.7 1.3-1.3 2.4-2.3 2.4-2.3-1.2-1-2.3-1.8-3.7-2.9 0 0-8.8 24.2-8.2 33.6-1.1 12.4-10.2 9-10.9.4zm-.4 3.7c3 0 5 3.9 6.1 12.2.4 2.7 2 6.6 3.2 7.5 3 2.3 7.8.5 7.8-2.9 0-4.2-5.9-4.9-6-.6 0 1-.5 1.1-1 .1-.4-.8 0-2.4.8-3.2.5-.5.5-.6-.5-1.2-3.6-2-5.2-5-3.2-6.3.8-.6 2 .1 1.5.9-.8 1.2-.8 1.4-.1 2.3.8 1.1 1.7 1.7 3.9 2.3 1.9.5 2.2.7 3 1 2.5 1.1 3.7 3.7 2.8 6.1-.2.6-.4 1.2-.4 1.3-.1.3.1.3 1.8 0 2.8-.4 5.9.6 7.5 2.4.8 1 1.5 3.1 1.5 4.9 0 .3.1 1.1.2 1.7s.3 1.6.4 2.3c.7 6.1 5.8 9.3 8 5 1.4-2.7-1.8-5.5-3.5-2.9-.6.9-1.2.5-.8-.6.6-2 3.2-2.4 4.9-.7.9.9 1.4 3 .9 4.4-.2.7-.2.7.3.6 1.2-.4 3.2 0 3.9.8 1.7 1.8 1.4 4-.7 4.7-1 .3-2 0-2.4-1.1-.2-.8.4-1 .8-.3.8 1.3 2.5.2 2.1-1.3-.5-1.7-1.9-2.1-4.6-1.2-4.3 1.5-5.7 1.4-7.8-.7-1.5-1.5-2-2.7-2.4-5.5-.4-3.1-.5-3.2-1.2-2.5-3.7 3.1-8.5-1.6-5.4-4.7 1-1 1.7-.1.8.9-1.3 1.6.4 3.7 2.4 3.2 3.7-.9 3-6.4-1.1-7.7-1.2-.4-4.6-.2-7.2.3-7.3 1.6-10.5-1.5-12-11.6-.2-1.2-.4-2-1.1-4.6-.8-3-3.6-4.6-5.1-3-1.2 1.3-.6 3.1 1.1 3.1s1.2 1.2-.6 1.3c-3 .3-3.6-4.8-.7-6.3.8-.2 1.5-.4 2.1-.4m-39.8 1.8 1 3.7 3.8 1.1-1.2-3.4zm9.7 1.1-1 3.3 2.8-1 1-3.1zm31 5.4c.6 0 1.1.5 1.1 1.1s-.5 1.1-1.1 1.1-1.1-.5-1.1-1.1.5-1.1 1.1-1.1m-36 1.9-3.3 1.1-.6 2.6 3-.7zm6.8 1.1-2.3-.7.6 2.7 2.6 1.1zm105.1-.5-1.6 1.2c4.5 4-.4 7.8-.5 7.5 3.3 2.2 2.7 5.6 2.3 8.8-.8 5.6-1.1 10.9-1.9 16.7 0 0 4 2.7 6.6 3.8v-33.8zm-56 5.1c.6 0 1.1.5 1.1 1.1s-.5 1.1-1.1 1.1-1.1-.5-1.1-1.1.5-1.1 1.1-1.1m-66.4 2.8.1 31.5 6.5-11.7-4.5-5.2 3.9-4.1c-2.2-3.3-4.1-6.9-6-10.5m63.3 4.8c.6 0 1.1.5 1.1 1.1s-.5 1.1-1.1 1.1-1.1-.5-1.1-1.1.5-1.1 1.1-1.1m14.8 3.2c.6 0 1.1.5 1.1 1.1s-.5 1.1-1.1 1.1-1.1-.5-1.1-1.1.5-1.1 1.1-1.1m42.3 35.1 4.8 4.9-3.8 4.7 5.9 10-.1-30.9zm-120.4-10.3.2 33.9 5.1 3.7 1.3-1.2c-3.3-3.5-1.3-6.2 1.2-7.7-4.4-1-3.1-6.9-2.8-9.6-.1-5 1.7-10.7 1.2-15.6zm29.4 4.7-7.3 10.2s-8-6.1-12.1-8.9c.4 4.4.8 10 1.4 14.8 1.3 6.9-2.1 7.1-2.1 7.7 5.4 4.1.9 8 .1 7.8 2.9 1.6 2.7 6.4 2.7 6.4l1.4.8s.4-.3.6-.4c1.5-.8 3.9-3.6 4.4-5.5.9-3.2-1.8-5.8-3.5-3.4-.8 1.2-1.5.4-.8-1 .6-1.2 2.3-1.9 3.4-1.3.6.3.5-.5-.5-3-.3-.8-.6-1.7-1.1-3.6-.5-1.8-.3-3.9.5-6.1 1.1-3.2.7-5.1-1.1-5.3-1-.1-1.1-.4-.3-.8 1.8-1 3.5.4 3.4 2.8 0 1.3 0 1.3.7 1 3.5-1.4 6.2 2.2 3.8 5-.7.8-1.2.3-.7-.8.8-1.8 0-3-1.7-3-2.6 0-4 3.5-3 7.4.3 1.2.4 1.2 1.2.4.8-.7 1.3-.9 1.9-.8 1.2.4 1.5 1.7.4 1.5-2-.3-2.5 1.8-1.4 5.5 1.5 4.9 0 8.9-4.4 11.8-.2.1-.6.4-.6.4 1.7 1.5 2.8 2.4 5 3.8l8-32.6s-.1-1.8-.3-2.7c0-8.7 8.1-9.6 10.7-1.6.2.8 1.5 2.7 1.5 2.7l42.3 37.7s7.9-7.7 7.8-7.9c-6-6.1-14.1-10.4-14.4-20h-6.2l-20.6-18.9c-6.7.1-12.4-.3-19.1-.1m11.5.7c1.1 0 2.3.6 2.3 1.5 0 .8-.5 1-1 .3-.6-.9-1.4-1-2.1-.2-2.1 2.2 1.1 4.2 4.8 3 2.3-.7 3.4-.9 4.2-.7 3.5.7 5.2 3.1 5.5 7.7.2 2.3.1 2.3 1.2 1.4 2.5-2.3 6-1 6.5 2.3.2 1.4-1.3 3.2-2.7 3.2-.6 0-.5-.6.1-.9 1.5-.7 1.5-3 .1-4-1.9-1.2-4.4.7-4.4 3.3 0 3.2 2.4 4.6 7 4.3.7 0 2.4-.1 3.8-.2 2.2-.1 4.6-.5 6.9 1.2 2.4 1.9 3.9 5.6 4.6 11.1 1.1 6.7 1.9 8.5 4.1 8.6 1.3.1 2.4-1 2.4-2.4 0-.9-1.2-1.7-2.2-1.4-1.1.4-1.3-.8-.2-1.3 1.5-.6 3.4.6 3.8 2.5.2 1.1-1 3.3-2.3 3.8-3.5 1.4-5.9-1.5-6.7-7.9-.5-2.9-.8-4.9-1.7-7.4-1.7-4.6-4.4-6.5-7.4-5.2-3.4 1.6-2.7 6.7.9 6.6 2 .2 2.4-1.3 2.4-2.9 0-1.2 1.3-.1 1.5.7.1 1-.8 2.2-1.5 2.7-1.2.8-.8.8.5 1.1 3.4.6 5.9 5.1 3.9 6.6-1 .6-2.2-.3-1.4-1.2 1.2-1.5-.8-3.8-4.4-4.6-4.7-1-6.5-4.5-4.8-8.1.6-1.2.6-1.2-1.7-1-5 .3-6.8-.4-8.5-3.3-.5-.9-.7-2.1-.8-4.4-.2-4.2-.6-6.8-1.1-7.5-2.6-3.6-8-2.5-7.3 1.5.4 2.1 2.5 2.8 4 1.2 1.1-1.2 1.6-.1.5 1.1-2.6 2.9-7.2-.5-5.8-4.3.3-.9.4-.9-1.3-.9-3.7-.1-5.5-3.3-3.1-5.6.2-.1.8-.3 1.4-.3m9 13.7c.6 0 1.1.5 1.1 1.1s-.5 1.1-1.1 1.1-1.1-.5-1.1-1.1.5-1.1 1.1-1.1m15 3.9c.6 0 1.1.5 1.1 1.1s-.5 1.1-1.1 1.1-1.1-.5-1.1-1.1.5-1.1 1.1-1.1m-3.2 7.1c.6 0 1.1.5 1.1 1.1s-.5 1.1-1.1 1.1-1.1-.5-1.1-1.1c0-.7.5-1.1 1.1-1.1m47.6 4.2.7 3.2 2.5.7-.4-2.7zm8.6 1.1-.1 1.9 2.2.3.8-3.3zm-37 2.9c.6 0 1.1.5 1.1 1.1s-.5 1.1-1.1 1.1-1.1-.5-1.1-1.1c0-.7.5-1.1 1.1-1.1m31.7 4.4-2.6.7-1.2 3.6 3.3-1.2zm5.1.3.3 2.7 3.2 1.4-1.1-3.8zm-47.2 22.8-19.8 36 5.4-.1 18.7-33.9zm-62.4 8.7-1.8 2.4 1.7 2.7 1.9-2.8z"/>
    <path d="M67.389 20.252c3.7 11.1 4 22.1.8 32.6 1.8.1 9.7 2.1 14 4.8-.8 2.1-13.1 17.2-21.5 24.1 2.4 2.4 5 4.7 7.7 7.3 4.2 4 5.6 6.7 5.9 11.8 0 2.5-.9 5.5-2.5 7.7-1.2 1.6-2.5 2.9-5 4.6-2.3 1.6-5.7 4.9-10 9.8-1.6 1.9-4.4 5.3-6.7 8.6-.9 1.2-3.4 4.9-3.4 4.9-8.5-7-17.6-12.3-17.8-12.3 0 0 9.2-4.9 11.1-5.9 1.5 1 3.5.1 2.5-2-1.9-4.8-.6-9.7 1.7-13.1.5-.8 1.9-1.3 4-1.5.9-.1 1.9 0 2.9 0 .4 0 1.3.1 1.8.4 1.7 1 2.1-.3 3.2-4.4s-.7-9.3-3.1-9.3c-.6 0-.9.2-.8 1.7.1 1.1-.2 1.7-.5 2.4-.6 1.5-.9 3-1.1 5 .4.1-2.3-2.7-6.5-3.7-2.7-.3-4.1-3.7-4-3.7 0 0 .4-.9.8-1.3.9.4 1.8 1 2.9 1.3 0 0-.3-1.4-.4-1.7-.5-1.9-.5-2.2.3-2.6 1.8-1 2-2.7.6-4.3-.4-.4-.7-.7-1.1-.9l.9-3.6s-.8.2-1.5.4c-1.9.6-1.8.6-2.6-.3-1.8-2-4.4-1.6-4.8.7 0 .3-.2.7-.2.7l-4-2c.1.9 1.2 4.2 1.2 4.2-3.5 2.8-.5 5.2.4 5.4 0 0-.8 2.6-1.1 3.7l4-1.1c.3.8.7 1.3 1.6 1.9.2 2.2 1.9 4.1 3.1 5.1 0 0 .2.8.1 1.3-.3 1.3 1.1 3.4 1.3 3.5-5.5-2.2-11.2-4.9-16.7-7.6l.3 67.8s1.3 1.2 3.8 3c1.2.9 1.2.9 1 1.9-.3 1.3-.3 2.3.9 11.1.6 4.6 1.3 9.4 1.8 13.8.2 1.6.3 2.6.3 2.6-1.2-.6-3-.6-3.9.4-1.6 1.8-.3 4.7 2 4.6.5 0 .9-.2 1.3-.5.3-.2.6 0 .6 0l-3.5 6.1 4 6.8 4-7.2-2.9-5.7s.3 0 .7.2.9.3 1.3.4c2 0 2.4-.9 2.7-2.6 0-2.2-1.7-3.1-4.1-2.3l-.8.2 2.5-23.6 1.3 1 .4-.2-1.2-1c.2-3.8-1-5.1-2.3-6 4.5-2.6 2.5-6.6-.4-7.9 0 0 1.9-1.1 2.3-2.3.3-1.1.2-2.8-.2-5.8-.3-4.6-1.3-14.2-1.3-14.2 3.9 3 8 6.2 11.8 9.2l7.6-10.6 18.3.1s13.9 12.7 21 19.2l6.1.1s.1.6.1 1.1c.6 6.3 4.8 10.6 8.6 13.6 1.6 1.4 5.4 5.1 5.4 5.1l-7.1 7.2-43.6-39.1-.3-.9c-1-4.1-3.7-5.9-6.2-5.6-2.6.3-4.8 2.9-4.7 7.3 0 .7.3 1.9.3 1.9l-8 33.3s-3.2-2.4-4.9-3.6l-.4.2 4.7 3.5.3-.2 1.3 1 .1.7c4.1 2.8 11 8 11 8 3.3-2.4 6.7-1.6 10.1-.7 0 0 2.5.8 3.8.8 6.8.2 12.7 1.5 19 3.7l-22.9 40.7 43.6.1c-2.2-8.5-4.4-17.2-.4-31.7-4.3-.9-13.9-4.7-13.9-4.7s0-.2.4-.7c1.8-2.5 6.2-9.4 10.4-13.4.5-.4 7.8-7.5 7.9-7.7 0-.1.2-.6.5-.8.7-.5 2.5-2.1 2.5-2.1l-9.1-8s-.4 0-.5-.1c-1.3-.7-3.6-4.7-4.1-7.4-1.3-6.2 1.1-11 7.9-16 6.6-4.6 19.2-22.3 19.3-22.7 6.8 5.6 12.1 8.6 18.1 12.3-3.6 2.1-6.5 3.5-9.1 4.8-1.6.9-1.9 1.1-3.2.7-1.6 0-2.1.6-1.7 2 2.4 3.8 1.4 12.5-1.9 14.2-2.8 1.5-5.5 1.1-7.7.2-1.7-.6-1.7-.6-2.5 1-1.7 3.6-1.8 6.7-.2 10.1 1.3 2.8 3.2 4.1 3.4.3.1-2.2 1.1-4.8 1.1-7.2 1.9 2.2 3.2 3.1 6.4 4 2.1.3 4.4 3 4.3 4.1-.6.6-.8 1.4-.9 1.3-1-.3-3.3-1.3-3.3-1.3l1 3.4s-.2.2-.6.4c-2.1 1.1-2 4 .2 5.2.5.2.5.4.3 1-.3 1.4-.9 2.3-1.2 3.7 0 0 .3 0 2.8-1.2l1-.5.6.6c1.3 1.4 2.9 1.4 4.3 0l.6-.7 1.8.9c1.7.8 2.1 1 2.1 1s-1-3.7-1.1-4.2c-.1-.2-.3-.5-.4-.5-.2-.1-.2-.1.4-.6 1.6-1.3 1.8-3 .4-4.4l-.6-.6.8-3.5-3.4 1.1c-.5-1.2-1.4-1.7-2-1.9-.1-1.6-.3-3.2-2.9-5.6.9-.8-.2-2.8-1.1-4 1.5.5 5.3 2.1 5.3 2.1h.6l1.8.9.2.3s5.7 2.7 8.3 3.9v-67.5c0-.1-.7-.6-1.3-1.1-1.2-.9-1.4-1.1-3-2.1-1.2-.8-1.1-.8-.9-1.7.3-1.1.3-2.6-.1-5.3-.3-2-1.3-9.2-2-15-.5-4.1-.6-5-.7-5.6-.2-1.6 0-2.4 0-2.4 5.7 2.5 6.1-5.7.4-4.6 1.1-2.2 2-3.2 2.9-5.6-1.2-2.6-3.8-6.9-3.8-6.9l-4.2 7.3 2.5 5c-2.8-.5-4.3 1.5-3.8 3.4.6 1.6 2.1 2.1 3.5 1.4 1.1-.4 1.1-.5.1 7.5-.3 2.4-1.5 13.4-1.7 15-.1 1.1-.2 1.4-.6 1.2-.6-.3-1-.6-1.6-1l-.3.3c.5.4 1.2 1 1.8 1.6-.2 2.9-.1 4.6 2.3 6-4.4 2.8-1.8 7 .8 7.6-1.5.4-3.1 2.4-2.7 6.3l1.2 16.3-11.9-8.9-7 10h-18.4l-20.8-18.8s-4.6-.1-6.4-.1c.2-.1-.4-5.8-3.4-9.6-3.3-3.9-10.7-10.3-10.7-10.3l7.8-8 43.9 39.6s.2 1.1.3 1.6c1.5 6.3 8.6 6.6 10.1.3.2-1 .5-3.4.4-3.7 0-.1.2-1.1.5-2.3 2.4-9.3 4.4-17.3 6.7-26.2.3-1.2.7-2.6.8-3 .4-1.8.3-1.8 2.2-.4l1.6 1.2.4-.4c-1.3-1-3.5-2.6-3.5-2.6v-.7c-7.1-5.1-8.6-6.5-12.8-9.8-3.3 2.9-7.9 1.7-10.9.7-.8-.3-2.6-.8-2.6-.8-7.3 0-13.7-1.4-19.8-3.4l23.4-41.7h-9l-.3.4h-4.7v-.4zm26.7.9 3.2.1-18.9 33.8-2-.8s.2-.1.2-1.5c0-1.5-.3-2.2-1-3.1-.6-.8-.8-.8.9-.6 3.4.5 5.9-3.3 4.5-6.2-.5-1.1-.5-1.2.9-1.3 3.8-.4 5.3-5.3 2.6-7.7-.6-.5-.3-.8.7-.6 3.3.7 5.9-3 4.6-5.9-.4-.8 0-.9.6-1 2.8-.7 3.8-3 3.7-5.2m-25.5 0h14.8c-2 3.1 1.5 4.9 2 4.6-3.2 1.7-2.3 4.2-.7 5.1 1.6.8 4 .1 3.4-3.5l.8-.3c.8.9 1.5 6.3-4.3 5.5-1-.1-1.6.8-.7 1.4 4.6 5.4-2.6 7.7-2.9 6.8v-.9c2 .4 4.5-2.2 2.3-4.4-1.3-1.3-4.9-.7-4.3 3.2-2.1-3.2-4.5-2.2-5.1-.5-.5 1.3.1 3.1 2.3 3.4-2.4 2-1.2 4.2.4 4.7 1.8.5 3.7-.2 3.2-3.5 0-.3.7-.2.7-.2 1.9 4.7-2.6 6.4-5 5.5-.9-.4-1.4 1-.4 1.7 1.4 1.1 1 4.2.8 4.2-2.7-1-6.5-1.8-6.4-1.7 2.3-10.2 2.2-20.5-.9-31.1m23.6 0h1.3c0 1.9-.8 4.3-4.1 4.6 0-.5 0-1-.2-1.5 1.3-.2 2.9.1 3-3.1m5.8.1h4.3l-20.1 35.7-3.2-1.7zm-10.5 2.8c.8 0 1.4.6 1.4 1.4s-.6 1.4-1.4 1.4-1.4-.6-1.4-1.4.6-1.4 1.4-1.4m-8.6 15.5c.7 0 1.3.6 1.3 1.3s-.6 1.3-1.3 1.3-1.3-.6-1.3-1.3c.1-.7.6-1.3 1.3-1.3m66.1 1.1 3.4 5.9-3.9 6.9-3.2-6.6zm0 2-2.4 4 2.2 4.1 2.5-3.9zm0 1.7 1.2 2.4-1.5 2.4-1.2-2.6zm-3.3 8c.3 0 .5.1.8.2 2.3 1 1.6 4.5-.9 4.2-.3 0-.7-.2-1.1-.4-1.6-1.4-.6-4 1.2-4m5.6.1c2 0 3.2 2.8 1.1 4.1-1 .6-2.5.2-3.1-.8-.5-.9-.3-2.3.9-3.1.3-.1.7-.2 1.1-.2m-2.8 4c.2 0 .4 1 .6 2.7.1.6.3 2.1.4 3.4.3 2.7.6 5.2.9 7.8.1.5.2 1.6.3 2.4 1.2 8.4 1.4 11.1 1.1 11.9-.7 2.5-4.2 2.7-5.6 1.2-1.1-1.1-1.2-2.3-.8-5.5.2-1.8.3-2.7 1.1-9.7.2-1.6.4-3.8.5-4.8.3-2.7.6-5.3 1-8 .3-1 .4-1.4.5-1.4m-56.1 6.2s11 3.6 19.3 3.5c1.2 0 1.4 0 3 .5.9.3 2.3.7 3.2.9 2.6.5 4.8.4 6.8-.5.3-.1.8-.5 1.2-.4.3.1.7.7.7.7-7.3 1.9-24.4 1.6-35.1-2.9zm56.4 1.2s-.1.1-.1.2c-.2.3 0 2.1.6 8.1 1.3 11.3 1.3 11.5-.3 12.7-.8.6-.9.8-.5 1 .3.2.2.2.8 0 1.3-.4 1.8-1.4 1.8-3.5 0-1.6 0-1.8-.5-5.7-.2-1.4-.4-3.3-.5-4.3-.9-7.1-1.1-8.5-1.3-8.5m-57.5 1.2c10.9 3.9 22.3 5 36.1 2.9 0 0 1.3.9 2 1.3l-.5.1.2 1.9 2.3-.4s1.3 1 2.2 1.6c-12.3 3.8-32.1 3.1-44.3-2.3-.5-.3-.7-.5-.7-.5.3-.6.6-1 .9-1.4l2.2.6.6-2-1.7-.6zm2.9 2.4-.7 2 3.1.9.5-2.1zm4.7 1.3-.4 2.3 3.1.6.4-2.2zm5.2 1-.2 2.2 3.3.4.2-2.2zm22.9.1-2.8.3.2 1.9 2.9-.3zm-5 .5-2.8.2.1 2 2.8-.2zm-12.7.1v2.2l2.9.1v-2.2zm7.9.3h-2.6v2.1h2.7zm-30.7.3c.3 0 .9.6 1.2 1.3.5 1.4.3 3-.5 3.5-1.1.7-2.5-.4-1.7-1.4.1-.2.4-.4.5-.4.6-.2.7-1.1.4-2.7 0-.2 0-.3.1-.3m4.3.6c11.8 3.9 25.2 5.2 39.1 2.3 0 0-6.6 26.8-6.7 26.8zm-5.8 0c.6 0 .7 1.1.2 1.6-.7.7-2.1.1-1.8-.8 0-.2 1.2-.8 1.6-.8m3.4.7c.1 0 .4.2.8.8 1.3 1.8 1.4 3.8.2 4.7-1.4 1.1-2.4-.6-1.3-2 .3-.4.3-1.1.2-2.6-.1-.7-.1-.9.1-.9m45.8.6c.2 0 .4.1 1 .4.8.4 1.1 1 .7 1.5-.6.7-2.2-.7-1.9-1.7 0-.1.1-.2.2-.2m-1.3.9c.2 0 .6.4.9 1.2.3.5.4.7.8.8 1 .4 1.2 1.4.3 1.7q-1.5.45-2.1-2.1c-.2-1-.1-1.6.1-1.6m-42.3.8c.1 0 .4.3.9 1 1.3 2 .9 5.7-.8 6.6-.7.4-1.2.3-1.8-.3-.9-.9-.6-1.5.6-2 1.1-.4 1.4-1.6 1.1-3.9-.1-1-.1-1.4 0-1.4m6.3.6c8.1 6.7 15.4 13.8 24.8 22.2 2.2-6.9 5.5-21.2 5.5-21.2-.4.3-15.8 2.5-30.3-1m35.3 0c.1 0 .5 1 .7 1.9.2.8 1 2.2 1.3 2.3 1.6.3 2.3 1.2 1.5 1.9-.6.6-1.8.3-2.4-.6-1.1-1.6-1.9-5.5-1.1-5.5m-90.1 1c1 0 1.9.6 2.1 1.9.3 1.5-.5 2.5-1.2 2.3-.8-.3-1-1.5-1-1.5s-.2 1-.5 1.5c-.7 1-2.1-.5-1.8-2 .2-1.5 1.3-2.3 2.4-2.2m57.5.3c8.8 1.3 16.4 1.7 26.9.5l-4.9 19.3zm-6.7.1c.1 0 .4.2.8.7 1.4 1.5 1.8 3.5.9 4.5-.5.6-.9.7-1.5.3-.7-.5-.8-1.3-.1-1.6.6-.3.7-1 .2-2.4-.4-1.1-.5-1.5-.3-1.5m-57.3.5 3.2 1.3 1.2 2.7-3.2-.8zm12.1.3-1 2.7-2.5.9 1-2.9zm83.8.6c.1 0 .3.3.5 1 .5 1.8.8 2.2 1.2 2.4.8.4.8 1.3.1 1.7-.5.2-.6.2-1-.3-.5-.7-.9-2-1-3.2 0-1 .1-1.6.2-1.6m-35.7 1.2c.1 0 .2.1.4.4 1.2 1.5 1.4 3.8.3 4.5s-2.6-.7-1.7-1.5c.1-.1.3-.2.4-.3.3-.2.3-.3.3-1.6.1-1.1.1-1.5.3-1.5m9.4.2 15.4 14 3.5-13.9c-6 .6-12.4.4-18.9-.1m-37.8.7c4.9 5.1 11.2 9.3 12.7 14.4 2.7 7 .7 15.2-5.6 19.9-3.5 2.7-6.9 5.5-9.8 8.8-4.7 5-7.8 10.5-10.9 14.4-.5.7-1.9 2.8-1.9 2.8s-.7.8-3-1.1c-6.1-5.4-12.4-9.3-18.9-13.1l2.7-1.5c5.4 3.1 12.1 7.5 18.2 12.6 0 0 4.8-7 6.3-9.1 2.2-2.9 3.8-4.8 5.9-7 5.3-6.6 10.8-8.7 13-12 3.3-4.9 3.5-10.6.7-15.5-2.7-4.7-8-7.9-11.4-11.8zm46.2.4h6s-.9.7-1.6 1.2c-.4.3-.9.2-1.9-.1-.8-.5-2.5-1.1-2.5-1.1m6.9 0h1.4c-1 1.3-2.1 2.2-3.5 3.3-.2.1-.3.1-.7 0-2.9-1-5.5-2.2-8.3-3.3h2.5s1.2.4 3 1.1c2.1.9 2.6 1.1 3.4.6.7-.5 1.3-1.3 2.2-1.7m2.8 0-.5 1.8c-.8 1.1-2.5 2.3-4 3.5-.3.2-.3.2-1.8-.4-5.3-2.1-7.9-3.4-7.9-3.4l-1.1-1s1.4.4 2.3.8c.6.2 1.7.7 2.4.9.7.3 2.2.9 3.2 1.3 2.3.9 2.2.9 4.4-1 2.4-2.2 3-2.5 3-2.5m-81 .1 2.3 2.7-3.1 2.6-2.3-2.8zm88.5 0c.5 1 .9 2.2 1.8 3 .7.6.8 1.1.4 1.5-1 .6-1.2-.4-1.5-1.1-.5-1.1-1.2-2.7-.7-3.4m-84.3.3h.2c2.5 0 3.1 3.7.7 4.6-.8.3-1.8.2-2.3-.3s-.6-.9-.2-1.2c.5-.4 1.8-.4 1.8-.4s-1.2-.4-1.7-.7c-1-.6-.2-1.9 1.5-2m51.2 0c.1 0 .4.3.7.9 1.3 2.1 1.2 6-.1 7-.7.5-1.5.4-2.1-.2-.8-.8-.5-1.7.6-2.2s1.3-1.5.9-4.2c-.2-.8-.2-1.3 0-1.3m-60.4.1c.7 0 1.5.3 1.8.9.3.4.1.8-.4 1-.6.2-1.8.5-1.8.5s1.1.2 1.8.5c.8.4.8 1.1-.5 1.6-2.4 1.1-4.6-2-2.7-3.7.7-.6 1.3-.8 1.8-.8m62.4 1.5s.1 0 0 0c.3 0 .7.3 1.1.9 1.4 1.9 1.7 4.7.5 5.3-1.3.6-2.2-.6-1.3-1.7.6-.7.6-1.8-.3-4-.1-.4-.1-.5 0-.5m30.6.1c.1 0 .3.4.6 1.4.7 2 1.3 2.9 2.1 2.9.9 0 1.4 1.3.7 1.8-1.4 1-3.3-1.5-3.5-4.6-.1-1.1 0-1.5.1-1.5m-7.7 1-.4 1.6s-1 1-1.7 1.6c-1.1 1-1.4 1.2-2.3.9-1.4-.5-2.7-.9-4.1-1.3l-3.3-2.7 7.5 2.9s.6.2.9 0c.9-1.1 2-1.9 3.4-3m7.1 1.5c.1 0 .2.1.3.4.3 1.5.8 2.7 1.2 2.8.5.2.7.7.5 1.1-.6 1.3-2.3-1-2.3-3.3 0-.5.1-1 .3-1m-27.1.1c.1 0 .2.1.5.4 1 1 1.4 3.9.5 4.7-1.2 1.2-2.5-.6-1.3-1.8.3-.3.3-.4.2-1.8 0-1.1 0-1.5.1-1.5m-62.8.3-.8 2.7-2.6.7.6-2.2zm3.1.3c.2 0 .4.1.7.2 1.1.8 1.1 2.1.6 3s-1.4 1.2-2.4 1.1c-1.2-.1-2.1-1-2.1-2.3 0-.6.3-1.4.7-1.7.3-.2.6-.1.8.3l.7 1.4s0-1 .2-1.5c.2-.3.5-.5.8-.5m2 .2 1.9.6.7 2.6-2.1-.8zm107 .5s.5.2 3.1 2.3c.6.5 1.7 1.5 1.7 1.5l-.1 33.4-6.1-3.8.3-2.9s.8-8.8 1.5-13.5c.4-5.2 1.4-6.6-2-8.8 3.7-2.3 2.7-6 .3-7.5zm-30.2.1-.3 1.5c-1.2 2.1-2.3 2-4.2 1l-2.2-1.9c1.4.3 2.2.8 3.6 1.2.7.2 1 .1 1.5-.4.5-.4.9-.8 1.6-1.4m-16.6.8c.8.8 1 1.6.9 3.7-.1 1.4-.1 2.5-1.3 3.3-.6.4-1.6.4-2 0-1.1-.7-.5-2.1.9-2.2.9 0 1.2-2.9.7-4.7-.1-.3-.1-.5.1-.5s.4.1.7.4m23.8-.1c.2 0 .5.4.7 1.2.3 1 .6 1.6 1.2 1.9.7.4 1 1.1.5 1.5-.9.8-1.9-.2-2.2-2.3-.1-.3-.5-2.3-.2-2.3m20 .4c2.1 0 3.3 1.5 3.3 3.3 0 1.3-.7 2.6-2 3.1-3.1.9-4.7-1.1-4.7-3.1 0-1.7 1.3-3.4 3.4-3.3m-42 1.1c1.8 1.8 1.8 5.5.1 5.5-2.1-.7-.5-1.9-.4-2.2.2-1.3-.1-2.1-.4-3.3-.2-.7.5-.2.7 0m42.1-.2c-.4 0-.3.4.3.9 1.2 1.1.6 3-.9 3-.7 0-.9.5-.3.7 2.4 1 4-2.7 1.9-4.2-.4-.2-.7-.4-1-.4m-91.8.5c1.9.7 2.6 4.4 2.7 5.7.1 2.3-1 6-1.9 6.7-2.4 1.9-3.6-4.9-1.5-9.2.2-.4.4-.8.3-1.7s.1-1.5.4-1.5m63.9.4s-.2 1.1-.5 1.7c-.3.7-.5.7-1.2.1-.4-.3-1-1-1-1 .6.1 1.1.4 1.7.2.4-.3.9-.8 1-1m7.3 0c.1 0 .3.4.5 1.2.6 2.1 1.2 2.9 2 2.9 1.4 0 1.7 1.7.4 2.1-.5.2-.6.2-1.3 0-.9-.2-2.2-3.4-2-5 .2-.8.3-1.2.4-1.2m-85 1.3c.5 0 .7.2 1 .9s1.2 1.6 2 2c1.8.9 3.7 1.6 5.5 2.5 2.3 1.2 4.4 4.8 3 5.1-.5.1-1.1.1-1.6.1-.2-.1-.5-.5-.8-.9-1.1-1.7-3-3.4-6.1-4.2-2.2-.6-4.1-3.2-4.5-4.5-.1-.3-.1-.6.2-.7.5-.2 1-.3 1.3-.3m65.5.2c.1 0 .2.1.5.3 1.3 1.4 1.4 3.9.3 4.6-1.2.8-2.3-.5-1.4-1.6.4-.5.4-.5.4-1.9 0-1 .1-1.4.2-1.4m18.7 1.6c.2 0 .4.4.7 1.3.4 1.2.5 1.3.9 1.5.8.4.9 1 .3 1.6-1 1.1-2.1-.6-2.1-3.4 0-.7.1-1 .2-1m-16.8.2c.1 0 .4.2.6.5 1.6 1.9 1.3 6.2-.5 6.9-.6.2-.8.2-1.1.1-1.3-.6-1.1-2 .5-2.8 1.1-.8.3-4.7.5-4.7m-80.4 1.4 6.5 3.2s1.8 3.8 2.6 5.2c.6 1 1.7 1.9.5 2.6-2 1.3-3.1 2.1-3 2.9 0 .7.8 1.3 2 2.7 1.6 1.9 1.6 1.5.1 4.3-1.1 2-2.1 6.6-2.1 6.6l-6.6 3.4c2-4.7 4.2-8.7 6.8-11.5-1.9-1.4-3.5-2.9-5.2-4.9 1.2-1.7 2.9-3 4.4-4.5-3-3.5-4.9-6.8-6-10m82.1 0q.15 0 0 0c.3 0 .9.7 1.5 1.8.7 1.4.8 3.2.1 3.8-1.1 1.1-2.5-.3-1.5-1.5.7-.5.5-1.8 0-3.2-.2-.6-.2-.9-.1-.9m-82.8.6c1.7 3.6 3.6 6.5 5.5 9.3l-4.2 4.4c1.3 1.5 2.9 3.1 5.1 5-2.7 3-4.5 7.3-6.3 11.3zm97.2.1c.1 0 .4.4.6 1.3.3 1.1.5 1.4 1.1 1.7 1 .4 1 1.4 0 1.8-.4.1-1.1-.2-1.3-.7-.4-.7-.6-1.6-.6-2.5-.1-1.1 0-1.6.2-1.6m23.4.7c1.6.4 2.2 2.1 1.9 5-.4 4-.9 8.4-1.3 12.1-.5 4.2-.8 6.9-.8 6.9l-.4-.3s.1-2.3.3-3.7c.4-3.1.6-5.9.9-9 .7-7 .5-9.2-.7-9.9-1-.5-1.4-.2-.7.5 1.4 1.1 1.3 1.5-.1 18.7-.2 1.8-.2 3-.2 3l-1.9-1.2s-.1-1.5-.3-3.7c-.4-4.2-.7-8.7-.9-12.7-.3-4.3.5-5.8 3.2-5.9.1 0 .6.1 1 .2m-34.3 2.5c.2.6 1.1 4.8-1.2 3.6-.6-.4-.7-.9-.2-1.5s.6-1.5.4-2.7c-.2-.8-.4-1.4-.4-1.4.5.2 1.4 1.8 1.4 2m-70.4-1.3c2 .4 4.2 1.6 5.6 3 .9.9.8 1.7-.5 1.8-1.3.2-1.4.4-2-.1-.3-.2-.8-.8-1.5-.9-2-.4-3-4.1-1.6-3.8m80.9 1.1c.2.3.2 1 .4 1.5.3 1.3 1.2 2.3 2 2.2.6-.1 1.3.1 1.4.8.2.6-.1 1.1-.7 1.3-.7.3-1.5.1-2-.4-1.3-1.2-2-5-1.1-5.4m-9.7 0c.7.3 1.6 2.6 1.7 4.4 0 1.3-.2 3-1.3 3.6-.7.4-1.5.2-1.8-.4-.4-.8-.1-1.6.7-1.9 1-.5 1.3-2.5.7-4.5.1-.4-.4-1.3 0-1.2m-76.5 1 5.3 2.7c-.8 1.1-1.4 2-1.8 3.1-1.7-1.9-2.6-3.9-3.5-5.8m78.5.9c.1 0 .4.3.7.5 1.3 1.3 1.9 3.6 1.1 4.5-.6.7-1.8.6-1.9-.1-.1-.4.3-1 .5-1.3.2-.5.3-1.8-.1-2.8-.2-.4-.4-.8-.3-.8m-36.7.5 6 .2 20 18.1h-1.9l-18.4-16.8h-5.7zm-34.5 3.3c-2.3 3.6-2.9 8.2-1.5 12.3 1.1 2.9-1.3 3.1-2.2 1.2-.7-1.4-1.2-3.9-.9-6.5.3-4.3 2.3-8.6 3.8-9.1 1.6-.6 1.3 1.5.8 2.1m82.1 8.7c-.6 2.8-1.7 4.3-3.3 4.9-6.5 2.4-9.4-10.8-3.3-14 5.7-1.9 7.4 5.4 6.6 9.1m-48-8.6 5.6.1c5.1 4.7 10.7 9.1 16.2 14.8h-2.7s-.8-.7-1-.9c-5-4.5-8.7-8.1-13.4-12.2l-5-.1zm43 .9c-3 .1-3.3 4.3-3.2 5.8.2 2.3 1.1 5.6 4 5.3 2.1-.2 3.1-2.7 2.9-5.7-.2-2.8-1.3-5.4-3.7-5.4m-43.5 1.3 4.9.1c4.4 3.8 9 8 13.5 12.5h-2.2s-.6-.5-.7-.7c-3.7-3.4-7.5-7.1-11.1-10.1l-5.1-.2zm43.6.2c.9.3 1 2.4.3 3.3-.5.6-1.7-.5-1.8-2-.1-.8.7-1.6 1.5-1.3m-81.8.3c-.4 1.4-.7 2.9-.8 4.6l-2.1-2.6zm83.4 2.5c.5 0 .9.4.9.9s-.4.9-.9.9-.9-.4-.9-.9.4-.9.9-.9m-41.6.5 9.9 9.3h-2.8l-8.1-7.4-5.1-.2 1-1.8zm38.4.1c.5 0 .9.4.9.9s-.4.9-.9.9-.9-.4-.9-.9c-.1-.5.4-.9.9-.9m11.7.1c5.6 4.3 13.4 10.1 21.6 14.7 0 0-1.3 1.1-2.6 1.4-6.3-3.5-13.9-8.5-18.6-12.5-4.4 6.5-12.9 18.4-20.4 23.8-4.8 3.4-7.2 7.6-7.1 12.5 0 5.1 1.8 8.4 6.8 12.6 3.2 2.7 6.7 6.1 6.7 6.1l-1.8 1.6c-.3 0-5.4-4.4-10.5-9.6-2.8-2.8-4.1-9.1-3.6-12.5.7-4.6 2.2-7.9 6.5-11.4 1.7-1.3 3.3-2.3 4.8-3.8 13.4-14.4 18.2-22.9 18.2-22.9m-9 2.3c.5 1.1.8 2.4-.8 2.5-.9.1-1.5-1.5-.7-2.9.6-1.1 1.2-.2 1.5.4m-47.5-.3 5.3.2s5.2 4.6 7.9 7.1h17.8c9.8 0 17.9 0 17.9.1.1.1-1.3 2-1.3 2h-58.8s3.6-3.2 4.9-4.1c2.4-1.6 4.5-3.1 6.3-5.3m-36 2.3c.4 1.4.7 2.9 1.4 4.2l-4.1 2.2c.7-2.3 1.5-4.3 2.7-6.4m113.3 11.8c-.8 2.2-2.9 6.7-5.5 10.2-.5.7-.9 1.2-.9 1.2l5 4.8-4.3 4.6c2.4 2.5 4.5 6.4 5.6 9.5-2-.8-3.1-1.3-5.5-2.6-.7-1.7-1.4-3.6-2.2-5.1-1.8-3.6-1.7-3.2-.3-4.3 2.1-1.6 2.7-1.9 2.2-2.7-.4-.5-2.9-3.5-3-3.6-.2-.1-.1-.6.3-1.3 1.4-2.6 2.6-5.5 3.4-8zm1 .2.1 30.3c-1.8-3.6-3.7-7.3-5.7-9.6-.1-.2 4.5-4.7 4.5-4.7-1.7-1.6-2.7-2.5-5-4.7 2.2-3.4 4.1-7.7 6.1-11.3m-126.9 1 5.7 3.3c-.3 4.3-.7 9.9-1.3 15.6-.5 4.4-.7 6.5.1 7.7.7.9 2.5 1.9 2.5 1.9-3 1.2-4.2 4.8-.8 7.5 0 0-.8.6-1.2 1l-4.7-3.5zm89.8 1.6c-1.4 1.6-3.7 4-5.4 5.1-2.3 1.5-5.5 4.4-5.4 4.5 0 0-3.4 0-5.7-.1l-7.9-7.1s.3-.1-10.5 0c-13.9.1-25.1 0-25.1 0l1.6-2.2zm28.1 1.3c-.8 2.5-2 4.8-3.5 7-.4-1.5-.5-3.2-1.3-4.5zm-111.4.8.7.5s-.4 5.2-.5 6.8c-.2 2.8-.4 5.4-.6 8.2-.5 5.7-.4 6.6.7 7.4.9.6 1.4.4.7-.5-.5-.6-.5-.6-.7-1.6-.1-.7-.1-1.7.1-4.3.9-15.1 1-15.6 1-15.6l1.7 1.1c-.1.2 1.6 15.2 1.4 18.9-.2 4.4-6 3.4-6.3.2-.1-.7 1-13 1-13zm47.7.9 2.3.1 14.2 13 4.8.1-.4 1.6h-4.7zm8.7 0h2.2l8.1 7.4 5 .1-1 1.4-5-.1zm-2.7 0 12 10.8 4.1.2-.6 1.5-4.8-.1-13.5-12.4zm-11.6.1h2.5l18.7 16.9 4.9.1-.1 1.5h-5.9zm63 .5c1 .2 1.5 1.2 2.2 4.8.8 4.2-.9 10.9-3.2 12.2-1.1.9-2.4-.1-1.6-1.2 2.6-3.8 3-10.1 1.4-13.6-.4-1.3.1-2.5 1.2-2.2m-79.4.6c6 .1 7.5 12.4 1.6 14.1-3.8.6-5.8-2.9-6.3-6-.7-3.9 1.1-8.2 4.7-8.1m-3.3 7.4c.4 2.5 1.9 5.3 4.1 5.1 2.9-.3 3.3-4.2 3-6.2-.3-2.4-1.7-4.5-3.7-4.6-3.1-.3-3.7 3.8-3.4 5.7m3.2-4.8c.8 0 1.4 1.1 1.2 2.5-.1.9-.5 2-1.5 1.3-.5-.4-.9-1.7-.8-2.6.1-.7.4-1.2 1.1-1.2m82.5 2.8 2.8 3.3-3.2 2.2c.4-1.7.6-3.5.4-5.5m-80.5.3c.5 0 .9.4.9.9s-.4.9-.9.9-.9-.4-.9-.9.4-.9.9-.9m-3.2.6c.5 0 .9.4.9.9s-.4.9-.9.9-.9-.4-.9-.9.4-.9.9-.9m1.8 1.2c.5.1.8.6 1 .9.6.9.7 2.1.3 2.5-.9 1-2.3-.1-2.1-1.7.1-1.1.4-1.9.8-1.7m7.9 3.6c1.3 0 1.7 1.6.6 2.3-.7.5-.9 2.1-.4 4.3.4 1.6.2 1.9-.8.4-1.7-2.6-1.3-7 .6-7m-3.1.8c1.2 0 1.5.8.8 1.5-.4.4-.4 1.6.1 2.5.6 1.4.5 1.8-.7.5-1.6-1.7-1.5-4.4-.2-4.5m76.1.7c1.3 1.7 2.5 4 3.5 6.6l-5.7-2.6zm-82.8 7c-.4-.5-.6-2-.9-2.6-.3-.8-.5-1.2-.9-1.2-2.4.2-2.3-2.1-.9-2.5 2.8-1 3.9 5.9 2.7 6.3m11.9-2.3c-.4 1.2-.1 1.9 0 3.2.1.6.1.7-.4.3-1.1-1-1.7-4.4-.7-5 1.4-.9 1.8.5 1.1 1.5m56.8-1.6c.6 0 1.2.4 1.5 1.2.4 1.1.4 4 .2 5.5-.3 2.3-.9 4.4-1.1 6-.8 1-2.8-2.4-3-5.1-.3-2.1.4-6.5 2-7.4.1-.2.2-.2.4-.2m7.6.3c.5 0 .4.1.8.5.6.6.8.7 1.6 1 1.6.5 3.4 2.8 2.7 3.5-.5.4-2-.4-2.5-.6s-1.2-.4-1.5-.5c-1.4-.5-3.3-3-2.7-3.5.2-.2 1.2-.4 1.6-.4m-3.9.4c1 0 1.3.3 1.9 1.3.9 1.6 2.4 2.7 4.7 3.4 2.9.9 5.5 2.6 5.4 5.8q-1.05 0-2.1.3c-.8-2.3-2.8-3.6-4.6-4-4-.9-7.8-5-6.7-6.6.4-.3.9-.2 1.4-.2m-69.4.2 34.7 30.3c-14.7-5.5-28.1-5.3-41.1-3.3zm14.8 2c-.1.9-1.4 1.1-1.6 1.4-.6.6-.6 2.2-.3 4.1.2 1.1-.1 1.1-.7.2-1.1-1.6-1-4.3-.3-6 .9-2 3-1 2.9.3m-19.9-1.4c1.3.1 1.7 2 1.8 3.2 0 1.7-.5 1.6-.7 0-.1-.7-.3-1-.9-1.2-1.4-.4-1.5-2-.2-2m16.1 1.8c-.3.4-.3 2.1 0 3.3.2.7-.1.7-.6.2-1.4-1.7-1.6-4.6-.2-5.1 1-.3 1.3 1.1.8 1.6m-15 3.4c0 1.7-.4 1.8-.9.2-.1-.4-.4-.8-.5-.9-.9-.6-1.1-1.2-.6-1.7 1.4-1 2 1.9 2 2.4m5.1-1.5-4.7 20.1c11.6-1 16.9-1.2 29.2 1.2zm14 .3c.7.2 1 1.1.1 2-.3.3-.5.9-.2 2.3.5 1.9-.3 1.3-1.2-.5-.6-1.2-.3-4.2 1.3-3.8m-22.2.1c1.3 0 2.4 2 2.4 4.3 0 1.8-.2 1.7-.9 0-.5-1.1-.9-1.6-1.7-1.9-1.5-.6-1.4-2.4.2-2.4m8.5.6 21.8 19.1c-8.9-1.4-17.7-1.5-26.2-.5zm18.2.7c1.7 0 2.4 2.1.3 2.9-1.2.4-.7 3-.5 4.5.1.6-.1.6-.5.1-1.3-2-2-6.9.7-7.5m-2.3 2.4c-.3.5-.3 1-.1 2 .6 2 .7 2.4-.5 1.4-1.2-1.3-1.8-3.9-.7-4.6 1.1-.9 2.1 0 1.3 1.2m-43.1-1.6c2 0 3.5 1.3 3.4 3.1-.1 2-1.3 3.3-3.2 3.4-2.1.1-3.3-1.5-3.4-3.3 0-1.4.9-3.2 3.2-3.2m0 .8c-2.3 0-3.2 3.1-1.3 4.5.8.6 1.5.4.8-.2-1.3-1.2-.8-3.2.9-3.6.8-.2.5-.7-.4-.7m28.2.5-2.8 13.6c5.7-.9 12.6-.6 17.9-.1zm-9.4.6c1.4-.1 1.8 2 1.8 2.9 0 1.1-.1 1.6-.3 1.1-.5-1.4-.9-2.1-1.4-2.1-.3-.1-.5-.2-.7-.4-.6-.8-.1-1.5.6-1.5m9.6.5 1.8 1.6c-1.2-.5-2.2.8-2.2.8zm18.9 2.6c-.5.7-.5 2.1-.1 3.7.1.5-.3.1-.7-.4-.8-1-1.2-2.3-1.1-3.3.2-2.5 3.4-2 1.9 0m-29-1.2c1.2.1 1.6 2.6 1.6 3.4s-.2 1.3-.4.8c-.3-1-.9-2.5-1.5-2.9-.9-.6-.7-1.3.3-1.3m91 2.7c0 .9-.3 1.8-.9 2.1s-.9-.1-1.2-1.1c-.2-.7-.3-1-.3-1s-.2.9-.3 1.1c-.4 1.3-1.8 1.3-2.4-.1-.6-1.7 1.1-3.4 2.5-3.3 1.5 0 2.6.9 2.6 2.3m-79.4-1.8c.4 0 2 .7 2 .7l1.6 1.4-2-.8c-1.2-.4-1.2-.4-2.2.4-1 .9-1.9 1.5-1.9 1.5l.3-1.8c0-.1 1.5-1.4 2.2-1.4m-10.6 4.5c.2 1.9-.3 2.1-.8.3-.5-1.6-.9-2.2-1.7-2.2-1.4.2-1.9-1.9-.6-2.3 2.4-.7 3 3.4 3.1 4.2m81.9-4.3 2.2 1 .5 2.3-2-.5zm-49.4.2c2.1-.6 2.4 2.1.8 2.5-1 .2-1 1.8-.7 4 .1.5.2 1.1.2 1.2-.2.4-.7-.2-1.3-1.7-1.1-2.5-.8-5.5 1-6m60.7 0-.6 2.6-1.9-.1-.1-1.6zm-62.9 1.7c-1 1.5-.1 2.9.1 4 0 .7-.8 0-1.3-1-1-2.1-1.1-3.7-.2-4.4 1.4-.8 2 .6 1.4 1.4m-19.1-.3c.4 0 .9.2 1.9.6.8.3 2.6 1 2.6 1l2.4 2.1s-2.1-.8-3.5-1.4c-3.3-1.4-2.8-1.4-5.4.5-.7.6-1.5 1.2-1.5 1.2l.3-1.7s1-1 2.2-1.9c.4-.3.6-.4 1-.4m-30.5.8c1.7 0 2.8 1.3 3.2 2.8.2.9 0 1.7 0 2.5-1.2 8.9-1.7 17.2-2.7 25.4-.1.4-.3.2-.4-.5-1.2-7.5-2-15.7-3.1-23.1-.2-2.8-.9-6.4 2.5-7.1zm-.1.9c-.7 0-1.6.5-1.9 1.2-.6 1.3-.5 4.1.7 12.3.1.7.2 1.8.3 2.5.2 2.2.5 3.9.7 4.2.4.6.4 0 .2-2.2-.1-1.1-.3-2.7-.4-3.7-.5-3.9-.7-6.6-1-10.2-.2-1.7.5-3 1.8-3.4.7-.2.7-.5.1-.7-.2.1-.3 0-.5 0m111 .2c2.5 0 3.4 3.4 1 4.7-.9.5-2.4.2-2.8-.5-.2-.6 0-.9.5-1.1.5-.3 1.3-.5 1.3-.5s-1.3-.3-1.7-.9c-.7-1.4.7-1.7 1.7-1.7m-92.2 3.7c0 .6-.4.4-.4 0-.3-.9-.8-1.8-1.3-2.2-.6-.5-.7-1.1-.3-1.4 1.4-1.3 2 3.2 2 3.6m83.2-3.8c.6 0 1.5.2 2 .7.7.7.7 1-.5 1.4-.6.2-1 .4-1 .4s.5.2.9.3q1.65.6 0 1.8c-1.4 1-3.7-.3-3.6-2.2.1-1.4 1-2.3 2.2-2.4m5.1 0 2.2 2.5-2.6 2.7-2.5-2.7zm-76.1.3s.1 0 0 0c.8 0 1.9.5 4.6 1.6 1.5.6 3.2 1.3 3.2 1.3l2.4 2.2s-3.3-1.1-4.5-1.6c-.3-.1-.8-.4-1.2-.5-.4-.2-1.5-.6-2.4-.9-1.9-.8-1.9-.8-2.5-.2-.3.2-.9.7-1.5 1.1-.5.4-1.3 1-1.7 1.3-.5.4-1.1.9-1.1.9l.4-2.1s.4-.3 1-.8c.5-.4 1.4-1.1 1.9-1.5.6-.5.9-.8 1.4-.8m24.1 1.8c.1.4 0 .5-.5 1-.6.6-.7 1.7-.3 3.1.1.4.3.8.2.9-.7.7-2.4-3.6-2-4.8.6-1.5 2.2-1.6 2.6-.2m-38.5.2c.5 0 1 .3 1.3 1.1.7 2 .3 4.5-.5 2.2-.2-.5-.5-1-.8-1.3s-.8-.6-.8-1c.1-.7.4-1 .8-1m15 0c.3 0 .7.2 1.4.4.6.3 2.4.9 3.4 1.3 1.6.6 3.2 1.4 3.2 1.4l-3.6-.2s-1.2-.4-1.9-.7c-2.6-1.1-2.5-1.1-3.8-.1-.5.4-1.1.9-1.1.9l-1.8.1s.9-.9 2.1-1.8c.4-.3 1-.7 1.2-1 .4-.1.6-.3.9-.3m28 .8c1-.2 1.5.8 1.5 1.4-.1.7-.7 1.3-1.6 1.5-.2.7-.8 2.4-.4 4.9.3 1.2-.2 1.2-.7.1-.9-2-2-7.3 1.2-7.9m-2.8 1.9c-.4.9-.6 1.6-.3 2.8.3 1.3.3 1.6-.4.8-1.4-1.9-1.6-4.8-.3-5.2 1.2-.3 1.4 1.1 1 1.6m-41.8-1.3c2.2.3 2.8 4.1 2.5 5.7-.6 1.9-.5.6-.7-.2-.5-1.9-1.2-3-1.8-3.1-1.9-.4-1.6-2.7 0-2.4m16.7.7h.1c.7.1 2.6.7 1.8.9h-2.8c-.6 0 .3-.9.9-.9m76.2.6c.3 0 .6.3 1.1.7 1 1 .6 2.7-.8 3.5-2.1 1.3-4.6-1.1-3.4-3.3.6-1.2 1.4-1 2.1.7.1.2 0-.2.2-.7s.5-.9.8-.9m-3.6.1-.6 2.6-2.6 1.3 1-3.2zm5.4.5 2.1.2 1.2 3.4-3-1.3zm-49 1.9c1.5.1 1.7 1.5.8 2.1-.5.5-.7 1.1-.6 2.2 0 .5.1 1.1.1 1.1 0 .2-.2.2-.5-.1-1.5-1.7-1.3-5.4.2-5.3m-45.6.5c1 0 2 2.7 1.5 3.8-.3.6-.7.5-.8-.3-.1-.5-.4-1.2-1.2-1.4-1.1-.3-.7-2.1.5-2.1m48.4 1.7c.7.4.8 1.2.1 1.7-.5.4-.6.7-.7 1.7.2 2.3-1.1.8-1.2-1.2-.1-1.2.5-2.9 1.8-2.2m-49.2.7c.7 0 1.5 1.2 1.3 2-.1.6-.4.5-.8 0-.2-.1-.5-.3-.7-.3-1-.3-.9-1.7.2-1.7m19.5.9c9.3 0 18.9 1.4 26.9 4.6l-.7 1.2-2.1-.7-.7 1.9 1.7.7-.8 1.8c-9.5-3.1-19.7-5.4-36.6-2.9-.8-.6-2.4-1.7-2.4-1.7l1.4-.3-.2-1.9-3.4.6-1-1c5.4-1.5 11.5-2.2 17.9-2.3m31.1.4c.9 0 1.4 1 .8 1.4-.5.3-1.5.4-1.7.1-.4-.4.2-1.5.9-1.5m-32.4 1.2v2l2.8-.1.1-1.9zm4.9 0v1.9l2.7.1.1-1.9zm-7.1.2-2.7.2.1 1.8 2.7-.1zm12.2.3-.1 1.9 2.8.3.2-1.9zm-17.4.1-2.8.4.2 1.8 2.7-.3zm22.8.6-.3 1.9 2.6.4.3-1.8zm5.1 1.1-.3 2 2.6.6.4-1.8zm-18.6 2.2c8.7 0 16.6 1.5 23.3 4 0 0-.9 1.9-1.2 2.1-4.8-1.9-13-3.7-18.5-3.8-2-.1-2.5-.1-3.2-.4-4.2-1.4-7.9-2-11.3.1l-1.4-1c4.3-.7 8.4-1 12.3-1m-36.7 11.2c2 0 2.9 3.1.8 4.4-.6.3-1.3.3-1.9 0-1.7-.8-1.8-3.4.2-4.2.3-.2.6-.2.9-.2m65 .1c.7.4 3.3 1.6 3.3 1.6l-18.5 33.5h-4.5zm-59.6.1c1.1-.1 1.9.8 2.2 1.6.4 1.1-.3 3-2.3 2.9-2.2-.1-3.2-4.2.1-4.5m63.5 1.7c.5.3 2.3.6 2.4.9.1.2-.1.5-.1 1-.1 1.1.2 2.2.8 3.2 1.1 1.5-.1.8-1.1.8-2.4-.6-5.4 2.6-4.2 6 .3.7.2.8-1.1 1.2-2.9.9-4.1 4-2.8 6.7.7 1.4.7 1.4-.5 1.5-3.5.3-5.6 3.4-4.1 6.7.2.5.1.6-.7.8-2.4.4-3.5 2.5-3.8 4.7h-3.2zm3.1 1.2 6.1 1.7c-2.5 8.7-2.9 18.8.2 30.4h-14.1c2-1.8 1.2-4.2-1.1-4.7 2.2-1.3 2.2-4.7-.4-5.1-2.3-.4-3.5 1.9-2.5 4.1l-1 .3s-.4-.6-.5-.9c-.9-2.6 1-5.1 4.1-5.1 1.9 0 2.3-.5 1.3-1.7-1.9-2.1-1.3-5.1 1.2-6.3 1.2-.5 1.8-.2 1.8-.2l.1 1.4s-.5 0-.8.1c-2.8.4-2.3 4.9.6 4.8 1.5 0 2.7-1.2 2.7-2.9v-1.2c1.4 2.4 3.9 2.6 4.9.6 1.2-2.3-1-3.8-3.2-3.6 0 0 .5-.3.8-.5 2.4-1.2 1.6-4.7-1.1-4.7-1.8 0-2.8 1.7-2.3 3.5.1.3.3.7.3.7l-1.1.3-.4-.4c-1.8-2.9 1.1-6 4.8-5.3 1.4.4 1.3-.5.6-1.4-1-1.1-1.6-2.5-1-3.9m-69.3 1.2 3.2 5.7-3.6 6.6-3.6-6.1zm-.3 3-2.2 3.1 2.2 3.5 2.1-3.6zm-.1 1.2 1.5 2-1.5 2.4-1.4-2.3zm66.5 6.1c.7 0 1.2.5 1.2 1.2s-.6 1.2-1.2 1.2c-.7 0-1.2-.5-1.2-1.2s.5-1.2 1.2-1.2m-8.7 15.4c.7 0 1.3.6 1.3 1.3s-.6 1.3-1.3 1.3-1.3-.6-1.3-1.3.6-1.3 1.3-1.3m-1.9.9c-.1 0 0 1.2.3 1.6-1.8.1-2.3 1.5-2.5 2.7h-1.6c.2-4 3.7-4.1 3.8-4.3"/>
    <path d="M48.089 26.452c-7.3 10.5-15.2 16.5-15.3 24.7 0 2.7 1.4 7.2 5.9 8 2.9.6 6.9-1.8 7-6.6 0-1 1-.9 1 .4-.1 3.8-1.3 8.2-3.3 11.8h9.6c-2-3.6-3.2-8-3.3-11.8 0-1.3 1-1.3 1-.4.1 4.8 4.1 7.1 7 6.6 4.5-.9 5.9-5.4 5.9-8-.3-8.2-8.2-14.2-15.5-24.7M130.489 222.953c-7.3-10.5-15.2-16.5-15.3-24.7 0-2.7 1.4-7.2 5.9-8 2.9-.6 6.9 1.8 7 6.6 0 1 1 .9 1-.4-.1-3.8-1.3-8.2-3.3-11.8h9.6c-2 3.6-3.2 8-3.3 11.8 0 1.3 1 1.3 1 .4.1-4.8 4.1-7.1 7-6.6 4.5.9 5.9 5.4 5.9 8-.3 8.2-8.1 14.2-15.5 24.7"/>
</svg>
