<svg xmlns="http://www.w3.org/2000/svg" xml:space="preserve" width="178.6" height="249.4" viewBox="0 0 178.6 249.4">
    <path fill="#fbfbf6" stroke="#7f7f7f" stroke-width=".4" d="M3642.6-1088.5h160.8c4.7 0 8.5 3.8 8.5 8.5v231.6c0 4.7-3.8 8.5-8.5 8.5h-160.8c-4.7 0-8.5-3.8-8.5-8.5V-1080c0-4.7 3.8-8.5 8.5-8.5z" transform="translate(-3633.726 1088.87)"/>
    <path d="M164.464 209.168c3.1-.1 4.5-3.7 2.2-6.6-.3-.4-.4-.7.2-.3 1.6 1.1 4.6.4 4.7-2.9.2-4.1-5.3-5.3-6.3-.9-.1.5-.4.4-.3-.2.1-1.8.6-3.4 1.4-5h-3.7c.7 1.6 1.3 3.3 1.4 5 .1.7-.3.7-.3.2-1-4.4-6.5-3.2-6.3.9.2 3.3 3.1 4 4.7 2.9.6-.4.6-.2.2.3-2.4 2.9-1 6.6 2.1 6.6M14.064 40.268c-3.1.1-4.5 3.7-2.2 6.6.3.4.4.7-.2.3-1.6-1.1-4.6-.4-4.7 2.9-.2 4.1 5.3 5.3 6.3.9.1-.5.4-.4.3.2-.1 1.8-.6 3.4-1.4 5h3.7c-.7-1.6-1.3-3.3-1.4-5-.1-.7.3-.7.3-.2 1 4.4 6.5 3.2 6.3-.9-.2-3.3-3.1-4-4.7-2.9-.6.4-.6.2-.2-.3 2.5-2.9 1.1-6.5-2.1-6.6M14.764 34.868h2.6l-3.9-9.7-3 4.1v5.6h2.1v2.9h-7.3v-2.9h2.4v-20.9h-2.4v-2.5h7.5v2.6h-2.1v10.2l6.5-10.3h-2.3v-2.5h7.9v2.5h-2.1l-5.4 8.4 5.2 12.5h2.3v2.9h-8.2zM163.864 214.568h-2.6l3.9 9.7 3-4.1v-5.6h-2.1v-2.9h7.3v2.9h-2.4v20.9h2.4v2.5h-7.5v-2.6h2.1v-10.2l-6.5 10.3h2.3v2.5h-7.9v-2.5h2.1l5.4-8.4-5.2-12.5h-2.3v-2.9h8.2z"/>
    <path fill="#e2cf00" d="m128.593 21.082-65.37.327 8.303 15.87c16.983-1.545 31.881-.17 47.39.34zm-44.648 55.81c-.075.094-2.725.783-2.452 1.396 6.937 14.954 10.019 27.13 12.906 42.493 1.461-1.205 3.82-1.146 3.82-1.146-1.173-5.709 5.964-6.414 6.01-.45 1.37.327 2.779.329 4.017 1.725.56-16.795 6.529-34.183 14.246-46.228-8.795 3.506-21.68 12.26-21.68 12.26s-10.734-4.475-16.867-10.05m53.438 1.792c-11.701 11.2-16.287 42.313-15.45 42.744-15.08-.505-19.653 16.266-6.573 25.313-.516 1.757-1.788 3.174-2.783 4.725 1.348.775 2.822.946 4.296 1.116 1.114 1.336 2.218 2.874 3.43 3.004 1.316-.831 2.255-2.056 3.352-3.115 1.37-.353 2.726-.737 4.015-1.335-1.15-1.614-2.517-3.255-2.548-4.769 11.351-8.087 9.794-19.09-.444-24.718 3.051-18.516 7.511-30.339 12.668-38.746zM56.816 92.989c-1.486.726-2.297 2.273-3.374 3.486-1.485.062-2.914.57-4.31 1.218 0 0 3.39 4.72 3.18 4.972-11 7.26-10.92 17.876-.364 24.874 1.795 15.108-10.932 39.018-11.574 38.336l-.021 4.946c9.06-9.987 14.235-28.022 14.749-42.59 18.092-1.213 18.727-18.844 6.278-25.477-.967-.892 3.114-4.995 3.114-4.995-1.032-1.03-2.78-1.148-4.299-1.27-.957-1.155-1.793-2.312-3.38-3.5M133.3 105.18c2.552 5.743 11.904-1.252 13.513 1.805 1.322 1.734 4.19 1.906 4.023-1.01-.534-2.895-2.431-3.536-9.91-2.267-2.838.476-3.996.763-3.977-.55-1.948-2.387-3.627.863-3.65 2.022m8.686 8.381c-2.098-.002-2.45 8.273-2.43 10.76-6.065 9.678 12.458 8.581 4.448-1.962.278-1.381-1.024-3.626-.983-4.616-.66-.094-.951-3.828-1.035-4.182M33.541 126.037c-.194 2.507 1.63 10.104 2.3 9.843 2.37-3.852 2.089-7.153 1.843-10.919 5.656-10.982-13.655-6.484-4.143 1.076m35.243 1.769c-.848 16.167-4.766 32.013-13.658 45.767 7.66-3.606 15.085-8.242 22.277-12.225l16.8 10.499c.972-.422 1.642-.637 2.287-1.284-7.738-11.43-10.142-27.87-13.51-42.744-1.282.923-3.692 1.375-3.692 1.375-.17 5.166-5.542 6.838-6.63.107zm-40.539 12.606c-1.79.114-3.137 4.593 1.93 5.26 3.579.513 8.167-1.267 10.45-.45 2.645 4.257 5.029-2.005 1.485-3.028-3.79-1.096-11.526 1.77-12.387-.67-.446-.825-.973-1.138-1.478-1.112m30.468 70.007L48.577 228.48l64.787-.392-8.469-17.225c.15-.189-28.292 3.402-46.182-.444"/>
    <path fill="#d40000" d="m72.542 39.003 1.288 2.353c15.17-2.526 27.123-2.914 42.822.143l1.435-2.44c-14.341-2.607-28.943-3.694-45.545-.056M86.85 74.405l13.24 8.641s6.34-4.52 9.041-6.432l-1.642-2.438c-5.58 12.48-15.43 2.624-19.118-3.25 0 0-1.01 2.278-1.521 3.479m35.569 4.189c.918-.02 1.43.34 1.879 1.274.527 1.071.72.804.387-.518-.532-2.09 1.676-3.45 3.756-2.056 1.506 1.004 1.434 3.447-.211 3.899-1.325.367-1.364.708-.201.653 2.08-.105 2.644 2.711 1.155 4.071-1.698 1.581-3.88.467-4.074-1.522-.088-.555-.21-.552-.388-.24-.532.908-.57 2.099-.47 3.179l-3.072-1.915c1.091-.548 1.759-.87 2.553-1.706.105-.11.18-.19.18-.236-.003-.093-.337.023-.964.097-1.864.194-3.298-1.028-2.905-2.783.321-1.505 1.089-2.17 2.375-2.197m-13.581 48.779c3.35-3.872 7.511-6.354 13.292-6.01.74-16.212 6.296-30.608 15.219-43.59l-9.816-5.947-3.933 2.4c-9.048 13.588-15.252 30.733-14.762 53.147M35.32 89.496s-6.636 5.022-9.725 7.451l.148 44.691.864.291c.063.092-.075-.663.316-1.01.316-.286.83-.605 1.134-.72.851-.311.885-.884.094-1.377-.62-.39-.847-.987-.775-1.978.047-.696.013-.85-.272-1.323-.365-.595-.395-1.336-.09-2.116.146-.358.129-.45-.126-.94-.319-.611-.363-1.29-.118-2.006.086-.28.151-.869.157-1.333-.037-1.776 1.425-2.966 4.112-3.33 1.04-.13 1.069-.178.591-1.064-2.721-5.012 3.397-7.628 3.857-6.834zM119.094 92c2.48-.036 4.527 1.961 4.564 4.48.035 2.502-1.944 4.568-4.44 4.605-2.48.036-4.526-1.961-4.563-4.48-.02-2.518 1.959-4.569 4.44-4.605m.047.803c-1.99.026-3.58 1.682-3.554 3.69s1.667 3.613 3.657 3.587 3.58-1.682 3.554-3.69c-.026-2.01-1.666-3.613-3.657-3.587m.085 1.157c1.347-.028 2.457 1.062 2.485 2.421a2.48 2.48 0 0 1-2.415 2.508c-1.347.028-2.457-1.077-2.47-2.437-.012-1.36 1.053-2.48 2.4-2.492m-89.32 1.862c.183-.004.383.023.568.08 1.125.363 1.513 1.36.904 2.3-.475.736-.427.812.408.486.654-.246.992-.175 1.509.355 1.547 1.544-.758 4.157-2.275 2.582-.752-.788-.823-.555-.306.794.162.43.452 1.12.452 1.12l-2.221-.032s.349-.904.509-1.324c.377-1.013.405-1.168-.41-.532-1.808 1.444-3.864-1.033-2.198-2.644.346-.331.882-.343 1.638-.05.556.22.614.065.205-.452-.896-1.14-.054-2.657 1.216-2.683m46.193 4.013c-.904 5.985-.12 14.39-.134 18.888 2.413.46 2.448 2.129 2.811 4.192 1.171-.41 3.75 1.344 4.098 1.182.258-6.095-2.874-23.725-6.775-24.262m40.077 5.996c3.437.284 2.772 2.956 1.752 4.043-.478.567-.396.812.133.492 1.452-.88 2.599-.24 3.058 1.281.804 2.595-2.58 4.845-4.098 2.512-.507-.793-.825-.617-.7.215.077.802.846 2.455.846 2.455l-3.345-.316s1.022-1.722 1.211-2.19c.379-.965.174-1.224-.545-.436-2.104 1.945-5.019-.544-3.662-3.123.663-1.265 1.91-1.678 3.232-.67.9.6 1.095.333.284-.377-1.498-1.36-.175-4.045 1.834-3.886m-86.099 2.119.122-.003c.292.01.584.08.894.26.837.477 1.07 1.415.536 2.23-.297.47-.214.761.132.46.466-.411 1.498-.139 1.909.502 1.044 1.647-.995 3.791-2.278 2.427-.564-.606-.794-.632-.725-.232.184.738.67 2.01.67 2.01l-2.328.049s.51-1.34.618-2.006c.08-.543-.132-.461-.686.168-.538.614-1.027.686-1.726.222-1.692-1.14-.343-4.058 1.438-3.075.604.343.692.14.22-.499-.866-1.156.01-2.457 1.204-2.513m120.992-1.038c-3.778 3.942-2.586 1.615-.84 4.607.01 1.978 1.145 3.531.243 6.64-.293.61-.318.904-.152 1.518-.282 3.453-3.009 3.401-5.678 3.936.444-.025 4.217 7.006-2.816 7.554l.08 28.605 11.041-8.22-.04-44.663zm-82.847 15.11c-3.128 2.043-7.527 7.127-13.063 6.021-.676 17.849-6.472 31.678-14.76 43.55 2.853 1.702 6.004 3.754 8.925 5.068 2.47-1.288 3.868-1.827 6.292-3.84 9.959-15.523 13.118-32.496 12.606-50.799m25.994 3.26c.555 9.169 2.034 17.854 6.756 24.818l.32-19.479c-1.677-.413-3.062-1.512-3.555-4.624zm-34.148 5.41 3.157.073s-.721 1.437-1.026 2.247c-.379.982-.206 1.179.515.5.931-.885 2.43-.978 3.213-.176 2.08 2.105-.101 5.55-2.567 4.041-1.055-.643-1.234-.422-.388.487 1.639 1.527-.077 3.726-1.976 3.735-1.378-.002-2.274-1.112-2.376-2.346-.046-.772.336-1.537.987-1.921.696-.386.2-.654-.556-.236-2.454 1.334-4.086-2.094-2.242-4.033 1.064-1.12 2.2-1.02 3.278.055.75.742 1.025.674.808-.202-.204-1-.827-2.224-.827-2.224m85.218 2.675 2.266-.001c-.218.56-.512 1.139-.685 1.699-.186.606-.047.68.553.096 1.556-1.052 3.216-.005 2.883 1.671-.237 1.149-1.19 1.725-2.303 1.223-.973-.443-.663-.249-.114.42.66.805.495 1.736-.38 2.357-1.54 1.098-3.583-.73-2.559-2.312.609-.94.32-.84-.222-.381-.83.604-2.073-.25-2.097-1.44-.096-1.714 1.614-2.677 2.834-1.466.576.483.713.434.453-.287-.24-.52-.312-1.06-.63-1.58m.117 12.485 2.373-.034s-.026.186-.395.873c-.428.813-.364 1.662.083 1.08.762-.958 2.36-.698 2.889.481.61 1.378-.584 2.887-1.821 2.31-.804-.37-.864-.291-.327.486.52.762.295 1.694-.551 2.237-1.663 1.07-3.667-1.067-2.271-2.441.375-.363.25-.546-.19-.305-1.832 1.012-3.2-1.494-1.607-2.965.676-.632 1.197-.581 2.3.2.343.24.414-.01.157-.622-.42-1.027-.64-1.3-.64-1.3m-88.01 1.494c2.632-.04 4.805 2.094 4.844 4.752s-2.06 4.849-4.709 4.889c-2.633.04-4.805-2.095-4.844-4.752s2.075-4.85 4.708-4.89m.063.864c-2.174.03-3.899 1.828-3.869 4.022s1.811 3.934 3.985 3.904 3.898-1.828 3.869-4.022c-.045-2.193-1.827-3.933-3.985-3.904m.046 1.514c1.332-.013 2.426 1.062 2.454 2.406.012 1.344-1.053 2.463-2.385 2.476s-2.426-1.062-2.453-2.406a2.427 2.427 0 0 1 2.384-2.476m-6.01 11.685 2.755 1.364s-1.31 1.078-1.82 1.63c-.66.71-.622 1.048.275.705 1.702-.653 3.421.315 3.458 2.107.05 2.395-2.76 3.535-4.1 1.724-.393-.533-.873-.755-.695-.326.45 1.073.172 2.423-.613 2.965-.635.446-1.796.578-2.384.266-2.012-1.055-2.122-3.402-.196-4.323.97-.469 1.008-.902.048-.666-1.98.505-3.133-1.928-1.712-3.58 1.51-1.763 4-1.397 4.267 1.209.055.462.37.131.509-.583.173-.513.209-2.492.209-2.492m25.702 3.93s-10.096 5.805-9.8 6.047c.062.03 2.239 3.137 2.239 3.137 5.018-11.464 17.005-1.962 18.931 3.886.42.254.494.19.943.398.037-.419.873-4.485.873-4.485zm-16.546 42.32-1.622 2.336c-.561.244 25.18 4.637 45.487.165l-1.403-2.69c-16.544 4.27-42.716.488-42.462.189"/>
    <path fill="#131f67" d="m23.978 19.46.005 210.522 130.615-.002-.004-210.521zm39.162 1.627 65.57-.254-12.114 20.946c.116-1.1-23.568-4.485-42.918-.358zm-37.311.484 35.667-.002 12.022 21.726s.701 1.36.286 2.776c-.458 1.555-.857 2.243-1.27 3.024.036-.449-3.464-.901-3.173 2.137.196 2.052 2.777 3.219 4.69 1.618.305-.022.295.257.23.768-.176 1.178-1.417 4.898-2.27 5.147-4.314-3.573-5.85 2.95-2.944 4.25 1.684.753 4.275.127 5.489-1.907.933-1.565.816-1.3 1.115.595.106.708.26 1.524.345 1.893.253 1.154-.003 1.376-1.922 1.895-1.55.604-3.104.945-4.705 1.288-2.916.478-4.402 2.703-4.469 5.394-.019.588.002.85-.117 1.022-12.308 4.723-25.251 11.314-38.972 22.588zm81.855 51.689c-.46-.763-1.95-4.766-2.367-6.426-1.07-8.092-1.265-17.685-2.415-25.203l1.505.17s.565 2.183 1.175 8.058c.305 2.915.613 8.982.87 11.774.375 4.15 2.24 10.771 3.378 12.448 1.878 2.727 5.64.964 4.38-2.27-.648-1.687-3.184-1.403-2.827.336.006.31.24-.221.617-.553 1.093-.425 2.327.724 1.681 2.113-.79 1.763-3.15.962-3.946-1.263-.927-2.654 2.217-4.651 4.578-3.031 2.625 1.8 2.627 6.39.513 7.84-3.557 1.295-5.97-1.328-7.142-3.993m8.799 3.371c-.14-.09.007-.371.178-1.024.654-2.47.247-4.394-1.337-6.215-.879-1.018-1.22-1.196-.748-1.376.972-.39 3.148 1.202 3.747 2.75.582 1.534.737 3.122-.1 4.855-.574.368-1.463 1.112-1.74 1.01m2.692-1.648c-.006-.293.19-1.21.242-1.643.164-1.719-.623-3.48-2.044-4.841-1.188-1.15-1.297-1.271-.18-1.295 2.894-.044 4.751 4.677 3.405 7.008-.344.362-1.4 1.126-1.423.771m2.448-1.596c.852-4.036-3.001-6.722-3.09-6.597.195-.9 1.722-.391 2.25-.031 1.956 1.319 3.069 4.773 1.868 6.745a1.3 1.3 0 0 1-.495.505c-.408.256-.633.462-.729.278-.048-.123.17-.714.196-.9M87.649 60.309c.405-.395.527-.413 1.299-.12 2.423.924 4.363-.832 3.804-2.69-.213-.676-1.116-1.4-1.684-1.45-.92-.088-.926.391.047.757 1.219.454 1.337 1.75.262 2.344-1.254.86-3.304-1.307-4.817-1.136-.715.216-1.176.89-.776 1.731.35.596 1.428.944 1.865.564m-2.686-.268c-.85-.4-1.156-.393-1.007-1.308.11-.605.976-4.719 1.372-6.304 1.235-4.754.079-7.388-3.404-8.46-2.358-.723-4.387-.356-6.796.93l-.426-1.35c10.069-2.652 27.248-2.068 27.188-1.974.335 1.369.47 2.741.605 4.099 0 0-3.218-1.602-4.898-2.124-2.59-.796-6.676.078-7.395 1.576-.412.843-.201 1.41 1.541.478 2.847-1.543 8.66-.366 10.7 1.276.467.377.454.454.463.902.014.68.06.71-.884.22-4.891-2.526-9.05-2.223-10.499 1.084-.323-.102-1.599-.322-1.599-.322l1.358 2.027.258 2.127s2.216 1.237 3.452 1.767c1.205.516.504-.026-.972-1.077-1.088-.765-.22-1.015.49-.72 1.478.34 3.63.774 6.125-.824.77-.495 2.54-.068 2.576.163 0 0 .237 1.865.47 5.74.114 1.836.331 4.227.459 5.213.382 2.975.493 3.143-1.052 1.722-.516-.484-1.39-1.27-1.388-1.223-.196.916 2.088 2.538 2.62 3.098.814.849 1.455 2.999 1.136 3.13-.197.08-2.379-1.775-4.083-3.455-.64-.62-1.592-1.466-1.622-1.434-.347.239 1.08 1.878 2.422 3.087 1.56 1.42 1.747 1.555 1.215 1.767-.972.391-1.855-.1-4.208-2.076-.233-.196-1.12-.826-1.164-.78-.209.283 1.963 2.37 2.456 2.546.926.336 1.19 1.227.461 1.582-.485.242-2.282-.756-3.732-2.024-.265-.226-.977-.613-1.022-.566-.287.192 1.334 1.595 2.87 2.537 1.504.911 1.753 1.138 1.371 1.903-.367.78-3.681-1.036-5.328-2.903-.345-.394-.624-.574-.56-.436.716 2.025 3.104 3.474 4.861 4.04.308.102.77.232.973.397.498.407.384.827-.147 1.054-1.888.534-4.86-1.768-6.977-4.182-.247-.103-.103.219-.04.326 1.774 2.853 5.173 5.023 7.216 4.625 1.19-.241 2.162.125 2.17.527.007.324-.656.863-1.94.952-2.905.215-7.458-2.998-10.115-7.1-.08-.121-.188-.181-.186-.104-.074.867 1.578 2.996 2.843 4.206 3.764 3.616 7.327 4.84 10.103 2.804 1.568-1.223 3.075-3.897.744-4.807-1.235-.469-2.011 1.248-.965.747 1.39-.168 1.712.582 1.527 1.266-.358 1.197-1.534 1.392-2.493.886-1.673-.907-1.308-4.037.84-4.576 1.95-.473 3.639 1.191 3.87 2.763.341 2.45-2.392 5.103-4.599 5.768-7.488 2.257-13.355-8.268-13.39-8.5-.383-.733-.834-1.11-1.108-.27-.312 1.227-1.999 4.848-2.903 4.82.28-1.273 1.461-3.415 1.178-5.294-.504 1.54-1.555 4.839-3.571 6.58-.527.475-2.062 1.048-1-.195 1.28-1.804 2.945-4.28 2.606-6.607-.341.517-.529 1.85-.909 2.724-.966 2.183-3.087 4.778-4.488 5.193-1.035.315-.935-.042.114-1.161 1.14-1.199 3.135-4.733 3.012-6.26-.06-.68-2.087 5.823-5.879 7.602-1.033.377-1.61-.09-1.61-.09 1.499-.866 5.626-4.985 5.24-9.645l-.547 1.727c-1.394 4.45-4.412 7.387-6.75 7.62-1.865.194-3.182-.566-2.715-.9 2.42.01 4.425-.835 5.984-3.216 1.589-2.429 2.168-6.32 1.21-10.457-.872-3.722-1.048-7.072-1.351-10.651 2.653.918 5.33 1.527 7.928.5-.254 1.07-.696 1.204-1.368 2.006-.494.582-.322.733 1.61-.652.558-.398.766-.727.86-.62.172.166-.097 1.269-.65 3.46-.836 3.278-.616 3.505 2.487 4.738.587.235.79.463.994.706.095.122.604 1.038.65 1.084.11.075.088-.945.022-1.206-.167-.692-.53-1.21-.856-1.404-.608-.528-1.497-.572-2.054-.838m58.776 42.666.038-3.401 3.264 2.343-.038 1.113zm-5.59.75-.12-62.82s2.507-1.675 3.76-2.52c.787 2.487.774 7.834.485 10.205-.488 1.555-.715 8.437-.153 11.95.44 2.803.366 7.425-.064 9.629-.166.869-.037 4.915.27 8.664.242 2.87.173 5.467-.18 6.958-.266 1.18-.18 5.382.128 6.999.447 2.37.527 10.003.32 10.425-.507.628-4.717.716-4.445.51m4.98-65.755s2.53 1.678 3.743 2.534l.01 2.704-3.65-2.412zm-37.721 4.372 1.564.09c.618 3.28.893 6.999 1.138 10.718.071 5.748.777 11.806 2.114 15.781l-1.154 1.214c-1.961-4.549-2.108-11.732-2.545-16.607-.188-5.436-1.086-11.15-1.117-11.196m38.013-.576 3.402 2.324.03 2.952-3.432-2.293zm-35.758.792 1.366.156c.417 3.886 1.053 6.516 1.309 10.807.312 5.541 1.263 10.08 1.856 14.396l-1.034.346c-.682.323-1.828-4.784-2.331-15.143-.156-3.134-.688-6.662-1.166-10.562m2.07.157 1.645.29c.722 9.83 1.876 19.063 3.072 24.355l-1.423.091c-1.778-7.551-1.896-16.311-3.293-24.736m2.366.337 1.506.263c1.808 22.48 2.935 22.193 3.275 23.082l-1.625.668c-1.755-6.455-2.11-15.565-3.156-24.013m6.838 22.097c-.26.763-.874.683-1.53.758-.748-2.07-1.18-4.534-1.49-6.939-.69-5.302-.93-10.258-1.65-15.497l1.796.179c-.06.047 1.265 18.441 2.874 21.499m-38.66-19.764c2.377.12 4.329 1.192 4.53 2.764.037.355-.242.175-.553-.065-2.039-1.58-4.361-2.073-7.158-1.057-.608.23-1.107.564-1.383.524-.249-.165-.318-.535-.14-.863.65-1.095 3.524-1.372 4.705-1.303m-5.494 3.143c.05 2.472-.55 3.844-1.84 4.412-1.547.697-3.538-.792-2.576-2.45.725-1.251 1.988-.876 2.23.448l1.976-4.43s.213 1.402.21 2.02m72.107-.39-.024 2.55-3.634-2.458.24-2.447zm-64.618-.338c1.791.72 2.452 1.587 2.522 1.988-.101.295-.29.098-1.59-.616-2.017-1.256-4.655-1.449-6.965.13-.58.12-.633-.22-.064-.85 1.763-1.396 4.198-1.4 6.097-.652m13.62-.469c1.577-.048 3.469.36 5.063 1.162.711.356 1.344.574 1.796.982.372.193.404 1.043.13 1.095-.245.036-.631-.157-1.222-.562-3.787-2.486-6.507-2.182-8.712-.653-.12.08-.502.165-.64.153-.414-.038-.433-.208-.269-.428 1.018-1.149 2.538-1.706 3.854-1.749m47.343 1.78 3.651 2.582-.01 2.534-3.884-2.731zm-65.892 1.033.536.02c1.242 3.034 2.802 1.471 3.451.252l.646.11c-1.02 4.055-5.152 1.931-4.633-.382m-.91.405c.598.08.582.76.776 1.267.42 1.12-1.176.179-1.457-.093-.47-.5.191-1.133.68-1.174m18.068-.129c1.565 2.425 2.485.984 3.383-.07l.431.13c-.117 1.733-3.005 3.586-4.38-.033zm4.845.285c.168-.003.508.129.817.246.864.353.808.601-.132 1.038-1.518.681-2.052.77-1.597-.198.251-.438.423-1.03.912-1.086m-5.98.357c.388.285.64.605.68 1.114.038.354-1.164-.053-1.16-.625.038-.372.23-.67.48-.49m-10.55.142c.788.293.688.666.144 1.017-.984.546-1.4.447-.759-.417.283-.407.34-.594.616-.6m60.181 1.28 3.948 2.808-.04 2.582-3.945-2.715c-.176-1.124-.007-1.854.037-2.674m-68.327 3.99c.184.012.258.628.307 1.54.077 1.512-1.457 3.63-3.004 4.358-1.866.874-3.866-.352-3.536-2.182.302-1.676 2.674-1.756 2.767-.197-.236.406.093.755.23.721.609-.167 2.037-1.464 2.635-2.93.234-.56.36-1.15.525-1.293.015-.016.045-.032.076-.017m68.215-.479 3.95 2.916.022 2.565-3.915-2.716c-.162-1.155-.086-1.976-.057-2.765m-47.942 4.044c-.296.5-.048 1.407.564.637 1.57-1.84 3.853.46 2.628 1.94-1.106 1.336-2.463.9-5.349-.199-2.1-.806-2.43-.536-2.94.046-.418.488-.215 1.442.336 1.43 1.693.398 3.17.769 4.924 1.134 3.722.773 5.981-4.065 2.591-5.834-.805-.416-2.478.145-2.754.846m-16.39.558c-1.444 1.313-.256 4.75 1.864 5.061.446.068 1.119.038 1.865-.178 1.492-.433 3.143-1.333 3.209-1.844.304-2.356-3.175-.243-3.63.03-1.103.671-2.254.587-2.837-.22-1.323-1.796 1.039-3.87 2.478-1.659.363.549.237-.391-.16-1.032-.553-.87-2.007-.824-2.79-.158m64.595-.744 3.714 2.643-.026 2.458-3.606-2.614zm.273 3.611 3.513 2.554.068 2.564-3.695-2.457c.073-.914.101-1.78.114-2.661m-19.71 1.477c3.095.044 4.843 4.66 3.213 6.579-.478.566-.873.729-1.092.517-.047-.045.034-.557.068-1.145.1-1.857-.293-3.131-1.64-4.54-1.017-1.077-1.406-1.393-.549-1.41m-38.071.732c-.578.213-1.197.643-1.674.53-.477-.099-.702.137-.878.512-.706 1.437-.482 1.896.91 1.078.666-.384.899-.25 2.682.099 1.276.236 2.134.218 3.26-.068 1.387-.369 2.229-.386 2.926 0 .712.388 1.183.919 1.204.486-.071-.509-.527-1.813-.627-2.243-.05-.216-.399-.023-.72 0-1.147.085-2.532-.968-3.424-.409-.71.448-.815.558-1.792-.024-.73-.464-1.244-.19-1.867.039m37.235.321c2.088 1.765 2.626 3.33 2.422 4.617-.103.93-.174 1.966-1.081 2.526-.167.08-.411.132-.655.168.711-2.657-.134-5.035-3.08-7.57.88-.436 1.755-.284 2.394.259m-47.214-.005c.092-.002.2.011.292.056.37.116.42 1.073.136 1.388-.285.3-.52.057-.842-.71-.253-.427 0-.74.414-.734m-1.945.751c.766-.016 1.056.69 1.19 1.258.117.477-.022 1.917-.43 1.416-.099-.307-.517-1.288-.844-1.544-.747-.571-.666-1.114.084-1.13m-2.145.71c.108-.003.261.01.43.037 1.199.207 2.11 2.12 1.827 3.207-.635 1.173-.865.39-1.07-.673-.163-.445-.652-1.13-.95-1.48-.628-.759-.726-1.081-.237-1.091m71.752-.568 3.637 2.628.011 2.813-3.804-2.58c.072-.974.129-1.918.156-2.861M69.21 67.756c1.775-.037 3.304 2.095 2.733 4.1-.692 2.101-4.163 1.648-3.577-.435.171-.606.805-1.037 1.41-.663.884.538.774-.34.217-.654-.868-.491-2.041-.189-2.312.79-.925 3.42 3.448 4.596 5.81 1.054.862-1.3 1.814-2.68 2.338-3.263.464-.535.572-.476.494.206-.302 3.19-2.503 7.161-6.627 6.938-4.005-.38-5.256-4.682-2.233-7.356.573-.43 1.134-.704 1.747-.717m21.229.176c-1.471.71-2.798.986-4.235.351-1.067-.472-1.056.037-.588.46 1.34 1.147 3.78.633 4.824-.023.332-.208.458-.813-.001-.788m56.537 5.096.007 2.566-4.054-2.744c-.058-.617 0-1.546.133-2.507zm-3.918.855 3.865 2.562.098 2.532-3.754-2.348zm.271 3.549 3.698 2.58.057 2.766-3.664-2.427zm-89.988 2.91-2.263 6.894 1.472.093 1.002 1.818 1.019-1.86 1.559-.125zm90.143.919 3.558 2.46.052 2.565-3.697-2.581zm-.15 3.125 3.653 2.66.071 2.718-4.13-2.773zM61.771 85.93l-2.238 7.372 1.268-.165 1.173 1.969 1.19-1.771 1.134.069zm-16.834.552-2.132 7.323 1.424.002 1.202 1.845 1.05-1.784 1.623-.05zm97.931 1.344 4.274 3.032.028 2.89-4.146-2.804zm4.23 6.85.051 2.518-3.606-2.583-.394-2.804zm-76.38.433-2.619 7.442 1.746.01 1.063 1.786.851-1.795 1.41.017zm73.065.75 3.34 2.31-.023 2.596-3.293-2.234zM80.478 126l-1.906-1.845c-.018-.155 1.558-.93 2.533-.44 1.285.654 1.945 2.989.5 4.209-1.144.982-2.891.168-2.924.045zm-1.701-3.055c.034-2.845-1.452-3.586-2.689-4.163 0 0-.201-18.078-.181-18.604.001.078-.316-1.956-.349-2.079 0 0-.293-.086-.292-.07.052 1.837.176 20.612.148 20.736-2.307.264-2.948 1.839-3.15 3.96-1.795-.133-2.967.958-2.994 1.144-.661-.913-.169-2.268-.694-3.23-1.585 5.611 1.501 8.978 4.205 8.659.432 5.4 6.318 6.375 6.122-.174 7.113-.442 4.695-7.052-.126-6.18M45.326 100.26l-2.577 7.302 1.803-.207.656 1.346c2.902-2.58 4.362 1.393 2.884-2.007zm98.001 12.98c.337-.023.772.277.857.693.055 1.235-1.573.96-1.635.173-.027-.54.473-.83.778-.866m1.083 8.013c.708-.586 1.832-.254 1.85.626.017.788-.867 1.038-1.565.605-.542-.329-.586-.946-.285-1.23m.09 2.178c3.881.305 6.767-2.367 5.533-4.273 1.045-1.32.188-2.075.478-2.838.825-.852.13-2.676-.07-2.688-.173-2.453-.869-2.779-1.937-4.086-.314-.38.735-.757 1.136-1.399-1.234.335-1.906-.3-2.581-1.136-7.176.335-13.628.84-13.381 10.664-1.033 4.164.713 7.883 5.728 6.743 1.097-.997.379-2.42.242-3.112-.421-1.892.074-3.123.209-4.022.434-2.745 2.419-5.29 2.644-.998.357-.548.187-.622.764-.85 1.383-.508 1.381.898 1.087 1.476-.178.297-.454.272-.73.231-.4-.053-.923-.197-.927-.351-.113.45.731 1.283.648 1.702-.114.404-.177.359.186.104 1.72-1.241 2.803 1.534.315 1.214 1.209.686-.604 2.625.656 3.619m-2.558-15c1.362-.075 1.683-.081 1.622.646.256 1.324.59 1.95 2.303 1.807 1.726-.221 2.275-.341.535.715-.88.39-1.17.473-2.213.37-1.058-.1-.968-.195-1.574.157-.332.208-.71.448-.97.5-.396.07-1.113.224-1.113.224-.402 2.064-1.024 3.112-1.877 4.088-1.197 1.37-1.804 1.614-.336 1.521.537.036.255-.237.5 1.984.077.786.233 1.68.347 1.986.388 1.012.43 1.521-1.024 1.598-3.624.276-4.478-3.291-3.994-5.11.04-.294.204-1.24.25-1.983.022-.418-.061-.756-.055-1.174.084-3.401.877-4.299 3.864-6.51.92-.667 2.541-.81 3.735-.819m3.19.181c1.668-.035 3.293.781 2.492 1.308-.53.336-2.4.205-2.929-.17-.668-.497-.42-1.12.436-1.138m-74.736 2.887-.665 1.188c.313 2.59.356 3.949-.569 6.657l1.37 1.81 1.08-1.876 1.7.026zm78.367-.552c1.092.225 1.127 1.213.849 1.837-.6 1.357-4.66 2.014-4.66 2.014-.028-.587.053-1.145-.374-1.8 0 0 2.711-.722 3.282-1.244.376-.348.612-.785.903-.807m.798 3.09c.398.007.603.296.707.882.052.308-.064.588-.318.918-1.033 1.134-3.927 1.921-4.974 1.634-.079-.091.111-1.285.177-1.812 1.41.017 3.742-1.222 4.408-1.622m-41.298 6.95c-1.389-2.011-4.461-1.715-4.121-1.568.026-1.731-.268-4.105-2.861-4.345-2.623-.193-3.96 3.282-2.965 4.76-1.622-.677-4.038 1.027-4.035 1.181-.199.005-2.058 4.942 3.552 5.196.508 2.339 1.388 3.464 3.169 4.416l.053 19.039.63.868.051-19.953c2.861-.122 3.222-3.436 3.008-4.205 1.272.051 2.43-.205 3.41-.952l.343 3.254s.666-1.142.53-1.757c-1.255-18.69 5.452-38.92 14.25-52.023.464-.551.619-1.203.848-1.208 2.151-1.173 3.498-1.958 3.498-1.958 3.542 1.718 9.844 5.853 9.844 5.853l.101 26.641c-.097-.26 11.765-1.342 11.588-1.014 0 0-1.035-.411-1.049-1.107l-.31-62.336-5.186-3.416s-4.26 2.809-5.466 3.777l.138 36.701-9.192-5.434s.142-1.3.164-1.719c-.149-5.004-2.587-6.684-7.228-5.196-.624.198-1.049.377-1.36.12-1.956-5.754-2.832-20.896-2.832-20.896l13.08-22.373 22.203-.123.387 85.502.81 44.817-11.378 8.289-.159-28.712s-1.624-.785-2.054-.838c-.153-.012-.36.348-.08.527.418.27 1.437.65 1.437.65l.245 28.447s-4.41 2.997-6.376 4.244c-3.68 2.04-7.3 3.97-11.109 5.671-3.75 1.624-12.01 5.088-12.01 5.088-.722-2.396-7.804-7.967-15.764-4.03-.73.278-1.628.513-2.247.943-3.036.558-4.041 3.84-4.497 7.018-.012.124.247.103.247.103.032.046.719-3.06.998-3.637.587-1.249 1.322-2.006 1.718-2.122.183-.035.326.24.09.693-.472.875-.862 2.738-.983 3.59-.106.776-.124 1.394.014 1.422.031.03.702-2.348 1.007-3.19.798-2.18 1.3-3.086 2.071-3.55.787-.48.972-.407.814.09-1.178 2.313-1.648 4.053-1.888 6.516-.036.495.209.505.407-.303.636-2.578 1.53-6.074 3.606-7.106.896-.406 1.279-.383 1.193-.103-2.478 3.158-3.095 6.664-3.072 7.807.008.37.16.306.48-.52.84-3.108 2.087-5.762 3.561-7.06.572-.506 1.258-.644 1.839-.718 1.756-.222 1.816.441.287 1.339-1.74 1.025-3.747 4.73-3.965 7.516-.073.96.266 1.06.5-.211 1.036-5.54 5.739-9.207 9.51-7.509 1.7.769 1.998 1.829.533 1.35-2.99-.958-6.316 1.182-7.679 4.162-1.231 2.7-1.217 4.12-.347 7.735.59 3.34 1.748 7.598 1.371 10.866-.416.643-1.705-.258-3.24-.458-.923-.181-2.057-.22-3.014.156-.836.327-1.324.414-1.472-.047-.049-.153.657-.863.955-1.271.492-.629.214-.731-.492-.052-.345.332-1.079 1.135-1.277 1.17-.443.087-.468-.407-.096-1.698 1.26-4.987.922-5.072-1.227-6.079-2.13-.82-1.465-1.236-2.4-2.051-.664.523.87 2.933 2.612 3.453 1.418.434 1.249 1.164.63 3.14-.632 2.764-1.705 6.418-1.088 8.878 1.315 5.15 6.489 5.042 10.459 2.966l.486 1.319c-3.356 1.368-21.051 2.54-27.007 1.845-.462-1.628-.502-2.045-.694-3.957 0 0 3.68 1.685 5.523 1.971 2.29.37 5.827.389 6.733-1.747.278-.624-.008-1.16-.797-.787-1.456.664-3.942 1.164-5.951 1.035-1.687-.104-4.09-.795-5.13-1.423-.495-.298-.906-.893-.522-1.627.335-.084.787.308 1.065.441 3.049 1.544 4.709 1.85 6.703 1.252 1.507-.449 3.54-2.099 3.041-2.552-.501.18-2.203 1.607-3.36 1.925-2.391.637-4.954-.345-7.437-1.963-.764-.68-.422-1.165.523-.629 3.73 1.9 5.287 3.151 8.846.496.8-.604 1.246-.52 1.712-.16 1.857 1.677 1.853.735.485-.999-.314-.395-.586-.946-.766-1.544-.132-.43-.171-.878-.407-1.167-.423-.485-1.179-.717-2.044-1.116-1.252-.561-1.66-.29-.747.17 1.609.801 2.407 1.65.391 1.182-1.824-.828-4.862-.362-6.583.848-1.35.662-1.947 1.37-2.269-.123-.661-3.139-.013-7.402-.907-12.885-.174-1.048-.387-1.708-.16-1.851.272-.176.975.49 1.827 1.708.394.548 1.166 1.63 1.162 1.397.022-1.16-1.753-3.332-3.241-4.198-.806-.477-1.356-2.645-.427-2.17.711.356 4.44 3.663 5.152 4.838.333.55.602.204.252-.438-.207-.382-1.088-1.522-1.932-2.355-1.516-1.483-1.683-1.417-1.398-1.717.57-.6 1.795.179 3.995 2.173.566.715 1.3 1.364 1.216 1.01.218-.56-1.975-2.926-3.259-3.564-.248-.15-.282-.318-.257-.612.13-1.116 2.645.532 4.72 2.451.781.726.14-.636-.766-1.56-.72-.727-1.856-1.63-2.643-1.939-.773-.324-.817-1.003-.21-1.294 2.096-.09 4.253 2.075 5.544 3.764.361.471.675.82.305-.053-1.188-2.649-3.669-4.158-5.39-4.447-1.399-.249-1.363-1.517-.059-1.374 1.443.156 3.798 1.467 5.8 3.511.578.59 1.555 1.93 1.355 1.146-.004-.216-.618-1.053-1.324-1.857-1.641-1.635-3.54-3.095-5.555-3.532-.94-.274-3.746.28-3.756-.215-.007-.356.294-.578 1.192-.875 3.468-1.17 8.537 1.831 11.296 6.456.206.336.576.467.59.39-1.333-3.774-5.492-7.196-8.796-7.776-2.244-.37-4.514.218-5.6 1.74-1.22 1.725-.745 4.018 1.089 3.84.963-.081.875-.636.86-.651-.063-.06-.624.198-.963.128-1.245-.252-1.123-2.526.704-2.302 2.103.265 2.386 3.598.057 4.295-2.162.648-2.963-.355-3.554-1.533-.862-1.728.06-4.53 1.586-5.597 4.272-2.994 9.684-.48 12.746 2.486a13.5 13.5 0 0 1 3.305 5.108c.178.445.56.39.382-.054-4.3-11.084-17.16-12.377-19.036-3.776-3.118-4.927-5.836-5.272-10.003-3.114-4.252 1.773-6.35 3.223-10.28 5.082l-8.92-4.837c-.519-8.937-.228-17.907-.197-26.856.027-.201-1.926.149-5.193.665-8.663 1.741-7.916-2.941-9.054-3.18-.6-.127-.564.135-.733-16.367-.052-4.79-.149-13.226-.215-18.726-.067-5.5-.084-10.09-.04-10.184s.54-.521 1.1-.92c2.112-1.511 3.303-2.417 7.916-5.99 1.04-.81 1.314-.94 1.314-.94.524 9.911.048 20.322.314 28.847l.399.007-.157-28.618c-.801-.215 18.22-11.445 28.65-15.093.198-.066.677.155.677.155 5.986 7.402 21.73 5.158 23-3.848 2.609 5.494 14.068 16.166 19.302 3.307 0 0 1.899 3.7 3.527 3.944 3.655.496 4.071-.1 12.123-4.039-9.222 14.086-14.292 29.013-14.948 47.093m-4.896-3.515c.197.63.274 1.432.103 2.07-.234.499-.587.49-.587.49l-1.777-1.539-1.743 1.628s-1.064-1.09-.482-2.586c1.106-2.11 3.655-1.73 4.486-.063m46.09-.25c1.148-.07.547 1.257-1.134 2.157-1.06.563-1.946.72-2.318.512-.212-.63-.04-1.19.093-1.44.713-.37 2.69-1.029 3.36-1.228m-73.717 2.51c1.27-.026 2.361.879 2.41 2.5.013.665-.326 1.305-.326 1.305l-2.115-1.578-1.618 1.734c-.274.098-1.264-1.149-.588-2.507.501-.984 1.365-1.435 2.237-1.453m30.629.738c1.777.813 2.09 3.325.363 4.304-.817.465-2.114.724-2.73-.221l1.752-1.922-2.01-1.705c-.079-.09 1.527-.959 2.625-.456m42.774-.66c.306-.006.385.116.468.408.246.814-.38 1.646-1.477 1.916-1.021.238-.911.359-1.405-.558-.382-.718-.473-.686.12-.914.699-.231 1.474-.51 2.294-.852m-50.68 1.226s-1.26 1.294-1.816 1.846l1.91 2c.097.246-2.195 1.283-3.39-.284-.787-1.02-.337-2.976.767-3.633 1.104-.687 2.74-.118 2.529.071m2.721-.226c1.117-.024 2.04.884 2.063 2.028a2.036 2.036 0 0 1-2.01 2.081 2.035 2.035 0 0 1-2.063-2.027 2.066 2.066 0 0 1 2.01-2.082m-27.801 3.454-1.829 1.939 1.974 2.169s-1.557.264-2.11.152c-2.69-.5-2.419-3.69-.353-4.521.881-.328 1.527-.217 2.318.26m-35.807.653s.36 4.088.694 5.472c-.212 1.596-1.232 2.668-1.688 4.316-.246.732-1.16 1.709-1.35.677-.669-1.268-.027-2.827-.581-3.728-.416-.856-.196-1.325-.382-2.202-.52-.73-.757-1.05-.678-1.7-.105-2.889-.828-2.317-2.095-2.09-4.922.427-4.925 3.302-4.62 6.927-.697 3.4.588 2.6.54 3.219-.072.975.093 2.332.372 2.48 1.757 2.035 1.847 3.44 4.122 3.098 3.865.306 10.01-.27 11.337-5.027.857-6.725 1.11-13.098-5.671-11.442m38.44-.646a1.953 1.953 0 0 1 1.986 1.952 1.977 1.977 0 0 1-1.934 2.018 1.953 1.953 0 0 1-1.985-1.952 1.957 1.957 0 0 1 1.934-2.018m-36.748 1.028c.735-.015 1.596.152 2.3.833 1.515 1.468 1.588 2.795.907 8.45-.197 1.596-.752 2.921-1.475 3.508-1.477 1.16-3.282 2-4.775 2.372-.792.202-1.466.2-2.002.196-.582-.003-.91-.275-.95-.753.126-1.316-1.209-1.443-1.973-1.365-1.377.06-1.512.201-.653-.466.98-.762 3.231-.778 3.67-.323.885-.884 1.801-.996 2.917-1.128-.174-.243-.562-1.24-.299-1.863.576-1.032 1.565-2.846 2.593-3.532 1.014-1.334.153-.73-.475-.716-.352.007-.323-.102-.39-.348-.25-1.045-.612-3-.62-4.16-.028-.586.49-.69 1.225-.705m-6.479 1.449c.39.363.386.857-.02 1.221-.482.427-1.421.184-1.452-.603.075-.805.99-1.025 1.472-.618m68.529 2.837c-1.653.08-3.006-1.7-2.384-3.474.342-.486.482-.412.482-.412l1.872 1.692 1.799-1.907c1.492 1.808.219 3.967-1.77 4.101m-70.533-2.764c-.128.512.036 1.034.057 1.281-.332.239-1.718.639-2.46 1.01-.518.18-.895-.306-.828-.756.197-.839 1.411-1.39 2.294-1.64.29-.052.734-.077.937.105m.31 2.404c.504-.057.358 1.043.17 1.604-.19.405-.743.386-1.232.412-.872.049-1.984 1.077-2.463.901-.154-.074-.27-.489-.29-.767.092-1.454 2.516-2 3.814-2.15m2.65 1.521c-.164.25-.713.37-1.16.24-.739-.2-.853-1.264-.202-1.633 1.141-.38 1.822.704 1.361 1.393m72.815-2.43-.995 1.536-1.517-.03 2.453 7.599 1.134-2.976c.156-1.363.327-2.727.467-4.105zm-32.316.643 1.947 1.598 1.665-1.72c1.236 2.788-.192 4.07-1.709 4.039-1.685-.042-3.464-1.643-1.903-3.917m-42.667 2.883c.61-.12.353 1.57.262 1.602-.395.147-2.09.368-2.798.97-1.522 1.206-2.165.463-1.46-.974.673-.818 3.123-1.58 3.996-1.598m1.931.084c.673-.06 1.147.687.733 1.406-.556.522-1.544.14-1.544-.601.006-.464.398-.781.811-.805m-.985 4.255c.1.384-.04.263-.756.479-.396.116-1.003.376-1.655.714-.94.484-1.21.737-1.532.682-.262-.057-.57-.174-.653-.45-.328-1.09.553-2.191 2.59-2.944.425-.164 1.188-.288 1.448-.309.674.002-.07 1.068.558 1.828m1.192-1.632c.98-.02 1.175 1.304.43 1.536-1.722.453-1.579-1.528-.43-1.536m-1.202 4.877c.281.273.32.705.004.943-.576.29-2.756.042-2.769-.576-.008-.402.725-.54 1.398-.555.673-.03 1.133-.039 1.367.188m98.745.678-1.803 2.433 2.422 6.116 2.207-7.403-1.732.701zM29.286 146.37c.415 18.815.349 61.95.349 61.95l5.312 3.644 5.583-4.057c-.063-13.568-.117-22.932-.16-35.511l8.194 4.543s.253.365.21 2.066c-.562 4.695 3.927 7.738 6.905 5.884 1.154-.488 1.245-.567 1.482-.201.664 1.006 1.426 5.333 1.559 8.08.192 4.154 1.269 12.616 1.53 12.673l-13.319 22.67-21.087.008v-84.537c1.068 1.276 1.637 2.13 3.442 2.788m77.315-1.812-.994 1.535-1.21-.006 2.121 7.884 2.568-7.703-1.412-.172zm-66.71 62.821s-2.595 1.878-3.427 2.42c-.44.165-.639.2-.755-.23-.133-.523.077-1.501.258-3.112.169-1.487.167-1.58-.076-3.708-.26-2.22-.292-2.312-.077-5.253.24-3.266.282-6.45.027-8.423-.237-1.865-.248-6.146-.051-8.514.23-2.91.148-5.474-.233-7.6-.674-3.771-.792-5.067-.085-7.91.27-1.057.396-1.631.344-3.407-.056-1.977-.1-2.625-.802-7-.404-2.526-.441-2.865-.064-6.86.076-.805.095-1.347.412-1.6.361-.302 4.047-.518 4.047-.518zm-9.73-60.935 4.026-.037a14.4 14.4 0 0 0-.41 3.161l-3.57-2.367zm.063 1.622 3.54 2.337c.004.989-.068 1.918.074 2.904l-3.586-2.398zm0 3.709 3.79 2.61c.143 1.017.455 2.046.58 2.97l-4.301-2.939zm122.596 1.03.193 75.306-37.734-.002-11.96-23.195s.124-2.135.424-3.223c.355-1.321.457-1.602.961-1.659 1.347.699 2.844-.229 3.297-1.258.557-1.264-.57-3.188-2.324-3.6-.77-.184-1.62.174-2.48.825-.497.412-.603.461-.702.108-.216-.815.504-3.04 1.782-4.952.714-1.066.907-1.364 1.144-.967.937 1.634 2.952 1.299 3.714.371.927-1.116.737-3.662-1.36-4.345-4.085-1.321-5.96 2.829-5.915 2.812l-.867-4.974c4.921-1.215 7.76-1.645 9.323-3.161 1.231-1.185 1.817-3.237 1.673-5.058 0 0 13.683-5.601 20.074-9.088 10.996-5.978 20.757-13.94 20.757-13.94m-20.832.543-1.004 1.798-1.44-.001 2.897 7.59 2.212-7.913-1.392.122zm-101.58 2.178 4.35 3.016c.096.987.22 1.85.09 2.965l-4.565-3.057zm84.745-.931-1.089 1.444-1.243-.128 2.436 7.506c.737-2.163 1.411-5.114 2.148-7.293l-1.163.055zm-84.82 4.797 4.503 2.997c.019.926.067 1.806-.256 2.462l-4.237-2.74zm93.243.436-1.09 2.125-1.46-.202 2.598 7.194 2.84-7.137-1.759.099zm-93.232 3.056 3.887 2.886c.062.045-.218 1.318-.157 2.044l-3.707-2.303zm.103 3.583 3.636 2.52c.004.959.068 1.854.223 2.67l-3.943-2.592zm-.063 3.633 4.197 3.02.218 2.421-4.453-2.828zm34.585 1.01c4.028 1.524 7.816 9.25 7.7 19.266-.088 6.957 1.998 16.881 1.966 16.774 0 0-1.176.163-1.503-.108-1.514-5.1-2.022-10.498-2.267-14.959-.198-3.705-.41-7.348-.642-8.208-.659-3-1.373-6.478-3.273-8.757-1.475-1.715-3.166-2.02-4.167-.083-.826 1.578.912 4.185 2.35 3.32.348-.192.555-.537.096-.527-1.496.216-2.504-1.864-1.56-2.858 1.665-1.75 4.578 2.146 3.228 4.307-.593.924-2.152 1.095-3.4.75-2.768-1.348-3.464-4.672-2.544-6.855.716-1.653 2.274-2.643 4.016-2.061m-4.88.999c.322.008.105.631-.198 1.58-.718 2.287.625 5.813 2.477 6.532.56.375.532.53.153.739-1.21.69-3.412-1.366-3.98-3.657-.417-1.66-.319-3.61.476-4.446.435-.457.782-.696 1.01-.732.016-.015.031-.016.062-.016m-29.759 1.346 4.487 2.967c.202.923.115 1.914-.017 2.905l-4.49-3.151zm27.075-.039c.337-.007.21.552.109 1.574-.212 2.385.512 4.1 2.18 5.55.702.603.89.8.59 1.115-.435.458-1.657-.15-2.627-1.166-1.769-1.864-2.346-5.36-.978-6.64q.473-.428.726-.433m49.902.413c1.913-.07 3.536.668 3.707 3.045.255 3.456-2.937 5.362-5.168 3.368-2.001-1.998.033-5.116 2.345-3.65 1.164.749-.226 2.432-1.163 1.555-.421-.393-.615-.142-.315.3.916 1.372 2.7.237 2.583-.981-.248-2.375-3.141-2.346-4.24-1.41-1.49 1.267-2.8 3.148-3.782 4.513-.803 1.192-.972 1.149-.849-.307.303-3.885 3.883-6.324 6.882-6.433m-52.206.748c.306-.006.177.43.2 1.572.122 2.919 1.338 4.748 2.89 5.766.518.577-.148.993-1.118.704-2.22-.696-4.493-5.517-2.606-7.596.27-.284.466-.427.634-.446m-2.17.973c.306-.022.135.63.16 1.85.068 2.565.844 3.8 2.744 5.368.623.513.698.45.444.733-.643.755-2.84-.312-3.775-1.853-1.11-1.832-1.273-4.595-.237-5.636.284-.3.51-.46.664-.462m-2.15 1.234c.26-.005.117.462.155 1.574.101 2.687.71 4.018 2.39 5.266 1.057.782 1.313.545.998.86-.571.538-2.128.075-3.297-.92-1.745-1.494-2.234-5.162-.82-6.428.255-.237.436-.364.575-.352m-20.375.379 4.304 3.016-.116 2.553-4.287-2.94zm75.382 4.765c-1.753-.365-2.422-1.634-2.207-3.091.067-.48.352-.765.656-.122.25 1 .922 2.392 1.831 2.666.355.116.043.618-.28.547m-37.75-3c1.972 5.028 1.947 10.53 2.267 15.717.432 6.899 1.645 11.54 2.044 12.336 0 0-1.929.025-2.027-.267 0 0-1.826-9.157-1.55-13.675.018-5.07-.96-9.516-1.553-11.513-.634-1.78-.656-.604.82-2.598m-37.648 1.96 4.145 2.741a35 35 0 0 0-.05 2.814l-4.071-2.898zm55.77-.235c.003.154.603.28 1.532.045 1.037-.254 2.079-.213 2.865.017.847.23.948-.035.176-.374-.371-.162-.976-.536-1.864-.518s-2.716.505-2.709.83m16.798-.103c.095.183.41.61.693.943.533.623.687.635.447.887-.555.584-1.736-.257-1.866-1.352-.108-.8.28-1.304.726-.478m-37.133.217c1.94 2.788 2.228 9.32 2.261 13.97.04 4.188 1.437 11.84 1.544 11.806-.394.24-.931.159-1.44-.047-.504-.654-.802-2.487-1.379-7.467-.148-1.28-.446-5.369-.513-8.643-.06-2.905-1.658-9.177-1.658-9.177s.619-.43 1.185-.442m-2.16.694c1.766 3.982 2.045 7.917 2.128 12.706.077 4.526 1.074 9.838 1.444 12.179-.596.059-1.223.118-1.474-.155-.157-.213-.287-.566-.357-1.012-.8-3.925-.995-8.186-1.221-11.782-.345-5.588-.434-6.977-1.226-9.757-.446-1.583-.598-1.549-.268-1.85.256-.221.744-.34.974-.329m19.85.916c.054 1.853.283 1.091.936.8.489-.042.892.228 1.788.565 1.157.424 1.053.565 1.856.177.5-.242.897-.327 1.146-.132.95.784 2.166.342 2.858-.291.53-.29 1.13-.132 1.576-.08.66.064.482-.365.572-1.201.077-.744-.215-.815-.976-.552-.775.264-1.556.296-2.234.078-1.726-.536-2.99-.185-3.845-.044-2.03.32-2.126.122-2.592-.177-.341-.225-.9-.615-1.1-.611-.199-.011-.139.667.015 1.468m17.962-.854c.197-.097.279.164.546.514.441.594.585.87.203.923-.992.145-1.24.042-1.206-.577.02-.495.139-.699.457-.86m-39.891.878c1.454 1.484 1.824 9.807 1.998 11.596.52 9.71 1.437 11.112.977 11.833-.55-.004-.746.2-1.108-.286-1.252-3.56-1.174-7.208-1.372-10.929-.284-4.908-.768-7.572-1.46-10.015-.463-1.613-.448-1.644.37-2.094.136-.065.457-.102.595-.105m-1.967 1.17c.514 1.178 1.543 6.535 1.683 11.169.106 3.676.988 10.859 1.142 10.902-.535.042-1.165-.053-1.418-.465-1.6-7.091-1.082-13.948-2.928-21.08.1-.343.686-.911 1.52-.527m-29.171.87 4.306 3.125.085 2.656-4.383-3.154zm63.93-.328c-2.43.947-3.058 1.733-2.676 2.42.318.581 1.294.375 3.875-.714 1.928-.813 2.533-.455 2.925.774-.024 1.808-1.765 2.03-2.75 1.772-.43-.022-.368.023.088.586 2.008 1.58 4.456-1.515 3.237-3.483-.956-1.788-2.605-2.295-4.699-1.355m-15.253.735c-2.005 1.587-1.288 4.447.375 4.876.465.238 1.151.13 1.423-.06.257-.16.252-.439-.27-.52-1.553-.262-2.434-1.402-1.676-2.562.727-1.128 2.064-.908 4.66.212 2.24.973 3.214.675 3.481-.49.112-.512-.02-1.004-1.093-1.043-2.974-.124-4.956-1.952-6.9-.413m26.813 4.371c-.14-.816-1.455.015-2.344 1.486-.858 1.44-.946 1.643-1.13.148-.26-2.22 2.017-3.952 3.44-4.013 1.711-.206 2.85.775 2.887 1.887.106 2.193-2.496 2.216-2.853.492m-75.588-1.299 4.552 3.15s.157 1.697.053 2.596l-4.578-2.95zm54.694 1.055c-1.978 1.355-.81 3.834.574 4.114 1.461.294 1.563-.728.117-1.038-.772-.308-.971-1.046-.677-1.624.697-1.142 1.968-.396 2.725-.041 1.655.8 2.504 1.091 3.028.54.93-.978.098-2.707-1.13-2.094-.333.161-.575.32-1.283.15-1.077-.256-2.353-.492-3.354-.007m-54.647 2.7 4.473 3.09-.143 2.738-4.198-3.111zm.092 3.753 4.212 3.034c-.068 1.16-.028 1.623.017 2.349l-4.268-2.77zm74.516.58c3.375.331 2.261 4.25-.104 3.186-.622-.482-.82-.431-1.52 1.283-.89 2.198-1.107 2.017-.991-.52.087-2.475 1.222-3.92 2.615-3.95m-26.62.601a.32.32 0 0 1 .185.043c.235.257-.464 1.276-1.034 1.876-.423.287-1.464-.48-1.212-.856.284-.346 1.511-1.005 2.061-1.063m4.498 2.024-.61.09c-.915-2.052-2.805-1.58-3.394.318l-.829-.091c.856-2.336 3.844-3.774 4.833-.317m17.024.464-1.025.068c-.918-2.222-2.211-2.55-3.315-.364l-.786-.23c1.352-2.81 3.629-3.044 5.126.526m-5.121-2.536c.52-.026.448.207-.088.96-.476.659-.581.754-1.064.393-.777-.587.525-1.31 1.152-1.353m4.856.069c.107.013.215.01.353.054 1.047.256 1.532.772 1.025 1.416-.329.409-.632.554-.852.296-.729-1.206-1.124-1.8-.526-1.766m-15.928.687c.116.446-.23.747-.62.384-.156-.151-.3-.396-.273-.597.241-.206.827-.017.893.213m-53.278 1.512 4.337 3.14c.145 1.11.177 1.943.162 2.701l-4.456-2.967zm63.16.956c2.501 1.725 5.425 1.695 7.248.189.406-.333.773-.356.78-.032-.266 1.211-3.45 2.761-5.934 1.885-1.373-.48-2.485-.968-3.384-2.247-.538-.839.56-.29 1.29.205m-1.055.84c3.649 3.17 6.556 2.29 8.744.7.32-.084.326.21.398.764.091.709-.484 1.045-2.067 1.527-3.059.929-6.633-.094-7.287-2.151-.07-.416-.218-.938.212-.84M30.42 202.54l4.396 3.03-.136 2.32-4.287-2.923zm.073 3.553 4.146 2.834-.006 1.917-4.026-2.9zm30.126.902c17.694 4.036 30.228 2.12 42.526-.067l10.901 21.579-65.68.086c4.282-7.013 7.846-14.675 12.253-21.598"/>
    <path d="M62.267 20.378c1.89 3.284 3.384 6.668 5.091 10.032l.28.18.413.78.039.385 1.014 1.633-.009.355 4.285 8.04c3.54-1.326 32.573-3.723 43.328.194l1.568-2.675.368-.008 2.763-4.895-.039-.416.928-1.07.128-.482 3.04-4.808.015-.773 3.805-6.416zm65.748.917s-1.988 3.86-3.013 5.41c-.825-.662-3.236-.21-3.092 2.352-3.92-1.494-4.865 3.223-1.826 4.273-1.55 1.361-3.036-.184-4.222-1.226-1.158.287-3.545 1.14-4.898-1.366 0 0 .573.313 1.132.641 3.205.984 3.468-3.38 1.08-4.087-.293-.087-.86-.106-.86-.106.804-3.355-4.335-4.53-4.436-.495 0 0-.614-.095-1.072-.008-2.731.505-2.097 4.556.686 4.36.383-.024.721.046.721.046-.048.65-3.422 1.895-5.842-.342-1.145.89-2.976 1.994-5.349-.213 1.561-.063 3.068-.512 3.047-2.304-.009-1.16-1.056-2.204-2.543-2.266-.088-1.296-1.047-2.543-2.29-2.64-1.53.093-2.3 1.33-2.304 2.643-1.3.136-2.5 1.289-2.229 2.612.374 1.8 1.757 2.02 3.327 1.677-1.912 3.1-5.023 1.48-5.977.496-1.142 1.075-3.134 2.538-5.58.533 1.313-.228 2.752-1 2.516-2.834-.198-1.448-1.8-1.879-2.503-1.802-.004-.958-.726-2.535-2.407-2.376-1.85.177-1.74 2.54-1.709 2.554-1.518-.123-2.63 1.678-2.193 2.843.534 1.41 1.63 1.852 3.675 1.47-2.374 2.243-3.892 1.378-5.188.91-1.154 1.215-2.678 1.602-4.247.538 3.511.174 2.954-6.105-1.211-3.823-2.966-3.524-2.904-1.949-5.567-7.132zM95.262 27.48c.168-.004.353.023.523.113.557.282.659.774.322 1.507-.118.25-.295.547-.259.825 3.869 7.198 12.41 3.991 13.214.636.057-.217-.04-.447-.152-.677-.333-.549-.28-.998.14-1.378.903-.807 2.209.14 1.68 1.232-.132.281-.28.593-.18.978 2.186 5.023 6.558 5.396 10.208 3.403-1.683 3.05-8.23 4.916-10.969-2.43-4.38 5.98-11.335 5.862-14.49-.887-2.845 6.905-11.402 7.068-14.52 1.338-2.838 6.565-9.423 5.064-11.283.961 6.11 4.463 10.134-.195 10.859-2.189 0 0-.143-.229-.33-.426-.782-.771-.755-1.684.05-2.04 1.031-.47 2.017.545 1.47 1.53-.147.28-.284.33-.187.575 1.899 4.474 11.267 5.777 13.16-.506.07-.357.032-.696-.127-.955-.443-.733.121-1.58.87-1.61m-27.345 2.532c1.471.078 1.069 1.37.765 1.468zm54.856.804c.016.031-.915 1.658-.915 1.658-.491-.794-.358-1.77.915-1.658m-4.991 8.264s-.937 2.106-1.255 2.283c-17.505-4.519-41.912-.595-42.516-.15l-1.083-2.048c15.342-3.101 30.64-2.431 44.854-.085m-29.56 31.294c-1.688 6.572-5.778 7.245-10.724 8.043-6.12.993-10.102-1.257-11.964-4.696 0 0-8.753 3.335-11.945 5.272 6.633 3.076 15.41 9.863 20.39 17.58 1.78 2.358 1.692 1.819 1.69 6.98 0 11.19.024 15.362.024 15.362 2.734.406 2.896 2.32 2.74 4.455 2.201-.973 4.308.22 4.305 2.306-.013 3.848-3.771 2.799-4.546 2.382 1.218 3.39-.208 4.795-1.674 4.965-1.803.207-3.858-.662-3.264-4.553-1.96.767-4.454-.634-4.792-2.96l-.097-3.955c4.85-9.219-1.245-16.71-6.962-19.173 0 0 1.616-3.371 3.71-4.327.213-.066-1.272-2.26-3.758-1.776-1.148.024-.873.018-1.958-1.396-2.14-2.8-3.14-2.995-5.222 0-.923 1.318-1.137 1.353-2.223 1.376-1.194.024-3.015.881-3.412 1.662-.088.172.375.364 1.002 1.092.895 1.048 2.272 2.503 2.057 3.976-4.708 1.937-12.528 10.43-4.311 21.293l-5.94.077-.287-38.692-4.134 2.312.177 30.318-1.172-.393c.093-9.676-.059-19.332-.349-29L24.69 96.918l.486 45.457 1.154.255c.862 6.194 13.01 1.861 13.725 2.403l.15 25.25-.527 1.246 9.666 5.332 8.863-4.651s1.19-.21 1.645-.452c3.681-1.962 6.416-1.51 8.42 1.355 1.23 1.767 1.45 2.025 1.45 2.025.753-5.1 5.233-6.986 9.578-5.655 3.206.984 7.575 4.2 8.911 8.129 0 0 .242.597.477.855l.185.074c-.017-.108-.21-.599-.292-.829-4.486-10.4-17.137-12.006-19.092-3.497l-1.798-2.528 9.422-5.821 12.87 8.556s-.596 3.01-.677 4.31l.217.104c.09-1.578.559-3.365 1.297-4.694.31-.548.654-1.003 1.06-1.336.772-.449 1.477-.402 2.259-1.144l-1.882-1.414-.048-4.558 3.77 5.346c1.189-.272 5.816-1.667 8.558-.132.308.102 4.327-1.064 6.832 4.602l12.056-5.057s.772-.434.77-.557c-12.022-4.479-24.169-20.345-23.01-20.6 0 0-.033-1.623.053-5.627.093-4.453.046-8.996.123-13.464-4.1-1.32-3.082-4.649-3.082-4.649-2.454.546-2.847.06-3.468-.376l-.423-4.21c1.475-1.267 2.36-1.378 4.191-.984 0 0-.88-1.836-.084-3.336.68-1.189 2.488-1.938 3.929-1.102 1.864 1.275 1.275 3.96 1.008 4.337 1.942-.875 4.305.096 4.88 2.031.297-5.709.779-12.102 1.917-17.086 2.098-8.992 5.52-18.413 9.81-25.813.709-1.236 1.603-2.475 2.33-3.634.667-1.034.99-1.705.99-1.705s-.923.514-1.898.781c-1.4.385-2.45.747-2.615.905-1.024.871-2.358 1.517-3.467 1.988-3.859 1.518-6.462-.746-8.065-4.205-.89 4.392-4.872 8.107-10.754 5.803-3.329-1.785-4.363-2.923-7.475-7.556-.193-.475-.863-1.017-.863-1.017m.122.723c2.203 4.39 5.483 7.49 8.678 8.737 5.705 1.89 9.474-1.805 10.537-5.196l1.096 1.878-8.649 6.192-13.05-8.367c.24-.19 1.405-3.151 1.388-3.244m39.257.295-3.874 2.306s-2.578 4.196-3.434 5.775c-4.522 8.053-7.91 16.809-9.678 25.516-.715 3.183-1.47 8.994-1.734 11.797-.399 4.459-.377 6.282-.262 10.375l.298.334s-.473.844-.811 1.547c-.925 1.92-1.148 3.006-1.087 5.246.135 5.128 3.223 10.056 7.597 12.05.248.12.572.267.572.267s-.754 2.04-2.103 3.49c-.899.962-1.097 1.012-.781 1.485.442.655 1.878 1.228 3.67 1.206.627-.013.627-.013 1.802 1.276 2.287 2.502 2.975 2.457 5.046-.383.61-.848.974-1.04 1.877-1.075 1.332-.028 3.744-1.113 3.734-1.623-1.638-.723-3.523-4.501-3.232-4.538 8.937-4.777 10.833-14.66 4.298-21.943l6.23-.098.226 39.435c1.224-.814 3.975-2.571 3.975-2.571l-.092-30.706c.43.083.865.399 1.695.536l.246 29.235s8.015-5.7 11.814-8.67l-.226-44.735-.92.004.15 44.722-10.576 7.793-.063-27.786s.84-.126 1.145-.163c3.1-.435 4.535-4.422 2.475-7.022-.723-.927-.216-.86 1.34-1.156 2.751-.242 4.27-2.345 3.474-3.843-.35-.642.11-.574.39-1.183.189-.483.161-1.07.075-1.547-.105-.616.15-.884.295-1.288.248-.624.004-1.314-.39-1.893-.427-.61-.318-1.276-.31-1.678-.02-.912-.344-1.044-1.296-1.92-.718-.666-.14-.817.922-1.364 1.666-.87 1.788-3.932-.445-5.246-1.193-.701-3.351-.64-8.022.106-1.77.284-3.865.467-3.865.467s-.021-17.494-.144-26.517zm-.003.618s9.503 5.613 9.43 5.77c-3.188 4.408-15.095 21.981-15.18 43.248-8.722-1.1-12.302 5.774-12.732 5.752-1.144-26.017 9.317-44.626 14.669-52.527zm-5.994 3.432-.033.635-1.887 2.836-.043-2.842zm-2.905.988.063 4.574-3.86 2.97-.22-4.77zm-35.753 1.04 1.989 1.38-.076 4.545-2.991-5.486zm54.26 1.526.02 3.276c-7.604 10.822-11.593 23.192-12.819 38.857l-1.854-.054c.493-15.573 5.685-29.775 14.652-42.079m-51.51.348 4.687 3.1-.2 5.182-4.252-2.755-.405-1.058zm28.411.211-.024 4.807-3.62 2.718-.174-4.772zm-43.926 1.256c.536.004.973.397 1.065 1.152.402 3.19 2.803 2.275 3.39 3.237.22.335-.294.608-1.951.473-3.022-.23-5.232-2.704-3.687-4.328.39-.363.816-.527 1.183-.534m20.916 2.067 4.004 2.575-.014 5.317-3.924-2.422zm18.285.021.311 4.707-4.38 2.95-.157-4.663zm8.347.011-2.523 5.416-14.698 10.676-12.185-7.968-2.266-5.223 14.22 9.363zm-39.62 2.155c3.904-.05 6.9 4.137 7.924 7.794.739 2.427.864 3.29.942 7.136.08 3.924.202 4.601.932 5.142.452.346.572.251.635-.446.121-1.532 1.948-.597 1.98 1.026.038 1.807-1.926 2.373-3.379.997-.78-.74-.78-.725-1.026.717-.164.977-1.28 7.043 1.584 8.56.537.05.666-.385.273-.887-.802-1.019.797-2.196 2.112-1.543 1.578.786 1.416 3.355-.265 4.271-1.923 1.045-4.429-.14-5.598-2.665-.85-1.852-.856-4.418.015-8.222.393-1.755.57-2.871.664-4.218.037-.449.089-.929.116-1.068.1-.404-.1-.431-.797-.077-1.895.967-3.946.284-4.457-1.483-.61-2.105 1.72-4.27 3.14-2.94.547.499.481 1.01-.171 1.333-1.122.564-.74 2.04.45 1.737 3.941-1.195.343-12.371-4.114-13.144-2.935-.51-5.24 2.86-3.12 4.67.826.71 1.676.321 1.502-.68-.258-1.4 1.583-1.238 2.255.185 1.104 2.326-1.751 4.225-4.412 2.936-4.79-2.852-1.517-9.04 2.815-9.13m17.69.883 3.945 2.67.03 5.191-3.907-2.345zm8.678.453.02 4.76-3.801 2.784.003-5.07zm10.233 3.125-1.94 5.465-12.263 8.462-10.116-6.404-1.742-5.063 11.92 7.787zm-79.596.392v27.663c-3.979.176-6.256 4.133-3.285 7.889 0 0-.52.072-1.13.147-2.688.365-4.496 1.809-4.139 3.548.103.539.007 1.066-.156 1.332-.246.716-.174 1.271.145 1.883.255.489.213.675.067 1.034-.305.779-.232 1.365.132 1.96.438.439.323.797.26 1.493-.071.99.106 1.39.726 1.778.791.493 1.099 1.306.194 1.248-.445-.037-2.036 1.51-2.036 1.51l-.143-44.397zm21.543 3.553c.705.001 1.443.898 2.5 2.421.635 1.084.647.945 2.1.884 1.489.108 2.385.506 2.777.962.141.167-.24.221-1.185 1.183-.975.994-1.105 1.399-1.756 2.51-.237.407-.741.448-.979.067-.19-.29.296-1.258 1.222-2.406 1.306-1.264 1.028-1.397-.867-1.203-1.33.136-1.469.077-1.975-.747-1.502-3.028-2.311-2.919-3.75.094-.397.843-.245.793-1.947.659-1.35-.111-1.68.236-.915.946 1.184.98 1.645 3.288 1.583 3.274l-.917.081s-.286-.52-.4-.857c-.244-.66-.908-1.666-1.643-2.454-1.019-1.122-.464-1.721 1.827-1.985 1.269-.135 1.299-.151 1.894-1.029 1.026-1.49 1.727-2.4 2.431-2.4m55.632 2.751-1.327 4.726-10.446 7.404-8.51-5.726-1.132-4.443 9.776 6.256zm-36.065 3.734s3.031 5.949 4.12 9.805c.958 3.35 2.29 13.058 1.934 13.653-.74-1.036-3.202-.799-3.232-.783.207-1.132-.698-3.432-2.805-3.882zm34.425 2.173-1.038 4.642-8.903 6.507-7.347-5.07-.965-4.493 8.137 5.487zm-51.803.26 1.157.409.217 8.387 8.913 1.5.198 1.432-10.325-1.685c-.089-3.569-.16-10.043-.16-10.043m-4.512.264.245 9.763c-.092-.03-7.437 1.02-10.24 1.758l.172-1.332s5.092-1.126 8.79-1.543c.005-2.736-.023-5.594-.034-8.376zm82.917 1.796s1.212.114 3.807-.342c6.683-1.175 8.5-.703 9.354 1.381.94 3.226-2.566 3.3-3.19 1.257-.395-1.321-1.829-1.044-6.629.107-4.1.982-6.704.202-6.644-2.149.042-2.427 2.763-2.638 3.302-.254m-54.984-1.775a1.49 1.49 0 0 1 1.516 1.498 1.5 1.5 0 0 1-1.484 1.53 1.487 1.487 0 0 1-1.516-1.483c-.002-.834.658-1.528 1.484-1.545m-21.725.267 1.063.318s.16 6.364.192 6.379c2.277.509 7.043 1.414 7.043 1.414l.255 1.262c-2-.468-8.362-1.526-8.362-1.526-.21-2.762-.191-7.847-.191-7.847m-7.716.115s-.003 5.084-.086 7.806c.03-.031-5.403.87-8.163 1.453l.209-1.024c2.18-.494 4.559-.992 6.968-1.506-.041-1.992-.04-6.382-.04-6.382zm3.881 1.093c.659-.013 1.221.531 1.22 1.196a1.215 1.215 0 0 1-1.185 1.23 1.204 1.204 0 0 1-1.22-1.195c.002-.665.527-1.217 1.185-1.23m90.527 3.183c.742 1.113 1.354 1.069 2.087.96-.183.051-1.045.564-.996.733.033.092-.368 1.475.23 1.54 2.226.217 1.094 2.543 1.362 2.908.596.683 1.034 1.122.623 1.996-.367.765-.888.745-.477 1.401.885 1.342-.334 1.614-.224 2.54.073.554.272 1.307.066 1.729-.617 1.28-2.76 2.02-5.148 2.116-.336.023-.087-.539-.248-.906-.59-.374-.266-1.015-.075-1.42.188-.545.203-.546-.17-.832-1.024-.643-.969-.938-.886-1.388.217-1.364.015-1.499-.387-1.691-.526-.252-.446-.841-.216-1.572.158-.514.048-.635-.206-1.093-.144-.276-.192-.414-.196-.599.077-.712-.55-.7-1.425-.017-.739 1.298-.995 2.988-1.464 4.049-.366.827-.41 1.678.012 3.57.825 2.903.207 3.38-3.021 2.767-2.417-.598-3.13-3.226-2.46-6.424.112-.512.087-1.022.033-1.422-.26-2.205.294-4.318 1.826-5.772 2.539-2.418 3.803-2.784 9.062-2.445 2.055.142 2.211.278 2.211.278s.01-1.005.087-1.006m-37.905.666-.612 4.495-4.936 3.518c-2.32-1.853-4.13-1.243-5.758.754-1.3-.669-3.894-2.47-3.894-2.47l-.656-5.1 7.178 5.027zm-52.506 1.064c.658-.014 1.206.53 1.22 1.195a1.205 1.205 0 0 1-1.186 1.23 1.204 1.204 0 0 1-1.218-1.195 1.205 1.205 0 0 1 1.184-1.23m51.673 4.594-.28 4.334-1.748 1.334-1.765-.18-.423-2.68zm-51.7.042c.658-.013 1.22.531 1.219 1.196a1.215 1.215 0 0 1-1.185 1.23 1.204 1.204 0 0 1-1.22-1.195c-.013-.665.512-1.232 1.186-1.23m4.842.131a1.204 1.204 0 0 1 1.219 1.196c.013.664-.512 1.216-1.185 1.23s-1.206-.531-1.22-1.195a1.195 1.195 0 0 1 1.186-1.23m-9.628.232c.658-.014 1.205.531 1.219 1.195a1.205 1.205 0 0 1-1.185 1.23 1.204 1.204 0 0 1-1.22-1.195 1.205 1.205 0 0 1 1.186-1.23m89.47.19c.336-.022.836.478.591 1.24-.319.872-.098 1.161.452 1.86.456.594.381.673.313 1.06-.102 2.491 1.484 1.422.8 3.23-.144.389.051.957.122 1.419-.162-.43-3.086-.384-3.338.054-.415-.069-.946-2.84-.525-3.204.062-.001.362.472.521.747.397.671.473.654.35-.131-.493-3.096-.205-6.255.713-6.274m-74.99.22c.658-.015 1.205.53 1.219 1.195a1.215 1.215 0 0 1-1.185 1.23 1.204 1.204 0 0 1-1.219-1.196 1.215 1.215 0 0 1 1.185-1.23m-19.49.22c.658-.014 1.205.531 1.218 1.195a1.205 1.205 0 0 1-1.184 1.23 1.204 1.204 0 0 1-1.22-1.195 1.215 1.215 0 0 1 1.185-1.23m47.19.36 3.601 2.352c.061.74-.04 1.81.213 2.175-2.347-.214-3.545 1.125-3.545 1.125zm-25.681 3.766-.28 1.289c-7.098-1.846-15.048-1.943-22.633.085l-.594-1.348c7.67-2.339 15.815-2.431 23.507-.026m-33.632-.072a3.7 3.7 0 0 1 2.842 1.208c1.396 1.578.72 4.513-1.251 5.45-2.973 1.392-6.051-1.588-4.797-4.66.525-1.277 1.874-1.97 3.206-1.998m73.21.375-.05 1.284-.904-.754zm-18.82.053a2.37 2.37 0 0 1 2.39 2.345c.012 1.314-1.022 2.402-2.324 2.413-1.3.027-2.38-1.032-2.39-2.345a2.36 2.36 0 0 1 2.324-2.413m-54.334.081c-.321.007-.84.141-1.08.363-.63.585-.003.602.827.755 1.476.278 1.885 1.553 1.745 2.946-.127 1.255.301 1.246.629.776 1.385-1.915.225-4.688-2.12-4.84m68.53.627-.061.032c.015.031.046.015.06-.032m-46.663.756c1.76-.036 1.958 2.896.386 6.174-.47.984-.702.865-1.222-.623-1.27-3.668-.986-5.513.836-5.55m4.09.085c.337-.022.676.11.943.429.957 1.093.227 2.87-2.305 5.58-.615.662-.93.916-1.16.921-.628.013-.63-.095.087-2.46.316-1.041.629-2.191.698-2.548.207-1.133.988-1.89 1.737-1.922m-6.393 2.622c.17.815.468 1.937.664 2.505.195.568.328 1.106.284 1.2-.16.435-1.29-.16-2.09-1.1-1.616-1.899-2.262-3.554-1.928-4.442.49-.706 1.755-1.026 2.335-.404.595.652.684 2.025.735 2.24m11.171-1.887c1.705 1.016-.253 3.344-4.088 5.263-1.637.822-1.523.449-.285-1.169.478-.628 1.116-1.63 1.424-2.255.692-1.375 1.384-2.749 2.95-1.839m-17.06 0c.536-.01 1.1.58 2.125 2.089.458.67 1.198 1.628 1.652 2.113.454.501.816.988.788 1.097-.178 1.054-5.514-2.28-5.895-3.695-.125-.847.549-1.618 1.33-1.604m76.328 3.061c.96 1.99 1.046 3.24.244 3.689-1.136.642-2.58-.333-2.609-1.754-.01-.479-.503-2.138-.939-3.226-.37-.888-.412-1.444-.122-1.48 1.183.175 2.932 1.839 3.426 2.771m-6.387-1.52c-.375 1.136-.767 2.921-.756 3.446.004.201-.125.621-.272.933-.97 2.03-3.285.378-2.44-1.741.772-1.917 2.723-3.905 3.487-3.968.535-.057.04 1.174-.019 1.33m1.555-1.084c.382-.038.706.805 1.21 2.247.668 1.933.653 3.448-.085 4.082-1.549 1.377-3.183-.63-2.56-3.13.51-2.02 1.007-3.159 1.435-3.199m-52.122.345c1.935 28.736-12.666 50.846-13.695 51.44l-4.967 2.746-8.705-4.795c9.025-12.49 14.414-26.805 14.823-43.442 8.348.83 12.636-5.92 12.544-5.95m47.844.1c.609-.167.19.367-.42 1.245-.638.94-1.474 3.493-2.14 3.893-1.486.726-3.168-.66-2.274-1.854.835-1.099 3.28-2.865 4.834-3.284m8.855.186c.23-.004.677.156 1.311.468 3.094 1.527 4.637 3.55 3.308 4.505-.935.684-1.926.149-2.85-1.625-.32-.611-.89-1.511-1.282-1.998-.707-.897-.87-1.342-.487-1.35m17.433 1.028c1.99-.026 3.631 1.578 3.657 3.587.026 2.008-1.563 3.664-3.554 3.69s-3.63-1.578-3.657-3.587c-.025-2.008 1.564-3.664 3.554-3.69m-1.098.95c-2.352 1.054-1.633 4.763.384 5.309.847.245 1.897-.117 1.46-.525-2.667-.841-2.692-2.834-1.604-4.279.178-.266-.058-.586-.24-.505m-97.662 5.111c-.095 2.104.353 4.536-.642 6.813-1.505 3.509-6.342 5.109-8.922 4.792-.54-.22-1.157-.44-1.689-.212-.318.13-.717.123-1.057-.04-.325-.148-.642.044-.966-.073-.373-.255-.982-.83-.914-1.263.11-.605.07-1.053-.639-1.254-.97-.274-1.18-.81-.89-2.377.054-.341.142-.498-.075-.632-.714-.48-.993-1.386-.522-2.338.31-.548.547-.94-.013-1.36-.225-.506-.182-.692.294-1.335.509-.614.584-.677.267-1.196-.728-1.16.096-2.027 1.067-2.51a13.4 13.4 0 0 1 3.823-.976c.507.035.485.484.8.926.46.716-.193 1.75.182 2.113.54.252.78.741.728 1.175-.026.99.042 1.328.311 1.74.3.457.41 1.305.13 1.867-.25.515-.22.468.108.77.312.303.48 1.783.358 1.755l1.345-.12c-.135.156.51-2.793 2.04-5.066-.082-1.776-.759-3.415-.7-5.765 3.314-1.198 5.7 1.643 5.576 4.566m51.45-4.009c.483.377 2.855 1.054 2.946.974-.069 1.146.62 3.372 3.086 4.124.034 3.199 0 17.974 0 17.974-3.443-5.847-5.573-13.376-6.031-23.072m-57.647.522s.131.43.255 1.246c.218 1.68-.022 1.917-.459.767-.517-1.35-.542-.298.042 2.781.137.739.141.924-.048 1.423-.116.311-.315 1.042-.472 1.617-.47 1.694-.736 2.179-1.223.83-.244-.691-.446-.795-.273-1.324.216-.67.16-1.178-.267-1.834-.079-.106-.237-.35-.25-1.045.136-1.564-.554-1.58-.685-1.98.019-.603-.257-2.096.158-2.043.337.04 1.578.06 2.171-.154.243-.097 1.051-.284 1.051-.284m51.383.196c1.286-.027 2.334 1.018 2.345 2.3.01 1.298-1.009 2.355-2.28 2.366a2.343 2.343 0 0 1-2.36-2.3c-.01-1.282 1.01-2.354 2.295-2.366m-35.79 1.426 1.752.334c.386.132.105 24.571-13.945 42.22l-.13-4.094c6.692-9.767 11.5-21.752 12.323-38.46m29.78.508.32 5.835c-.983-.845-3.496-2.446-3.482-2.478l.017-2.164c0 .016 2.148.187 3.146-1.193m-13.535.08c.417.178.793.587 1.151.889l-1.148.78zm40.236.29c7.581 2.269 15.053 2.206 22.432.553l.504 1.427c-7.996 2.19-15.962 2.063-23.885-.476zM72.5 129.753l.404 2.526-4.277 2.794.212-3.822 2.237-1.453zm37.9 2.085a1.244 1.244 0 0 1 1.265 1.24c.014.696-.54 1.279-1.23 1.278-.689.014-1.251-.546-1.266-1.24a1.254 1.254 0 0 1 1.23-1.278m19.481.104a1.244 1.244 0 0 1 1.266 1.24c.014.696-.54 1.279-1.23 1.278-.689.014-1.251-.546-1.266-1.241a1.264 1.264 0 0 1 1.23-1.277m-36.505 3.944c.561 1.997.44 6.497-.28 9.557-.21.916-.343 4.18-.343 4.18-.134.172 4.29-3.706 5.726 1.38.495 1.75-1.493 3.4-2.835 2.918-.262-.088-.188-.955.062-1.47.734-1.514-1.364-2.305-2.562-.967-2.77 3.103.086 10.971 4.42 11.746 3.613.636 6.51-2.994 4.092-5.154-1.061-.951-2.735.35-1.975 1.556.823 1.28-.698 1.792-1.84.61-2.003-2.076.246-5.198 3.262-4.488 4.831 1.105 3.838 8.73-1.222 9.16-3.868.327-6.475-1.38-8.114-4.39-1.545-2.905-1.654-5.221-.946-10.305.413-3.022.07-5.565-.757-5.548-.46.01-.807.234-.888.776-.146 1.1-.279 1.32-.961.917-.868-.508-1.361-2.151.071-3.263 1.462-1.143 3.352.641 3.281.952.03-.063.177-.344.38-1.646.634-4.217-.774-8.67-2.536-7.953-.38.163-.346.332.166.615 1.162.656.14 2.361-1.334 2.191-2.072-.25-2.545-3.161-.72-4.467 2.894-1.574 5.241.88 5.853 3.093m-14.177-3.522s3.692 2.272 3.887 2.856c.13.368.274 3.626.274 3.626l-6.392-4.04-9.164 5.724c.143-1.255.812-4.483.812-4.483l4.883-3.116c.004.186 3.357 2.403 5.7-.567m45.795.22a1.244 1.244 0 0 1 1.265 1.241c.015.695-.54 1.279-1.23 1.278a1.244 1.244 0 0 1-1.265-1.241 1.245 1.245 0 0 1 1.23-1.278m-9.77.019a1.266 1.266 0 0 1 1.28 1.24 1.28 1.28 0 0 1-1.244 1.293c-.689.015-1.252-.545-1.266-1.24s.54-1.28 1.23-1.293m4.906.284a1.266 1.266 0 0 1 1.281 1.24c.014.695-.54 1.279-1.23 1.278a1.244 1.244 0 0 1-1.265-1.241 1.23 1.23 0 0 1 1.214-1.277m-12.276 1.8c3.322.704 6.645 1.408 9.837 1.759l.125 9.857-.935-.058-.134-8.806c-3.068-.23-5.976-.896-8.7-1.596zm24.678.321-.175 1.163s-5.738 1-8.747 1.388c-.051 1.979-.038 8.624-.038 8.624l-1.144.21-.007-10.046c3.408-.38 6.815-.76 10.11-1.339m-55.58.556 6.77 4.51.802 4.79-7.888-5.29s-7.144 4.862-9.818 6.648l.811-4.514zm31.214.88c2.722.576 5.445 1.184 8.16 1.421l.117 7.941-1.247-.33-.101-6.442c-2.133-.187-4.316-.605-6.5-1.07zm24.094.239-.223 1.07s-4.351.663-6.61 1.066c-.198.05-.132 6.988-.132 6.988l-1.069.161-.12-8.095zm-12.218.888c.689-.014 1.252.546 1.266 1.241s-.54 1.279-1.23 1.278a1.244 1.244 0 0 1-1.266-1.241 1.254 1.254 0 0 1 1.23-1.278m-43.189 2.863 7.998 5.443s.931 2.84 1.132 4.412l-9.204-5.99-11.512 7.705 1.327-4.757zm-48.451.16c.475.005.94.32 1.2 1.057.343 1.028.993 1.339 2.692 1.303 3.35-.178 6.855-1.765 10.004-.579 1.528.571 2.08 2.862.79 3.445-1.396.648-1.986.243-2.468-.86-.454-.47-1.003-.396-3.994.13a56 56 0 0 1-4.186.52c-3.348.27-5.192-.789-5.6-2.79-.272-1.276.766-2.225 1.562-2.226m91.571 1.847a1.244 1.244 0 0 1 1.266 1.24 1.27 1.27 0 0 1-1.23 1.294 1.244 1.244 0 0 1-1.265-1.241 1.26 1.26 0 0 1 1.23-1.293m-24.486 1.546c.903-.02 1.637.707 1.656 1.619a1.635 1.635 0 0 1-1.604 1.671c-.904.02-1.638-.707-1.657-1.619-.003-.912.701-1.653 1.605-1.671m-18.63 1.145s6.584 4.437 9.628 6.491l1.677 4.88-11.207-7.355-13.706 9.002 1.643-5.026zm47.506 1.53c.6 1.625 1.682 2.854 2.825 4.113 0 0-.633 1.219-2.917 1.143-1.24-.036-1.314.15-1.74 1.01-.698 1.08-1.265 1.788-1.718 2.137-.799.62-2.288-.308-3.52-2.183-.443-.686-.63-.852-1.993-.824-2.082.044-2.829-.544-1.745-1.478.94-1.163 1.62-2.43 2.452-3.637l.936.105c.034.138-.73 2.472-1.798 3.422-.538.629.216.845 1.558.57.853-.25 1.07-.162 1.693 1.155 1.307 2.491 1.994 2.369 3.535-.151.543-1.124.526-1.248 2.002-.923 1.596.168 2.082-.043 1.428-.602-1.325-1.131-2.054-3.82-2.054-3.82zm-47.437 3.337s11.892 7.866 11.873 7.696l2.383 5.668-13.96-9.368-17.06 11.205 2.55-5.617zm.458 5.168 4.145 2.757-.005 4.96-4.24-2.878zm-1.069.145.07 4.898-3.722 2.241-.2-4.586zm-4.713 3.159-.042.186.092.044h.031l.136 4.401-4.273 2.995.021-4.977zm10.95.05 3.898 2.623.169 5.25-4.238-2.8zm4.813 3.191 3.916 2.747.137 5.236-3.991-2.714zm-20.704.03-.024 4.838-3.895 2.739-.177-4.942zm41.17 6.25c-.78.82-1.057.718-1.713-.628-.687-1.392-1.71-2.05-3.211-2.02-1.883.04-.653-1.207 1.35-1.357 3.443-.164 5.19 2.18 3.574 4.006m-46.139-2.84.1 4.851-3.88 2.028-.123-2.3 1.995-3.519zm-4.982 6.487.14.878-.714.278zm46.598 34.992c-16.3 3.523-31.93 2.272-43.137.188l-5.118 8.838-.352-.008-1.316 2.284.143.26s-4.257 8.248-6.057 10.851c20.946-.204 66.917-.313 66.917-.313l-2.796-5.69.15-.158-2.771-5.939-.895-1.032s-.542-1.07-.964-2.22c-.374-1.06-1.995-3.962-1.995-3.962l-.23.02zm-42.549 1.242c.218.165 20.881 4.108 42.284.061l1.174 1.985c-18.747 4.347-45.862.198-44.783-.21zm.356 3.887c1.882-.07 3.802.956 5.092 2.66.41.548 1.086 2.141 1.086 2.141s.903-1.518 1.791-2.263c1.34-1.14 3.081-2.104 5.595-2.002 2.314.091 4.867 1.352 7.177 5.013.585-2.114 8.203-9.29 14.466-.333.717-2.38 4.08-7.132 9.508-3.814.369.796.755 1.684.755 1.684-3.202-2.267-8.5-.75-9.744 2.8-.114.434.028.648.19 1.077 1.657 2.392-2.648 2.327-1.37.4.236-.438.26-.794-.12-1.373-1.011-1.525-4.052-3.424-6.271-3.378-2.572.054-5.431 1.782-6.38 3.348-.355.579-.435 1.152-.118 1.656.224.505.141.94-.235 1.241-.889.73-1.993-.113-1.572-1.204.281-.484.239-1.055-.33-1.878-1.15-1.63-3.835-3.351-6.177-3.302-3.352.085-6.733 2.52-6.523 4.525.094.879-.144 1.208-.85 1.115-.86-.121-.97-.954-.355-1.616.087-.218.245-.731-.038-1.127-3.545-4.825-8.83-3.417-10.048-2.34 1.167-2.05 2.803-2.964 4.47-3.03m-3.148 3.357c1.333.003 2.762 1.025 3.208 1.819.33-.347 3.332-1.785 4.783.271-3.82-.291-3.873 3.805-1.047 4.195-1.282 3.952 4.48 4.187 4.13.485 4.315.637 3.789-4.885-.272-4.29 2.127-1.56 3.577-1.064 6.14.737.865-1.13 4.366-2.193 5.233-.217-4.017-.256-3.339 4.443-.337 4.489-.898 3.249 5.008 4.455 4.096-.41 3.742.262 3.21-4.842-.381-4.428.272-.933 3.908-1.333 5.522.442 1.473-1.36 3.108-2.29 6.073-.343-4.026-.674-4.072 4.597-.341 4.288-.343 3.484 4.942 3.544 4.048-.486 4.02-1.104 1.803-5.447-1.144-4.242 1.316-1.573 3.552-.831 4.431-.51 2.738-3.163 5.12-.524 5.12-.524-4.773-.503-3.73 6.353.921 3.86-.002 1.407.59 2.63 2.493 2.838l2.256 4.713-63.867.42 3.516-6.256c.355.117 2.396.306 2.836-2.114 4.193 1.35 4.475-3.586 1.35-4.371a2.07 2.07 0 0 1 1.233-.366m-2.49 1.783c.412.672.069 1.111-.65 1.142 0 0 .46-.69.65-1.142m52.546.883.416.872c-.448-.191-.498-.376-.416-.872M130.564 222.968c7.8-.2 11.3-9 5.5-15.8-.8-1-.9-1.6.6-.6 3.9 2.6 11.4.9 11.8-7.1.5-9.8-13.2-12.7-15.8-2.2-.1 1.1-1 1.1-.8-.5.2-4.2 1.6-8.2 3.4-12.1h-9.3c1.8 3.9 3.1 7.8 3.4 12.1.2 1.6-.7 1.6-.8.5-2.6-10.4-16.3-7.6-15.8 2.2.4 8 7.9 9.7 11.8 7.1 1.5-1 1.5-.4.6.6-6 6.8-2.5 15.6 5.4 15.8q-.15 0 0 0M48.064 26.468c7.8.2 11.3 9 5.5 15.8-.8 1-.9 1.6.6.6 3.9-2.6 11.4-.9 11.8 7.1.5 9.8-13.2 12.7-15.8 2.2-.1-1.1-1-1.1-.8.5.2 4.2 1.6 8.2 3.4 12.1h-9.3c1.8-3.9 3.1-7.8 3.4-12.1.2-1.6-.7-1.6-.8-.5-2.6 10.4-16.3 7.6-15.8-2.2.4-8 7.9-9.7 11.8-7.1 1.5 1 1.5.4.6-.6-5.9-6.8-2.4-15.6 5.4-15.8"/>
</svg>
