<svg xmlns="http://www.w3.org/2000/svg" xml:space="preserve" width="178.6" height="249.4" viewBox="0 0 178.6 249.4">
    <path fill="#fbfbf6" stroke="#7f7f7f" stroke-width=".4" d="M3642.2-30.5h161.5c4.7 0 8.5 3.8 8.5 8.5v232.4c0 4.7-3.8 8.5-8.5 8.5h-161.5c-4.7 0-8.5-3.8-8.5-8.5V-22c-.1-4.7 3.8-8.5 8.5-8.5z" transform="matrix(.99553 0 0 .9968 -3617.013 30.846)"/>
    <path fill="#131f67" d="M24.255 19.782c.1 63.297 0 140.948 0 209.827h130.017V19.782zm38.13 1.196c22.399.598 44.997 0 67.596.1 0 0-8.163 14.453-10.752 18.939q-.747 1.495-.298 2.093c.497.598.398 1.695-.1 2.392-.2.3-.299.4-.299.599s.1.299.2.598c.398 1.395-.598 2.292-1.693 2.79-.697.3-2.39.5-3.584.4-7.466-.4-22.2-6.779-28.273-7.277-4.181-1.196-9.657-.798-14.137-.499-.796.1-.697-1.894-.697-1.894-.696-6.479-5.276-12.16-7.964-18.241m68.79.698h21.504v3.389l-9.06 9.17c-.796.898-1.492 1.595-1.492 1.595l-.1 8.274c-6.073-3.29-7.267-7.177-8.363-11.563-10.154 7.576-10.652 24.122.498 32.595.1-3.688 2.887-10.965 7.865-11.463l.1 28.808-6.073-5.981-13.24.2c2.19-3.59 2.19-6.38.796-9.77-2.39-5.482-6.073-17.942-5.775-17.942 0 0 .1-.299.399-.299 1.095-.2 1.792-1.296 1.493-2.592-.1-.398-.1-.299.2-.897 1.094-1.894-.2-3.887-.2-3.887zm-70.284 0 7.964 14.553s-.1.698-.1 1.096c.1.599.2 1.097.598 1.595.199.3.398.798.398 1.296.1.698.1.698 1.095 1.695.2.2.299.299.2.498-.3.897-.1 2.692.497 4.785.896 2.691 1.095 2.691-.498 6.28-.298.797-.697 1.794-1.194 2.691-1.991 4.087-2.29 5.183 1.095 7.376.995.599 1.194 1.197.995 2.393-.199.997-.199 1.595.2 2.093.298.399.597.399.497.698-.1.2-.298.997-.199 1.694.2 1.795-1.891 4.486-3.783 5.483-.398.299-.498-.1-.697-.399-1.99-3.489-6.869-2.093-7.168 2.093-.1 1.097-.1 1.595-.298 1.795-.1.1-.399.199-.399.199s-7.367 4.785-12.046 7.277c-.298.199-.597.398-.796.498-.299.1-.398 0-.597-.2-1.693-3.289-.797-7.176-.598-8.572 0-.498-.497-.598-1.095-.598-1.095 0-2.588 1.097-2.887 2.093-.298.897-.498 1.396-.697 1.396-.298 0-.398-.399-.995-1.595-1.294-2.592-1.493-2.89-2.788-4.386-.995-1.196-1.792-1.395-2.787-.498-.697.598-.697.1-1.195-.2-.995-.697-2.489-.1-2.489.897 0 .798 0 1.396-.896 1.496s-1.294 1.196-.995 2.89c.1.897.199.997-.1 1.296-.896 1.097-.995 1.794-.497 3.29 1.393 4.186 3.384 6.977 5.176 10.765 0 0-4.58 2.691-7.367 4.286v-78.05zm91.888 4.186.1 67.683-10.155-10.068s-.2-12.958-.2-18.241.1-10.566.1-11.563.1-5.183.1-9.47c.1-9.07-.797-7.874.896-9.669zm-19.811 8.174.597 1.595c-4.28 2.492-9.458 16.148.1 26.216l-.2 2.093c-10.055-9.17-8.263-22.328-.497-29.904m.696 1.894c1.494 2.99 3.087 5.682 5.376 7.376-1.194 2.891-1.792 6.18.299 10.566-1.493.798-3.484 2.891-5.575 7.277-7.467-7.675-5.774-18.84-.1-25.219m-56.048 5.781c4.181 0 8.561.698 12.544 1.894 2.488 12.86 6.968 21.432 6.968 26.515 0 0-.398-.1-1.095-.598-1.792-1.296-4.181-.598-5.475 1.097-1.195 1.595 0 3.788-.598 4.784-1.194 1.695-4.18 4.984-4.679 4.885-.398-.1-.298-.2.996-2.293 1.394-2.093 2.39-3.987 1.991-4.486-.199-.199-.299.2-1.294 1.994-2.39 4.187-4.48 6.679-5.276 6.38-.399-.2-.2-.499 1.592-2.791 1.991-2.592 2.49-4.287 2.29-4.984-.199-.599-.498.299-1.294 1.993-.896 1.695-2.489 3.589-3.783 5.483-.398.697-.896 1.096-1.593 1.395-.498.2-1.294.598-1.692.498-.2 0-.1-.199.298-.498 2.49-2.592 4.68-5.582 5.973-8.373.2-.399-.1-.897-.398-.498-1.891 3.389-4.48 7.575-7.367 9.37-.597.398-1.493.697-2.389.697-1.394 0-.896-.398.398-1.196 2.788-1.794 6.57-6.878 7.168-8.672.1-.399 0-.698-.299-.598-2.29 3.588-5.276 7.675-8.66 9.27-1.892.897-4.182 1.097-5.377.498-.896-.398-.597-.598.896-.697 3.584-.399 7.865-3.788 9.956-7.377 1.194-1.993.398-1.595-.996.4-2.39 3.289-7.168 6.478-10.154 6.18-2.987-.2-4.68-2.493-4.281-4.486.199-1.196 1.095-2.492 2.787-2.791 2.887-.598 4.779 3.987 2.091 4.784-.896.3-1.195.1-.896-.299 1.991-.897 1.095-3.19-.597-3.489-.996-.199-2.19.599-2.29 2.193 0 1.197.996 2.393 2.987 2.393 2.29 0 5.873-1.695 8.063-4.785 1.494-2.392.1-1.595-.995 0-.996 1.396-4.28 3.39-4.58 3.29l.1-1.595c.1.299 5.077-3.19 4.779-5.682-.2-1.894.1-2.392 1.99-2.392 1.394 0 3.286.498 3.784 1.196.497.697 1.194.897.896-.2-.399-1.794.1-2.093-.996-1.794-.697.2-1.394-.299-2.09-.897-.797-.598-1.792-.797-2.987-.797-.896 0-1.294 0-1.195-.898.1-.598.2-1.096 0-1.495-.298-.598-1.393-1.296-2.688-2.193-1.493-1.096-1.194-1.196 1.991-8.473 1.295-3.09 1.295-3.688.498-5.98-1.294-3.589-1.493-4.984.896-5.583 1.294-.299 2.688-.299 4.082-.299m13.34 2.094 1.195.398s3.783 13.158 5.973 19.538c.697 1.993 1.195 4.585 1.294 7.077-.1 3.39-1.991 5.881-4.28 6.18-1.693.2-3.485-.697-4.282-2.492-.696-1.794-.199-3.788 1.792-4.585 3.485-1.196 5.974 3.19 2.589 4.585-1.792.698-3.385-.598-2.589-2.093.598-.997 2.091-.897 2.49.1.298 1.096.796.598.597-.2-.598-2.492-3.783-1.894-4.082.399 0 2.791 3.086 3.489 4.878 1.894 1.394-1.296 1.593-3.589 1.195-5.482-.498-4.087-2.788-9.47-4.48-15.55-.697-3.09-1.892-6.68-2.29-9.77m48.682.1 2.29.897-.1 7.575-1.991.698c-2.49-3.888-.398-9.17-.2-9.17m-46.591.498 1.692.698c.896 5.382 5.276 15.65 6.77 23.325.398 4.585.497 5.98-2.589 8.473h-1.692s0-.1.697-.698c4.081-3.09 1.593-9.769.1-14.952-2.59-8.373-4.978-16.846-4.978-16.846m-15.73.498h-.697c-2.588.1-2.986.3-2.986.897 0 1.097.398 1.496 2.787 1.296 2.09-.2 4.978.1 7.068.997 2.29.997 2.888 1.296 3.684 1.695 2.09 1.096 1.692 0-.2-1.296-3.782-2.592-6.47-3.589-9.656-3.589m18.318.399 1.593.598s.398 1.196.597 1.994c1.494 6.878 5.675 14.553 6.173 22.627.1 2.592-.3 5.084-2.29 6.28h-1.494c1.593-1.595 2.589-1.994 2.19-7.376-.597-6.978-5.176-15.55-6.769-24.123m2.788 1.096 1.493.499c1.692 9.27 9.955 23.126 4.679 29.804H103.3c1.194-1.894 1.692-3.489 1.493-5.98-.498-8.374-4.779-16.548-6.371-24.323m2.488.898 1.593.498c2.09 9.37 10.354 24.82 4.48 29.007h-1.195c4.38-8.274-2.29-16.846-4.878-29.505m2.688.897c.498.299 1.195.398 1.693.598 1.692 7.077 4.679 14.055 6.072 20.733.498 3.589-.298 6.38-2.588 7.377h-.498c1.991-3.09 1.693-6.978.598-11.165-1.494-5.781-4.281-11.961-5.277-17.543m-24.689.1c-.697 0-1.493.099-2.29.398s-.697.997 0 .797c.299 0 .697-.1.996-.199 1.891-.299 4.181.399 6.969 2.093.696.4 1.393.798 1.592.997.498.399 1.096.399.896-.1-.1-.199-1.194-.996-2.09-1.594-1.991-1.296-3.883-2.393-6.073-2.393m27.377.597 1.593.2c2.987 13.756 9.458 22.328 3.883 27.412h-1.394c1.493-1.595 2.19-3.987 1.692-6.978-.497-2.99-1.99-7.675-3.285-11.862-1.394-4.685-2.588-8.772-2.489-8.772m2.29.4 1.294.298c1.593 5.582 4.181 12.56 5.874 18.242.995 3.588.597 7.874-1.593 8.772h-1.095c1.891-2.492 2.09-5.084 1.294-8.473-1.792-6.978-4.48-13.058-5.774-18.84m8.263 0c1.394 5.78 4.58 14.652 5.774 17.643 1.593 3.09 1.095 7.775-1.294 9.569h-1.095c1.294-1.296 1.792-3.39 1.593-5.582-.598-6.18-4.978-14.753-6.57-21.432zm-5.874.298 1.394.1c1.394 6.08 4.082 11.961 5.774 18.042.299 1.396.597 2.99.498 4.286-.2 2.592-1.294 4.586-2.19 4.586h-.996c1.991-2.293 1.892-5.483.996-8.972-1.294-5.582-4.68-12.46-5.476-18.042m-35.939 0c-.597 0-.597.499.3 1.296.596.498.497.3.497.598-.1 1.296.1 2.592.597 1.196.1-.398.398-.797.598-.697.398.1.199.897.398 1.295.298.698 0 .798-.797.598-.597-.1-.597.2-.995.599-.598.697-.498 1.096.398.897h.398c.299.1.598.299 1.294.797.896.698 2.19 1.695 3.087 1.794 1.393.2 1.095-.398-.1-.897-.996-.399-2.09-1.395-2.09-1.694 0-.2.298-.1 1.99-.598.697-.2 1.792-.698 2.19-.898.697-.299.797-.299 1.892-.299 1.991.1 2.29 0 .896-.996-2.787-2.094-6.47-3.39-8.362-2.592-.598.299-.598.1-.996-.1-.498-.1-.896-.299-1.195-.299m39.424.2c1.891 7.376 5.575 14.054 6.47 21.032.2 1.994-.099 3.987-1.791 5.682h-1.095c-.2 0 1.592-2.692 1.393-4.984 0-1.196-.1-2.592-.398-3.888-2.19-6.28-4.28-11.862-5.973-17.842zm-34.346 2.492c.398.1.398.299.298.498l-.597 1.196s-.498.1-.597 0c-.2-.299.398-1.495.796-1.694-.1-.1 0-.1.1 0m1.194.199c.1 0 .1 0 .2.1.497.199 1.393.598.995.897-.398.398-2.19.498-2.09.398L81 52.776q.15-.3.298-.3m-5.276 6.48h-.1c-.1.099.1.498.498.896 1.493 2.094-.597 2.692-2.09 1.595-1.394-1.096-3.584-.997-3.286.2.1.398 0 .598.797.598.697 0 .896.1 1.493.498 2.39 1.695 5.575-.598 3.982-2.99-.298-.499-.995-.798-1.294-.798m5.973 3.189c-.896 0-1.394.698-.298.897 3.982.698 1.294 4.785-1.494 2.691-2.489-2.292-5.873-2.292-5.873-.598 0 .399 0 .399.597.499 1.394.299 3.484.897 4.28 1.296.498.199.996.498 1.096.498 1.692.598 3.783-.2 4.181-1.595.398-1.296.1-3.688-2.489-3.688M32.618 75.403c.497 0 1.095.499 1.493 1.197.896 1.594 2.09 4.186 2.787 5.681.2.399.2.698.2.897.1.898.298 1.197.796.798s1.195-.997.398-1.097c-.796-.598-1.294-1.495-.796-2.093.398-.399.199-.698-.1-.698-1.095 0-2.787-3.389-1.99-4.186 1.094-.997 2.289.2 4.778 5.283 1.095 2.193 1.194 4.685.199 3.489-.299-.3-.299-.1-.597.797-.3.698-.498 1.097-1.593 2.093-1.295 1.296-2.091 2.293-2.19 2.492-.1.4.696 0 1.294-.697 1.294-1.197 1.294-1.595 1.294.1 0 1.495-.1 1.794.199 1.794.398 0 .597-1.197.796-2.592.2-1.296.896-1.894 1.991-2.592.3-.2.3-.299.3-.897-.2-1.794.796-5.183 1.293-4.386.1.2.299.598.399.897.1.499.398.997.796 1.097.597.398.597.697.796 2.193.1.498.3 1.296.399 1.694.298.798.597 1.196.398 1.396l-.299.299-9.258 5.482s-.697.399-.996.499c-.697.299-1.194.1-1.493-.499-1.991-2.89-3.285-6.18-4.68-9.27-.796-1.794 0-2.99 1.096-1.495.398.598.199.897 0 1.993 0 .2.1.1.498.2.497-.1.796.398.796 1.296-.299 1.196.1.498.398.498.399 0 .498.299.797.797.199.698.498.499.896 0 .398-.398.398-.398-.398-1.295-1.295-1.396-2.987-4.486-3.485-6.38q-.15-.747 0-1.196c.597-1.296 1.394-1.296 2.19.498.1.3.399.798.598 1.097.298.498.497.897.497 1.694-.298.598-.298.698-.1.798.598.2 1.494 1.196 1.594 2.093 0 .897.199 1.396.896.897.796-.598.497-.897-.299-1.694-.796-.997-.896-1.894-.398-2.592q.15-.3-.299-.3c-.995.1-1.891-1.096-1.194-2.092.298-.598.298-.698-.2-.698-.199 0-.597 0-.796-.1-.299-.498-.896-1.296-.896-1.894.299-.997.697-1.296 1.195-1.296m57.74 0c1.594.997 3.186 1.994 4.978 2.492A27.47 27.47 0 0 1 78.91 91.053c.2.997.299 1.894 1.294 2.492 0-.1-.398-1.894-.398-2.193 7.666-1.993 14.535-9.57 16.227-13.556l33.948-.399c-25.088 24.322-26.183 58.413-5.675 87.12l-2.389 1.396c-15.829-23.823-15.63-46.75-10.95-62.2 3.384-10.866 9.357-19.239 13.937-24.023 0 0-18.418-.3-27.577.1-1.294 2.093-2.588 3.687-4.38 5.681 0 0 4.68-4.486 4.48-5.283 8.462 0 17.223-.498 25.685.1-9.956 11.961-14.834 24.222-15.63 35.885 0 1.495-.1.697-.597 1.196l-1.593 2.492-1.294-2.492c-.896-.3-2.49.2-3.286-.1-3.484 15.65 0 34.59 4.58 46.85 0 0-1.195.698-2.589.498-1.593-.299-1.891.1-3.285.399-1.593.299-2.09.299-2.39.698-.198.2-.497.498-.895.698-3.783 1.395-8.164 6.578-8.164 6.479l-4.18-1.894c3.782-7.576 8.262-10.267 16.226-13.656l-.696-3.39c-8.363 3.19-13.739 6.878-17.92 14.255-5.077-.1-25.784-.2-25.784-.2 8.462-9.669 15.132-24.222 15.829-35.585.199-2.193-.1-1.197.796-1.795l1.493-1.794 1.195 1.794s.896 1.097 1.394.2c1.493-15.85-.1-33.892-7.666-46.551 1.394-.1 2.688-.1 3.982.598 2.987 6.778 4.68 15.151 5.476 21.431.995 7.975.796 16.846-.2 24.522l.498.1c1.494-9.869.996-20.335-.398-29.506-.697-4.785-2.987-12.26-4.48-15.75-.398-.996-.796-1.196-.398-1.295 9.657-.898 13.937-3.988 17.223-8.972m-25.585.898c.697 0 1.295.598 1.295 1.295 0 .698-.598 1.296-1.295 1.296a1.32 1.32 0 0 1-1.294-1.296c0-.797.498-1.295 1.294-1.295m69.489.598c-2.688 2.492-4.878 4.984-7.168 7.775 6.77 9.37 14.236 19.537 20.607 27.611 0 0 2.19-1.296 2.19-1.495 0-.1-.198-.499-.198-.399-.1.2-1.792 1.196-1.792 1.196l-20.01-26.415s1.094-1.296 1.393-1.695c1.593-.498 5.874-5.88 6.073-5.781 3.385 2.592 13.639 13.656 17.521 17.045l.1 30.702c-.398 1.196-11.35 5.98-19.015 23.624-3.882 2.193-8.163 3.39-12.145 5.283 0 0 .995 1.595 1.493 2.093-.597-1.295-.697-1.594.697-2.093l28.77-11.862-.099 2.393c-2.887 2.292-22.001 16.148-27.875 19.437-27.576-38.676-9.955-71.77 6.073-87.22zm-89.698 2.093c.797 0 .597 1.794.299 2.392-.598.399-1.095 0-1.095-.797 0-.3 0-.499-.1-.598-.498-.2.2-.997.896-.997m16.825 1.096c.597.499.896 1.097 1.095 1.795-.896-.1-3.186-.798-2.09-1.296zm-4.182 2.293c19.911 30.203 19.015 62.4-3.185 86.722h28.074c3.584-7.077 9.557-11.463 17.123-14.055l.697 2.193c-8.76 2.791-13.141 7.476-16.725 14.055H49.74c12.842-13.955 18.716-25.718 19.711-41.567.896-15.151-2.986-29.007-14.534-45.653zm5.575.399 4.68 2.193-.697 4.884-4.879-2.293zm-8.462 1.296c25.088 38.177 14.336 64.991-5.674 87.32l-3.684.1-8.561-8.075.199 48.843s-8.363 8.274-9.358 9.27c-.996.898-1.693-.498-1.693-.498v-64.692l.399-2.492.1-13.955 5.375-2.791 20.01 26.415s-.796 1.196-1.194 1.395c.398.997 1.891-1.395 1.99-1.794-7.267-9.07-20.806-26.814-20.806-26.814l-5.575 2.99s.2-11.562.1-16.048c.199-1.097.995-.798 1.493-1.196 7.267-4.785 13.34-11.663 18.417-23.325 3.883-1.296 7.965-3.09 11.847-4.685l-5.674-8.473zm-15.33.498c-.2 0-.797.2-1.494.897-1.294 1.196-3.086 3.29-3.086 3.589.398.1.696-.1.995-.4 1.095-1.694 2.887-2.292 3.883-3.787.1-.2-.1-.299-.299-.299m12.642 1.794s3.883 5.682 4.878 7.177c-10.254 4.087-21.005 9.47-30.463 12.959v-2.293s17.82-13.457 25.585-17.843m15.232 3.788 3.783 1.994-1.095 4.386-3.883-2.193zm3.186 7.177 3.185 2.293-1.393 3.688-3.186-2.193zm-25.685 2.691s-.498 1.695-1.294 3.29c-3.883 6.778-7.666 12.859-15.63 18.142-.299-.3-1.195-1.795-1.195-1.795l-.1-1.993c4.182-3.39 7.766-5.881 13.34-15.75l1.594-.697 1.393.598.896-1.695zm16.327.1c-3.584 7.775-7.168 15.75-12.942 21.83l15.829 22.229c5.177-15.75 3.285-30.502-2.887-44.059M40.78 101.82l-.796 1.296 1.294.797.796-1.296zm-2.09.1q-4.331 9.719-12.843 14.951l-.2-9.47zm.995 1.893-.796 1.296 1.294.798.796-1.296zm32.355.3 2.887 2.69-1.693 2.991-2.887-2.392zm43.704 1.395c-4.978 15.75-3.485 30.701 3.385 43.76 3.384-8.473 6.172-14.155 12.742-23.126-4.081-5.383-15.729-20.834-16.127-20.634m-77.254.2-.796 1.295 1.294.797.797-1.295zm21.902 1.793c4.48 10.866 4.082 20.734 1.692 29.207l-11.249-14.354c4.181-5.184 6.87-10.068 9.557-14.853m-22.997.1-.896 1.296 1.294.897.896-1.296zm-1.294 1.794-.896 1.197 1.195.897.896-1.197zm37.233 1.296 2.588 2.492-1.592 3.19-2.589-2.392zm-38.726.598-.996 1.196 1.195.997.995-1.196zm82.53.3 11.349 14.752c-3.783 4.585-6.97 9.968-9.757 15.75-3.185-9.969-4.679-19.737-1.592-30.503m-84.123 1.495-1.095 1.096 1.095 1.097 1.095-1.097zm26.58 1.495-5.176 7.575 5.973 7.676c.697-4.087.797-8.971-.796-15.251m-28.273.299-1.095.997.996 1.096 1.095-.997zm-1.592 1.395-1.195.997.996 1.196 1.194-.997zm44.5.798 2.09 2.492-2.19 2.591-1.99-2.292zm27.178.498 1.493.1c-2.389 23.624 2.29 35.685 6.471 46.052 0 0 0 .399-.199.499-.697.199-2.09.498-3.185-.499-5.575-14.453-6.77-32.197-4.58-46.152m-73.67.3-1.194.896.896 1.196 1.195-.897zm91.092.797c-.398 0-.697 9.768.697 14.453l5.276-7.177zm-13.54 1.595 1.793 2.392-1.892 2.592-1.891-2.393zm-78.945.697c.1 0 .199.2.498.399.298.3.199.3-.1.498-.498.4-.597.3-.597-.299.1-.398.1-.598.199-.598m47.985 1.795 1.891 2.79-2.19 2.792-1.792-2.891zm30.861 3.488 1.991 2.492-1.792 2.791-2.19-2.591zm47.189.598.199 2.891-.697-1.096-1.294.996.896 1.197 1.095-.897.1 1.196c-7.169 5.183-10.255 11.264-13.241 15.75l-1.295.597-1.493-.498-.697 1.296-1.294.299s2.489-5.483 6.87-11.164c3.981-4.984 10.85-10.666 10.85-10.567m.895 4.486.1 10.267-12.842 4.984c3.185-5.781 7.167-11.064 12.742-15.251m-3.285-1.296-1.194.997.995 1.196 1.195-.997zm-1.792 1.595-1.095.997 1.095 1.096 1.095-.996zm-42.907.598 2.389 2.592-1.792 3.09-2.489-2.392zm41.115 1.097-1.095 1.096 1.195 1.097 1.095-1.097zm-1.692 1.694-.996 1.097 1.195 1.096.996-1.096zm-1.693 1.894-.995 1.196 1.294.997.996-1.196zm-36.934 1.894 2.987 1.994-1.494 3.588-2.986-2.292zm35.54 0-.895 1.196 1.394.897.895-1.295zm-1.393 1.994-.796 1.296 1.393.897.797-1.296zm-1.195 1.894-.796 1.295 1.394.798.796-1.296zm-1.194 1.993-.797 1.296 1.593.698.597-1.296zm-30.065.798 3.086 2.093-1.394 3.788-3.285-2.293zm44.898 3.788v78.348h-33.848s-1.593-2.79-4.978-9.37c-1.393-2.79-2.588-3.987-2.688-6.18.1-1.296-.497-2.79-1.493-3.29-.398-.199-.896 0-.697-.498.2-.598-.498-1.495-.597-1.694-.2-.399-.1-.399-.1-1.695s-.1-1.794-.398-2.79c-.697-2.393-.796-3.59-.398-4.885.995-3.19 2.09-5.582 3.385-8.573.796-1.694.697-2.392-1.792-3.688-1.792-.897-2.09-.897-1.792-2.293.1-.598.199-1.096.1-1.395-.1-.2-.399-.499-.598-.598-.2-.2-.2-.598.1-.897.199-.3.199-.698 0-1.496-.498-1.495.597-3.588 2.787-4.984.896-.598.896-.498 1.892.499 2.887 2.99 7.068 1.096 7.068-3.09 0-1.296-.398-1.296.796-1.894 4.281-2.692 12.942-7.676 12.843-7.476.597 1.196.796 2.193 1.095 3.389.298 1.096.298 1.196.199 3.29-.1 1.893-.2 2.292.299 2.491 2.488.3 3.086-.598 3.583-2.292.2-.698.598-.598.896-.3.996 1.795 2.19 3.59 2.987 4.785.996 1.595 2.688 2.393 3.484 1.595.2-.598.3-.598 1.394-.398 1.294.299 2.09-.499 2.19-1.396.1-.399-.199-.399.498-.797 1.792-1.296 1.095-3.19.797-4.187 0 .1.796-.498.796-1.495.1-5.283-4.48-12.959-4.38-12.76zm-43.007 3.09 3.584 1.794-.896 4.386-3.683-1.695zm35.242 1.594c2.09 2.393 3.584 6.48 4.38 9.171.399 1.296.399 2.791.1 2.99s-.498 0-.398-.797c.1-.698.1-1.196-.2-1.196-.796.2-.796-.997-.796-1.296.1-.2.2-.299.2-.399.198-.498-.3-.398-.897-.398-.497 0-.597-.3-.597-.698 0-.499-.697-.399-1.095 0-.299.399-.299.797.199 1.096.697.399 1.294 1.396 2.887 4.984.896 2.094.597 3.49-.398 3.49-.797 0-1.593-2.094-2.39-3.59-.199-.398.3-.797.399-1.096.398-.598.398-.698-.299-.698-.597 0-.796 0-1.195-.697-.1-.3-.199-.698-.199-.897.299-.798-.298-.997-.896-.698-.796.299-.697.997.399 2.093.696 1.196.497 1.097-.2 1.994-.1.299-.1.498.3.498.895-.299 1.89 1.296 1.592 1.894-.299.2-.996 1.096-.299.897 1.494-.399 2.39 1.794 1.494 2.492-1.295.598-1.593.399-3.584-3.489-.598-1.196-1.394-2.591-1.394-2.691-.1-.1-.1-.498-.1-.798.1-.697-.199-.897-.796-.598-.498.1-.896.499-.299.898.697 1.196.896 1.395.598 1.694-.896.698-.498.698.497.897.498.1.697.399.797.698.498 1.096 1.394 2.691 1.493 2.99.299.798-.199 1.197-.995 1.197-.797 0-1.095-.599-1.494-1.097-1.393-1.894-2.389-3.788-3.783-5.98l.2-1.994s.398.1.597 0c.398-.2.597-.798.896-1.695.398-.698 2.489-2.392 3.384-3.29.2-.1.3-.298.3-.398 0-.3-.897-.1-1.594.598-.896.797-1.294.498-1.294-.498-.1-1.296-.896-.598-.896.598-.1.996-.398 1.595-1.095 2.093-1.294.997-1.095.797-.996 2.193.1 2.492-.895 4.585-1.493 3.19-.199-.499-.498-.997-1.095-1.097-.398 0-.597-.399-.796-1.395-.299-1.595-.797-2.592-1.195-4.087zm-32.156 5.383 4.181 1.695-.796 4.386-4.181-1.595zm31.857.399c-1.294.897-2.389 1.894-3.683 2.691-.498.3-.996.997-1.095 1.196 0 .2.597.2 1.095-.1.498-.199 3.584-3.09 3.584-3.388.298-.1.298-.4.1-.4m-38.328 5.383c.996 0 .398.299-1.792 1.794-2.09 1.495-5.575 6.08-5.973 7.875-.199.797.299.797.896-.2 2.588-4.984 7.367-9.47 11.847-9.27 2.19.1 3.385.698 1.593.897-4.878.598-8.562 3.39-11.847 9.071 0 .1.299.1.597-.1 2.987-3.588 6.272-8.472 12.146-8.074 4.181.3 5.376 5.283 1.891 6.978-3.086 1.495-5.873-2.193-3.285-4.286.796-.698 1.294-.4.498.299-1.693 1.495.398 4.286 2.39 3.29 1.293-.5 1.791-2.293.696-3.689-2.489-2.99-7.765-.698-11.449 4.187-.398.498-.697 1.594-.398 1.495.597-.2.896-.698 1.294-1.196 1.294-1.795 2.29-2.791 4.082-3.788 1.394-.798 1.493-.598.995.698-.199.598-.398.697-.895 1.096-2.29 1.495-3.684 3.588-3.684 4.884 0 .997.697 2.193-.1 2.492-1.294.598-4.778.1-5.774-1.096-.696-.897-.896-.399-.398 1.096.299.897.299 1.496.797 1.396.597-.3 1.095-.3 2.29.399.597.299 1.692.598 2.289.797 1.195.3 1.394.2 1.394.698v.897c-.2 1.595 1.095 2.093 2.887 3.09.995.598.597 1.196-.597 4.187-.598 1.295-1.195 3.19-1.892 4.485q-1.045 2.243-.299 5.084c.896 3.588 1.494 5.383-.1 5.682-3.882.598-12.543.598-17.322-1.296-1.194-9.17-7.566-22.628-6.77-26.116 1.594 2.492 8.463 1.794 6.472-5.084 0 0 .597-.798 1.692-1.994 2.887-2.99 3.584-3.389 2.19-.797-1.095 1.993-2.389 4.585-2.389 5.084 0 .398.299.498.498.199.199-.2.398-.798.597-1.296 1.693-4.087 4.68-7.675 6.67-8.572.498-.2.498 0 .1.498-2.39 2.99-4.181 5.781-5.476 9.37-.1.399.498.498.598.2 2.19-4.686 2.887-5.782 5.674-9.072 1.095-1.296 2.09-1.993 2.887-1.894.697.1.498.2-.199.898-.498.498-1.194 1.295-2.39 2.79-2.09 2.592-4.18 6.879-3.384 6.68.1.398.797-.798 1.294-1.895 1.494-2.591 3.086-5.88 6.67-8.174.896-.498 1.693-.697 2.49-.697m-69.389.797 6.372 6.38 12.842-.2c-2.09 3.29-.995 8.473.2 11.464 2.29 5.88 5.674 15.65 5.375 15.749 0 0-1.891.498-1.99 1.695-.3 1.794.497 1.594-.598 3.19-.2.398-.1.996.199 1.594.2.399.299.997 0 1.495l-11.35 20.335H26.247v-3.987l10.951-10.965-.1-8.074c5.874 1.794 7.865 7.875 8.363 12.36 10.652-9.768 10.354-24.421.299-33.592-1.991 9.769-8.96 11.762-8.761 11.563zm79.842 1.196c.697.1 1.593.2 2.29.499a9 9 0 0 0-.995.897c-.399-.698-.797-.997-1.295-1.396m17.82 0c.598 0 1.295 1.695.896 2.094-.199.199-.995.299-1.194.1-.398-.2-.2-2.194.298-2.194m-20.209 2.99c.697 0 1.294.599 1.294 1.297s-.597 1.295-1.294 1.295-1.294-.598-1.294-1.295.498-1.296 1.294-1.296m-56.546 1.895h.995c-1.792 2.392-1.99 4.386-1.394 7.276.697 3.29 5.974 15.75 6.372 19.139v.598l-1.294.1s-.1-.399-.1-.499c-1.792-6.18-3.683-10.965-4.878-14.553-1.294-3.788-3.285-9.57.299-12.061m7.068 0h.996s-1.394 2.89-1.494 4.685c-.1 1.993.398 4.186.996 6.28 1.593 4.684 3.783 9.868 5.077 15.65 0 .099.2.597.2.597l-1.395-.199s-.1-.598-.199-.698c-.896-5.183-3.584-10.466-5.177-15.55-.796-2.293-1.393-5.183-1.095-7.277.299-1.395 1.792-3.389 2.091-3.488m11.15 0c-.996 1.495-1.892 3.389-1.892 4.984-.1 2.79.797 5.183 1.593 7.575 2.49 7.576 3.684 11.563 4.878 17.644l-1.294-.598s-.1-.3-.1-.399c-.696-3.788-.796-3.489-4.877-16.348-.996-3.09-1.892-5.781-1.693-8.373 0-1.495 1.294-4.386 2.688-4.585zm1.593 0h1.194s-.696.697-.896.996c-2.19 2.99-1.493 6.18-.497 10.068 1.493 5.283 4.181 11.164 5.575 19.238v.898l-1.494-.599c-1.294-7.376-4.579-15.051-6.172-21.73-.896-3.887-.697-6.38 1.493-8.473.697-.299.797-.398.797-.398m-15.033.1h.896s-1.493 2.591-1.493 4.086c-.299 2.692.697 5.682 1.792 8.772 1.692 4.785 3.982 10.566 4.679 13.557 0 .1.1.697.1.697l-1.593-.1s-.1-.697-.2-1.096c-1.891-6.579-3.683-10.765-5.774-16.746-.298-.897-.796-4.486-.199-6.778.498-1.894 1.792-2.393 1.792-2.393m-2.389 0h.996s-.1.298-.498.896c-1.792 3.29-.996 6.28.1 9.67 1.493 4.485 3.882 9.967 5.276 15.15.1.3.199 1.197.199 1.197h-1.394s-.299-1.096-.299-1.196c-.796-4.785-5.176-12.76-6.272-18.94-.696-3.19-.199-5.183 1.892-6.778m13.24 0s-1.592 2.69-1.692 4.286c-.298 2.99.697 5.482 1.693 8.871 1.891 5.782 4.48 12.66 4.679 15.75v.498l-1.593-.598s-.1-.3-.1-.399c-1.394-5.682-3.086-11.264-5.276-17.643-.597-2.094-1.294-4.286-1.195-6.08.299-2.493.697-3.09 2.19-4.586zm7.168 0h1.295s-.399.199-1.295 1.195c-5.176 4.685 3.186 18.043 5.078 30.204 0 .1.1.598.1.598l-1.395-.499c-.1-.598-.199-1.296-.398-1.993-1.593-6.18-3.584-12.56-5.575-18.341-1.095-4.187-1.493-7.975.498-9.969.498-.797 1.692-1.196 1.692-1.196m-13.44 0h1.394c-.995 1.295-1.592 3.19-1.592 4.983-.1 2.094.497 4.087 1.194 6.18 1.394 4.386 3.385 9.071 4.779 15.052.1.399.1.598.199.798.1.299.199.697.199.697l-1.493-.299-.299-.598c-.1-.299-.299-.697-.398-1.196-.697-3.09-3.285-10.068-4.878-14.952-1.294-2.99-1.693-8.373.896-10.666m17.323 0c1.792-.1 3.385 1.495 3.783 2.89.398 1.495-.1 3.19-1.792 4.087-2.688 1.395-5.575-2.293-3.484-4.286 1.593-1.496 3.982-.399 3.484 1.495-.299 1.296-2.19 1.296-2.588.1-.1-.4-.299-.898-.498-.599-.996 2.293 2.29 3.39 3.683 1.296.797-1.694-.696-3.987-2.986-3.588-3.086.598-3.485 4.585-2.19 9.27 1.792 7.376 6.172 17.245 6.172 21.83v.2l-1.394-.4v-.099c-.796-6.38-5.475-16.846-6.869-24.92-.597-3.688.796-6.38 4.082-7.077.199-.1.398-.1.597-.2m-13.54.099c-.995 1.296-1.592 3.29-1.592 4.585 0 1.994.697 3.987 1.294 6.18 1.493 5.284 5.077 14.953 4.978 16.747 0 .2.1.797.1.797l-1.394-.399s-.1-.1-.2-.299c-.497-1.794-2.588-9.47-5.077-16.148-.896-2.691-1.394-4.784-1.294-6.579.2-2.492.896-3.488 1.991-4.784zm25.984 8.672c-3.584.2-3.185 4.585-.995 5.283.796.2 1.294 0 1.393-.1.1-.199 0-.498-.497-.598-1.494-.498-1.991-2.292-.697-2.99.697-.399 1.891-.1 3.285.897 2.489 1.894 5.675 1.994 5.276.1-.1-.499-.298-.499-2.19-.798-1.493-.199-2.19-.697-2.887-.996-.995-.598-1.891-.798-2.688-.798m-50.772 4.087c9.159 8.971 7.765 23.126 0 30.203-.2-.598-.498-1.993-.498-1.894 5.874-6.18 8.661-16.248.1-26.614 0 0 .199-.798.398-1.695m57.442.2h-.199c-2.39.697-2.887 2.99-1.294 3.987.896.598 1.692.199.498-.499-.996-.598-.498-2.193.697-2.193.497 0 .896.2 2.29 1.296 1.094.798 2.19.897 2.389-.2.1-.697-.1-.996-.797-.797-.298.1-.498-.1-.896-.398-.995-.698-2.09-1.197-2.688-1.197m-58.338 1.794c8.263 9.669 5.575 19.736 0 25.618-1.493-4.586-5.276-7.377-5.276-7.377 1.393-3.19 2.29-6.479-.399-10.666 2.49-2.193 4.48-4.685 5.675-7.575m53.66 3.488c-.399 0-.3.4.696.997 2.19 1.495 2.39 1.795.299 1.695-.498 0-1.394.399-1.892.498-2.787.897-2.887.897-4.18.499-.4-.1-.897-.3-1.096-.1-.299.299-.597.498-.299.897.299.3.797.499 1.394.897 3.186 1.894 3.484 2.293 7.267 2.393.399 0 .697-.2.896-.2.598 0 .896.1 1.593.698 1.095.997 1.195.299.498-1.097-.398-.697-.697-.897-.498-1.395.399-1.296-.199-1.495-.896-.399-.597.897-.597.798-1.095-.299-.697-1.395-.398-1.993.697-1.096.797.697.996.2 1.294-.399.399-.698.299-1.396-.398-1.296-.398 0-.796-.2-1.095-.498-.796-.698-1.991-1.595-3.186-1.795m.895 3.788c.1 0 .1 0 .2.1 0 .498-.3 1.396-.598 1.894-.1.2-.2.2-.398.299-.697.1-.697-.1-.597-.498.199-.598.398-1.496 1.393-1.795-.1 0 0 0 0 0m-1.692.3c.299 0 .299.1.199.298-.2.4-.498.798-.796 1.097-.498.299-1.394-.698-.996-.997.498-.2.896-.399 1.493-.498 0 .1.1.1.1.1m-59.135.697c.1 0 .299 0 .398.1 1.991 2.691 1.892 6.878.299 9.17-.1.2-.2.2-.398.1-.697-.399-1.494-.498-2.19-.797v-7.975c.696-.1 1.194-.598 1.891-.598m52.664.598q-.3 0 0 .3c2.887 2.093 6.969 4.585 10.652 3.588.299-.1.597-.3.597-.598 0-.2-.398-.399-.796-.3-.896.2-2.489.3-3.186.1-2.588-.398-4.778-2.093-6.77-2.99-.198 0-.398-.1-.497-.1m-.896 2.094c-.1 0-.1.1 0 .398.398 1.196 4.58 4.087 7.765 5.084 2.788.797 6.77 0 6.57-1.296-.099-.698-.597-.897-2.389-.598-3.882.797-7.765-.897-10.552-2.691-.797-.598-1.195-.897-1.394-.897m-25.685 1.694c1.693 0 3.385.1 5.276.399 3.584.598 7.766 1.694 11.25 3.389 5.973 2.293 13.44 3.987 19.811 3.788 1.593 0 4.38-.1 4.878-.3 1.394-.298 1.792 0 2.19 1.795.1.399.2.498.697.797.797.499.598.997.498 2.193-.1.997.498 1.496 2.788 5.782 2.588 4.884 5.176 10.466 5.176 10.466-22.897 0-44.799-.897-68.293-.1 2.09-5.083 7.864-14.154 11.448-21.43-.896-2.293.2-2.592-.199-3.19-.697-1.296-.199-2.99 1.294-3.39 1.095-.1 2.091-.199 3.186-.199"/>
    <path fill="#e2cf00" d="M49.641 227.914s7.566-15.35 10.653-19.836c4.579-5.782 25.087 2.492 35.341 4.585 4.181.798 13.838.399 13.838.399l8.064 14.653zm-15.63-17.344-.298-47.647 2.389 1.495.498 47.846-10.155 9.77-.1-2.892zm6.173-5.483c2.389-4.884-.299-10.865-.299-10.865 1.394.3 5.276-7.177 5.675-6.878 5.973 7.377 7.068 18.441-.299 25.22-1.892-4.785-5.077-7.477-5.077-7.477m4.48-33.691c4.58-4.685 8.163-8.374 11.747-13.557.299-.399-19.214-25.418-18.915-25.817 2.986-3.39 7.068-5.782 10.154-9.869 0 0 16.028 21.133 16.327 20.933 1.593-6.579 2.788-12.56 2.489-19.437-.996-17.644-8.462-28.41-8.562-28.21-2.489 16.248-27.377 40.77-32.355 39.075V123.15c.299.598 15.73-10.067 19.812-24.023.298-.997 12.344-4.884 12.245-4.984-.498-1.296-5.775-8.772-5.775-8.772s2.091-.996 2.39-.996c6.77 8.572 11.946 19.736 13.738 30.402 2.09 11.563 3.485 33.194-19.413 56.818zm68.692-29.805c-3.584-11.264-3.485-22.827-1.792-30.9 2.488-14.654 11.747-25.22 19.114-33.194h3.186s-3.883 3.987-5.277 5.482c-2.39 2.791-5.873 8.573-5.873 8.573l19.114 25.219 10.95-2.393s-.298 11.264 0 11.264c-8.461 7.078-14.534 13.457-18.914 23.724-2.688.997-11.549 4.885-11.549 4.885-4.18-.997 12.544-27.512 9.358-28.01-1.294-1.097-15.928-20.934-16.127-20.834-6.67 20.734-.2 42.464 11.647 57.615-1.294.898-2.588 1.595-2.488 1.396-4.978-7.177-9.458-15.65-11.35-22.827m-34.944-10.367c.797 1.197 4.182-25.318-4.778-46.45.896-.698 8.263-2.094 8.263-2.094l1.99 6.38-5.077 2.193.896 2.99c3.883-1.894 12.345-4.685 17.621-13.457 0 0 25.287-.2 25.884-.2.498 0-5.176 5.483-10.552 16.647-2.49 5.084-4.38 11.663-4.878 19.338-.1 1.496-5.775-7.177-5.775-7.177 1.394-7.376 5.277-14.553 9.06-21.73 0 0-5.774-.299-9.856-.2-6.371 6.978-10.254 10.666-19.811 13.956 3.484 11.264 24.789 16.647 20.01 15.55-.995-.2-2.19 10.267-1.195 22.229.2 9.47 5.277 25.319 5.476 25.219 0 0-3.385.797-3.684.2.598-.1-5.077 1.295-5.077 1.295l-1.99-5.881 5.375-2.492-.896-3.29s-11.946 3.689-17.82 14.155H55.415c10.055-11.064 14.237-21.93 16.427-36.383 2.19.299 6.57-.798 6.57-.798m64.312-95.194c3.285-2.791 9.856-9.968 9.856-9.968l.1 3.688-7.467 7.875.1 48.444-2.49-2.492zm-3.485 17.743c-1.393.598-4.081 3.788-5.276 7.376-8.661-7.775-5.077-22.129-.398-25.12 1.394 3.09 5.376 7.277 5.276 7.178-.896 3.29-1.593 6.678.398 10.566M62.484 21.277l66.9.1c-3.783 7.575-7.367 13.656-11.35 21.132-2.09 2.592-47.785-8.274-48.084-7.177z"/>
    <path fill="#d40000" d="m26.246 218.245-.398-63.596 7.566 7.476.498 48.844zm34.944-12.26c-1.593.199-.697-1.197-.399-2.592.2-.798-.597-1.495-.597-1.794 0-1.396 1.095-1.994 5.675-1.894 10.95.797 16.625 4.286 22.897 5.98 6.073 1.595 12.046 1.496 18.616 1.396.498.3 2.29 4.884 1.892 5.383-14.933 2.89-34.047-8.274-48.084-6.48m27.078-32.995c-1.593-1.196-3.086-1.395-4.58-1.594 2.589-4.586 5.675-8.772 10.951-11.364l2.39 6.08c-2.987 1.595-5.973 3.49-8.76 6.878M56.61 157.34s-2.29 3.689-4.38 5.483c-6.272-8.572-20.409-26.714-20.409-26.714l-5.973 3.09s0-3.489.1-3.788c16.227-8.373 27.277-24.322 32.155-39.174 0 0 2.589 2.69 2.29 3.787-4.38 11.763-11.847 23.525-22.897 32.297zm20.21-17.344h20.408l.896 7.177c-7.865 2.692-14.336 8.074-20.31 14.255l-9.656-.2c3.086-6.977 7.566-14.055 8.661-21.232m75.66-30.203c.697 1.994 0 4.187.299 4.087-24.49 12.161-31.46 38.975-31.46 38.975s-2.289-3.688-2.19-4.286c12.644-28.41 21.206-29.207 22.798-32.297l-19.313-25.12 4.38-5.98 20.707 27.113c1.892-.897 3.087-1.694 4.78-2.492m-12.046 36.782c4.181-7.476 8.462-11.862 12.743-14.852l-.2 9.968zM25.948 117.07l.1-9.67 12.642-5.482c-3.584 7.676-8.263 11.763-12.742 15.152m56.148-8.672-.697-6.779c7.665-3.389 14.435-7.874 19.91-14.055 5.874-.299 9.856.1 9.856 0 0 0-5.575 8.274-9.258 21.232zm63.515-71.172 6.969-7.077.199 63.396-6.969-6.878zM84.286 88.76l-2.19-6.28c3.484-1.296 6.073-4.187 8.561-6.978 1.693 1.495 3.783 1.994 4.58 2.293.995.2-7.068 9.968-10.951 10.965M71.244 41.213s-.896-.498-.796-1.196c.299-.897-.896-2.99-.896-2.99 14.833-4.486 36.437 8.273 49.279 5.582-.1.897 0 1.993-.299 2.79.399 1.795.697 1.895-1.095 2.991-9.06 2.592-18.517-2.89-27.277-5.482-7.268-2.393-13.042-1.795-18.916-1.695"/>
    <path fill="#100f08" d="m61.687 20.38 2.688 5.183-.498.3c.697 1.195 1.394 2.59 2.091 3.887l.498-.1c.896 1.695 1.294 2.392 2.39 4.386h-.499c.299.897.996 1.495.996 2.193 0 .797-.2 1.595.299 2.193.597.598.696.797.497 1.196-.298.997.598 2.093 1.494 1.994 6.47-.897 13.14-.1 19.711 1.894 4.779 1.495 8.96 3.19 12.942 4.386 1.294.398 3.783.996 5.973 1.096 6.073.399 9.458-.797 8.462-3.389-.1-.2-.298-.399-.298-.498 0-.2 0-.4.298-.698.996-.997.399-1.794-.199-2.89 0 0 7.765-14.056 11.748-21.033zm67.597 1.296-5.674 9.868c-3.087-.598-3.783 1.994-3.783 2.392-3.983-.996-3.385 4.187-1.394 4.486.1.797-3.285 1.695-5.077-.1 2.687.399 3.683-3.29.398-4.087 4.38-3.289-3.883-8.273-3.982-1.395-3.883-.698-3.385 4.485-.896 4.884-1.295 1.396-4.978 1.396-6.87-1.495 3.286 1.695 5.078-2.691 1.693-3.987 4.181-3.688-4.082-7.177-3.883-1.097-3.086-1.894-5.276 2.891-1.095 3.589-.199.897-5.674.897-7.068-1.396 3.882.897 4.082-3.887.597-4.286 3.385-4.386-5.276-6.579-3.783-.598-3.385-1.296-4.679 2.89-1.394 4.187.2.697-5.276 1.196-7.267-1.197 4.181-.598 2.788-4.784 0-4.386 0 0 0-.1.2-.498 1.293-4.087-5.675-4.486-4.68-.1.2.4.299.897.299.897-1.892-.398-3.086.4-2.987 2.193.498 2.393 1.693 2.193 3.385 1.695.697.698-3.883 3.09-6.77.997 3.485-.997 1.693-5.184-1.194-4.586-.1-1.295-1.593-3.19-3.385-2.292l-1.991-3.888zm5.675 55.023-4.082.1c-2.887 2.99-23.793 22.328-20.309 51.634 1.493 12.56 4.978 23.425 14.236 36.184l2.489-1.495.398.3 25.785-14.953v-4.486l-29.866 12.66c-.598-.598-.896-1.296-1.394-2.093l11.946-5.084s.299-.698.398-1.097c3.983-10.067 11.947-17.344 18.916-22.926 0-9.868-.1-30.602-.1-30.602l-18.02-18.142a67 67 0 0 0-6.37 6.679l20.707 27.412-1.792 1.196-20.508-27.312c2.389-2.891 4.977-5.383 7.566-7.975m18.417 17.743s-.1-47.049-.2-69.776l-10.75 11.164v47.747zm-.896-65.29-7.566 7.874.1 48.445-1.992-1.894V36.428l9.458-9.968zm-73.869-1.097c.2.399.1.997-.199 1.396-1.593 1.894 3.286 5.283 6.87 4.685 2.687-.399 4.977-2.094 3.982-3.29-.797-.997-.3-1.993.696-1.993s1.792.797.896 1.894c-1.891 2.392.996 5.283 5.476 5.283 3.186 0 4.181-.698 3.982-2.99-.1-1.097.1-1.297.896-1.496 1.195-.299 1.792 1.097.796 2.093-2.09 2.193.3 5.483 4.182 5.682 1.393.1 1.692 0 3.385-.897 1.294-.698 1.692-1.794 1.095-2.592-.797-1.096.298-2.392 1.493-1.794.896.399 1.294 1.097.299 2.193-1.295 1.495-.697 2.791 1.792 3.589q2.837 1.046 4.18-.3c.3-.299.897-.797.897-.598a328 328 0 0 1-1.095 1.994c-3.982 1.794-7.168-1.595-7.069-1.695-4.18 2.393-7.864 1.894-10.95-2.193-.797.499-6.571 1.496-10.752-3.09-4.182 2.094-8.164 1.197-11.648-1.096-2.588 2.492-5.276 2.79-8.064 1.694l-.796-1.694c.199-.1 1.095 1.694 5.575.897 1.493-.299 3.982-2.791 2.588-3.987-.697-.897-.697-1.396-.1-1.894.3-.698 1.295-.399 1.593.2M67.86 30.248c.199.499.298 1.296 0 .798-.1-.3-.896-1.396-.896-1.396.398-.1.696.3.896.598m84.62.399v62.6l-6.47-6.48-.3-49.043zm-74.765 2.99 1.991 1.296h-3.683zm11.35 1.097 1.692 1.694-3.584-.797zm32.056.897-.797 1.595c-.398-.598-.597-1.595.797-1.595m12.842 26.016c1.294-2.89 2.987-6.678 5.874-7.874-2.09-4.187-1.792-8.373-.299-10.666-2.09-1.994-4.28-4.386-5.674-7.775-6.67 5.98-7.766 18.142.1 26.315m-.199-25.219.498 1.097c-5.973 7.376-4.082 17.045.199 22.129l-.597 1.296c-5.277-5.483-7.666-17.345-.1-24.522m-35.64 4.187c6.869 1.994 12.444 5.183 20.408 2.392v1.595c-5.077 3.29-15.231-.2-22.1-2.691-11.051-4.087-19.613-3.888-25.685-3.39-.498-.099-.996-1.495-.1-1.495 11.548-.199 9.657-1.694 27.477 3.589m1.593-2.791 2.29 2.392c-1.693-.498-3.385-1.096-4.879-1.894zm34.644.598.399.598c.199.3-1.295.399-.996.1zm-39.025 4.486c8.263 3.09 17.323 6.28 23.296 3.488 0 0 0 1.197-.597 1.496 0 0-.598.498-2.688.797-9.657.797-15.929-3.19-23.694-5.582-2.987-.897-7.666-1.994-12.544-2.193-2.887-.1-7.367.299-7.367.299-.995-.1-.995-.698-.995-1.196 8.362-1.196 16.028-.399 24.59 2.89m39.921-2.99h.299l.796 1.096-.995 1.595s-.896-.798-1.294-1.595c-.2-.598.398-1.097 1.194-1.097m-24.29.298 2.588 1.994c-1.991.1-4.182.2-6.372-.698zm22.1.997c.2 0 .398.2.697.698.498.797.398.997-.498 1.296-1.194.398-1.294.299-.896-.798.2-.797.398-1.196.697-1.196m3.982.498 1.792 1.496c-.995 2.591-1.593 5.781.299 10.466-.2 0-1.493 1.296-1.892 1.495-1.095-.498-3.584-9.669-.199-13.457m-1.99 1.994-.499 2.791c0 .2-1.99-1.296-1.792-2.093.399-.997 1.494-.798 2.29-.698m-3.187.997c.2 0 .598.598.996 1.296.398.598.299.797-.498 1.495-1.095 1.196-1.393.797-1.095-1.196.1-.997.299-1.595.597-1.595m2.29 2.492c.2 0 .299 0 .398.1l.1 2.79c0 .2-2.09-.1-2.39-1.196-.298-.598 1.096-1.694 1.892-1.694m-2.787 2.392c.199 0 .597.3 1.095.598.796.499.796.698.1 1.595-.797.997-1.195.897-1.295-.897-.1-.797-.1-1.296.1-1.296m3.185.997c.1 0 .1 0 .2.1.398.299.995 3.09.696 3.389-.398.399-2.19-.1-2.588-.798-.398-.598.996-2.691 1.692-2.691m-2.29 3.29c.2 0 .598.1 1.195.398.299.2.896.499 1.095.798.2.498-.1 1.196-.597 1.794-.299.399-.597.1-1.195-1.196-.597-1.097-.896-1.795-.497-1.795m3.684 1.196h.1c.597.299.498 1.395-.2 2.193-.895.897-1.692.199-.995-.898.398-.797.797-1.295 1.095-1.295M84.485 80.786c-.498 0-1.394.499-1.792.997-.498.598-.896.498-1.394.498-.597 0-1.593.1-2.787.698-.697.3-.996.399-2.09.498-.698 0-1.395.1-1.494.2-.2.1-.597.299-1.095.399-.896.299-.598.498-.1 1.694 2.688 6.878 4.58 14.952 5.277 21.531.796 7.476.497 16.647-.498 23.624-2.589 0-4.181-.1-6.87-.1-1.791 15.052-6.869 27.014-16.824 37.78l26.98.1c3.085-8.274 17.222-14.654 17.62-14.155l.697 2.99s-10.155 1.495-16.924 14.454c.697-.4 3.285-.1 4.878 1.595 3.385-4.287 8.86-7.078 8.86-6.978l.2-.499s.995-.299 1.89-.498c.3-.1.897-.2 1.295-.299.597-.2.896-.399 1.792-.399 1.892.2 3.883-.398 3.783-.398-5.675-15.85-7.068-30.204-4.878-46.85 2.09 0 6.77.1 6.77.1.497-4.685 1.095-9.37 2.488-13.756 1.792-5.682 4.082-10.965 7.566-15.75 1.992-2.99 3.783-5.183 5.874-7.974l-26.382.1c-3.484 5.88-10.254 10.865-15.63 12.858-1.791.698-2.09.598-2.389-.299-.498-1.595-.498-1.495.896-1.894.498-.1 1.991-.997 4.38-2.093 5.078-2.592 8.562-7.376 10.653-10.566.796-1.296.298-.997-1.095-.997-1.294-.1-1.892-.498-2.987-1.595-.398-.399-.597-.698-.796-.698-1.394 1.894-3.883 4.785-5.874 5.682m6.172-5.084c1.195 1.296 2.589 1.994 4.48 2.293-2.986 4.685-6.57 8.373-10.752 10.566l-2.09-5.98c5.177-2.393 6.57-4.885 8.362-6.879m43.007 1.894c-27.875 26.017-26.282 58.712-6.77 85.327l-2.09 1.196c-18.318-24.72-21.702-61.403 6.372-86.622zm-17.521 3.19h6.87l-4.68 6.08h-6.272zm-1.095.1-3.783 6.08-10.254.1c-6.172 7.576-12.743 11.364-19.413 13.856l-1.294-6.48s10.652-2.591 17.521-13.656zm-10.453.498-2.39 2.692 2.49 2.492 2.29-2.592zm5.376-.1-2.39 2.493 1.892 2.492 2.489-2.492zm-11.847.499-.398 3.987 3.086.997.498-3.39zm18.815.1-2.29 3.588 3.386.1 2.389-3.489zm-35.341.897 2.19 6.08-1.891.897-1.991-6.38zm-2.588.997 2.29 6.38-1.892.597-2.09-6.579zm2.688 25.02c.298 8.771.398 14.154-1.096 21.83-.1.398-1.692 0-1.692 0 .2.099.896-8.773.796-14.255-.1-10.566-1.891-21.033-5.973-31.4.797-.498 2.688-.697 2.688-.697 2.688 7.875 4.978 16.447 5.277 24.521M54.32 84.374c8.96 12.06 15.431 28.309 14.336 44.457-.996 18.74-8.064 29.505-20.508 42.464l-3.186.1c14.635-14.155 21.106-26.216 21.703-42.265.597-18.341-4.978-30.602-14.336-43.66zm-28.87 16.547v4.385L56.112 92.05l-4.38-6.579zm71.977-14.354-3.385.199.1 3.39 3.484-.1zm29.766-.698 19.911 26.216-4.878 3.688-18.915-24.621zm-15.63 1.794 5.974.1-2.29 3.887h-5.774zm-1.095.1c-2.687 5.083-6.47 10.965-8.66 20.434H82.194c0-2.193-.298-4.286-.597-6.479 8.462-3.09 14.933-7.775 19.811-13.955zm3.684.299-2.588 1.495 1.592 1.794 2.788-1.096zm-23.395 1.894-.797 3.389 3.186 1.196.598-3.987zm18.318 2.492h5.674l-2.389 4.784-5.675-.1zm13.539-.598 18.816 24.521-1.792 1.396-18.418-24.023zm-11.35.996-2.587 2.193 1.891 2.293 2.39-1.894c.099-.1-1.693-2.592-1.693-2.592m-24.987.2-.796 3.29 3.285.896.597-3.488zm-4.58 2.093-.696 3.19 3.086.797.697-3.09zm-25.684-.299c.199 0-.498 3.788-1.494 4.486-.497.299-.696.299-1.095-.2-.298-.299-1.593-2.392-1.593-2.392l1.096-.598c1.294 2.193 1.294 1.096 1.891-.698zm-5.177 2.193c.398 0 .995.498 1.593 1.595.896 1.495.796 1.595-.598 2.093-2.588.698-3.484.897-2.687-.897.796-1.794 1.194-2.791 1.692-2.791m7.666-.299 1.792 2.99Q49.69 126.79 26.246 138.601v-2.99c18.418-10.567 25.884-23.027 32.256-38.876m47.885 1.296 5.575.1-1.494 4.286h-5.873zm-57.243-.1c-4.48 10.865-10.653 20.235-22.997 28.21v-2.891c13.838-8.373 19.81-24.123 19.81-24.123zm70.085-.1c3.285.1 6.77 3.689 6.372 6.679-.2 2.093.199 3.688.696 2.791 1.295-1.894 4.978-.598 4.879 1.595 0 1.196-.797 1.395-1.295.299-.696-1.595-2.588-1.695-2.887 0-.298 1.595 1.095 2.791 4.68 4.087 4.18.997 6.67 4.785 5.176 6.878-.498.598-.796.698-.896.399 0-.1-.1-.499-.199-.997-.498-2.293-1.593-3.19-2.887-2.492-.697.398-.597.897-.2 1.595.499.897.2 1.295-.696.797-1.493-.698-1.891-2.492-.498-3.29 1.693-.697 1.095-.797-.995-1.495-4.58-1.594-6.471-4.386-6.67-9.868.1-2.492-.299-3.39-1.394-3.688-1.095-.3-2.29 1.096-1.493 1.794.398.399.796.698.497.997-.696.698-2.488-.399-2.488-1.595 0-.797.298-.897 1.493-1.894.299-.299 0-.698-.398-.698-1.892.598-1.792-1.794-.797-1.894m-10.254.698-2.787 1.595 1.393 1.994 3.087-1.495zm-53.958 1.595c.299 0 .598.3.598.598 0 .3-.3.598-.598.598s-.597-.299-.597-.598q.15-.598.597-.598m5.675.2c5.873 12.858 7.267 27.511 3.185 42.264l-15.829-20.634c6.173-6.978 10.155-14.852 12.644-21.63m-21.305.996-14.136 5.981-.1 10.666c7.964-5.483 11.25-11.065 14.236-16.647m13.54-.1c1.393 0 .696 3.689-1.096 4.985-.696.498-1.095.498-1.294-.598-.1-.499-.697-1.695-1.393-2.592-.797-1.097-.797-1.097.398-1.196 1.294.1 2.389-.499 3.385-.598m-1.394 1.595c-.996 0-1.294.499-.697 1.097.498.598.896.399 1.294-.399.2-.498 0-.698-.597-.698m-25.386 13.756v-9.07l12.046-5.084c-2.39 5.283-6.87 10.566-12.046 14.154m107.02 7.277-1.593 1.595-15.53-20.435.995-2.591zm-85.218-20.634c.498 0 1.692 1.794 1.991 3.09.2.997 0 1.196-1.792 1.495-.796.2-2.787 0-2.588-.498.199-.797 2.19-4.087 2.389-4.087m56.347.2 5.675.1-1.294 4.684-5.974-.1zm2.489.299-2.688 1.794 2.09 2.093 2.788-1.694zm8.86 1.993 15.73 20.534c-4.68 5.981-9.358 12.959-12.444 22.03-5.575-13.158-7.666-25.917-3.286-42.564M51.831 107.5c.3 0 .598.3.598.599s-.299.598-.598.598-.597-.3-.597-.598q0-.6.597-.599m-1.891.798c.996.1.1 3.19-1.394 4.386-1.194.897-1.692.498-1.891-1.196-.1-.598-.697-1.595-1.294-2.393-.598-.897-.399-.996 1.194-.697 1.095.199 2.39-.1 3.385-.1m52.664.698h5.973l-.896 7.077zm-58.04.398c.896.897 2.09 3.988 1.493 4.187-.696.299-3.882-.1-4.28-.498-.2-.3-.2-.3.298-.997.299-.399.797-1.196 1.195-1.695.398-.399.796-1.495 1.294-.997m3.285.1c-.896 0-.995.2-.497 1.097.398.797.597.897 1.194.299.896-.698.498-1.496-.697-1.396m104.532.598.199 3.489c-22.898 11.463-31.46 38.377-31.559 38.377l-1.692-3.09c10.453-26.017 24.49-33.592 33.052-38.776M44.564 114.28c1.394 0 1.792-.1 1.792.398 0 1.396-1.294 3.29-2.787 4.087-.996.499-1.096.499-1.195-.697-.1-.997-.398-2.193-.896-3.19-.2-.399-.697-1.196 0-.997.697.2 2.19.399 3.086.399m3.086-.399c.299 0 .598.299.598.598s-.3.598-.598.598-.597-.299-.597-.598.199-.598.597-.598m-7.367.797c.2 0 .498.499.797 1.296.597 1.595.796 2.492.597 2.891-.299.598-4.082.2-4.679-.498-.1.199 2.788-3.29 3.285-3.689m2.788.499c-.498 0-.299.399.1 1.296.298.697.696.797 1.094.299.598-.598.697-1.097.3-1.396-.598-.2-.996-.2-1.494-.2m109.41 3.489v1.196c-.897-.3-1.395-.598-2.49-.997-.597-.2-.995-.399-.398-.997a11.8 11.8 0 0 1 2.788-2.292v1.295c-1.593.698-1.394 1.396.1 1.795m-66.104-1.197h6.271v4.187h4.978l-.398 4.785h-4.58v4.186h-6.271v-4.186h-4.48l.398-4.785h4.181zm14.236 0c-3.186 15.95-.299 32.895 4.679 46.75l-2.49.3c-3.882-11.065-6.868-26.814-3.782-46.95 0-.1 1.095-.1 1.593-.1m46.989.3c.299 0 .597.299.597.598s-.298.598-.597.598-.597-.3-.597-.598c0-.3.199-.598.597-.598M36.4 119.163c.199 0 .896.3 1.393.399.896.2 1.494.299 2.29.398 1.593 0 1.792 0 1.095 1.296-.498.897-1.593 2.193-2.389 2.592-1.095.598-1.493.498-1.394-.598 0-.698-.298-1.994-.697-2.89-.298-.699-.697-1.197-.298-1.197m6.67.498c.298 0 .597.3.597.599s-.299.598-.597.598-.598-.3-.598-.598c0-.3.2-.599.598-.599m106.323-.1c.398 0 1.195.3 1.891.599 1.892.897 1.792 1.096-.696 2.89-1.792 1.396-2.29 1.496-2.29-.598-.1-1.893.1-2.89 1.095-2.89m-113.989.599c.697 0 1.593 3.887.896 4.186-.995.499-4.181-.498-4.181-1.395 0-.3 2.986-2.791 3.285-2.791m111.799-.2c.398 0 .497.3.497 1.595 0 .698.1 1.695.1 2.193.1.997 0 1.097-.796.598-.498-.299-1.593-.797-2.688-.897-.896-.1-.996-.498-.697-1.096.796-1.296 2.19-2.293 3.584-2.393m-109.011.599c-.598 0-.498.299-.1 1.295.299.698.797.798 1.294.2.697-.798.598-1.196-.497-1.396-.2-.1-.598-.1-.697-.1m108.115.897c-.299 0-.598.2-.797.398-.597.4-.796.698 0 .997.797.3 1.195.399 1.095-.299 0-.498 0-1.096-.298-1.096m-59.334.498v4.187h5.077v-4.187zm54.854.399c.299 0 .597.299.597.598s-.298.598-.597.598-.597-.3-.597-.598.298-.598.597-.598m-94.178.598 15.83 20.534-1.096 2.691-16.327-21.63zm104.93-.1v2.692c-1.792 1.295-13.141 9.669-19.115 23.624l-3.086 1.296c4.48-11.962 13.739-22.329 22.2-27.612M31.82 124.047c.996.3 1.991.997 2.987 1.197 1.095.1 1.493.1 1.194.697-.696 1.296-1.99 2.692-3.285 3.09-.995.3-1.394.2-1.294-.398.299-1.097.299-2.094.299-3.09.199-.698-.299-1.496.1-1.496m-1.194.2c.696.598.497 4.186-.2 4.884-.398.399-1.493 0-3.185-.897-1.095-.598-1.294-.997-.797-1.396.996-.498 3.684-2.69 4.182-2.591m113.391.1c.299 0 .796.1 1.294.199 1.991.399 2.39.897.697 2.292-.597.499-1.294 1.097-1.493 1.396-.896 1.096-1.494.299-1.693-1.695-.1-1.594.1-2.392 1.195-2.193m-2.489.199c.299 0 .498.2.498.598 0 .498.398 2.691.597 3.389.398.997.1 1.296-.796.797-.597-.299-2.29-.598-3.186-.498-.995.1-.995-.2-.697-1.096.598-1.595 2.688-3.19 3.584-3.19m-108.712.698c-.398 0-.398.498-.1 1.694.1.399.398.399.996-.1.697-.498.697-.797-.1-1.295-.398-.2-.597-.3-.796-.3m4.48.1c.298 0 .597.298.597.597 0 .3-.299.598-.597.598-.299 0-.598-.299-.598-.598.1-.299.299-.598.598-.598m102.34 2.292c.3.299 1.295.299 1.494.1.299-.3.1-1.396-.1-1.595-.497-.2-1.692 1.096-1.393 1.495m-95.172 2.193c.298 1.694 2.687 1.595 2.389-.2-.2-.996-.2-.996.298-.996 2.39.1 1.992 3.887-.796 3.588-.597.1-.697.3-.2.499.499.199 2.29.697 2.59.697 2.986 0 7.366 4.586 7.167 8.772-.1 2.692.797 4.586 1.792 4.885.697.199 1.792-.499 1.693-1.296-.1-1.097.796-.798 1.294 0 .796 1.096-.2 2.79-2.19 2.591-.797.2.597.698 1.692.997.996.1.1 1.196 0 1.495-.498.598-2.29.1-3.684-.996-1.692-1.396-2.389-3.19-2.588-6.878-.1-2.293-.299-2.791-.995-1.894-1.195 2.193-4.082 1.096-4.48-1.196-.2-1.197.896-2.094 1.194-.997.896 2.292 3.086 1.694 2.788-.499-.2-1.495-1.693-2.292-4.58-3.09-3.484-.997-4.58-2.193-5.276-5.083-.299-1.296-.299-1.994.398-2.592.299-.3.797-.698.797-.698s.497 1.994.697 2.89m91.688-1.794c.299 0 .598.299.598.598s-.299.598-.598.598-.597-.3-.597-.598q0-.598.597-.598m-110.106.498c.996.399 1.892.897 2.987 1.296.697.2.498.797-.2 1.595-.796.997-1.592 1.395-2.687 1.993v-1.595c1.393-.498 2.19-1.594-.1-1.993zm112.794.897c.398 0 .996 0 1.593.2 1.693.299 1.892.498.896 1.694-.398.399-.896 1.097-1.195 1.495-.995 1.396-1.493.897-1.99-.897-.598-1.894-.698-2.592.696-2.492m-107.518.698c.3 0 .598.299.598.598s-.299.598-.598.598-.597-.299-.597-.598.299-.598.597-.598m105.826 1.296c.199.598.398 1.296.597 1.894.896 1.993.299 1.196-1.294 1.096-1.095-.1-2.788.1-3.285-.2-.2-.199 0-.896.298-1.594.498-.997 1.394-1.894 2.091-2.293 1.692-.897 1.294.1 1.593 1.097m-97.164-.698 18.118 24.123-1.393 1.993-18.617-24.82zm113.59 0c-9.457 6.878-13.041 15.151-13.738 16.248l13.838-5.383zm-18.019.797c-.498.1-1.294 1.097-.896 1.496.2.199.996.199 1.294.1.598-.2.2-1.596-.398-1.596M56.112 157.64l-3.882 4.884-20.11-26.216 5.077-3.688zm96.468-25.419.1 8.971-11.848 4.984c4.082-6.778 7.965-10.865 11.748-13.955m-80.838.698 4.779 6.18-5.774-.1zm59.931.498c.299 0 .598.3.598.598 0 .3-.299.599-.598.599-.298 0-.597-.3-.597-.599s.2-.598.597-.598m3.385 1.496c2.19 0 2.887.1 2.29 1.196-.796.997-1.294 1.993-2.29 2.99-.498.499-1.194-.598-1.792-2.392-.398-1.396-.199-1.794.598-1.794zm-2.489 1.993c.2.598.598 1.495.896 2.093.299.599.697 1.197.697 1.296-.1.3-.298.3-.896.1-1.194-.598-4.181 0-4.181-.2-.398-.597.2-2.292 1.394-3.488q.896-.897 1.493-.897c.299-.1.398.299.597 1.096m-101.046-.498 20.508 26.814-1.394 1.694-20.707-27.312s-3.286 1.595-4.182 2.193l.1 13.855h-.597l.1 70.175 11.448-11.463-.1-47.547c2.39 2.292 4.48 4.784 7.268 6.977h4.778c12.445-12.66 19.214-23.524 20.707-43.062.996-13.058-3.285-29.405-14.733-45.255l-2.788 1.695 5.475 8.373L45.76 98.73c-4.68 9.868-10.155 18.939-20.21 24.122l-.1 12.76-.198.298.1 3.988zm100.05.897c-.497 0-1.393 1.196-.995 1.595.498.2 1.195.2 1.494-.2.199-.299.1-1.096-.498-1.395m-61.025 2.79h5.973l-1.593 5.184-5.874-.1zm57.044 0c.298 0 .597.3.597.599s-.299.598-.597.598-.598-.299-.598-.598.299-.598.598-.598m-30.563.1.796 6.779c-6.57 2.392-13.639 6.48-19.81 13.955-1.096-.1-9.459.1-9.459.1.2 0 7.766-14.454 8.662-20.734zm-23.893.698-2.788 1.894 2.19 2.293 2.888-1.994zm57.442 0c.598 0 1.394.1 1.991.2.996.2 1.195.2.797 1.096-.498 1.097-1.494 3.19-1.792 3.29-.896.598-2.987-3.589-2.29-4.287.2-.199.597-.299 1.294-.299m-2.688 1.296c.299 0 .598.499.697.997.1.498 1.095 1.894 1.693 2.592.697.797.697.897-.399.997-1.294.1-2.488.398-3.185.598-1.095.398-1.294.299-1.095-.997.199-1.994 1.493-4.087 2.29-4.187m-.896 4.087c.1.399 1.892-.299 1.991-.797 0-.2-.696-1.396-1.095-1.396-.796.1-1.095 1.595-.896 2.193m-58.04-.299 5.675.1-1.891 4.685h-5.575zm2.49.598-2.688 1.695 2.09 2.093 2.589-1.794zm57.84.897c.498 0 .996 0 1.095.2.299.498-.896 3.29-.896 3.29l-1.99.797c-.4-.898-1.196-1.795-1.395-2.792-.1-.398.1-.598.598-.797.697-.399 1.792-.698 2.588-.698m-5.376.2c.299 0 .598.299.598.598s-.3.598-.598.598-.597-.3-.597-.598c0-.3.299-.598.597-.598m-25.884.1s1.195 6.977 1.295 6.18c-9.458 3.588-15.033 8.871-17.621 14.054h-17.82l3.982-6.18 10.552-.1c4.978-6.18 11.25-11.064 19.612-13.955m-2.29 1.594-.895 2.791 2.688 1.695.995-2.99zm29.07.1c.2 0 .398.399.896 1.196.299.598.797 1.495.797 1.495l-.797.3c-.597-2.194-1.194-1.396-1.294.597l-1.095.4s.1-1.895.697-2.991c.398-.598.597-.997.796-.997m-57.94 1.894 5.476.1-2.29 4.784-5.575-.2zm24.092.399-.398 3.588 2.986.598.399-3.389zm-21.703.1-2.688 1.793 1.792 2.393 2.589-1.794zm17.422 3.09-.597 3.289 2.787.598.598-3.29zm-60.528.199 6.968 6.977.399 48.545-6.97 6.977zm37.93 1.794 5.575.2-2.19 4.086-1.892-.1 2.489-1.694-1.593-2.093-2.589 1.694 1.394 2.093-3.783-.1zm35.938 1.196 1.892 6.28-2.29.399-1.692-5.881c.697-.4 1.394-.599 2.09-.798m-17.92.399v3.788l3.087.299.1-3.589zm15.133.598 1.692 5.98-1.393.4-2.091-5.682c.597-.3 1.195-.598 1.792-.698m-2.688 1.196 2.19 5.881c-3.086 1.296-6.272 3.987-8.661 6.58-1.792-1.297-2.788-1.496-3.883-1.795 3.087-5.582 6.67-8.573 10.354-10.666m-33.55 1.495 5.874.2-4.082 6.08h-6.57zm17.422.2-.398 3.588 3.086 1.894.498-3.688zm-3.783.498-2.19 2.392 2.39 2.692 2.19-2.791zm-4.977.2-2.688 2.392 2.09 2.79 2.39-2.79zm-33.65 2.192.3 47.348-9.757 9.47-.1-2.592 7.766-8.074c0-16.048 0-32.097-.1-48.046zm25.785-1.495-2.688 3.688h3.186l2.29-3.588zM45.26 186.348c-1.095 3.787-5.973 7.974-5.973 7.874 2.389 3.49 2.29 8.473.199 10.865 0-.1 3.882 3.19 4.38 4.885.299.698.398 1.495.797 2.193.1.2.398.598.398.598 9.557-9.67 5.077-20.933.199-26.415m.2.996c9.158 11.464 3.085 21.93-.1 24.92l-.598-.996c6.77-7.975 3.883-17.743 0-22.428zm-.996 2.193c.1.2.398.698.199.698l-.498-.1zm-.1 1.296c.2 0 .398.1.498.2.199.299-.797 2.99-1.394 2.292a4.7 4.7 0 0 1-.498-.997c-.199-.398-.1-.598.398-1.096.3-.2.697-.399.996-.399m1.294.698c.498 0 1.095 1.495 1.195 2.592 0 .1-1.593-.2-1.991-.698.1-.499.498-1.595.796-1.894m-3.584 1.296c2.788 5.582 2.589 9.968.2 13.955l-1.892-1.595c1.294-3.09 1.891-6.28-.2-10.466zm1.892 1.395c.199 0 .796.1 1.294.2 1.891.598 1.891 1.794.1 2.691-.697.399-.996.2-1.394-1.694-.2-.898-.299-1.197 0-1.197m3.584 2.094c.398 0 .497.697.597 1.894 0 1.096-.2 1.196-1.095.398-.996-.897-1.095-1.096-.2-1.794.2-.2.499-.498.698-.498m-2.49 1.794c.2 0 .698.299 1.195.698 1.295.996.996 1.595-.497 2.093-.996.299-.996.399-.896-1.396 0-.797-.1-1.295.199-1.395m16.726 1.595c-1.493.398-2.19 1.794-1.693 2.99.2.598.598.598.2.897-.498.499-.697 1.795-.2 2.193.598.3.797-.299.1.897l-11.648 21.531 69.787-.1-8.362-15.849s.697-2.591-.697-2.89c-.398-.1-.697-.499-.797-.897.1-1.097-.398-1.595-.796-2.094-6.67.897-12.345.499-17.123-.598-6.87-1.595-11.748-4.286-14.933-5.083-4.38-1.097-9.756-1.595-13.838-.997m3.683.2c5.376 0 11.449 1.594 15.73 3.488 4.38 1.794 9.06 3.19 13.738 3.887 3.883.499 7.765.2 11.449-.1.398-.099.796 0 1.095.3.796.897.199 1.395-1.693 1.595-3.086.299-6.968.1-10.353-.399-5.376-.598-11.05-2.293-16.028-4.286-6.173-2.293-11.847-3.09-16.227-2.393-2.49.4-2.788.4-2.788-.199.1-1.296 1.195-1.894 5.077-1.894m-17.62 3.687c-.2.598-1.892-1.296-1.892-1.794 0-.2 1.394-1.096 1.891-1.495.299-.2.2-.1.2.1.099.797 0 2.591-.2 3.19m-2.589-1.296c.796.1 2.09 2.193.896 2.492-.996.3-1.892.499-1.991-.199.498-1.595.697-2.193 1.095-2.293q-.15 0 0 0m45.098 7.177c4.977.898 11.448 1.396 15.73.997 2.388-.2 2.986-.2 2.886.897 0 .598.1.598-3.086.598-2.588.2-4.978-.1-7.466-.199-5.277-.299-9.956-1.196-14.336-2.691-4.878-1.296-9.06-3.688-13.838-4.187-4.38-.399-8.263.3-9.159.798-.299 0-.398-.4-.398-.798 0-.399.199-.698.498-.897 12.444-3.19 19.114 3.589 29.169 5.482m-43.505-4.186c.398 0 .298.598-.398 1.993-.598 1.097-.797 1.097-1.095 0-.399-1.196-.3-1.395.398-1.495.398-.2.697-.398 1.095-.498m-2.887.598c.498 0 1.194 2.193.796 2.691-.298.3-1.294.1-1.593-.299-.497-.598.1-2.392.797-2.392m21.902.598c1.99 0 3.882.2 5.674.498-.995.4-2.09.698-3.086 1.396-.797-.598-1.593-1.296-2.588-1.894m2.488 2.791c6.87-3.887 9.757 1.495 10.752 2.293 5.973-1.296 7.168-.698 10.553 2.99 5.973-2.99 8.96-.399 11.448 1.196 2.987-2.79 6.67-2.89 8.662-1.495.398.598.896 1.396.896 1.595s-.2 0-.896-.498c-3.485-2.592-9.358.598-7.865 3.987.398.897.398 1.296-.299 1.694-.896.598-1.99-.398-1.394-1.395.996-1.695.3-3.19-2.29-4.486-3.583-1.894-9.457.2-8.163 2.99.797.898.1 1.496-.995 1.496-1.195 0-1.493-.798-.797-1.595.896-1.097.697-2.093-.398-3.39-3.186-4.584-9.657-2.79-8.86 1.297.398.996-.697 1.395-1.792.996-.697-.299-.597-1.395.2-1.794.895-.1.995-1.395.895-2.193-.2-1.196-1.891-2.392-3.683-3.09-1.295-.498-2.49-.598-3.385-.498-1.991.2-3.086 1.495-2.788 3.588.2 1.196-.1 2.393-1.493 1.794-.796-.398-.597-1.196.2-1.993 2.687-2.691-2.788-5.98-6.074-3.688-.597.498-.995.498-.995.498 2.09-5.482 8.66-.598 8.561-.299m9.06-.698 4.181 1.595c-.996.2-1.593.499-2.29.698zm-10.852 1.695c-3.783-.698-4.081 3.588-1.493 4.286-3.385 4.785 5.575 6.579 3.883.698 4.58.797 3.683-4.386.298-4.386.797-1.994 7.069-.498 6.77.997-4.181.498-2.489 4.286-.697 4.286-4.38 4.187 4.38 8.074 4.181 1.794 3.584.798 3.982-3.987.598-4.286 1.294-1.794 5.674-.698 6.968 1.396-3.484.498-3.285 3.588-.497 4.086-3.485 4.486 5.077 6.18 4.18.898 3.087 1.096 4.78-3.09.797-4.287 4.082-2.492 8.562 1.196 8.064 1.296-4.679-.299-3.783 4.386-.398 4.187-2.19 4.884 6.371 5.183 4.181.1 3.783.1 3.485-4.387-.199-4.686 2.29-1.694 4.878-1.794 6.57-.299-3.484.898-2.09 4.984 1.494 3.888.299 3.389 3.086 2.691 3.186 2.592l2.488 4.685-66.9.1 5.675-10.667c3.385.2 3.285-3.09 3.086-3.19 2.29 1.596 4.68-2.392 1.394-3.588 2.688-2.79 6.67-.1 6.371.1m-21.802-.3c-.1.1-.199.2-.398 0-.597-.697.996-.797.398 0m13.838 1.695c.299.2.1.898-.1 1.097-.597.698-.796.598-.298-.499.199-.299.299-.598.398-.598m29.368.3 3.485.797-1.693.897c-.597-.498-1.194-1.096-1.792-1.695m10.852 1.495 3.783.199c-.498.299-.996.698-1.593 1.296-.498-.499-1.394-.997-2.19-1.495m12.643 3.887c.2.399 1.095 1.994.996 1.994-1.295.2-1.593-1.595-.996-1.994"/>
    <path fill="#d40000" d="M48.248 64.738C44.166 57.86 39.786 51.28 34.31 45.599c5.476-5.682 9.756-12.26 13.938-19.139 4.081 6.878 8.462 13.457 13.937 19.139-5.475 5.682-9.856 12.36-13.937 19.139M14.4 56.165c-1.693-2.89-3.485-5.582-5.775-7.974 2.29-2.393 4.082-5.084 5.774-7.975 1.693 2.891 3.485 5.582 5.774 7.975-2.19 2.392-3.982 5.183-5.774 7.974M130.38 184.753c-4.083 6.878-8.463 13.457-13.938 19.138 5.475 5.682 9.756 12.261 13.937 19.139 4.082-6.878 8.462-13.457 13.938-19.139-5.476-5.681-9.856-12.36-13.938-19.138M164.128 193.226c-1.693 2.89-3.485 5.582-5.774 7.974 2.29 2.392 4.081 5.084 5.774 7.974 1.692-2.89 3.484-5.582 5.774-7.974-2.19-2.293-4.082-5.084-5.774-7.974M15.096 34.833h2.688l-3.882-9.669-2.987 4.087v5.582h2.09v2.891H5.64v-2.89h2.389V13.9h-2.39v-2.492h7.467V14h-2.09v10.168l6.47-10.267h-2.29v-2.492h7.965V13.9h-2.09l-5.376 8.373 5.276 12.46h2.29v2.89h-8.164zM163.53 214.557h-2.687l3.882 9.67 2.987-4.088v-5.582h-2.09v-2.89h7.366v2.89h-2.39v20.933h2.39v2.492h-7.466v-2.592h2.09v-10.167l-6.47 10.267h2.289v2.492h-7.964v-2.492h2.09l5.376-8.373-5.276-12.46h-2.29v-2.89h8.164z"/>
</svg>
