<svg xmlns="http://www.w3.org/2000/svg" xml:space="preserve" width="178.6" height="249.4" viewBox="0 0 178.6 249.4">
    <path fill="#fbfbf6" stroke="#7f7f7f" stroke-width=".4" d="M3642.6-735.7h160.8c4.7 0 8.5 3.8 8.5 8.5v231.6c0 4.7-3.8 8.5-8.5 8.5h-160.8c-4.7 0-8.5-3.8-8.5-8.5v-231.6c0-4.7 3.8-8.5 8.5-8.5z" transform="translate(-3633.726 736.062)"/>
    <path fill="#d40000" d="M14.064 56.16s-1.8-2.5-4.2-5.5c-1.6-2-2.9-4.2-3-6-.1-2.1 1.2-4.3 3.5-4.4s3.3 1.6 3.7 3.1c.4-1.4 1.3-3.2 3.7-3.1 2.3.1 3.6 2.2 3.5 4.4-.1 1.9-1.4 4-3 6-2.4 3-4.2 5.5-4.2 5.5M164.464 193.26s-1.8 2.5-4.2 5.5c-1.6 2-2.9 4.2-3 6-.1 2.1 1.2 4.3 3.5 4.4s3.3-1.6 3.7-3.1c.4 1.4 1.3 3.2 3.7 3.1 2.3-.1 3.6-2.2 3.5-4.4-.1-1.9-1.4-4-3-6-2.4-3-4.2-5.5-4.2-5.5M16.064 35.86h2.6l-3.9-9.7-3 4.1v5.6h2.1v2.9h-7.3v-2.9h2.4v-20.9h-2.4v-2.5h7.5v2.6h-2.1v10.2l6.5-10.3h-2.3v-2.5h7.9v2.5h-2.1l-5.4 8.4 5.2 12.5h2.3v2.9h-8.2zM163.864 214.56h-2.6l3.9 9.7 3-4.1v-5.6h-2.1v-2.9h7.3v2.9h-2.4v20.9h2.4v2.5h-7.5v-2.6h2.1v-10.2l-6.5 10.3h2.3v2.5h-7.9v-2.5h2.1l5.4-8.4-5.2-12.5h-2.3v-2.9h8.2z"/>
    <path fill="#e2cf00" d="M64.964 211.36c14 1.6 28.3 2 43 .9 3.8 5.3 11.4 16.1 11.4 16.1l-69.3.6zm-18 3.7c1.9-3.8 2.2-7.4 1.9-12.7-.3-4 2.2-7.2 4.8-6 2 .9 1.1 4.7-1 3.9-.8-.3-1.5 0-1.4 1.8.2 4.5 1.4 9.5.3 13.8-.7 4.2-6.3 2.3-4.6-.8m-17.4-5.9c-2.2-3.3 1.7-6.4 4.2-4.9 1.2.5 1 1.7-.5 1.1-2-.9-4.3 2.3-2.5 3.5.8.6 1.1.5.5-.2-1.7-1.9 2.6-2.8 2.5-1.5-.3 1.6-.3 2.2-.5 2.5-.8 1.4-2.5.7-3.7-.5m6.1-13.9c-2.4-3 .3-5.3.3-5.2.7-.8-5.6-12.7-4.8-12.8 8-.9 16.1-.2 24.1 0 0 0-4.3 7.8-6 11.6-.7 1.5.9 3.4.3 4.5-2.1 2.3-.8 4.8-2.1 4.9-3.3-.6-6.8-1-11.1 0-.3 0-.3-2-.7-3m34.6-82.7c4 20.8-1.9 42.8-15.6 57.3-1.9-1.9-3.4-5.4-5.3-7.7-5.3-1.6-9.2.3-12.9 2.2-3.3-1.9-7.1-3.1-10.7-3l-.1-3.2c3.7-.1 7.6.3 10.9 2.3l5.2-2.1-16.1-16.8.2-2.9 19.5 19.8 2.5.1c-5.6-14.9-.8-38.4 22.4-46m27.2 26 2.8 13.6s-15.8 15.8-24.1 23.9l-6.9-.6c3.5-5.2 5.4-10.5 7.7-15.7zm56 18.6c-6.6 7.5-14.5 12.2-23.3 17.5-3.5-4-7.8-8.3-10.2-12.2 7.7-4.1 15-7.3 22.5-14.6-.4.5-9.6 3.6-9.5 3.2-.3 1.5-.1 2.5-1.6 2.9-1.8-2.5-3.5-4.5-6.2-5.6-1.2.1-2.7-.7-2.7-.7.8-.2.4-9.7 0-9.8.9-.3 1.7-.9 2.9.4.5.4 5.8-5 7.6-6.8 7.1-.6 13.3.1 20.2-.1-.2 8.5.3 17.3.3 25.8m-44.8-21.5c-.2-.4-2-14.4-.3-23.2 4.6-14.8 3.5-19 15.5-33.6.8-.8 3.5 1.7 5.6 6.1 6 3.8 13.7-1.1 13.7-1.1s3 2.5 9.7 3.8l-.1 2.6c0 .8-7.6-.8-9.2-2.4 0 0-5.7 1.9-5.7 2.2 0 1.5 15.1 15.5 15.1 15.5l-.1 3.3c.1 0-20.6-21.7-20.9-19.4 5.8 25.6-4.2 38.5-23.3 46.2m-25-4.5-.3-13.5 12.7.2.5 13.6zm-58.1-14.5c.3-.5-.5-25.1-.4-25.1 8.1-8.1 16-12.7 23.9-17.6 3.6 3.6 6.6 6.6 9.3 11l-10.9 6.8c.4 1.7-.7 2.3 6.4 8.7.1-.4 2.4-1.8 2.8.2-1 4.1.4 7.7.6 9.9-1 1.3-3.1-.1-3.1-.1-1.4-1.5-6.8 5.8-8.4 6.6-6.8-.4-20.6.1-20.2-.4m76.4-43.9c0 .1 7 0 6.9.2-1.3 3.1-4.1 9.4-7 16.2-2.4 4-19.7 20.7-19.7 20.7-.8-4.8-2-9.6-3.3-14.3zm30-23.2c2.5 1.1 9.5.5 10.6 0 1.4 1 .5 2.3.4 3 1.5 1.9 2.3 2.5.6 5.6-.4 0 5.1 12.5 5.3 12.5 0 0-5.8-2.8-7.9-4.7l-4 5.4-4.7-6.1c0 .5-9 6.6-9.1 6.3-.3-.3 8.2-9.5 6.5-14.9-.4-1.3.5-2.6 1.2-3.8.5-.8-.1-2.3 1.1-3.3m-4.6-1.2c.4-.4-2.2-11.8.6-16.3 1.2-1.7 3.3-1.7 4.2-.4.7 1.9-1.3 4.5-1.7 5.8-1.3 3.6.6 8.3-.3 11.7-3 7.4-8-.7-2.8-.8m18.9-5c-1.5.1-.5-4.5-.2-5.8 0-.3 2.7-.9 3.7.9 1.6 2.7-.3 6-3.5 4.9m-17.9-22.8-14.1 17.4c-14.3-1.7-28.6-2.7-43.2-.5l-11.8-16.6z"/>
    <path fill="#131f67" d="M154.564 19.46h-130.6v210.5h130.6zm-26.3 1.1-15.7 19.5-.4.1c1 3.1 2.5 6.9 4 9.9 2.3 4.7 8 13.4 4.4 20.4-.3.6-.7.9-1.1.9-.6 0-.6-.4-.2-1.1.8-1.5 1.3-5.2 1-7.1-.2-1.2-.9-3.1-2.2-6-5.9-11.1-7.8-17-7.5-17-.1 0-.2-.1-.4-.2l-.6-.2c2.1 7 5.4 12.9 8.1 18.4 2.2 5.1 2.4 7 1.3 10.7-.4 1.4-1.2 2.3-2 2.3-.6 0-.6-.1-.2-.8 2.1-3.8 1.6-7.9-1-12.7-3.8-7.9-6-12.9-7.4-18 0 0-.7-.2-.9-.3 1.1 5.3 4.2 11.4 7.1 17.7 2.4 4.8 3.1 8.3 2.2 11.1-.3 1.2-1.2 3-2.3 3-.4 0-.5-.2-.1-.9 1.8-3.1 2.1-5.9-1.1-12.4-2.9-6-5.9-12.6-6.9-18.4-.1-.5-1.3-1-1.1-.3 1.6 6.9 4.7 13.9 8 20.8 1.9 4.3 2.1 7 .7 9.4-.8 1.3-1 1.6-1.6 1.6-.7 0-.7 0-.3-.8 1.7-3.6 1.4-6.7-.8-11.9-3.1-7.1-5.7-13-6.8-19.2-.2-.1-1.3-.5-1.1-.2 1.6 6 3.5 11.5 6.1 17.1.9 1.9 2.3 5.7 2.8 7.6.9 3.6-1.1 8.5-3.7 8.8-1 .1-.9-.4.2-1.4 1.9-1.8 2.2-4.6 1.6-7.8-.5-2.5-1.3-5.2-2.4-7.9-2.3-5.5-4.8-11.3-5.6-16.4 0-.5-1-.5-.7 0 .6 3.6 1.9 7.7 3.4 11.5 1.6 4.2 4 8.8 4.8 13.9.6 4.2-1.9 8.1-5.1 8.3-3.8.3-4.5-3.5-3.6-5.2 1.5-2.6 5.8-1.1 4.5 1.6-.7 1.6-3 1.1-2.9-.6 0-.2.2-.6.2-.6-.1 0-.4.3-.5.4-.8 1.4 1.5 3.2 3.1 2.1 5.3-2.9 1.7-11.8-.6-17.3-2.2-5.1-3.9-9.6-4.6-14.3-.2-.1-1.1-.4-1-.2.6 2.5.9 4.6 1.6 6.7 1 3.3 2.8 7 4.3 10.7 1.3 3.6 2.7 6.7 2.1 10.5-.1.4-.2.8-.4 1-.2.3-.4.2-.5-.8 0-.1-.2-.3-.2-.5q.15-2.1-.3-4.2c-.3-1.1-.9-2.3-2.2-4.5-.5-.8-1.8-3.3-1.3-1.6.3 1 1.1 3.1 2.1 4.7.6 1 1.2 3.6 1 4.1s-.6.5-.8.4c-.2-.2-.2-.9-.2-1.3-.2-1.8-2-4.9-3.3-6.2-.9-1 2.1 4.4 2.4 5.8.1.6.3 1.1.1 1.4-.1.2-.4.2-.7.1s-.2-.2-.5-1.2c-.5-1.6-1-2.4-2.2-3.8-.4-.5-.7.1 0 .9.9 1.4 1.6 2.4 1.8 4.2-.6.8-.9.7-2.1-1.5-.8-1.4-1.3-1.8-1.5-1.8-.5 0 0 .7 1.5 3.1.8 1.3.8 2.1-.1 2.1-.3 0-2-1.9-2.4-2.7-.3-.7-.8-1.2-.8-.4 0 .3 1 2.1 1.8 2.9 1.1 1.3 1.5 1.6 1.6 2.2.1.3.2.8.3 1.1.3 1 .1 1.2-.4.7-.3-.7-.5-.8-1.2-1.3-.6-.5-1.5-1.6-2-2.5-.2-.3-.4-.7-.6-1-.5-1-1.3-1.1-.7-.1.2.5.7 1.3 1.1 1.9.7 1 .6 1.6-.3 1.5-.4 0-1.4-1.3-2-2.4-.4-.7-1.1-1.2-1-.5 0 .2.5 1.4 1.3 2.3.8 1 .9 1.6.1 1.6-.5 0-1-.5-1.7-1.6-.6-1-1.1-1.4-1.2-1.2-.2.1.9 2.1 1.9 3.2.9 1 .2 1.6-.8.7-.6-.5-1.7-2-2-2.7-.6-1.3-.9-.9-.6.1.4 1.1 1 2.3 1.8 3.1.4.4 1.2.7 1.6 1.1 1.1 1 1.9 1.9 1.8 2.1-3.2.2-5.9-3.3-6.6-5.4-.5-1.4-1.1-1.6-.5.4 1.6 4.9 6.5 7.4 9.9 5.2 2.1-1.3.2-4.8-1.4-3.6-.5.3-.5 1.2.1.7 1.1-.9 2.2 1.3 1 1.9-1.7.9-3.5-.8-2.4-2.9s5.6-.9 4.7 2.5c-.5 1.6-2.9 3.5-4.9 3.5-3.7.1-6.3-2.8-7.7-5.7-.2-.4-.5-1.1-.8-1.7-.2-.5-.4-.9-.4-.9.4 3.5 3.7 7.8 6.6 8.5 4.9 1.2 6.2-1.8 9.4-4.8 0 0 2.3.3 2.4.3.2-.1 4.5-.3 4.7-.2-17.4 32-16.1 69.9-1.1 98.7 1 2.1 1.2 1.7-.5 1.3s-3.2.2-4.6-.1c-2.8-.6-3.5 1.4-5.6 2.4-2.7 1-2.1 3-2.8 4.8-.2.3-.4.5-.2.5.2-.1.8-.6.8-1.1.1-1.2.5-2.2 1-2.7s.8-.7.9-.5 0 .7-.2 1.2c-.7 1.3.2 5.5.3 2.5 0-2.4 1.5-5.1 3.5-6.2 1.6-.8 2.1-.7.8.5-1.5 1.6-2.5 3.5-2.6 5.8 0 1 .4 1.8.5.9-.1-4.4 4.3-9.3 9-6.9.2.2.4.5.4.7-4.5-.8-8.5 1.7-7.9 7.7 0 0 .4-1.2.6-2.3.7-3.6 4.8-5.2 7.6-4.2.5.2 1 1 .9 1.1-3.5-1.1-7.3 2.2-7.5 5.8-.1 1.2 0 2.2.5.1 2.3-8 9.2-4.4 8.3-3.7-5.4-.6-7.3 3-7.2 7.2.1.4.3.5.4.9.7 1.6 1 3 1.1 5.9-.1.7.6 5.5-.1 5.3-2-.7-3.4-1.6-6.8-.1-.3 0-.4-.2-.3-.4.1-.4.7-1.1 1.6-2.1 2.1-2.2.9-1.6-.8-.1-1.1 1-.9.3.2-3.1.4-1.4.2-1.6-1.7-2.5-1.9-1-3.2-1.1-1.6-.1.6.4 1.3.8 2 1.1.8.5.7.6.1 2.7-1.2 3.9-1.6 5.3-1.5 7.9.2 6.4 6.1 5.7 9.6 4.3l.1 4.2 12.9 18.3s-44.9 0-69 .4c1.4-3.3 15.9-17.5 16.8-20 .1 0-1.6-5.2-2.5-7.4-4.2-10.6-9.7-15.1-6.5-22.1.7-1.4.8-1.9 1.3-1.8.7 0 .9.5.1 1.8-3.4 5.8 3.9 15.9 6.4 22.3.4 1 2.1 5.8 2.3 7.5 0 .5 1.2.7.9.1-.9-3.3-2.1-6.9-2.6-8.1-2-4.7-4-8-5.9-12.6-1.1-2.9-1.6-6.3 0-9.3.6-1.1.8-1.7 1.2-1.8.3 0 .5.1.6.4 0 .3-.2.8-.6 1.6-2.9 5 2.2 13 4.8 18.7 1.7 3.7 3.1 7.7 3.7 11.2 0 .2.3.9 1 .5-1.1-6.6-4.3-13-7.2-19.2-2.4-4.8-3.3-9-.1-13 .3-.3.9-.2.9.2 0 .3-.2.8-.7 1.9-2.8 6 1.6 10.9 3.6 16.7 2 4.8 3.9 8.8 4.6 14 .6.2.9.5.9-.2-1.5-7.2-4.7-13.7-7.4-20-1.3-2.7-1.7-4-1.8-5.8-.1-2.5 1.1-5.7 2.2-6.5.3-.2.5-.3.7-.1.4.2.3.3-.4 1.7-1.4 2.6-1.5 5.6-.2 8.7 2.2 4.8 4 8.7 5.4 12.2 1.4 3.8 2.2 7.2 2.6 10.2 0 0 1 .4.8-.2-.6-4.2-2-8.6-3.5-12.3-1.4-3.5-3.2-6.9-4.6-10.3-1.7-4.2-.3-8.7 3.2-11h1.6c-.1 0-3.7 1.4-3.9 6.7-.2 5 2.2 8.1 3.8 12.3 2.1 5.1 3.9 9.6 4.3 15 .2.2 1.1.2 1 .2-.4-3.7-1.5-7.2-3-11.4-1.6-4.6-3.2-6.6-4.7-11.4-1-3.2-.9-7.6 1.4-9.6 3.4-3.4 8.1-1 6.9 2.9-.9 2.8-4.7 2.2-4.6-.4 0-1.7 2-2.1 2.7-.9.2.2.3 1.3.3 1.4s.3-.8.3-1c0-1.4-1.8-2.5-3.2-1.8-1.9 1-3.1 3.2-3 6.1.1 3.1.7 5.2 3.2 10.1 3 5.7 3.9 11.9 4.6 16.1.3-.1.6 0 .7 0-.4-5.7-2.3-11.5-4.6-16.4-2.8-5.9-3.6-9.5-2.6-12.1.1-.4.3-.7.4-.7.3 0 .4.5.7 1.5.1.3 0 .8-.1 1.2-.2 2.4 1.4 7.4 3 9.7.5.6 1 .6.5-.5-1.6-2.9-2.6-5.6-2.7-9.1 0-1 1.2-.6 1.2-.1.1 1.7.3 3.7 1.1 5.1 1.6 2.8 2.5 2.9.9-.2-.4-.7-1.4-3.8-1-4.9.2-.2.5-.3.7 0 .5 1.7 1.1 3.5 2.3 4.8.6.7.7.4.4-.5-.5-1-2.2-4.4-1.4-5.1.2-.2.1-.1.8 1 .9 1.5 1.4 2.1 1.9 2.6.6.6.7.2.1-.9-1.2-2.1-2-3.8-1.5-4.3.4-.4.5-.2 1.5 1.5.4.8 1.1 1.9 1.3 2.1.2.3.4.3.4.1-.2-2-2-4.4-2.7-4.8-.1-.2-.1-1.8-.1-1.8 2.6 1.4 2.7 2.9 4.4 5.2.2.2.4 0 .4-.4-.1-.4-1.1-2.4-1.7-3.3-.5-.7-.5-1.1-.1-1.3.7-.3 1.7.7 2.7 2.6.5.9 1.1 1.4 1.1.9 0-.2-.9-2.5-1.5-3.1-1-1.1-.5-1.8.7-.8.5.4 1.3.8 2 2.4.4 1 .8 1.1.8.3 0-.9-1.4-2.9-2.4-3.5-.7-.4-1.2-.9-1-1.3.6-1 3.3 1.5 4.2 3.8.3.7.7 1 .8.7.2-.2-.3-1.8-.9-2.6-.9-1.7-3-3.4-4.3-3.2-.2 0-.9-1.4-.9-1.4 3.2-.5 6.3 3.4 6.9 4.8 1.1 2.8 1.6 2.4.7 0-1.8-4.7-7.4-7.4-10.5-5.1-1.8 1.3-.7 4.4 1.1 3.9.7-.3 1.4-1 .2-.8-1.4.1-1.9-2-.4-2.5 2.3-.7 2.9 3 1 3.9-1.9.8-3.9-.4-3.7-2.6.3-4.1 5.3-5.3 10.2-2 1.4.9 3.1 3.9 3.6 5.9.2.6.8.9.9.8.2-.2-1.4-3.5-1.9-4.4-2.1-4.9-9.8-5.2-9.8-4.9 0 0-3 1.9-5.7 5.1l-6.9-.6c17.5-28.4 18.9-70.3.9-99.9.2.2 3.5 1 4.6.1.8-.4 1.1-.5 2-.2 1 .4 2.1 0 3.2-1 .8-.8.9-1 1.4-.9 1.6.2 2.7-.7 3-3.1.1-.9.2-1.9.1-1.7-.1.1-.3.9-.4 1.4-.3 1.4-.6 1.9-1.1 2.3-.9.7-1.4.3-1-.8.3-.7.6-2.6.2-3.4-.1-.2-.1.4-.2.9-.9 3.6-1.9 5.5-3.7 5.9-.8.2-1.2.1-.9-.4 3-3.3 2.8-6.9 2.6-6.6-.6 2.1-1.8 5.2-3.8 6.5-1.7 1.1-4.2 1.2-5.6.3-.8-.5.4-.7 2.2-.7 3 0 5.8-4.1 5.3-7.5-.1-.6-.3 0-.5 1.1-1.1 3.7-3 6.3-7.3 5.5-.3-.1-.6-.3-.7-.4-.7-.5-.4-.8 1-.6 3.1.4 5.9-2.6 5.8-6.1 0-1.7-.3-1.7-.5-.4-.4 1.8-1.8 7.3-6.8 5.5-.9-.5-1.4-1.1-1.1-1.2 3 .6 5.7-.1 6.7-4 .5-1.7.3-3.3-.1-4.7-.1-.9-.5-1.7-.6-2.6-.3-2.6-.7-5.4-.6-8.2.2-.2.3-.2 1.1.4 1.7 1.1 2.9.9 4.6.2 2.2-.8 2-.7-.3 2-.5.5-1 1.2-1 1.3-.6 1.1.5.3 1.3-.7 1.1-1.4 1.4-1.8 1.6-1.8.1 1.6-.5 3.4-.8 4.7-.4 1.4-.4 1.7.5 2.1.4.2 1.1.5 1.5.7 1.9.9 1.7.2.2-.7-2-1.1-2-1.1-1.5-3 .7-2.2 1-4.2 1.4-6.4.9-5.5-3.2-8.5-8.6-6.6-.3.2-.7-2.9-.6-3.7 0-.3-.8-.2-1.5-1.1.2-.2-8-10.6-11.8-16.9 23.4-.4 46.8-.9 68.4-.8m-17.7 19.5q.15.15 0 0 .15 0 0 0m18.6-19h23.6v50.3h-2.3s-3.8-6.7-4.9-9.8c-.3-.8-.7-1.9-.9-2.3-.4-1-.7-1.1-.1-1.7 1-1.2.8-3.6-.2-4.7-.3-.4-.5-.2-.5-1.2 0-.8.1-1.3-.1-1.7-.3-.7-.6-.7-.1-1.5s1.2-2 1.5-3c.5-1.6.1-1.9 1.2-1.5 2.6.8 4.8-1 4.7-3.7-.1-2.2-2.1-4.2-4.5-3.6-.6.1-.7.1-1.5-.4-.2-.2-.6-.5-.9-.6-.4-.2-.7-.1-.9-.4-.3-.6-1.3-1.4-2.5-1.4-.7 0-1.7-.2-2-.4-.4-.2-1.6 0-3.1-.3-.7-.1-1.2.2-1.5.2-.9 0-.6-.1-.7-.8-1.2-3.7-4.6-3.3-6.1-.5-.6 1.1-1 2.7-1.2 4.4l-9.2-.1zm-71.1.1c3.4 4.4 6.7 9.4 10.2 13.9 4.3 5.5 4.4 6.1 3.3 11.6-.6 3.1-.9 3.8-2.2 3.6-1.2-.2-2.2.7-2.4 2-.3 2.3 1.9 3.7 4.1 2.6 1.2-.6 1.2-.7.8 1.3-.6 2.9-1.7 5.3-2.4 5.3-1.8-4-6.3-1.1-4.8 3-.5.7.1 1.6.4 2.4 0 0 0 .1-2.6.9-12.6 3.8-28 13.6-36.5 22.9v-69.2zm72.3 9.4c.5 0 1 .2 1.5.5 1.1 1 .8 2.4-.7 5-1.6 3.7-1.2 6.5-.8 10.4 0 2.2-.8 4.4-1.9 5.3-1.9 1.5-4.3-.5-3.3-2.5.5-1 1.6-.4 1.9-1.4.4-3.5-.5-7.1-.6-10.5 0-1.5.5-3.5 1.2-4.9.6-1.2 1.7-1.8 2.7-1.9m3 6c-.4.4-1.2.4-1.2-.1s.4-2 .6-2.2c1.6-.3 1.1 1.9.6 2.3m2.4-2.4c1.3-.1 2.2 3.3 1 5.3-.2 0-1.8 0-1.8.1 0-.4.1-1.1.2-1.7s.2-1 0-1.6c-.4-1.7-.7-1.9.6-2.1m2.5 0h.2c1.3 0 2.1 2.6 1.7 5.4-.1.4-.1.8-.2.9-.6-.2-2.1.4-2.1.4-.1-.1-.1-1 .1-1.7.4-1.3.5-2.2 0-3.6-.4-1.1-.4-1.3.3-1.4m3.3.8c1.5.2 1.5 4.3 1 5.6-.1.2-.7.1-.9.2-1.2.4-1 .5-.8-1.4.1-1.4.1-2.4-.1-3.6-.1-.5-.1-.8.2-.9.2 0 .4 0 .6.1m-7.3 1.6c.6.8.1 2.7-.3 3.3-.5.8-.7.8-.4 1.2.1.1.4.9.2 1.2-.3.6.4.7 1.1 1 1 .6 1.6 1.6 2.3 3.4.3.6.8.4.6-.3-.2-.6-.3-1.5-.5-2.1s0-.9.7-.7c1 .3.9 0 1.3-.1.8-.5 1.4.2.9.6-.3.2-.9.3-1.6.5-.6.2-.4.7.1.7s2.1-.4 3.1-.7c2.9-.9 3-1.3 2.7.3-.4 2.2-1.5 3.8-3.5 4.4-1.7.5-5.6.4-7.4-.2-1.7-.8-1.8-1.3-2.3-2.8-.7-2-1.1-5.4-.3-7.4.7-1.7.6-1.5 1.3-1.4.6.2 1.4 0 1.6-.4.1-.2.3-.5.4-.5m11 1.2c.2.9.2 1.8-.1 2.5-.2.3-1.2.3-1.6.3-.2.1-.2-3 0-3.4.6-.8 1.4-.1 1.7.6m-29.1-.5h2.8v.7h-3.4zm9.9.1v.9h-4.3v5.7h4.8v1.2h-6.4v-7.8zm21.8-.2c4.4 1 2.4 5.9.8 6.2-2.1.4-3.8.1-3.2-1.7.6-1.2.2-2.8.3-3.9.4-.4 1.4-.7 2.1-.6m-33.1 1.7h4.2v.9h-4.8zm9.4.9c.7 0 1.2.6 1.2 1.2 0 .7-.5 1.2-1.2 1.2s-1.2-.6-1.2-1.2.5-1.2 1.2-1.2m11.9.5c.8.1.9 1.3.5 1.7s-1.2.2-1.4-.4.3-1.3.9-1.3m-22.5.5h5.4v.8h-5.5l-.1-.5zm30.4.3c.7 0 1.2.6.7 1.2-.6.8-2.1-.4-.7-1.2m-57.6 1.7c-1.2 1-.2 2.1 1.4 1.1 3.5-2.1 8.6-.4 11.9 1.3.7.3.7-.5.1-1-3.1-2.7-9.6-4.3-13.4-1.4m52.4-1.4c.8 0 .8 1.1.3 1.5-.5.2-.6.2-1 0-.5-.2-.1-1.5.7-1.5m3 0c1 0 .9 2.1-.6 1.4-.6-.7-.2-1.4.6-1.4m-27.9 1h5.3v.9l-4.9-.1zm-34 2.1c1.4 1.2 1 1.2-1.4.4-1.6-.4-3.1-.1-4.1.3-1.2.5-1.4.3-.9-.5 1.4-1.6 5.1-1.2 6.4-.2m6.9 1.9c-.1.4-.6-.3-1.3-.2-1 .2-.7.2.3 1.4s1.3 1.4 1.3 1.9c-.1.7.1 1 .7.9.3 0 .7.3 1.2.8 1.6 1.5 2.5 2.3 3 2.5 2.2 1 1.2-.1-.2-1.1-2.3-1.6-3.1-2.7-1.5-2.1 1.8.6 4.5.3 5.9-.6.7-.4 1.1-1 2.1-.7 1.3.4 1.8-.4 1.5-.8-.6-.4-2-.9-3.3-1.8-2.8-1.4-5.8-1.4-7.7-.2-1.2.7-1.6.2-.4-.5 4.6-2.5 8.2-.1 11.1 1.7.5.3.9.3.9.1-.1-.7-1.4-1.2-1.9-1.5-4.2-2.6-8.5-3.4-11.7.2m27.8-2.2h4.6v.9h-4.2zm-37.2 1.2c1.3 0 4 1.1 4 2.1-.1.4-.7 0-1.3-.3-1.2-.7-2.9-.9-4.6-.6-1.3.2-1.7.5-1.9.3-.5-1.1 2.6-1.5 3.8-1.5m49.4.6v1.6c-2.5.2-3 3-1.4 4.5 1.3 1.3 3.5.8 4.5-1 .2-.3.2-.5.3-.4s.1.4.2.7c.2.9-.1 1.1-.6 1.8-.9 1.2-1 2.7-.5 3.8.2.3.5.7.4.9.3 0-2.8 8.9-7.4 13.4-.8.5-1.3-.1-.9-.9 3.7-8.6-3.4-16.7-6.2-24.4zm-33.1 1.5.7.1c-.5 4-4.3 3.3-4.5.1h.5c.7 3 3.3 1.7 3.3-.2m-21.5.1s.3.4.3.7v2.7c-.2 3.8-5 4.5-4.6 1.3.3-1.4 2-1.5 2.4-.3.6 1.6.7-.4.7-1 .4-1 .8-2.2 1.2-3.4m23 .3c.2 0 .5.2.8.5s.2.5-.5.9c-.8.4-1.2.4-.9-.5.2-.5.4-.9.6-.9m35.9.2c.1 0 .4.1.3.6-.1.7-.7 1.1-.9.9.1-.4.2-1.4.6-1.5m-41.6 1.3c-.1.3-.3.2-.7-.2-.5-.4-.4-.7 0-.9.8-.4.8.9.7 1.1m-14.5-1c.8 2.6 2.4 2.2 3.2.1h.7c-.2 3.3-4.3 3.2-4.3.1zm-1.4.3c.2 0 .1.8.1.8s-.7-.4-.3-.7c0-.1.1-.1.2-.1m6 .2c.1 0 .2.1.4.2.4.3.3.4-.1.8-.7.6-1 .3-.6-.5.1-.3.2-.5.3-.5m52.6.6c.3 0 .7.1 1.6.4 2.4.7 5.7.6 8.5-.1.9-.2 1.5 1.3 1.1 2.4-.2.5-.2.6.5 1.2.9 1 1 2.5.4 3.9-.5 1-.5.9.1 2.7 1.3 3.8 3.1 7.3 5.1 10.8l-2.6-1s-11.9 10.3-20.2 10.7l3 4.8c4.8 1.9 9.3 1.4 13.7-1.3-.1.4 5.3 3.1 9.7 3.4v3.2c-3.3-.4-6.6-.5-9.7-2.4 0 0-2.8 1.2-5.6 2.1l15.8 16.6v2.8s-6.7-6.4-13.7-13.6l.1 35.4 13.7.3c-.4 9.2-.3 15.1-.2 25.6-6.5 6.7-15.3 13.4-23.5 17.5-3.9-3.8-7.1-7.9-9.9-12.3-.1-.1.3-.3.2-.4s-.6-.2-.7-.3c-1.7-2.6-5.7-9.7-5-9.9 1.2.1 6.8-.6 8-4 0-.2-.1-.8 0-1.5.4-1.9.6-4.7-.1-6.5-1.2-3.2 2.4-2.2 2.5-2v-12.2c-4.7 3.8-9.5 7.6-15.8 9.2-3.9-20.1 2.3-45.2 20.1-62.1l-1-.1c-18.3 19.2-23.1 40.3-19.9 62.5 0 0 .1.7.1.9 0 .6-.1.8-.6 1.2-.5.3-.9.6-.8 1 .1.7-.6.7-1.5.7-.4-.4-1 .1-1.3.3-.5.1-.7-1.8-1.3-.4-.2.9-.6.9-1.6.5-.6-.2-.6.1 0 .8.8.9 1.5 2.2 1.4 2.6-.3.9-.2 1.8 1.1 2.3-.1 0-.8 2.7 1.2 2.7.6 0 2.2.3 2.2.3.1.5-.1.8-.3 1l-1.3-.7-.4 1.6-1.8-.1 4.4 5.5.5-4.3 5.1.7c.8 2.2 6 14.1 15.8 23-.1.3-6.8 3.1-6.8 3.1l-1.1-3.3-.8 1.2-1.5-.4-.2 1.4-1.3.4 2.4 1.6-6.1 1.8c-17.2-28.1-24.9-66.8-3.5-108.1l5.4.1-1.1 1.8 1.5-.2.4 1.3 1.1-.5 1.1 1.4 1.3-3.9s3.8.1 4.3 0c.4 0 8.1-6.6 7.9-6.9-.1-.2-8.4 6-8.7 5.7 0 0-.8.2-.2-.6 1.2-1.4 2-2.5 3.2-4.5 1.9-2.7 2.8-6 3.3-8.2 0-.2 0-.5-.1-.8-.7-1.5-.6-2.5.8-4.2.5-.6.5-.8.4-1.2-.3-.9 0-1.6.6-2.2.2-.1.4-.2.6-.2m-45.5 6c3.4 1.4.7 4.5-1.8 1.8-1.3-1.4-2.4-1.3-3.1-.3-.3.5.1 1.3.6 1 .4-.2.8-.5 1.4 0 4.3 4 7.4-1.6 3.7-3-.6-.2-1.2.3-.8.5m-13.9-.2h.1c.2.1.2 1.5 0 2.1-.5 3-2.7 10-7 6.6-1.7-1.4-.2-4.8 1.9-3.6 1.6.9.5 3.1-1.2 1.8-.8-.6-.6.6.1 1 1.2.6 3.4-.5 4.4-2.4q.6-1.2 1.2-4.2c.3-.9.3-1.3.5-1.3m.3 5.2c.4 2.2-1.3 6-3.6 6.6-1.8.4-4-.7-3.8-1.8 0-.3.2.1 1.8.4 2.3.4 3.7-.9 5-3.7.4-1 .6-1.4.6-1.5m5.6 1.1c0 .2-.1.9-.2 1.3-.2 1-.4 1.4.7.9.7-.3 1.8-.7 2.9-.1 1.2.7 2.4.6 3.8-.1 1.2-.4 1.8-.4 2.5 0 1.3.7.8.3.7-1.6-.1-1.3-.5-1.1-.9-.6-.3.3-.9.4-1.6 0-.8-.4-1.9-.2-2.3.1s-.9.4-1.7-.2c-.5-.3-.8-.2-1.4.1-1 .4-1.4.2-1.9-.2-.3-.3-.6-.1-.6.4m-4.8 1.5c.1 0 .1.5.1 1.5-.4 3.7-3.3 5.8-6.7 4-1.5-.9-1.3-1.5.2-.9 2.3.9 4.7-.3 5.8-3.4q.3-1.2.6-1.2m8.2 2.7c1.7.7 3.5.5 4-.1.5-.7-.3-.6-.7-.5-1.5.4-2.5.2-3.1 0-1.7-.7-1.6 0-.2.6m-17.5 2.1c2.2 2.7 2.5 3.2 4.3 6.3 13.7 23.6 18.1 53.4 9.1 80.5-2.5 7.5-6 15.1-9.9 21.2l-4.7.1 1.6-1.9-2.2.2-.1-1.2-1.7.5-.8-1.9-1.5 4.3h-8.7c20.4-20.1 24.4-44.4 20.6-64 0 0 1.7-1.1 1.9-1.7.1-.2.2-.8.3-.9.8-.5 1.3-1 1.6-.9.2.1.3.2.5.4.7 1.1.9 1.2 1.3.2.3-.8.2-1.1 1.1-.9.5.3 1.3.3 1.2.2 0-.1-.8-1-1.2-1.5-.9-1.2-1.1-1.4-1-2 .1-.8-.5-1.7-.9-1.9.1-2.2-.7-2.4-3.1-2.9 0-.4.1-.7.2-1l1.4 1.1.5-2.1 1.9.1-5.5-5.4c0 1.5.1 3 0 4.5-2.6-.1-5.1-1-5.1-.8-3.8-9-9.5-16.6-15.5-22.5l6-2.9 1.7 3.3.4-1.9 1.5.3.3-1.2 1.7-.2-1.8-1.8zm36 3.9c.2.3.4.3.7.6l-.6.4c.1-.4 0-.6-.1-1m-40.2 1.1c-.5 0-.9.4-.9.9s.4.9.9.9.9-.4.9-.9-.4-.9-.9-.9m5.1.1c-.5 0-.9.4-.9.9s.4.9.9.9.9-.4.9-.9c0-.4-.4-.9-.9-.9m-16.3.7c3 2.5 5.7 5.8 9.1 11l-.1.7 1 .4s5.6 7.4 5.3 10.7c-1.9.4-3.6-.1-7.1 3.1-1.6-.9-2.6-.6-4.2-.1 0 0 0 .7.6 1 1.1-1.3 2.3-.7 3-.4-.2.1-.8 7.5.3 9 .9 2.5-1.4 2-3 1.4l.5 11.7c5.3-6.1 16.4-10.2 15.6-9.8 5.6 30-7.7 50.1-21.6 64.7h7.3s-6.3 10.3-6.8 13.1c.4.9 1.3 2.9-.3 4.3-.6.6-.6 3.5-.6 3.5-3.8.1-7.2-1.2-11.6.4-.5.2-.6-2.4-.6-2.9-2.5-2.2-.2-6.1.1-5.8-2-6-6-13.1-6-13.1s-2.4-.1-3.9-.2c-.3-.3-.5-7.2-.2-7.4 10.9.9 28.1-.1 28.1-.1l-4.6-6.5c-5.7-2.2-13.4 1.6-13.1 1.8 0 0-6.2-3.5-10.5-3l.1-3.4c3.8 0 7.4.7 10.5 2.6l5.3-2-16.1-17.2.2-2.8c5.3 4.9 13.9 14.5 13.9 14.5v-36h-13.9l-.4-7.3-.4-.6-.2-5.2.4-.5-.1-2.2-.1-.3-.2-5.3.3-.4v-3.4c6.7-6.8 24-18 24-18m11.8 1.1 1.6 7.2 1.1-1.4 1.7.5.1-1.7 1.5-.5zm55.1 1.1c-.5 0-.9.4-.9.9s.4.9.9.9.9-.4.9-.9c0-.4-.4-.9-.9-.9m-4.4.6c-.5 0-.9.4-.9.9s.4.9.9.9.9-.4.9-.9c.1-.4-.3-.9-.9-.9m-53.4.9c-.5 0-.9.4-.9.9s.4.9.9.9.9-.4.9-.9c.1-.5-.3-.9-.9-.9m56.8.5-6.5 6.2 1.8-.1.3 1.8 1.6-.8 1.3 1.2zm2.7 2.1c-.5 0-.9.4-.9.9s.4.9.9.9.9-.4.9-.9c.1-.5-.3-.9-.9-.9m-51.5 1.2c-.5 0-.9.4-.9.9s.4.9.9.9.9-.4.9-.9c0-.4-.4-.9-.9-.9m4 .8c-.5 0-.9.4-.9.9s.4.9.9.9.9-.4.9-.9-.4-.9-.9-.9m-3.6 1.4c.2 2.5.5 5.5.5 8.1l1.2-1.2 1.4.6.5-1.6 1.5-.1zm39.9 2.1c-.5 0-.9.4-.9.9s.4.9.9.9.9-.4.9-.9c0-.4-.4-.9-.9-.9m-42.6.2c-.5 0-.9.4-.9.9s.4.9.9.9.9-.4.9-.9-.4-.9-.9-.9m46.3.2c-.5 0-.9.4-.9.9s.5.9.9.9.9-.4.9-.9-.4-.9-.9-.9m-.6 2.1-5.4 5.6 1.8.2.6 1.6 1.1-1 1.4 1zm3 1.2c-.5 0-.9.4-.9.9s.4.9.9.9.9-.4.9-.9-.4-.9-.9-.9m-42.4 1.7c-.5 0-.9.4-.9.9s.4.9.9.9.9-.5.9-.9-.4-.9-.9-.9m-23 .8-1.4 1.1c1.1.4 1.7 1.4 1.7 1.4.1 0 0-.6-.3-2.5m27.4.6c-.5 0-.9.4-.9.9s.4.9.9.9.9-.4.9-.9-.4-.9-.9-.9m-6.7 1.4c-.5 0-.9.4-.9.9s.4.9.9.9.9-.4.9-.9-.3-.9-.9-.9m38.5 1.9c-.5 0-.9.4-.9.9s.4.9.9.9.9-.4.9-.9-.4-.9-.9-.9m-3.7 1.4c-.5 0-.9.4-.9.9s.4.9.9.9.9-.4.9-.9c.1-.5-.3-.9-.9-.9m37.6.2 1.9 2.1v31.2h-1.9zm-75.4.2c1.6 0 3.3.2 3.9 1.2.9 1.1-1 .7-2.5.9-1.4.2-.6.5 1.4.6 2.8.2 3.9.2 4.3.9.2.6.1 1 .1 1.7l-3.2-.2c-1.6 0-2.6 0-3.1.1-.4.1-.3.4-.1.6.1.1 1.3.1 2.8.1 4 .1 4.9.2 5.1 1.5.2 1.2-.7 1-4.8.6-1.8-.2-2.8.3-3.1.4-.4.2 1.3.4 1.9.3.4-.1 3 .2 3.9.4.8.1.1.1-.3.6-.3.4-.2.9-.6 1.1-.5.3-1.6.3-3.4.3-2.1 0-3.1.5-.2.7 1.9.1 2 .1 2.1.6.4 1.4-.5 1.6-2.4 1.9-.9.2-2.3.1-3.3 0-4.1-.3-5.5-1.3-6-3.1-2-6.8.5-10.9 6.4-11.2zm41 .3-4.6 6.8 1.8-.7.8 1.8 1.4-1 1.4.9zm-34.3.9c.2.3.1.5-.3.7-.3.2-.9 0-1.3-.1-.5-.2-.5-1.1-.1-1.2.7-.1 1.4.1 1.7.6m-33.1-.4-2.1 2.3s1.9-.7 3-1.1zm70.3 1.1c-.5 0-.9.4-.9.9s.4.9.9.9.9-.4.9-.9-.4-.9-.9-.9m34.1.8 3.3 3.3h-.9v1.8h2.8l1.5 1.5h-4.2v1.9h5.2v-.8l2.1 1.9.2 20.9h-9.9c-.1-10.3-.1-20.2-.1-30.5m-68.3 2.2c-.1.5-.5.5-1 .2-.8-.3-.7-1.2-.1-1.3 1.2-.1 1.4.4 1.1 1.1m3.2.4c-.5 0-.9.4-.9.9s.4.9.9.9.9-.4.9-.9c0-.4-.4-.9-.9-.9m-3.3.8c.4 0 .7.2.9.4.5.5.3 1-.2 1.3-.6.3-1.1-.1-1.3-.9-.1-.5.2-.8.6-.8m29.2 2.4c-.5 0-.9.4-.9 1 0 .5.4.9.9.9s.9-.4.9-.9-.4-1-.9-1m-30.8 1.2c.8 0 1 .9.6 1.3-.6.6-1.5.3-1.7-.2.1-.7.6-1.1 1.1-1.1m27.5.4c-.5 0-.9.4-.9.9s.4.9.9.9.9-.4.9-.9-.4-.9-.9-.9m3.3.6-4.2 7.1 1.7-.7 1 1.4 1.1-.9 1.6.8zm-32.7 1.2c.7 0 1 .6.4 1.1q-.6.6-1.2 0c-.7-.4-.2-1.1.8-1.1m35.6.1c-.5 0-.9.4-.9.9s.4.9.9.9.9-.4.9-.9-.4-.9-.9-.9m-30.3.7c-.5 0-.9.4-.9.9s.4.9.9.9.9-.4.9-.9-.4-.9-.9-.9m69 .2v2h5.3v-2zm-69 1.8-2 7.5 1.7-1 1 1.1 1-1.2 1.8.5zm3.6.8c-.5 0-.9.4-.9.9s.4.9.9.9.9-.4.9-.9c.1-.5-.4-.9-.9-.9m-6.5.4c-.5 0-.9.4-.9.9s.4.9.9.9.9-.4.9-.9-.4-.9-.9-.9m71.9.6v1.8h5.3v-1.8zm-43.2 2.3c-.5 0-.9.4-.9.9s.4.9.9.9.9-.4.9-.9c0-.4-.4-.9-.9-.9m43.2 1.1v1.9h5.3v-1.9zm-108.3.2h1.8v33.8l-1.8-1.9zm-.7.1-.1 30.9-3.5-3.7h.9v-2.1h-3l-1.3-1.3h4.3v-2.1h-5.1v1.3l-2.5-2.7v-20.2zm65.9.9-2.8 7.4 1.8-1 .9.9.9-.9 1.6.8zm-73.7.4v2h5.2v-2zm76.9.4c-.5 0-.9.4-.9.9s.4.9.9.9.9-.4.9-.9-.4-.9-.9-.9m-6.3.1c-.5 0-.9.4-.9.9s.4.9.9.9.9-.4.9-.9-.4-.9-.9-.9m-21.9.3c-.5 0-.9.4-.9.9s.4.9.9.9.9-.4.9-.9-.4-.9-.9-.9m68.1.8v2.1h5.3v-2.1zm-68.3 1.1-.8 1.2-1.8-.6 2.4 7.5 3.1-7.8-1.8 1zm-48.5.6v2h5.1v-2zm116.8 1.8v2.1h5.2v-2.1zm-116.8 1.7v2h5.1v-2zm73.7.4c-.5 0-.9.4-.9.9s.4.9.9.9.9-.4.9-.9-.4-.9-.9-.9m-28.1.9c-.5 0-.9.4-.9.9s.4.9.9.9.9-.4.9-.9-.4-.9-.9-.9m6 .2c-.5 0-.9.4-.9 1 0 .5.4.9.9.9s.9-.4.9-.9-.4-1-.9-1m65.2.2v1.9h5.2v-1.9zm-43.1.8-1.1 1.2-1.6-.5 3.6 6.9 1.8-7.4-1.6 1zm-73.7.7v2.2h5.1v-2.2zm48.6 1c-.5 0-.9.4-.9.9s.4.9.9.9.9-.4.9-.9-.4-.9-.9-.9m-.1 2c-.4.3-.6.8-1 1l-1.7-.7 1 9.4 4.7-8.8-2.2.4zm-48.5.3v2.3h5.1v-2.3zm77.3 1.1c-.5 0-.9.4-.9.9s.4.9.9.9.9-.4.9-.9-.4-.9-.9-.9m-6 .1c-.5 0-.9.4-.9.9s.4.9.9.9.9-.4.9-.9-.4-.9-.9-.9m-71.3 2.2v2.3h5.1v-2.3zm74.6.5c-.5 0-.9.4-.9.9s.4.9.9.9.9-.4.9-.9-.3-.9-.9-.9m13.3.1c5 .2 5.7 1.8 5.8 7.4 0 4.5-1.3 6.3-4.5 7.1-1.2.3-5.6 0-6.8-.4 0-.4-.6-1.3-.8-2 .3-.1 1.3.1 3.2.2 1.5.1 1.9-.1 1.5-.4-2.9-.7-4.9-.5-7.7-1 0-.8-.7-1.8-.7-1.8.2-.1 4.3.4 6.5.3 1 0 .4-.5 0-.6-2.6-.4-4.2-.3-6.9-.7.1-.7-.3-1.3-.7-1.9h4.2c1.5 0 2.8.1 3.4.1 1.1 0 1-.5 0-.6-1.2-.1-5.7-.2-5.7-.2.3-.2.8-2.2.6-2.2h1.9c3.6-.1 4.3-.1 4.3-.2.5-.4-.8-.6-2.2-.6-.6 0-1.4.1-1.4-.2s0-.9-.3-1.5c2.2-.7 4.2-.9 6.3-.8m-43.2 1.2c-.5 0-.9.4-.9.9s.4.9.9.9.9-.4.9-.9-.4-.9-.9-.9m35.7.1c.6 0 .8 1.1.2 1.3-.9.3-1.4.1-1.3-.5 0-.2.7-.8 1.1-.8m-29.6 1c-.5 0-.9.4-.9.9s.4 1 .9 1 .9-.4.9-1-.4-.9-.9-.9m26.6 1.1c2.1 0 1 2.9-.6 1.8-.8-.5-.2-1.8.6-1.8m-33.5 2.3s-.1 0-.1.1l.5 8.9 5.1-8.3-2 .8-.9-1.3-1.1.9c-.4.3-1.2-1-1.5-1.1m31.6.9c.9.1 1.6 1.1.9 1.6-1.5.7-2.3-1.5-.9-1.6m-2.3 2c-.5 0-.9.4-.9.9s.4 1 .9 1 .9-.4.9-1-.4-.9-.9-.9m3.6.8c.8 0 1.2 1.2.4 1.6-.2.1-.7.1-.9 0-1-.8-.5-1.5.5-1.6m-35.1 1.5c-.5 0-.9.4-.9.9s.4.9.9.9.9-.4.9-.9-.3-.9-.9-.9m71.5 1.1-3.5 1.2v1.7c1.5-.5 2.4-1.7 3.5-2.9m-32.5.9c.6.3.8 1.1.2 1.4-.4.2-1.5.2-1.8-.2-.6-1.2.9-1.5 1.6-1.2m-32.7.3c-.5 0-.9.4-.9.9s.4.9.9.9.9-.4.9-.9-.4-.9-.9-.9m-3.8 1.6c-.5 0-.8.4-.8.8 0 .5.4.8.8.8.5 0 .8-.4.8-.8s-.3-.8-.8-.8m38.9 1.4c-.5 0-.9.4-.9.9s.4 1 .9 1 .9-.4.9-1-.4-.9-.9-.9m-41.9.1v8.4l5.5-6.9-1.9.4-.8-1.7-1.2.8zm35 1.9c-.5 0-.9.4-.9.9s.4.9.9.9.9-.4.9-.9-.4-.9-.9-.9m27.6 0-.9 1.6 2.6-1.4zm-23.9 1.2c-.5 0-.9.4-.9 1 0 .5.4.9.9.9s.9-.4.9-.9c0-.6-.4-1-.9-1m3.2 1-1.1 1.6-1.5-.5-.4 1.5-1.8-.1 5.7 5.1zm-44.8.6c-.5 0-.9.4-.9.9s.4 1 .9 1 .9-.4.9-1-.4-.9-.9-.9m86 2.3v69h-32l-13.4-18.9c-.3-3-.1-6.2 1.1-10.2 1.3.9 4.2.4 4.1-3.2-.1-2.3-3.6-3.5-5.4-1.8.1-2.3 1-5.7 2.3-6.7.9.8 1.1 2.1 3.1 1.7 1.4-.2 2.6-1.9 2-3.8-.2-.5-.2-1.1-.2-1.5v-1.5c-.1-.5-.1-1.1-.1-1.1 14.8-3.3 27.8-12.5 38.5-22m-79.5.3c-.5 0-.9.4-.9.9s.4 1 .9 1 .9-.4.9-1-.4-.9-.9-.9m-4.4.9c-.5 0-.9.4-.9.9s.4.9.9.9.9-.4.9-.9-.4-.9-.9-.9m46.3.5c-.5 0-.9.4-.9.9s.4.9.9.9.9-.4.9-.9-.4-.9-.9-.9m-49.6 1-1.5 8.8 6.4-6.6h-1.7l-.3-1.5-1.6.5zm43.3 1.9c-.5 0-.9.4-.9.9s.4.9.9.9.9-.4.9-.9-.4-.9-.9-.9m4.1 1c-.5 0-.9.4-.9.9s.4.9.9.9.9-.4.9-.9-.4-.9-.9-.9m-51.4 1.2c-.5 0-.9.4-.9.9s.4.9.9.9.9-.4.9-.9-.4-.9-.9-.9m55.1.7-1.5 1.2-1.4-.9-.3 1.9-1.2.6 5 3.6zm3.7 2.5c-.5 0-.9.4-.9.9s.4 1 .9 1 .9-.4.9-1-.4-.9-.9-.9m-52.9.3c-.5 0-.9.4-.9.9s.4 1 .9 1 .9-.4.9-1-.4-.9-.9-.9m-4.1 1.3c-.5 0-.9.4-.9.9s.4.9.9.9.9-.4.9-.9-.4-.9-.9-.9m54.6 2.5c-.5 0-.9.4-.9.9s.4.9.9.9.9-.4.9-.9-.4-.9-.9-.9m-3.9.8c-.5 0-.9.4-.9.9s.4 1 .9 1 .9-.4.9-1c0-.4-.4-.9-.9-.9m-36.2 1.4c.1.1.4 1 .2 1.4-.1-.1-.8-.7-.6-.9 0-.1.3-.5.4-.5m-21.2 1.5s.9 0 1.1.1c0 .2-.2.7-.5 1.3-1.2 2.9-1.4 6.1-.2 9.2 1.9 4.2 7.4 14.2 7 15.1l-12.1.1.1-1.9c3.4-.1 3.9-2.3 3.1-4-.6-1.2-2.2-1.9-3.8-1.3-2.2.9-2.3 2-3.1 3.7l-.3-.4c.7-.9.9-1.7.8-2.7s-.1-.7.2-1.2c1.9-2.1.7-4.8.7-4.8-.2-1.7 5.7-12.3 7-13.2m-27.8.2c3.5 2.8 6.4 12.2 6.3 12.3-.2-.1-2.8 3 0 6 0 0-.2 1.8.4 2.7-1.2 2.6-1.5 2.8-1.6 5h-1.4c-5.7 0-6 7.4-.3 7.8.8.1 1.1-.1 1.5.3.5.6.9 1.2 1.7.9.2 0 .5.2.8.5.5.8 1.3 1.3 2.5 1.1.4 0 .8.2 1.3.3.5.4 1.4.7 2 .4.2-.1.6-.1.9 0 .8.4 1.7.1 2-.1.8-.4.9.2.9.8-.4 1.4.5 2.6 1.8 3.2 2.7.9 4.1-.9 4.7-4.3.1-.7.3-1.6.3-1.6l9.2.2-13.2 15.5h-23v-51zm82.7 2.8c1.7.7 1.8 1.9.1 1.3-2.7-.8-5.6.8-6.2 3.2-.1.4-.2.8-.3.9-.4.5-.4 0-.2-1.3.2-2.6 2-4.5 4.4-4.5.7 0 1.5.2 2.2.4m-.8 1.8c.7 0 1.4.2 2 .7.6.7.4 1.2 0 1.1-2.3-1-5.2.2-6.3 3.1-.7 1.8-.8.8-.5-.6.5-2.4 2.4-4.2 4.8-4.3m-15.8.7c-1 0-1.9.2-2.4.7-.9.9-.2.9 1.5.3.8-.3 2.3-.2 3.3.2.8.3 1.1.4 1.1.2-.1-.8-1.9-1.4-3.5-1.4m18.5 3c.4 1 .1 2.7-1.3 2.9-1.7.2-2.6-2.7.5-2.2-.4-1.2-1.8-.8-2.5-.6-1.4.6-2.4 2-3.3 4.6-.3.8-.4 1.2-.5 1.1-.2-.1-.2-1.3.1-2.8.7-2.6 2.4-4.2 4.1-4.2 1.2-.2 2.5.3 2.9 1.2m-24.7-1.2c-.2 0 .1.6.5 1.4.2.5.4 1.1.4 1.2q0 .75.9.3c.6-.3.7-.6 1.5-.2s1.6.7 2.3.3c.4-.2.6-.2 1.4 0 .9.2 1 .3 1.7 0 .9-.4 1.9-.1 2.1.1s.1-.1.6-1.2c.2-.5.5-1.1.4-1.3s-.9 0-1.8.3c-.5.1-.9.1-1.8-.2-1.9-.5-3-.4-4.2.2-.6.3-2.2-.2-4-.9q.15 0 0 0m3.7 5.1c-.8 0-1.6.5-2 1.3-.4 1 .3 2.9 1.3 3 .9.1.9-.4.4-.6-.7-.2-1.6-1.3-1-2.2.4-.6 1.5-.6 2.3.1 1.6 1.5 3.4 1.6 3.7.3.1-.5-.3-1.2-.9-1-.5.1-1.6.2-2.5-.4-.4-.3-.8-.5-1.3-.5m16.7 4.9c4-.2 2.3 5.3 0 3.9-.8-.5-.5-2.4 1.7-2.4-2.2-1.7-3.6.4-3.1 2.7-.5.8-.6 2.2-.9 3-.5.9-.9-1.5-.4-3.9.4-2.2 1.3-3.2 2.7-3.3m-22.8.2c-.8 0 0 .9.2 1 2.5 2 3.7 3.2 1.7 2.6-3.3-.8-4.1.1-6.6 1.3-.5.2-.6.1-1.1-.1-2.2-.7-2 .7.3 2 3.5 1.9 6.3 2.3 9 .9 1.7-.9 1.8-.3.2.7-2.8 1.6-5.7 1.4-10.1-1.4-1.4-.9-1.6-.3-.2.7 3.4 2.1 7.9 3.9 11.6.9.7-.7.9-1 1.4-.7 1.5.7 1-.6 0-1.8-.4-.4-.6-.8-.6-1.1.1-1.1-.5-1.1-1-1-.6 0-.6-.2-1.3-1.1-1.3-1.3-2.7-2.7-3.5-2.9m-33.5 5.6c-1.4.1-1.7.2-1.4 3.1.1.5.3 2.2.4 2.8.8 7.6.2 11-1.9 11.9-.8.3-1.5.2-2 0-1.3-.5-1.9-2.2-.9-4.1.3-.5.6-1.3.7-1.8s.4-1.5.6-2.3c.5-1.9.8-4.8.5-7.6-.2-1.9-.2-2 .3-3.3 1-1.9 1.7-2.8 3.8-2.9 2.3.3 2.9 4-.1 4.2m51.2-.1h-.7c-.8-2.7-2.4-1.8-2.7.1h-.6c.2-3.6 4.6-2.6 4-.1m-61.3-2c4.5.4 5.3 1.6 5.6 7 0 2.6-.1 4.2-.5 4.8-.7.3-1.3-.3-2.3.3-.5.3-.4.4-.6 0-.2-.3 0-1.7.4-2.8.3-1.1-.2-1.7-1.7-3-.4-.4-.7-.9-1.1-1.6-.8-2.1-1.2-1.2-.5.6.3.8.4 1.2-.6.8-.6-.2-1.1 0-1.5.3-1.2.3-2.3-.4-1.2-.8.6-.2 1.8-.6 2.2-.6.3 0 .4-.1.4-.2 0-.5-2.4-.5-4.2.2-2.2 1-2.3.8-2.1-.8.5-4 4.2-4.5 7.7-4.2m43.6.3c1.1-.1 2.2 1.3 2 2.4h-.5c-.3-2.1-2.2-2.2-2.8.2h-.8c.5-1.8 1.3-2.5 2.1-2.6m13.2.1c.5.3.1 1-.3 1.2-.2 0-.8-.4-.6-.6.2-.4.6-.5.9-.6m5.1.3c.3 0 .7.2.8.6 0 .6-.5.5-.6.4-.3-.2-.4-.9-.2-1m-15.6.5c.8.1 1.1 1.2.2 1.2-.4.2-.4-.9-.2-1.2m-5 .2c.1 0-.1.9-.3 1-.4.3-.9 0-.9-.3 0-.7.8-.7 1.2-.7m14.5 2.1c1.6.6 3.7 1.2 5.6.5.7-.3 1.3-.6 1.3-.3s-.6.8-1.6 1.1c-2.1.6-3.6.4-5.1-.7-.3-.3-.5-.6-.2-.6m-.6.9c2.6 1.5 4.9 1.7 7 .6.8-.3.9 0 .9.5-3.8 3.4-8.6-.1-7.9-1.1m-63.4 2.3c-.6 1.3-1 4.5-2 5.5-7.1-.4-2.5-9.9 2-5.5m44.2-1c-.4.2 0 1.2.6 1.5 5.5 2.4 8.2 2.7 11.3 1.6 1.3-.5 2-1.5 2-2 .1-.6-.8-.7-2.2 0-4.4 1.8-7.2.4-10.8-1-.2-.2-.5-.3-.9-.1m-20.9 0v8.1l-5.2-.1.1-1.2 3.9.1-.1-5.8h-4.5v-1.1zm1.2 0h5.2l.3.8h-5.4v-.8zm-20.9 2.6c-.3.3-.9.4-1.2.1-.5-.6 0-1.6.9-1.6.9.1 1 .9.3 1.5m2.4-1.3c.8 0 1 .7.4 1.3-.4.4-.6.4-1 .1s-.1-1.4.6-1.4m-5.1.2c.2 0 .4 0 .5.2.5 1-1.1 1.7-1.4.9-.2-.5.4-1.1.9-1.1m29.3.1.3 1h-6v-1zm-21.4.3c.9.1.8 1 .3 1.4-.7.7-1.4.5-1.2-.4.2-.6.5-1 .9-1m-4.8 3c-.3 1.1.4 3.4.2 3.7-.4.5-1.1.3-1.4.1-1.1-.7-1.1-4.8-.1-5.1.7.3 1.1-.3 1.4-.4s.1.5-.1 1.7m15.8-1.7c.6 0 1.1.5 1.1 1.1s-.5 1.1-1.1 1.1-1.1-.5-1.1-1.1c.1-.6.5-1.1 1.1-1.1m4.7.1h6.1c.4.5.3.9.2 1.2h-6.3zm-17.9.2c.3 0 .4.6.2 1.3-.3 1.2-.3 3-.1 3.7.2.5.3.9.2 1-.3.5-1.3.2-1.7-.5-1-1.9-.8-5.4.4-5.1.5.1.7-.2 1-.4m-5.4.4c-.3.5-.1 3.2-.1 3.4 0 .3-.8.1-1.2-.1-1-.5-.8-1.7-.6-2.8.2-.8.7-.9 1.3-.9.4 0 .9.1.6.4m8.3.2c.3 0 .4.2.3 1.2-.1.8-.1 1.4 0 2.2.3 1.6.3 2-.1 2.3-.5.4-1.1.3-1.6-.2-1-.8-1-4.7-.3-5 .9.2 1.3-.4 1.7-.5m21.1 1.2-.9 1.2h-5.2v-1.2zm-18.5 1.6c.8 0 .7 1.5.2 2.4-.4.6-.6.6-1.2.1-.6-.6.1-2.5 1-2.5m17 .4-.7.7h-3.8v-.7z"/>
    <path fill="#d40000" d="m38.164 182.16-6.3-5c7.5-.2 15.1 0 22.6.1l-7.5 5.4c-1.5-1.7-2.4-4-4.6-5.1-1.7.7-2.8 3.1-4.2 4.6m55.2-1.8c-.2-.1-.3-.4-.4-1.2-1.9-8.9-11.1-8.3-11.1-8-.1-.4 11.5-10.9 18.3-19.2 2.1 6.3 8.3 20.8 8 20.8 0 0-1.8 0-6.5-.1-4.2 1.9-7.2 3.8-7.1 6.6 0 1-.3 1.4-.6 1.3-.1-.1-.3-.2-.6-.2m21.1-28.6c6-.1 7.1-3.1 7.8-3.4 3.9-.7 6.4 1.9 8.1 4.7 2.2 1.3 1.9.1 2.4-2l5.5-1.6v1.8c-1.7.9-4.2 3.3-4.2 3.3l-1.7-.1-1 1.3c-3.8 2.1-7.6 4.6-11.6 6.2.1 0-4.8-6.4-5.3-10.2m-74.9.6-.1-35.2c2.5-.2 7.1-.2 7.1-.2 1.9-3.4 4.5-5 7.2-7 .4 4.3.5 8.5.4 12.8-7.1 8.8-11.1 19.7-6.7 35.9l-2.6-.3zm39.4 1.9c2-7.3 3.6-14.8 4.3-22.5l13.6-.2.3 4.7zm46.1-16-.3-13.2c9.9-12 10.5-22.5 6.8-35.7 3.3.8 4.9 3.3 8.1 6.9v34.3c-2.2.3-7.5.6-7.5.6-.1 1.8-4.7 5.6-7.1 7.1m-41.8-20.7-.6-5.8 17.6-17.1c-1.5 7.4-3.2 15-3.7 22.9zm-29.3-18.1c-1.3.8-5.9-4.1-6.6-7.3 1.2-1.6 11.4-6.7 11.4-6.7s6 7.8 5.7 11c-2.6.7-4.9.9-7 3.1-1.1.1-1.5-1.2-3.5-.1m-8-6.6c1.4.2.5 2.2.3 3.6l-7.5 2.3c2.6-2.3 4.4-4.2 7.2-5.9m24.4-17.2c1.5 0 3.1.6 4.3.1.4-.2 1.3-.4 2.3-.3 2.2.7 3-1.8 4.5-1.8 1.8 0 2.9-1.3 2.9-3.9 0-1.1.1-1.3.3-1.4.6-.3 1.3.1 1.4.8 1.3 4.8 4.7 9.2 9.9 8.8-4.2 4.3-17 17.7-17 17.7-2.3-7-5.3-13.7-8.6-20m54.4-4.1 7.7-5.7 4.6 5.7 4-5.4c2.3 1.7 7.7 5.5 7.7 5.5s-16 .2-24-.1"/>
    <path d="m129.064 20.16-70.8.5 13.8 18.6c14.6-3 27.3-1.1 40.5 1.3zm-1.8.9-4.7 5.9c-1.3-1.2-4.2-.8-3.8 1.9-3.6-1.9-4.4 3.3-1.3 3.1-.4 1-3.5 1.3-4.4-.6-3.2 1.8-4.1.1-5-1.1 4 2.8 6-2.9 1.6-3.3 1.7-3.6-4.5-5.2-4.1-.5-4.1-.9-3.2 4.9-.1 3.7-2 3-5.2 1-5.8.4-1.7 1.3-4.8 1.3-5.7-.7 4.6.9 4.1-5.2 0-3.8 2.2-4.7-5-4.1-3.3-.2-4.1-.2-3.2 5 .4 4.1-3.2 3.1-5.6.2-6.1.1-1.9 2.1-5.2 1-5.7-.3 3.3 1.3 4.3-4.3.2-3.9 1.1-3.6-4.9-4-3.6.1-3.3-.7-3.4 4.5.2 3.7.2 1.5-2.6 2.8-4.4 1.4-1.3.7-2.7 1.8-4.4.2 2.6-.4 3-4.8-1.2-3.9.2-2.7-1.3-2.9-3.2-2.2l-3-4.2zm-48.8 6.6c-.2.5-.6.8-.5 1.2.1.3.4.8.8 1.3 3.5 4.7 10.7 4.5 12.9-.3.4-.9.4-1.1-.2-1.9-.6-.9.1-1.9.9-1.8 1.2.1 1.4 1.2.8 1.9-1.2 1.6 2.1 5.1 5.5 5.7 4.3.7 8.4-2.4 7.8-5.1 0-.2-.1-.3-.1-.5-.5-2.3 3.1-1.2 1.8.3-.5.5-.7.7-.7 1.3 1 4.9 6.9 5.4 9.7 3.9-3.6 5.9-9.3 1.4-10.3-2.8-5 7.4-11.1 5.8-14.4-.6.4.4-6.6 11.6-14.6.1-3.4 9.3-9.5 3-9.1 2.6 2.8 1.6 8 1 8.5-3.9.1-.6-.4-.6-.7-1.1-1.4-2.5 2.9-2.5 1.9-.3m-13.3.7c.6.1.7.3.6 1zm54.9 1.7-.9 1.2c-.2-.6-.2-1.1.9-1.2m10.1.4c-2.2.1-3.9 3.2-3.8 7.3.1 2 .4 7 .5 7.8.2 1 0 2.5-.4 2.6-1 .4-1.3.6-1.6 1.1-.7 1.2-.1 2.6 1.3 3.2 1 .4 2.3-.2 3.1-1.5.5-.7.6-1 1-2.9.2-.8.2-2.2 0-3.5-.5-2.9-.1-6.5.9-8.2 1.8-3.1 1.7-5.1-.1-5.7-.3-.2-.6-.2-.9-.2m-.1.5c2.6 0 2.5 2.6 1.1 3.4-.6.2-1.2.3-1.9-.1-.8-.4-.7.1.1.6.9.7 1.3.6.8 2.2-.5 1.5-.7 4.7-.5 6.5.7 5 .1 7.4-2 8.3-1 .4-2.1-.2-2.4-1-.4-1.3.3-2.4 2.3-2.1 0 0 .1-.4-.4-4.7-.7-6-.4-10.2.7-11.7.7-.8 1.4-1.5 2.2-1.4m17.4 6.1c-.6 0-1.2.2-1.9.5 0 0-.1 2.7-.1 3.1-.4 2.3-.3 2.6.7 2.9 2.5.8 4.6-.9 4.5-3.6-.1-1.4-1.4-2.9-3.2-2.9m.3.4c1.4 0 2.7 1.6 2.5 3.2-.1 1.9-1.8 2.9-3.4 2.5-.5-.1-.9-.2-1.1-.5-.3-.5.2-.7 1.2-.7 1.2 0 1.4-.2 1.8-.8.8-1.3-.2-3-1.5-2.6-.4.1-.5.3 0 .4 1.5.7 1 1.7.4 2.1-.6.5-1.7-.2-1.8-.6l.1-2.5c.1 0 .6-.5 1.8-.5m-15.7 11.7s-.6.3-.9.5c-.6.6-.7 1.4-.4 2.3.1.4.1.4-.4 1.1-1.3 1.8-1.5 2.6-.8 4.2.3.7.3.7 0 1.7-1.3 4.1-3.7 8.7-6.4 11.9-.4.5-.6 1-.6 1s.6 0 1-.2c2.7-1.4 5.6-4.1 8.3-5.8-4.2 3.5-8.8 6.6-8.8 6.6l5.8.3c-1.4 1.5-26.8 23.3-20 62.3 7.9-2 11.6-5.3 15.8-9.1 0 3.1.1 11.6.1 11.6.1-.1-3.7-1.4-2.8 1.7.5 1.7.8 6-.1 8.5 0 .1.4.3.4.4s-.6.1-.6.1c-1.4 2.7-5.1 3.3-7 3.2-.7-.1-.4.9-.3 1.2.3 1.4 1.9 4.4 4.9 9.2l.8.1-.5.4c.3.6 1.3 1.9 1.3 1.9v.4s1.6 2.3 2.5 3.4c.1.1.2-.1.3 0 .5.6 1.1 1.3 1.6 1.8 0 0-.1.2 0 .3.9 1 2.8 3.1 2.8 3.1l.4-.1 1.4 1.6c11.9-5.5 24.3-17.6 24.2-17.6l.1-26.1h-14.1l-.1-34.6 14.1 14.1-.1-4c-3.2-3.1-16-16.2-16-16.2q2.85-.45 5.4-1.8c3.1 1.7 6.3 2.7 10.1 2.2v-3.8c-4.3 0-6.9-1.4-8.8-3.2l-2.6-.1c-4.9 3.7-8.3 2-12 1.3l-2.5-3.7 26.1-.1-.2-9-4 .1-2.6-1.9 3 1.3s0-.5-.6-1.4c-1.6-2.7-3.7-6.6-4.9-10-.6-1.7-.6-1.7-.1-2.7.7-1.4.5-3.1-.4-4.1-.6-.7-.6-.8-.4-1.3.8-2-1.2-2.7-1.2-2.6-4.4 1.4-10.3-.4-10.2-.4m10.2.7c.9 0 1 .4 1 1-.1 1.2-1.6 1.6-2.3 1.8-3.4.8-9.2.3-9.6-1.3-.3-1.2.4-1.8 2.8-1.2 3.8.9 6.2 0 8.1-.3m-10.8 3.4c.3 0 .8.4.9.9s-.4 2-.8 2.3c-1.1.8-2-.5-1.3-1.9.3-.8.7-1.3 1.2-1.3m11.4.1c.2 0 .4 0 .6.2.8.6.9 2.7.1 3s-1.6-.5-1.5-1.9c.1-.8.4-1.3.8-1.3m-2.6.5c.2 0 .4 0 .5.1.7.3 1 2.5.3 3.2-.5.5-1.7.5-2-.6-.4-1.4.2-2.7 1.2-2.7m-6 0c1 0 1.3 2.3.3 3.3-.8.8-2.1 0-1.7-1.6.1-.8.6-1.6 1.4-1.7m2.9.4c1.5.3 1.4 4-.6 3.6-1.1-.8-1.1-3.5.6-3.6m-6.6 4 2.1.2c-.1 0-3.4 7.2-6.4 9.1 1.7-2.8 3.2-6.1 4.3-9.3m12.8.1c1.2 3.4 2.5 6.8 4.2 10.2-2.6-2.5-4.9-6.4-7-10.1zm-10 .3h1.4c.5 2.2 1.3 3.6 2.2 4.8.8-1.4 1.4-3 1.9-4.6h1.1c.4.3-1.3 6.8-3 7.6-1.8-1.5-3.4-5.6-3.6-7.8m-.6 1.5c-.1.2 2.2 5.8 4.1 7.6 1.8-1.8 3-4.2 3.8-7.1l6.1 8.6-5.9-4.1c-1.2 2-2.4 3.9-3.9 5.5-1.6-1.8-3-3.9-4.5-5.9-2.3 1.7-3.9 3.5-6.8 5.2-.1.1 5.7-6.3 7.1-9.8m-.6 6.2 4.1 5.1-11-.2zm9 .1 6.9 4.8-10.3.1zm-55.3 2.3s.1.3.1.5c1.2 5.1 4.6 9.3 9.7 8.8l-16.8 17s-2.8-9.5-8.4-19.3c0 0 1 .2 1.8.4.8.1 1.3.1 1.9-.1.4-.1.8-.3 1.1-.4.6-.1 1.5.1 1.9.3 1.2.2 1.9-.4 3.4-1.7.4-.3.5-.3 1-.3 1.8 0 3-1.6 2.8-4l-.1-1.1-.2 1.2c-.4 2.3-.7 3.3-3 3.4-.5 0-.7.4-1.6 1.1-1.2 1-2.1 1.1-2.9.7-.9-.4-1-.2-1.8.2-.9.5-2.3.4-3.5 0-1.7-.5-1.5-.3-1.5-.3 10 18 13.5 35.3 13.3 50.7-.3 21.9-7.9 39.5-14.5 50.2 0 0 1.1-.1 2.1-.3.5-.1.9 0 1.3.2.5.2.8.2 1.2.1.3 0 1.2 0 1.7.1 1.2.2 1.3 0 2.6-1.3 3.8-3.7 3.5-3.6 6.3-3.5 4.1.1 7.4 2.9 8.8 7.4.2.6.4 1.4.4 1.4l-.3-1.2c-1.2-6-6.3-8.2-10.5-8.1l17.8-18.1c-.1 0 4.1 13.8 7.8 19.9 0 0-1.1-.5-3.2-.2-1.1.1-2.4 0-3.1-.1-.9 0-1.5.2-2.6 1.2-.5.4-.9.8-1.8 1.2-2.2.9-3 1.9-3 4.3 0 .4-.1 1-.1 1.2v.2s.1-.1.1-.2c.1-.2.3-.6.5-1.6.3-1.8.7-2.4 2.4-3.2.5-.2 1.6-.9 2-1.3 1.6-1.3 2.1-1.5 3.3-1.2.7.2 1.3.3 2.3.1 1.1-.1 1.2-.2 2.4.1.8.2 1.9.4 1.9.4-17.3-35.2-16.7-67.8.3-101 0 0-5 .1-5.3.2-.1 0-.7 0-1.4-.1-1.4-.3-1.1-.1-4.3 3.2-4 4.1-10.4.8-12.3-6-.1-.4-.2-.6-.3-.8.5-.1.3-.3.3-.3m16.4 4.1c.7.1 1.3.3 1.2 1l-23.8 23.6-.4-1.5zm5 .1c-.3.6-1.1 1.3-1.4 1.9l1.3 1.6-.7 1.3-2-1.7-3.8 3.8 3.2 3.6-3 3.1-1-1.1 1.6-1.7-2.5-2.3-4.3 4.3 3.5 3.6-2.6 2.5-1-1 1.4-1.5-2.3-2.4-4 4.2 3.2 3.6-2.5 2.5-1.1-1.1 1.2-1.3-2.3-2.4-4.1 4.1 3.3 3.7-2.4 2.2-.9-.9 1.2-1.3-2.2-2.4-2.5 2.3-.4-1.6 25.2-25.4zm1.4.4-1.1 2.2-.8-.9 1.1-1.1zm-59.4.1c-.7.2-15.6 8.6-24.2 17.9v3.5l-.3.4.2 5.4.2.3.1 2.2-.3.6v6l.5.1.1 7.4h14v35.1s-8.2-9.2-14.2-14.6v4.1l15.7 16.5c-1.1.2-2.5.4-4.6 1.6-5.1-3.2-11-2.2-11-2.2v4.2c3.7-.4 7.1.2 11.1 2.8 3.2-2.2 7.1-3.6 13-1.8 1.3 2.1 2.6 4.2 3.8 5.6l-27.8.2v8.5h4.3c1.6 3.1 4.6 7.3 5.9 12.7-1.8 2.1-1.6 3.9.1 6 0 1-.3 2 .8 3.1 3.5-1.8 7.5-1 10.5-.1 1 .3 1.4-.9 1.4-2.3-.1-.8-.1-1.2.5-1.8 1.5-1.3.6-4.1.3-4.1-.1-2.4 7.5-14.4 7.5-14.2l-1.5.6h-6.5c17-16.6 24.1-35.6 22.6-57.1-.3-5.4-1.2-7.9-1.2-7.9-6 2.7-10.9 4.7-15.7 9.9l-.3-11.2c.3.5 2 1 2.8.3.5-.4.6-.7.1-2.1-.7-2-.9-6.2-.4-7.6.1-.2.1-.6.2-1 .1-.6-.1-.6-.1-.6.1 0 .7.1.8 0 2-1.8 4.2-3 6.9-3.1l.1-1.3c-2-5.1-3.7-7.1-5.5-10 0 0-.5-.2-.8-.1l.4-.4c-2.5-4.2-6.1-7.9-9.5-11.5m-.1.7 1.8 1.7c-8.6 4.2-17 10.3-25.4 18.6l.1-3.1c9.5-8.9 16.6-13.2 23.5-17.2m55.1 3.1 1.1 1.1-1.5 1.8 1 1-.5 1.3-2.5-2.6zm-53.6.1c.6 0 1 .5 1 1 0 .6-.5 1-1 1-.6 0-1-.5-1-1s.5-1 1-1m73.5 1.5c17.5 19.8 8.5 48.5-14.8 55.4l-.3-1.6c23.6-8.1 29.1-35 13.8-51.9zm-70.4.1 1.1 1.3c-10 4.8-19.7 12.1-29.1 22.5l-.1-2.6c8.8-9.4 18.3-16.3 28.1-21.2m-6.5.4c.6 0 1 .5 1 1 0 .6-.5 1-1 1-.6 0-1-.5-1-1s.5-1 1-1m-3.1 1.9c.6 0 1 .5 1 1s-.5 1-1 1c-.6 0-1-.5-1-1s.5-1 1-1m10.4.7c.6 0 1 .5 1 1 0 .6-.5 1-1 1-.6 0-1-.5-1-1s.4-1 1-1m44.4.7 1 1.1-1.6 1.7 2.3 2.4 2.2-2.2-1.1 3.2-19.6 19.9-.4-2.1 1.5-1.6-2.4-2.4-.4-1.6 2.3-2.2 1 1-1.4 1.6 2.2 2.2 4-3.7-3.3-3.7 2.7-2.7.9.9-1.3 1.4 2.3 2.5 4.1-4-3.3-3.6 2.7-2.7 1 1-1.4 1.7 2.3 2.3 4-4-3.3-3.5zm-57.8.7c.6 0 1 .5 1 1s-.5 1-1 1c-.6 0-1-.5-1-1s.4-1 1-1m16.1.2.8 1.3c-11.9 6.1-20.1 12.2-32.2 26.2v-1.8c9.3-11.6 19.1-19.1 31.4-25.7m-6 .2c.6 0 1 .5 1 1s-.5 1-1 1-1-.5-1-1 .5-1 1-1m91.9.4c2.1 1.9 6.5 3.8 9.3 3.6l.1 2.3c-4.9.5-9.3-2.7-9.3-2.7-3.8 2.4-7.7 2.7-11.7 1.6l-1.6-3.4c6 2.8 11.7.1 13.2-1.4m-23.7.6c.2.4 1 .9 1 .9 4.6-1.2 6 3.6 3.9 6.4l.6 2c.8.2 1.5.4 2.1.9 1.1.8 1.7 2.2 1.6 3.6.2 1.6-2.1 3-2.3 2.9v2.2c.6.5 1.4 1.1 1.9 1.8 1.1 1.9.7 3.8-1 5-1 .7-2.1.8-2.2.7l-1.1 2.5c.9.5 1.2 1.5 1.3 2.1.3 1.4-.7 3.3-1.9 3.9-1.6.9-3.7.1-3.7.1l-1.5 1.5c.4 1.3.5 2.1.3 2.9-.5 1.9-2.5 2.7-4.1 2.5-1.3-.1-2.2-1-2.2-1l-1.7.7s0 2.2-.8 2.8c-.3.3-1.2.9-1.2.9l-.2-1.5c.7-.5 1.1-1.7.9-2.5l3.6-1.8c0 .1 1 1.1 1.7 1.2 1.4.3 2.8-.8 2.8-2.1 0-.8-.4-1.3-.5-1.9l3.1-3.2c1.3.4 2.2.5 2.7.2 1.1-.6 1.4-1.9 1.2-2.7-.2-.9-1.1-1.5-1.1-1.6l1.7-4.4c.8 0 1.3-.1 1.9-.5 1.3-.8 1.1-2.5.6-3.3-.7-1-1.6-1.1-1.7-1.1l.1-4.6s1.7-.8 1.9-1.9c.3-1.5-.3-2.5-2.2-2.9-1-.2-1 0-1 0l-1.4-4.1c2.3-1.4 1.6-3.6.4-4.4s-2.9-.1-2.9-.1l-1.4-1.4zm-60.8.8c1.5 2 4 6.1 5.4 9.8.1.2 0 1 0 1-4 .4-5.4 2-6.9 3.1-1.1-.6-1.6-1.3-3.6 0 0 .1-5.1-3.1-6.1-7.5 3.7-2.3 7.2-4.5 11.2-6.4m-20.5.1c.6 0 1 .5 1 1 0 .6-.5 1-1 1-.6 0-1-.5-1-1 0-.6.4-1 1-1m9.7.2c.6 0 1 .5 1 1 0 .6-.5 1-1 1-.6 0-1-.5-1-1 0-.6.4-1 1-1m70 1.3c1.8 2.4 4.4 6.8 5.1 10.8.9 5.5.3 11.4-2.2 15.4-4.5 8.7-12.4 10.5-12.4 10.9l-.1-1.8c.1.4 6-2.1 10.1-7.9 2.5-3.9 3.9-9.5 3.4-13.8-.3-6.3-4.7-12-4.7-12.1zm-82.9.8c.6 0 1 .5 1 1 0 .6-.5 1-1 1-.6 0-1-.5-1-1s.4-1 1-1m9.7 0c.6 0 1 .5 1 1s-.5 1-1 1c-.6 0-1-.5-1-1s.4-1 1-1m87.3 1.8c2.3.2 5 4.4 7.6 6.8v34.1l-7.5.2c-1 2.4-3.3 4.8-6.9 7.1v-12.9c12.4-13.4 9-28.2 6.8-35.3m-99.8.4c.6 0 1 .5 1 1 0 .6-.5 1-1 1-.6 0-1-.5-1-1 0-.6.4-1 1-1m9.3.1c.6 0 1 .5 1 1s-.5 1-1 1c-.6 0-1-.5-1-1s.5-1 1-1m95.8.1 15.4 15.8-.1 2.3-17.4-17.9zm-90.1 1.5.4 2c-.5-.8-.5-1.1-1.4-1.2zm-8.4.6c.6 0 1 .5 1 1 0 .6-.5 1-1 1-.6 0-1-.5-1-1s.5-1 1-1m-9.2.3c.6 0 1 .5 1 1s-.5 1-1 1-1-.5-1-1 .4-1 1-1m86.8 0 3 2.2-1 3.9-3.1-2.8zm-70.4.3.5.3-.6 2.7-7 2.6c2.3-2 4.6-4.1 7.1-5.6m1.2 1.3c.5 2 1.6 5 2.9 7.5-.9.5-4.1 2.3-4.1 3.2.5 1.6 3.9 3 3.9 3-1.3 2.1-2.5 4.6-3.5 7.5-.6-1-.7-5 .6-6.6-1.2-.5-2.9-1.6-4.2-2.8.8-3 4.4-4.8 4.5-4.8-.2.1-1.2-6.3-.1-7m-11.4.5c.6 0 1 .5 1 1 0 .6-.5 1-1 1-.6 0-1-.5-1-1 0-.6.4-1 1-1m78.1 0c4.6 8.6 1.8 16.1-5.4 21.4l.2-2c5-3.7 8.3-11 4.6-17.9zm-86.8.3c.6 0 1 .5 1 1s-.5 1-1 1c-.6 0-1-.5-1-1s.5-1 1-1m72.9 0c-3.3 12.6-3.3 18.4-3.6 21.9l-13 .1-.5-4.6zm-51.9.4s2.8 2.7 5.3 5l-.3.6-2.5.3c-1.8-3.8-2.5-5.9-2.5-5.9m-2.3 1.4.2 1.9c-.8 0-10 3.8-17 10 1-1.9 2.8-3.7 4.5-5.2 3.7-3.6 12.3-6.7 12.3-6.7m-12.9.4c.6 0 1 .5 1 1 0 .6-.5 1-1 1-.6 0-1-.5-1-1-.1-.5.4-1 1-1m5.7 1.2.5.5-2.4 1.3zm16.9.5h.1c.4 0 .5.2.7.4-.5-.1-.9-.2-1.4-.1q.15-.15.6-.3m-9.3.4.2 1.4c-5.2 3-11.5 5.9-20.6 14.6v-2.9c5.8-5.3 12.4-9.8 20.4-13.1m7.1.2q.45.15.9 0s-.2.4-.4.4c-.3 0-.5-.4-.5-.4m2.2.1c.7 0 1.1.6 1 1.4-.5 2.7-.5 5.4.1 7.3.4 1.5.5 2 .2 2.2-3.1 2.2-4.8-7.6-2.2-10.4.2-.4.6-.5.9-.5m-25.3.3c.6 0 1 .5 1 1 0 .6-.5 1-1 1s-1-.5-1-1 .5-1 1-1m88.9.2 1.9 3.3-2.7 3-1.6-3.5zm-66.2 1.8-.1 1.1c-1.4.4-2.6 1-3.6 1.9-.2.2 3.2 1.7 3.6 1.4v1.2c0 .4-5.6-1.4-6-2.7.6-.9 4.1-3 6.1-2.9m-25.4.6c.6 0 1 .5 1 1s-.5 1-1 1-1-.5-1-1 .5-1 1-1m15.2 1.2c-.4.8-1 1.8-1.1 2.9-3.8 2.4-7.7 4.6-12.5 10h-2.6l-.1-.7c5.3-5.1 11-9.5 16.3-12.2m9.9.3v1.4c-.9 0-1.4-.3-2-.6.5-.3 1-.7 2-.8m28.8.2.7.8-.4.4zm-38.8 2.9 1.4.9c-3.6 1.9-7.5 4.8-10.8 8.5h-2.8c3.6-3.8 7.4-7.3 12.2-9.4m75.6 1.1.3 3.9-3.6 2 .1-4.1zm-67.7 0 2.4.3.3 1c-2.1 1.3-3.8 2.9-5.5 4.5.6-2.1 1.7-4.1 2.8-5.8m-5.8.4 1 .5-.4 1.8c-3 1.4-5.4 3.2-7.9 5.6h-2.9c2.5-2.7 6.7-6.1 10.2-7.9m9.1 1.7.4 11.9c-10.6 12.6-10 24.7-6.9 35.7l-2-.1c-2.3-3-5.5-6-5.5-6v-34.7h7.3c1.7-3.9 6.4-6.8 6.7-6.8m-8.6 1.7.1 1.6q-2.25 1.35-3.9 3h-2.7c1.8-1.8 3.7-3.6 6.5-4.6m24.8.8.4 1.9c-24.5 9-29 35.2-14.5 53.2l-1 1.1c-16.6-18.2-9.3-47.8 15.1-56.2m-24.7 1.8s.1 1.4.2 1.9h-2.7c.6-.7 1.1-1.4 2.5-1.9m69.1.6-1.6 3.7-4.2.1 1.9-3.7zm-26.7 2.6h3.8v3.7h-3.8zm-16.7.4.1 1.6c-1.7.9-1.3 2.3-1.7 2.3-1 .3-3.8 1.8-3.8 1.8-1-.9-2.3-.7-2.9-.2-.9.6-1 1.9-.8 3l-2.9 3.5c-1.4-.6-2.8-.6-3.5.4-.8 1.1-.5 2.4.8 3.9l-1.6 4.2c-.2-.2-2.9.5-2.9 2.2s2.2 2.8 2.2 3l-.1 4.6c-.1-.2-2.3.7-2 2.9.3 2 3 1.8 3 1.9l1.5 4.4c-.1-.1-2 1.8-.8 3.5 1 1.5 3.8.5 3.8.4l.8 1.1-.9 1s-.4-.5-.6-.4c-1.6.3-3.5-.1-4.4-1.4-1.2-1.9.1-4.8.6-4.8l-1-2.5c-1.9 0-3.4-1.7-3.5-3.1-.2-2.9 2.2-4.2 2.2-4.2l.1-2.7c-.1.2-2.4-1.4-2.3-3.2 0-1.3 1.1-2.9 2.5-3.5l1-.5.9-2.2s-1.3-1.9-1-3.8c.6-2.9 4.4-2.7 5-2.4l1.7-2.2c-.9-2 .6-4.4 2.6-4.7.9-.1 3.3.4 3.3.4l2.2-1.2c-.1-1.6 1.2-2.4 2.4-3.1m12.7 4h3.3v3.7h-3.3zm8.8 0h3.7v3.7h-3.7zm-21.2 1v1.4c-21.3 10.5-12.6 32.1-9.5 34.7l-.7 1.5c-3.8-2.3-13.4-27.3 10.2-37.6m16.4 3.8h4v3.8h-4zm-17.3 1.8-1.3 3.5-3.9.3 1.4-3.5zm79.8 2.6h2.7c-5 5.9-10.4 10-15.7 12.2 0 0 0-.5.1-.9.1-.3-.1-1.2-.1-1.2 5.9-3 10-6.4 13-10.1m-13.7 0c-.7.8-1.5 1.6-2.4 2.1l-.4-2.2c.8.1 2.8.1 2.8.1m4.7 0c.3.7-7 4.7-7 4.3v-1.3l3.9-3zm1.6 0h2.1c-1.9 3-11.6 8.3-11.2 7.6l.4-2.2c3.1-1.4 5.9-3.3 8.7-5.4m3.4 0h2.7c-4.1 5.2-8.2 7.1-12.1 9.4-.2 0-.1-.1-.9-.1l-1.4-1.1c.3.2 9.2-5 11.7-8.2m-75.4.2-.1 1.6c-5.7 5-8 11.3-5 18.6l-.7 1.6c-3.2-7.9-2.3-15.5 5.8-21.8m25.8.2.3 4.3-17.6 17.4c2.7-9.7 3.4-15.6 4.1-21.7zm56.4 1v2.4c-6.9 7.8-14 11.3-20 12.7l-.1-.9 2.8-1.8c9-4 13-8 17.3-12.4m-21 .1c.1 1.7-1.4 4.9-3.1 6.8h-2.9l-.3-1.3c2.3-1.4 4.6-3.2 6.3-5.5m.8.5c1.1 1.8-.5 6.3-.6 6.1-.1.3 9.2 2.3-.4 7 .2 1.4 1.1 4.3.4 6.2-.2-.7-1.9-5.4-3.2-6.6 3-.9 5.2-2.7 4.9-3.3-.5-.9-1.8-1.9-4.1-2.7 2-2.8 2.6-4.9 3-6.7m-68.7.8.3 3.6-3.4 2.1-.3-3.9zm59.5 3.4c.3 0 .5.1.6.2 1.7.7 1.8 9.1.3 9.9-1.1.7-1.9-.4-1.9-.6.7-3.8.3-6.2 0-8.9 0-.4.5-.6 1-.6m29.4.1v3c-9.9 10.5-20.6 18.7-31.6 23.3l-1-1.7c13.4-6.2 24.5-15.1 32.6-24.6m-1.7.3c-4.6 6.5-10.2 10.7-17.9 12.7l-.1-1.8c9.5-2.3 18.2-10.9 18-10.9m-125.2 1c6 6.2 12.1 12.4 18.2 18.8l-2.4.1-15.9-16.7zm71.3.3.2 1.5-1.7 1.9 2.8 3 .1.7-2.4 2.5-1.1-1.1 1.3-1.5-2.2-2.4-4.1 4 3.4 3.7-2.6 2.5-1-1.1 1.3-1.5-2.3-2.4-4.2 4.2 3.2 3.6-2.1 2.4-1-1.1 1.1-1.3-2.3-2.4-4 3.9 3.3 3.7-2.7 2.7-1-1 1.5-1.7-2.5-2.4-2 1.9s.8-1.9.9-2.2c.2-.5.8-.8 5-5 5-4.8 10.1-9.5 15.1-15.1m28.8 1.1c1.5 0 4 .4 5.2 1 2.2 1.2 1.5 2.1.1 2.9-1.7.8-3.2 1.3-5.1 1.3l.1-1c1.1-.3 2.3-.6 3.3-1.1.7-.4.9-.7.9-.7s-.7-.7-1.8-1.1c-.8-.3-1.9-.3-2.5-.4zm-65.6 1.3 1.8 2.8-2.2 3.7-2.1-3.2zm37.2.3c.1.5.7 2.6.4 2.2l-1.2-1.4zm28.5.2c1 .1 2.1.1 2.8.5-.9.7-1.8.8-2.8 1zm25.6 1.4c.6 0 1.1.5 1.1 1.1s-.5 1.1-1.1 1.1-1.1-.5-1.1-1.1c-.1-.5.4-1.1 1.1-1.1m-57.6 2 1 .9-1.2 1.5 2.2 2.4 2.8-2.6.4 1.7-25.9 25.8-1.4-.1 1.6-2-1.9-1.9.8-1.4 2.2 2 4-3.9-3.3-3.5 2.8-2.9 1.1.9-1.6 1.8 2.3 2.4 4.2-4.2-3.3-3.7 2.6-2.6 1 .9-1.2 1.3 2.4 2.5 3.6-3.8-3.2-3.6 2.9-2.8.9.9-1.3 1.5 2.4 2.5 3.9-4.1-3.2-3.5zm55 .7c.6 0 1.1.5 1.1 1.1s-.5 1.1-1.1 1.1-1.1-.5-1.1-1.1.4-1.1 1.1-1.1m-21.1 0q2.7 3.15 3 6.9c-1.4-2.2-3.2-4.1-5.5-5.7l.4-1zm24.8.2v2.5c-7.8 9-17.3 15.8-27.1 20.5l-1.7-2c11.6-5.2 20-11.7 28.8-21m-11.5 1.8-3.2 2.5v-1.1zm-16.4.2c2.7 1.3 5 3.6 6.3 7-3.7 2.4-7.7 4.3-11.6 6.2-1.9-3-3.7-5.9-5.2-9.8 6 0 7.6-3.3 7.6-3.4 1.5.5 1.8.5 2.9 0m21.4.4c.6 0 1.1.4 1.1 1.1 0 .6-.5 1.1-1.1 1.1s-1.1-.5-1.1-1.1c.2-.7.7-1.1 1.1-1.1m-8.2.8v1.1c-1.5 1.4-4.5 3.5-4.5 3.5l-1.2-.1.4-3.1c1.9-.3 3.7-.9 5.3-1.4m-77.8.1 2.9 2.4-.9 3.8-2.9-2.2zm39.2.7.3 1.1-24 24-1.4-.2zm44.2 1c.6 0 1.1.5 1.1 1.1s-.5 1.1-1.1 1.1-1.1-.5-1.1-1.1.5-1.1 1.1-1.1m8.8 0c.1 0 .3 0 .3.1v2.1c-.1 0-.2.1-.4.1-.6 0-1-.5-1-1.1s.5-1.2 1.1-1.2m-2.7 2.5c.6 0 1.1.5 1.1 1.1s-.5 1.1-1.1 1.1-1.1-.5-1.1-1.1.5-1.1 1.1-1.1m-9.3 0c.6 0 1.1.5 1.1 1.1s-.5 1.1-1.1 1.1-1.1-.5-1.1-1.1.5-1.1 1.1-1.1m-8.1.3h1.1l-2.1 1.3c.4-.4.8-.8 1-1.3m20.4.6v2.3c-5.5 5.6-12.4 11.3-23 16.9l-1.3-1.4c8.6-4.2 16.7-10 24.3-17.8m-15.5 1.2c.6 0 1.1.5 1.1 1.1s-.5 1.1-1.1 1.1-1.1-.5-1.1-1.1.5-1.1 1.1-1.1m9.9.1c.6 0 1.1.5 1.1 1.1s-.5 1.1-1.1 1.1-1.1-.5-1.1-1.1.5-1.1 1.1-1.1m-111 4.6c3.8-2.2 6.8-2.5 11.2-1.8l1.3 2.6c-4.2-.8-8.7-.7-12.5 2.3-3.9-2.5-6.9-3.3-10.2-2.8l-.1-2.7c4.3-.8 8 .7 10.3 2.4m98-2.5c.6 0 1.1.5 1.1 1.1s-.5 1.1-1.1 1.1-1.1-.5-1.1-1.1.5-1.1 1.1-1.1m10.2.5c.6 0 1.1.5 1.1 1.1s-.5 1.1-1.1 1.1-1.1-.5-1.1-1.1.5-1.1 1.1-1.1m-13.5 1.6c.6 0 1.1.5 1.1 1.1s-.5 1.1-1.1 1.1-1.1-.5-1.1-1.1.4-1.1 1.1-1.1m10.3.7c.6 0 1.1.5 1.1 1.1s-.5 1.1-1.1 1.1-1.1-.5-1.1-1.1.5-1.1 1.1-1.1m-13.8 1.3c.6 0 1.1.5 1.1 1.1s-.5 1.1-1.1 1.1-1.1-.5-1.1-1.1.5-1.1 1.1-1.1m10.9 1c.6 0 1.1.5 1.1 1.1s-.5 1.1-1.1 1.1-1.1-.5-1.1-1.1.4-1.1 1.1-1.1m-14.2.8c.6 0 1.1.5 1.1 1.1s-.5 1.1-1.1 1.1-1.1-.5-1.1-1.1.5-1.1 1.1-1.1m-49.3 1 2.8 2.6-2.9 2.9-1-1 1.6-1.7-1.1-1.5zm60.4.3c.6 0 1.1.5 1.1 1.1s-.5 1.1-1.1 1.1-1.1-.5-1.1-1.1.5-1.1 1.1-1.1m-3.2 1.9c.6 0 1.1.5 1.1 1.1s-.5 1.1-1.1 1.1-1.1-.5-1.1-1.1.5-1.1 1.1-1.1m-3.5 1.9c.6 0 1.1.5 1.1 1.1s-.5 1.1-1.1 1.1-1.1-.5-1.1-1.1.5-1.1 1.1-1.1m-57.3 3.2.9.7-1.4 1.7h-1.1zm-17.5 4.7c-3.2 1.6-4.7 2.6-6.9 4.5l-3.2-4.4zm-21.5 0 8.4.1-2.8 4c-1.9-1.9-3.7-3.3-5.6-4.1m10 .4c.9.3 3.3 3.7 4.4 5.6 2.4-1.9 4.7-4.1 7.3-5.3-3 3.3-5.7 6.6-7.6 9.9-.5-1.5-2-5.7-3.9-7.5-3 2.8-4.2 6.3-4.2 6.3-1.6-2.8-3.5-5.6-5.8-8.2-.4-.5 2.7 1.4 5.8 4.5.9-2.1 3.2-5.2 4-5.3m-10.1 2.2c1.4 1.2 5.4 6.3 5.8 9.4l-1.9.1c-1-3.2-2.7-6.3-3.9-9.5m20.9.5c-1.4 3-3.2 6-4.5 9.3l-1.9-.1c2.1-4.5 2.9-5.3 6.4-9.2m-10.7 1.4q.15 0 0 0c1.8 2.5 2.6 4.8 3.2 7.7l-1.4-.1s-1-2.9-1.6-3.9c-.4-.6-.8-.5-1.1 0-.7 1.2-.9 2.5-1.3 3.8l-1.6-.1c-.2-2.2 3.3-7.4 3.8-7.4m-.2 8.4c.6 0 1.3.7 1.3 1.9 0 .6-.4 1.9-.9 1.9-.9.5-1.9-1-1.7-2.3.3-1 .7-1.5 1.3-1.5m-3.1.2c1.3.1 1.5 3 1 3.6-.6.6-2.1.2-2.3-.9-.5-1.3.4-2.7 1.3-2.7m6.2 0c1.4.2 1 3.4.3 3.8-1.1.6-1.9-.4-1.6-1.9.4-1.2.8-1.9 1.3-1.9m3.2.5c1.6.2.7 3 0 3.5-1 .8-2-.4-1.5-1.8.4-1 1-1.7 1.5-1.7m-12.7.1c1.1.2 1.8 2.8 1.1 3.6-.4.4-1.4-.2-1.9-.9-.5-.9 0-2.7.8-2.7m12.2 5.7c.1 1.4-.9 1.4-3.9.7-1.5-.3-4.1-.1-5.5.1-2.3.4-2.6.3-2.6-.7 0-1.1 1.3-1.7 4.2-1.8 2.2 0 7.5 0 7.8 1.7m4.6-.8c-3.5.3-4.5 4.8-4.1 6.5.3 2.8.2 5.7-.3 7.6-.4 1.4-.7 2.8-1.3 4.1-.9 1.9-.7 3.3.7 4 1.1.6 2.5.4 3.4-.5 1.6-1.7 1.8-5.4.8-13.6-.3-2.9-.2-3.5 1.2-3.3 2.9-.2 2.8-4.8-.4-4.8m-.4 3.8c-.8-.3-1.3.4-1.2 2.2 0 .8.2 1.7.3 2.4 1.1 7.9.7 13.3-1.7 13.5-2.1.3-3.5-1.2-2.5-2.8.6-.9 1.1-1 2.2-.6 1.5 1 1.2-.4-.2-1.5-.9-.6-1-.6-.5-2.6.6-2.7.9-4.6.6-8-.3-2.4.5-5.6 3.5-5.8 3-.1 2.1 4.3-.5 3.2m-21.7 10.5c1 .5 2 .4 2.9 0 .4-1.7.4-3.1 1.5-5.4-1.9-1.9-5-1.1-5.9.8-.8 2 0 3.8 1.5 4.6m3-5.9c1.1.2 1 1.4-.1 1.1-2.5-1.2-4.6 2.4-2.6 3.8 1 .6 1.5.3.5-.6-.4-.5-.3-.7-.1-1.2.5-1 2.5-.8 2.3-.1-.4 2.3-.7 3-1.4 3-3.9.2-4.6-7.3 1.4-6m33.4 4.1s-11.7 13.5-17.4 20.3l70.8-.3-13.5-18.9c-11.5 2.8-25.1 2-39.9-1.1m-.3 4.3c1.8 0 3.8 1.3 5.5 5.7.1 0 7.8-11.8 14.4.5 1.1-2.8 7.4-10 14.6-.7 2.6-6.2 8.5-4.1 9.1-1.9-.1-.5-5.7-1.8-8.1 2.3-.4.9-.5 1.7 0 2.2 1.2 1.2-.1 2.8-1.5 1.9-.5-.4-.6-1.1-.2-1.7 1.2-.9-1.3-3.7-3.3-4.8-2.8-1.4-6.7-.8-8.5 1.2-1 1.1-1.6 2-1.8 2.8-.1.4 0 .5.2.8.8 1 .3 2.3-.8 2.2-1.4-.2-1.2-1.6-.3-2.3.3-.1.2-.3.1-.6-2.6-7.5-12.4-6.1-13.4-.9 0 .2-.1.4-.1.6.1.5.4.9.3 1.3-.4 1.6-2.4 1.1-2.5-.2 0-.6.6-.8.9-1.3.2-.3.3-.8.1-1.1-2.6-5.6-7.2-4.4-9.4-3.2 0-.1 2.1-2.8 4.7-2.8m-2.9 3.3c1 0 1.8.4 2.7 1.4 2.8-1.5 4.7 1.1 4.4 1.3-3.9-2.6-5.2 3.4-1.3 3.2-1.7 3.6 4.4 5.1 3.7.5 3.7 1.3 4.4-3.9.6-3.8 1.2-2.2 4.4-1.6 5.8-.2 1.6-2 5.5-.1 5.9 1.6-4.4-2.3-4.8 4.7-.6 3.2-1.2 4.4 5.5 3.8 3.6 0 4.2 1.4 3.6-4.9-.5-3.7-.2-.3 3.2-4 5.8-.6.3-.6 4.3-2.6 6.5.5-4.7-1.6-3.8 4.8-.4 3.5-.9 4.3 5.2 3.6 3.6-.1 4.7 1.2 2.6-6.1-.7-3.4.5-2.9 4.5-1.7 4.5-1.3 0 0 2.1-2.3 4.5-.6-3.7.3-2.4 5.4 1 3.9 0 1.7 1.4 2.8 3.3 2.3l3 4.2-67.8.4 5.4-6.6c1.8 1.5 3.7.8 3.9-1.6 3.9 2.5 5-3.4 1.3-3.6.4-.2 1.1-.5 1.8-.5m-3.8 1.9c.2.2-.1 1-.6.7zm52.8 1.7c.2.3.3.5.5.8.2.2-1-.2-.5-.8"/>
    <path fill="#d40000" d="M48.064 64.76s-3.7-6.1-8.7-13.3c-3.4-4.8-6-10-6.3-14.5-.3-5.1 2.4-10.3 7.3-10.5s6.9 3.9 7.7 7.4c.8-3.5 2.8-7.7 7.7-7.4 4.9.2 7.6 5.4 7.3 10.5-.2 4.5-2.9 9.7-6.3 14.5-5 7.2-8.7 13.3-8.7 13.3M130.564 184.66s-3.7 6.1-8.7 13.3c-3.4 4.8-6 10-6.3 14.5-.3 5.1 2.4 10.3 7.3 10.5s6.9-3.9 7.7-7.4c.8 3.5 2.8 7.7 7.7 7.4 4.9-.2 7.6-5.4 7.3-10.5-.2-4.5-2.9-9.7-6.3-14.5-5-7.2-8.7-13.3-8.7-13.3"/>
</svg>
