<svg xmlns="http://www.w3.org/2000/svg" xml:space="preserve" width="178.6" height="249.4" viewBox="0 0 178.6 249.4">
    <path fill="#fbfbf6" stroke="#7f7f7f" stroke-width=".4" d="M3642.6-382.9h160.8c4.7 0 8.5 3.8 8.5 8.5v231.6c0 4.7-3.8 8.5-8.5 8.5h-160.8c-4.7 0-8.5-3.8-8.5-8.5v-231.6c0-4.6 3.8-8.5 8.5-8.5z" transform="translate(-3633.726 383.253)"/>
    <path d="M14.064 40.252c-3.4 4.4-7.1 6.9-7.2 10.3 0 1.1.6 3 2.7 3.3 1.4.2 3.2-.8 3.3-2.7 0-.4.5-.4.5.2-.1 1.6-.6 3.4-1.6 4.9h4.5c-.9-1.5-1.5-3.3-1.6-4.9 0-.5.5-.6.5-.2 0 2 1.9 3 3.3 2.7 2.1-.4 2.8-2.2 2.7-3.3.1-3.4-3.6-5.9-7.1-10.3M164.464 209.153c-3.4-4.4-7.1-6.9-7.2-10.3 0-1.1.6-3 2.7-3.3 1.4-.2 3.2.8 3.3 2.7 0 .4.5.4.5-.2-.1-1.6-.6-3.4-1.6-4.9h4.5c-.9 1.5-1.5 3.3-1.6 4.9 0 .5.5.6.5.2 0-2 1.9-3 3.3-2.7 2.1.4 2.8 2.2 2.7 3.3 0 3.5-3.7 6-7.1 10.3M14.764 34.852h2.6l-3.9-9.7-3 4.1v5.6h2.1v2.9h-7.3v-2.9h2.4v-20.9h-2.4v-2.5h7.5v2.6h-2.1v10.2l6.5-10.3h-2.3v-2.5h7.9v2.5h-2.1l-5.4 8.4 5.2 12.5h2.3v2.9h-8.2zM163.864 214.553h-2.6l3.9 9.7 3-4.1v-5.6h-2.1v-2.9h7.3v2.9h-2.4v20.9h2.4v2.5h-7.5v-2.6h2.1v-10.2l-6.5 10.3h2.3v2.5h-7.9v-2.5h2.1l5.4-8.4-5.2-12.5h-2.3v-2.9h8.2z"/>
    <path fill="#131f67" d="M23.964 19.452h130.6v210.5h-130.6zm92.7 209.2c-4.9-8.9-12.5-23.3-12.8-23.4-2.8 1.5-31.8 5.4-45.7 1.6-4.8 7.2-9.4 14.3-13.6 21.5zm-44.4-26.5c-.7 0-1.5.5-1.4.1.1-.2.3-2.5.4-3.3.2-.4.5.6.5 1.5 0 .5.2.1 1.9.2 1.8.1 3.2.4 3.8.6 2.1.5 6.2.1 7.9-1.1.9-.7 1.3.1.3.8-4.4 3.4-7.9 2.1-11.7 1.5-.6-.2-1.1-.3-1.7-.3m1.8-3.2c-.3-.2-.5-.2-.8 0-1.4.6-1-.3 0-1.2.4-.4.4-.6.1-1.1-.2-.2-.5-.2-.4-.6.3-1.4 2.3-3.6 4.5-4.6.9-.4 1.1 0-.1.7-1.8 1.1-2.4 2-1.4 1.6 2-.7 3.8-.2 6.4 1.1.7.4 1.1.4 1.7.4.5-.4.9.1 1.2.3.2.1.2.2.4.2 1.5-.3.6.6-1.4 2-3.6 2.6-7.4 3.8-10.2 1.2m5.5.6c1.5-.4 3.2-1.4 4.3-2.3 1.3-1.2.6-1-.9-.3-2.2 1.1-3.7 1.4-6.2 1.3-2.1 0-2-.1-2.1.1-.3 1 2.6 1.9 4.9 1.2m-4-3.5c.1-.4.2-.9.1-1.1-.2-.3-.6-.1-1.1.6-.3.4-.3.5 0 .8.2.1.3.2.4.2.4.2.5-.2.6-.5m.9.5c.6-2.2 2.1-2.1 3.1-.1h.7c-1.5-4-4.3-2-4.4 0 .3.2.6.1.6.1m5.3-.3c.7-.4.6-.6-.3-1.1-.6-.3-.9-.4-1-.2 0 .4 0 1.1.3 1.4.2.2.6.1 1-.1m-9.4-6.2c-.1-.2-.1-.6.4-.8 2.9-1.3.8-4.2-1.4-2-.7.6-1.8.9-2.6.5-.8-.3-.8-1.3.2-1.5.3-.1 1.2-.2 1.5-.5 3.9-2.1 5.9 2.4 3.2 3.9-.6.4-1.2.6-1.3.4m-10.8-4.1c-1.6-.7-1.8-3.2-.3-4.2.9-.6 1.9-.8 4.5.5 1.8.9 2.9-.1 2.8 1 0 .6-.1 1.3-1.1 1.4-1.7.3-2.9-2.1-5.1-1.9-1.6.2-1.4 2.1-.2 2.5 1.4.5.5 1.1-.6.7m28.8.3c-.3.1-.4-.5-.3-.8.8-1.9 1.5-3.3 2.2-5.1.6-1.4.9-2 1.2-2s.4.2-.1 1.1c-.6 1.7-3 7-3 6.8m-12.9-.4c-.7-.5-.6-1.2.2-.7 1 .7 2.7-.6 2.3-1.8-.4-1.5-2.4-1.9-4-.5-2.6 2.1-5.5 2.2-5.5.6 0-.5-.1-.6 1-.7 1.3-.1 2.7-.7 3.4-1.1 3.2-1.9 6.6-.6 5.9 2.6-.3 1.5-2.1 2.3-3.3 1.6m-11.6-4.8c-.3 0-.7.3-.9.2-.3-.2-.2-.8-.4-1.4-.4-1.1 0-.8.7-.5.9.4 1.8.3 2.6 0s1.9-.2 3.5 0c1.4.2 2.1.1 3.4-.2 1.3-.4 1-.3.8.6-.1.5-.3 1.3-.5 1.4-.9-.5-1.6-.3-2.2 0-1 .4-1.7.5-2.5.3-.8-.4-1.2-.4-1.8 0-1.3.5-1.8-.4-2.7-.4m19.9-2.3c.2-.3.5-.8.7-1.3 2.1-4.1 2.2-5.3.7-6.6-2-1.9-3.6-1.1-5.5 2.7-.5.9-.7 1.6-.9 1.9s-.5.1-.6-.1c-.2-.2 1.9-4.2 2.7-5 2.1-2.3 6.1-.5 5.9 2.6-.1 1.5-.4 2.4-1.8 5.2-.3.7-.7 1.3-.8 1.6-.7.4-.6-.7-.4-1m-19.5-.2c.3-1.5 5-2.1 6.2-.2.1.2 0 .2-.5 0-2.4-.8-2.9-.7-5.1.2-.3.1-.5.2-.6 0m17.9-.2c0-.1.2-.7.4-1.2 1.6-3.1 2-3.8 1.5-4.4-.9-1.1-2.2-.1-3.3 3.1-.4 1.2-.7 1-.9.8-.4-.4 1.4-4.1 2.2-4.7 1.9-1.2 3.5.2 2.6 2.7-.7 1.1-1.2 2.9-1.8 3.8-.3.3-.7.2-.7-.1m-7-5.1c-.1-.2.1-.4.8-1.8.9-2 1.2-2.7.8-3.9-.7-2-3.2-2.5-4.7-1.2-.5.4-.8 1-1.1 1.5-.6 1.2-1 2.8-1.3 3.2-.3.3-.7.3-.7-.2.4-1.1.5-1.9 1.4-3.5 2.1-4.7 8.3-2.5 6.9 2.4-.5 1.8-1.2 3.1-1.5 3.6-.2.4-.6.2-.6-.1m-1.4-.8c0-.2.2-.6.5-1.2 1-2.6 1.1-3.4-.5-3.4-.9.1-1 .5-1.8 2.5-.3.7-.4 1.1-.6 1.3s-.5.1-.6 0c-.3-.3 1.1-3.7 1.9-4.3 1.7-1.5 4 .6 2.9 2.6-.5 1.3-.9 2.3-1.2 2.7-.3.3-.6.2-.6-.2m-36.9-30.3-5.3-.4c.9 5.7 1 11.9 0 16.3-.8 3.8-.8 6.6-.6 9.8.3 3.8 1.9 7 2.3 11.1.3 2.9-.4 6-.9 8.9-1 4.9-.8 5.4-.6 11.1.1 5.3-.4 5.1-.7 4.8 0 0-.1-1-.1-2.1s-.1-3.8-.1-5.7c-.1-3.8.3-7.1.6-8.5.6-2.8 1.3-5.7.9-8.8-.9-3.9-2.1-7.8-2.5-11.6-.5-4.6.8-9.3 1.2-12.7.4-3.3 0-8.9-.9-11.2-.1-.8-.8-1.8-.8-1.8-.8-.1-1.6-.2-2.7-.2-.1 22.3 0 44.7 0 67l4.9 4.6 5-4.8zm.4 25.7s7.5 4.3 15.7 8.6c-.8-4.9 1.7-5.6 4-6.2-.6-9.4 8-7.5 9.3.7h.8c1.5-4.1 3-6.9 6.3-7.6 2.6-.5 5.2 1.1 5.9 5.1-.1-.3 8.7-5.2 8.9 5.2 4-2.5 6.9-.3 8 2.8 1.7-2.6 5.9-2.7 7.3-2.9.5-.5 1.3-.9 2.8-.8 1.3-.1 3-1 3.9.1 1.4.2 2.4 0 3.6.9.9.7 2 2.3 3.5 1.2 2.9-1.4 6.2-2.1 8.9-3.8 0 0-.7-.9-.5-.8.1 0 .4.5.9.7.2.1 1.8-.9 1.8-.9-10.9-12.7-19.9-37.4-14-60.3.2-.4-.5-.5-.8-.7.1-.2 1.7.1 1 1.5-.7 4.4-1.5 9.1-1.6 12.8v.8c24.5 11.4 21.5 36 15.2 44.6l1 1.3c.4.3 19.3-10.8 18.7-11.2l3.6-1.8-.6-48.3-14.1-1.1s.2-.4.3-.5c.1-3-.1-7.3 0-11 .1-10.4.2-14 0-14.3-4.4-2.9-10.8-7.1-16.3-9.1.2.1-.1 4.3-.3 4.6-5.1 1.6-2.7 3.7-4.6 6-1.3 1.4-4.2 1.7-5.7 0-1.7-1.7-2.5-5.5-2.5-5.5-2.7 2.9-2.1 6.4-5.8 7.7-5.8 2.9-7.7-5.8-7.3-5.6-2.2 2.2-8.5 3.9-9.2-5.2-2.8 2.6-6 1.3-7.3-1.9-1.7.1-3.6 1.4-5.4 2.1-1.6.7-3.7 1.1-5.2 1.1-1.9.2-3.5.2-5.2-.3-.8.3-2.6-.5-3.2-1.7-.9-1-1.6-1.1-2.4-.9-2.8 1.5-5.8 1.8-9.1 3.4-.2.1.3.4.1.4-.1 0-1.7.8-1.7.8 16.7 22.1 17.6 44.4 14.1 60.2-.1.5-.2.9.1 1.4-.5-.1-.5.1-.6-.3l1.7-13.3c.1-1.6.2-1.5-1.2-2.1-1.3-.6-2.5-1.1-3.6-1.7-4.1-3-8.7-6.8-10.9-11.4-6.4-10-4.3-22 .5-31.5l-1.2-1.2c-14 7.1-22.3 14.7-22.3 14.7l.1 47.4 14.4 1.7zm-7-31.7c-.5-.5-1.6-.6-2.1-.2-.1.1-.4.6-.4.6-.7-.2-1.1-.3-1.2-.9l.7-1.1c.5-.8 1.3-1.1 2.7-1.4.5-.1 1.2-.2 1.4-.3 1-.4 1.3-1.4.3-1-.7.2-1.8.1-1.9-.5s-.6-.8-1.1-.7c-1 .2-1.9.7-2.7 1.3-.4.2-1.1.8-1.1.8-.1.2-.5-1.1-.1-1.5.5.1.9.1 1.4-.1 1.2-.5 2.3-1.1 3.5-1.5.8-.3.8-.3.6-.8-.1-.2-.2-.9-.1-1.2.1-.4.1-.6-.1-.7-.5-.4-1.8 0-3.7.9-.6.3-.9.4-1.3.7.2-.6.1-.7.1-1.3.7.1 1.4-.2 2-.5.5-.3 1-.5 2.4-.7.4 0 .2-1.4-.2-1.8s-1.2-.4-2.2-.1c-.9.2-2 .4-2.6 1.4-.8.7 0-1.2 1.4-2 .6 0 2-.3 2.3-.4.5-.1.6-1.4-.2-2-.5-.4 1.8-.5 1.8-.3 0 .1-.1.6.1.8 1 .3 1 1.1 1.1 1.5 1.1 1.9 1.7.7 2.5.1-.2 4.1 1.3 4.6 1.5 4.8-2 3.7-.5 3.8 1.4 4.6 0 0-.7.3-1.2.3-.7 0-2.1.8-2.8 1.3-.3.3-.3 0-1.7 0-1.3 0-1.4.1-2 .3-1.1.5-1.1 1 0 .8 1.2-.2 2.4.5 2.5 1.5.1.2 0 .5 0 .5-.2 0-.8 0-.8-.1 0-.3 0-.8-.2-1.1m1.8-5c.3-.2.4-.8.1-1s-1.3-.1-1.7.2c-.7.5.6 1.4 1.6.8m.7-2.5c.4-.3.5-1.1.1-1.5-.6-.7-2.1-.3-2.2.6-.1 1.1 1.2 1.6 2.1.9m-.5-3.4c.1-.8-.7-1.3-1.5-1-.9.5-.4 1.5.8 1.4.6.1.6.1.7-.4m-2.8-3.3c-.4.2-.5.7 0 1.1 1.6.8 1.1-1.6 0-1.1m113.5 4.9c-.7-2.6-2.7 0-2.7 0-.1-2.7.4-3.9-1.6-4.8 2-3.1 1.6-3.5-.5-4.7.2 0 2.9-.6 3.3-2.1.1.1 4.2 1.1 4.7-1.2-1.2.6-3.6.6-3.7-1.8.2-.1.8 0 .8.1-.3 1.5 2.5 1.9 2.9.7 0 0 .9.6 1.3.7 0 0-1.3 1.9-2.5 2.1-2.2.7-2.9.9-2.9 1.3 0 .2.4.2 1 .3 1.3.1 1.3.4 1.5.8s.3.5.8.4c1.5-.5 2.3-.8 3.4-1.9.1 0 .3 1.1.4 1.2 0-.2-1.1.1-2.8 1.1-1.4.8-1.9.9-2.1 1.1-.1.2.2.7.2 1.2s-.3.7-.1.8c.3.2.7.1 1.2 0 1.2-.3 2.1-.8 3.1-1.4-.2.4.2 1.5.2 1.5s-.5-.4-1-.2c-.8.4-2.2.9-2.6 1s-.5.1-.6.2c-.2.1-.1.5-.1 1 0 .4-.1.7.1.8.5.2 1.5.1 2.5-.2l1.4-.7-.3 1.5c-.4-.4-1.5-.1-2.3.2-.4.1-.5.4-.6.7-.2.6.2 1 .6 1.1.3.1.7.1.7.1-1.9.7-1.6 1-2.7.5-.3-.2-.8-.7-1-1.4m2.1 0c-.3-.4-.9-.6-1.2-.4s-.2.5-.1.7c.2.7 1.9.4 1.3-.3m-1.2-1.9c.5-.6 0-1.4-.9-1.4-.6 0-.9.4-.9.8.1.9 1.5 1.1 1.8.6m-.9-2.3c.8-.2 1.1-1.1.5-1.6-.4-.4-1.7-.5-2.1-.1-.8 1 .2 2.1 1.6 1.7m.7-3c.5-.3.6-.7.2-1.2-.8-.7-2.2-.1-1.7.8.1.6.9.7 1.5.4m-101.3-22.8c.7-.3 1.3-.9 2.1-1.3.5-.3.4-.2-.3-.6-.5-.2-1.6-1.3-1.7-1.1-.2.5-.2 3-.1 3m18.8 26.5c0-.5.1-1.3.1-1.9.1-1.1-.1-.8-.7-.4-.4.3-1.1.7-1.4.8-1.1.5-.9.6.6 1.3 1.3.6 1.4.6 1.4.2m-1.4-2.6c1-.6 1.4-1 1.4-1.7 0-.8-.1-1.1-.8-.6-2.5 2-5.1-1.9-2.8-4.1.5-.4 1.1-1.1 1.1-1.3 0-1.3-1.4 0-2.5 1.7-1.3 1.6-2.1 3.5-.9 5.4.8 1.5 2.8 1.7 4.5.6m-5.7-2.5c0-.6.1-1.3.2-1.5.3-.7.3-.8-1-.2-.5.2-1.1.3-1.3.3-1 0-.8.3.7 1.6 1.5 1.2 1.5 1.3 1.4-.2m3.5-6c.2-.4-.2-.5-.5-.5 0 0-.6.4-1.2.9-1.9 1.5-3.4 1.7-4.3.5-1-1.2-.6-2.6 1.6-4.2 1-.7 1.2-.8.7-1.1-.4-.2-.4-.2-1.8.7-2.8 1.9-3.6 3.2-3.3 5.1.1.8.5 1.2.9 1.5 2.7 2.5 6.4-.7 7.9-2.9m2.8 1.1-.2-2.6c-2.8-2.5-5.5-6.6-6.4-10.1-.9-3.1-.2-9.5 0-9l-1.5-2.9c-1.3 3.1-1.9 7.8-.5 12.6 1.2 4 3.7 9 8.6 12m-11.9-1.5c.9-1.7.9-1.5-.8-1.6-2 0-1.8-.3-.6 1.4.9 1.5.7 1.6 1.4.2m1.2-2.4c1.1-.4.9-.3 2.4-1.3 1.7-1.1 1.8-1.8.1-.9-2.2 1.1-4.2.8-4.9-.6-.7-1.3.7-2.9 2.9-3.6.8-.2 1.2-.4 1.2-.7 0-1-3.8.3-5.4 1.9-3.1 3-.4 6.6 3.7 5.2m-4.9-4.6c.1-.2.4-.5.6-.9 1.1-1.3.2-.9-.8-1.2-.5-.2-1-.4-1.3-.3-.6.1.2 1.2.4 1.9.5 1.5.5 1.5 1.1.5m4.1-2.9c1.9-.2 2.1-.4 2.1-.8s-.2-.3-1.2-.2c-2.6.4-4.2-.3-4.6-1.7s1.4-2.8 3.7-2.7c1.2 0 2.1-.4 1.3-.8-.4-.2-3.8-.2-4.6.1-2.3.7-3.2 1.9-3 3.7.3 2.2 1.5 2.8 4.4 2.7.5 0 1.2-.2 1.9-.3m1.5-7.1c0-.3-.5-.4-2.4-.7-2.4-.4-3.5-2.6-2-4 .6-.5 1.9-.7 2.6-.6 1.6.3 2.6.6 2.6.1s-.5-.5-3.4-1.2c-4.5-1-7 3.5-3.4 5.7 1.3.9 6 1.4 6 .7m1.1-6.4c0-.2-.1-.3-.5-.4-.5-.2-.8-.2-2-1-1.5-1-1.9-3-.9-4.1 1-1-.8-2.2-2.2-1.1-1.4 1.2-1.3 3.1.3 4.6 1.6 1.4 5.3 2.8 5.3 2m-7.3-.3c1.6-.7 2.7-.3 1.5-1.3-.7-.6-1.2-2.4-1.7-.9-.4.9-.6 2.5-.6 2.7 0 .1 0-.1.8-.5m55.5-3.8c-1.8-.4-3-2.5-2.6-4.5.3-1.1 1.3-3.8 1.5-4 .8-.6.7.2 0 1.7s-1.2 2.7-1 3.6c.3 1.3.8 2.2 2.1 2.5.9.2 1.8-.2 2.4-.6.8-.5 1.5-2 2.4-3.9.3-.5.7-2.2 1.1-1.2.2.5-1.6 4.1-2.3 5-1 1.1-2.4 1.7-3.6 1.4m10.7-1.2c.9.8 2.3 1.3 3.3 1 2.4-.8 3.4-3.1 2.5-6.7-.5-2-.8-3.3-1.2-3.5-.2-.1-.4.1-.6.4-.2.2.1.6.4 1.6 1.1 4 .8 5.8-.5 6.6-2 1.1-3.7-.2-4.3-3-.1-.4-.4-1.3-.4-1.3-.2-.4-1.4-.3-.9 1 .1.9 1.1 3.3 1.7 3.9m10.1-10.5c0-1.4-3-7.5-3.2-6.9 0 0 0 1.4.1 2 0 .2.2.4.3.6 2.6 4.6 2.2 7.8-.1 8.5-.8.3-.9.7-.6 1 .7.7 2.4-.7 2.7-1.3 1-1 .9-3.2.8-3.9m-42.8-1c1-1.1 3.1-4.8 3.7-6.8 2-5.8 4.1-12.5 4.7-18.8.1-.8.1-2 .1-2.1-.2-.2-1.2-.1-1.5.1-.2.2-.1.7-.1 1.3-.9 7-2.6 13.3-5 19.8-1.1 2.8-2.1 4.7-3.4 6.6-.2.3-.5.7-.6.9-.3.5-.1.8.3.6.7-.3 1.3-1.1 1.8-1.6m-3.3 1.7c3.1-4.3 5.3-9.4 7-15.4 1.1-3.9 2-7.9 2.6-11.9.1-.9.2-1.4 0-1.7-.4-.1-1.2 0-1.5.2-.2.3-.1.8-.2 1.9-.4 3-1 6-2 9.9-2.6 8.7-5 13.6-8.2 17.9-.3.4-.5.6-.5.7 0 .2.3.2.8-.1.8-.5 1.5-.9 2-1.5m-4.7 2.3c1.5-.9 4.2-4.6 6-8.6 2.1-4.8 3.9-10.1 5-14.8.5-2 1.2-7.1 1.1-7.5s-1.6-.1-1.4.2c0 0-1.5 8.2-3 12.7-2.9 8.4-5.4 14-8.2 16.8l-1.1 1.1s0 .3.2.4c.7 0 1.1-.2 1.4-.3m-2.3-.4c3.4-1.9 7.4-10.8 10.6-22.1.6-1.9 1.6-8.3 1.6-8.3s-1.4.1-1.6.3c-.3.4-.2 1.4-.6 3.7-1.5 7.1-3.7 13.6-7 20-1.4 2.8-3.8 5.5-5.3 6.3-.8.4-1.1.9-.5.9 1 0 1.1.3 1.9-.2zm46.5 99.9c-2.5 0-4.7 2.5-6.6 5.5-4.1 6.3-6.9 16.9-7.5 22.6l1.5-.3c-.2.1 2.9-15 7.6-21.4 2.6-4.1 2.5-4.1 3.9-4.5 1.8-.5 3.3 1.5 2.4 2.7-.3.4-.7.1-.6-.5.3-1.8-2.3-2.2-3.1-.4-.9 2.1 1.4 3.9 3.7 3.1 2-.7 2.8-3.5 1.4-5.6-.7-.7-1.7-1.3-2.7-1.2m-13.4-.3c-3 3.9-4.6 7.8-6.4 13.2-1.9 5.4-3.2 10.7-3.8 16.8l1.6-.2c-.1-3.9 4.2-22.5 10.1-29.4.3-.4.6-.8.6-.9-.3-1-1.7.2-2.1.5m6.8-1.4c-4 3.3-7.1 10.4-9.2 17-2.2 7.1-3.3 13.6-3.1 13.6l1.6-.2c-.1-.4 4.4-25.5 12.8-30.1.7-.4.9-.7.3-.9-1-.1-1.8.2-2.4.6m4.4 0c-8.6 1.1-14.3 27.8-14.5 30v.2l1.7-.4v-.1c1.2-6.8 2.3-11.6 5-17.8 2.1-4.6 5-10.4 9.3-11 .4 0 .7.1.6-.3-.2-.5-1.5-.6-2.1-.6m-51.4-8.4c-3.1.8-3.2 4.6-1.1 9.4.2.4.1.6.3.7.4.3.6-.1.7-.4.1-.4-.1-1-.5-1.9-1.3-3.3-1-5.3.3-6.1 3.3-1.7 4.1 1.8 4.6 3.4.1.4.2.9.4 1 .7.1 1-.1 1-.1s-.9-3-1.4-4.1c-.9-1.9-3-2.3-4.3-1.9m-22.6 3.6v39.7l-6 5.7c-2.6-2.2-5.9-5.7-5.9-5.7l.1-67.1-1.9-.2c-.5 28.8 0 58.3 0 87.2h17.5l14.6-23s.2-.3.2-.4c.2-.4.2-1.1.1-3.6 0-1 .1-1.8-.1-2-.1-.2-.5-.1-.8.1-.3.1-.5.1-.3-.3.1-.2.4-.6.6-1.1.8-1.4 1-1.8.7-3.3-.1-.4-.4-.7-.7-1.1-2.5-3.7-3.5-9.1-2.2-13.1.4-1.8.2-2.1-.6-3.5zm77.2-42.7c-1.6-.8-1.6-.8-1.6.8 0 1.2 0 1.5.5 1.3.6-.3 1.4-.6 2-.9 1.1-.4-.3-.9-.9-1.2m6.4 4.1c-1.2-1-.8-.9-1.1 1.4-.2 1.4-.5 1.4.9.9.8-.3 2.4-.1 1.7-1-.1 0-1.3-1.1-1.5-1.3m-50.1 34.7c-1.9 1.2-3.9 6.8-3.9 6.8-6.7.8-9.5 7.4-9.8 13-.2 4.4-.5 9.5-.1 9.9 4.4-2 6.1.3 6.5-.3.2-.3-1-1.2-2.4-2-.3-.2-.9-.5-1.1-.7-.5-.4 1.1-.1 2.1.6 1.3.9 1.5.7.9-1.9-.6-2.8-.7-3.1 1.4-4.3.9-.4 1.3-.8 2-1.5.5-.6.6-.7.4.1-.3 1.4-1.6 2-2.7 2.6-.6.3-.8.9-.8 1.4s.6 3.2.8 4.1c.2.8.3 1.7.5 2.5.5 2.2.5 2.6.3 4.2-.1.9-.2 1.5-.2 2s.1 1.2.1 1.2-1.2-1.2-3.8-.2c-1.9.7-3.4 0-4.4-.6-.2.9-.2 1.8-.2 2.8 10.9 2 20.1 1.7 28 .9.2-2.3 1.2-9.7 3.3-16.4.9-2.8 1.8-5.7 2.9-7.7.7-1.3 1.5-2.2 1.8-2.4l.1-.1v-.2c0-.4-.1-1.1-.5-1.4-.9-.7-2.3.2-2.8 1.8-.4 1-2.3 5.2-2.4 5.1s-.4-.1-.3-.4c.7-1.7 1.7-3.5 2.3-5 .8-2.2 2.5-3.4 3.7-2 .4.5.6.9.8 1.1.1.1.3 0 .5-.2.5-.7-.6-2.4-1.8-2.7-1.7-.5-3 .8-4.9 4.8-1.1 2.3-1.3 2.9-1.5 2.8 0 0-.3 0-.2-.4.2-1 1.7-3.8 2.8-5.6 1.6-2.7 4.5-2.9 5.8-.6.2.3.2.7.4 1 .4.5 1 .4 1.2-.4-.2-.5-1.2-2.5-1.9-2.8-1.7-1.1-3.7-.9-5.4.6-.4.3-.8 1-1.9 3.3-1.7 3.7-1.7 3.7-2.1 3.1.7-1.8 2.4-4.7 3.1-6.5.1-.3.2-.6.2-.8 0-1.3.2-3.6-2.6-5.2-2.3-1.3-5.4.1-6.4 2.6-.8 1.9-1.4 3.2-1.8 3.5-.6.4-.5-.1-.4-.3.8-1.7 1.9-3.5 2.1-5.2.1-4.6-4.6-6.4-7.7-4m-24.3-88c3.7-1.7 6.2-2.6 9.9-3.7.5-.2.6-.3 0-1.3-2.4-4.7 4.1-8.5 6.4-3.9.3.6.4 1 .7.7.5-.7 1.2-1.7 1.9-2.9 2.5-3.9 3.6-8.3 4.9-12.3.6-2.3 1.3-4.7 1.5-7.2-4.9-8.7-13.6-24.6-13.6-24.6h-34.7v69.7c9.7-8.2 16.3-11.2 23-14.5m39-2.5c.4-.4.8-1.2 2.3-4.3l.9-1.8c.2-.7 1.1-1.2.7.1-.1.3-.3.7-.5 1.2-.5.9-1 2-1.3 2.7-1.9 3.9-1.8 6.2.3 7.9 1.6 1.6 5 1.7 6.8-.8.3-.4.5-.9.6-1.1.8-1.9 1.4-2.9 1.5-3.1.8-1 .9.2-.3 2.2-1.4 2.2-1.4 4.7-.2 6.4 1.8 2.5 5.1 2.6 7.2.6 1.1-1.3 1.9-2.9 2.6-5 .2-.5.3-.8.4-1.1.2-.4.4-.6 1.1-.7 4.4-.9 8.2-5.5 8.7-10.5.1-.7.3-1.9.3-2.6.1-1.4.1-8.8 0-9.3-.1-.2-.2-.4-.5-.4-.2 0-.5.1-1 .2-1.5.5-2.1.7-3.6.2-.5-.2-.8-.2-1-.2-.6.1.2 1 2 1.9.8.4 1.4 1 .8 1-.2 0-2.4-1.2-2.7-1.3-1-.6-.7.2-.2 2.2.7 2.7.3 3.5-1.9 4.6-.4.2-.9.6-1.2.9-1.1 1.7-.8.4-.3-.5 1-1 .4-1.4-1.6-.7-2.3.8-3.3.2-4-1.1-.7-1.5.6-3.3 1.8-3.3.4 0 .3.1-.2.5-.7.5-1 .9-1 1.7-.1 1.6 1 2.2 2.5 1.2.7-.5 1.3-.8 1.9-1 .6-.1 1.4.1 1.4.5v.7c.1.5.9-.2 1.3-.5 1.2-.9 1.1-1.1.8-2.5-.5-2-.8-3.8-1.3-5.9-.3-1.1-.3-2.3-.1-3.4.1-.5.3-1.7.3-2.4v-1.9c1.2.9 1.6 1.1 2.8.6 1.8-.7 2.9-.7 4.3.1.5.3 1 .5 1 .5l.1-2.3s-1.4-.3-3.9-.6c-7.6-1-23.2-1.2-23.8-.3-.1.2-.3 1.9-.7 4.2q-1.35 7.2-3.3 14.1c-.3.9-.6 1.3-.4 1.4.1 0 .3-.4.5-.5.7-.9.2 1.2-.9 3.7-.1.2-.2.5-.2.5 0 .1-.7 1.9-1.2 2.9-.3.6-.6.8-.5.4.3-1.4 1.2-3.3 1.4-4.5-.8 1.1-1.9 3-2.8 4.2-.2.3 0 .4.1.8.5 1.4 1.8 1.5 2.5.3.4-.7 1.7-3.4 2.1-4.6.5-1.2.8-1.8.9-1.9.3-.2.4.5-.2 1.7-1.6 3.5-2.3 5.4-3.1 6.1-.6.6-1.7.5-2.3-.5-1-1.7-1.9-1.1-.9.6 1 1.8 3.1 1.9 4.3.3.4-.5 2.1-3.9 2.7-5.3.3-.8.6-1.4.8-1.4.6-.2-.1 1.5-1.8 5.1-.6 1.4-1.4 2.8-2.6 3.2-2.9.6-3.3-.9-4.3-2.7-.5-.4-.9.3-.8 1 .3 1.3.9 1.8 1.8 2.4 1.6 1.3 4.1.5 5.1-.8m13 7.4c-.3-.6-.2-1.2-.1-1.8.3-1.3.8-2.5 1.4-3.6 1-.5.2 1.4.1 1.6-1.2 2.4-1.3 3.4-.2 3.7.9.2 1.4-.3 2.3-2.5.4-1.1.6-1.6.8-1.7.3-.1.5 0 .5.3-.6 1.4-1 2.9-2 4.1-.9.9-2.3.9-2.8-.1m-8.7-1.9c-.4-.1-1.1-.6-1.6-1-1.6-1.5-1.4-3.6.7-7.5.2-.3.7-1.5.9-1.9.3-.7.7-.4.7 0 0 .1-.5 1.2-1 2.2-2.2 4.4-2.2 6.2 0 7.3 2.1 1 3.1.4 4.8-2.9 1-2.5 1.5-2.6 1.4-1.6 0 .4-1.2 2.8-2 3.9-1.1 1.6-2 1.9-3.9 1.5m.2-2.1c-.8-.5-1.2-1.8-.7-2.9.4-.9 1.6-4.2 2.1-4.4.9 0 .4.7-.7 2.8-1.3 2.7-1.2 3.5-.2 3.9.9.4 1.3-.4 2.7-3.6.2-.5.5-1 .7-.9.2 0 .6.1-.1 1.6-.2.3-.5 1.1-.8 1.7-.9 1.9-2 2.4-3 1.8m15-5.8c-.4-.2-2.1-.9-1.8-1.4 0-.1.1 0 .2 0 1.6 1.1 3.5 1.3 5.6-.1.3-.3.6-.1.4.3-.7 1.1-3.4 1.7-4.4 1.2m-5-1.8c0-.1.2-.5.3-.9.2-.7.1-1.2.3-1.2.7.4 2 .4 2.6 0 .7-.4 2.1-.6 2.6-.2.7.5 1.1.3 1.6-.1.6-.5.6-.3 1.6.1.8.3 1.1.5 1.4.4.1 0 .4-.3.5-.3.2 0 .3.8.5 1.6.2.7.1.9-.5.5-.5-.3-1.8-.5-3.3 0-1 .3-1.3.2-2.1.1-1.9-.3-3.3-.6-4.7.3-.8.2-1.1.4-.8-.3m-4.8-3.6c-.9-1.9 1.2-4.4 3.1-3.5.6.3 1.2 1.4.3.9-4.3-.9-3.2 5.5 1.4 2.1 3.1-2 5.2-2.4 5.4-.4-.1.7-.7.6-1.2.7-1.3.2-1.7.4-3.2 1-2.3.7-4.5 1.3-5.8-.8m16.7.9c-1-.3-2-.7-3-.9-1.1-.2-1.6-.8-1.4-1.5.2-.8 1.3-.9 2.9.1 1.8 1.1 3.1 1.4 3.8 1 1.3-.8.6-2.2-.7-2.6-1-.3-.3-.6.8-.3 1.7.6 1.7 3.6 0 4.3-.6.1-1.6.1-2.4-.1m-14.5-10c1.2-.8 2.4-1.4 2.8-1.9.2-.2.8-1 .4-.8-2.5 1.5-5.4.3-7.4-.8-1-.5-.8-.3-1.5-.2-.5 0-.9.1-1-.2 0-.2-.3-.1-.5-.1-.8-.1-.3-1.1 1.3-2.2 1.9-1.3 3.6-2.2 5.2-2.6 1.7-.4 3.5-.2 4.7 1.1.5.5.4.8.9.5 1-.7 1 .2.2 1-.6.6-.4.7.4 1.3.3.3.1.5-.1.9-.1.2 0 .5-.1.7-.2.8-3.8 3.6-5.1 4.1-1.1.1-.6-.6-.2-.8m2.5-5.2h-.6c-.7 2.1-2 2.8-3 .3h-.5c0 2.2 3.6 3.5 4.1-.3m-4 2c-.2-.4-.5-1.4-.8-1.4-.7 0-1.7.1-1.5.5.4.7 2.6 1.3 2.3.9m4.9-.4c.7-.4.8-.7.4-1.1-.5-.6-.8-.3-1 .6-.2.8-.1.9.6.5m-8.9-1.5c4.4-2 6-2.3 7.8-1.8.4.1.8.3 1 .3.8-.1.3-1-1.2-1.6-1.7-.6-2.8-.3-6.2 1.4-1.9 1.2-3.5 2.7-1.4 1.7m12.7-2.4c-.1-.1-.3-.9-.4-1.2s-.1-.6-.2-.6c-2 .3-3.8-.1-4.3-.2-3.1-.7-6-.6-8.2.3-.5.2-1.2.6-1.3.6-.2.2-.4 0-.4-.2s1.4-1.3 2.2-1.8c2.6-1.3 5.4-1.5 8.4-.7 2 .8 3.2.6 4.5.1.6-.3.2.4 0 1.3-.1.6 0 1.2 0 1.5 0 .9-.1 1.3-.3.9m45.7 178.3v-69.9c-17.4 12.1-25 14.5-33.2 17.5 2.7 5.6-3.3 10.5-6.8 4.7-3.6 4-8.5 18.2-8.6 22.9 0 0 9.5 16.5 14.1 24.8zm-63.4-22.9c.3-3.5 1.1-9.5 3.4-16.4 1-2.9 2.1-6.2 3.8-9.2.7-1 .7-1.4 0-1.1-.4.2-2.5 2.5-2.7 3.1-3.1 6.6-4.5 14.6-5.7 20.6-.3 1.4-.3 3.1-.3 3.1zm2.3-.3c.7-8.5 3.9-20.1 8.5-27.6.4-.7 1-1.3 1-1.6-.1-.7-1.9.5-3.3 2.7-1.6 3.1-3.1 6.5-4.3 10.1-1.7 5.2-2.9 10-3.4 16.5zm4.5-.7c.5-4.9 2-9.4 3.3-14 1.6-5.5 3.6-9.6 6-13.3.8-1.2 1.7-2.3 2.6-3.4.1-.1.2-.4.2-.5-.6-.1-1 .1-1.4.3-.6.3-1.4 1.2-1.9 1.8-3.4 4.4-5.3 9.6-7 14.8-1.6 5-2.8 9.8-3.1 14.4zm-30.9-3.7c.7-.1 1.1.1 1.3-.1s.1-.7.2-1.3c.1-1.4 0-1.3-.8-.4-1.4 1.4-3.9 2-5.4 1.1-.8-.4-1.3-.7-1.4-.4-.1.4 0 .8.4 1 1.8.8 3.6.2 5.7.1m-1.6-1.1c1-.3 1.9-.8 2.5-1.6.5-.8.5-.9.1-.7-2 1-3.2 1.5-5 1.2-2.4-.4-2.5-.1-.9.9 1.1.6 1.9.7 3.3.2m-3.5-3c.4-.3.5-1.4.2-1.4-.3-.1-.7.5-.8.9-.2.6.3.7.6.5m3.7-.1.6-.1c-.3-2.8-3.3-2.9-3.9.3l.5.1c.6-2.5 2.5-2.4 2.8-.3m2-.4c.9-.5.6-1.2-.6-1.4-.8-.2-.8.5-.3 1.4.1.4.2.4.9 0m-7.1-3.4c0-.3-.1-.8-.3-1.1-1.1-2.2-1.6-4.8-1.5-8 .1-2.3.1-3-.4-3-.7.3-1.1 4.6-.2 8.2.6 2.5 2.5 5.6 2.4 3.9m0-3.5c-.1-1.2.2-3.9.1-4.5-.2-.8-.6-1.5-.9-1.7-.4-.3-.5.3-.4 1.7.3 3.5.9 6 1.2 4.5m.3-6.1c.3-.5.2-1-.4-2.1-2.3-4.5-2.6-7.5-.2-8.6.3-.1.4-.1.6-.2.7-.4.5-1.2-.7-.9-3.1.9-3.7 3.8-1.1 9.2 1.4 2.6 1.6 2.9 1.8 2.6m.6-2.6c0-.2.1-.9.2-1.1 0-.1-.3-.6-.6-1.4-.9-2.2-.9-3.2.1-3.8.3-.2.6-.2.7-.4.1-.3.1-.9-.1-1-1.4 0-2 .8-2.2 1.6-.4 1.2 0 3 1.1 5.1.3.7.6 1.9.8 1m1-2.9c.7-1.5 0-3.4-1-2.7-.6.4-.7.9-.3 2.1.6 1.5.8 1.6 1.3.6m2.6-3.9c.3-.3 0-.7-.5-2.3-.5-1.4-.2-2.4.6-2.6 1.3-.3 1.7 1.8 2 2.6.1.7.6.9 1 .4.1-.1.1-.2 0-1-.8-3.2-1.9-4.2-3.6-3.4-1.6.7-1.4 2.4-.2 5.9.2.5.3.8.4.9-.1-.1.1-.4.3-.5m1.4-1.1c.4-.4.4-.2-.1-1.5-.5-1.5-.7-1.8-1.3-1.3-.3.3-.2.7.2 1.9.5 1.4.6 1.5 1.2.9m65.7-5.3c2.5-1.7 1.5-4.9-1.8-6-.4-.1-.8-.3-1-.4-1.5-.7-2.7-1-2.7-.4 0 .3.5.5 1.9 1.2 2.1 1.1 2.6 2.3 1.6 3.8-.7 1.2.7 2.5 2 1.8m2.3-3.8c.2-.9.5-1.7.7-2.2.2-.8-.1-.6-.6-.5-1.4.7-2.4.3-1.7 1.3.7 1.4 1.3 2.4 1.6 1.4m-.2-3.1c1.7-1 2.1-3.7.5-5-.4-.3-1-.7-1.8-1-1.6-.5-4-.7-4.8-.5-.2.2-.2.6 0 .7s.7.1 1.3.2c2.4.2 3.6 1 3.5 2.7-.1 1.8-1.5 2.4-4 1.9-1.4-.3-2-.2-1.4.2s2 .9 3.4 1.2c1 .1 2.3.2 3.3-.4m-8.2-.4c1.9-4.4 3-15.9-8.1-24.2l.4 2.3c6.5 5.8 8.1 13.1 6.7 19.8zm9.8-7.9c-.7.5-1.3.9-2.2 1.3-.5.2-.5.3.2.7.3.2.9.5 1.1.8.4.4.8.6 1 .4.1-.6.3-2.8-.1-3.2m-3.2.8c2.2-.7 3.4-1.8 3.2-3.6-.4-2.7-2.6-3.2-6.7-2.2-2 .5-2.2 1.4-.3 1 2.4-.6 4.3.3 4 2.1-.1 1.5-1.4 2.4-3.5 2.4-1.1 0-1.5.1-1.3.5 0 .3 3.6.1 4.6-.2m-3.7-6.3c3.7-1.3 5.4-3.2 4.5-5.4-1-2.6-4.2-2.6-7.4-.2-1.5 1.1-1.3 1.5.2 1 1.9-.9 3.1-1 3.9-.3 1.4 1.3.5 3.4-1.7 4.2-1 .4-1.4.7-1.4 1 0 .4.2.3 1.9-.3m6.1 0c.1-.8-.8-3.4-1.1-2.8-.1.2-.4.9-.9 1.3-1.3 1.1-1 .7.2 1.1.8.1 1.7.6 1.8.4m-9.6-5.7c3.7-2.2 5.1-5.2 3.2-7.3-1.7-1.8-4.6-.8-7.2 2.6-1.2 1.5-.3 1.3 1.3-.1 1.9-1.7 4.3-.9 4.3 1.2 0 .9-1.3 2.4-2.5 3.1-.4.2-.4.6-.3.8.1.3.4.1 1.2-.3m6.4-2.3c-.2-.6-1.6-3.1-1.9-3-.3.6-.3 1.5-.7 2.2-.5 1-.5.9 1.2.9 1.3 0 1.4.1 1.4-.1m-10.8-2.8c3.1-3.3 3.4-7.1.5-7.9-1.6-.5-4.2.7-4.2 1.9 0 .8.1.9.8.6 2.7-1 4.9 1.6 2.4 4.7-.6.9-.7 1.1-.5 1.3.1.2.3.1 1-.6m33.5-27.8v-86.4h-18.2l-14.5 22.9v5.6c0 .2.3.3.5.1.8-.6.5 0-.4 1.5-1 1.5-.7 2.7.4 4.2 2.2 3.3 3.4 9.4 2.4 12.6-.4 1.2-.4 1.7-.2 2.4.3.8.4 1.2 1.2 1.7.7.5 6.2 2.6 15 8.4v-40.5l5.6-5.4 5.9 5.7.2 66.8c-.1.8 2.1 1.5 2.1.4m-3.2-66.9-4.9-4.6-4.9 4.6c0 21.8.1 66.4.1 66.4l4.8.4s.4-1-.1-3.7c-.7-4-.6-8.8.5-16.1.7-4.5 0-8.4-1-12.5-.9-2.7-.9-5.3-.8-7.7.3-3.9 1.4-6.9 1.5-12.5.1-3.2-.1-6.3 0-10.3 0-.5.3-.5.3.1.1 3.6.3 7 .3 10.5-.1 4.5-1.2 9.2-1.3 13.4-.1 2.9-.1 3.9 1.1 7.4 1.9 5.5.6 14 .6 14.1-.8 5.4-1.4 12.4 1.3 17.6l2.6.2zm-34 41c1.5-.7 1.7-1.9 1-4.7-.1-.5-.3-1.1-.4-1.4-.2-.7-.5-.8-.9-.2-.3.3 0 .4.4 2 .6 2.4.2 3.2-.6 3.2s-1.4-.7-1.6-2.2c-.1-.5-.2-.9-.3-1.1-.2-.4-.5-.3-.7.1-.3.5.2 2.6.9 3.6s1.2 1.2 2.2.7m-.4-2.1c.3-.6-.1-2-.3-3-.2-.5-.4-.7-.7-.6-.5.1-.5.7-.3 1.6.4 2 .6 2.2 1.3 2m4.4-3.4c1.7-1 1.8-2.6.7-5.6-.5-1.2-1-2.1-1.3-2.1-.1.8-.2 1.2-.1 1.5s.3.7.5 1.1c.9 2.2.7 3.5-.2 4.2-.9.6-.3 1.1.4.9m-54.5-1.2c3.9-.8 7.4-7.2 9.7-12.8 2-5.7 4.2-11.9 4.5-17.1 0 0-1.5.1-1.7.4s-.2 1-.4 1.9c-1 4.8-1.8 8.4-3.6 12.9-1.2 3.1-2.6 6.7-5.9 11.4-1.1 1.3-2.4 2.2-3.9 2.4-.4.1-1.1 0-1.2.1-.3.2 0 .7.7.9.7.1 1.4 0 1.8-.1m53.9-.7c.6-.6.7-1.4 0-3-.2-.4-.3-.7-.5-.6-.5.1-1 1.4-.7 2.4.4 1.3.6 1.7 1.2 1.2m-55.2-1c1.1-.2 2.6-1.1 3.6-2.5 2.2-2.8 3.6-6.1 4.7-8.6.9-2 2.5-6.4 2.9-8 .9-3.4 1.4-5.5 1.8-7.9 0-.2.1-.6 0-.7-.5-.1-1.4 0-1.8.3-.5 3.9-1.8 7.7-2.8 10.9-1.6 5.5-6.1 14.2-8.5 14.6-1.3.2-2.8-.9-2.6-2.1.1-.7.2-1 .6-1.2.9-.3 1.3.3.4.7-1.1.9.9 2.4 2.1 1.4 2-1.7-1-5-3.4-3.5-2.7 1.7-2 4.6-.3 6 1 .6 2 .7 3.3.6m19.1-4c1.7-1.7 2.9-4 3.8-6.8 2-6.3 3.6-13.5 4.2-19.1 0 0-1.4-.1-1.7.2-.2.2 0 .4-.6 4.5-1 6-2.5 12-4.7 17.1-.9 2.1-1.1 2.3-1.8 3.4-.8 1.7-.5 2 .8.7m37-13c-.2-.1-.1 0-.2 0-.2.2-.1 1 .4 2.2 1.4 2.2 1.5 6.5 1.4 8.1 0 .5-.1.8.1 1.2.1.4.4.9.8.1.4-3.2.1-6.5-1.1-9.2-.4-1-.8-1.9-1.4-2.4m1.1 9.3c.2-.9-.2-4.2-.7-5.4-.2-.5-.6-.5-.6 0 0 1.2-.1 3.4 0 4.1.6 1.4 1 2.3 1.3 1.3m-3.1-13.7h-.6c0 2.2-1.9 2.8-2.7.2l-.6.1c.8 3.8 4.3 2.1 3.9-.3m-3.9 1.7c-.3-1-.2-1.3-1-.9-.6.3-1 .7-.1 1.1.7.4 1.3.4 1.1-.2m4.9-.6c.3-.5.2-1-.2-1-.3 0-.4.2-.5.8-.1.9.3 1.1.7.2m.3-3.7c.2-.1.2-.4.1-.9-1.1-1.5-3.7-1-4.6-.7-1.1.4-1.4.2-2.1-.1-.6-.1-.7 0-.8.3s-.2.8-.2 1.6c0 .7 0 1.1.2.8 1-.9 2.1-2 3.7-2 2 0 3.7 1.1 3.7 1m-7.2 2.1c0 .3.3.1.9-.3 2.4-1.4 3.7-1.2 5.7-.5.4.1.7-.3.2-.7-2.3-2.1-5.2-.8-6.8 1.5m8.5-9.2 12.8-21.2-71-.1 12.1 22.6c9.7-2.3 25.9-5.2 46.1-1.3"/>
    <path fill="#e2cf00" d="M57.364 208.753c1.5-2.3 9 1.8 9.4 3.4 4.4-3.5 9.8-3.8 14.1.6 4.4-4.9 9.2-4.5 14.1-1.7-.6-1.1 6.3-6 10.5-2.9l11.3 20.2-72.2.2c4.1-6.4 7.9-14.1 12.8-19.8m-31.5-105.6c-.4-1.1-2-12.3 2-12.6 6.5 2.9 14.8 13.3 18.6 19.6 4.8 7.9 9.6 26 6.9 25.2-.4-.1 8.2 8.6 8.8 9.4 1 1.4-14.5 27.3-17 26.4-.8-.3-5.9-3.4-5.9-3.4l.1-8.7.1-17.5-14.2-1.2.5-3.8c4.8.4 9.6 1.3 14 .3 2.9-5.3 1.8-13.3-1.7-16.5-1.8-1.1-3.6-.8-5.4-.5-7.5-1.3-3.5-14.2-6.8-16.7m126.8 5.8v3.2c-5 1.1-13.8-3.2-16.5 3.7.3 7.4 2 10.7 3.1 13 .9 2 6.9-.3 9.1 1.7 6.1 7.6 4.7 17.7 4.7 26.9l-2.7 1.4c-18.4-10.9-32.5-44.9-34.5-54.6-.1-6.2 16.9-26.2 16.9-26.2l6.2 3.8c.1.1-.1 26.2-.1 26.1 5 .2 9.7.7 13.8 1m-36.5-23.9c-21.5 37.8-12.7 65.8 3.1 89.9 0 0-1.4.3-1.5.2-3.5-3.1-5.9-2.6-7.6-2.6-3.4-.1-4.3 1-6.3 1.2-5 .5-4.5.6-8.7-1-5.3-4.4-12.4-7.7-18-9.5-4.5.4-11.4 2.6-14 .8 18.2-33.8 15.4-55.4-3.4-90.8 1.6.5 1.8 1.9 3 2.3 3.9 1.5 9.2.9 12.4-.5 5.1-2.3 10.5 3.9 26.1 10.8 1.3.7 2.9-.4 4.3-.7 2.9-.6 5.3-1.8 7.5-1.1.5.4 3.1 1 3.1 1m-43.3-44.2c-.9-1.7-10.4-19.9-10.4-19.9l70.3.4-10.6 17.5c-1 .9-6 3.6-11-2.4-.1.9-7.5 6.2-13.9-.2-3.8 3.5-7.7 5.5-14.2 1.6 0 1.1-5 6-10.2 3"/>
    <path fill="#d40000" d="M80.564 212.253c-6.8-6.4-13.9-.6-13.7-.3-2.7-2.8-5.3-5-8.9-3.9v-1c10.6 2 26.8 2.5 45.8-1.5l1 2.1c-5.1-1.8-7.7.6-10 3.5-8.1-5.1-10.1-.6-14.2 1.1m15.9-74.9 4.8-.1c.9 14.2 12.6 35.8 12.9 35.8-.8-1.1-8.6-.2-8.5-.1-4.2-11.4-8.9-22.8-9.2-35.6m-28.1 33.6s-1.6-4.1-2.5-5.8c5.1-8.7 9.2-17.8 11.3-27.8h3.4c-.9 13.9-11.9 35-12.2 33.6m62-1.9c7.6-13.8 6.3-33.8-15.3-44.8 0 0 .6-14.6 2.2-14.6.4.1 9.8-.1 9.8-.1 2.5-6.1 6.4-13.5 12-18.4l.1 16.3c-4.1.4-6.6 1.7-7.8 5l-5.7 1.3c.4 16.4 6.5 31.6 24.7 45.2-4.3 3.8-19.2 11.4-19.1 11.3zm-90.9-10.3.2-17c2.8-.6 4.9.2 7.2-4.8 0 0 3.8 1.8 5.1 2.5-3.6 6.5-6.7 13.4-12.5 19.3m36.1-30.1.2-8.6 8.1.2c-.7 2.9-.9 5.9 0 8.8zm18.6-.1c.6-2.8 1-5.7-.2-8.7l8.8.2-.2 8.6zm-16.8-16.9c-1.5-16.9-13-36.1-13.1-35.7 1.4.2 3.7.9 5.1.3 1.6.3 3 .1 3-.1.1-.6 10.7 24.6 9.3 35.5-.2.4-3.9.4-4.3 0m20.4.2c1.2-7.8 4.4-22.1 12-33.7.9 2.1 1.6 4.2 2.8 6.1-5.7 8.4-9.2 18-11.4 27.7zm-52.6-4.2c-3.5-7.1-17.9-18.4-17.1-17.2 6-5.4 12.6-8.8 19.2-12.3 0 0 1.2 1.1 1 1.4-4.1 6.5-6.1 20.2-2.1 28.1 3.8 8.4 10.5 13.4 17.4 17.3-.5 5.3-.8 9.1-2.1 14.3 0 0-4.3-2.3-7.9-3.8-.5-9.9-2.5-18.8-8.4-27.8m38.1-69.9c5.1 3.1 9.6 2.8 14-1.4 5.5 5.1 11.5 2.7 14 .4 2.3 2.7 5.4 4.1 9.8 3.3l-1.1 2.3c.3-1.2-30.7-3.3-45.8 1 0 0-.9-1.8-.8-1.8 1.5-.1 5.9 1.5 9.9-3.8"/>
    <path d="m61.464 20.452 12.5 23.6s.4-.1.6-.1c17.4-3.4 31.1-3.9 45.9-1.3l13.1-21.9c-23.9-.4-72.1-.3-72.1-.3m1.4 1 69.7.1-3.9 6.5c-2.3-.7-3.7.4-4 2.6 0 0-.3-.1-.8-.2-3.4-.4-3.9 4.2-.7 4.7.8.1 1 0 1 0-2.9 2.4-4.5.8-5.8 0 0 .3-2.6 2.2-4.9-.1 3.4.3 3.9-3.1 2.3-4.4-.3-.3-.7-.6-.7-.6.8-.7 1-1.6.5-2.7-1-2.2-4.3-2-4.8.3-.2.9-.2 1.1-.2 1.1-2.6.2-3.2 2.7-2.3 4.1.5.8 1.6 1 2.7.9-1.4 2-4.6 1.3-6-.3-2.3 2.7-4.9 2.4-6.1.9.9 0 1.5 0 2.3-.8 1.4-1.3.7-3.6-1.2-4.2-.4-.1-.6-.1-.7-.2 0 0 .1-.1.1-.8.5-4-5.4-3.6-4.8.3.1.5.2.7.2.7s-.6 0-1 .1c-3.3 1.5-1 5.7 1.5 4.6.2-.1.9-.4 1-.4-3.1 3.9-5.8 1.1-6.5.7-2.1 3.2-5.8 1-5.9.8.2.1.9-.1 1.6-.4 2.1-1.1 1.5-3.9-.1-4.5-.5-.2-1.1-.2-1.8-.1 0 0 .1-.7 0-1-1-3.8-5.7-1.9-4.6 1.3.1.3.4.6.4.6s-.6.4-.9.7c-2.2 2 0 5.4 2.7 4 .3-.2.7-.6.8-.5-1.2 2.3-3.1 3.1-5.8 1.2-1.6 2.6-4.3 1.5-5.1.2 2.5.2 4.1-4.6-.7-4.8-.4-1.3-.4-3.3-3.4-3zm34 8.3c.6 0 1 .5 1 1 0 .6-.4 1-1 1s-1-.5-1-1 .5-1 1-1m15.6.1c.6 0 1.1.5 1.1 1.1s-.5 1.1-1.1 1.1-1.1-.5-1.1-1.1c.1-.6.5-1.1 1.1-1.1m-30.5 1.2c.6 0 1 .5 1 1s-.5 1-1 1-1-.5-1-1 .4-1 1-1m43.7 1.3-.9 1.6c-.9-.9-.3-2 .9-1.6m-55.9 2.2-.9-1.6c1.6 0 1.1 1.2.9 1.6m27-.9c6 6.9 11.3 4.9 14.9.3 1.5 3.9 4.9 6.6 10.6 4-.3.6-1.2 1.7-1.2 1.7-5.1 1.4-7.6-1-9.6-3.3-5.2 4.4-10.1 3.3-14.1-.5-3.4 4.4-9 5.3-14.2 1.7-2.4 3.5-5.7 4.9-10 3.2 0 0-.9-1.4-1-1.5.6.5 8.4 3.8 10.4-4.1 2.7 4.5 11.7 4.8 14.2-1.5m.6 2.8c6.7 6.4 13.8.9 14 .5.1.4 3.9 5 9.5 3.2l-.9 1.6c-10.4-1.8-20-2.9-42 .3 0 0 3.5-1 5.3-3.9 1 .7 8.6 5 14.1-1.7m-23.6 5.3s2.9.3 3.2.4c.3.2-2.5 1-2.5.9zm6 30.3c-.2 0-.4.2-.8.6-.8.8-1 .9-1.7 1-.6.1-1.8.8-2.6 1.5-.2.2-.6.3-1 .4s-.9.2-1.2.2-.6.1-.7.2c-.4.2-1 .3-1.7.1s-.8-.2-1.6.1c-1.1.3-1.8.3-2.4 0-.5-.3-1.4-.5-2-.3-.8.3-2.9-1-2.9-1.8 0-.2-1.2-1.1-1.5-1.1-1.1-.2-10.4 3.6-10.4 3.8 11.5 14.3 21.1 36.2 13.9 62.9l-1.3-.6c1.1-4.9 1.5-9.7 1.8-14.7-21.6-9.4-23.4-31.3-15-45.1l-1.4-1.5c-5.1 2.7-10.2 4.3-22.8 14.9v47.9c4.5.5 9.5.9 14.5 1.4 0 0-.1 15.4-.2 21.4-.1 5.1.1 4.8.1 4.8l16.3 8.7c-1.1-4.6 1.7-6.4 4.1-6.2-1-4.4 1.6-6.4 4.5-5.9 2 .4 2.7 1.5 3.9 5.2.2.6.4 1.4.4 1.4h1.1c1.4-3.1 2.4-7.1 5.8-7.6 4.4-.7 6 2.4 6 5.4 4.3-3.8 9.4-.9 9.1 4.8 2.1-1.4 5.8-2.7 8.1 2.7.9-.2 1.3-1.2 2.5-1.5.5-.1 1.5-.7 1.5-.7v-.2s1-.3 2.2-.5c1.1.4.8.4 1.4-.3.7-.3 1.7-.6 2.5-.5.9.1 1.2.1 1.8-.1.8-.3 1.5-.4 2 .1.3.4.8.2 1.3.2 1 0 2.4.4 2.9 1.3.6.7 2 1.3 2 1.3l1.1-.3.1-.4 9.2-3.6c-18.8-20.8-18.3-48.5-13.9-62.5l1.7.8c-.9 4.1-1.9 8.4-1.8 14.6 17 7.6 25.4 27.4 15.1 44.7l1.1 1.4c4.3-1.8 15-7.9 18.8-11.2l.8.1s2.3-1.5 3.2-2.3l.1-45.8-.8.2-.1-2.7-14-1.1c.2-.1.3-.2.4-.5l-.1-25.3c-.5-.8-12.2-7.7-16.6-9.4-.2 0-.1.3 0 1 .2 2.5-1.4 4.7-3.4 4.7-.7 0-.8.3-.8 1.7 0 2-.7 3.4-2.8 4.2-2.5.9-4.2-.4-5.6-5.6-.4-1.4-1.1-1-1.8.8-.3.9-1.4 3.2-2.1 4.4-.5.9-1.3 1.3-2.4 1.8-.9.4-2.7.4-3.8-.2-1.9-1-2.7-2.2-3.2-5.1-.1-.4-.3-.4-.9.1-3.4 2.6-8.2-.1-8.1-4.6 0-1.3 0-1.4-.8-.7-2.3 1.9-5.4.9-6.7-2.1 0-.5-.2-.8-.4-.8m-19.5 1.6c.2 0 1 1 1 1 .7.8 1.6 1.2 2.6 1.7.1-.1 11.2 15 13.1 35.9h5.2c-1-20.3-6.5-30-9-36.3l1.9-.6c4.2 8.1 9.3 24.5 9.1 38.8h-8.6c-1.2-14.4-6.7-28.4-14.5-39-.6-.8-1-1.3-.8-1.5q-.15 0 0 0m-3.3 2.1.9 2.8s.1-.6.4-.9c1.7-1.5 3.3.5 2.5 3.2-.2.8-.5 2.5-.5 2.5s-1.7-.9-2.6-1.2c-2.4-1-3.1-3-1.3-3.2.3 0 .9-.1.9-.1-.8-.6-2.4-2-2.4-2zm7.9.3c.7.4 2.6.9 3.6.4.9-.3 1.5-.1 2.4-.1.5 0 1.5-.2 1.5-.2 5.1 10.8 8.6 23.6 9.1 35.3h-4c-1.5-12.4-6.3-25.1-12.3-34.4-.2-.3-.6-.9-.3-1m16.7.2c1.5 0 3.2 1.6 4 4.1.5 1.4.7 1.3 1.3 1.1 1.7-.6 3.5 1.3 1.2 1.6-2.2.4-1 4.8-1.1 5.1-.9.2-2.6-3.6-2.5-4.7.1-2.7-2.4-5-4-3.8-.7.5-.7.9-.9.7-.7-.6-.8-2.3 0-3.2.6-.6 1.3-.9 2-.9m45.9 1s.1 3.6 0 4.4c-.3 2.4-3.3 2.6-3.5.7-.5.8-.8 1.7-1 2.6l-2.2-1.5c.8-.6 1.6-1.1 2.2-1.9-1.6.1-2.5-1.3-1.4-2.5 1.1-1.5 4.4-1.6 5.9-1.8m-80.3 1.1 1 1.1c-8.6 15.4-5.6 35.1 15.2 45.4-.1 4.7-.7 9.5-1.9 13.9l-7.7-3.8c.1-17.4-9.7-34-25.3-44.9 5.7-4.5 12-8.5 18.7-11.7m62.7.1c.4 2 2.3 5.7 2.4 5.5 0-.1-7.9 10.2-11.4 27.6h-2.9c1.9-11.5 5.8-22.4 11.9-33.1m24.4.5 1.6 1c-8.2 6.9-13.6 15.7-17.6 25.2l-2.1-1c6.2-13.8 12.2-19.9 18.1-25.2m2.2 1.6c.4 0 .9.6 1.7 1s.6.7-.9 1.8c-1.7 1.3-1.9 1.3-1.9-.6.1-1.3.4-2.2 1.1-2.2-.1 0-.1-.1 0 0m-1.9 1.9c.1 0 .2 0 .2.1.1.5.1 1.7-.1 2.8-.2.7-2.4 2.6-3.2 3.4-.3.2-.5.1-.5-.2 0-.6.1-1.4.1-2.2 0-.2 0-.5.2-.7 1.1-1.3 2.7-3.2 3.3-3.2m4.1.6c.2.1.2 2.7.1 2.9-.6.2-2.4-.1-2.8-.3-.2-.3 2.3-2.6 2.7-2.6m-76.8.9.6 2.5s.2-.3.2-.4c1.2-1.8 2.6-.8 2.6 1.8 0 .8-.7 4-.7 4s-4.5-2.2-4.8-3.1.1-1.8 1-1.8c.3 0 .6-.1 1 0l-1.9-2zm51 .3 2 .8c-4.2 6.9-8.6 13.8-11.7 29.4h-8.5c1.2-9.5 3.6-18.9 7.9-28.1 0 0 1.7-.5 2.6-.8 0 0-7 16.2-7.8 26.6l4.1.1c2.2-10.2 6.2-20.7 11.4-28m-16 .2c1.1 0 2 .8 1.9 2.2 0 1.3-.1 1.5-1.1 1-1.2-.7-2.2-.7-3.2.1l-1.2.8s.5-2.3 1.3-3 1.6-1 2.3-1.1m-4.4 3.4c-.1.8-.3 1.1-.5 1.8 0 0 .7-.3 1-.4 1.5-.7 3.1.6 3.1 2.1.1 1-1 2.3-2.4 2.3-.5 0-.9-.1-1.4-.5.3 1.9.4 2.8-1 3.7-1.1.8-3.5-.1-3.4-2.2l.1-1.3-1.2.2c-3.2.1-3.3-3.9-.7-4.5 1-.2 2.2.6 2.2.6-.5-1-.5-2.7.2-3.5 1.6-1.9 4.2-.2 4 1.7m28.1-2.5c.2 1.5.8 3.1.6 4.5-.3 1.8-1.8 2.8-2.9 1.7l-.4-.4c-.5.7-.9 2.6-.9 2.6l-2.1-1.3s1.4-1 1.8-1.6c.1-.2.2-.5.2-.5-1.2.4-2.1-.8-1.8-1.9.6-1.7 3.8-2.3 5.5-3.1m14.6 1.1c.8 0 2 .2 2.9.3.7.1.3.5-1.3 2.2-1.5 1.5-1.5 1.3-2.6 1.3-2.7 0-3.2 0-1.6-1.7.8-.9 1.6-1.7 2.1-2 .2-.1.3-.1.5-.1m-4.9.3s.1 0 0 0c.3.2.2 1 .2 2.1 0 1.2 0 1.2-.5 1.9l-1.8 2.4c-.6.6-.6.6-.9-1-.3-1.5-.1-1.9 1.7-4.1.6-.8 1.1-1.3 1.3-1.3m8.5.9v3c-5.6 5.5-9.4 11.8-12 18.6l-2-.8c3.4-8.7 8.5-15.6 14-20.8m-48.6 1.8c-.9 0-1.7.8-1.7 1.7s.8 1.7 1.7 1.7 1.7-.8 1.7-1.7c0-1-.8-1.7-1.7-1.7m0 .5c.6 0 1.2.5 1.2 1.2 0 .6-.5 1.2-1.2 1.2s-1.2-.5-1.2-1.2.5-1.2 1.2-1.2m-62.3.7c17.5 11.3 25.3 28.9 25.3 44l-1-.4c-1-21.3-12.5-34.5-24.9-43zm103.5.2c.4 0 .9.1 1.7.2 1.4.1 1.6.2.6 1.3-.3.3-.8 1-1.2 1.5s-.8 1-1 1.1c-.3.1-2.8 0-3.6-.1-.2 0 .1-.3 1.3-2.1.9-1.4 1-1.8 1.9-1.9zm7.3.6s.3 9.7.1 15.9c-4-.1-6.3 1.4-7.3 4.3l-4.2-2.1c3.1-8 7.2-13.5 11.4-18.1m-12.3.2c.2 0 .4.5.4 1.4.3 1.7.2 1.9-.5 2.9-.3.5-.8 1.3-1 1.7-.4.7-.7.9-.8.6-.5-1.8-.7-2.9-.5-3.3.3-.6 1.8-2.7 2-3 .1-.2.3-.3.4-.3m-99.8.2c14.1 8.8 24.4 23.8 24.8 42 0 0-3-1.4-4.8-2.5l-.1-1.8h1l.3 2 2.1-.1-.6-5-3.4.3-.7-2.8 1-.2.6 1.8 2.2-.6-1.2-4.4-3.4.9-1.1-3 1.1-.4.9 1.8 2.1-.7-1.9-4.4-3.1 1.5-1.6-2.9 1.2-.7 1 1.7 1.9-1-2.4-4.1-2.9 1.7-1.5-2.2.9-.6 1 1.2 1.7-1.2-2.6-3.5-2.8 2.2-2.1-2.4 1-.8 1.4 1.3 1.6-1.4-3.1-3.4-2.7 2.5-2-1.8 1-1.1 1.2 1 1.3-1.6-3.3-2.8-2.5 2.5-2.4-1.6v-1.2c.8.3 1.6.7 2.3 1.1l1.2-1.9-3.6-2.4zm39.1.7.5 3.1c.5-.8.9-1.4 2-1.1 1.3.5 1.3 2.5.2 5.6-.2.6-.5 1.1-.5 1.1s-.6-.2-1-.5c-.8-.6-2.2-1.2-2.8-2.3-.7-1.2-.7-2.8.6-2.6.3 0 .8.1.8.1l-2-2.6zm-39.9 1 2.4 1.6-.5.9-1.9-.9zm61.1.7c.7 1-1.8 3.9 1.5 5.1 0 0 .1.7-.6 1.1-1.6 1.2-3.9-1-3.2-3.2.4-1.4 1.7-3 2.3-3m6.7.1s1 .7 1.2.9c1.8 1.8 1.8 4.3.2 5.1-1.1.6-2.3.1-2.7-.7-.2-.4.1-.8.5-.8.8 0 1.4-1.5 1.1-3.1-.1-.6-.3-1.4-.3-1.4m21.3.6s.2 2.1.5 3.1c.9 2.7-.3 4.3-2 3.4-.3-.1-.7-.7-.7-.7l-.2 3.1-2.5-.7c.5-.9 1.3-1.5 1.9-2.5h-.7c-1.5.1-2.1-1.6-.5-3 1.2-1.2 4.2-2.7 4.2-2.7m13.2.7h1.2c1.6 0 2-.2 1.3.8-.3.4-.9 1.5-1.1 1.9-.4.8-.5 1-1.2 1.1-1 .2-2.1.1-3.2.1-.2 0 .3-.8.5-1.4.7-1.3 1.1-2.2 1.7-2.4.3-.1.5-.1.8-.1m-4.9 1c.2 0 .3.3.5 1.1.4 1.7.5 1.7-.2 3.1-.3.7-.9 1.9-1.2 2.4-.6 1.3-.7 1.2-1.1.1-.8-2.2-.8-1.9.4-4.4.9-1.5 1.3-2.3 1.6-2.3m-92.3.6 2.3 1.8-.6.6-1.3-.9-1.8 2 3 2.8 2.6-2.6 2.2 2.3-.7.6-1.3-1.3-1.9 1.7 2.9 3.5 2.9-2.2 1.8 2.4-.7.5-1.2-1.2-1.9 1.3 2.4 3.4 3-1.7 1.7 2.8-.9.5-1-1.5-2.1 1.2 2 3.9 3.2-1.4 1.3 3-1 .4-.8-1.8-2.2.9 1.4 4.1 3.3-.9.8 3.1-1 .3-.5-1.7-2.1.5.9 4.1 3.3-.2.4 3.3h-1l-.3-2h-2.1c0 .7.1 2.1.1 2.1l-1.3-.6c-1.9-12.7-8.6-23.3-18.7-30.7l-.1-1.5 2.5 1.6c-.1 0 2.1-2 2.5-2.5m96.7 2.9c.7 0 .4.5-.5 2.2-1 1.8-1.1 1.9-2.9 2.3-2.2.5-2.1.7-.9-1.9.5-1 .8-1.8 1.2-2.2.5-.4 1.6-.3 2.7-.4zm-101.7.6c10.5 6.8 17.1 20.9 17.9 29.5 0 0-.3-.2-.9-.5-.8-.4-1-.6-1.2-1.8-2.1-10.5-7.9-19.3-15.8-25.6zm94.3 1.7c.4-.1 1.2 3.1 1 3.8-.2.5-1.7-.7-2.3-.9-.3-.1 1-2.8 1.3-2.9m-50.4.2v3.3s.4-.5.6-.6c.8-.6 2 .2 2 1.2.1 1.4-.1 1.9-1.2 3.8-.3.6-.8 1.3-.8 1.3s-1.3-.9-2.7-2.3c-1.5-1.5-1.2-3.5.1-3.5.4 0 .7.1 1.1.2-.3-1-1.3-2.9-1.3-2.9zm40.8 2.5s.7.9 1.5 3.3c.7 2.3-.4 4-2 3.1-.3-.2-.6-.5-.6-.5-.1 1.1.1 3.1.1 3.1l-2.5-.4s1.4-2.2 1.5-2.8c0 0-.2.1-.8.1-2.5 0-2-3 .9-4.7.4-.3 1.9-1.2 1.9-1.2m14.6 0c.5 0 .3.5-.3 1.8-.7 1.4-.5 1.3-1.9.5-2-1-1.9-1.1.6-1.8.8-.3 1.3-.5 1.6-.5m-36 .4c2 0 3.5 2 3.2 4.8-.5 4.8-.2 4.5.3 5 .9.9-.3 1.4-1.5.6-.8-.6-1-1.2-1-3.8 0-3.1-.1-3.8-1.2-3.6-.7.2-.9.7-.8 2.8.1 2.9-.1 3.6-1.2 4.6-1.2.9-2.4.1-1.4-.5.5-.6.6-1.3.4-3-.2-1.6-1.1-6.9 3.2-6.9m49.9 2.4c3.8.1 13.5.9 13.5.9l.1 2.9c-.4.3-7.6-.8-13-.7-1.2 0-2.1.6-3 .1.9.4.8 4.7-3 3.7-3.2-1.2-1.7-5.6 2.5-6.7 1-.1 1.9-.2 2.9-.2m-22.1 2 8.3 4.1c1.2 15.7 6.5 32.2 24.7 44.8-3 2.1-10.4 7.4-18.8 11l-.7-.8c10.1-17.3 2.5-36.3-15.2-44.9.1-4.8.7-9.5 1.7-14.2m29.1 2.6c1.6-.1 2 .1 2.1.8s.6.8 1.2.6c1.5-.5 2.3 2.1 1.1 3.2-.7.7-.6 1 0 1 1.5 0 1.5 2-.1 3.2-.6.5-.6.7 0 1 1.1.6.9 1.7-.5 2.6-.8.5-.8.6-.2.8 1.6.4 0 2.8-1.8 2.4-.7-.2-1.4 0-2.1.4-1.9.8-2.2 1-4.2.7-1.8-.3-2.6-.9-3.1-2.5-1-3.2-2.2-6.8-2.2-10.3-.2-2.2 3.4-4.1 5.1-4.2 1.6-.2 3.2.3 4.7.3m-113 .1c1.9 0 3.4 1.6 3.4 3.5s-1.5 3.5-3.4 3.5-3.4-1.6-3.4-3.5c-.1-2 1.5-3.5 3.4-3.5m38.2 1-.3 3s.5-.4.6-.5c.9-.8 2.3.1 2 1.3-.1 1-1.9 4.1-2.6 4.8 0 0-2.8-3.1-3.1-3.7-.7-1.4.2-2.8 1.5-2.2.2.1.7.5.7.5l-.9-2.9zm-38 .2c-1.2 0-2.4.8-2.2 1.8.1.4.8-.2 1.4-.6.5-.3 1.1-.4 1.6-.1.5.2.7.6 1 1 .2.3.5.5.7.4.1-.2.1-.4 0-.5-.2-1.4-1.4-2-2.5-2m92.6.5 1.2.6c1.7 22.2 12.7 35.2 24.4 42.9l-.9.6c-14.3-9.2-24.2-25.8-24.7-44.1m1.9.9s3.1 1.6 4.7 2.3l.1 2h-1.1l-.4-1.9-2.2.2.7 4.6 3.6-.4.5 2.8-1.2.3-.6-1.7-2.1.5 1.3 4.5 3.3-1.1 1 2.9-1.1.4-.7-1.7-2.1.8 1.7 4.4 3.4-1.1 1.4 2.8-1 .5-1-1.7-2 1.1 2.4 4.1 3.1-1.6 1.4 2.2-1.1.8-1-1.3-1.7 1.1 2.6 3.6 2.6-2 2 2.3-.9.8-1.3-1.4-1.6 1.4 3.1 3.5 2.7-2.4 1.9 1.8-.6.6-1.3-.8-1.7 1.9 3.3 2.9 2.6-2.9 2.2 1.7v1.2l-2-1-1.3 2 3.3 2.5v1c-19-11.6-24-29.3-24.9-42.5m-38.8.2c.8 0 1.7.8 3.1 2.4 4 4.7 2.9 11.9-2.3 15.7-.8.5-1.1.5-2-.3-5.4-4.7-5.7-10.9-.9-16.3.8-1 1.4-1.5 2.1-1.5m19.1.7c1 1.5 2.2 3.1 2.4 4.9-.1 1.8-1.3 2.2-2.6 1.1-.2 1 .4 2.8.4 2.8l-2.3-.2s.9-1.6.9-2.6c-1.6 1.1-2.8-.3-2.6-1.5.5-2 2.1-3.3 3.8-4.5m-19.1 1.2c-.2 0-.4.1-.7.4-1.4 1.1-2.5 2.5-3.1 4-1.2 3.1-.4 6.6 2.3 9.3 1.4 1.4 1.9 1.3 4-1.6 1.8-2.4 2.1-5.4 1-8.1-.5-1.3-1.5-2.6-2.6-3.5-.4-.4-.6-.6-.9-.5m44.1.5 1.8.9c2.3 15.1 9.6 24.3 17.8 30.7v1.4l-2.2-1.7-2.6 2.8-2.1-1.8.8-.8 1.2.8 1.6-1.8-3.1-2.8-2.7 2.3-2.2-2.3.7-.6 1.5 1.4 1.7-1.5-3-3.4-2.7 2-1.9-2.5.8-.5 1 1.4 2.1-1.3-2.2-3.4-3.1 1.6-1.6-2.9.9-.4 1 1.6 1.9-.9-1.9-4-3.2 1.1-1.2-3.1.9-.3.8 1.9 2.1-.7-1.5-4.3-3.3.9-.8-3.2 1-.2.5 1.7 2.3-.5-.8-4.1-3.4.4c-.1-.7-.6-2.6-.6-3.3l1-.1.3 1.8 2.3-.1zm-43.9.4c1.2.2 2.7 2.6 3.1 3.4.6 1.7.7 3.7.1 5.3-.5 1.3-1.9 3.5-2.9 4.1-.7.4-1.4.1-2.4-1.4-2.1-2.9-2.5-6.3-.8-8.7 1.2-1.8 2.1-2.7 2.9-2.7m46.3.7.9.4c1.1 8.8 6.2 20.8 16.3 28v1.1c-7.9-5.7-15.1-15.5-17.2-29.5m-46.5.6c-3.5 2.7-3 6.9-.3 9.7 2.9-1.9 3.9-7.1.3-9.7m-53.7.2c2 0 3.2.7 3.8 2 .9 2.2 1.1 2.6 1.3 3.7.1.6.3 1.6.4 2.2 1 5.9.3 8.1-3.3 9-1.1.3-2.5.4-3.5.1-.3-.1-1.3-.1-2-.1-1.5-.1-2-.2-2.8-.8-.3-.2-.5-.4-.9-.5-1.8-.3-2.3-1.9-1-3.1.8-.7.8-.8.8-.9s-.4-.1-.7-.1c-1.8 0-1.8-1.9 0-3.2.8-.6 1.2-1.2.7-1.1-1.6.4-2.2-2-.5-2.7.9-.5 1.5-.9.7-1-.7.1-1.3-.5-1.1-1.1.3-.8 1.8-1.5 2.6-1.2.7.2 1.3.4 1.7.1 1-.7 1.5-1.1 2.3-1.2.5-.1 1.1-.1 1.5-.1m59 .4 8.2.2-.2 8.1-7.7-.1c-.1-.1 1.6-3.7-.3-8.2m-18.3.2 7.8.1c-1.3 3-.8 6.2-.3 7.9l-7.6-.1zm13.1 0c2.1 1.2 2.7 5.7-.2 8-2.9-2.8-2.3-6.3.2-8m-19.3 3.5 2.1.2-.7 3s.3-.4.4-.4c2.7-1.3 2.9 1.6.1 4.2-.6.6-1.6 1.4-1.6 1.4s-.8-1.2-1.4-2.2c-.7-1.1-1.2-2.2-1-2.8.2-.9 1.2-1.5 1.9-.9l.7.7zm37.4 2.3s.9.9 1.4 1.5c1.8 2 2.2 4 1.2 4.5-.8.4-1.3.1-2-.4.1 1.3 1.1 3.1 1.1 3.1l-2.8.4s.7-2.5.6-3.5c0 0-.6.4-.8.5-1.8.7-2.7-1.4-1.2-3.5 1.4-1.6 2.5-2.6 2.5-2.6m37.7 3.8c1.9 0 3.4 1.5 3.4 3.4s-1.5 3.4-3.4 3.4-3.4-1.5-3.4-3.4 1.5-3.4 3.4-3.4m1.6 1.5c-.1 0-.3.4-.3 1.1-.2 1.5-1.4 2.1-2.8 1.4-.6-.3-1-.7-1-.4 0 .2.4 1.1.8 1.4 1.2 1.1 4 .8 3.9-1.7 0-1-.3-1.8-.6-1.8m-60.8 1.3c.4 0 .8.1 1.1.4.9.6 1.1 1.4 1.1 4.5.1 2.7 0 2.8.4 3.1 1.1.8 1.7-.4 1.4-3.1-.3-2.6.6-4.5 2.2-4.5.8 0 .9.5.3 1-.6.6-.8 1.4-.6 2.9.5 3.9.1 5.8-1.6 6.6s-3.9-.1-4.2-2.3c-.2-1.4-.2-3.1-.1-4.7 0-1.7 0-1.9-.6-2.8-.2-.7.1-1.1.6-1.1m-42.5 1.3c.9 0 1.9.5 2.5 1.8 1.4 2.9-1.6 5.3-4.4 5.5-4.8.1-10.5-.6-15.4-1.3l.1-2.8c4.4.3 9.4.6 14.8.9-.6-2.6.9-4.1 2.4-4.1m25.4.5 2.7.6-1.7 2.8c.5-.2.9-.4 1.4-.2 1.1.4 1.1 1.8.3 3.1-.6 1-2.4 2.1-3.6 2.8-.7-1.5-2.2-4.1-1.6-5.5.3-.8 1.2-1.1 2-.7.3.2.8.4.8.4zm6.3.1 8.2.1c-1.2 8.4-3.5 19.5-8.1 28.6l-1.9.5c4-9 6.7-17.5 8-27h-4.1c-2.4 10.2-5.8 19.6-11.2 27.8l-2.4-.8c5.7-9.1 10.3-19.3 11.5-29.2m18.7.2h9.1c1.7 17 7.4 28.6 15.8 40.1 0 0-.5.1-.8 0-.9-1.1-1.7-1.8-3-2.1-7.1-10.4-11.9-24.8-13-35.9h-5.4c.6 13.9 4.4 25.3 9.5 36.4l-2.8.5c-4.1-10-8.6-18.6-9.4-39m14.2 2.1c.8.6 1.6 1.2 2.3 1.7 2.1 1.5 2 4.2 0 4.2h-.7s.8 1.8 1.3 2.7c-.8.2-2.6.6-2.6.6s.2-1.8.2-3.2c0 0-.3.4-.6.5-1.3.6-2.4-.6-2.3-2 .3-2 2.4-4.5 2.4-4.5m-61 .3 4.5 2.3c-3.1 7-6.6 13.6-11.6 18.6l.1-16.3c2.8-.1 5.6-.1 7-4.6m30.7.3h2.8c-1.2 13-9.7 30.5-11.3 32.7l-.5.4s-1.1-4-2.4-5.4c4.8-6.6 9.8-19.2 11.4-27.7m19.4 0h4.2c1.3 10.3 4.5 21.5 12.5 35.1 0 0-.8.1-1.4-.3-1.4-.9-2.3.3-3.1.2-1.3-.1-1.5-.1-2.8.2-6.7-14.2-8.6-25.3-9.4-35.2m-45 2.3 1.5.7c-3.2 7.5-6.1 13.4-13.7 20.7v-2.2c5.3-5.2 8.9-12 12.2-19.2m2.2 1c.7.3 1.5.7 2.2 1.1.2.1.2.3.2.5-.3.7-1.5 1-2 1.2-.6.2-1.1.3-1.2.3-.6.2-.4-.5.3-1.9.2-.7.3-1.2.5-1.2m2.9 1.6c.4 0 2.2 1 2.6 1.3.1.4-.3 1.1-.8 2.3-.9 1.9-1 2-1.3.4 0-.3-.3-1.2-.5-1.8-.3-1.3-.3-2.1 0-2.2m3.3 1.5 1.4.7c-4.7 14.1-17.1 25.8-17 25.6l-1.9-1.2c8.2-7.5 14.3-16.4 17.5-25.1m-4.9.3c.5 0 .1.6-.6 1.9-.6 1.3-.8 1.8-1.3 2-.8.3-1.9.3-2.9.5-.4.1-.2-.3.4-1.6.8-1.6.8-1.9 2-2.2.7-.2 1.7-.7 2.4-.6m1.6 2.8c.5 1.8.5 2.1.1 2.7-.6 1.1-1.4 2.5-1.6 2.8-.5.9-.7.7-1-1.5-.2-1.4-.4-2-.2-2.6.3-.7 1.1-2.2 1.5-3.2.7-1.9 1 1.6 1.2 1.8m8.6-1.6 2.5.8-1.9 2.3s.8-.1.9-.1c1.9.1 1.6 2.1.1 3.2-.6.6-3.7 2-3.7 2-.3-1.7-1-2.8-.8-4.6.1-1 .2-1.8 1.4-1.8.6 0 .9.6 1.3 1.1zm44.4 2.1s1.5.8 2.8 1.8c1.8 1.4 2.1 3 .3 3.6-.2.1-.8 0-.8 0 .5.9 1.7 2.2 1.7 2.2-.6.4-1.4.7-2.3 1 0 0-.2-2.2-.4-3 0 0-.2.5-.5.7-1.7 1.1-3.1-1-2.1-3.5.5-1.5 1.3-2.8 1.3-2.8m-18.9.4c4.3-.1 1.8 7-.4 6.5 0-.1 1.8-4.2-.7-4.9-1-.2-.1-1.6 1.1-1.6m-7 .5c1.3 0 2.3.9 1 1.5-2 .9-.8 3.2-.8 4.5 0 .8-1.8-.7-2.2-2.3-.4-2-.2-3.5 2-3.7m-31.8.7c.3 0 .5 0 .6.1.1.3-.5 1.4-1.3 2.7-.5.7-.7.9-.9 1.1-.7.4-1.6.3-2.4.3-1.2 0-1 0 .3-2.1.6-.9 1-1.7 1.3-1.9 0 .1 1.6-.2 2.4-.2m1.6 1.5c0 2.6.9 3.4.2 4.2-.8 1.3-1.8 2.6-2.1 3.1-.6.7-.5.6-.7-1.3-.1-1.4-.2-2.3-.1-2.8.5-1.3 1.1-1.9 1.8-3.2.5-1 .9-.9.9 0m33.9 1.3c1.2 0 2 1.4 2 2.6l-.1 1.2c1.6-.6 3.6 0 3.7 1.6.2 2.7-1.8 2.4-3.5 2.3.2.1.4 2.4-.6 3.4-1.6 1.8-4.5 0-3.7-2.6.2-.5.2-.9.2-.9s-1 .4-1.4.4c-3.2-.1-2.9-4.7.3-4.1.6.1 1.1.3 1.1.3s-.1-.3-.2-.7c-.5-1.9.4-3.5 2.2-3.5m63.2.8 1.7 1v1.9l-2.4-1.8zm-102.1 1.3c.7 0 1.2 0 1.1.2 0 .3-1.5 2.4-2.3 3.4-.7.8-.8.7-2.7.6-.7 0-1.2 0-1.2-.2.8-1.1 2-2.5 2.8-3.7.3-.2 1.4-.3 2.3-.3m1.6.9c.1 0 .2.3.2.9 0 .5.1 1.8.1 2.5.1 1.1.1 1.1-.3 1.8-.6.6-1.2 1.5-1.9 2.2-1.1 1.2-1 1.3-1-1.3 0-2.1-.1-2.1.3-2.5.2-.3.9-1.1 1.4-1.8.7-1.2 1-1.8 1.2-1.8m10.5.4 2.3 1.2-2.3 2.3h.8c1.5.3 1.3 1.8-.1 3-.9.6-4 1.7-4 1.7-.1-1.3-.4-2.5-.3-3.9 0-.7.1-1.4.6-1.9.3-.4.9-.6 1.7-.1.4.4.6.8.6.8zm26.8.8c-.9 0-1.6.7-1.6 1.6s.7 1.6 1.6 1.6 1.6-.7 1.6-1.6-.7-1.6-1.6-1.6m25.3.3s3 1.1 4.3 2.4c1.2 1.1.7 2.8-.6 2.8-.1 0-.6-.1-.6-.1.4.6 1.8 2.2 1.8 2.2l-2.3.9s-.4-1.8-.7-2.8c-.8 1.9-2.8.7-2.9-.5-.2-1.6.5-3.2 1-4.9m-25.3.2c.6 0 1.1.5 1.1 1.1s-.5 1.1-1.1 1.1-1.1-.5-1.1-1.1.5-1.1 1.1-1.1m-43.8 2.3c.8 0 1.8 0 2.2.1.3.3-.4 1.1-1.7 2.5-1.1 1.2-1.3 1-2.6 1-2.2 0-2.3 0-1.3-1.1 1.1-1.3 1.8-2.1 2.3-2.4.2-.1.6-.1 1.1-.1m2.7 1.1c.2 0 .2.6.1 1.9l-.1 2.3-1.7 1.7c-2 1.8-1.8 1.9-1.8.2 0-1.4 0-2.3.3-2.9.9-1.1 1.8-2 2.8-3 .2-.1.3-.1.4-.2m44.3.6c.5 0 1.7 2.1 2 3.9.7 4.1 3.1 6 4.8 4.4.7-1 .8.1.7.6-.4 5.2-6.2 3-6.8-2.1-2 1.3-3.9-1.4-2.7-1.3 2.9-1 2.1-3.6 2-5.5m-6.7.1c.3 1.8-2.9 4.9-4.7 2.7-.9-1.1-.1-3.4 1.1-2 1.2 1 2.5-.1 3.6-.7m-44 2.4c.7 0 1.6.1 2 .1.6.1.2.3-1.1 1.5-1.1 1-1.4 1.5-1.5 1-.1-.7 0-1.5 0-2.5 0 0 .3-.1.6-.1m14.9 1.2 2 1.4-1.9 1.8c1.7-.1 1.9 1.6 1.2 2.5-.4.6-2.1 1.3-3.7 1.6-1 .2-1.8.3-1.8.3s0-.8-.1-2.1c-.1-2.6.1-3.7 1.1-4.2.7-.4 1.9.2 2.2.9.1.2.4.6.4.6zm-12.6.2c.1.2-.3 4.4-.3 4.4l-2.8-1.6s2.9-2.8 3.1-2.8m74.9.5c2 1 3.5.8 4.9 2 1.2.6.8 2.3 0 2.7-.4.1-1 .1-1 .1.7.9 2.3 2 2.3 2l-2.5 1s-.3-1.7-.7-2.6c-.5 1.4-2 1.3-2.9.7-.6-.5-.9-2.1-.6-3.5.1-.4.5-2.4.5-2.4m-13.2 39.7c-24.5 5.9-44.3 2.2-46.3 1.5l-1.6 2.3c-.2.4-.3 1.6-1.4 1.9l-1.6 2.4.3.3-1.4 1.2.3.4-1 1.5h-.4l-2.4 3.6.4.4-5.4 8.6h73.5c-4.2-7.9-8.8-15.9-13-24.1m-.5 1.1.4 1.2c-1.2-.2-2.6-.2-4.1-.3 1.3-.3 2.6-.6 3.7-.9m-4.2 1c-2.3 1.1-3.7 2.4-4.8 3.8-1.3-1-3-1.8-5.1-2.3zm-41.4.6 1 .1s-.3.3-.6.2c-.1 0-.4-.3-.4-.3m46.9.6.7 1.3c-1.6-.9-8.4-2.8-10.3 4-2-2.8-10.4-6.8-14.7 1.8-1.2-2.3-8.2-9-14.7-.5-2.5-5.3-4.6-5.7-9.3-5 3.3-3.2 7.9.1 9.9 2.9 5.5-4.6 10.2-3.2 14.2.5 5.2-5.7 10.4-4.4 14.1-1.5 2.6-3.8 5.1-4.9 10.1-3.5m-42.8.1c3.3.4 6.6.7 9.9.8-1.9.7-3.9 1.3-5.4 2.7-1.2-1.6-2.8-2.6-4.5-3.5m23.8.5c-1.8.9-3.7 2.1-5.3 3.5-1.7-1.4-3.4-2.6-5.3-3.2 3.4.2 7.3 0 10.6-.3m21 2.7s-.7.1-.9.2c-2.9.8-2.3 4.9.7 4.9.3 0 1-.1 1-.1-.1 2.8.8 3.5 3.6 3.3l4.8 8.7-71-.3 4.5-7.3c2.3.3 3.7-1 3.2-3 0 0 1.4.4 1.8.4 2.6 0 3.2-4 .8-4.7-.3-.1-1-.2-1-.2 1.1-2.8 4.2-1.2 5.1 0 2-1.7 4.2-.9 5.1 1.2 0 0-.4-.2-.5-.3-2.3-1.7-4.5 1.8-2.2 3.5.2.2.7.3.7.3s-.3.2-.5.7c-1.2 2 .7 4.5 3 3.8 1.8-.7 1.8-2 1.8-3.5 0 0 .6 0 1.2.1 2.1 0 2.7-2.7 1.4-4-.7-.7-1.6-.6-2.1-.7 2.5-2.4 4.1-.8 5.8.4.3 0 3-3.3 6.3-.1-1.6-.4-3.2.6-3.2 2.3 0 1.1.8 2 2.4 2.1-.2.5-.3.9-.3 1.5 0 1.7 1.3 2.8 3 2.6 1.4-.2 2.5-1.8 2-3.2-.2-.6-.5-.8-.5-.8 3.8.5 3.8-4.4.8-4.7-.7-.1-1.3.2-2 .9 1.8-3.6 5-2.9 6.2-1.4 1.6-1.2 3.9-2.9 6.6.1-.4-.1-1.1-.1-1.6 0-2.2.6-2.2 3.3-.5 4.2.5.2 1.1.4 1.7.4-.6 2.3 2 4 3.8 2.9 1.3-.8 1.6-2.7.2-4.4 2.4-.1 2.6-3.1 1.2-4.1-1.1-.8-2.3-.4-3.2.7-.3-.9 2-3.8 5.3-1.7 1.8-1.7 3.5-2.2 5.5-.7m1.1 2.3.9 1.7c-.6.1-1.5-.6-.9-1.7m-12 1.8c.6 0 1 .5 1 1.1s-.5 1.1-1 1.1-1-.5-1-1.1c0-.7.5-1.1 1-1.1m-43.1 0c.1.6.2 1.1-.8 1.2zm12 1c.5 0 1 .4 1 1s-.4 1-1 1-1-.4-1-1 .5-1 1-1m16 .3c.6 0 1 .5 1 1s-.5 1-1 1-1-.5-1-1 .4-1 1-1M48.064 26.452c-7.3 10.5-15.2 16.5-15.3 24.7 0 2.7 1.4 7.2 5.9 8 2.9.6 6.9-1.8 7-6.6 0-1 1-.9 1 .4-.1 3.8-1.3 8.2-3.3 11.8h9.6c-2-3.6-3.2-8-3.3-11.8 0-1.3 1-1.3 1-.4.1 4.8 4.1 7.1 7 6.6 4.5-.9 5.9-5.4 5.9-8-.3-8.2-8.2-14.2-15.5-24.7M130.564 222.953c-7.3-10.5-15.2-16.5-15.3-24.7 0-2.7 1.4-7.2 5.9-8 2.9-.6 6.9 1.8 7 6.6 0 1 1 .9 1-.4-.1-3.8-1.3-8.2-3.3-11.8h9.6c-2 3.6-3.2 8-3.3 11.8 0 1.3 1 1.3 1 .4.1-4.8 4.1-7.1 7-6.6 4.5.9 5.9 5.4 5.9 8-.3 8.2-8.2 14.2-15.5 24.7"/>
</svg>
