<svg xmlns="http://www.w3.org/2000/svg" xml:space="preserve" width="178.6" height="249.4" viewBox="0 0 178.6 249.4">
    <path fill="#fbfbf6" stroke="#7f7f7f" stroke-width=".4" d="M471.9-1088.5h160.8c4.7 0 8.5 3.8 8.5 8.5v231.6c0 4.7-3.8 8.5-8.5 8.5H471.9c-4.7 0-8.5-3.8-8.5-8.5V-1080c0-4.7 3.8-8.5 8.5-8.5z" transform="translate(-463.034 1088.87)"/>
    <path d="M89.265 105.868c-7.8.2-11.3 9-5.5 15.8.8 1 .9 1.6-.6.6-3.9-2.6-11.4-.9-11.8 7.1-.5 9.8 13.3 12.7 15.8 2.2.1-1.1 1-1.1.8.5-.2 4.2-1.6 8.2-3.4 12.1h9.3c-1.8-3.9-3.1-7.8-3.4-12.1-.2-1.6.7-1.6.8-.5 2.6 10.4 16.3 7.6 15.8-2.2-.4-8-7.9-9.7-11.8-7.1-1.5 1-1.5.4-.6-.6 6-6.8 2.4-15.6-5.4-15.8M164.464 209.168c3.1-.1 4.5-3.7 2.2-6.6-.3-.4-.4-.7.2-.3 1.6 1.1 4.5.4 4.7-2.9.2-4.1-5.3-5.3-6.3-.9-.1.5-.4.4-.3-.2.1-1.8.6-3.4 1.4-5h-3.7c.7 1.6 1.3 3.3 1.4 5 .1.7-.3.7-.3.2-1-4.4-6.5-3.2-6.3.9.2 3.3 3.1 4 4.7 2.9.6-.4.6-.2.2.3-2.4 2.9-1 6.6 2.1 6.6M6.065 37.768v-2.2h2.1l4.6-24.1h2.6l5 24.1h1.7v2.2h-5.9v-2.2h1.6l-.6-3.7h-6l-.5 3.7h1.6v2.2zm10.6-8.6-2.6-12.9-2.4 12.9zM156.464 211.668v2.2h2.1l4.6 24.1h2.6l5-24.1h1.7v-2.2h-5.9v2.2h1.6l-.6 3.7h-6l-.5-3.7h1.6v-2.2zm10.6 8.6-2.6 12.9-2.4-12.9zM14.065 40.268c-3.1.1-4.5 3.7-2.2 6.6.3.4.4.7-.2.3-1.6-1.1-4.6-.4-4.7 2.9-.2 4.1 5.3 5.3 6.3.9.1-.5.4-.4.3.2-.1 1.8-.6 3.4-1.4 5h3.7c-.7-1.6-1.3-3.3-1.4-5-.1-.7.3-.7.3-.2 1 4.4 6.5 3.2 6.3-.9-.2-3.3-3.1-4-4.7-2.9-.6.4-.6.2-.2-.3 2.5-2.9 1.1-6.5-2.1-6.6"/>
</svg>
