<svg xmlns="http://www.w3.org/2000/svg" xml:space="preserve" width="178.6" height="249.4" viewBox="0 0 178.6 249.4">
    <path fill="#fbfbf6" stroke="#7f7f7f" stroke-width=".4" d="M471.5-30.5H633c4.7 0 8.5 3.8 8.5 8.5v232.4c0 4.7-3.8 8.5-8.5 8.5H471.5c-4.7 0-8.5-3.8-8.5-8.5V-22c-.1-4.7 3.8-8.5 8.5-8.5z" transform="matrix(.99553 0 0 .9968 -460.47 30.846)"/>
    <path fill="#d40000" d="M14.102 56.165c-1.693-2.89-3.485-5.582-5.774-7.974 2.29-2.393 4.081-5.084 5.774-7.975 1.692 2.891 3.484 5.582 5.774 7.975-2.19 2.392-4.082 5.183-5.774 7.974M164.427 209.174c-1.692-2.89-3.484-5.582-5.774-7.974 2.29-2.392 4.082-5.084 5.774-7.974 1.693 2.89 3.485 5.582 5.775 7.974-2.19 2.392-3.983 5.183-5.775 7.974M89.265 143.884c-4.082-6.878-8.462-13.457-13.938-19.139 5.476-5.682 9.756-12.26 13.938-19.138 4.081 6.877 8.462 13.456 13.937 19.138-5.475 5.682-9.756 12.26-13.937 19.139M6.038 37.724v-2.193h2.19l4.58-24.023h2.588l4.978 24.023h1.692v2.293h-5.874V35.53h1.593l-.597-3.688h-5.973l-.498 3.688h1.593v2.293H6.038zm10.652-8.572-2.588-12.859-2.39 12.859zM156.463 211.666v2.293h2.19l4.58 24.023h2.588l5.077-24.023h1.693v-2.293h-5.874v2.293h1.593l-.597 3.688h-5.973l-.498-3.688h1.593v-2.293zm10.553 8.573-2.589 12.859-2.389-12.86z"/>
</svg>
