<svg xmlns="http://www.w3.org/2000/svg" xml:space="preserve" width="178.6" height="249.4" viewBox="0 0 178.6 249.4">
    <path fill="#fbfbf6" stroke="#7f7f7f" stroke-width=".4" d="M268.9 370.2h161.5c4.7 0 8.5 3.8 8.5 8.5v232.4c0 4.7-3.8 8.5-8.5 8.5H268.9c-4.7 0-8.5-3.8-8.5-8.5V378.7c-.1-4.7 3.8-8.5 8.5-8.5z" transform="matrix(.99554 0 0 .9968 -258.773 -368.593)"/>
    <path fill="#d40000" d="M14.151 56.22s-1.792-2.592-4.181-5.582c-1.593-1.994-2.887-4.187-2.987-6.08-.1-2.094 1.195-4.287 3.485-4.387s3.285 1.595 3.683 3.09c.398-1.395 1.294-3.19 3.684-3.09 2.29.1 3.583 2.293 3.484 4.386-.1 1.894-1.394 3.988-2.987 6.08-2.489 2.991-4.181 5.583-4.181 5.583M164.477 193.28s-1.792 2.592-4.181 5.582c-1.593 1.994-2.887 4.187-2.987 6.08-.1 2.094 1.195 4.287 3.485 4.387s3.285-1.595 3.683-3.09c.398 1.395 1.294 3.19 3.684 3.09 2.29-.1 3.584-2.293 3.484-4.386-.1-1.894-1.394-3.988-2.987-6.08-2.389-3.09-4.18-5.583-4.18-5.583M89.314 143.839s-3.683-6.08-8.76-13.258c-3.385-4.784-6.073-9.968-6.272-14.453-.3-5.084 2.389-10.267 7.366-10.467 4.879-.2 6.87 3.987 7.666 7.377.797-3.49 2.788-7.676 7.666-7.377 4.878.2 7.566 5.383 7.367 10.467-.299 4.485-2.887 9.669-6.272 14.453-5.077 7.177-8.76 13.258-8.76 13.258M6.087 37.78v-2.294h2.19l4.58-24.022h2.588l5.077 24.022h1.693v2.293H16.34v-2.293h1.593l-.597-3.688h-5.973l-.498 3.688h1.593v2.293zm10.652-8.573-2.588-12.86-2.39 12.86zM156.413 211.72v2.294h2.19l4.58 24.022h2.588l5.078-24.022h1.692v-2.293h-5.874v2.293h1.593l-.597 3.688h-5.973l-.498-3.688h1.593v-2.293zm10.653 8.573-2.589 12.86-2.39-12.86z"/>
</svg>
