<svg xmlns="http://www.w3.org/2000/svg" xml:space="preserve" width="178.6" height="249.4" viewBox="0 0 178.6 249.4">
    <path fill="#fbfbf6" stroke="#7f7f7f" stroke-width=".4" d="M341.1-471.5h161.5c4.7 0 8.5 3.8 8.5 8.5v232.4c0 4.7-3.8 8.5-8.5 8.5H341.1c-4.7 0-8.5-3.8-8.5-8.5V-463c-.1-4.7 3.7-8.5 8.5-8.5z" transform="matrix(.99554 0 0 .9968 -330.626 470.399)"/>
    <path d="M14.129 40.28c-3.385 4.385-7.069 6.877-7.168 10.266 0 1.097.697 2.99 2.787 3.39 1.394.199 3.186-.798 3.286-2.792 0-.398.497-.398.497.2-.1 1.595-.597 3.389-1.592 4.884h4.48c-.897-1.495-1.494-3.29-1.593-4.884 0-.499.497-.598.497-.2 0 1.994 1.892 2.99 3.286 2.791 2.09-.398 2.787-2.193 2.787-3.389-.199-3.389-3.882-5.88-7.267-10.267M164.455 209.237c-3.385-4.386-7.068-6.878-7.168-10.267 0-1.096.697-2.99 2.788-3.39 1.393-.198 3.185.798 3.285 2.792 0 .399.498.399.498-.2-.1-1.594-.598-3.389-1.593-4.884h4.48c-.896 1.495-1.494 3.29-1.593 4.885 0 .498.498.598.498.199 0-1.994 1.891-2.99 3.285-2.791 2.09.399 2.787 2.193 2.787 3.389-.1 3.39-3.783 5.881-7.267 10.267M89.292 105.57c-7.367 10.466-15.232 16.547-15.331 24.72 0 2.692 1.393 7.177 5.873 7.975 2.887.598 6.87-1.794 6.969-6.58 0-.996.995-.896.995.4-.1 3.787-1.294 8.173-3.384 11.762h9.656c-1.99-3.589-3.185-7.975-3.384-11.762 0-1.296.995-1.296.995-.4.1 4.786 4.082 7.178 6.969 6.58 4.48-.897 5.874-5.383 5.874-7.975 0-8.173-7.865-14.254-15.232-24.72M6.065 37.787v-2.292h2.19l4.58-24.023h2.588L20.5 35.495h1.693v2.292h-5.874v-2.292h1.593l-.598-3.689h-5.973l-.498 3.689h1.593v2.292zm10.652-8.572L14.13 16.356l-2.39 12.859zM156.391 211.73v2.292h2.19l4.58 24.023h2.588l5.077-24.023h1.693v-2.293h-5.874v2.293h1.593l-.597 3.688h-5.974l-.497-3.688h1.592v-2.293zm10.652 8.572-2.588 12.858-2.39-12.858z"/>
</svg>
