<svg xmlns="http://www.w3.org/2000/svg" xml:space="preserve" width="178.6" height="249.4" viewBox="0 0 178.6 249.4">
    <path fill="#fbfbf6" stroke="#7f7f7f" stroke-width=".4" d="M268.9 370.2h161.5c4.7 0 8.5 3.8 8.5 8.5v232.4c0 4.7-3.8 8.5-8.5 8.5H268.9c-4.7 0-8.5-3.8-8.5-8.5V378.7c-.1-4.7 3.8-8.5 8.5-8.5z" transform="matrix(.99554 0 0 .9968 -258.773 -368.592)"/>
    <path d="M89.24 26.768c-7.8.2-11.3 9-5.5 15.8.8 1 .9 1.6-.6.6-3.9-2.6-11.4-.9-11.8 7.1-.5 9.8 13.3 12.7 15.8 2.2.1-1.1 1-1.1.8.5-.2 4.2-1.6 8.2-3.4 12.1h9.3c-1.8-3.9-3.1-7.8-3.4-12.1-.2-1.6.7-1.6.8-.5 2.6 10.4 16.3 7.6 15.8-2.2-.4-8-7.9-9.7-11.8-7.1-1.5 1-1.5.4-.6-.6 6-6.8 2.5-15.6-5.4-15.8q.15 0 0 0M89.24 223.268c-7.8-.2-11.3-9-5.5-15.8.8-1 .9-1.6-.6-.6-3.9 2.6-11.4.9-11.8-7.1-.5-9.8 13.3-12.7 15.8-2.2.1 1.1 1 1.1.8-.5-.2-4.2-1.6-8.2-3.4-12.1h9.3c-1.8 3.9-3.1 7.8-3.4 12.1-.2 1.6.7 1.6.8.5 2.6-10.4 16.3-7.6 15.8 2.2-.4 8-7.9 9.7-11.8 7.1-1.5-1-1.5-.4-.6.6 6 6.9 2.5 15.7-5.4 15.8q.15 0 0 0M164.44 209.168c3.1-.1 4.5-3.7 2.2-6.6-.3-.4-.4-.7.2-.3 1.6 1.1 4.6.4 4.7-2.9.2-4.1-5.3-5.3-6.3-.9-.1.5-.4.4-.3-.2.1-1.8.6-3.4 1.4-5h-3.7c.7 1.6 1.3 3.3 1.4 5 .1.7-.3.7-.3.2-1-4.4-6.5-3.2-6.3.9.2 3.3 3.1 4 4.7 2.9.6-.4.6-.2.2.3-2.4 2.9-1 6.6 2.1 6.6M14.14 40.268c-3.1.1-4.5 3.7-2.2 6.6.3.4.4.7-.2.3-1.6-1.1-4.5-.4-4.7 2.9-.2 4.1 5.3 5.3 6.3.9.1-.5.4-.4.3.2-.1 1.8-.6 3.4-1.4 5h3.7c-.7-1.6-1.3-3.3-1.4-5-.1-.7.3-.7.3-.2 1 4.4 6.5 3.2 6.3-.9-.2-3.3-3.1-4-4.7-2.9-.6.4-.6.2-.2-.3 2.4-2.9 1-6.5-2.1-6.6M6.24 37.668l.1-1.6c.4-5 1.5-6.7 7.6-11.9 3-2.5 3.9-3.8 4.1-5.2.4-3.4-2.6-4.5-4.6-4.5-2.6 0-5.4 1.5-4.1 5.2l-2.9.9c-.6-3.4 0-6.5 2.7-7.9 3.6-1.8 8.2-1.1 10.5 1.8 1.6 1.9 1.9 4.6 1.1 6.7-2.4 5.4-10.7 7.7-11.4 13.9h9.2v-3.5h2.7v6.4zM171.94 211.768l-.1 1.6c-.4 5-1.5 6.7-7.6 11.9-3 2.5-3.9 3.8-4.1 5.2-.4 3.4 2.6 4.5 4.6 4.5 2.6 0 5.4-1.5 4.1-5.2l2.9-.9c.6 3.4 0 6.5-2.7 7.9-3.6 1.8-8.2 1.1-10.5-1.8-1.6-1.9-1.9-4.6-1.1-6.7 2.4-5.4 10.7-7.7 11.4-13.9h-9.1v3.5h-2.7v-6.4z"/>
</svg>
