<svg xmlns="http://www.w3.org/2000/svg" xml:space="preserve" width="178.6" height="249.4" viewBox="0 0 178.6 249.4">
    <path fill="#fbfbf6" stroke="#7f7f7f" stroke-width=".4" d="M735.7-30.5h161.5c4.7 0 8.5 3.8 8.5 8.5v232.4c0 4.7-3.8 8.5-8.5 8.5H735.7c-4.7 0-8.5-3.8-8.5-8.5V-22c0-4.7 3.8-8.5 8.5-8.5z" transform="matrix(.99554 0 0 .9968 -723.516 30.846)"/>
    <path fill="#d40000" d="M89.34 64.738c-4.082-6.878-8.463-13.457-13.938-19.139 5.475-5.682 9.756-12.26 13.937-19.139 4.082 6.878 8.462 13.457 13.938 19.139-5.476 5.682-9.856 12.36-13.938 19.139M14.077 56.165c-1.693-2.89-3.485-5.582-5.774-7.974 2.29-2.393 4.081-5.084 5.774-7.975 1.692 2.891 3.484 5.582 5.774 7.975-2.19 2.392-3.982 5.183-5.774 7.974M164.502 209.175c-1.692-2.891-3.484-5.582-5.774-7.975 2.29-2.392 4.082-5.084 5.774-7.974 1.693 2.89 3.485 5.582 5.774 7.974-2.29 2.393-4.081 5.184-5.774 7.975M89.34 222.93c-4.082-6.877-8.463-13.456-13.938-19.138 5.475-5.682 9.756-12.26 13.937-19.139 4.082 6.878 8.462 13.457 13.938 19.139-5.476 5.682-9.856 12.36-13.938 19.139M6.61 37.724l.1-1.595c.398-4.984 1.493-6.678 7.566-11.961 2.986-2.492 3.982-3.788 4.081-5.283.399-3.39-2.687-4.486-4.579-4.486-2.588 0-5.475 1.495-4.082 5.183l-2.887.898c-.597-3.39 0-6.58 2.688-7.975 3.584-1.794 8.164-1.096 10.453 1.794 1.593 1.894 1.892 4.586 1.095 6.679-2.488 5.383-10.751 7.675-11.448 13.955h9.159v-3.588h2.688v6.38zM171.969 211.766l-.1 1.595c-.398 4.984-1.493 6.679-7.566 11.962-2.987 2.492-3.982 3.788-4.082 5.283-.398 3.39 2.688 4.486 4.58 4.486 2.588 0 5.475-1.496 4.082-5.184l2.887-.897c.597 3.39 0 6.579-2.688 7.974-3.584 1.795-8.164 1.097-10.453-1.794-1.593-1.894-1.892-4.585-1.096-6.678 2.49-5.383 10.752-7.676 11.45-13.956h-9.16v3.49h-2.688v-6.38z"/>
</svg>
