<svg xmlns="http://www.w3.org/2000/svg" xml:space="preserve" width="178.6" height="249.4" viewBox="0 0 178.6 249.4">
    <path fill="#fbfbf6" stroke="#7f7f7f" stroke-width=".4" d="M268.9 370.2h161.5c4.7 0 8.5 3.8 8.5 8.5v232.4c0 4.7-3.8 8.5-8.5 8.5H268.9c-4.7 0-8.5-3.8-8.5-8.5V378.7c-.1-4.7 3.8-8.5 8.5-8.5z" transform="matrix(.99554 0 0 .9968 -258.773 -368.593)"/>
    <path fill="#d40000" d="M14.105 56.22s-1.792-2.592-4.181-5.582c-1.593-1.994-2.887-4.187-2.987-6.08-.1-2.094 1.195-4.287 3.485-4.387s3.285 1.595 3.683 3.09c.398-1.395 1.294-3.19 3.684-3.09 2.29.1 3.583 2.293 3.484 4.386-.1 1.894-1.394 3.988-2.987 6.08-2.389 2.991-4.181 5.583-4.181 5.583M164.431 193.28s-1.792 2.592-4.181 5.582c-1.593 1.994-2.887 4.187-2.987 6.08-.1 2.094 1.195 4.287 3.485 4.387s3.285-1.595 3.683-3.09c.398 1.395 1.294 3.19 3.684 3.09 2.29-.1 3.584-2.293 3.484-4.386-.1-1.894-1.394-3.988-2.986-6.08-2.39-3.09-4.182-5.583-4.182-5.583M89.268 64.792s-3.683-6.08-8.76-13.257c-3.385-4.785-6.073-9.968-6.272-14.454-.3-5.083 2.389-10.267 7.367-10.466 4.878-.2 6.869 3.987 7.665 7.376.797-3.489 2.788-7.675 7.666-7.376 4.878.2 7.566 5.383 7.367 10.466-.299 4.486-2.887 9.67-6.272 14.454a280 280 0 0 0-8.76 13.257M89.268 184.708s-3.683 6.08-8.76 13.257c-3.385 4.785-6.073 9.968-6.272 14.454-.3 5.083 2.389 10.267 7.367 10.466 4.878.2 6.869-3.987 7.665-7.376.797 3.489 2.788 7.675 7.666 7.376 4.878-.2 7.566-5.383 7.367-10.466-.299-4.486-2.887-9.67-6.272-14.454-4.978-7.177-8.76-13.257-8.76-13.257M6.639 37.68l.1-1.595c.397-4.984 1.492-6.679 7.565-11.962 2.987-2.492 3.982-3.788 4.082-5.283.398-3.39-2.688-4.486-4.58-4.486-2.588 0-5.475 1.495-4.081 5.184l-2.887.897c-.598-3.39 0-6.58 2.688-7.975 3.584-1.794 8.163-1.096 10.453 1.795 1.593 1.893 1.891 4.585 1.095 6.678-2.489 5.383-10.752 7.676-11.449 13.955h9.16V31.4h2.687v6.38zM171.997 211.72l-.1 1.596c-.397 4.984-1.493 6.678-7.565 11.961-2.987 2.492-3.982 3.788-4.082 5.283-.398 3.39 2.688 4.486 4.58 4.486 2.588 0 5.475-1.495 4.081-5.183l2.887-.897c.598 3.389 0 6.578-2.688 7.974-3.584 1.794-8.163 1.096-10.453-1.794-1.593-1.894-1.891-4.586-1.095-6.679 2.489-5.383 10.752-7.675 11.449-13.955h-9.16v3.489h-2.687v-6.38z"/>
</svg>
