<svg xmlns="http://www.w3.org/2000/svg" xml:space="preserve" width="178.6" height="249.4" viewBox="0 0 178.6 249.4">
    <path fill="#fbfbf6" stroke="#7f7f7f" stroke-width=".4" d="M666.2-471.5h161.5c4.7 0 8.5 3.8 8.5 8.5v232.4c0 4.7-3.8 8.5-8.5 8.5H666.2c-4.7 0-8.5-3.8-8.5-8.5V-463c-.1-4.7 3.7-8.5 8.5-8.5z" transform="matrix(.99554 0 0 .9968 -654.281 470.399)"/>
    <path d="M14.123 40.28c-3.385 4.385-7.068 6.877-7.168 10.266 0 1.097.697 2.99 2.788 3.39 1.393.199 3.185-.798 3.285-2.792 0-.398.498-.398.498.2-.1 1.595-.598 3.389-1.593 4.884h4.48c-.896-1.495-1.494-3.29-1.593-4.884 0-.499.498-.598.498-.2 0 1.994 1.891 2.99 3.285 2.791 2.09-.398 2.787-2.193 2.787-3.389-.199-3.389-3.882-5.88-7.267-10.267M164.45 209.237c-3.386-4.386-7.07-6.878-7.169-10.267 0-1.096.697-2.99 2.788-3.39 1.394-.198 3.186.798 3.285 2.792 0 .399.498.399.498-.2-.1-1.594-.597-3.389-1.593-4.884h4.48c-.896 1.495-1.493 3.29-1.593 4.885 0 .498.498.598.498.199 0-1.994 1.891-2.99 3.285-2.791 2.09.399 2.788 2.193 2.788 3.389-.1 3.39-3.783 5.881-7.268 10.267M89.286 26.424C81.92 36.89 74.054 42.97 73.955 51.144c0 2.692 1.394 7.177 5.874 7.975 2.887.598 6.869-1.794 6.968-6.58 0-.996.996-.896.996.4-.1 3.787-1.294 8.173-3.385 11.762h9.657c-1.991-3.589-3.186-7.975-3.385-11.762 0-1.296.995-1.296.995-.4.1 4.786 4.082 7.178 6.97 6.58 4.48-.897 5.873-5.383 5.873-7.975 0-8.173-7.865-14.154-15.232-24.72M89.286 222.993c-7.367-10.466-15.232-16.547-15.331-24.72 0-2.692 1.394-7.178 5.874-7.975 2.887-.598 6.869 1.794 6.968 6.579 0 .997.996.897.996-.399-.1-3.788-1.294-8.174-3.385-11.762h9.657c-1.991 3.588-3.186 7.974-3.385 11.762 0 1.296.995 1.296.995.399.1-4.785 4.082-7.177 6.97-6.58 4.48.898 5.873 5.384 5.873 7.975 0 8.174-7.865 14.255-15.232 24.72M6.657 37.688l.1-1.595c.397-4.984 1.492-6.679 7.565-11.962 2.987-2.492 3.982-3.788 4.082-5.283.398-3.39-2.688-4.486-4.58-4.486-2.588 0-5.475 1.496-4.081 5.184l-2.887.897c-.598-3.39 0-6.579 2.688-7.975 3.584-1.794 8.163-1.096 10.453 1.795 1.593 1.894 1.891 4.585 1.095 6.678-2.489 5.383-10.752 7.676-11.449 13.956h9.16v-3.49h2.687v6.38zM171.916 211.73l-.1 1.594c-.398 4.984-1.493 6.679-7.566 11.962-2.986 2.492-3.982 3.787-4.082 5.283-.398 3.389 2.688 4.485 4.58 4.485 2.588 0 5.475-1.495 4.082-5.183l2.887-.897c.597 3.389 0 6.579-2.688 7.974-3.584 1.794-8.164 1.097-10.453-1.794-1.593-1.894-1.892-4.585-1.096-6.679 2.49-5.382 10.752-7.675 11.45-13.955h-9.16v3.489h-2.688v-6.38z"/>
</svg>
