<svg xmlns="http://www.w3.org/2000/svg" xml:space="preserve" width="178.6" height="249.4" viewBox="0 0 178.6 249.4">
    <path fill="#fbfbf6" stroke="#7f7f7f" stroke-width=".4" d="M999.9-30.5h161.5c4.7 0 8.5 3.8 8.5 8.5v232.4c0 4.7-3.8 8.5-8.5 8.5H999.9c-4.7 0-8.5-3.8-8.5-8.5V-22c0-4.7 3.8-8.5 8.5-8.5z" transform="matrix(.99553 0 0 .9968 -986.56 30.846)"/>
    <path fill="#d40000" d="M89.314 64.738c-4.082-6.878-8.462-13.457-13.937-19.139 5.475-5.682 9.756-12.26 13.937-19.139 4.082 6.878 8.462 13.457 13.938 19.139-5.476 5.682-9.856 12.36-13.938 19.139M14.151 56.165c-1.692-2.89-3.484-5.582-5.774-7.974 2.29-2.393 4.082-5.084 5.774-7.975 1.693 2.891 3.485 5.582 5.774 7.975-2.29 2.392-4.081 5.183-5.774 7.974M164.477 209.174c-1.692-2.89-3.484-5.582-5.774-7.974 2.29-2.392 4.082-5.084 5.774-7.974 1.692 2.89 3.484 5.582 5.774 7.974-2.29 2.392-4.082 5.183-5.774 7.974M89.314 143.884c-4.082-6.878-8.462-13.457-13.937-19.139 5.475-5.682 9.756-12.26 13.937-19.138 4.082 6.877 8.462 13.456 13.938 19.138-5.476 5.682-9.856 12.26-13.938 19.139M89.314 222.93c-4.082-6.878-8.462-13.457-13.937-19.138 5.475-5.682 9.756-12.261 13.937-19.139 4.082 6.878 8.462 13.457 13.938 19.139-5.476 5.681-9.856 12.36-13.938 19.138M5.59 31.943l1.99-1.495c1.793 2.89 3.684 4.784 6.77 4.386 4.48-.3 6.372-5.084 5.476-8.573-.896-3.19-4.68-4.785-7.566-3.09-.697.399-1.394.698-1.494.698-.298 0-.995-1.396-.896-1.795 1.991-2.89 6.87-7.974 6.87-7.974H9.174v3.39H6.286v-6.181H21.02v2.093s-3.982 4.087-5.276 6.38c3.186.1 5.774 2.193 6.77 5.383.497 1.694.298 5.582-.399 7.276-1.194 2.791-4.48 5.084-7.366 5.184-5.177.398-7.865-3.09-9.16-5.682M173.039 217.448l-1.991 1.495c-1.792-2.89-3.684-4.785-6.77-4.386-4.48.3-6.372 5.084-5.476 8.573.896 3.19 4.68 4.784 7.567 3.09.696-.399 1.393-.698 1.493-.698.298 0 .995 1.396.896 1.794-1.991 2.891-6.87 7.975-6.87 7.975h7.567v-3.39h2.887v6.18h-14.734v-2.093s3.982-4.086 5.276-6.38c-3.186-.099-5.774-2.192-6.77-5.382-.497-1.694-.298-5.582.399-7.277 1.194-2.79 4.48-5.083 7.367-5.183 5.176-.399 7.765 3.09 9.159 5.682"/>
</svg>
