<svg xmlns="http://www.w3.org/2000/svg" xml:space="preserve" width="178.6" height="249.4" viewBox="0 0 178.6 249.4">
    <path fill="#fbfbf6" stroke="#7f7f7f" stroke-width=".4" d="M268.9 370.2h161.5c4.7 0 8.5 3.8 8.5 8.5v232.4c0 4.7-3.8 8.5-8.5 8.5H268.9c-4.7 0-8.5-3.8-8.5-8.5V378.7c-.1-4.7 3.8-8.5 8.5-8.5z" transform="matrix(.99554 0 0 .9968 -258.773 -368.593)"/>
    <path fill="#d40000" d="M14.159 56.22s-1.792-2.592-4.182-5.582c-1.593-1.994-2.887-4.187-2.986-6.08-.1-2.094 1.194-4.287 3.484-4.387s3.285 1.595 3.684 3.09c.398-1.395 1.294-3.19 3.683-3.09 2.29.1 3.584 2.293 3.484 4.386-.1 1.894-1.393 3.988-2.986 6.08-2.489 2.991-4.181 5.583-4.181 5.583M164.485 193.28s-1.792 2.592-4.181 5.582c-1.593 1.994-2.888 4.187-2.987 6.08-.1 2.094 1.195 4.287 3.484 4.387 2.29.1 3.286-1.595 3.684-3.09.398 1.395 1.294 3.19 3.683 3.09 2.29-.1 3.584-2.293 3.485-4.386-.1-1.894-1.394-3.988-2.987-6.08-2.39-3.09-4.181-5.583-4.181-5.583M89.322 64.792s-3.684-6.08-8.761-13.257c-3.385-4.785-6.073-9.968-6.272-14.454-.299-5.083 2.39-10.267 7.367-10.466 4.878-.2 6.87 3.987 7.666 7.376.796-3.489 2.787-7.675 7.665-7.376 4.878.2 7.566 5.383 7.367 10.466-.298 4.486-2.887 9.67-6.272 14.454-5.077 7.077-8.76 13.257-8.76 13.257M89.322 143.839s-3.684-6.08-8.761-13.258c-3.385-4.784-6.073-9.968-6.272-14.453-.299-5.084 2.39-10.267 7.367-10.467 4.878-.2 6.87 3.987 7.666 7.377.796-3.49 2.787-7.676 7.665-7.377 4.878.2 7.566 5.383 7.367 10.467-.298 4.485-2.887 9.669-6.272 14.453-5.077 7.177-8.76 13.258-8.76 13.258M89.322 184.708s-3.684 6.08-8.761 13.257c-3.385 4.785-6.073 9.968-6.272 14.454-.299 5.083 2.39 10.267 7.367 10.466 4.878.2 6.87-3.987 7.666-7.376.796 3.489 2.787 7.675 7.665 7.376 4.878-.2 7.566-5.383 7.367-10.466-.298-4.486-2.887-9.67-6.272-14.454-5.077-7.177-8.76-13.257-8.76-13.257M5.597 31.998l1.991-1.496c1.792 2.891 3.684 4.785 6.77 4.386 4.48-.299 6.371-5.083 5.475-8.572-.896-3.19-4.679-4.785-7.566-3.09-.697.399-1.394.698-1.493.698-.299 0-.996-1.396-.896-1.795 1.99-2.89 6.869-7.974 6.869-7.974H9.181v3.389H6.294v-6.18h14.734v2.093s-3.982 4.087-5.277 6.38c3.186.1 5.775 2.193 6.77 5.382.498 1.695.299 5.582-.398 7.277-1.195 2.791-4.48 5.084-7.367 5.183-5.177.4-7.865-3.09-9.159-5.681M173.046 217.502l-1.99 1.496c-1.793-2.891-3.684-4.785-6.77-4.386-4.48.299-6.372 5.083-5.476 8.572.896 3.19 4.68 4.785 7.566 3.09.697-.399 1.394-.698 1.494-.698.298 0 .995 1.396.896 1.795-1.991 2.89-6.87 7.974-6.87 7.974h7.566v-3.389h2.888v6.18h-14.635v-2.093s3.982-4.087 5.276-6.38c-3.185-.1-5.774-2.193-6.77-5.382-.497-1.695-.298-5.582.399-7.277 1.195-2.791 4.48-5.084 7.367-5.183 5.077-.4 7.666 3.09 9.06 5.681"/>
</svg>
