<svg xmlns="http://www.w3.org/2000/svg" xml:space="preserve" width="178.6" height="249.4" viewBox="0 0 178.6 249.4">
    <path fill="#fbfbf6" stroke="#7f7f7f" stroke-width=".4" d="M991.3-471.5h161.5c4.7 0 8.5 3.8 8.5 8.5v232.4c0 4.7-3.8 8.5-8.5 8.5H991.3c-4.7 0-8.5-3.8-8.5-8.5V-463c-.1-4.7 3.7-8.5 8.5-8.5z" transform="matrix(.99554 0 0 .9968 -977.936 470.399)"/>
    <path d="M14.117 40.28c-3.384 4.385-7.068 6.877-7.167 10.266 0 1.097.696 2.99 2.787 3.39 1.394.199 3.186-.798 3.285-2.792 0-.398.498-.398.498.2-.1 1.595-.597 3.389-1.593 4.884h4.48c-.896-1.495-1.493-3.29-1.593-4.884 0-.499.498-.598.498-.2 0 1.994 1.892 2.99 3.285 2.791 2.091-.398 2.788-2.193 2.788-3.389-.2-3.389-3.883-5.88-7.268-10.267M164.444 209.237c-3.385-4.386-7.069-6.878-7.168-10.267 0-1.096.697-2.99 2.787-3.39 1.394-.198 3.186.798 3.286 2.792 0 .399.497.399.497-.2-.1-1.594-.597-3.389-1.592-4.884h4.48c-.897 1.495-1.494 3.29-1.593 4.885 0 .498.497.598.497.199 0-1.994 1.892-2.99 3.286-2.791 2.09.399 2.787 2.193 2.787 3.389-.1 3.39-3.783 5.881-7.267 10.267M89.28 26.424C81.915 36.89 74.05 42.97 73.95 51.144c0 2.692 1.393 7.177 5.873 7.975 2.887.598 6.87-1.794 6.969-6.58 0-.996.995-.896.995.4-.1 3.787-1.294 8.173-3.385 11.762h9.657c-1.99-3.589-3.186-7.975-3.385-11.762 0-1.296.996-1.296.996-.4.1 4.786 4.082 7.178 6.969 6.58 4.48-.897 5.873-5.383 5.873-7.975 0-8.173-7.864-14.154-15.231-24.72M89.28 222.993c-7.366-10.466-15.231-16.547-15.33-24.72 0-2.692 1.393-7.178 5.873-7.975 2.887-.598 6.87 1.794 6.969 6.579 0 .997.995.897.995-.399-.1-3.788-1.294-8.174-3.385-11.762h9.657c-1.99 3.588-3.186 7.974-3.385 11.762 0 1.296.996 1.296.996.399.1-4.785 4.082-7.177 6.969-6.58 4.48.898 5.873 5.384 5.873 7.975 0 8.174-7.864 14.255-15.231 24.72M89.28 105.57c-7.366 10.466-15.231 16.547-15.33 24.72 0 2.692 1.393 7.177 5.873 7.975 2.887.598 6.87-1.794 6.969-6.58 0-.996.995-.896.995.4-.1 3.787-1.294 8.173-3.385 11.762h9.657c-1.99-3.589-3.186-7.975-3.385-11.762 0-1.296.996-1.296.996-.4.1 4.786 4.082 7.178 6.969 6.58 4.48-.897 5.873-5.383 5.873-7.975 0-8.173-7.864-14.254-15.231-24.72M5.556 32.006l1.99-1.495c1.793 2.89 3.684 4.784 6.77 4.386 4.48-.3 6.372-5.084 5.476-8.573-.896-3.19-4.679-4.785-7.566-3.09-.697.399-1.394.698-1.493.698-.299 0-.996-1.396-.896-1.795 1.99-2.89 6.869-7.974 6.869-7.974H9.14v3.39H6.253v-6.181h14.734v2.093s-3.982 4.087-5.277 6.38c3.186.1 5.774 2.193 6.77 5.383.498 1.694.299 5.582-.398 7.276-1.195 2.791-4.48 5.084-7.367 5.184-5.177.398-7.865-3.09-9.16-5.682M173.005 217.51l-1.99 1.496c-1.793-2.891-3.684-4.785-6.77-4.386-4.48.299-6.372 5.083-5.476 8.572.896 3.19 4.68 4.785 7.566 3.09.697-.398 1.394-.697 1.494-.697.298 0 .995 1.395.895 1.794-1.99 2.89-6.869 7.974-6.869 7.974h7.566v-3.389h2.887v6.18h-14.734v-2.093s3.983-4.087 5.277-6.38c-3.186-.1-5.774-2.192-6.77-5.382-.498-1.695-.298-5.582.398-7.277 1.195-2.79 4.48-5.084 7.367-5.183 5.177-.399 7.865 3.09 9.16 5.682"/>
</svg>
