<svg xmlns="http://www.w3.org/2000/svg" xml:space="preserve" width="178.6" height="249.4" viewBox="0 0 178.6 249.4">
    <path fill="#fbfbf6" stroke="#7f7f7f" stroke-width=".4" d="M1264.2-30.5h161.5c4.7 0 8.5 3.8 8.5 8.5v232.4c0 4.7-3.8 8.5-8.5 8.5h-161.5c-4.7 0-8.5-3.8-8.5-8.5V-22c-.1-4.7 3.7-8.5 8.5-8.5z" transform="matrix(.99553 0 0 .9968 -1249.606 30.846)"/>
    <path fill="#d40000" d="M14.126 56.165c-1.692-2.89-3.484-5.582-5.774-7.974 2.29-2.393 4.082-5.084 5.774-7.975 1.693 2.891 3.485 5.582 5.774 7.975-2.29 2.392-4.081 5.183-5.774 7.974M130.504 64.738c-4.081-6.878-8.462-13.457-13.937-19.139 5.475-5.682 9.756-12.26 13.937-19.139 4.082 6.878 8.462 13.457 13.938 19.139-5.476 5.682-9.756 12.36-13.938 19.139M164.452 209.174c-1.692-2.89-3.484-5.582-5.774-7.974 2.29-2.392 4.082-5.084 5.774-7.974 1.693 2.89 3.484 5.582 5.774 7.974-2.19 2.392-4.081 5.183-5.774 7.974M48.074 64.738c-4.082-6.878-8.462-13.457-13.937-19.139 5.475-5.682 9.756-12.26 13.937-19.139 4.082 6.878 8.462 13.457 13.938 19.139-5.476 5.682-9.856 12.36-13.938 19.139M48.074 223.03c-4.082-6.878-8.462-13.457-13.937-19.139 5.475-5.681 9.756-12.26 13.937-19.138 4.082 6.878 8.462 13.457 13.938 19.138-5.476 5.582-9.856 12.261-13.938 19.139M130.504 223.03c-4.081-6.878-8.462-13.457-13.937-19.139 5.475-5.681 9.756-12.26 13.937-19.138 4.082 6.878 8.462 13.457 13.938 19.138-5.476 5.582-9.756 12.261-13.938 19.139M14.325 37.724v-2.292h2.091v-3.888H5.963v-2.691l11.35-17.444h1.89v17.444h3.186v2.691h-3.185l-.1 3.788h1.792v2.293zm2.091-19.936L9.15 28.853h7.168V17.788zM164.253 211.666v2.293h-2.09v3.788h10.453v2.691l-11.35 17.444h-1.891v-17.444h-3.186v-2.691h3.186l.1-3.788h-1.793v-2.293zm-2.09 19.936 7.167-11.064h-7.168z"/>
</svg>
