<svg xmlns="http://www.w3.org/2000/svg" xml:space="preserve" width="178.6" height="249.4" viewBox="0 0 178.6 249.4">
    <path fill="#fbfbf6" stroke="#7f7f7f" stroke-width=".4" d="M268.9 370.2h161.5c4.7 0 8.5 3.8 8.5 8.5v232.4c0 4.7-3.8 8.5-8.5 8.5H268.9c-4.7 0-8.5-3.8-8.5-8.5V378.7c-.1-4.7 3.8-8.5 8.5-8.5z" transform="matrix(.99554 0 0 .9968 -258.773 -368.593)"/>
    <path fill="#d40000" d="M14.113 56.22s-1.792-2.592-4.182-5.582c-1.592-1.994-2.887-4.187-2.986-6.08-.1-2.094 1.194-4.287 3.484-4.387s3.285 1.595 3.684 3.09c.398-1.395 1.294-3.19 3.683-3.09 2.29.1 3.584 2.293 3.485 4.386-.1 1.894-1.394 3.988-2.987 6.08-2.39 2.991-4.181 5.583-4.181 5.583M164.439 193.28s-1.792 2.592-4.181 5.582c-1.593 1.994-2.887 4.187-2.987 6.08-.1 2.094 1.195 4.287 3.484 4.387 2.29.1 3.286-1.595 3.684-3.09.398 1.395 1.294 3.19 3.683 3.09 2.29-.1 3.584-2.293 3.485-4.386-.1-1.894-1.394-3.988-2.987-6.08-2.39-3.09-4.181-5.583-4.181-5.583M48.06 64.792s-3.683-6.08-8.76-13.257c-3.385-4.785-6.073-9.968-6.272-14.454-.299-5.083 2.39-10.267 7.367-10.466 4.878-.2 6.87 3.987 7.666 7.376.796-3.489 2.787-7.675 7.665-7.376 4.878.2 7.566 5.383 7.367 10.466-.299 4.486-2.887 9.67-6.272 14.454-5.077 7.077-8.76 13.257-8.76 13.257M130.491 64.792s-3.683-6.08-8.76-13.257c-3.386-4.785-6.073-9.968-6.273-14.454-.298-5.083 2.39-10.267 7.367-10.466 4.879-.2 6.87 3.987 7.666 7.376.796-3.489 2.788-7.675 7.666-7.376 4.878.2 7.566 5.383 7.367 10.466-.299 4.486-2.887 9.67-6.272 14.454-4.978 7.077-8.761 13.257-8.761 13.257M130.491 184.708s-3.683 6.08-8.76 13.257c-3.386 4.785-6.073 9.968-6.273 14.454-.298 5.083 2.39 10.267 7.367 10.466 4.879.2 6.87-3.987 7.666-7.376.796 3.489 2.788 7.675 7.666 7.376 4.878-.2 7.566-5.383 7.367-10.466-.299-4.486-2.887-9.67-6.272-14.454-4.978-7.177-8.761-13.257-8.761-13.257M48.06 184.708s-3.683 6.08-8.76 13.257c-3.385 4.785-6.073 9.968-6.272 14.454-.299 5.083 2.39 10.267 7.367 10.466 4.878.2 6.87-3.987 7.666-7.376.796 3.489 2.787 7.675 7.665 7.376 4.878-.2 7.566-5.383 7.367-10.466-.299-4.486-2.887-9.67-6.272-14.454-5.077-7.177-8.76-13.257-8.76-13.257M14.312 37.78v-2.294h2.09V31.7H5.95v-2.692L17.3 11.563h1.89v17.444h3.187V31.7H19.19l-.1 3.787h1.792v2.293zm2.09-19.937L9.235 28.908h7.167zM164.24 211.72v2.294h-2.09v3.787h10.452v2.692l-11.349 17.444h-1.891v-17.444h-3.186V217.8h3.186l.1-3.787h-1.793v-2.293zm-2.09 19.937 7.167-11.065h-7.168z"/>
</svg>
