<svg xmlns="http://www.w3.org/2000/svg" xml:space="preserve" width="178.6" height="249.4" viewBox="0 0 178.6 249.4">
    <path fill="#fbfbf6" stroke="#7f7f7f" stroke-width=".4" d="M1528.4-30.5h161.5c4.7 0 8.5 3.8 8.5 8.5v232.4c0 4.7-3.8 8.5-8.5 8.5h-161.5c-4.7 0-8.5-3.8-8.5-8.5V-22c-.1-4.7 3.8-8.5 8.5-8.5z" transform="matrix(.99553 0 0 .9968 -1512.651 30.846)"/>
    <path fill="#d40000" d="M14.101 56.165c-1.692-2.89-3.484-5.582-5.774-7.974 2.29-2.393 4.082-5.084 5.774-7.975 1.693 2.891 3.485 5.582 5.774 7.975-2.19 2.392-4.081 5.183-5.774 7.974M130.48 64.738c-4.082-6.878-8.463-13.457-13.938-19.139 5.475-5.682 9.756-12.26 13.937-19.139 4.082 6.878 8.462 13.457 13.938 19.139-5.376 5.682-9.756 12.36-13.938 19.139M164.427 209.174c-1.692-2.89-3.484-5.582-5.774-7.974 2.29-2.392 4.082-5.084 5.774-7.974 1.692 2.89 3.484 5.582 5.774 7.974-2.19 2.392-3.982 5.183-5.774 7.974M48.049 64.738c-4.082-6.878-8.462-13.457-13.938-19.139 5.476-5.682 9.757-12.26 13.938-19.139 4.082 6.878 8.462 13.457 13.937 19.139-5.475 5.682-9.756 12.36-13.937 19.139M89.264 143.884c-4.082-6.878-8.462-13.457-13.937-19.139 5.475-5.682 9.756-12.26 13.937-19.138 4.082 6.877 8.462 13.456 13.938 19.138-5.476 5.682-9.757 12.26-13.938 19.139M48.049 223.03c-4.082-6.878-8.462-13.457-13.938-19.139 5.476-5.681 9.757-12.26 13.938-19.138 4.082 6.878 8.462 13.457 13.937 19.138-5.475 5.582-9.756 12.261-13.937 19.139M130.48 223.03c-4.082-6.878-8.463-13.457-13.938-19.139 5.475-5.681 9.756-12.26 13.937-19.138 4.082 6.878 8.462 13.457 13.938 19.138-5.376 5.582-9.756 12.261-13.938 19.139M5.838 30.946h2.589c.497 1.595 1.593 3.19 3.086 3.688 4.181.997 6.869-1.395 7.765-4.087 1.095-3.29 0-7.974-2.887-9.669-2.39-1.395-5.874-.2-7.566 2.692l-1.792-1.097.995-10.965h11.748V14.1h-9.557l-.2 4.585c2.091-1.495 5.177-1.495 7.268-.398 3.883 1.893 5.675 6.18 4.978 11.263-1.095 5.084-3.385 7.875-8.562 8.274-5.874 0-7.865-4.087-7.865-6.878M172.79 218.544H170.2c-.498-1.595-1.593-3.19-3.086-3.688-4.181-.997-6.87 1.396-7.765 4.087-1.095 3.29 0 7.975 2.887 9.67 2.39 1.395 5.873.198 7.566-2.692l1.792 1.096-.996 10.965h-11.747v-2.592h9.557l.2-4.585c-2.091 1.495-5.178 1.495-7.268.399-3.883-1.894-5.675-6.18-4.978-11.264 1.095-5.084 3.385-7.875 8.562-8.274 5.774 0 7.865 4.087 7.865 6.878"/>
</svg>
