<svg xmlns="http://www.w3.org/2000/svg" xml:space="preserve" width="178.6" height="249.4" viewBox="0 0 178.6 249.4">
    <path fill="#fbfbf6" stroke="#7f7f7f" stroke-width=".4" d="M268.9 370.2h161.5c4.7 0 8.5 3.8 8.5 8.5v232.4c0 4.7-3.8 8.5-8.5 8.5H268.9c-4.7 0-8.5-3.8-8.5-8.5V378.7c-.1-4.7 3.8-8.5 8.5-8.5z" transform="matrix(.99554 0 0 .9968 -258.773 -368.593)"/>
    <path fill="#d40000" d="M14.067 56.22s-1.792-2.592-4.181-5.582c-1.593-1.994-2.888-4.187-2.987-6.08-.1-2.094 1.195-4.287 3.484-4.387 2.29-.1 3.286 1.595 3.684 3.09.398-1.395 1.294-3.19 3.683-3.09 2.29.1 3.584 2.293 3.485 4.386-.1 1.894-1.394 3.988-2.987 6.08-2.39 2.991-4.181 5.583-4.181 5.583M164.493 193.28s-1.792 2.592-4.182 5.582c-1.593 1.994-2.887 4.187-2.986 6.08-.1 2.094 1.194 4.287 3.484 4.387s3.285-1.595 3.684-3.09c.398 1.395 1.294 3.19 3.683 3.09 2.29-.1 3.584-2.293 3.484-4.386-.1-1.894-1.393-3.988-2.986-6.08-2.39-3.09-4.181-5.583-4.181-5.583M48.015 64.792s-3.684-6.08-8.761-13.257c-3.385-4.785-6.073-9.968-6.272-14.454-.299-5.083 2.39-10.267 7.367-10.466 4.878-.2 6.87 3.987 7.666 7.376.796-3.489 2.787-7.675 7.665-7.376 4.878.2 7.566 5.383 7.367 10.466-.298 4.486-2.887 9.67-6.272 14.454-4.977 7.077-8.76 13.257-8.76 13.257M130.545 64.792s-3.684-6.08-8.761-13.257c-3.385-4.785-6.073-9.968-6.272-14.454-.299-5.083 2.39-10.267 7.367-10.466 4.878-.2 6.87 3.987 7.666 7.376.796-3.489 2.787-7.675 7.665-7.376 4.878.2 7.566 5.383 7.367 10.466-.298 4.486-2.887 9.67-6.272 14.454-5.077 7.077-8.76 13.257-8.76 13.257M89.33 143.839s-3.684-6.08-8.761-13.258c-3.385-4.784-6.073-9.968-6.272-14.453-.299-5.084 2.39-10.267 7.367-10.467 4.878-.2 6.869 3.987 7.665 7.377.797-3.49 2.788-7.676 7.666-7.377 4.878.2 7.566 5.383 7.367 10.467-.299 4.485-2.887 9.669-6.272 14.453-5.077 7.177-8.76 13.258-8.76 13.258M130.545 184.708s-3.684 6.08-8.761 13.257c-3.385 4.785-6.073 9.968-6.272 14.454-.299 5.083 2.39 10.267 7.367 10.466 4.878.2 6.87-3.987 7.666-7.376.796 3.489 2.787 7.675 7.665 7.376 4.878-.2 7.566-5.383 7.367-10.466-.298-4.486-2.887-9.67-6.272-14.454-5.077-7.177-8.76-13.257-8.76-13.257M48.015 184.708s-3.684 6.08-8.761 13.257c-3.385 4.785-6.073 9.968-6.272 14.454-.299 5.083 2.39 10.267 7.367 10.466 4.878.2 6.87-3.987 7.666-7.376.796 3.489 2.787 7.675 7.665 7.376 4.878-.2 7.566-5.383 7.367-10.466-.298-4.486-2.887-9.67-6.272-14.454-4.977-7.177-8.76-13.257-8.76-13.257M5.804 30.901h2.588c.498 1.595 1.593 3.19 3.086 3.688 4.182.997 6.87-1.395 7.766-4.087 1.095-3.289 0-7.974-2.887-9.669-2.39-1.395-5.874-.199-7.567 2.692l-1.792-1.097.996-10.964h11.747v2.591h-9.557l-.199 4.585c2.09-1.495 5.177-1.495 7.268-.398 3.882 1.894 5.674 6.18 4.977 11.264-1.095 5.083-3.385 7.874-8.561 8.273-5.775 0-7.865-4.087-7.865-6.878M172.756 218.5h-2.589c-.498-1.596-1.593-3.19-3.086-3.689-4.181-.997-6.87 1.396-7.765 4.087-1.095 3.29 0 7.974 2.887 9.669 2.39 1.395 5.873.2 7.566-2.692l1.792 1.097-.996 10.965h-11.747v-2.592h9.557l.2-4.585c-2.091 1.495-5.178 1.495-7.268.399-3.883-1.894-5.675-6.18-4.978-11.264 1.095-5.084 3.385-7.875 8.562-8.274 5.873 0 7.865 4.087 7.865 6.878"/>
</svg>
