<svg xmlns="http://www.w3.org/2000/svg" xml:space="preserve" width="178.6" height="249.4" viewBox="0 0 178.6 249.4">
    <path fill="#fbfbf6" stroke="#7f7f7f" stroke-width=".4" d="M1686.3-408.9h161.5c4.7 0 8.5 3.8 8.5 8.5V-168c0 4.7-3.8 8.5-8.5 8.5h-161.5c-4.7 0-8.5-3.8-8.5-8.5v-232.4c0-4.7 3.8-8.5 8.5-8.5z" transform="matrix(-.99554 0 0 -.9968 1848.474 -158.588)"/>
    <path d="M130.475 222.988c7.367-10.467 15.231-16.547 15.331-24.721 0-2.691-1.394-7.177-5.874-7.975-2.887-.598-6.869 1.795-6.968 6.58 0 .996-.996.896-.996-.4.1-3.787 1.294-8.173 3.385-11.762h-9.657c1.991 3.589 3.186 7.975 3.385 11.763 0 1.295-.996 1.295-.996.398-.1-4.784-4.081-7.177-6.968-6.579-4.48.898-5.874 5.383-5.874 7.975.1 8.174 7.964 14.254 15.232 24.72M164.423 209.232c3.384-4.386 7.068-6.878 7.167-10.267 0-1.097-.696-2.99-2.787-3.39-1.394-.199-3.186.798-3.285 2.792 0 .398-.498.398-.498-.2.1-1.595.597-3.389 1.593-4.884h-4.48c.896 1.495 1.493 3.29 1.593 4.884 0 .499-.498.598-.498.2 0-1.994-1.892-2.99-3.285-2.791-2.091.398-2.788 2.192-2.788 3.389.2 3.389 3.883 5.88 7.268 10.267M14.096 40.274c3.385 4.386 7.069 6.878 7.168 10.267 0 1.096-.697 2.99-2.787 3.39-1.394.198-3.186-.798-3.286-2.792 0-.399-.497-.399-.497.2.1 1.594.597 3.388 1.593 4.884h-4.48c.896-1.496 1.493-3.29 1.592-4.885 0-.498-.497-.598-.497-.199 0 1.994-1.892 2.99-3.286 2.791-2.09-.399-2.787-2.193-2.787-3.39.199-3.388 3.883-5.88 7.267-10.266M48.044 222.988c7.367-10.467 15.232-16.547 15.331-24.721 0-2.691-1.393-7.177-5.873-7.975-2.887-.598-6.87 1.795-6.969 6.58 0 .996-.996.896-.996-.4.1-3.787 1.295-8.173 3.385-11.762h-9.656c1.99 3.589 3.185 7.975 3.384 11.763 0 1.295-.995 1.295-.995.398-.1-4.784-4.082-7.177-6.969-6.579-4.48.898-5.874 5.383-5.874 7.975 0 8.174 7.865 14.254 15.232 24.72M130.475 26.518c7.367 10.466 15.231 16.547 15.331 24.72 0 2.692-1.394 7.178-5.874 7.975-2.887.598-6.869-1.794-6.968-6.579 0-.997-.996-.897-.996.399.1 3.788 1.294 8.174 3.385 11.762h-9.657c1.991-3.588 3.186-7.974 3.385-11.762 0-1.296-.996-1.296-.996-.399-.1 4.785-4.081 7.177-6.968 6.58-4.48-.898-5.874-5.384-5.874-7.975.1-8.274 7.964-14.255 15.232-24.721M48.044 26.518c7.367 10.466 15.232 16.547 15.331 24.72 0 2.692-1.393 7.178-5.873 7.975-2.887.598-6.87-1.794-6.969-6.579 0-.997-.996-.897-.996.399.1 3.788 1.295 8.174 3.385 11.762h-9.656c1.99-3.588 3.185-7.974 3.384-11.762 0-1.296-.995-1.296-.995-.399-.1 4.785-4.082 7.177-6.969 6.58-4.48-.898-5.874-5.384-5.874-7.975 0-8.274 7.865-14.255 15.232-24.721M89.26 143.842c7.366-10.467 15.231-16.547 15.33-24.721 0-2.691-1.393-7.177-5.873-7.975-2.887-.598-6.87 1.795-6.969 6.58 0 .996-.995.896-.995-.4.1-3.787 1.294-8.173 3.385-11.762H84.48c1.99 3.589 3.186 7.975 3.385 11.763 0 1.295-.996 1.295-.996.398-.1-4.784-4.082-7.177-6.969-6.579-4.48.898-5.873 5.383-5.873 7.975.1 8.174 7.964 14.254 15.231 24.72M172.785 218.502h-2.588c-.498-1.595-1.593-3.19-3.087-3.688-4.18-.997-6.869 1.395-7.765 4.087-1.095 3.29 0 7.974 2.887 9.669 2.39 1.395 5.874.199 7.566-2.692l1.792 1.097-.995 10.965h-11.747v-2.592h9.557l.199-4.585c-2.09 1.495-5.177 1.495-7.268.398-3.882-1.894-5.674-6.18-4.977-11.264 1.095-5.083 3.385-7.874 8.561-8.273 5.774 0 7.865 4.087 7.865 6.878M5.833 30.904h2.589c.498 1.595 1.593 3.19 3.086 3.688 4.181.997 6.87-1.395 7.765-4.087 1.095-3.29 0-7.974-2.887-9.669-2.39-1.395-5.874-.2-7.566 2.692L7.028 22.43l.996-10.965H19.67v2.592h-9.557l-.199 4.585c2.09-1.495 5.177-1.495 7.267-.398 3.883 1.893 5.675 6.18 4.978 11.263-1.095 5.084-3.385 7.875-8.561 8.274-5.775 0-7.766-4.087-7.766-6.878"/>
</svg>
