<svg xmlns="http://www.w3.org/2000/svg" xml:space="preserve" width="178.6" height="249.4" viewBox="0 0 178.6 249.4">
    <path fill="#fbfbf6" stroke="#7f7f7f" stroke-width=".4" d="M1792.6-30.5h161.5c4.7 0 8.5 3.8 8.5 8.5v232.4c0 4.7-3.8 8.5-8.5 8.5h-161.5c-4.7 0-8.5-3.8-8.5-8.5V-22c0-4.7 3.8-8.5 8.5-8.5z" transform="matrix(.99553 0 0 .9968 -1775.696 30.846)"/>
    <path fill="#d40000" d="M14.076 56.165c-1.692-2.89-3.484-5.582-5.774-7.974 2.29-2.393 4.082-5.084 5.774-7.975 1.693 2.891 3.485 5.582 5.774 7.975-2.19 2.392-3.982 5.183-5.774 7.974M130.554 64.738c-4.082-6.878-8.462-13.457-13.938-19.139 5.476-5.682 9.757-12.26 13.938-19.139 4.082 6.878 8.462 13.457 13.937 19.139-5.475 5.682-9.855 12.36-13.937 19.139M164.502 209.174c-1.693-2.89-3.485-5.582-5.774-7.974 2.29-2.392 4.081-5.084 5.774-7.974 1.692 2.89 3.484 5.582 5.774 7.974-2.29 2.392-4.082 5.183-5.774 7.974M48.024 64.738c-4.082-6.878-8.462-13.457-13.937-19.139 5.475-5.682 9.756-12.26 13.937-19.139 4.082 6.878 8.462 13.457 13.938 19.139-5.376 5.682-9.757 12.36-13.938 19.139M48.024 143.884c-4.082-6.878-8.462-13.457-13.937-19.139 5.475-5.682 9.756-12.26 13.937-19.138 4.082 6.877 8.462 13.456 13.938 19.138-5.376 5.582-9.757 12.26-13.938 19.139M130.554 143.884c-4.082-6.878-8.462-13.457-13.938-19.139 5.476-5.682 9.757-12.26 13.938-19.138 4.082 6.877 8.462 13.456 13.937 19.138-5.475 5.682-9.855 12.26-13.937 19.139M48.024 223.03c-4.082-6.878-8.462-13.457-13.937-19.139 5.475-5.681 9.756-12.26 13.937-19.138 4.082 6.878 8.462 13.457 13.938 19.138-5.376 5.582-9.757 12.261-13.938 19.139M130.554 223.03c-4.082-6.878-8.462-13.457-13.938-19.139 5.476-5.681 9.757-12.26 13.938-19.138 4.082 6.878 8.462 13.457 13.937 19.138-5.475 5.582-9.855 12.261-13.937 19.139M6.41 29.65c-.298-2.193-.298-7.974-.099-9.669.797-5.183 2.788-7.576 6.073-8.373 3.186-.797 7.765.1 8.76 4.386l-2.687.1c-1.494-2.891-5.177-2.193-7.168-.898-1.693.997-2.39 5.284-2.09 5.483 0 0 3.085-2.293 5.574-2.193 5.277.598 7.467 5.084 7.268 9.47-.2 5.183-1.792 9.37-7.367 9.669-5.376-.1-7.765-2.99-8.263-7.975m13.142-1.395c0-3.589-1.593-6.28-4.68-6.58-3.085-.298-6.172 2.692-5.972 6.38s1.692 6.779 5.375 6.779c3.983 0 5.177-3.988 5.277-6.58M172.167 219.84c.299 2.193.299 7.975.1 9.67-.797 5.183-2.788 7.575-6.073 8.372-3.186.798-7.765-.1-8.76-4.386l2.687-.1c1.494 2.891 5.177 2.194 7.168.898 1.693-.997 2.39-5.283 2.09-5.483 0 0-3.085 2.293-5.574 2.193-5.277-.598-7.467-5.083-7.268-9.47.2-5.183 1.792-9.37 7.367-9.668 5.376 0 7.766 2.99 8.263 7.974m-13.041 1.296c0 3.589 1.593 6.28 4.679 6.579s6.172-2.691 5.973-6.38c-.2-3.688-1.692-6.778-5.376-6.778-4.082 0-5.276 4.087-5.276 6.58"/>
</svg>
