<svg xmlns="http://www.w3.org/2000/svg" xml:space="preserve" width="178.6" height="249.4" viewBox="0 0 178.6 249.4">
    <path fill="#fbfbf6" stroke="#7f7f7f" stroke-width=".4" d="M268.9 370.2h161.5c4.7 0 8.5 3.8 8.5 8.5v232.4c0 4.7-3.8 8.5-8.5 8.5H268.9c-4.7 0-8.5-3.8-8.5-8.5V378.7c-.1-4.7 3.8-8.5 8.5-8.5z" transform="matrix(.99554 0 0 .9968 -258.773 -368.593)"/>
    <path fill="#d40000" d="M14.12 56.22s-1.792-2.592-4.18-5.582c-1.594-1.994-2.888-4.187-2.988-6.08-.1-2.094 1.195-4.287 3.485-4.387s3.285 1.595 3.683 3.09c.399-1.395 1.295-3.19 3.684-3.09 2.29.1 3.584 2.293 3.484 4.386-.1 1.894-1.394 3.988-2.986 6.08-2.39 2.991-4.182 5.583-4.182 5.583M164.447 193.28s-1.792 2.592-4.182 5.582c-1.593 1.994-2.887 4.187-2.986 6.08-.1 2.094 1.194 4.287 3.484 4.387s3.285-1.595 3.684-3.09c.398 1.395 1.294 3.19 3.683 3.09 2.29-.1 3.584-2.293 3.484-4.386-.1-1.894-1.393-3.988-2.986-6.08-2.39-3.09-4.181-5.583-4.181-5.583M48.068 64.792s-3.683-6.08-8.76-13.257c-3.385-4.785-6.073-9.968-6.272-14.454-.3-5.083 2.389-10.267 7.367-10.466 4.878-.2 6.869 3.987 7.665 7.376.797-3.489 2.788-7.675 7.666-7.376 4.878.2 7.566 5.383 7.367 10.466-.299 4.486-2.887 9.67-6.272 14.454-5.077 7.077-8.76 13.257-8.76 13.257M130.499 143.839s-3.684-6.08-8.761-13.258c-3.385-4.784-6.073-9.968-6.272-14.453-.299-5.084 2.39-10.267 7.367-10.467 4.878-.2 6.87 3.987 7.666 7.377.796-3.49 2.787-7.676 7.665-7.377 4.878.2 7.566 5.383 7.367 10.467-.298 4.485-2.887 9.669-6.272 14.453-4.977 7.177-8.76 13.258-8.76 13.258M130.499 64.792s-3.684-6.08-8.761-13.257c-3.385-4.785-6.073-9.968-6.272-14.454-.299-5.083 2.39-10.267 7.367-10.466 4.878-.2 6.87 3.987 7.666 7.376.796-3.489 2.787-7.675 7.665-7.376 4.878.2 7.566 5.383 7.367 10.466-.298 4.486-2.887 9.67-6.272 14.454-4.977 7.077-8.76 13.257-8.76 13.257M48.068 143.839s-3.683-6.08-8.76-13.258c-3.385-4.784-6.073-9.968-6.272-14.453-.3-5.084 2.389-10.267 7.367-10.467 4.878-.2 6.869 3.987 7.665 7.377.797-3.49 2.788-7.676 7.666-7.377 4.878.2 7.566 5.383 7.367 10.467-.299 4.485-2.887 9.669-6.272 14.453-5.077 7.177-8.76 13.258-8.76 13.258M130.499 184.708s-3.684 6.08-8.761 13.257c-3.385 4.785-6.073 9.968-6.272 14.454-.299 5.083 2.39 10.267 7.367 10.466 4.878.2 6.87-3.987 7.666-7.376.796 3.489 2.787 7.675 7.665 7.376 4.878-.2 7.566-5.383 7.367-10.466-.298-4.486-2.887-9.67-6.272-14.454-4.977-7.177-8.76-13.257-8.76-13.257M48.068 184.708s-3.683 6.08-8.76 13.257c-3.385 4.785-6.073 9.968-6.272 14.454-.3 5.083 2.389 10.267 7.367 10.466 4.878.2 6.869-3.987 7.665-7.376.797 3.489 2.788 7.675 7.666 7.376 4.878-.2 7.566-5.383 7.367-10.466-.299-4.486-2.887-9.67-6.272-14.454-5.077-7.177-8.76-13.257-8.76-13.257M6.355 29.605c-.299-2.193-.299-7.974-.1-9.669.797-5.183 2.788-7.575 6.073-8.373 3.186-.797 7.766.1 8.761 4.386l-2.688.1c-1.493-2.89-5.177-2.193-7.168-.897-1.692.996-2.389 5.283-2.09 5.482 0 0 3.086-2.293 5.575-2.193 5.276.598 7.466 5.084 7.267 9.47-.199 5.183-1.792 9.37-7.367 9.669-5.276 0-7.666-2.891-8.263-7.975m13.141-1.296c0-3.588-1.593-6.28-4.679-6.578-3.086-.3-6.172 2.69-5.973 6.38.2 3.687 1.692 6.777 5.376 6.777 3.982 0 5.276-4.087 5.276-6.579M172.212 219.795c.298 2.193.298 7.974.1 9.669-.797 5.183-2.788 7.576-6.073 8.373-3.186.798-7.766-.1-8.761-4.386l2.688-.1c1.493 2.891 5.177 2.193 7.168.898 1.692-.997 2.389-5.283 2.09-5.483 0 0-3.086 2.293-5.575 2.193-5.276-.598-7.466-5.084-7.267-9.47.199-5.183 1.792-9.37 7.367-9.668 5.276.1 7.765 2.99 8.263 7.974m-13.141 1.396c0 3.588 1.593 6.28 4.679 6.578 3.086.3 6.172-2.69 5.973-6.38-.2-3.687-1.693-6.777-5.376-6.777-3.982 0-5.276 3.987-5.276 6.579"/>
</svg>
