<svg xmlns="http://www.w3.org/2000/svg" xml:space="preserve" width="178.6" height="249.4" viewBox="0 0 178.6 249.4">
    <path fill="#fbfbf6" stroke="#7f7f7f" stroke-width=".4" d="M1966.6-471.5h161.5c4.7 0 8.5 3.8 8.5 8.5v232.4c0 4.7-3.8 8.5-8.5 8.5h-161.5c-4.7 0-8.5-3.8-8.5-8.5V-463c-.1-4.7 3.8-8.5 8.5-8.5z" transform="matrix(.99554 0 0 .9968 -1948.9 470.399)"/>
    <path d="M48.048 26.424C40.681 36.89 32.817 42.97 32.717 51.144c0 2.692 1.394 7.177 5.874 7.975 2.887.598 6.869-1.794 6.968-6.58 0-.996.996-.896.996.4-.1 3.787-1.294 8.173-3.385 11.762h9.657c-1.991-3.589-3.186-7.975-3.385-11.762 0-1.296.996-1.296.996-.4.1 4.786 4.081 7.178 6.968 6.58 4.48-.897 5.874-5.383 5.874-7.975 0-8.173-7.865-14.154-15.232-24.72M14.1 40.28c-3.384 4.385-7.068 6.877-7.167 10.266 0 1.097.696 2.99 2.787 3.39 1.394.199 3.186-.798 3.285-2.792 0-.398.498-.398.498.2-.1 1.595-.597 3.389-1.593 4.884h4.48c-.896-1.495-1.493-3.29-1.593-4.884 0-.499.498-.598.498-.2 0 1.994 1.892 2.99 3.285 2.791 2.091-.398 2.788-2.193 2.788-3.389-.2-3.389-3.783-5.88-7.268-10.267M164.427 209.237c-3.385-4.386-7.069-6.878-7.168-10.267 0-1.096.697-2.99 2.787-3.39 1.394-.198 3.186.798 3.286 2.792 0 .399.497.399.497-.2-.1-1.594-.597-3.389-1.592-4.884h4.48c-.897 1.495-1.494 3.29-1.593 4.885 0 .498.497.598.497.199 0-1.994 1.892-2.99 3.286-2.791 2.09.399 2.787 2.193 2.787 3.389-.1 3.39-3.783 5.881-7.267 10.267M130.479 26.424c-7.367 10.466-15.232 16.547-15.331 24.72 0 2.692 1.393 7.177 5.873 7.975 2.887.598 6.87-1.794 6.969-6.58 0-.996.996-.896.996.4-.1 3.787-1.295 8.173-3.385 11.762h9.656c-1.99-3.589-3.185-7.975-3.384-11.762 0-1.296.995-1.296.995-.4.1 4.786 4.082 7.178 6.969 6.58 4.48-.897 5.874-5.383 5.874-7.975 0-8.173-7.865-14.154-15.232-24.72M48.048 105.57c-7.367 10.466-15.231 16.547-15.331 24.72 0 2.692 1.394 7.177 5.874 7.975 2.887.598 6.869-1.794 6.968-6.58 0-.996.996-.896.996.4-.1 3.787-1.294 8.173-3.385 11.762h9.657c-1.991-3.589-3.186-7.975-3.385-11.762 0-1.296.996-1.296.996-.4.1 4.786 4.081 7.178 6.968 6.58 4.48-.897 5.874-5.383 5.874-7.975 0-8.173-7.865-14.254-15.232-24.72M48.048 222.993c-7.367-10.466-15.231-16.547-15.331-24.72 0-2.692 1.394-7.178 5.874-7.975 2.887-.598 6.869 1.794 6.968 6.579 0 .997.996.897.996-.399-.1-3.788-1.294-8.174-3.385-11.762h9.657c-1.991 3.588-3.186 7.974-3.385 11.762 0 1.296.996 1.296.996.399.1-4.785 4.081-7.177 6.968-6.58 4.48.898 5.874 5.384 5.874 7.975 0 8.174-7.865 14.255-15.232 24.72M130.479 222.993c-7.367-10.466-15.232-16.547-15.331-24.72 0-2.692 1.393-7.178 5.873-7.975 2.887-.598 6.87 1.794 6.969 6.579 0 .997.996.897.996-.399-.1-3.788-1.295-8.174-3.385-11.762h9.656c-1.99 3.588-3.185 7.974-3.384 11.762 0 1.296.995 1.296.995.399.1-4.785 4.082-7.177 6.969-6.58 4.48.898 5.874 5.384 5.874 7.975 0 8.174-7.865 14.255-15.232 24.72M130.479 105.57c-7.367 10.466-15.232 16.547-15.331 24.72 0 2.692 1.393 7.177 5.873 7.975 2.887.598 6.87-1.794 6.969-6.58 0-.996.996-.896.996.4-.1 3.787-1.295 8.173-3.385 11.762h9.656c-1.99-3.589-3.185-7.975-3.384-11.762 0-1.296.995-1.296.995-.4.1 4.786 4.082 7.178 6.969 6.58 4.48-.897 5.874-5.383 5.874-7.975 0-8.173-7.865-14.254-15.232-24.72M6.435 29.613c-.299-2.193-.299-7.974-.1-9.669.797-5.183 2.788-7.575 6.073-8.373 3.186-.797 7.765.1 8.76 4.386l-2.687.1c-1.493-2.89-5.177-2.193-7.168-.897-1.692.997-2.39 5.283-2.09 5.482 0 0 3.086-2.292 5.574-2.193 5.277.598 7.467 5.084 7.268 9.47-.2 5.183-1.792 9.37-7.367 9.669-5.376 0-7.765-2.99-8.263-7.975m13.041-1.295c0-3.589-1.592-6.28-4.679-6.58-3.086-.298-6.172 2.692-5.973 6.38.2 3.688 1.693 6.779 5.376 6.779 3.982-.1 5.276-4.087 5.276-6.58M172.192 219.803c.299 2.193.299 7.975.1 9.67-.797 5.182-2.788 7.575-6.073 8.372-3.186.798-7.766-.1-8.761-4.386l2.688-.1c1.493 2.891 5.177 2.194 7.168.898 1.692-.997 2.389-5.283 2.09-5.483 0 0-3.086 2.293-5.575 2.193-5.276-.598-7.466-5.083-7.267-9.47.199-5.183 1.792-9.37 7.367-9.668 5.276.1 7.765 2.99 8.263 7.974M159.05 221.2c0 3.588 1.593 6.28 4.679 6.579s6.172-2.692 5.973-6.38c-.2-3.688-1.692-6.778-5.376-6.778-3.982 0-5.276 3.987-5.276 6.579"/>
</svg>
