<svg xmlns="http://www.w3.org/2000/svg" xml:space="preserve" width="178.6" height="249.4" viewBox="0 0 178.6 249.4">
    <path fill="#fbfbf6" stroke="#7f7f7f" stroke-width=".4" d="M2056.8-30.5h161.5c4.7 0 8.5 3.8 8.5 8.5v232.4c0 4.7-3.8 8.5-8.5 8.5h-161.5c-4.7 0-8.5-3.8-8.5-8.5V-22c0-4.7 3.8-8.5 8.5-8.5z" transform="matrix(.99553 0 0 .9968 -2038.741 30.846)"/>
    <path fill="#d40000" d="M14.151 56.165c-1.692-2.89-3.484-5.582-5.774-7.974 2.29-2.393 4.082-5.084 5.774-7.975 1.692 2.891 3.484 5.582 5.774 7.975-2.29 2.392-4.082 5.183-5.774 7.974M130.53 64.738c-4.083-6.878-8.463-13.457-13.938-19.139 5.475-5.682 9.756-12.26 13.937-19.139 4.082 6.878 8.462 13.457 13.938 19.139-5.476 5.682-9.856 12.36-13.938 19.139M164.477 209.174c-1.693-2.89-3.485-5.582-5.774-7.974 2.29-2.392 4.081-5.084 5.774-7.974 1.692 2.89 3.484 5.582 5.774 7.974-2.29 2.392-4.082 5.183-5.774 7.974M48.099 64.738C44.017 57.86 39.637 51.28 34.16 45.599c5.476-5.682 9.757-12.26 13.938-19.139C52.18 33.338 56.56 39.917 62.036 45.6c-5.475 5.682-9.855 12.36-13.937 19.139M89.314 104.31c-4.082-6.877-8.462-13.456-13.938-19.138 5.476-5.682 9.757-12.26 13.938-19.139 4.082 6.878 8.462 13.457 13.937 19.14-5.475 5.68-9.855 12.26-13.937 19.138M48.099 143.884c-4.082-6.878-8.462-13.457-13.938-19.139 5.476-5.682 9.757-12.26 13.938-19.138 4.082 6.877 8.462 13.456 13.937 19.138-5.475 5.582-9.855 12.26-13.937 19.139M130.53 143.884c-4.083-6.878-8.463-13.457-13.938-19.139 5.475-5.682 9.756-12.26 13.937-19.138 4.082 6.877 8.462 13.456 13.938 19.138-5.476 5.682-9.856 12.26-13.938 19.139M48.099 223.03c-4.082-6.878-8.462-13.457-13.938-19.139 5.476-5.681 9.757-12.26 13.938-19.138 4.082 6.878 8.462 13.457 13.937 19.138-5.475 5.582-9.855 12.261-13.937 19.139M130.53 223.03c-4.083-6.878-8.463-13.457-13.938-19.139 5.475-5.681 9.756-12.26 13.937-19.138 4.082 6.878 8.462 13.457 13.938 19.138-5.476 5.582-9.856 12.261-13.938 19.139M10.07 37.724c1.692-9.17 3.583-16.048 8.362-23.425H8.576v3.19H5.988v-6.08h14.335l1.792 2.79c-5.176 5.583-9.855 23.725-8.96 23.426H10.07zM168.559 211.666c-1.693 9.171-3.584 16.049-8.363 23.425h9.856v-3.19h2.588v6.081h-14.335l-1.792-2.791c5.176-5.582 9.855-23.724 8.96-23.425h3.086z"/>
</svg>
