<svg xmlns="http://www.w3.org/2000/svg" xml:space="preserve" width="178.6" height="249.4" viewBox="0 0 178.6 249.4">
    <path fill="#fbfbf6" stroke="#7f7f7f" stroke-width=".4" d="M2162.9-1064.1h161.5c4.7 0 8.5 3.8 8.5 8.5v232.4c0 4.7-3.8 8.5-8.5 8.5h-161.5c-4.7 0-8.5-3.8-8.5-8.5v-232.4c0-4.7 3.8-8.5 8.5-8.5z" transform="matrix(.99554 0 0 .9968 -2144.35 1061.095)"/>
    <path fill="#d40000" d="M14.074 56.22s-1.791-2.592-4.18-5.582c-1.594-1.994-2.888-4.187-2.987-6.08-.1-2.094 1.194-4.287 3.484-4.387s3.285 1.595 3.683 3.09c.399-1.395 1.295-3.19 3.684-3.09 2.29.1 3.584 2.293 3.484 4.386-.1 1.894-1.393 3.988-2.986 6.08-2.39 2.991-4.182 5.583-4.182 5.583M164.5 193.28s-1.792 2.592-4.181 5.582c-1.593 1.994-2.887 4.187-2.987 6.08-.1 2.094 1.195 4.287 3.485 4.387s3.285-1.595 3.683-3.09c.398 1.395 1.294 3.19 3.684 3.09 2.29-.1 3.584-2.293 3.484-4.386-.1-1.894-1.394-3.988-2.987-6.08-2.389-3.09-4.18-5.583-4.18-5.583M89.337 104.266s-3.683-6.08-8.76-13.258c-3.385-4.784-6.073-9.968-6.272-14.453-.3-5.084 2.389-10.267 7.366-10.467 4.879-.2 6.87 3.987 7.666 7.377.797-3.49 2.788-7.676 7.666-7.377 4.878.2 7.566 5.383 7.367 10.467-.299 4.485-2.887 9.669-6.272 14.453-5.077 7.177-8.76 13.258-8.76 13.258M48.022 64.792s-3.683-6.08-8.76-13.257c-3.385-4.785-6.073-9.968-6.272-14.454-.299-5.083 2.389-10.267 7.367-10.466 4.878-.2 6.869 3.987 7.665 7.376.797-3.489 2.788-7.675 7.666-7.376 4.878.2 7.566 5.383 7.367 10.466-.299 4.486-2.887 9.67-6.272 14.454-4.978 7.077-8.76 13.257-8.76 13.257M130.552 143.839s-3.683-6.08-8.76-13.258c-3.385-4.784-6.073-9.968-6.272-14.453-.299-5.084 2.39-10.267 7.367-10.467 4.878-.2 6.869 3.987 7.665 7.377.797-3.49 2.788-7.676 7.666-7.377 4.878.2 7.566 5.383 7.367 10.467-.299 4.485-2.887 9.669-6.272 14.453-5.077 7.177-8.76 13.258-8.76 13.258M130.552 64.792s-3.683-6.08-8.76-13.257c-3.385-4.785-6.073-9.968-6.272-14.454-.299-5.083 2.39-10.267 7.367-10.466 4.878-.2 6.869 3.987 7.665 7.376.797-3.489 2.788-7.675 7.666-7.376 4.878.2 7.566 5.383 7.367 10.466-.299 4.486-2.887 9.67-6.272 14.454-5.077 7.077-8.76 13.257-8.76 13.257M48.022 143.839s-3.683-6.08-8.76-13.258c-3.385-4.784-6.073-9.968-6.272-14.453-.299-5.084 2.389-10.267 7.367-10.467 4.878-.2 6.869 3.987 7.665 7.377.797-3.49 2.788-7.676 7.666-7.377 4.878.2 7.566 5.383 7.367 10.467-.299 4.485-2.887 9.669-6.272 14.453-4.978 7.177-8.76 13.258-8.76 13.258M130.552 184.708s-3.683 6.08-8.76 13.257c-3.385 4.785-6.073 9.968-6.272 14.454-.299 5.083 2.39 10.267 7.367 10.466 4.878.2 6.869-3.987 7.665-7.376.797 3.489 2.788 7.675 7.666 7.376 4.878-.2 7.566-5.383 7.367-10.466-.299-4.486-2.887-9.67-6.272-14.454-5.077-7.177-8.76-13.257-8.76-13.257M48.022 184.708s-3.683 6.08-8.76 13.257c-3.385 4.785-6.073 9.968-6.272 14.454-.299 5.083 2.389 10.267 7.367 10.466 4.878.2 6.869-3.987 7.665-7.376.797 3.489 2.788 7.675 7.666 7.376 4.878-.2 7.566-5.383 7.367-10.466-.299-4.486-2.887-9.67-6.272-14.454-4.978-7.177-8.76-13.257-8.76-13.257M10.092 37.78c1.693-9.172 3.584-16.05 8.363-23.426H8.599v3.19H6.011v-6.08h14.335l1.792 2.79c-5.176 5.583-9.855 23.724-8.96 23.425h-3.086zM168.482 211.72c-1.692 9.171-3.584 16.05-8.362 23.426h9.856v-3.19h2.588v6.08h-14.336l-1.792-2.79c5.177-5.583 9.856-23.724 8.96-23.425z"/>
</svg>
