<svg xmlns="http://www.w3.org/2000/svg" xml:space="preserve" width="178.6" height="249.4" viewBox="0 0 178.6 249.4">
    <path fill="#fbfbf6" stroke="#7f7f7f" stroke-width=".4" d="M2291.7-471.5h161.5c4.7 0 8.5 3.8 8.5 8.5v232.4c0 4.7-3.8 8.5-8.5 8.5h-161.5c-4.7 0-8.5-3.8-8.5-8.5V-463c-.1-4.7 3.8-8.5 8.5-8.5z" transform="matrix(.99554 0 0 .9968 -2272.556 470.399)"/>
    <path d="M48.043 26.424C40.676 36.89 32.81 42.97 32.71 51.144c0 2.692 1.394 7.177 5.874 7.975 2.887.598 6.87-1.794 6.969-6.58 0-.996.995-.896.995.4-.1 3.787-1.294 8.173-3.384 11.762h9.656c-1.99-3.589-3.185-7.975-3.384-11.762 0-1.296.995-1.296.995-.4.1 4.786 4.082 7.178 6.969 6.58 4.48-.897 5.873-5.383 5.873-7.975 0-8.173-7.864-14.154-15.231-24.72M14.095 40.28c-3.385 4.385-7.068 6.877-7.168 10.266 0 1.097.697 2.99 2.788 3.39 1.393.199 3.185-.798 3.285-2.792 0-.398.498-.398.498.2-.1 1.595-.598 3.389-1.593 4.884h4.48c-.896-1.495-1.494-3.29-1.593-4.884 0-.499.498-.598.498-.2 0 1.994 1.891 2.99 3.285 2.791 2.09-.398 2.787-2.193 2.787-3.389-.1-3.389-3.783-5.88-7.267-10.267M164.52 209.237c-3.384-4.386-7.068-6.878-7.167-10.267 0-1.096.697-2.99 2.787-3.39 1.394-.198 3.186.798 3.286 2.792 0 .399.497.399.497-.2-.1-1.594-.597-3.389-1.593-4.884h4.48c-.896 1.495-1.493 3.29-1.592 4.885 0 .498.497.598.497.199 0-1.994 1.892-2.99 3.286-2.791 2.09.399 2.787 2.193 2.787 3.389-.199 3.39-3.883 5.881-7.267 10.267M130.473 26.424c-7.367 10.466-15.231 16.547-15.331 24.72 0 2.692 1.394 7.177 5.874 7.975 2.887.598 6.869-1.794 6.968-6.58 0-.996.996-.896.996.4-.1 3.787-1.294 8.173-3.385 11.762h9.657c-1.991-3.589-3.186-7.975-3.385-11.762 0-1.296.996-1.296.996-.4.1 4.786 4.081 7.178 6.968 6.58 4.48-.897 5.874-5.383 5.874-7.975 0-8.173-7.865-14.154-15.232-24.72M89.258 65.997c-7.367 10.466-15.232 16.547-15.331 24.72 0 2.692 1.393 7.177 5.873 7.975 2.887.598 6.87-1.794 6.97-6.58 0-.996.995-.896.995.4-.1 3.787-1.294 8.173-3.385 11.762h9.657c-1.991-3.589-3.186-7.975-3.385-11.762 0-1.296.995-1.296.995-.4.1 4.786 4.082 7.178 6.97 6.58 4.479-.897 5.873-5.383 5.873-7.975 0-8.173-7.865-14.154-15.232-24.72M48.043 105.57c-7.367 10.466-15.232 16.547-15.332 24.72 0 2.692 1.394 7.177 5.874 7.975 2.887.598 6.87-1.794 6.969-6.58 0-.996.995-.896.995.4-.1 3.787-1.294 8.173-3.384 11.762h9.656c-1.99-3.589-3.185-7.975-3.384-11.762 0-1.296.995-1.296.995-.4.1 4.786 4.082 7.178 6.969 6.58 4.48-.897 5.873-5.383 5.873-7.975 0-8.173-7.864-14.254-15.231-24.72M48.043 222.993c-7.367-10.466-15.232-16.547-15.332-24.72 0-2.692 1.394-7.178 5.874-7.975 2.887-.598 6.87 1.794 6.969 6.579 0 .997.995.897.995-.399-.1-3.788-1.294-8.174-3.384-11.762h9.656c-1.99 3.588-3.185 7.974-3.384 11.762 0 1.296.995 1.296.995.399.1-4.785 4.082-7.177 6.969-6.58 4.48.898 5.873 5.384 5.873 7.975 0 8.174-7.864 14.255-15.231 24.72M130.473 222.993c-7.367-10.466-15.231-16.547-15.331-24.72 0-2.692 1.394-7.178 5.874-7.975 2.887-.598 6.869 1.794 6.968 6.579 0 .997.996.897.996-.399-.1-3.788-1.294-8.174-3.385-11.762h9.657c-1.991 3.588-3.186 7.974-3.385 11.762 0 1.296.996 1.296.996.399.1-4.785 4.081-7.177 6.968-6.58 4.48.898 5.874 5.384 5.874 7.975 0 8.174-7.865 14.255-15.232 24.72M130.473 105.57c-7.367 10.466-15.231 16.547-15.331 24.72 0 2.692 1.394 7.177 5.874 7.975 2.887.598 6.869-1.794 6.968-6.58 0-.996.996-.896.996.4-.1 3.787-1.294 8.173-3.385 11.762h9.657c-1.991-3.589-3.186-7.975-3.385-11.762 0-1.296.996-1.296.996-.4.1 4.786 4.081 7.178 6.968 6.58 4.48-.897 5.874-5.383 5.874-7.975 0-8.173-7.865-14.254-15.232-24.72M10.113 37.787c1.692-9.17 3.584-16.048 8.362-23.425H8.62v3.19H6.031v-6.08h14.336l1.792 2.79c-5.177 5.583-9.856 23.725-8.96 23.426h-3.086zM168.503 211.73c-1.693 9.17-3.584 16.048-8.363 23.424h9.856v-3.19h2.589v6.08h-14.336l-1.792-2.79c5.177-5.583 9.856-23.724 8.96-23.425h3.086z"/>
</svg>
