<svg xmlns="http://www.w3.org/2000/svg" xml:space="preserve" width="178.6" height="249.4" viewBox="0 0 178.6 249.4">
    <path fill="#fbfbf6" stroke="#7f7f7f" stroke-width=".4" d="M2321.5-1088.5h160.8c4.7 0 8.5 3.8 8.5 8.5v231.6c0 4.7-3.8 8.5-8.5 8.5h-160.8c-4.7 0-8.5-3.8-8.5-8.5V-1080c0-4.7 3.8-8.5 8.5-8.5z" transform="translate(-2312.604 1088.87)"/>
    <path d="M130.49 26.768c-7.8.2-11.3 9-5.5 15.8.8 1 .9 1.6-.6.6-3.9-2.6-11.4-.9-11.8 7.1-.5 9.8 13.3 12.7 15.8 2.2.1-1.1 1-1.1.8.5-.2 4.2-1.6 8.2-3.4 12.1h9.3c-1.8-3.9-3.1-7.8-3.4-12.1-.2-1.6.7-1.6.8-.5 2.6 10.4 16.3 7.6 15.8-2.2-.4-8-7.9-9.7-11.8-7.1-1.5 1-1.5.4-.6-.6 6-6.8 2.4-15.6-5.4-15.8M48.09 26.768c-7.8.2-11.3 9-5.5 15.8.8 1 .9 1.6-.6.6-3.9-2.6-11.4-.9-11.8 7.1-.5 9.8 13.2 12.7 15.8 2.2.1-1.1 1-1.1.8.5-.2 4.2-1.6 8.2-3.4 12.1h9.3c-1.8-3.9-3.1-7.8-3.4-12.1-.2-1.6.7-1.6.8-.5 2.6 10.4 16.3 7.6 15.8-2.2-.4-8-7.9-9.7-11.8-7.1-1.5 1-1.5.4-.6-.6 5.9-6.8 2.4-15.6-5.4-15.8M130.49 223.268c-7.8-.2-11.3-9-5.5-15.8.8-1 .9-1.6-.6-.6-3.9 2.6-11.4.9-11.8-7.1-.5-9.8 13.3-12.7 15.8-2.2.1 1.1 1 1.1.8-.5-.2-4.2-1.6-8.2-3.4-12.1h9.3c-1.8 3.9-3.1 7.8-3.4 12.1-.2 1.6.7 1.6.8.5 2.6-10.4 16.3-7.6 15.8 2.2-.4 8-7.9 9.7-11.8 7.1-1.5-1-1.5-.4-.6.6 6 6.9 2.4 15.7-5.4 15.8M48.09 223.268c-7.8-.2-11.3-9-5.5-15.8.8-1 .9-1.6-.6-.6-3.9 2.6-11.4.9-11.8-7.1-.5-9.8 13.2-12.7 15.8-2.2.1 1.1 1 1.1.8-.5-.2-4.2-1.6-8.2-3.4-12.1h9.3c-1.8 3.9-3.1 7.8-3.4 12.1-.2 1.6.7 1.6.8.5 2.6-10.4 16.3-7.6 15.8 2.2-.4 8-7.9 9.7-11.8 7.1-1.5-1-1.5-.4-.6.6 5.9 6.9 2.4 15.7-5.4 15.8M89.29 66.368c-7.8.2-11.3 9-5.5 15.8.8 1 .9 1.6-.6.6-3.9-2.6-11.4-.9-11.8 7.1-.5 9.8 13.2 12.7 15.8 2.2.1-1.1 1-1.1.8.5-.2 4.2-1.6 8.2-3.4 12.1h9.3c-1.8-3.9-3.1-7.8-3.4-12.1-.2-1.6.7-1.6.8-.5 2.6 10.4 16.3 7.6 15.8-2.2-.4-8-7.9-9.7-11.8-7.1-1.5 1-1.5.4-.6-.6 5.9-6.8 2.4-15.6-5.4-15.8M130.49 105.868c-7.8.2-11.3 9-5.5 15.8.8 1 .9 1.6-.6.6-3.9-2.6-11.4-.9-11.8 7.1-.5 9.8 13.3 12.7 15.8 2.2.1-1.1 1-1.1.8.5-.2 4.2-1.6 8.2-3.4 12.1h9.3c-1.8-3.9-3.1-7.8-3.4-12.1-.2-1.6.7-1.6.8-.5 2.6 10.4 16.3 7.6 15.8-2.2-.4-8-7.9-9.7-11.8-7.1-1.5 1-1.5.4-.6-.6 6-6.8 2.4-15.6-5.4-15.8M48.09 105.868c-7.8.2-11.3 9-5.5 15.8.8 1 .9 1.6-.6.6-3.9-2.6-11.4-.9-11.8 7.1-.5 9.8 13.2 12.7 15.8 2.2.1-1.1 1-1.1.8.5-.2 4.2-1.6 8.2-3.4 12.1h9.3c-1.8-3.9-3.1-7.8-3.4-12.1-.2-1.6.7-1.6.8-.5 2.6 10.4 16.3 7.6 15.8-2.2-.4-8-7.9-9.7-11.8-7.1-1.5 1-1.5.4-.6-.6 5.9-6.8 2.4-15.6-5.4-15.8M89.29 183.768c-7.8-.2-11.3-9-5.5-15.8.8-1 .9-1.6-.6-.6-3.9 2.6-11.4.9-11.8-7.1-.5-9.8 13.2-12.7 15.8-2.2.1 1.1 1 1.1.8-.5-.2-4.2-1.6-8.2-3.4-12.1h9.3c-1.8 3.9-3.1 7.8-3.4 12.1-.2 1.6.7 1.6.8.5 2.6-10.4 16.3-7.6 15.8 2.2-.4 8-7.9 9.7-11.8 7.1-1.5-1-1.5-.4-.6.6 5.9 6.8 2.4 15.6-5.4 15.8M164.489 209.168c3.1-.1 4.5-3.7 2.2-6.6-.3-.4-.4-.7.2-.3 1.6 1.1 4.6.4 4.7-2.9.2-4.1-5.3-5.3-6.3-.9-.1.5-.4.4-.3-.2.1-1.8.6-3.4 1.4-5h-3.7c.7 1.6 1.3 3.3 1.4 5 .1.7-.3.7-.3.2-1-4.4-6.5-3.2-6.3.9.2 3.3 3.1 4 4.7 2.9.6-.4.6-.2.2.3-2.5 2.9-1 6.6 2.1 6.6M14.09 40.268c-3.1.1-4.5 3.7-2.2 6.6.3.4.4.7-.2.3-1.6-1.1-4.5-.4-4.7 2.9-.2 4.1 5.3 5.3 6.3.9.1-.5.4-.4.3.2-.1 1.8-.6 3.4-1.4 5h3.7c-.7-1.6-1.3-3.3-1.4-5-.1-.7.3-.7.3-.2 1 4.4 6.5 3.2 6.3-.9-.2-3.3-3.1-4-4.7-2.9-.6.4-.6.2-.2-.3 2.4-2.9 1-6.5-2.1-6.6M5.59 30.068c.1-3.5 1.4-4.9 3.9-6.7-2-1.4-2.8-3.6-2.7-5.4.4-4.4 3.8-6.6 7.5-6.5s6.9 3 7.1 6.2c.2 2.8-.6 4.1-2.6 5.6 2.3 2 3.8 3.3 3.8 6.8-.1 3.5-3 7.6-8.2 7.7-5.1.1-8.9-4.2-8.8-7.7m14.4 0c.2-3.2-2.6-5.4-5.8-5.4-3.1 0-5.9 2.6-5.9 5.5 0 3.1 3.6 4.8 5.9 4.8 2.9 0 5.6-2.2 5.8-4.9m-1.1-11.5c.1-2.7-2.4-4.6-5-4.5-2.3.1-4.7 1.8-4.7 4.1 0 2.8 2.7 4.2 5.1 4.3 2.2 0 4.6-1.8 4.6-3.9M155.889 219.368c.1 3.5 1.4 4.9 3.9 6.7-2 1.4-2.8 3.6-2.7 5.4.4 4.4 3.8 6.6 7.5 6.5s6.9-3 7.1-6.2c.2-2.8-.6-4.1-2.6-5.6 2.3-2 3.8-3.3 3.8-6.8-.1-3.5-3-7.6-8.2-7.7-5-.1-8.9 4.2-8.8 7.7m14.4 0c.2 3.2-2.6 5.4-5.8 5.4-3.1 0-5.9-2.6-5.9-5.5 0-3.1 3.6-4.8 5.9-4.8 2.9 0 5.6 2.2 5.8 4.9m-1 11.5c.1 2.7-2.4 4.6-5 4.5-2.3-.1-4.7-1.8-4.7-4.1 0-2.8 2.7-4.2 5.1-4.3 2.1 0 4.6 1.8 4.6 3.9"/>
</svg>
