<svg xmlns="http://www.w3.org/2000/svg" xml:space="preserve" width="178.6" height="249.4" viewBox="0 0 178.6 249.4">
    <path fill="#fbfbf6" stroke="#7f7f7f" stroke-width=".4" d="M2321.1-30.5h161.5c4.7 0 8.5 3.8 8.5 8.5v232.4c0 4.7-3.8 8.5-8.5 8.5h-161.5c-4.7 0-8.5-3.8-8.5-8.5V-22c-.1-4.7 3.7-8.5 8.5-8.5z" transform="matrix(.99553 0 0 .9968 -2301.787 30.846)"/>
    <path fill="#d40000" d="M14.126 56.165c-1.692-2.89-3.484-5.582-5.774-7.974 2.29-2.393 4.082-5.084 5.774-7.975 1.692 2.891 3.484 5.582 5.774 7.975-2.29 2.392-4.082 5.183-5.774 7.974M130.504 64.738c-4.082-6.878-8.462-13.457-13.937-19.139 5.475-5.682 9.756-12.26 13.937-19.139 4.082 6.878 8.462 13.457 13.938 19.139-5.476 5.682-9.757 12.36-13.938 19.139M164.452 209.174c-1.693-2.89-3.485-5.582-5.774-7.974 2.29-2.392 4.081-5.084 5.774-7.974 1.692 2.89 3.484 5.582 5.774 7.974-2.19 2.392-4.082 5.183-5.774 7.974M48.074 64.738c-4.082-6.878-8.462-13.457-13.938-19.139 5.476-5.682 9.757-12.26 13.938-19.139 4.082 6.878 8.462 13.457 13.937 19.139-5.475 5.682-9.855 12.36-13.937 19.139M89.289 104.31c-4.082-6.877-8.462-13.456-13.938-19.138 5.476-5.682 9.757-12.26 13.938-19.139 4.082 6.878 8.462 13.457 13.937 19.14-5.475 5.68-9.756 12.26-13.937 19.138M48.074 143.884c-4.082-6.878-8.462-13.457-13.938-19.139 5.476-5.682 9.757-12.26 13.938-19.138 4.082 6.877 8.462 13.456 13.937 19.138-5.475 5.582-9.855 12.26-13.937 19.139M130.504 143.884c-4.082-6.878-8.462-13.457-13.937-19.139 5.475-5.682 9.756-12.26 13.937-19.138 4.082 6.877 8.462 13.456 13.938 19.138-5.476 5.682-9.757 12.26-13.938 19.139M48.074 223.03c-4.082-6.878-8.462-13.457-13.938-19.139 5.476-5.681 9.757-12.26 13.938-19.138 4.082 6.878 8.462 13.457 13.937 19.138-5.475 5.582-9.855 12.261-13.937 19.139M130.504 223.03c-4.082-6.878-8.462-13.457-13.937-19.139 5.475-5.681 9.756-12.26 13.937-19.138 4.082 6.878 8.462 13.457 13.938 19.138-5.476 5.582-9.757 12.261-13.938 19.139M89.289 183.457c-4.082-6.878-8.462-13.457-13.938-19.139 5.476-5.682 9.757-12.26 13.938-19.138 4.082 6.878 8.462 13.456 13.937 19.138-5.475 5.582-9.756 12.26-13.937 19.139M5.564 30.049c.1-3.489 1.394-4.884 3.883-6.679-1.991-1.495-2.887-3.588-2.688-5.382.398-4.386 3.783-6.58 7.467-6.48s6.869 2.99 7.167 6.28c.2 2.791-.597 4.087-2.588 5.582 2.29 1.994 3.783 3.29 3.783 6.779-.1 3.488-2.986 7.575-8.163 7.775-5.077-.1-8.96-4.386-8.86-7.875m14.436 0c.199-3.19-2.589-5.383-5.774-5.383-3.087 0-5.874 2.592-5.874 5.483 0 3.09 3.584 4.784 5.973 4.784 2.788 0 5.476-2.093 5.675-4.884m-1.095-11.463c.1-2.692-2.39-4.586-4.978-4.586-2.29.1-4.679 1.795-4.679 4.087 0 2.791 2.787 4.187 5.077 4.286 2.19.1 4.58-1.694 4.58-3.787M155.89 219.441c.1 3.49 1.394 4.885 3.883 6.68-1.991 1.494-2.887 3.588-2.688 5.382.398 4.386 3.783 6.579 7.466 6.479s6.87-2.99 7.168-6.28c.2-2.79-.597-4.087-2.588-5.582 2.29-1.994 3.783-3.29 3.783-6.778-.1-3.489-2.987-7.576-8.163-7.775-5.078 0-8.96 4.286-8.86 7.874m14.436 0c.199 3.19-2.589 5.383-5.775 5.383-3.086 0-5.873-2.591-5.873-5.482 0-3.09 3.584-4.785 5.973-4.785 2.787 0 5.475 2.093 5.675 4.884m-.996 11.364c.1 2.691-2.39 4.585-4.978 4.585-2.29-.1-4.679-1.794-4.679-4.087 0-2.79 2.788-4.186 5.078-4.286 2.09 0 4.48 1.794 4.579 3.788"/>
</svg>
