<svg xmlns="http://www.w3.org/2000/svg" xml:space="preserve" width="178.6" height="249.4" viewBox="0 0 178.6 249.4">
    <path fill="#fbfbf6" stroke="#7f7f7f" stroke-width=".4" d="M268.9 370.2h161.5c4.7 0 8.5 3.8 8.5 8.5v232.4c0 4.7-3.8 8.5-8.5 8.5H268.9c-4.7 0-8.5-3.8-8.5-8.5V378.7c-.1-4.7 3.8-8.5 8.5-8.5z" transform="matrix(.99554 0 0 .9968 -258.773 -368.593)"/>
    <path fill="#d40000" d="M14.128 56.22s-1.792-2.592-4.181-5.582c-1.593-1.994-2.887-4.187-2.987-6.08-.1-2.094 1.195-4.287 3.485-4.387s3.285 1.595 3.683 3.09c.398-1.395 1.294-3.19 3.684-3.09 2.29.1 3.583 2.293 3.484 4.386-.1 1.894-1.394 3.988-2.987 6.08-2.389 2.991-4.181 5.583-4.181 5.583M164.454 193.28s-1.792 2.592-4.181 5.582c-1.593 1.994-2.887 4.187-2.987 6.08-.1 2.094 1.195 4.287 3.485 4.387s3.285-1.595 3.683-3.09c.398 1.395 1.294 3.19 3.684 3.09 2.29-.1 3.584-2.293 3.484-4.386-.1-1.894-1.394-3.988-2.987-6.08-2.389-3.09-4.18-5.583-4.18-5.583M89.291 104.266s-3.683-6.08-8.76-13.258c-3.385-4.784-6.073-9.968-6.273-14.453-.298-5.084 2.39-10.267 7.367-10.467 4.879-.2 6.87 3.987 7.666 7.377.797-3.49 2.788-7.676 7.666-7.377 4.878.2 7.566 5.383 7.367 10.467-.2 4.485-2.887 9.669-6.272 14.453-5.077 7.177-8.76 13.258-8.76 13.258M48.076 64.792s-3.684-6.08-8.76-13.257c-3.386-4.785-6.074-9.968-6.273-14.454-.298-5.083 2.39-10.267 7.367-10.466 4.878-.2 6.87 3.987 7.666 7.376.796-3.489 2.787-7.675 7.665-7.376 4.879.2 7.567 5.383 7.367 10.466-.298 4.486-2.887 9.67-6.271 14.454-5.078 7.077-8.761 13.257-8.761 13.257M130.506 143.839s-3.683-6.08-8.76-13.258c-3.385-4.784-6.073-9.968-6.272-14.453-.299-5.084 2.389-10.267 7.367-10.467 4.878-.2 6.869 3.987 7.665 7.377.797-3.49 2.788-7.676 7.666-7.377 4.878.2 7.566 5.383 7.367 10.467-.299 4.485-2.887 9.669-6.272 14.453-5.077 7.177-8.76 13.258-8.76 13.258M130.506 64.792s-3.683-6.08-8.76-13.257c-3.385-4.785-6.073-9.968-6.272-14.454-.299-5.083 2.389-10.267 7.367-10.466 4.878-.2 6.869 3.987 7.665 7.376.797-3.489 2.788-7.675 7.666-7.376 4.878.2 7.566 5.383 7.367 10.466-.299 4.486-2.887 9.67-6.272 14.454-5.077 7.077-8.76 13.257-8.76 13.257M48.076 143.839s-3.684-6.08-8.76-13.258c-3.386-4.784-6.074-9.968-6.273-14.453-.298-5.084 2.39-10.267 7.367-10.467 4.878-.2 6.87 3.987 7.666 7.377.796-3.49 2.787-7.676 7.665-7.377 4.879.2 7.567 5.383 7.367 10.467-.298 4.485-2.887 9.669-6.271 14.453-5.078 7.177-8.761 13.258-8.761 13.258M89.291 145.135s-3.683 6.08-8.76 13.257c-3.385 4.785-6.073 9.968-6.273 14.454-.298 5.083 2.39 10.267 7.367 10.466 4.879.2 6.87-3.987 7.666-7.376.797 3.489 2.788 7.675 7.666 7.376 4.878-.2 7.566-5.383 7.367-10.466-.2-4.486-2.887-9.67-6.272-14.454-5.077-7.177-8.76-13.257-8.76-13.257M130.506 184.708s-3.683 6.08-8.76 13.257c-3.385 4.785-6.073 9.968-6.272 14.454-.299 5.083 2.389 10.267 7.367 10.466 4.878.2 6.869-3.987 7.665-7.376.797 3.489 2.788 7.675 7.666 7.376 4.878-.2 7.566-5.383 7.367-10.466-.299-4.486-2.887-9.67-6.272-14.454-5.077-7.177-8.76-13.257-8.76-13.257M48.076 184.708s-3.684 6.08-8.76 13.257c-3.386 4.785-6.074 9.968-6.273 14.454-.298 5.083 2.39 10.267 7.367 10.466 4.878.2 6.87-3.987 7.666-7.376.796 3.489 2.787 7.675 7.665 7.376 4.879-.2 7.567-5.383 7.367-10.466-.298-4.486-2.887-9.67-6.271-14.454-5.078-7.177-8.761-13.257-8.761-13.257M5.566 30.004c.1-3.489 1.394-4.884 3.883-6.679-1.991-1.495-2.887-3.588-2.688-5.382.398-4.386 3.783-6.58 7.467-6.48s6.869 2.99 7.167 6.28c.2 2.791-.597 4.087-2.588 5.582 2.29 1.994 3.783 3.29 3.783 6.779-.1 3.489-2.987 7.575-8.163 7.775-5.078 0-8.96-4.286-8.86-7.875m14.436 0c.199-3.19-2.589-5.383-5.774-5.383-3.087 0-5.874 2.592-5.874 5.483 0 3.09 3.584 4.784 5.973 4.784 2.688 0 5.476-2.093 5.675-4.884M18.907 18.64c.1-2.69-2.39-4.585-4.978-4.585-2.29.1-4.68 1.794-4.68 4.087 0 2.791 2.788 4.187 5.078 4.286 2.19 0 4.58-1.794 4.58-3.788M155.893 219.396c.1 3.49 1.393 4.885 3.882 6.679-1.99 1.495-2.887 3.588-2.688 5.383.398 4.386 3.783 6.578 7.467 6.479s6.869-2.99 7.168-6.28c.199-2.791-.598-4.087-2.589-5.582 2.29-1.994 3.783-3.29 3.783-6.778-.1-3.49-2.986-7.576-8.163-7.775-5.077.1-8.96 4.385-8.86 7.874m14.435 0c.199 3.19-2.589 5.383-5.774 5.383-3.086 0-5.874-2.592-5.874-5.482 0-3.09 3.584-4.785 5.973-4.785 2.788 0 5.476 2.093 5.675 4.884m-.996 11.464c.1 2.69-2.389 4.585-4.977 4.585-2.29-.1-4.68-1.794-4.68-4.087 0-2.791 2.788-4.187 5.078-4.286 2.09-.1 4.48 1.694 4.58 3.788"/>
</svg>
