<svg xmlns="http://www.w3.org/2000/svg" xml:space="preserve" width="178.6" height="249.4" viewBox="0 0 178.6 249.4">
    <path fill="#fbfbf6" stroke="#7f7f7f" stroke-width=".4" d="M2616.8-471.5h161.5c4.7 0 8.5 3.8 8.5 8.5v232.4c0 4.7-3.8 8.5-8.5 8.5h-161.5c-4.7 0-8.5-3.8-8.5-8.5V-463c-.1-4.7 3.8-8.5 8.5-8.5z" transform="matrix(.99554 0 0 .9968 -2596.21 470.399)"/>
    <path d="M48.037 26.424C40.67 36.89 32.805 42.97 32.706 51.144c0 2.692 1.394 7.177 5.873 7.975 2.888.598 6.87-1.794 6.97-6.58 0-.996.995-.896.995.4-.1 3.787-1.294 8.173-3.385 11.762h9.657c-1.991-3.589-3.186-7.975-3.385-11.762 0-1.296.995-1.296.995-.4.1 4.786 4.082 7.178 6.97 6.58 4.479-.897 5.873-5.383 5.873-7.975 0-8.173-7.865-14.154-15.232-24.72M14.09 40.28c-3.386 4.385-7.07 6.877-7.169 10.266 0 1.097.697 2.99 2.788 3.39 1.394.199 3.186-.798 3.285-2.792 0-.398.498-.398.498.2-.1 1.595-.597 3.389-1.593 4.884h4.48c-.896-1.495-1.493-3.29-1.593-4.884 0-.499.498-.598.498-.2 0 1.994 1.891 2.99 3.285 2.791 2.09-.398 2.788-2.193 2.788-3.389-.1-3.389-3.783-5.88-7.268-10.267M164.515 209.237c-3.385-4.386-7.068-6.878-7.168-10.267 0-1.096.697-2.99 2.788-3.39 1.393-.198 3.185.798 3.285 2.792 0 .399.498.399.498-.2-.1-1.594-.598-3.389-1.593-4.884h4.48c-.896 1.495-1.494 3.29-1.593 4.885 0 .498.498.598.498.199 0-1.994 1.891-2.99 3.285-2.791 2.09.399 2.787 2.193 2.787 3.389-.199 3.39-3.882 5.881-7.267 10.267M130.567 26.424c-7.367 10.466-15.232 16.547-15.331 24.72 0 2.692 1.394 7.177 5.874 7.975 2.887.598 6.869-1.794 6.968-6.58 0-.996.996-.896.996.4-.1 3.787-1.294 8.173-3.385 11.762h9.657c-1.991-3.589-3.186-7.975-3.385-11.762 0-1.296.995-1.296.995-.4.1 4.786 4.082 7.178 6.97 6.58 4.48-.897 5.873-5.383 5.873-7.975-.1-8.173-7.964-14.154-15.232-24.72M89.252 65.997c-7.367 10.466-15.231 16.547-15.33 24.72 0 2.692 1.393 7.177 5.873 7.975 2.887.598 6.869-1.794 6.968-6.58 0-.996.996-.896.996.4-.1 3.787-1.294 8.173-3.385 11.762h9.657c-1.991-3.589-3.186-7.975-3.385-11.762 0-1.296.996-1.296.996-.4.1 4.786 4.081 7.178 6.968 6.58 4.48-.897 5.874-5.383 5.874-7.975 0-8.173-7.865-14.154-15.232-24.72M48.037 105.57c-7.367 10.466-15.232 16.547-15.331 24.72 0 2.692 1.394 7.177 5.873 7.975 2.888.598 6.87-1.794 6.97-6.58 0-.996.995-.896.995.4-.1 3.787-1.294 8.173-3.385 11.762h9.657c-1.991-3.589-3.186-7.975-3.385-11.762 0-1.296.995-1.296.995-.4.1 4.786 4.082 7.178 6.97 6.58 4.479-.897 5.873-5.383 5.873-7.975 0-8.173-7.865-14.254-15.232-24.72M48.037 222.993c-7.367-10.466-15.232-16.547-15.331-24.72 0-2.692 1.394-7.178 5.873-7.975 2.888-.598 6.87 1.794 6.97 6.579 0 .997.995.897.995-.399-.1-3.788-1.294-8.174-3.385-11.762h9.657c-1.991 3.588-3.186 7.974-3.385 11.762 0 1.296.995 1.296.995.399.1-4.785 4.082-7.177 6.97-6.58 4.479.898 5.873 5.384 5.873 7.975 0 8.174-7.865 14.255-15.232 24.72M130.567 222.993c-7.367-10.466-15.232-16.547-15.331-24.72 0-2.692 1.394-7.178 5.874-7.975 2.887-.598 6.869 1.794 6.968 6.579 0 .997.996.897.996-.399-.1-3.788-1.294-8.174-3.385-11.762h9.657c-1.991 3.588-3.186 7.974-3.385 11.762 0 1.296.995 1.296.995.399.1-4.785 4.082-7.177 6.97-6.58 4.48.898 5.873 5.384 5.873 7.975-.1 8.174-7.964 14.255-15.232 24.72M89.252 183.42c-7.367-10.467-15.231-16.547-15.33-24.72 0-2.692 1.393-7.178 5.873-7.975 2.887-.598 6.869 1.794 6.968 6.579 0 .997.996.897.996-.399-.1-3.788-1.294-8.174-3.385-11.762h9.657c-1.991 3.588-3.186 7.974-3.385 11.762 0 1.296.996 1.296.996.399.1-4.785 4.081-7.177 6.968-6.58 4.48.898 5.874 5.384 5.874 7.975 0 8.174-7.865 14.254-15.232 24.72M130.567 105.57c-7.367 10.466-15.232 16.547-15.331 24.72 0 2.692 1.394 7.177 5.874 7.975 2.887.598 6.869-1.794 6.968-6.58 0-.996.996-.896.996.4-.1 3.787-1.294 8.173-3.385 11.762h9.657c-1.991-3.589-3.186-7.975-3.385-11.762 0-1.296.995-1.296.995-.4.1 4.786 4.082 7.178 6.97 6.58 4.48-.897 5.873-5.383 5.873-7.975-.1-8.173-7.964-14.254-15.232-24.72M5.528 30.012c.1-3.489 1.393-4.884 3.882-6.678-1.99-1.496-2.887-3.589-2.688-5.383.398-4.386 3.783-6.579 7.467-6.48 3.683.1 6.869 2.991 7.168 6.28.199 2.792-.598 4.087-2.589 5.583 2.29 1.993 3.783 3.29 3.783 6.778-.1 3.489-2.986 7.576-8.163 7.775-5.077 0-8.96-4.286-8.86-7.875m14.435 0c.199-3.19-2.588-5.383-5.774-5.383-3.086 0-5.874 2.592-5.874 5.483 0 3.09 3.584 4.785 5.973 4.785 2.788 0 5.476-2.094 5.675-4.885m-.996-11.363c.1-2.692-2.389-4.586-4.977-4.586-2.29.1-4.68 1.795-4.68 4.087 0 2.791 2.788 4.187 5.078 4.286 2.09 0 4.48-1.794 4.58-3.787M155.953 219.404c.1 3.49 1.394 4.885 3.883 6.679-1.991 1.495-2.887 3.588-2.688 5.383.398 4.386 3.783 6.579 7.467 6.479s6.869-2.99 7.167-6.28c.2-2.791-.597-4.087-2.588-5.582 2.29-1.994 3.783-3.29 3.783-6.778-.1-3.49-2.987-7.576-8.163-7.775-5.078 0-8.96 4.386-8.86 7.874m14.336 0c.2 3.19-2.588 5.383-5.774 5.383-3.086 0-5.874-2.592-5.874-5.482 0-3.09 3.584-4.785 5.974-4.785 2.787 0 5.475 2.093 5.674 4.884m-.995 11.464c.1 2.691-2.39 4.585-4.978 4.585-2.29-.1-4.68-1.794-4.68-4.087 0-2.791 2.788-4.187 5.078-4.286 2.09-.1 4.58 1.694 4.58 3.788"/>
</svg>
