<svg xmlns="http://www.w3.org/2000/svg" xml:space="preserve" width="178.6" height="249.4" viewBox="0 0 178.6 249.4">
    <path fill="#fbfbf6" stroke="#7f7f7f" stroke-width=".4" d="M2585.3-30.5h161.5c4.7 0 8.5 3.8 8.5 8.5v232.4c0 4.7-3.8 8.5-8.5 8.5h-161.5c-4.7 0-8.5-3.8-8.5-8.5V-22c-.1-4.7 3.8-8.5 8.5-8.5z" transform="matrix(.99553 0 0 .9968 -2564.832 30.846)"/>
    <path fill="#d40000" d="M14.101 56.165c-1.692-2.89-3.484-5.582-5.774-7.974 2.29-2.393 4.082-5.084 5.774-7.975 1.693 2.891 3.484 5.582 5.774 7.975-2.19 2.392-4.081 5.183-5.774 7.974M130.48 64.738c-4.083-6.878-8.463-13.457-13.938-19.139 5.475-5.682 9.756-12.26 13.937-19.139 4.082 6.878 8.462 13.457 13.938 19.139-5.376 5.682-9.757 12.36-13.938 19.139M164.427 209.174c-1.693-2.89-3.485-5.582-5.774-7.974 2.29-2.392 4.081-5.084 5.774-7.974 1.692 2.89 3.484 5.582 5.774 7.974-2.19 2.392-3.982 5.183-5.774 7.974M48.049 64.738C43.967 57.86 39.587 51.28 34.11 45.599c5.476-5.682 9.757-12.26 13.938-19.139C52.13 33.338 56.51 39.917 61.986 45.6c-5.475 5.682-9.756 12.36-13.937 19.139M130.48 117.469c-4.083-6.878-8.463-13.457-13.938-19.14 5.475-5.68 9.756-12.26 13.937-19.138 4.082 6.878 8.462 13.457 13.938 19.139-5.376 5.682-9.757 12.36-13.938 19.139M48.049 117.469c-4.082-6.878-8.462-13.457-13.938-19.14 5.476-5.68 9.757-12.26 13.938-19.138C52.13 86.07 56.51 92.648 61.986 98.33c-5.475 5.682-9.756 12.36-13.937 19.139M89.264 143.884c-4.082-6.878-8.462-13.457-13.938-19.139 5.476-5.682 9.757-12.26 13.938-19.138 4.082 6.877 8.462 13.456 13.937 19.138-5.475 5.682-9.756 12.26-13.937 19.139M48.049 223.03c-4.082-6.878-8.462-13.457-13.938-19.139 5.476-5.681 9.757-12.26 13.938-19.138 4.082 6.878 8.462 13.457 13.937 19.138-5.475 5.582-9.756 12.261-13.937 19.139M130.48 223.03c-4.083-6.878-8.463-13.457-13.938-19.139 5.475-5.681 9.756-12.26 13.937-19.138 4.082 6.878 8.462 13.457 13.938 19.138-5.376 5.582-9.757 12.261-13.938 19.139M130.48 170.2c-4.083-6.879-8.463-13.457-13.938-19.14 5.475-5.681 9.756-12.26 13.937-19.138 4.082 6.878 8.462 13.457 13.938 19.139-5.376 5.682-9.757 12.36-13.938 19.138M48.049 170.2c-4.082-6.879-8.462-13.457-13.938-19.14 5.476-5.681 9.757-12.26 13.938-19.138 4.082 6.878 8.462 13.457 13.937 19.139-5.475 5.682-9.756 12.36-13.937 19.138M6.734 32.64l2.39-.797c.895 2.392 2.787 3.19 4.678 2.99 3.485-.299 4.68-4.186 4.879-7.575-1.394 1.395-3.385 2.193-5.177 2.093-5.575-.299-6.969-4.785-7.069-9.37-.199-3.887 1.494-6.778 4.281-8.074 1.494-.698 4.878-.698 6.372.1 3.385 1.794 4.679 4.884 4.48 12.26 0 6.08-1.295 13.158-7.865 13.358-3.684.598-6.57-2.393-6.969-4.984m9.458-6.678c1.095-.698 1.792-1.396 2.29-2.392.398-.798.597-1.296.398-2.99-.299-4.387-2.589-6.879-5.974-6.38-1.891.299-2.887 1.296-3.484 3.29-1.095 3.588.299 7.774 2.887 8.771 1.195.498 2.987.299 3.883-.299M171.794 216.75l-2.39.798c-.895-2.393-2.787-3.19-4.678-2.99-3.485.298-4.68 4.186-4.879 7.575 1.394-1.396 3.385-2.193 5.177-2.093 5.575.299 6.969 4.784 7.068 9.37.2 3.887-1.493 6.778-4.28 8.074-1.494.697-4.878.697-6.372-.1-3.385-1.794-4.679-4.884-4.48-12.26 0-6.081 1.295-13.159 7.865-13.358 3.783-.498 6.57 2.392 6.969 4.984m-9.458 6.679c-1.095.697-1.792 1.395-2.29 2.392-.398.797-.597 1.296-.398 2.99.299 4.386 2.589 6.878 5.974 6.38 1.891-.3 2.887-1.296 3.484-3.29 1.095-3.588-.299-7.775-2.887-8.771-1.095-.4-2.887-.3-3.883.299"/>
</svg>
