<svg xmlns="http://www.w3.org/2000/svg" xml:space="preserve" width="178.6" height="249.4" viewBox="0 0 178.6 249.4">
    <path fill="#fbfbf6" stroke="#7f7f7f" stroke-width=".4" d="M268.9 370.2h161.5c4.7 0 8.5 3.8 8.5 8.5v232.4c0 4.7-3.8 8.5-8.5 8.5H268.9c-4.7 0-8.5-3.8-8.5-8.5V378.7c-.1-4.7 3.8-8.5 8.5-8.5z" transform="matrix(.99554 0 0 .9968 -258.773 -368.593)"/>
    <path fill="#d40000" d="M48.03 117.523s-3.684-6.08-8.76-13.257c-3.386-4.785-6.074-9.968-6.273-14.454-.298-5.084 2.39-10.267 7.367-10.466 4.878-.2 6.87 3.987 7.666 7.376.796-3.489 2.787-7.675 7.665-7.376 4.879.2 7.567 5.382 7.367 10.466-.298 4.486-2.887 9.67-6.271 14.454-4.978 7.077-8.761 13.257-8.761 13.257M14.082 56.22s-1.792-2.592-4.181-5.582c-1.593-1.994-2.887-4.187-2.987-6.08-.1-2.094 1.195-4.287 3.485-4.387s3.285 1.595 3.683 3.09c.398-1.395 1.294-3.19 3.684-3.09 2.29.1 3.583 2.293 3.484 4.386-.1 1.894-1.394 3.988-2.987 6.08-2.389 2.991-4.181 5.583-4.181 5.583M164.508 193.28s-1.792 2.592-4.181 5.582c-1.593 1.994-2.888 4.187-2.987 6.08-.1 2.094 1.195 4.287 3.484 4.387 2.29.1 3.286-1.595 3.684-3.09.398 1.395 1.294 3.19 3.683 3.09 2.29-.1 3.584-2.293 3.485-4.386-.1-1.894-1.394-3.988-2.987-6.08-2.489-3.09-4.181-5.583-4.181-5.583M48.03 64.792s-3.684-6.08-8.76-13.257c-3.386-4.785-6.074-9.968-6.273-14.454-.298-5.083 2.39-10.267 7.367-10.466 4.878-.2 6.87 3.987 7.666 7.376.796-3.489 2.787-7.675 7.665-7.376 4.879.2 7.567 5.383 7.367 10.466-.298 4.486-2.887 9.67-6.271 14.454-4.978 7.077-8.761 13.257-8.761 13.257M130.56 117.523s-3.684-6.08-8.76-13.257c-3.386-4.785-6.074-9.968-6.273-14.454-.298-5.084 2.39-10.267 7.367-10.466 4.878-.2 6.87 3.987 7.666 7.376.796-3.489 2.787-7.675 7.666-7.376 4.878.2 7.566 5.382 7.367 10.466-.2 4.486-2.888 9.67-6.272 14.454-5.078 7.077-8.761 13.257-8.761 13.257M130.56 64.792s-3.684-6.08-8.76-13.257c-3.386-4.785-6.074-9.968-6.273-14.454-.298-5.083 2.39-10.267 7.367-10.466 4.878-.2 6.87 3.987 7.666 7.376.796-3.489 2.787-7.675 7.666-7.376 4.878.2 7.566 5.383 7.367 10.466-.2 4.486-2.888 9.67-6.272 14.454-5.078 7.077-8.761 13.257-8.761 13.257M89.245 143.839s-3.683-6.08-8.76-13.258c-3.385-4.784-6.073-9.968-6.273-14.453-.298-5.084 2.39-10.267 7.367-10.467 4.879-.2 6.87 3.987 7.666 7.377.797-3.49 2.788-7.676 7.666-7.377 4.878.2 7.566 5.383 7.367 10.467-.299 4.485-2.887 9.669-6.272 14.453-4.978 7.177-8.76 13.258-8.76 13.258M130.56 131.977s-3.684 6.08-8.76 13.257c-3.386 4.785-6.074 9.968-6.273 14.454-.298 5.084 2.39 10.267 7.367 10.466 4.878.2 6.87-3.987 7.666-7.376.796 3.489 2.787 7.675 7.666 7.376 4.878-.2 7.566-5.382 7.367-10.466-.2-4.486-2.888-9.67-6.272-14.454-5.078-7.177-8.761-13.257-8.761-13.257M48.03 131.977s-3.684 6.08-8.76 13.257c-3.386 4.785-6.074 9.968-6.273 14.454-.298 5.084 2.39 10.267 7.367 10.466 4.878.2 6.87-3.987 7.666-7.376.796 3.489 2.787 7.675 7.665 7.376 4.879-.2 7.567-5.382 7.367-10.466-.298-4.486-2.887-9.67-6.271-14.454-4.978-7.177-8.761-13.257-8.761-13.257M130.56 184.708s-3.684 6.08-8.76 13.257c-3.386 4.785-6.074 9.968-6.273 14.454-.298 5.083 2.39 10.267 7.367 10.466 4.878.2 6.87-3.987 7.666-7.376.796 3.489 2.787 7.675 7.666 7.376 4.878-.2 7.566-5.383 7.367-10.466-.2-4.486-2.888-9.67-6.272-14.454-5.078-7.177-8.761-13.257-8.761-13.257M48.03 184.708s-3.684 6.08-8.76 13.257c-3.386 4.785-6.074 9.968-6.273 14.454-.298 5.083 2.39 10.267 7.367 10.466 4.878.2 6.87-3.987 7.666-7.376.796 3.489 2.787 7.675 7.665 7.376 4.879-.2 7.567-5.383 7.367-10.466-.298-4.486-2.887-9.67-6.271-14.454-4.978-7.177-8.761-13.257-8.761-13.257M6.815 32.695l2.389-.797c.896 2.392 2.787 3.19 4.679 2.99 3.484-.299 4.679-4.186 4.878-7.575-1.394 1.395-3.385 2.193-5.177 2.093-5.575-.3-6.969-4.785-7.068-9.37-.2-3.888 1.493-6.778 4.28-8.074 1.494-.698 4.879-.698 6.372.1 3.385 1.794 4.68 4.884 4.48 12.26 0 6.08-1.294 13.158-7.865 13.357-3.783.499-6.67-2.392-6.968-4.984m9.358-6.678c1.095-.698 1.792-1.396 2.29-2.392.398-.798.597-1.296.398-2.99-.3-4.387-2.589-6.879-5.974-6.38-1.891.299-2.887 1.295-3.484 3.289-1.095 3.589.299 7.775 2.887 8.772 1.195.399 2.987.299 3.883-.3M171.775 216.805l-2.39.797c-.895-2.392-2.787-3.19-4.678-2.99-3.485.299-4.68 4.186-4.878 7.575 1.393-1.395 3.385-2.193 5.177-2.093 5.575.3 6.968 4.785 7.068 9.37.199 3.888-1.493 6.778-4.281 8.074-1.493.698-4.878.698-6.371-.1-3.385-1.794-4.68-4.884-4.48-12.26 0-6.08 1.294-13.158 7.864-13.357 3.783-.598 6.571 2.392 6.97 4.984m-9.358 6.678c-1.095.698-1.792 1.396-2.29 2.392-.398.798-.597 1.296-.398 2.99.299 4.387 2.589 6.879 5.973 6.38 1.892-.299 2.887-1.295 3.485-3.289 1.095-3.588-.299-7.775-2.887-8.772-1.195-.399-2.987-.299-3.883.3"/>
</svg>
