<svg xmlns="http://www.w3.org/2000/svg" xml:space="preserve" width="178.6" height="249.4" viewBox="0 0 178.6 249.4">
    <path fill="#fbfbf6" stroke="#7f7f7f" stroke-width=".4" d="M2941.9-471.5h161.5c4.7 0 8.5 3.8 8.5 8.5v232.4c0 4.7-3.8 8.5-8.5 8.5h-161.5c-4.7 0-8.5-3.8-8.5-8.5V-463c0-4.7 3.8-8.5 8.5-8.5z" transform="matrix(.99554 0 0 .9968 -2919.865 470.399)"/>
    <path d="M48.032 26.424C40.665 36.89 32.8 42.97 32.7 51.144c0 2.692 1.394 7.177 5.874 7.975 2.887.598 6.87-1.794 6.969-6.58 0-.996.995-.896.995.4-.1 3.787-1.294 8.173-3.385 11.762h9.657c-1.99-3.589-3.186-7.975-3.385-11.762 0-1.296.996-1.296.996-.4.1 4.786 4.082 7.178 6.969 6.58 4.48-.897 5.873-5.383 5.873-7.975 0-8.173-7.864-14.154-15.231-24.72M14.084 40.28c-3.385 4.385-7.069 6.877-7.168 10.266 0 1.097.697 2.99 2.787 3.39 1.394.199 3.186-.798 3.286-2.792 0-.398.497-.398.497.2-.1 1.595-.597 3.389-1.592 4.884h4.48c-.896-1.495-1.494-3.29-1.593-4.884 0-.499.497-.598.497-.2 0 1.994 1.892 2.99 3.286 2.791 2.09-.398 2.787-2.193 2.787-3.389-.1-3.389-3.783-5.88-7.267-10.267M48.032 170.262c-7.367-10.466-15.232-16.547-15.332-24.72 0-2.692 1.394-7.178 5.874-7.975 2.887-.598 6.87 1.794 6.969 6.579 0 .997.995.897.995-.399-.1-3.788-1.294-8.174-3.385-11.762h9.657c-1.99 3.588-3.186 7.974-3.385 11.762 0 1.296.996 1.296.996.399.1-4.785 4.082-7.177 6.969-6.579 4.48.897 5.873 5.383 5.873 7.974 0 8.174-7.864 14.155-15.231 24.721M164.51 209.237c-3.385-4.386-7.069-6.878-7.168-10.267 0-1.096.697-2.99 2.787-3.39 1.394-.198 3.186.798 3.285 2.792 0 .399.498.399.498-.2-.1-1.594-.597-3.389-1.593-4.884h4.48c-.896 1.495-1.493 3.29-1.593 4.885 0 .498.498.598.498.199 0-1.994 1.892-2.99 3.285-2.791 2.091.399 2.788 2.193 2.788 3.389-.2 3.39-3.883 5.881-7.267 10.267M130.562 26.424c-7.367 10.466-15.232 16.547-15.332 24.72 0 2.692 1.394 7.177 5.874 7.975 2.887.598 6.87-1.794 6.969-6.58 0-.996.995-.896.995.4-.1 3.787-1.294 8.173-3.384 11.762h9.656c-1.99-3.589-3.185-7.975-3.385-11.762 0-1.296.996-1.296.996-.4.1 4.786 4.082 7.178 6.969 6.58 4.48-.897 5.873-5.383 5.873-7.975-.1-8.173-7.964-14.154-15.231-24.72M48.032 79.254C40.665 89.721 32.8 95.801 32.7 103.974c0 2.692 1.394 7.178 5.874 7.975 2.887.598 6.87-1.794 6.969-6.579 0-.996.995-.897.995.4-.1 3.787-1.294 8.173-3.385 11.761h9.657c-1.99-3.588-3.186-7.974-3.385-11.762 0-1.296.996-1.296.996-.399.1 4.785 4.082 7.177 6.969 6.58 4.48-.898 5.873-5.383 5.873-7.975 0-8.274-7.864-14.254-15.231-24.72M130.562 79.254c-7.367 10.467-15.232 16.547-15.332 24.72 0 2.692 1.394 7.178 5.874 7.975 2.887.598 6.87-1.794 6.969-6.579 0-.996.995-.897.995.4-.1 3.787-1.294 8.173-3.384 11.761h9.656c-1.99-3.588-3.185-7.974-3.385-11.762 0-1.296.996-1.296.996-.399.1 4.785 4.082 7.177 6.969 6.58 4.48-.898 5.873-5.383 5.873-7.975-.1-8.274-7.964-14.254-15.231-24.72M48.032 222.993c-7.367-10.466-15.232-16.547-15.332-24.72 0-2.692 1.394-7.178 5.874-7.975 2.887-.598 6.87 1.794 6.969 6.579 0 .997.995.897.995-.399-.1-3.788-1.294-8.174-3.385-11.762h9.657c-1.99 3.588-3.186 7.974-3.385 11.762 0 1.296.996 1.296.996.399.1-4.785 4.082-7.177 6.969-6.58 4.48.898 5.873 5.384 5.873 7.975 0 8.174-7.864 14.255-15.231 24.72M130.562 222.993c-7.367-10.466-15.232-16.547-15.332-24.72 0-2.692 1.394-7.178 5.874-7.975 2.887-.598 6.87 1.794 6.969 6.579 0 .997.995.897.995-.399-.1-3.788-1.294-8.174-3.384-11.762h9.656c-1.99 3.588-3.185 7.974-3.385 11.762 0 1.296.996 1.296.996.399.1-4.785 4.082-7.177 6.969-6.58 4.48.898 5.873 5.384 5.873 7.975-.1 8.174-7.964 14.255-15.231 24.72M130.562 170.262c-7.367-10.466-15.232-16.547-15.332-24.72 0-2.692 1.394-7.178 5.874-7.975 2.887-.598 6.87 1.794 6.969 6.579 0 .997.995.897.995-.399-.1-3.788-1.294-8.174-3.384-11.762h9.656c-1.99 3.588-3.185 7.974-3.385 11.762 0 1.296.996 1.296.996.399.1-4.785 4.082-7.177 6.969-6.579 4.48.897 5.873 5.383 5.873 7.974-.1 8.174-7.964 14.155-15.231 24.721M89.247 105.57c-7.367 10.466-15.232 16.547-15.331 24.72 0 2.692 1.393 7.177 5.873 7.975 2.887.598 6.87-1.794 6.969-6.58 0-.996.996-.896.996.4-.1 3.787-1.295 8.173-3.385 11.762h9.656c-1.99-3.589-3.185-7.975-3.384-11.762 0-1.296.995-1.296.995-.4.1 4.786 4.082 7.178 6.969 6.58 4.48-.897 5.874-5.383 5.874-7.975 0-8.173-7.865-14.254-15.232-24.72M6.816 32.704l2.39-.798c.896 2.392 2.787 3.19 4.679 2.99 3.484-.299 4.679-4.186 4.878-7.575-1.394 1.395-3.385 2.193-5.177 2.093-5.575-.299-6.969-4.785-7.068-9.37-.2-3.887 1.493-6.778 4.28-8.074 1.494-.698 4.879-.698 6.372.1 3.385 1.794 4.679 4.884 4.48 12.26 0 6.08-1.294 13.158-7.865 13.358-3.783.498-6.67-2.393-6.969-4.984m9.358-6.679c1.096-.698 1.792-1.396 2.29-2.392.398-.798.597-1.296.398-2.99-.298-4.387-2.588-6.879-5.973-6.38-1.891.299-2.887 1.296-3.484 3.29-1.095 3.588.298 7.774 2.887 8.771 1.194.399 2.986.3 3.882-.299M171.777 216.813l-2.39.797c-.895-2.392-2.787-3.19-4.678-2.99-3.485.299-4.68 4.186-4.878 7.575 1.393-1.395 3.384-2.192 5.176-2.093 5.575.3 6.97 4.785 6.97 9.37.198 3.888-1.494 6.778-4.282 8.074-1.493.698-4.878.698-6.371-.1-3.385-1.794-4.68-4.884-4.48-12.26 0-6.08 1.294-13.158 7.865-13.357 3.882-.598 6.67 2.392 7.068 4.984m-9.458 6.678c-1.095.698-1.792 1.396-2.29 2.393-.398.797-.597 1.295-.398 2.99.3 4.386 2.589 6.878 5.974 6.38 1.891-.3 2.887-1.296 3.484-3.29 1.095-3.588-.299-7.775-2.887-8.772-1.095-.498-2.887-.299-3.883.3"/>
</svg>
