<svg xmlns="http://www.w3.org/2000/svg" width="179" height="250" viewBox="0 0 179 250">
    <path fill-opacity=".201" d="M166.138 0C173.241 0 179 5.643 179 12.605v224.79c0 6.962-5.759 12.605-12.862 12.605H12.862C5.759 250 0 244.357 0 237.395V12.605C0 5.643 5.759 0 12.862 0zm0 6H12.862C9.046 6 6 8.985 6 12.605v224.79c0 3.62 3.046 6.605 6.862 6.605h153.276c3.816 0 6.862-2.985 6.862-6.605V12.605C173 8.985 169.954 6 166.138 6"/>
    <path fill-opacity=".331" d="M82.234 156.969q2.438-3 3.539-6.399 1.102-3.398 1.102-7.992 0-2.859-.633-4.453t-1.758-1.594q-1.265 0-3.187 2.578-1.078 1.407-1.735 2.203-3.14 3.657-5.859 5.086t-6.141 1.43q-5.624 0-9.14-4.172t-3.516-10.781q0-6.703 3.61-10.945t9.14-4.242q4.078 0 8.719 2.929 4.641 2.93 5.484 2.93.797 0 1.313-.445.516-.446.516-1.196 0-1.078-3.75-4.406-1.126-.891-1.735-1.406-2.015-1.782-3.117-4.313t-1.102-5.484q0-6.141 4.172-9.703 4.172-3.563 11.391-3.563 7.359 0 11.461 3.586 4.101 3.586 4.101 10.055 0 2.578-1.195 5.133-1.195 2.554-3.305 4.383-.562.468-1.547 1.312-3.75 3.234-3.75 4.406 0 .75.516 1.196t1.313.445q.843 0 5.484-2.93 4.641-2.929 8.719-2.929 5.531 0 9.14 4.242t3.61 10.945q0 6.609-3.492 10.781t-9.164 4.172q-3.469 0-6.211-1.453t-5.789-5.063l-1.641-2.015q-1.969-2.766-3.235-2.766-1.078 0-1.71 1.453-.633 1.454-.633 4.032 0 5.343 1.078 8.789t3.469 6.164z"/>
</svg>
