<svg xmlns="http://www.w3.org/2000/svg" xml:space="preserve" width="179" height="250" viewBox="0 0 179 250">
    <path fill="#fff" fill-opacity=".151" d="M166.1 0c7.1 0 12.9 5.6 12.9 12.6v224.8c0 7-5.8 12.6-12.9 12.6H12.9C5.8 250 0 244.4 0 237.4V12.6C0 5.6 5.8 0 12.9 0zm0 4H12.9C8 4 4 7.9 4 12.6v224.8c0 4.7 4 8.6 8.9 8.6h153.3c4.9 0 8.9-3.9 8.9-8.6V12.6c-.1-4.7-4.1-8.6-9-8.6"/>
    <path fill-opacity=".331" d="M82.2 157c1.6-2 2.8-4.1 3.5-6.4s1.1-4.9 1.1-8q0-2.85-.6-4.5c-.4-1.1-1-1.6-1.8-1.6s-1.9.9-3.2 2.6c-.7.9-1.3 1.7-1.7 2.2-2.1 2.4-4 4.1-5.9 5.1s-3.9 1.4-6.1 1.4c-3.7 0-6.8-1.4-9.1-4.2s-3.5-6.4-3.5-10.8c0-4.5 1.2-8.1 3.6-10.9s5.5-4.2 9.1-4.2c2.7 0 5.6 1 8.7 2.9s4.9 2.9 5.5 2.9c.5 0 1-.1 1.3-.4s.5-.7.5-1.2c0-.7-1.2-2.2-3.8-4.4-.8-.6-1.3-1.1-1.7-1.4-1.3-1.2-2.4-2.6-3.1-4.3s-1.1-3.5-1.1-5.5c0-4.1 1.4-7.3 4.2-9.7Q82.3 93 89.5 93c4.9 0 8.7 1.2 11.5 3.6s4.1 5.7 4.1 10.1q0 2.55-1.2 5.1c-.8 1.7-1.9 3.2-3.3 4.4-.4.3-.9.7-1.5 1.3-2.5 2.2-3.8 3.6-3.8 4.4 0 .5.2.9.5 1.2s.8.4 1.3.4c.6 0 2.4-1 5.5-2.9s6-2.9 8.7-2.9c3.7 0 6.7 1.4 9.1 4.2s3.6 6.5 3.6 10.9-1.2 8-3.5 10.8-5.4 4.2-9.2 4.2c-2.3 0-4.4-.5-6.2-1.5s-3.8-2.7-5.8-5.1c-.4-.5-1-1.2-1.6-2-1.3-1.8-2.4-2.8-3.2-2.8-.7 0-1.3.5-1.7 1.5s-.6 2.3-.6 4c0 3.6.4 6.5 1.1 8.8s1.9 4.4 3.5 6.2H82.2z"/>
</svg>
