<svg xmlns="http://www.w3.org/2000/svg" width="179" height="250" viewBox="0 0 179 250">
    <path fill-opacity=".204" d="M166.138 0C173.241 0 179 5.643 179 12.605v224.79c0 6.962-5.759 12.605-12.862 12.605H12.862C5.759 250 0 244.357 0 237.395V12.605C0 5.643 5.759 0 12.862 0zm0 6H12.862C9.046 6 6 8.985 6 12.605v224.79c0 3.62 3.046 6.605 6.862 6.605h153.276c3.816 0 6.862-2.985 6.862-6.605V12.605C173 8.985 169.954 6 166.138 6"/>
    <path fill-opacity=".197" d="M19.052 180.716q1.165-1.664 4.012-1.044l11.905-17.492q1.344-1.92 3.87-.57l.09-.128.525.558 1.587 1.112q2.969 2.079.567 5.509l-10.362 15.29-.822 1.446 6.758 4.732 12.045-17.202q2.151-3.072 4.48-1.441l.09-.128q4.428 3.101 2.618 5.687l-11.167 16.711-.732 1.318 3.814 2.671 7.769 5.63 1.574.912q1.357.95.264 3.274l-.18.256q-1.29 1.843-3.671.558l-12.615-8.681q-1.81 2.586-4.268.865-1.126-.789-2.976-5.937l-4.877-3.224-1.357-.95q-.716-.502-2.429.855-1.429.297-2.325-.331l-.256-.179q-.768-.538-1.832-3.648-3.098-2.169-2.439-5.943zM56.442 126.936q5.001-7.142 14.167-8.736 3.594-.23 6.563 1.85 7.04 4.929 2.484 17.647l-.732 1.318-7.068 8.785.128.09 25.557-13.235q1.096-.148 3.625 1.089 2.529 2.381 1.095 4.429-.376.537-37.69 20.647l-.269.384.128.09 17.164 11.827q1.357.95.245 3.3-1.326 1.894-3.379 1.449l-3.615-2.684-7.5-5.252-8.673-5.92q-2.437 1.956-5.407-.123l-1.19-.643q-2.048-1.434-.647-4.306l-2.586-1.811q-1.692.837-3.876.033-1.889-.026-2.938-.761-1.639-1.147-.038-4.413-.717-.502.023-2.921l2.251-1.362q8.361-15.319 12.178-20.771m-5.041 25.234 3.814 2.671q.384.269 10.196-10.639 4.916-5.713 7.228-9.015 4.069-5.811 1.276-9.941l-.837-.929q-4.633-.956-8.451 4.497-4.894 6.988-13.226 23.356M73.022 102.494q.341-.486 2.302-1.707l8.084-11.545 7.961-11.097q1.147-1.638 5.658-.234l.934.463q1.779 2.199-.103 4.887l-15.379 22.727 3.417 2.202 3.917 2.742 13.336-19.045q2.025-2.893 5.038-1.965l1.646.809q2.688 1.882.465 5.056l-13.765 19.66 10.085 7.062.072-.103 16.045-22.641q1.093-1.562 5.816.029 1.895 1.326.486 4.536l-15.192 22.514q1.774 2.425.519 4.217-1.398 1.996-5.228.383-4.6-.131-5.138-.508-1.638-1.147-.608-4.088l-.935-.464-9.599-6.721q-3.948.898-5.638-.285-1.766-1.237-.596-3.889l-7.5-5.252q-3.42.581-6.162-.843-1.971-1.38-.557-4.434.279-1.979.619-2.466M98.475 66.145q.34-.487 2.302-1.708l8.084-11.545 7.96-11.097q1.148-1.638 5.658-.234l.935.463q1.779 2.2-.103 4.887l-15.38 22.727 3.418 2.202 3.916 2.742 13.336-19.045q2.026-2.893 5.039-1.965l1.646.809q2.688 1.882.465 5.056l-13.766 19.66 10.086 7.062.072-.102 16.044-22.642q1.094-1.562 5.817.029 1.894 1.326.486 4.536l-15.193 22.514q1.774 2.425.52 4.217-1.399 1.996-5.228.383-4.601-.131-5.138-.508-1.639-1.147-.609-4.088l-.934-.464-9.6-6.721q-3.948.898-5.637-.285-1.766-1.237-.596-3.889l-7.5-5.252q-3.421.581-6.162-.843-1.972-1.38-.558-4.434.279-1.979.62-2.465"/>
</svg>
