<svg xmlns="http://www.w3.org/2000/svg" width="252" height="54" viewBox="0 0 252 54">
    <g fill-opacity=".403">
        <path d="M40.031 15.227q1.016 0 1.578 1.343l10.578-.14q1.172 0 1.344 1.422h.078l-.078.375v.968q0 1.813-2.094 1.813l-9.234.14-.828.079v4.125h10.5q1.875 0 1.875 1.421h.078q0 2.704-1.578 2.704l-10.047.218-.75.078v2.329l-.078 4.796.078.907q0 .828-1.266 1.047h-.156q-1.125 0-1.281-1.344l-.063-7.656q-1.578 0-1.578-1.5 0-.688 1.578-2.922l-.078-2.922v-.828q0-.438-1.047-.75-.531-.5-.531-1.047v-.156q0-.469.969-1.797 0-1.891 1.734-2.703zM72.781 15.117q4.36 0 7.641 3.297 1.125 1.406 1.125 3.219 0 4.297-6.516 6.078l-.75.078-5.625-.375v.078l12.75 6.672q.375.406.594 1.797-.25 1.719-1.5 1.719-.328 0-19.266-9.516H61v.078l.078 10.422q0 .828-1.281 1.047-1.156 0-1.563-.969l.063-2.25v-4.578l-.063-5.25q-1.5-.437-1.5-2.25l-.078-.672q0-1.25 1.578-1.5v-1.578q-.828-.453-1.125-1.578-.531-.781-.531-1.422 0-1 1.797-1.281 0-.438 1.203-.828l1.203.531q8.672-.969 12-.969M61 20.289v2.328q0 .235 7.281 1.125 3.75.375 5.766.375 3.547 0 4.437-2.328l.141-.609q-.937-2.172-4.266-2.172-4.265 0-13.359 1.281M87.547 14.898q.297 0 1.359.454h7.047l6.828.078q1 0 1.719 2.25l.078.515q-.39 1.36-2.031 1.36l-13.719.218.078 2.032v2.39h11.625q1.766 0 2.25 1.5l.141.907q0 1.64-1.938 1.64h-12v6.156h.063l13.875.079q.953 0 1.656 2.39 0 1.156-1.719 1.5l-13.578.235q-.484 1.421-1.578 1.421-1.219 0-1.656-2.031-1.266-1.922-1.266-2.25 0-1 1.5-1.422l-.078-.515v-5.86q-1.5-1.359-1.5-2.39 0-1.078 1.422-1.36v-4.578q-1.219-1.234-1.422-2.765 0-1.204 1.656-1.5.891-.454 1.188-.454M109.734 14.898q.297 0 1.36.454h7.047l6.828.078q1 0 1.719 2.25l.078.515q-.391 1.36-2.032 1.36l-13.718.218.078 2.032v2.39h11.625q1.765 0 2.25 1.5l.14.907q0 1.64-1.937 1.64h-12v6.156h.062l13.875.079q.953 0 1.657 2.39 0 1.156-1.719 1.5l-13.578.235q-.485 1.421-1.578 1.421-1.219 0-1.657-2.031-1.265-1.922-1.265-2.25 0-1 1.5-1.422l-.078-.515v-5.86q-1.5-1.359-1.5-2.39 0-1.078 1.421-1.36v-4.578q-1.218-1.234-1.421-2.765 0-1.204 1.656-1.5.891-.454 1.187-.454M143.109 15.898q2.844 0 7.875 1.875.516.5.516 1.36 0 1.719-1.578 2.094-3.86-.969-6.75-.969h-.063q-5.781 0-9.75 4.797-1.281 1.984-1.281 4.343 0 5.485 6.297 5.485h.453q6.016 0 11.625-3.828.75-.75 1.5-.75 1.719.234 1.719 1.578v.219q0 1.812-2.313 2.921-2.562 1.86-6.687 3.079-3.406.75-5.172.75-7.844 0-9.672-6-.75-2.86-.75-4.282 0-4.984 5.844-9.672 5.047-3 8.187-3M158.953 14.898q.297 0 1.359.454h7.047l6.829.078q1 0 1.718 2.25l.078.515q-.39 1.36-2.031 1.36l-13.719.218.078 2.032v2.39h11.626q1.765 0 2.25 1.5l.14.907q0 1.64-1.937 1.64h-12v6.156h.062l13.875.079q.953 0 1.656 2.39 0 1.156-1.718 1.5l-13.578.235q-.485 1.421-1.579 1.421-1.218 0-1.656-2.031-1.265-1.922-1.265-2.25 0-1 1.5-1.422l-.079-.515v-5.86q-1.5-1.359-1.5-2.39 0-1.078 1.422-1.36v-4.578q-1.219-1.234-1.422-2.765 0-1.204 1.657-1.5.89-.454 1.187-.454M180.328 13.977h.219q1.281.171 1.281 1.265v.375l-.078.906.078.907.297 17.015h10.125q3.516 0 3.516.61.375.047.453 2.25-.219 1.187-1.578 1.187h-8.922l-3.516-.062q-.594.968-1.359.968-.906 0-1.5-1.203-1.047-.687-1.047-2.172 0-.984 1.125-1.656l-.078-.297-.219-17.328-.234-1.5q0-.984 1.437-1.265M199.078 13.977h.219q1.281.171 1.281 1.265v.375l-.078.906.078.907.297 17.015H211q3.516 0 3.516.61.375.047.453 2.25-.219 1.187-1.578 1.187h-8.922l-3.516-.062q-.594.968-1.359.968-.906 0-1.5-1.203-1.047-.687-1.047-2.172 0-.984 1.125-1.656l-.078-.297-.219-17.328-.234-1.5q0-.984 1.437-1.265"/>
    </g>
</svg>
