<svg xmlns="http://www.w3.org/2000/svg" width="558" height="342" viewBox="0 0 558 342">
    <g opacity=".498">
        <path fill="red" d="M79.668 13.715h49.05a4 4 0 0 1 4 4v72.211a4 4 0 0 1-4 4h-49.05a4 4 0 0 1-4-4V17.715a4 4 0 0 1 4-4"/>
        <path fill="none" stroke="#000" stroke-width="4" d="M79.668 13.715h49.05a4 4 0 0 1 4 4v72.211a4 4 0 0 1-4 4h-49.05a4 4 0 0 1-4-4V17.715a4 4 0 0 1 4-4z"/>
        <path fill="red" d="M13.475 13.715h49.05a4 4 0 0 1 4 4v72.211a4 4 0 0 1-4 4h-49.05a4 4 0 0 1-4-4V17.715a4 4 0 0 1 4-4"/>
        <path fill="none" stroke="#000" stroke-width="4" d="M13.475 13.715h49.05a4 4 0 0 1 4 4v72.211a4 4 0 0 1-4 4h-49.05a4 4 0 0 1-4-4V17.715a4 4 0 0 1 4-4z"/>
        <path fill="red" d="M145.881 13.715h49.05a4 4 0 0 1 4 4v72.211a4 4 0 0 1-4 4h-49.05a4 4 0 0 1-4-4V17.715a4 4 0 0 1 4-4"/>
        <path fill="none" stroke="#000" stroke-width="4" d="M145.881 13.715h49.05a4 4 0 0 1 4 4v72.211a4 4 0 0 1-4 4h-49.05a4 4 0 0 1-4-4V17.715a4 4 0 0 1 4-4z"/>
        <path fill="red" d="M211.364 13.715h49.05a4 4 0 0 1 4 4v72.211a4 4 0 0 1-4 4h-49.05a4 4 0 0 1-4-4V17.715a4 4 0 0 1 4-4"/>
        <path fill="none" stroke="#000" stroke-width="4" d="M211.364 13.715h49.05a4 4 0 0 1 4 4v72.211a4 4 0 0 1-4 4h-49.05a4 4 0 0 1-4-4V17.715a4 4 0 0 1 4-4z"/>
        <path fill="#00ff46" d="M297.828 13.715h49.051a4 4 0 0 1 4 4v72.211a4 4 0 0 1-4 4h-49.051a4 4 0 0 1-4-4V17.715a4 4 0 0 1 4-4"/>
        <path fill="none" stroke="#000" stroke-width="4" d="M297.828 13.715h49.051a4 4 0 0 1 4 4v72.211a4 4 0 0 1-4 4h-49.051a4 4 0 0 1-4-4V17.715a4 4 0 0 1 4-4z"/>
        <path fill="#00ff46" d="M364.035 13.715h49.05a4 4 0 0 1 4 4v72.211a4 4 0 0 1-4 4h-49.05a4 4 0 0 1-4-4V17.715a4 4 0 0 1 4-4"/>
        <path fill="none" stroke="#000" stroke-width="4" d="M364.035 13.715h49.05a4 4 0 0 1 4 4v72.211a4 4 0 0 1-4 4h-49.05a4 4 0 0 1-4-4V17.715a4 4 0 0 1 4-4z"/>
        <path fill="#00ff46" d="M430.241 13.715h49.051a4 4 0 0 1 4 4v72.211a4 4 0 0 1-4 4h-49.051a4 4 0 0 1-4-4V17.715a4 4 0 0 1 4-4"/>
        <path fill="none" stroke="#000" stroke-width="4" d="M430.241 13.715h49.051a4 4 0 0 1 4 4v72.211a4 4 0 0 1-4 4h-49.051a4 4 0 0 1-4-4V17.715a4 4 0 0 1 4-4z"/>
        <path fill="#00ff46" d="M496.448 13.715h49.05a4 4 0 0 1 4 4v72.211a4 4 0 0 1-4 4h-49.05a4 4 0 0 1-4-4V17.715a4 4 0 0 1 4-4"/>
        <path fill="none" stroke="#000" stroke-width="4" d="M496.448 13.715h49.05a4 4 0 0 1 4 4v72.211a4 4 0 0 1-4 4h-49.05a4 4 0 0 1-4-4V17.715a4 4 0 0 1 4-4z"/>
        <path fill="#000dff" d="M13.475 106.417h49.05a4 4 0 0 1 4 4v214.868a4 4 0 0 1-4 4h-49.05a4 4 0 0 1-4-4V110.417a4 4 0 0 1 4-4"/>
        <path fill="none" stroke="#000" stroke-width="4" d="M13.475 106.417h49.05a4 4 0 0 1 4 4v214.868a4 4 0 0 1-4 4h-49.05a4 4 0 0 1-4-4V110.417a4 4 0 0 1 4-4z"/>
        <path fill="#000dff" d="M82.475 106.417h49.05a4 4 0 0 1 4 4v214.868a4 4 0 0 1-4 4h-49.05a4 4 0 0 1-4-4V110.417a4 4 0 0 1 4-4"/>
        <path fill="none" stroke="#000" stroke-width="4" d="M82.475 106.417h49.05a4 4 0 0 1 4 4v214.868a4 4 0 0 1-4 4h-49.05a4 4 0 0 1-4-4V110.417a4 4 0 0 1 4-4z"/>
        <path fill="#000dff" d="M151.475 106.417h49.05a4 4 0 0 1 4 4v214.868a4 4 0 0 1-4 4h-49.05a4 4 0 0 1-4-4V110.417a4 4 0 0 1 4-4"/>
        <path fill="none" stroke="#000" stroke-width="4" d="M151.475 106.417h49.05a4 4 0 0 1 4 4v214.868a4 4 0 0 1-4 4h-49.05a4 4 0 0 1-4-4V110.417a4 4 0 0 1 4-4z"/>
        <path fill="#000dff" d="M220.475 106.417h49.05a4 4 0 0 1 4 4v214.868a4 4 0 0 1-4 4h-49.05a4 4 0 0 1-4-4V110.417a4 4 0 0 1 4-4"/>
        <path fill="none" stroke="#000" stroke-width="4" d="M220.475 106.417h49.05a4 4 0 0 1 4 4v214.868a4 4 0 0 1-4 4h-49.05a4 4 0 0 1-4-4V110.417a4 4 0 0 1 4-4z"/>
        <path fill="#000dff" d="M289.475 106.417h49.05a4 4 0 0 1 4 4v191.338a4 4 0 0 1-4 4h-49.05a4 4 0 0 1-4-4V110.417a4 4 0 0 1 4-4"/>
        <path fill="none" stroke="#000" stroke-width="4" d="M289.475 106.417h49.05a4 4 0 0 1 4 4v191.338a4 4 0 0 1-4 4h-49.05a4 4 0 0 1-4-4V110.417a4 4 0 0 1 4-4z"/>
        <path fill="#000dff" d="M358.475 106.417h49.05a4 4 0 0 1 4 4v191.338a4 4 0 0 1-4 4h-49.05a4 4 0 0 1-4-4V110.417a4 4 0 0 1 4-4"/>
        <path fill="none" stroke="#000" stroke-width="4" d="M358.475 106.417h49.05a4 4 0 0 1 4 4v191.338a4 4 0 0 1-4 4h-49.05a4 4 0 0 1-4-4V110.417a4 4 0 0 1 4-4z"/>
        <path fill="#000dff" d="M427.475 106.417h49.05a4 4 0 0 1 4 4v191.338a4 4 0 0 1-4 4h-49.05a4 4 0 0 1-4-4V110.417a4 4 0 0 1 4-4"/>
        <path fill="none" stroke="#000" stroke-width="4" d="M427.475 106.417h49.05a4 4 0 0 1 4 4v191.338a4 4 0 0 1-4 4h-49.05a4 4 0 0 1-4-4V110.417a4 4 0 0 1 4-4z"/>
        <path fill="#000dff" d="M496.475 106.417h49.05a4 4 0 0 1 4 4v191.338a4 4 0 0 1-4 4h-49.05a4 4 0 0 1-4-4V110.417a4 4 0 0 1 4-4"/>
        <path fill="none" stroke="#000" stroke-width="4" d="M496.475 106.417h49.05a4 4 0 0 1 4 4v191.338a4 4 0 0 1-4 4h-49.05a4 4 0 0 1-4-4V110.417a4 4 0 0 1 4-4z"/>
    </g>
</svg>
