<svg xmlns="http://www.w3.org/2000/svg" width="179" height="250" viewBox="0 0 179 250">
    <path fill-opacity=".204" d="M166.138 0C173.241 0 179 5.643 179 12.605v224.79c0 6.962-5.759 12.605-12.862 12.605H12.862C5.759 250 0 244.357 0 237.395V12.605C0 5.643 5.759 0 12.862 0zm0 6H12.862C9.046 6 6 8.985 6 12.605v224.79c0 3.62 3.046 6.605 6.862 6.605h153.276c3.816 0 6.862-2.985 6.862-6.605V12.605C173 8.985 169.954 6 166.138 6"/>
    <path fill-opacity=".203" d="M55.64 158.487q-.571-.33-1.112-.054-.541.277-1.171 1.368l-9.72 16.836 6.443 3.72 5.88-10.185q.6-1.039.723-1.731.122-.691-.606-1.111l.54-.936 7.483 4.32-.54.936q-1.195-.69-1.863-.314-.668.377-1.268 1.416l-5.88 10.185 10.081 5.82q.467.27.956-.037t.879-.982l.935.54-5.1 8.833-.935-.54q.78-1.351-.155-1.891l-23.591-13.62q-.935-.54-1.715.811l-.935-.54 13.92-24.11q.63-1.091.547-1.728-.083-.636-.655-.966l.54-.936 6.859 3.96zM75.358 139.455q1.08-1.87 1.514-3.282t.334-2.44q-.099-1.027-.621-1.744-.521-.717-1.353-1.197-.831-.48-1.712-.573-.882-.093-1.822.334-.939.428-1.945 1.51t-2.086 2.952l-5.19 8.99 7.691 4.44zm-11.379-8.371q1.44-2.494 3.051-4.265 1.612-1.772 3.413-2.672t3.784-.794 4.218 1.396q3.429 1.98 4.078 5.056.648 3.077-.708 6.866l13.863-1.211q.729-.064 1.118-.497.389-.434.629-.85l.935.54-5.61 9.717-.935-.54q.27-.467.309-.895t-.221-.578-.717-.137-1.269.099l-11.406 1.035-4.29 7.431 9.249 5.34q.467.27.896.067t.939-1.086l.935.54-5.19 8.989-.935-.54q.87-1.507-.065-2.047l-23.591-13.62q-.935-.54-1.805.967l-.935-.54zM95.99 88.598q-.571-.33-1.112-.053t-1.171 1.368l-9.72 16.835 6.443 3.72 5.88-10.184q.6-1.039.645-1.776.044-.736-1.151-1.426l.54-.936 8.106 4.68-.54.936q-1.195-.69-1.863-.314-.668.377-1.268 1.416l-5.88 10.184 7.171 4.14 10.02-17.355q.45-.779.371-1.483-.079-.703-.702-1.063l.54-.936 7.119 4.11-.54.936q-.78-.45-1.169-.017-.389.434-.839 1.213l-13.98 24.214-.935-.54q.21-.363.141-.784t-.536-.691l-23.591-13.62q-.467-.27-.866-.119t-.609.514l-.935-.54 13.68-23.694q.63-1.091.547-1.728t-.655-.967l.54-.935 6.859 3.96zM116 53.94q-.571-.33-1.112-.053-.541.276-1.171 1.367l-9.72 16.836 6.443 3.72 5.88-10.184q.6-1.04.645-1.776.044-.737-1.151-1.427l.54-.935 8.106 4.68-.54.935q-1.195-.69-1.863-.313t-1.268 1.416l-5.88 10.184 7.171 4.14 10.02-17.355q.45-.78.371-1.483t-.702-1.064l.54-.935 7.119 4.11-.54.935q-.78-.45-1.169-.016-.389.433-.839 1.213L122.9 92.149l-.935-.54q.21-.364.141-.785-.069-.42-.536-.69l-23.591-13.62q-.467-.27-.866-.12t-.609.515l-.935-.54 13.68-23.695q.63-1.091.547-1.727t-.655-.967l.54-.935 6.859 3.96z"/>
</svg>
