<svg xmlns="http://www.w3.org/2000/svg" xml:space="preserve" width="179" height="250" viewBox="0 0 179 250">
    <g fill="#fff">
        <path fill-opacity=".152" d="M166.1 0c7.1 0 12.9 5.6 12.9 12.6v224.8c0 7-5.8 12.6-12.9 12.6H12.9C5.8 250 0 244.4 0 237.4V12.6C0 5.6 5.8 0 12.9 0zm0 4H12.9C8 4 4 7.9 4 12.6v224.8c0 4.7 4 8.6 8.9 8.6h153.3c4.9 0 8.9-3.9 8.9-8.6V12.6c-.1-4.7-4.1-8.6-9-8.6"/>
        <path fill-opacity=".148" d="M55.6 158.5c-.4-.2-.8-.2-1.1-.1-.4.2-.8.6-1.2 1.4l-9.7 16.8 6.4 3.7 5.9-10.2c.4-.7.6-1.3.7-1.7.1-.5-.1-.8-.6-1.1l.5-.9 7.5 4.3-.5.9c-.8-.5-1.4-.6-1.9-.3-.4.3-.9.7-1.3 1.4l-5.9 10.2 10.1 5.8c.3.2.6.2 1 0 .3-.2.6-.5.9-1l.9.5-5.1 8.8-.9-.5c.5-.9.5-1.5-.2-1.9L37.5 181c-.6-.4-1.2-.1-1.7.8l-.9-.5 13.9-24.1c.4-.7.6-1.3.5-1.7s-.3-.7-.7-1l.5-.9 6.9 4zM75.4 139.5q1.05-1.8 1.5-3.3c.3-.9.4-1.8.3-2.4-.1-.7-.3-1.3-.6-1.7-.3-.5-.8-.9-1.4-1.2s-1.1-.5-1.7-.6q-.9-.15-1.8.3c-.6.3-1.3.8-1.9 1.5q-1.05 1.05-2.1 3l-5.2 9 7.7 4.4zM64 131.1c1-1.7 2-3.1 3.1-4.3s2.2-2.1 3.4-2.7 2.5-.9 3.8-.8 2.7.5 4.2 1.4c2.3 1.3 3.6 3 4.1 5.1.4 2.1.2 4.3-.7 6.9l13.9-1.2c.5 0 .9-.2 1.1-.5s.5-.6.6-.8l.9.5-5.6 9.7-.9-.5q.3-.45.3-.9c0-.3 0-.5-.2-.6s-.4-.1-.7-.1-.7 0-1.3.1l-11.4 1-4.3 7.4 9.2 5.3c.3.2.6.2.9.1s.6-.5.9-1.1l.9.5-5.2 9-.9-.5c.6-1 .6-1.7-.1-2l-23.6-13.6c-.6-.4-1.2 0-1.8 1l-.9-.5zM96 88.6c-.4-.2-.8-.2-1.1-.1s-.8.6-1.2 1.4L84 106.7l6.4 3.7 5.9-10.2q.6-1.05.6-1.8c0-.5-.4-1-1.2-1.4l.5-.9 8.1 4.7-.5.9c-.8-.5-1.4-.6-1.9-.3s-.9.7-1.3 1.4L94.9 113l7.2 4.1 10-17.4c.3-.5.4-1 .4-1.5-.1-.5-.3-.8-.7-1.1l.5-.9 7.1 4.1-.5.9q-.75-.45-1.2 0c-.3.3-.5.7-.8 1.2l-14 24.2-.9-.5c.1-.2.2-.5.1-.8 0-.3-.2-.5-.5-.7L78 111.2c-.3-.2-.6-.2-.9-.1s-.5.3-.6.5l-.9-.5 13.7-23.7c.4-.7.6-1.3.5-1.7s-.3-.7-.7-1l.5-.9 6.9 4zM116 53.9c-.4-.2-.8-.2-1.1-.1s-.8.6-1.2 1.4L104 72.1l6.4 3.7 5.9-10.2q.6-1.05.6-1.8c0-.5-.4-1-1.2-1.4l.5-.9 8.1 4.7-.5.9c-.8-.5-1.4-.6-1.9-.3-.4.3-.9.7-1.3 1.4l-5.9 10.2 7.2 4.1 10-17.4c.3-.5.4-1 .4-1.5-.1-.5-.3-.8-.7-1.1l.5-.9 7.1 4.1-.5.9q-.75-.45-1.2 0c-.3.3-.5.7-.8 1.2l-14 24.2-.9-.5c.1-.2.2-.5.1-.8 0-.3-.2-.5-.5-.7L98 76.5c-.3-.2-.6-.2-.9-.1s-.5.3-.6.5l-.9-.5 13.7-23.7c.4-.7.6-1.3.5-1.7s-.3-.7-.7-1l.5-.9 6.9 4z"/>
    </g>
</svg>
