<svg xmlns="http://www.w3.org/2000/svg" width="179" height="250" viewBox="0 0 179 250">
    <path fill-opacity=".205" d="M166.138 0C173.241 0 179 5.643 179 12.605v224.79c0 6.962-5.759 12.605-12.862 12.605H12.862C5.759 250 0 244.357 0 237.395V12.605C0 5.643 5.759 0 12.862 0zm0 6H12.862C9.046 6 6 8.985 6 12.605v224.79c0 3.62 3.046 6.605 6.862 6.605h153.276c3.816 0 6.862-2.985 6.862-6.605V12.605C173 8.985 169.954 6 166.138 6"/>
    <path fill="#a60606" fill-opacity=".331" d="M89.547 157.812q-7.125-11.062-17.391-23.203-1.687-2.156-2.39-3-6.328-7.781-8.672-12.914t-2.344-10.383q0-7.124 4.008-11.624t10.195-4.5q4.406 0 7.828 2.531t5.391 7.219q.281.609.703 1.734 1.219 3.562 2.672 3.562 1.406 0 2.578-3.375.234-.75.422-1.125 1.828-5.062 5.367-7.804t8.133-2.742q6.187 0 10.195 4.5t4.008 11.624q0 5.157-2.297 10.243t-8.719 13.054q-.843 1.079-3 3.657-10.218 12.328-16.687 22.546"/>
</svg>
