<svg xmlns="http://www.w3.org/2000/svg" xml:space="preserve" width="179" height="250" viewBox="0 0 179 250">
    <path fill="#fff" fill-opacity=".152" d="M166.1 0c7.1 0 12.9 5.6 12.9 12.6v224.8c0 7-5.8 12.6-12.9 12.6H12.9C5.8 250 0 244.4 0 237.4V12.6C0 5.6 5.8 0 12.9 0zm0 4H12.9C8 4 4 7.9 4 12.6v224.8c0 4.7 4 8.6 8.9 8.6h153.3c4.9 0 8.9-3.9 8.9-8.6V12.6c-.1-4.7-4.1-8.6-9-8.6"/>
    <path fill="#a60606" fill-opacity=".331" d="M89.5 157.8c-4.8-7.4-10.5-15.1-17.4-23.2q-1.65-2.1-2.4-3-6.3-7.8-8.7-12.9c-1.6-3.4-2.3-6.9-2.3-10.4 0-4.7 1.3-8.6 4-11.6q4.05-4.5 10.2-4.5c2.9 0 5.5.8 7.8 2.5q3.45 2.55 5.4 7.2c.2.4.4 1 .7 1.7q1.2 3.6 2.7 3.6c.9 0 1.8-1.1 2.6-3.4.2-.5.3-.9.4-1.1q1.8-5.1 5.4-7.8t8.1-2.7q6.15 0 10.2 4.5c4.05 4.5 4 6.9 4 11.6 0 3.4-.8 6.9-2.3 10.2-1.5 3.4-4.4 7.7-8.7 13.1-.6.7-1.6 1.9-3 3.7-6.8 8.2-12.3 15.7-16.7 22.5"/>
</svg>
