<svg xmlns="http://www.w3.org/2000/svg" width="237.249" height="236.213" viewBox="0 0 237.249 236.213">
    <g fill-opacity=".505">
        <path d="M27.249 73.462c59.161 0 103.569 1.548 138.932 5.778 46.074 5.512 71.068 15.203 71.068 30.722 0 5.457-3.713 9.637-10.713 13.092-5.204 2.569-10.756 4.313-22.53 7.438l-1.508.399c-11.325 3.005-16.443 4.592-21.219 6.885-6.03 2.896-9.03 6.151-9.03 10.186 0 4.108 3.725 5.906 14.649 8.248l1.649.352c.649.139 1.167.251 1.667.361 6.228 1.371 10.038 2.571 13.189 4.455 4.135 2.471 6.346 5.902 6.346 10.584 0 3.972-.891 7.874-2.656 12.377-.609 1.554-1.315 3.169-2.222 5.117a850 850 0 0 1-2.472 5.194c-2.905 6.413-1.53 3.172-4.124 9.724-1.517 3.967-1.837 8.165-2.334 12.341 2.583-7.422 6.903-12.904 15.053-14.003v2c-7.893.001-15.245 13.729-15.245 28.001l-.077-.001.077 2.5a1 1 0 1 1-2 .001c0-18.224-9.043-34.5-19.255-34.501v-2c11.153.957 15.286 9.717 18.898 18.96.126-4.802 1.389-9.468 2.994-13.955.87-3.026 2.025-5.956 3.186-8.879.21-.519 1.229-3.024 1.506-3.712a125 125 0 0 0 1.4-3.615c1.875-5.11 2.771-9.182 2.771-13.549 0-4.007-1.878-6.845-5.603-9.005-3.005-1.744-6.606-2.86-13.141-4.34-.529-.12-1.064-.24-2.127-.478-6.181-1.386-9.09-2.198-11.862-3.522-3.752-1.792-5.902-4.198-6.261-7.548-.651-6.076 2.852-10.711 9.954-14.429 5.301-2.776 11.267-4.663 23.265-7.773l2.457-.636c10.647-2.757 15.683-4.284 20.293-6.425 5.783-2.686 8.776-5.703 9.028-9.411.861-12.698-27.809-22.803-76.059-28.439-42.512-4.966-96.148-5.85-135.614-2.497l-.348-.032c-1.434-.39-2.269-1.201-1.866-2.374.257-.747 1.024-1.345 2.189-1.901 2.063-.985 5.161-1.69 7.695-1.69M94.12 51.425q1.668 0 2.442 1.495t.123 3.737q-.7 2.415-1.61 3.968t-2.477 2.99q-1.584 1.495-3.33 2.559-1.746 1.063-2.896 1.063-.887-.115-1.143-.718-.256-.604.61-1.409 1.334-.633 2.607-1.553t2.149-2.357q.521-.805.71-1.754t-.605-1.581q-.794-.633-1.301-1.265-.506-.633-.173-1.783.384-1.322 1.863-2.357t3.031-1.035M194.162 32.22q1.495 0 3.354 1.322 5.323 3.853 2.788 12.593-1.5 5.175-5.155 8.855-4.207 4.197-9.152 4.197-5.06 0-6.647-3.45-1.474-3.047.043-8.28 1.501-5.175 5.423-9.775 4.574-5.462 9.346-5.462m-.588 5.002q-3.048 0-5.684 3.738-1.967 2.817-3.001 6.382-2.218 7.648 2.325 7.648 2.932 0 5.287-3.163 1.793-2.415 2.777-5.807 2.551-8.798-1.704-8.798M82.325 32.22q1.495 0 3.354 1.322 5.322 3.853 2.788 12.593-1.501 5.175-5.156 8.855-4.207 4.197-9.152 4.197-5.06 0-6.647-3.45-1.474-3.047.044-8.28 1.501-5.175 5.422-9.775 4.574-5.462 9.347-5.462m-.589 5.002q-3.047 0-5.683 3.738-1.967 2.817-3.001 6.382-2.218 7.648 2.324 7.648 2.933 0 5.288-3.163 1.792-2.415 2.776-5.807 2.551-8.798-1.704-8.798M73.933 18.132q2.587 0 3.921 1.15 1.44 1.38.74 3.795-.284.978-1.416 1.611-1.132.632-2.11.632-.747 0-1.41-.69.276-1.15-.034-1.466t-1.576-.317q-2.473 0-5.366 6.21-1.609 3.565-3.017 8.223h.69q.534-.058.764-.058 2.415 0 2.9 1.898l-1.152 2.185q-1.259.575-3.961.575-.46 0-.764.058-.723 1.897-1.373 4.139l-1.518 5.233q-.884 3.047-.897 6.267-2.61 1.265-3.645 1.265-1.38 0-1.568-2.127-.206-1.667.277-3.335.3-1.035 3.432-11.04-1.948.173-1.833.173-.977 0-1.541-.633t-.264-1.668q.517-1.782 2.162-2.3.872-.23 3.057-.23.339-.575 1.189-3.507 1.718-5.923 4.883-10.293 4.255-5.75 9.43-5.75M132.625 17.787q4.255 0 6.512 2.329t1.845 6.526q-.294 1.61-.694 4.773-.037.92-.17 1.38-.6 2.07-1.707 3.507-1.43 1.955-3.27 1.955-1.035 0-1.708-.948-.674-.949-.374-1.984c.274-.801.083-.284.637-1.526.496-.943.992-1.891 1.337-2.902q2.251-7.762-2.924-7.762-2.875 0-5.538 2.444t-3.514 5.376q-1.201 4.14 2.61 8.05 3.659 3.047 7.375 6.095 3.87 3.507 2.937 6.727-1.018 3.508-5.65 5.405-3.671 1.553-7.638 1.553-3.623 0-8.043-1.61-5.437-2.07-4.637-4.83.3-1.035 1.264-1.783.965-.747 2-.747 1.552 0 2.508 1.265 1.692 1.897 1.814 2.07 1.679 1.15 6.912 1.15 4.657 0 5.274-2.127.517-1.783-2.935-4.946l-4.962-3.91q-3.143-2.644-4.241-5.002-1.457-3.105-.29-7.13 1.467-5.06 5.723-9.028 4.602-4.37 9.547-4.37M153.396 31.817q2.07 0 4.536 1.61 2.588 1.783 2.589 3.565.009 1.553-.558 3.508-.516 1.782-1.914 4.025-1.754 2.875-3.134 2.875-.978 0-1.673-.575-.852-.633-.585-1.553.017-.057.901-1.322.454-.575 1.205-3.163.617-2.127.628-2.76.171-1.782-1.094-1.782-2.817 0-5.787 4.887-2.2 3.623-3.268 7.303-1.784 6.152 2.126 6.152 1.553 0 4.032-1.61 2.274-1.495 3.471-3.047 1.454-1.84 2.776-1.84.863 0 1.376 1.006t.263 1.869q-.517 1.782-3.92 4.197-3.065 2.243-5.158 2.818t-3.818.575q-4.542 0-6.267-2.875t-.408-7.418q1.284-4.427 5.225-9.89 4.719-6.555 8.456-6.555M225.028 17.787q1.265 0 2.173.834t.541 2.099q-.183.632-.721 1.495-.803 1.38-.893 1.495-1.782 3.565-3.683 10.12l-3.101 10.695q-1.929 7.245-1.728 10.12.055.805-.079 1.265-.3 1.035-1.342 1.754-1.042.718-2.135.718-3.622 0-.871-9.487 1.251-4.313 3.838-12.938t3.838-12.937q.2-.69.411-2.013t.395-1.955q2.264-1.265 3.357-1.265M215.31 17.787q1.265 0 2.173.834t.542 2.099q-.184.632-.721 1.495-.803 1.38-.894 1.495-1.781 3.565-3.682 10.12l-3.102 10.695q-1.928 7.245-1.727 10.12.054.805-.079 1.265-.301 1.035-1.343 1.754-1.042.718-2.134.718-3.623 0-.872-9.487 1.251-4.313 3.839-12.938t3.838-12.937q.2-.69.411-2.013t.394-1.955q2.265-1.265 3.357-1.265M36.045 32.392q1.265 0 2.17 1.438l-.839 2.3q3.111-3.393 6.216-3.393 2.013 0 3.855 1.38t2.377 3.105q1.09 4.37-.978 11.5l-2.418 8.338q-1.245 1.322-2.51 1.322-.978 0-2.887-1.15l.2-.69q.367-1.265 1.17-3.737.804-2.473 1.137-3.623 3.569-12.305-.111-12.305-1.035 0-2.825 1.61-5.516 4.945-7.534 11.903c-.253 1.024-.106.362-.37 2-.115 1.279-.258 2.559-.567 3.807q-.233.805-1.131 1.323-.897.517-1.76.517-3.45 0-2.183-4.37l3.485-12.017q.134-.46.507-1.351.374-.892.507-1.352.2-.69.383-2.012.182-1.323.365-1.955.267-.92 1.573-1.754 1.305-.834 2.168-.834M176.87 32.565q1.38 0 2.428.747.729.46 1.437 1.984t.458 2.386q-.117.403-.482 1.265-1.708 1.725-3.03 1.725-1.093 0-1.588-1.265.635-2.587-1.09-2.587-1.035 0-4.114 5.462-1.39 2.415-2.641 6.728-1.184 4.082-1.031 4.945.143 1.092.026 1.495-.283.977-1.35 1.581-1.066.604-2.159.604-3.105 0-2.271-2.875.083-.288.377-.805t.361-.748q.85-2.932 2.239-8.711t2.222-8.654q.75-2.587 3.855-2.587 1.84 0 2.213 1.092 2.127-1.782 4.14-1.782M30.114 18.937q1.035 0 1.993.863.957.862.673 1.84-.083.287-.884 1.265-.363.46-1.21 2.587-4.943 12.88-7.761 22.598-.734 2.53-.724 4.082.019 1.323.617 3.623.024.115-.043.345-.35 1.207-3.167 1.207h-.518q-2.916-.057-2.197-4.715.845-5.692 3.747-15.697.684-2.358 2.145-7.101 1.462-4.744 2.163-7.159.383-1.323 2.113-2.53 1.731-1.208 3.053-1.208"/>
    </g>
    <path fill="none" stroke="#000" stroke-opacity=".51" d="M1.5 1.5"/>
</svg>
