<svg xmlns="http://www.w3.org/2000/svg" width="1242" height="252" viewBox="0 0 1242 252">
    <g fill-opacity=".068">
        <path d="m294.005 228.049-94.986 16.267c-4.698.805-8.507-2.829-8.507-8.115V69.484c0-5.287 3.809-10.225 8.507-11.029l94.986-16.267c4.698-.805 8.507 2.829 8.507 8.115V217.02c0 5.287-3.809 10.224-8.507 11.029M41.533 226.277l123.853 16.732c6.125.827 11.091-2.787 11.091-8.074V68.218c0-5.286-4.966-10.243-11.091-11.07L41.533 40.415c-6.125-.827-11.091 2.788-11.091 8.074v166.717c0 5.287 4.966 10.243 11.091 11.071M586.075 228.049l-94.987 16.267c-4.698.805-8.506-2.829-8.506-8.115V69.484c0-5.287 3.808-10.225 8.506-11.029l94.987-16.267c4.697-.805 8.506 2.829 8.506 8.115V217.02c0 5.287-3.809 10.224-8.506 11.029M333.603 226.277l123.852 16.732c6.125.827 11.091-2.787 11.091-8.074V68.218c0-5.286-4.966-10.243-11.091-11.07L333.603 40.415c-6.126-.827-11.092 2.788-11.092 8.074v166.717c0 5.287 4.966 10.243 11.092 11.071M1064.144 228.049l-94.987 16.267c-4.698.805-8.506-2.829-8.506-8.115V69.484c0-5.287 3.808-10.225 8.506-11.029l94.987-16.267c4.698-.805 8.506 2.829 8.506 8.115V217.02c0 5.287-3.808 10.224-8.506 11.029M772.075 228.049l-94.987 16.267c-4.698.805-8.506-2.829-8.506-8.115V69.484c0-5.287 3.808-10.225 8.506-11.029l94.987-16.267c4.697-.805 8.506 2.829 8.506 8.115V217.02c0 5.287-3.809 10.224-8.506 11.029M811.672 226.277l123.852 16.732c6.126.827 11.091-2.787 11.091-8.074V68.218c0-5.286-4.965-10.243-11.091-11.07L811.672 40.415c-6.125-.827-11.091 2.788-11.091 8.074v166.717c0 5.287 4.966 10.243 11.091 11.071M1103.741 226.277l123.853 16.732c6.125.827 11.091-2.787 11.091-8.074V68.218c0-5.286-4.966-10.243-11.091-11.07l-123.853-16.733c-6.125-.827-11.091 2.788-11.091 8.074v166.717c0 5.287 4.966 10.243 11.091 11.071"/>
    </g>
    <path fill="#e5e5e5" d="M292.939 36.485 186.049 7.624c-5.287-1.427-9.572 1.701-9.572 6.988v166.717c0 5.286 4.285 10.729 9.572 12.157l106.89 28.86c5.287 1.427 9.573-1.701 9.573-6.988V48.641c0-5.286-4.286-10.729-9.573-12.156M585.009 36.485 478.118 7.624c-5.286-1.427-9.572 1.701-9.572 6.988v166.717c0 5.286 4.286 10.729 9.572 12.157l106.891 28.86c5.286 1.427 9.572-1.701 9.572-6.988V48.641c0-5.286-4.286-10.729-9.572-12.156M771.009 37.577 664.118 8.717c-5.286-1.428-9.572 1.701-9.572 6.987v166.717c0 5.287 4.286 10.729 9.572 12.157l106.891 28.86c5.286 1.428 9.572-1.701 9.572-6.988V49.734c0-5.287-4.286-10.73-9.572-12.157M1063.078 37.577l-106.89-28.86c-5.287-1.428-9.573 1.701-9.573 6.987v166.717c0 5.287 4.286 10.729 9.573 12.157l106.89 28.86c5.287 1.428 9.572-1.701 9.572-6.988V49.734c0-5.287-4.285-10.73-9.572-12.157"/>
    <path fill="#fff" d="M40.014 36.485 146.905 7.624c5.286-1.427 9.572 1.701 9.572 6.988v166.717c0 5.286-4.286 10.729-9.572 12.157l-106.891 28.86c-5.286 1.427-9.572-1.701-9.572-6.988V48.641c0-5.286 4.286-10.729 9.572-12.156M332.084 36.485l106.89-28.861c5.287-1.427 9.572 1.701 9.572 6.988v166.717c0 5.286-4.285 10.729-9.572 12.157l-106.89 28.86c-5.287 1.427-9.573-1.701-9.573-6.988V48.641c0-5.286 4.286-10.729 9.573-12.156M1102.222 37.577l106.891-28.86c5.286-1.428 9.572 1.701 9.572 6.987v166.717c0 5.287-4.286 10.729-9.572 12.157l-106.891 28.86c-5.286 1.428-9.572-1.701-9.572-6.988V49.734c0-5.287 4.286-10.73 9.572-12.157M810.153 37.577l106.89-28.86c5.287-1.428 9.572 1.701 9.572 6.987v166.717c0 5.287-4.285 10.729-9.572 12.157l-106.89 28.86c-5.287 1.428-9.572-1.701-9.572-6.988V49.734c0-5.287 4.285-10.73 9.572-12.157"/>
    <path d="M491.816 166.137V52.375q0-3.053-.79-4.841-.789-1.787-2.82-3.316v-3.152l42.922 11.5q14.1 3.778 21.657 11.418 10.829 11.077 16.018 31.28 4.118 15.877 4.118 35.675 0 34.769-12.239 49.711-5.133 6.307-12.014 7.763t-17.54-1.4l-42.922-11.501v-3.152q2.031-.441 2.82-1.805.79-1.365.79-4.418m16.808-7.316 21.093 5.652q10.096 2.705 15.172-.761 10.886-7.425 10.886-37.368 0-21.669-5.866-34.764-3.271-7.279-7.896-11.227t-12.296-6.003l-21.093-5.652zM699.151 153.926l47.32 12.679q1.749.469 2.651-.679t1.466-4.572l1.805.484v35.048l-1.805-.484q-.564-3.725-1.466-5.357t-2.651-2.1l-67.737-18.151v-3.177q2.03-.448 2.82-1.825.789-1.377.789-4.455V46.661q0-3.078-.789-4.878-.79-1.8-2.82-3.337v-3.177l24.026 6.438v3.177q-2.03.35-2.82 1.776-.789 1.427-.789 4.505zM982.239 84.471v82.408q0 3.078.79 4.878t2.82 3.337v3.177l-22.617-6.06v-3.177q2.031-.449 2.82-1.826.79-1.377.79-4.455V47.979q0-2.979-.79-4.779-.789-1.8-2.82-3.337v-3.177l26.17 7.012v3.177q-2.425.442-2.425 3.917 0 2.383 1.579 5.686l42.47 89.12V65.177q0-2.979-.789-4.779-.79-1.8-2.82-3.337v-3.177l22.616 6.06v3.177q-2.03.449-2.82 1.826-.789 1.377-.789 4.355v114.775q0 3.078.789 4.878.79 1.8 2.82 3.337v3.177l-24.252-6.498v-3.177q2.369-.259 2.369-3.635 0-1.986-2.764-7.69zM253.456 147.849l-34.969-9.37L213.298 156q-1.071 3.652-1.071 5.918 0 4.334 3.778 7.021v3.151l-25.493-6.83v-3.152q2.256-.184 3.441-1.836 1.184-1.653 2.707-6.958l28.313-95.735q1.354-4.562 1.354-7.517 0-4.531-3.271-7.377v-3.152l27.298 7.315v3.151q-3.328.783-3.328 4.92 0 2.856 1.072 6.788l29.328 111.476q1.861 7.098 3.271 9.889t3.779 4.213v3.152l-28.313-7.586v-3.152q3.722-.086 3.722-5.11 0-2.068-1.128-6.409zm-4.851-19.719-12.464-51.208-12.634 44.483z"/>
    <g fill="#a60707">
        <path d="m85.195 121.854-11.563 19.547v36.049q0 3.054.818 4.46t2.792 1.763v3.152l-24.027 6.438v-3.152q2.031-1.529 2.82-3.316.79-1.788.79-4.841V68.093q0-2.955-.79-4.319-.789-1.364-2.82-1.805v-3.152l24.027-6.438v3.152q-2.03 1.43-2.82 3.267t-.79 4.792v47.08l31.698-53.702q2.199-3.742 2.199-5.613 0-2.856-3.271-3.063V45.14l31.472-8.433v3.152q-1.974 1.218-2.82 2.332t-4.907 8.012l-4.343 7.467-26.17 43.751 29.667 54.399q4.117 7.564 5.95 9.585 1.833 2.02 4.597 2.068v3.151l-30.062 8.055v-3.151q2.989-1.885 2.989-4.544 0-1.379-2.707-6.563zM368.112 129.34v44.618q0 2.955.817 4.361.818 1.406 2.792 1.764v3.152l-24.026 6.438v-3.152q2.03-1.529 2.82-3.317.789-1.787.789-4.742V64.601q0-3.053-.789-4.417-.79-1.365-2.82-1.806v-3.152l48.166-12.906q8.798-2.357 13.959-1.967t8.996 3.795q4.456 3.927 6.655 12.104 2.087 7.912 2.087 17.564 0 32.898-20.925 44.119l14.947 33.128q3.948 8.693 5.781 11.009t4.484 1.901v3.152l-27.862 7.465v-3.151q2.876-1.559 2.876-4.317 0-1.773-2.651-7.859l-15.566-35.424zm0-22.161 25.944-6.952q5.753-1.542 8.122-2.767 2.369-1.226 4.343-3.626 4.286-5.187 4.286-15.726t-4.286-13.429q-2.031-1.426-4.315-1.356-2.284.071-8.15 1.642l-25.944 6.952zM881.861 140.44l-34.968 9.37-5.189 20.453q-1.072 4.259-1.072 6.542 0 4.369 3.779 5.044v3.177l-25.493 6.831v-3.177q2.256-1.399 3.44-3.702t2.707-8.469l28.314-111.738q1.353-5.327 1.353-8.306 0-4.567-3.271-5.676v-3.177l27.298-7.315v3.178q-3.328 2.579-3.328 6.749 0 2.879 1.072 6.266l29.328 96.59q1.862 6.154 3.272 8.208t3.779 2.215v3.177l-28.314 7.586v-3.177q3.723-2.089 3.723-7.153 0-2.085-1.128-5.853zm-4.85-17.267L864.546 78.26l-12.634 51.638zM1119.92 179.161V64.486q0-3.078-.79-4.455-.789-1.377-2.82-1.826v-3.177l42.921-11.501q14.101-3.778 21.658-.144 10.829 5.339 16.018 22.913 4.118 13.789 4.118 33.746 0 35.048-12.239 56.695-5.133 9.12-12.014 14.29-6.881 5.169-17.541 8.026l-42.921 11.5v-3.177q2.031-1.537 2.82-3.337.79-1.8.79-4.878m16.808-16.418 21.093-5.652q10.096-2.705 15.172-8.93 10.886-13.342 10.886-43.525 0-21.843-5.866-31.888-3.271-5.577-7.896-7.068t-12.296.564l-21.093 5.653z"/>
    </g>
</svg>
