<svg xmlns="http://www.w3.org/2000/svg" width="179" height="250" viewBox="0 0 179 250">
    <path fill-opacity=".204" d="M166.138 0C173.241 0 179 5.643 179 12.605v224.79c0 6.962-5.759 12.605-12.862 12.605H12.862C5.759 250 0 244.357 0 237.395V12.605C0 5.643 5.759 0 12.862 0zm0 6H12.862C9.046 6 6 8.985 6 12.605v224.79c0 3.62 3.046 6.605 6.862 6.605h153.276c3.816 0 6.862-2.985 6.862-6.605V12.605C173 8.985 169.954 6 166.138 6"/>
    <path fill-opacity=".203" d="m93.769 84.582 1.959.17q6.025.51 8.501.51 1.922 0 7.393-.51 1.441-.113 2.291-.17v5.098h-.702q-4.361 0-9.943 8.158l-.037.056-15.228 22.376 16.374 26.228q.776 1.246 2.181 3.568 6.32 10.367 9.684 10.367.443 0 .665-.028.222-.029.407-.085l-.037 5.098q-.739-.057-2.255-.227-4.842-.453-6.579-.453-1.035 0-4.842.34-2.329.227-3.696.34.037-.17.055-.312.019-.141.019-.481 0-3.682-12.198-23.169-6.061-9.63-9.684-15.578l13.639-22.036.518-.906q5.507-8.95 5.507-10.48 0-1.473-.739-2.124-.739-.652-2.44-.652h-.813zm-31.713 0q3.955.34 6.801.51t4.546.17q1.626 0 4.158-.142 2.532-.141 6.894-.425v4.985h-.74q-3.4 0-4.509 2.493t-1.109 13.708v38.294q0 11.33 1.109 13.794t4.325 2.464q.184 0 .646-.057.463-.056.721-.056v5.098q-1.146-.057-3.289-.227-6.21-.453-8.428-.453-1.848 0-4.731.17t-6.764.51v-5.098q.259.056.555.085.295.028.85.028 2.994 0 4.047-2.946 1.053-2.945 1.053-14.105v-5.835q0-2.719-.018-4.107-.019-1.387-.055-2.69v-12.406q0-3.002.036-7.619.037-4.617.037-6.316 0-9.574-1.053-12.208t-4.047-2.634q-.111 0-.481.057-.369.056-.554.056z"/>
</svg>
