<svg xmlns="http://www.w3.org/2000/svg" width="179" height="250" viewBox="0 0 179 250">
    <path fill-opacity=".204" d="M166.138 0C173.241 0 179 5.643 179 12.605v224.79c0 6.962-5.759 12.605-12.862 12.605H12.862C5.759 250 0 244.357 0 237.395V12.605C0 5.643 5.759 0 12.862 0zM173 71.731l-.791 3.23q-.957 3.559-2.272 6.524t-3.073 4.63q-2.172 2.058-3.822 1.557t-2.507-2.833q-.589-1.602-.884-3.73l-.099-.831c-.628 3.908-.302 2.089-.952 5.461q-.934 4.569-2.257 8.082-1.323 3.512-3.34 5.423-1.758 1.666-2.984 1.746t-2.108-.705q-.882-.786-1.442-2.024t-.935-2.257l-.209.001q-.318 2.168-.765 4.458-.448 2.291-1.17 4.497t-1.709 4.075q-.986 1.868-2.383 3.191-2.482 2.351-4.513 1.475t-3.72-5.466l-.353-1.134-.023.114q-1.799 8.189-4.249 13.85t-6.588 9.58q-3.568 3.38-6.288 2.812-2.719-.567-4.355-5.011l-.189-.627c-.707 4.332-.318 2.19-1.164 6.427q-1.097 5.166-2.463 8.278t-3.331 4.972q-2.017 1.911-3.824 1.265t-2.773-3.269q-.294-.802-.384-1.994l-.157-.047q-.604 4.993-2.086 9.589-1.482 4.597-4.688 7.634-2.431 2.302-4.452 1.171t-3.146-4.192c-.678-2.18-.558-1.42-.68-2.205-.962 4.703-2.453 9.266-4.219 13.722q-2.45 5.661-6.587 9.58-3.569 3.38-6.288 2.813-2.72-.568-4.355-5.012l-.327-1.079c-.37 2.431-.059.461-1.153 5.87q-1.164 5.082-2.819 9.302t-4.035 6.474q-2.637 2.498-4.731 1.829-2.095-.668-3.382-4.165-.804-2.186-.935-4.911t-.106-5.499q.025-2.775-.025-5.282-.051-2.506-.668-4.182-.777-2.112-2.006-2.324t-2.521 1.013l-.569.539-.167-1.021q2.534-2.4 4.168-4.783t2.663-6.6q.778-3.193.623-7.025t-1.308-6.965q-.643-1.748-1.96-2.957t-2.858-1.419q-.928 3.924-1.461 8.065-.534 4.141-.79 8.657t-.323 9.639-.141 10.99q-.123 8.762-1.203 15.778-1.08 7.015-3.009 12.576-1.929 5.56-4.602 9.763-2.673 4.202-5.983 7.337-3.931 3.723-7.218 3.889t-4.922-4.278q-.831-2.258-.451-4.828t2.086-4.187q1.5-1.42 2.781-1.161 1.281.26 2.059 2.373.455 1.239.417 2.65-.038 1.412-.858 2.975.111.681.164.826.858 2.331 2.412 2.383 1.553.051 3.311-1.614 2.173-2.058 3.576-5.352t2.238-7.278 1.223-8.428.515-8.74q.127-4.297.129-8.179.001-3.881.103-6.827.071-6.06.445-10.541.374-4.48 1.156-8.513.783-4.032 2.087-8.165 1.303-4.133 3.234-9.499-2.11.329-4.457 1.913t-4.156 3.298q-2.379 2.254-4.762 5.444t-4.434 7q-2.05 3.809-3.601 8.028t-2.343 8.606q-.792 4.385-.633 8.704t1.504 8.351q.563 1.53 1.371 2.778.808 1.249 1.794 1.937.985.687 2.159.656t2.442-1.134q2.353-2.327 3.535-5.559 1.182-3.231 1.474-6.701t-.171-6.814-1.375-5.82q-.643-1.749-1.296-3.144t-1.212-2.536l.542-.612q.612 1.286 1.265 2.584t1.349 3.193q1.608 4.371 1.782 8.823.174 4.453-.7 8.523t-2.628 7.451-4.03 5.537q-1.862 1.763-3.67 2.346t-3.391.166q-1.583-.416-2.875-1.747c-.678-.788-.452-.445-.765-.966v33.413c0 3.62 3.046 6.605 6.862 6.605h153.276c3.816 0 6.862-2.985 6.862-6.605zM166.138 6H12.862C9.046 6 6 8.985 6 12.605v165.136c1.794-4.876.898-2.701 2.601-6.56q2.378-5.101 5.14-9.535t5.624-8.029 5.241-5.848q3.154-2.988 5.824-4.927t4.693-3.07q1.13-1.857 2.082-3.25t1.959-2.543 2.014-2.202q1.008-1.053 2.197-2.18l.425.777q-2.792 2.645-4.053 4.527-1.26 1.881-1.896 3.564 1.718-.448 3.296-.519 1.578-.07 2.928.47 1.349.539 2.458 1.847t1.94 3.565q1.421 3.862.898 7.747-.524 3.885-2.185 7.423t-4.046 6.633q-2.384 3.093-4.684 5.37l.053.145q1.328-.372 2.658-.454 1.33-.081 2.522.411 1.193.492 2.234 1.617 1.042 1.126 1.793 3.166.59 1.602.871 3.694t.419 4.171q.138 2.08.326 3.916.187 1.837.616 3.002.402 1.093 1.056 1.259.654.167 1.275-.421.931-.882 1.823-3.102t1.66-5.06 1.401-6.141l.586-3.191c-.596-4.622-.516-2.546-.456-6.217q.292-4.893 1.706-9.672 1.415-4.779 3.619-8.929t4.686-6.502q2.483-2.352 4.502-2.741t2.957 2.16q.938 2.55-.123 6.11-1.062 3.559-2.97 7.185t-4.032 6.766q-2.122 3.14-3.358 4.9.165.826.381 1.604.217.777.485 1.506.482 1.311 1.158 2.39.677 1.079 1.516 1.561.84.481 1.856.305 1.016-.177 2.206-1.303 2.431-2.303 4.298-7.461 1.868-5.159 3.319-11.642l.088-.427c-.561-3.613-.414-1.849-.484-5.29q.107-5.111 1.416-10.084t3.589-9.294q2.28-4.322 5.073-6.967 1.655-1.568 3.199-1.163 1.543.404 2.683 2.174l.895-39.262 7.179-7.782q-.591 14.314-1.025 24.599-.435 10.285-.717 17.478t-.382 11.66-.074 7.095q.026 2.629.182 3.905.156 1.277.451 2.079.321.874.859 1.102.537.228 1.261-.458.879-.833 1.946-3.809t1.864-6.874c.791-4.086.421-1.994 1.102-6.278-.665-5.152-.587-2.898-.524-6.746q.291-4.894 1.706-9.672t3.619-8.93q2.204-4.15 4.686-6.502t4.501-2.741 2.957 2.161-.123 6.109q-1.061 3.56-2.97 7.186t-4.031 6.765q-2.123 3.141-3.358 4.9.165.827.381 1.604t.484 1.506q.483 1.312 1.159 2.391t1.516 1.56q.84.482 1.856.305 1.016-.176 2.205-1.303 2.431-2.302 4.299-7.461t3.318-11.641l.083-.405c-.59-3.514-.417-1.858-.592-4.959q-.109-4.465.954-9.253t3.288-9.354q2.226-4.564 5.691-7.846 2.017-1.911 3.6-1.495 1.583.417 2.671 2.235l.103-.097-.049-5.063 7.236-7.247q-.14 1.704-.374 4.383-.235 2.679-.492 5.771t-.447 6.367-.239 6.268q-.049 2.994.105 5.403t.637 3.719q.777 2.113 1.967.986 1.086-1.028 2.024-3.881.937-2.854 1.798-6.96c.697-3.506.299-1.406 1.135-6.311-.101-1.385-.052-.583-.125-2.408q-.096-3.199.003-7.763t.349-10.991q.251-6.426.611-15.02.359-8.593.745-19.864l7.334-7.929q-.721 16.992-1.31 28.848t-.864 19.73-.168 12.243.832 6.335q.295.801.792.92t.911-.273q1.189-1.127 2.316-4.699t2.047-8.178l.143-.784V12.605C173 8.985 169.954 6 166.138 6M67.683 143.9c-.777.316-.46.113-.988.549q-1.137 1.077-1.853 3.966-.716 2.888-.983 6.236-.268 3.348-.21 6.536.057 3.188.44 4.986 1.931-2.713 3.167-5.702 1.237-2.988 1.836-5.815.598-2.827.522-5.309-.077-2.482-.72-4.23c-.292-.773-.431-.98-1.211-1.217m23.859-22.212c-1.238.323-.733.046-1.574.716q-1.551 1.47-2.48 5.297-.928 3.826-1.249 8.355t-.004 8.895q.316 4.367 1.255 6.917.616 1.675 1.419 2.34.802.664 1.785-.267 1.241-1.175 2.054-3.419t1.294-5.107q.481-2.862.607-6.027t.032-6.072-.431-5.34-.846-3.816q-.617-1.675-1.431-2.279zm26.928-25.894c-.778.317-.46.114-.988.549q-1.138 1.078-1.854 3.966-.715 2.889-.983 6.237-.267 3.348-.21 6.535t.44 4.987q1.931-2.713 3.168-5.702 1.236-2.989 1.835-5.816t.522-5.308q-.076-2.482-.719-4.231c-.293-.772-.432-.98-1.211-1.217m23.572-22.079c-1.123.391-.682.122-1.391.682q-1.086 1.029-1.822 3.102-.737 2.073-1.167 4.789t-.596 5.772-.073 5.963q.094 2.908.485 5.485.39 2.577 1.007 4.253.456 1.239 1.234 2.122.779.884 1.813-.096 1.086-1.029 2.069-4.612t1.512-8.211.391-9.36-1.344-8.011q-.617-1.676-1.623-1.852z"/>
</svg>
