<svg xmlns="http://www.w3.org/2000/svg" width="179" height="250" viewBox="0 0 179 250">
    <path fill-opacity=".199" d="M166.138 0C173.241 0 179 5.643 179 12.605v224.79c0 6.962-5.759 12.605-12.862 12.605H12.862C5.759 250 0 244.357 0 237.395V12.605C0 5.643 5.759 0 12.862 0zm0 6H12.862C9.046 6 6 8.985 6 12.605v166.034c.22-2.19.884-4.298 1.546-6.384q1.31-3.775 3.344-7.568 2.035-3.792 4.27-7.334t4.362-6.602 3.695-5.493q2.929-4.567 4.809-7.562t2.953-5.297l.916.896q-1.741 4.666-2.227 9.859-.487 5.194-.327 10.824.161 5.631.736 11.695.576 6.063.915 12.455.34 6.391.167 13.093-.172 6.702-1.449 13.664l.173.058q3.052-7.407 5.126-14.289t3.458-14.215 2.154-15.461 1.244-17.943q.243-5.459 1.274-10.176t2.237-8.232 2.349-5.72q1.145-2.205 1.673-2.694.646-.598 1.135-.287.489.31.712.975.392 1.164-.095 2.923-.486 1.759-1.263 3.569t-1.524 3.483q-.746 1.672-.905 2.801-.322 2.479.005 6.428.327 3.95.901 8.979l1.227 10.75q.652 5.72.983 11.628t.184 11.769-1.229 11.115l.173.058q2.211-5.101 4.607-11.026 2.395-5.926 4.55-12.338 2.156-6.412 3.808-13.176t2.374-13.43q.723-6.666.327-13.114-.397-6.448-2.381-12.352-.869-.067-1.6-.753t-1.29-2.349q-.643-1.913-.118-4.361.524-2.448 1.874-3.698 1.056-.979 2.102-1.075t1.966.469q.921.565 1.646 1.692t1.2 2.541q1.537 4.574 1.636 10.48.099 5.905-.796 12.403-.894 6.499-2.605 13.317t-3.781 13.369-4.247 12.439q-2.178 5.887-4.063 10.468t-3.244 7.638q-1.358 3.058-1.747 3.963-1.372 3.015-1.998 4.358-.627 1.343-.956 2.194l-1.568.144q.654-3.55.14-8.744t-1.382-11.096-1.63-12.065-.55-11.485l-.174-.058q-.822 12.211-2.576 21.304-1.754 9.094-3.662 15.44-1.908 6.347-3.505 9.952-1.598 3.606-2.02 4.869-.181.605-.549 2.145-.368 1.539-.883 3.325-.516 1.787-1.174 3.377-.659 1.591-1.422 2.298-.528.489-.902.291-.375-.198-.571-.78-.223-.666-.055-1.312.167-.646.468-1.469.3-.824.574-1.841t.26-2.203q.02-6.125-.62-11.693-.639-5.568-1.296-10.957t-1.109-10.858q-.453-5.469-.102-11.409t1.741-12.57q1.389-6.63 4.416-14.34l-.173-.058-9.473 15.097q-5.506 8.807-7.861 16.113t-.594 12.545q.754 2.245 2.395 3.233 1.64.989 3.519-.751 1.173-1.087 1.786-2.472.612-1.384.805-2.871t.022-2.911q-.17-1.423-.534-2.504-.335-.998-.715-1.9t-.892-1.736l.587-.544q.484.752.923 1.599.438.848.802 1.929 1.537 4.573.231 9.163t-4.533 7.578q-1.233 1.142-2.527 1.414-1.294.271-2.448-.186-1.155-.458-2.083-1.616-.927-1.158-1.486-2.821c-.551-2.004-.395-1.082-.566-2.748v53.514c0 3.62 3.046 6.605 6.862 6.605h153.276c3.816 0 6.862-2.985 6.862-6.605V60.451c-.418 2.436-.979 4.845-1.524 7.255q-2.205 9.239-5.07 15.599-2.865 6.361-7.561 10.71-4.05 3.75-7.057 3.046t-4.712-5.776l-.364-1.335c-.353 2.075-.009.061-1.305 5.988q-1.423 5.842-3.648 10.901t-5.747 8.321q-2.7 2.501-4.705 1.686-2.005-.814-3.095-4.057-.559-1.663-.781-3.584l-.088-.956c-1.578 6.35-.781 3.596-2.253 8.303q-1.96 5.85-5.057 11.062-3.097 5.213-7.851 9.616-1.761 1.63-3.484 2.572-1.723.941-3.202.893t-2.697-1.155c-.766-.829-.438-.383-.992-1.333-.618 2.9-1.543 5.719-2.564 8.498q-1.559 3.951-3.848 6.071-1.996 1.848-3.36 1.912t-2.323-.846q-.96-.91-1.552-2.326-.591-1.415-.982-2.579l-.232-.003q-.408 2.449-.963 5.035t-1.413 5.07q-.858 2.485-2.001 4.58-1.143 2.094-2.728 3.562-2.818 2.609-5.052 1.571-2.235-1.038-3.995-6.277-1.23-3.659-1.238-8.722t1.293-10.465q1.301-5.403 3.89-10.526 2.588-5.123 6.521-8.765 2.289-2.12 4.037-1.613t2.911 2.593l.117-.109.073-5.738 8.223-8.051q-.198 1.928-.527 4.958t-.692 6.529q-.364 3.499-.657 7.206-.294 3.706-.424 7.098t-.02 6.124q.111 2.733.614 4.23.81 2.412 2.16 1.161 1.233-1.141 2.347-4.354c.757-2.185 1.354-4.423 1.892-6.672-.293-.502-.074-.106-.516-1.254q-1.034-3.077-.255-6.142.778-3.065 2.598-4.75l.588-.467c.861-5.654.509-3.21 1.084-7.329-.46-.657-.225-.257-.629-1.239q-.671-1.996-.64-4.423t.804-5.052q.773-2.623 2.313-5.14t3.888-4.691q3.404-3.153 6.091-3.515t3.722 2.714q.782 2.328.156 4.816t-2.152 3.902q-1.35 1.25-2.86 1.339.104-1.295.003-2.51-.1-1.216-.519-2.463-.699-2.079-1.933-3.117t-2.76.375q-1.35 1.251-1.666 3.288t.411 4.199q.699 2.079 2.18 3.051 1.481.973 3.095 1.768t3.137 1.892 2.334 3.509q.95 2.827.697 5.624t-1.628 6.033l.173.058q2.188-3.336 3.912-7.712t3.003-9.269c1.216-5.165.855-3.272 1.291-5.637l-.002-1.063q.025-3.131.23-7.791.204-4.66.584-11.772l-4.754 4.403-.036-1.711 4.871-4.512.937-16.678 8.019-7.972-1.091 17.366 8.042-7.447-.023 1.765-8.1 7.502q-.151 2.757-.499 7.331-.348 4.575-.583 9.372-.235 4.798-.202 9.019.034 4.222.732 6.301.475 1.413 1.257 1.562t1.779-.775q1.526-1.413 2.823-4.195t2.385-6.299q1.089-3.516 1.907-7.381c.802-3.935.538-2.538.845-4.178-.511-4.923-.47-2.678-.315-6.726q.447-5.539 2.14-10.923t4.246-10.038 5.371-7.264 5.07-3.005l.543-.047c1.533.138 2.174 1.248 2.688 2.561q.978 2.911-.291 6.921-1.27 4.01-3.482 8.076t-4.65 7.578q-2.437 3.511-3.854 5.477.162.941.383 1.827.221.885.5 1.717.503 1.497 1.227 2.735t1.645 1.802q.921.565 2.054.387t2.483-1.427q2.759-2.555 4.964-8.359t3.981-13.118q1.104-4.73 1.765-8.832l.175-1.121v-43.68C173 8.985 169.954 6 166.138 6M83.861 123.601c-1.258.418-.762.124-1.562.741q-1.232 1.142-2.103 3.475t-1.417 5.401q-.547 3.069-.808 6.527-.262 3.459-.231 6.756.03 3.298.399 6.227t1.012 4.843q.475 1.413 1.318 2.432.842 1.019 2.016-.068 1.233-1.142 2.415-5.181 1.183-4.039 1.887-9.271.705-5.232.671-10.599-.033-5.366-1.291-9.108-.642-1.913-1.756-2.135zm21.326-5.65-.945 6.583c.927-.363.474-.293 1.347-.28q1.216.182 1.887 2.178.615 1.829.159 3.451-.456 1.621-1.395 2.491-.704.652-1.258.837-.069.938.238 1.852.894 2.661 2.381 3.192t3.424-1.262q2.524-2.338 3.058-5.558.534-3.221-.444-6.131-.587-1.746-1.909-2.703t-2.805-1.818q-1.482-.863-2.818-1.861c-.752-.66-.463-.32-.92-.971m53.002-63.462c-.873.342-.515.12-1.112.601q-1.291 1.196-2.159 4.453t-1.249 7.045q-.382 3.788-.399 7.402t.363 5.661q2.214-3.032 3.663-6.391t2.186-6.549.714-6.005q-.022-2.814-.693-4.81c-.331-.911-.403-1.104-1.314-1.407"/>
</svg>
