<svg xmlns="http://www.w3.org/2000/svg" width="252" height="54" viewBox="0 0 252 54">
    <g fill-opacity=".401">
        <path d="M88.671 7.288q2.116 0 3.565.897l.304.242 5.929-.403q-4.6 7.636-7.866 12.926t-5.359 8.855-3.082 5.658-.989 3.335q0 .506.299.782t.667.276q1.058 0 2.668-1.173t3.335-2.921l1.339-1.43c-.032-1.524.549-2.94 1.214-4.274q1.242-2.116 3.197-3.611t4.416-2.277 4.853-.782q1.978 0 3.266.552t2.185 1.357 1.518 1.771 1.242 1.771 1.38 1.357 1.909.552c1.349-.195.741-.015 1.841-.477l3.541-6.055 6.532-.276q-3.312 4.6-6.348 9.384l.092.092q1.196-1.518 2.668-3.266t3.105-3.243 3.358-2.507 3.427-1.012q1.748 0 2.921.897t1.173 2.737q0 1.518-.943 3.128t-2.093 3.151-2.093 2.944-.943 2.461q0 .46.253.805t.805.345q1.012 0 2.3-.943t2.668-2.323c1.389-1.442.718-.72 2.014-2.163.629-2.407.222-1.365 1.091-3.173q1.311-2.346 3.381-4.094t4.623-2.76 5.037-1.012q1.472 0 2.392.874t1.242 2.208l10.12-17.986 6.624-.46q-3.864 6.44-6.647 11.063t-4.715 7.866-3.082 5.29-1.771 3.289-.828 1.909-.207 1.173q0 .552.299.897t.943.345q.782 0 2.208-.92t2.898-2.392c2.223-2.372 1.487-1.476 2.36-2.555.427-1.247.129-.494 1.021-2.206q1.771-3.105 4.485-7.659l6.578-.184q-1.472 2.346-2.898 4.554t-2.53 4.117-1.771 3.381-.667 2.346q0 .644.23 1.081t.828.437q.92 0 2.001-.667t2.231-1.702c1.414-1.357.789-.714 1.895-1.908 3.381-5.725 1.211-2.047 6.5-11.041q4.669-7.958 9.407-16.054l6.624-.46q-3.864 6.486-7.705 12.834t-7.797 12.466l.092.092 2.691-3.289q1.449-1.771 3.059-3.266t3.404-2.484 3.772-.989q.782 0 1.518.161t1.288.552.897.989.345 1.472q0 1.518-1.104 2.461t-2.599 1.472-3.059.759-2.484.322v.092l1.38.552q.69.276 1.242.667t.92.966.368 1.403q0 .46-.161.966t-.368.989-.368.943-.161.828q0 .874.782.874t1.794-.621 2.162-1.61 2.323-2.231c1.175-1.287.778-.823 1.232-1.357.791-2.637.296-1.555 1.275-3.335q1.38-2.162 3.473-3.772t4.554-2.576 4.669-.966 3.634.713 1.426 2.323-1.564 2.806-3.703 2.047-4.301 1.38-3.404.805q-.092.46-.138.92t-.046.92q0 .828.184 1.633t.621 1.403 1.15.966 1.771.368q2.162 0 4.646-1.587t5.014-3.979q1.61-1.564 2.829-3.036t2.047-2.668l.414.276q-1.058 1.518-2.369 3.059t-2.967 3.151q-3.174 3.036-6.164 4.6t-6.67 1.564q-3.174 0-4.83-1.472t-1.656-4.278l.036-.504-1.6 1.7q-1.38 1.38-2.484 2.254t-2.116 1.38-1.955.713-1.955.207q-1.932 0-3.151-.828t-1.219-2.53q0-.966.345-1.679t.759-1.357.759-1.311.345-1.495q-.598.23-1.242.414t-1.288.184q-.322 0-.552-.138t-.23-.506q0-.736 1.104-.736.736 0 1.288.115t.966.115q.69 0 1.403-.437t1.334-1.104 1.012-1.495.391-1.61q0-.552-.322-.943t-.92-.391q-.828 0-2.001.828t-2.484 2.162-2.645 2.99-2.507 3.312-2.093 3.151-1.426 2.461l-6.348.276 2.005-3.395c-1.026 1.076-2.208 1.982-3.431 2.82q-1.794 1.127-4.002 1.127-1.886 0-2.852-1.081t-.966-3.013c.132-1.315-.009-.751.32-1.713l-2.068 2.173q-1.978 1.932-3.634 2.783t-3.404.851q-1.794 0-2.829-1.104t-1.035-2.76q0-.506.23-1.104l-.092-.092q-1.61 2.07-3.703 3.565t-4.945 1.495q-2.162 0-3.22-1.426t-1.058-3.358l.053-.859-1.433 1.549q-1.886 1.932-3.657 3.013t-3.611 1.081q-2.07 0-3.105-1.219t-1.035-3.151q0-1.656.897-3.151t2.001-2.806 2.001-2.415.897-2.07q0-1.288-1.242-1.288-.828 0-2.024.851t-2.576 2.231-2.806 3.082-2.691 3.404-2.208 3.22-1.403 2.484l-6.256.276 5.522-9.444c-.779.247-.324.141-1.382.244q-1.196 0-2.139-.575t-1.725-1.541h-.092q0 2.392-1.127 4.554t-2.99 3.795-4.255 2.576-4.968.943q-1.518 0-2.944-.322t-2.53-1.058-1.771-1.932c-.452-.794-.606-1.708-.65-2.609l-.316.355q-1.357 1.472-2.852 2.714t-3.082 2.047-3.151.805q-1.932 0-2.898-.966t-.966-2.438q0-1.012.322-2.139l.069-.202-1.127 1.191q-2.162 2.116-4.301 3.243t-4.945 1.127q-2.162 0-3.404-1.081t-1.242-3.243q0-1.334.644-2.783t1.403-2.875 1.38-2.737.621-2.323q0-1.288-.782-1.863t-2.116-.575q-.276 0-.483-.046t-.207-.23q0-.276.506-.276 1.886 0 3.381-.299t2.898-1.15 2.875-2.369 3.266-3.956q1.656-2.208 3.404-3.703t3.496-2.392 3.496-1.288 3.312-.391m15.226 16.652q-1.104 0-2.231.759t-2.185 1.978-1.978 2.76-1.61 3.105-1.081 3.036-.391 2.576q0 1.058.483 1.702t1.357.644q1.104 0 2.231-.759t2.185-1.978 1.978-2.76 1.61-3.105 1.081-3.059.391-2.553-.483-1.702-1.357-.644M88.073 7.84q-.966 0-1.794.828t-1.702 2.139-1.886 2.898-2.3 3.105q-1.518 1.748-3.036 2.875t-3.358 1.84-4.117 1.104-5.267.667v.092q1.058.552 2.024 1.15t1.725 1.403 1.219 1.817.46 2.346q0 .966-.345 2.024t-.759 2.093-.759 1.978-.345 1.633q0 .782.368 1.219t1.15.437q1.288 0 2.944-1.081t3.542-3.059l1.226-1.341.499-1.166q.713-1.541 1.886-3.634t2.898-4.991 4.048-6.762c1.758-2.937.805-1.338 2.856-4.801.381-1.522.255-.76.387-2.283q0-2.53-1.564-2.53m65.412 16.1q-1.38 0-2.921 1.38t-2.852 3.358-2.162 4.163-.851 3.795q0 1.058.368 1.725t1.242.667q1.104 0 2.185-.69t2.093-1.817 1.863-2.553 1.495-2.829 1.012-2.691.368-2.162q0-1.058-.391-1.702t-1.449-.644m61.962 0q-1.012 0-2.185 1.035t-2.162 2.484-1.725 2.967-.92 2.53q1.932-.414 3.473-1.265t2.622-1.909 1.633-2.254.552-2.3q0-1.288-1.288-1.288"/>
        <path d="M79.241 6.736q1.38 0 1.38.828 0 .414-.667.575t-1.357.161q-.552 0-1.288-.046t-1.564-.046h-.046q-.506 0-1.587.322t-2.461 1.196-2.967 2.369-3.105 3.795q-1.61 2.392-3.082 5.175t-3.105 5.566-3.542 5.359-4.393 4.554-5.635 3.151-7.291 1.173q-1.61 0-2.967-.391t-2.346-1.081-1.541-1.679-.552-2.185q0-1.472.828-2.507t2.438-1.035q1.058 0 1.932.621t.874 1.771q0 .874-.368 1.541t-1.242.897q0 .092-.023.184t-.023.276q0 1.426.943 2.254t2.461.782q2.714-.046 4.784-1.518t3.979-4.025 3.864-6.072 4.347-7.659q1.84-3.174 4.071-5.428t4.6-3.749 4.692-2.346T73.629 8.3v-.092q-8.694.046-14.582 1.196t-9.499 2.944-5.175 4.048-1.564 4.462q0 1.794 1.15 2.898t2.898 1.104q1.288 0 2.438-.552t2.001-1.403 1.334-1.932.483-2.093q0-1.748-1.058-3.174l.414-.184q.46.552.828 1.38t.368 2.07q0 1.288-.667 2.645t-1.909 2.438-2.99 1.771-3.864.69q-2.714 0-4.416-1.587t-1.702-4.347q0-2.3 1.219-4.094t3.312-3.151 4.807-2.3 5.704-1.564 6.072-.989 5.842-.552 5.037-.23 3.657-.046q.598 0 1.357-.138t1.518-.322 1.449-.322 1.15-.138M177.865 13.544q1.334 0 2.277.943t.943 2.277-.943 2.277-2.277.943-2.277-.943-.943-2.277.943-2.277 2.277-.943"/>
    </g>
</svg>
