<svg xmlns="http://www.w3.org/2000/svg" width="504" height="342" viewBox="0 0 504 342">
    <g opacity=".498">
        <path fill="red" d="M19.571 17.149h49.05a4 4 0 0 1 4 4v72.212a4 4 0 0 1-4 4h-49.05a4 4 0 0 1-4-4V21.149a4 4 0 0 1 4-4"/>
        <path fill="none" stroke="#000" stroke-width="4" d="M19.571 17.149h49.05a4 4 0 0 1 4 4v72.212a4 4 0 0 1-4 4h-49.05a4 4 0 0 1-4-4V21.149a4 4 0 0 1 4-4z"/>
        <path fill="#ff0" d="M91.379 17.149h49.05a4 4 0 0 1 4 4v72.212a4 4 0 0 1-4 4h-49.05a4 4 0 0 1-4-4V21.149a4 4 0 0 1 4-4"/>
        <path fill="none" stroke="#000" stroke-width="4" d="M91.379 17.149h49.05a4 4 0 0 1 4 4v72.212a4 4 0 0 1-4 4h-49.05a4 4 0 0 1-4-4V21.149a4 4 0 0 1 4-4z"/>
        <path fill="#00ff46" d="M229.379 17.149h49.05a4 4 0 0 1 4 4v72.212a4 4 0 0 1-4 4h-49.05a4 4 0 0 1-4-4V21.149a4 4 0 0 1 4-4"/>
        <path fill="none" stroke="#000" stroke-width="4" d="M229.379 17.149h49.05a4 4 0 0 1 4 4v72.212a4 4 0 0 1-4 4h-49.05a4 4 0 0 1-4-4V21.149a4 4 0 0 1 4-4z"/>
        <path fill="#00ff46" d="M298.379 17.149h49.05a4 4 0 0 1 4 4v72.212a4 4 0 0 1-4 4h-49.05a4 4 0 0 1-4-4V21.149a4 4 0 0 1 4-4"/>
        <path fill="none" stroke="#000" stroke-width="4" d="M298.379 17.149h49.05a4 4 0 0 1 4 4v72.212a4 4 0 0 1-4 4h-49.05a4 4 0 0 1-4-4V21.149a4 4 0 0 1 4-4z"/>
        <path fill="#00ff46" d="M367.379 17.149h49.05a4 4 0 0 1 4 4v72.212a4 4 0 0 1-4 4h-49.05a4 4 0 0 1-4-4V21.149a4 4 0 0 1 4-4"/>
        <path fill="none" stroke="#000" stroke-width="4" d="M367.379 17.149h49.05a4 4 0 0 1 4 4v72.212a4 4 0 0 1-4 4h-49.05a4 4 0 0 1-4-4V21.149a4 4 0 0 1 4-4z"/>
        <path fill="#00ff46" d="M436.379 17.149h49.05a4 4 0 0 1 4 4v72.212a4 4 0 0 1-4 4h-49.05a4 4 0 0 1-4-4V21.149a4 4 0 0 1 4-4"/>
        <path fill="none" stroke="#000" stroke-width="4" d="M436.379 17.149h49.05a4 4 0 0 1 4 4v72.212a4 4 0 0 1-4 4h-49.05a4 4 0 0 1-4-4V21.149a4 4 0 0 1 4-4z"/>
        <path fill="#000dff" d="M22.379 109.851h49.05c2.209 0 4 .578 4 1.292v69.416c0 .713-1.791 1.292-4 1.292h-49.05c-2.21 0-4-.579-4-1.292v-69.416c0-.714 1.79-1.292 4-1.292"/>
        <path fill="none" stroke="#000" stroke-width="4" d="M22.379 109.851h49.05c2.209 0 4 .578 4 1.292v69.416c0 .713-1.791 1.292-4 1.292h-49.05c-2.21 0-4-.579-4-1.292v-69.416c0-.714 1.79-1.292 4-1.292z"/>
        <path fill="#000dff" d="M91.379 109.851h49.05c2.209 0 4 .769 4 1.719v92.322c0 .949-1.791 1.719-4 1.719h-49.05c-2.21 0-4-.77-4-1.719V111.57c0-.95 1.79-1.719 4-1.719"/>
        <path fill="none" stroke="#000" stroke-width="4" d="M91.379 109.851h49.05c2.209 0 4 .769 4 1.719v92.322c0 .949-1.791 1.719-4 1.719h-49.05c-2.21 0-4-.77-4-1.719V111.57c0-.95 1.79-1.719 4-1.719z"/>
        <path fill="#000dff" d="M160.379 109.851h49.05c2.209 0 4 .966 4 2.158v115.924c0 1.192-1.791 2.158-4 2.158h-49.05c-2.21 0-4-.966-4-2.158V112.009c0-1.192 1.79-2.158 4-2.158"/>
        <path fill="none" stroke="#000" stroke-width="4" d="M160.379 109.851h49.05c2.209 0 4 .966 4 2.158v115.924c0 1.192-1.791 2.158-4 2.158h-49.05c-2.21 0-4-.966-4-2.158V112.009c0-1.192 1.79-2.158 4-2.158z"/>
        <path fill="#000dff" d="M229.379 109.851h49.05c2.209 0 4 1.294 4 2.889v138.221c0 1.596-1.791 2.89-4 2.89h-49.05c-2.21 0-4-1.294-4-2.89V112.74c0-1.595 1.79-2.889 4-2.889"/>
        <path fill="none" stroke="#000" stroke-width="4" d="M229.379 109.851h49.05c2.209 0 4 1.294 4 2.889v138.221c0 1.596-1.791 2.89-4 2.89h-49.05c-2.21 0-4-1.294-4-2.89V112.74c0-1.595 1.79-2.889 4-2.889z"/>
        <path fill="#000dff" d="M298.379 109.851h49.05c2.209 0 4 1.507 4 3.366v161.028c0 1.859-1.791 3.366-4 3.366h-49.05c-2.21 0-4-1.507-4-3.366V113.217c0-1.859 1.79-3.366 4-3.366"/>
        <path fill="none" stroke="#000" stroke-width="4" d="M298.379 109.851h49.05c2.209 0 4 1.507 4 3.366v161.028c0 1.859-1.791 3.366-4 3.366h-49.05c-2.21 0-4-1.507-4-3.366V113.217c0-1.859 1.79-3.366 4-3.366z"/>
        <path fill="#000dff" d="M367.379 109.851h49.05c2.209 0 4 1.727 4 3.857v184.525c0 2.131-1.791 3.858-4 3.858h-49.05c-2.21 0-4-1.727-4-3.858V113.708c0-2.13 1.79-3.857 4-3.857"/>
        <path fill="none" stroke="#000" stroke-width="4" d="M367.379 109.851h49.05c2.209 0 4 1.727 4 3.857v184.525c0 2.131-1.791 3.858-4 3.858h-49.05c-2.21 0-4-1.727-4-3.858V113.708c0-2.13 1.79-3.857 4-3.857z"/>
        <path fill="#000dff" d="M436.379 109.851h49.05c2.209 0 4 1.94 4 4.334v207.332c0 2.393-1.791 4.334-4 4.334h-49.05c-2.21 0-4-1.941-4-4.334V114.185c0-2.394 1.79-4.334 4-4.334"/>
        <path fill="none" stroke="#000" stroke-width="4" d="M436.379 109.851h49.05c2.209 0 4 1.94 4 4.334v207.332c0 2.393-1.791 4.334-4 4.334h-49.05c-2.21 0-4-1.941-4-4.334V114.185c0-2.394 1.79-4.334 4-4.334z"/>
    </g>
</svg>
