<svg xmlns="http://www.w3.org/2000/svg" xml:space="preserve" width="179" height="250" viewBox="0 0 179 250">
    <path fill="#fff" fill-opacity=".152" d="M166.1 0c7.1 0 12.9 5.6 12.9 12.6v224.8c0 7-5.8 12.6-12.9 12.6H12.9C5.8 250 0 244.4 0 237.4V12.6C0 5.6 5.8 0 12.9 0zm0 4H12.9C8 4 4 7.9 4 12.6v224.8c0 4.7 4 8.6 8.9 8.6h153.3c4.9 0 8.9-3.9 8.9-8.6V12.6c-.1-4.7-4.1-8.6-9-8.6"/>
    <path fill-opacity=".33" d="M95.7 157.5H83.3c1.5-1.7 2.7-3.7 3.4-6 .7-2.4 1.1-5.1 1.1-8.3 0-2-.2-3.4-.5-4.2s-.9-1.2-1.7-1.2c-1.2 0-2.2 1.2-3 3.7-.5 1.2-.9 2.1-1.2 2.8-1 2.2-2.5 3.8-4.3 5s-3.9 1.8-6.1 1.8c-3.3 0-6-1.2-8.3-3.5s-3.4-5.3-3.4-8.8c0-2.7.6-5.3 1.9-8s3.6-6.3 7.1-10.7c.8-1 2.2-2.7 4.1-5 7.4-8.8 13-16.3 17-22.5 3.6 5.7 9 12.9 16.3 21.8 2.1 2.5 3.6 4.4 4.6 5.6q5.25 6.6 7.2 10.8c1.95 4.2 1.9 5.5 1.9 8.2 0 3.5-1.1 6.4-3.4 8.8s-5 3.5-8.3 3.5c-2.2 0-4.2-.6-6.1-1.8s-3.3-2.9-4.3-5c-.3-.6-.7-1.5-1.1-2.8-.9-2.4-1.9-3.7-3.1-3.7-.8 0-1.3.4-1.7 1.2s-.5 2.2-.5 4.2c0 3.2.4 5.9 1.1 8.3s2.2 4.1 3.7 5.8"/>
</svg>
