<svg xmlns="http://www.w3.org/2000/svg" width="179" height="250" viewBox="0 0 179 250">
    <path fill-opacity=".2" d="M166.138 0C173.241 0 179 5.643 179 12.605v224.79c0 6.962-5.759 12.605-12.862 12.605H12.862C5.759 250 0 244.357 0 237.395V12.605C0 5.643 5.759 0 12.862 0zm0 6H12.862C9.046 6 6 8.985 6 12.605v224.79c0 3.62 3.046 6.605 6.862 6.605h153.276c3.816 0 6.862-2.985 6.862-6.605V12.605C173 8.985 169.954 6 166.138 6"/>
    <path fill-opacity=".33" d="M95.688 157.484H83.312q2.297-2.484 3.399-6.023t1.101-8.273q0-2.954-.515-4.172-.516-1.219-1.688-1.219-1.828 0-3.047 3.656-.703 1.781-1.171 2.766-1.547 3.234-4.289 5.039t-6.071 1.804q-4.922 0-8.273-3.515t-3.352-8.766q0-3.984 1.899-8.039 1.898-4.054 7.148-10.711 1.266-1.547 4.125-4.969 11.063-13.218 16.969-22.546 5.391 8.531 16.312 21.75 3.141 3.75 4.641 5.578 5.297 6.656 7.195 10.758t1.899 8.179q0 5.25-3.352 8.766t-8.273 3.515q-3.328 0-6.094-1.804t-4.266-5.039q-.468-.938-1.125-2.766-1.312-3.656-3.093-3.656-1.172 0-1.688 1.219-.515 1.218-.515 4.172 0 4.734 1.124 8.273 1.126 3.539 3.376 6.023"/>
</svg>
